<?xml version="1.0" encoding="utf-8"?>
<!-- Generator: Adobe Illustrator 17.1.0, SVG Export Plug-In . SVG Version: 6.00 Build 0)  -->
<!DOCTYPE svg PUBLIC "-//W3C//DTD SVG 1.1//EN" "http://www.w3.org/Graphics/SVG/1.1/DTD/svg11.dtd">
<svg version="1.1" id="Layer_1" xmlns="http://www.w3.org/2000/svg" xmlns:xlink="http://www.w3.org/1999/xlink" x="0px" y="0px"
	 width="1000px" height="600px" viewBox="0 0 1000 600" enable-background="new 0 0 1000 600" xml:space="preserve">
<g enable-background="new    ">
	<g>
		<polygon fill="#969486" points="832.3,208.1 831.9,209.5 824.8,227.1 825.3,225.7 		"/>
	</g>
	<g>
		<polygon fill="#8F8D80" points="801,225.7 800.6,227.1 795.5,220.7 795.9,219.3 		"/>
	</g>
	<g>
		<polygon fill="#9F9D8E" points="801,225.7 800.6,227.1 794.5,225.3 795,223.9 		"/>
	</g>
	<g>
		<polygon fill="#9F9D8E" points="811.6,228.8 811.2,230.2 800.6,227.1 801,225.7 		"/>
	</g>
	<g>
		<polygon fill="#A9A797" points="825.3,225.7 824.8,227.1 811.2,230.2 811.6,228.8 		"/>
	</g>
	<g>
		<polygon fill="#969486" points="825.3,225.7 824.8,227.1 822.8,232.1 823.3,230.7 		"/>
	</g>
	<g>
		<polygon fill="#8D8C7F" points="439.9,178.4 439.8,179.8 436.3,173.5 436.4,172.1 		"/>
	</g>
	<g>
		<polygon fill="#A9A697" points="823.3,230.7 822.8,232.1 819.8,232.7 820.3,231.4 		"/>
	</g>
	<g>
		<polygon fill="#DDD9C2" points="811.6,228.8 825.3,225.7 823.3,230.7 820.3,231.4 		"/>
	</g>
	<g>
		<polygon fill="#9F9D8E" points="820.3,231.4 819.8,232.7 811.2,230.2 811.6,228.8 		"/>
	</g>
	<g>
		<polygon fill="#DDD9C2" points="436.4,172.1 439.9,178.4 435.6,179.2 432.1,172.9 		"/>
	</g>
	<g>
		<polygon fill="#8D8C7F" points="435.6,179.2 435.5,180.6 432,174.3 432.1,172.9 		"/>
	</g>
	<g>
		<polygon fill="#B0AE9D" points="439.9,178.4 439.8,179.8 435.5,180.6 435.6,179.2 		"/>
	</g>
	<g>
		<polygon fill="#8D8C7F" points="437.6,182.9 437.5,184.3 435.5,180.6 435.6,179.2 		"/>
	</g>
	<g>
		<polygon fill="#AAA797" points="795.9,219.3 795.5,220.7 752.7,230.2 753.1,228.8 		"/>
	</g>
	<g>
		<polygon fill="#A9A797" points="795,223.9 794.5,225.3 755.6,234.1 756,232.7 		"/>
	</g>
	<g>
		<polygon fill="#8E8D7F" points="756,232.7 755.6,234.1 752.7,230.2 753.1,228.8 		"/>
	</g>
	<g>
		<polygon fill="#DDD9C2" points="756,232.7 753.1,228.8 795.9,219.3 801,225.7 795,223.9 		"/>
	</g>
	<g>
		<polygon fill="#A9A797" points="756,232.7 755.6,234.1 751.6,235 752,233.6 		"/>
	</g>
	<g>
		<polygon fill="#8D8C7F" points="417.3,191.8 417.2,193.2 414.8,188.7 414.9,187.3 		"/>
	</g>
	<g>
		<polygon fill="#DDD9C2" points="414.9,187.3 417.3,191.8 412.9,192.6 410.5,188.1 		"/>
	</g>
	<g>
		<polygon fill="#8D8C7F" points="412.9,192.6 412.8,194.1 410.4,189.6 410.5,188.1 		"/>
	</g>
	<g>
		<polygon fill="#B0AD9D" points="417.3,191.8 417.2,193.2 412.8,194.1 412.9,192.6 		"/>
	</g>
	<g>
		<polygon fill="#8D8C7F" points="414.9,196.4 414.8,197.9 412.8,194.1 412.9,192.6 		"/>
	</g>
	<g>
		<polygon fill="#A7A596" points="773.8,262.5 773.4,263.8 753,268.6 753.3,267.3 		"/>
	</g>
	<g>
		<polygon fill="#A7A595" points="776.8,266.5 776.5,267.9 756,272.7 756.3,271.3 		"/>
	</g>
	<g>
		<polygon fill="#8E8C7F" points="756.3,271.3 756,272.7 753,268.6 753.3,267.3 		"/>
	</g>
	<g>
		<polygon fill="#DDD9C2" points="756.3,271.3 753.3,267.3 773.8,262.5 776.8,266.5 		"/>
	</g>
	<g>
		<polygon fill="#999889" points="577.4,247.6 577.2,249 533.5,234 533.7,232.6 		"/>
	</g>
	<g>
		<polygon fill="#A7A595" points="756.3,271.3 756,272.7 751.8,273.7 752.2,272.3 		"/>
	</g>
	<g>
		<polygon fill="#A4A293" points="533.7,232.6 533.5,234 520.6,254.4 520.7,253 		"/>
	</g>
	<g>
		<polygon fill="#ABA999" points="520.7,253 520.6,254.4 489.1,261.2 489.3,259.8 		"/>
	</g>
	<g>
		<polygon fill="#8D8C7F" points="336.2,240.4 336.3,241.8 326.5,220.6 326.5,219.2 		"/>
	</g>
	<g>
		<polygon fill="#DDD9C2" points="326.5,219.2 336.2,240.4 331.5,241.3 322,220.5 		"/>
	</g>
	<g>
		<polygon fill="#AEAC9B" points="336.2,240.4 336.3,241.8 331.5,242.8 331.5,241.3 		"/>
	</g>
	<g>
		<polygon fill="#8D8C7F" points="331.5,241.3 331.5,242.8 322.1,222 322,220.5 		"/>
	</g>
	<g>
		<polygon fill="#8D8C7F" points="333.4,245.4 333.4,246.9 331.5,242.8 331.5,241.3 		"/>
	</g>
	<g>
		<polygon fill="#8D8C7F" points="482.5,277.1 482.4,278.5 474.6,264.3 474.7,262.9 		"/>
	</g>
	<g>
		<polygon fill="#ABA999" points="474.7,262.9 474.6,264.3 434.1,273.1 434.2,271.7 		"/>
	</g>
	<g>
		<polygon fill="#8D8C7F" points="105.9,231.9 106.1,233.3 105.6,231.8 105.4,230.3 		"/>
	</g>
	<g enable-background="new    ">
		<g>
			<g>
				<g>
					<g>
						<g>
							<defs>
								<path id="SVGID_1_" d="M429.4,279.2c0-0.5,0-1,0.1-1.4c0-0.9,0.4-1.7,0.8-2.5c0.4-0.7,1-1.4,1.5-1.9
									c0.6-0.5,1.1-0.9,1.6-1.2s0.8-0.5,0.8-0.5l-0.1,1.4c-0.1,0-0.4,0.2-0.8,0.5s-1,0.7-1.6,1.2s-1.1,1.2-1.5,1.9
									C429.7,277.4,429.4,278.3,429.4,279.2z"/>
							</defs>
							<clipPath id="SVGID_2_">
								<use xlink:href="#SVGID_1_"  overflow="visible"/>
							</clipPath>
							<g clip-path="url(#SVGID_2_)" enable-background="new    ">
								<path fill="#A4A393" d="M434.2,271.7l-0.1,1.4c0,0-0.2,0.1-0.4,0.2c-0.2,0.1-0.5,0.3-0.8,0.5s-0.6,0.5-1,0.8
									c-0.3,0.3-0.7,0.6-1,1l0.1-1.4c0.3-0.4,0.7-0.7,1-1s0.7-0.5,1-0.8c0.3-0.2,0.6-0.4,0.8-0.5
									C434,271.8,434.1,271.7,434.2,271.7"/>
								<path fill="#A19F90" d="M431,274.1l-0.1,1.4c-0.1,0.1-0.2,0.2-0.3,0.4c-0.1,0.1-0.2,0.2-0.3,0.4s-0.2,0.3-0.3,0.4
									s-0.2,0.3-0.2,0.4l0.1-1.4c0.1-0.1,0.1-0.3,0.2-0.4s0.2-0.3,0.3-0.4s0.2-0.3,0.3-0.4S431,274.2,431,274.1"/>
								<path fill="#9D9B8C" d="M430,275.6l-0.1,1.4c0,0.1-0.1,0.2-0.1,0.3c0,0.1-0.1,0.2-0.1,0.3c0,0.1-0.1,0.2-0.1,0.3
									c0,0.1-0.1,0.2-0.1,0.3l0.1-1.4c0-0.1,0.1-0.2,0.1-0.3s0.1-0.2,0.1-0.3c0-0.1,0.1-0.2,0.1-0.3
									C429.9,275.8,430,275.7,430,275.6"/>
								<path fill="#999789" d="M429.6,276.9l-0.1,1.4c0,0.1,0,0.1,0,0.2s0,0.1,0,0.2s0,0.1,0,0.2s0,0.1,0,0.2l0.1-1.4
									c0-0.1,0-0.1,0-0.2s0-0.1,0-0.2s0-0.1,0-0.2C429.5,277,429.5,277,429.6,276.9"/>
							</g>
						</g>
					</g>
				</g>
			</g>
		</g>
	</g>
	<g>
		<polygon fill="#B1AE9D" points="105.9,231.9 106.1,233.3 101,234.3 100.8,232.8 		"/>
	</g>
	<g>
		<polygon fill="#8D8C7F" points="102,237 102.3,238.4 101,234.3 100.8,232.8 		"/>
	</g>
	<g>
		<polygon fill="#A4A293" points="787.4,320.1 787,321.5 729.4,336.3 729.8,334.9 		"/>
	</g>
	<g>
		<polygon fill="#8D8C7F" points="732.9,339.4 732.5,340.8 729.4,336.3 729.8,334.9 		"/>
	</g>
	<g>
		<polygon fill="#A4A292" points="732.9,339.4 732.5,340.8 728.1,341.9 728.5,340.5 		"/>
	</g>
	<g enable-background="new    ">
		<g>
			<g>
				<g>
					<g>
						<g>
							<defs>
								<path id="SVGID_3_" d="M643.8,342.5c-0.1,0.5-0.2,0.9-0.3,1.4c0.1-0.5,0.2-1.1,0.2-1.7s-0.1-1.1-0.2-1.7
									c-0.1-0.6-0.3-1.2-0.5-1.8c-0.2-0.6-0.5-1.2-0.9-1.8c-1-1.5-2.3-2.9-3.8-4s-3.3-2-5.2-2.7s-3.9-1.1-6-1.2
									c-2-0.1-4.1,0-6.1,0.5c-1.3,0.3-2.4,0.7-3.5,1.3s-1.9,1.1-2.7,1.8c-0.8,0.7-1.4,1.5-1.9,2.3s-0.8,1.7-1,2.6l0.3-1.4
									c0.2-0.9,0.5-1.8,1-2.6c0.5-0.8,1.1-1.6,1.9-2.3c0.8-0.7,1.7-1.3,2.7-1.8s2.2-1,3.5-1.3c2-0.5,4-0.6,6.1-0.5
									c2,0.1,4.1,0.6,6,1.2s3.7,1.6,5.2,2.7s2.9,2.5,3.8,4c0.4,0.6,0.7,1.2,0.9,1.8s0.4,1.2,0.5,1.8s0.2,1.2,0.2,1.7
									C644,341.4,644,341.9,643.8,342.5z"/>
							</defs>
							<clipPath id="SVGID_4_">
								<use xlink:href="#SVGID_3_"  overflow="visible"/>
							</clipPath>
							<g clip-path="url(#SVGID_4_)" enable-background="new    ">
								<path fill="#919082" d="M643.8,342.5l-0.3,1.4c0.1-0.5,0.2-1.1,0.2-1.7s-0.1-1.1-0.2-1.7c-0.1-0.6-0.3-1.2-0.5-1.8
									c-0.2-0.6-0.5-1.2-0.9-1.8c-0.4-0.7-0.9-1.3-1.5-1.9s-1.2-1.2-1.8-1.7c-0.7-0.5-1.4-1-2.2-1.5s-1.6-0.8-2.4-1.2l0.3-1.4
									c0.8,0.4,1.6,0.7,2.4,1.2s1.5,0.9,2.2,1.5c0.7,0.5,1.3,1.1,1.8,1.7c0.6,0.6,1.1,1.3,1.5,1.9s0.7,1.2,0.9,1.8
									s0.4,1.2,0.5,1.8s0.2,1.2,0.2,1.7C644,341.4,644,341.9,643.8,342.5"/>
								<path fill="#959385" d="M634.5,329.3l-0.3,1.4c-0.2-0.1-0.5-0.2-0.7-0.3c-0.2-0.1-0.5-0.2-0.7-0.3c-0.3-0.1-0.5-0.2-0.7-0.2
									c-0.3-0.1-0.5-0.1-0.8-0.2l0.3-1.4c0.3,0.1,0.5,0.1,0.8,0.2s0.5,0.1,0.7,0.2s0.5,0.2,0.7,0.3
									C634,329.1,634.3,329.2,634.5,329.3"/>
								<path fill="#999789" d="M631.5,328.3l-0.3,1.4c-0.2-0.1-0.4-0.1-0.7-0.2c-0.2,0-0.4-0.1-0.7-0.1s-0.5-0.1-0.7-0.1
									s-0.5-0.1-0.7-0.1l0.3-1.4c0.2,0,0.5,0.1,0.7,0.1s0.5,0.1,0.7,0.1s0.5,0.1,0.7,0.1C631.1,328.2,631.3,328.3,631.5,328.3"/>
								<path fill="#9D9B8C" d="M628.9,327.8l-0.3,1.4c-0.2,0-0.5-0.1-0.7-0.1s-0.5,0-0.7-0.1s-0.5,0-0.7,0s-0.5,0-0.7,0l0.3-1.4
									c0.2,0,0.5,0,0.7,0s0.5,0,0.7,0s0.5,0,0.7,0.1S628.6,327.8,628.9,327.8"/>
								<path fill="#A19F90" d="M626.2,327.6l-0.3,1.4c-0.3,0-0.5,0-0.8,0s-0.5,0-0.8,0s-0.5,0-0.8,0.1s-0.5,0-0.8,0.1l0.3-1.4
									c0.3,0,0.5-0.1,0.8-0.1s0.5,0,0.8-0.1s0.5,0,0.8,0S625.9,327.6,626.2,327.6"/>
								<path fill="#A4A393" d="M623.1,327.8l-0.3,1.4c-0.2,0-0.3,0-0.5,0.1c-0.2,0-0.3,0-0.5,0.1s-0.3,0.1-0.5,0.1
									s-0.3,0.1-0.5,0.1c-0.9,0.2-1.7,0.5-2.5,0.8s-1.5,0.7-2.1,1.1s-1.2,0.9-1.8,1.4c-0.5,0.5-1,1-1.4,1.6l0.3-1.4
									c0.4-0.6,0.8-1.1,1.4-1.6c0.5-0.5,1.1-1,1.8-1.4s1.4-0.8,2.1-1.1s1.6-0.6,2.5-0.8c0.2,0,0.3-0.1,0.5-0.1s0.3-0.1,0.5-0.1
									s0.3-0.1,0.5-0.1S623,327.8,623.1,327.8"/>
								<path fill="#A19F90" d="M613.5,333l-0.3,1.4c-0.1,0.2-0.2,0.3-0.3,0.5s-0.2,0.3-0.3,0.5s-0.2,0.3-0.2,0.5
									c-0.1,0.2-0.1,0.4-0.2,0.5l0.3-1.4c0.1-0.2,0.1-0.4,0.2-0.5c0.1-0.2,0.2-0.4,0.2-0.5c0.1-0.2,0.2-0.3,0.3-0.5
									S613.4,333.1,613.5,333"/>
								<path fill="#9D9B8C" d="M612.5,335l-0.3,1.4c0,0.1-0.1,0.2-0.1,0.3s-0.1,0.2-0.1,0.3s0,0.2-0.1,0.3c0,0.1,0,0.2-0.1,0.3
									l0.3-1.4c0-0.1,0-0.2,0.1-0.3s0-0.2,0.1-0.3s0-0.2,0.1-0.3S612.5,335.1,612.5,335"/>
							</g>
						</g>
					</g>
				</g>
			</g>
		</g>
	</g>
	<g>
		<polygon fill="#8D8C7F" points="559.3,375.9 559.1,377.3 539.2,341.8 539.3,340.4 		"/>
	</g>
	<g>
		<polygon fill="#A4A293" points="559.3,375.9 559.1,377.3 554.3,378.5 554.5,377.1 		"/>
	</g>
	<g>
		<polygon fill="#8D8C7F" points="557.2,381.9 557,383.4 554.3,378.5 554.5,377.1 		"/>
	</g>
	<g>
		<polygon fill="#A4A292" points="790.6,324.5 790.2,325.9 732.5,340.8 732.9,339.4 		"/>
	</g>
	<g>
		<polygon fill="#A7A595" points="370.7,364.3 370.7,365.7 309.8,380.1 309.7,378.7 		"/>
	</g>
	<g>
		<polygon fill="#8D8C7F" points="311.7,383.7 311.8,385.1 309.8,380.1 309.7,378.7 		"/>
	</g>
	<g>
		<polygon fill="#A6A494" points="512.6,330.8 512.5,332.2 496.3,335.2 496.4,333.8 		"/>
	</g>
	<g>
		<polygon fill="#959386" points="539.3,340.4 539.2,341.8 512.5,332.2 512.6,330.8 		"/>
	</g>
	<g>
		<polygon fill="#A2A091" points="496.4,333.8 496.3,335.2 490.9,345.3 491,343.9 		"/>
	</g>
	<g>
		<polygon fill="#8D8C7F" points="496.8,334.5 496.7,336 496.3,335.2 496.4,333.8 		"/>
	</g>
	<g>
		<polygon fill="#A7A595" points="491,343.9 490.9,345.3 374,373.2 374,371.8 		"/>
	</g>
	<g>
		<polygon fill="#8D8C7F" points="374,371.8 374,373.2 370.7,365.7 370.7,364.3 		"/>
	</g>
	<g>
		<polygon fill="#DDD9C2" points="537.2,346.1 510.4,336.5 494.5,340.3 488.7,349.7 371.1,377.9 367.8,370.3 311.7,383.7 
			309.7,378.7 370.7,364.3 374,371.8 491,343.9 496.8,334.5 496.4,333.8 512.2,330 512.6,330.8 539.3,340.4 559.3,375.9 
			554.5,377.1 		"/>
	</g>
	<g>
		<polygon fill="#A7A595" points="311.7,383.7 311.8,385.1 306.5,386.4 306.4,384.9 		"/>
	</g>
	<g>
		<polygon fill="#A7A595" points="367.8,370.3 367.8,371.8 311.8,385.1 311.7,383.7 		"/>
	</g>
	<g>
		<path fill="#DDD9C2" d="M735.9,149.3l41-8.2l55.4,67l-7,17.6l-13.7,3.1l-10.6-3.1l-5.1-6.4l-42.8,9.6l2.9,3.9l-4,0.9l21.8,28.8
			l-20.5,4.8l3,4.1l-4.1,1l35.2,47.9L729.8,335l3.1,4.5l-4.4,1.1l55.5,80.8l-5.8,15.6l-159.1,45.3l-29.6-11.1l-46.8-85.3l14.5-3.7
			l-2.7-4.9l4.8-1.2l-20-35.5l-26.7-9.6l-16.2,3l-5.4,10.1L374,372l-3.3-7.5l-61,14.4l2,5l-5.3,1.3l7.3,18.3l-179.6,43.6L105,435
			L58.1,255.6l13-12.8L102,237l-1.2-4.1l5.1-1l-0.5-1.6l22.2-4.2l1.8,5.7l86.8-16.5l31.1,26.2l24.2-4.8l8.2,19.8l53.8-11l-1.9-4.1
			l4.7-1l-9.7-21.2l47.2-14.7l41.2-8.1l-2-3.8l4.4-0.9l-2.4-4.5l22.7-4.4l-2-3.7l4.3-0.8l-3.5-6.3l88.1-16.8l17,5.3l4.9,7.7
			l59.7-11.6l35.4,11.7l7.7,10.9l48.2-9.8l15.5-3.1l7.1-13.8L735.9,149.3z M531.1,266.4l29.1,10.1l17.2-29l-43.7-15l-13,20.4
			l-31.5,6.8l7.9,14.1L531.1,266.4 M482.5,277.1l-7.8-14.2l-40.6,8.8c-0.1,0-0.5,0.3-1.2,0.7c-0.6,0.4-1.4,1-2,1.8s-1.2,1.7-1.5,2.8
			c-0.2,1.1-0.1,2.3,0.5,3.6s1.7,2.3,2.9,3.1c1.2,0.8,2.5,1.3,3.7,1.7c1.3,0.4,2.4,0.6,3.3,0.7s1.5,0.1,1.6,0.1L482.5,277.1
			 M635,350.3c2-0.5,3.7-1.3,5.1-2.3c1.4-1,2.4-2.2,3.1-3.5s1-2.8,0.8-4.3s-0.6-3-1.6-4.6c-1-1.5-2.3-2.9-3.8-4s-3.3-2-5.2-2.7
			s-4-1.1-6-1.2s-4.1,0-6.1,0.5s-3.7,1.2-5.1,2.2c-1.4,1-2.5,2.2-3.2,3.5s-1,2.8-1,4.3c0.1,1.5,0.6,3.1,1.6,4.6s2.3,2.9,3.9,4.1
			s3.3,2.1,5.3,2.8s4,1.1,6,1.3C630.9,350.9,633,350.8,635,350.3"/>
	</g>
	<g>
		<polygon fill="#DDD9C2" points="105.4,230.3 105.9,231.9 100.8,232.8 100.3,231.2 		"/>
	</g>
	<g>
		<polygon fill="#8D8C7F" points="100.8,232.8 101,234.3 100.6,232.7 100.3,231.2 		"/>
	</g>
	<g>
		<polygon fill="#DDD9C2" points="732.9,339.4 729.8,334.9 787.4,320.1 790.6,324.5 		"/>
	</g>
	<g>
		<polygon fill="#959385" points="537.2,346.1 537,347.5 510.2,337.9 510.4,336.5 		"/>
	</g>
	<g>
		<polygon fill="#A7A595" points="510.4,336.5 510.2,337.9 494.4,341.7 494.5,340.3 		"/>
	</g>
	<g>
		<polygon fill="#A3A192" points="494.5,340.3 494.4,341.7 488.5,351.1 488.7,349.7 		"/>
	</g>
	<g>
		<polygon fill="#8D8C7F" points="554.5,377.1 554.3,378.5 537,347.5 537.2,346.1 		"/>
	</g>
	<g>
		<polygon fill="#A6A495" points="488.7,349.7 488.5,351.1 371.1,379.3 371.1,377.9 		"/>
	</g>
	<g>
		<polygon fill="#8D8C7F" points="371.1,377.9 371.1,379.3 367.8,371.8 367.8,370.3 		"/>
	</g>
	<g>
		<polygon fill="#949385" points="783.9,421.2 783.5,422.6 777.7,438.2 778.2,436.8 		"/>
	</g>
	<g>
		<polygon fill="#949385" points="784.7,422.4 784.3,423.8 776.5,444.7 777,443.3 		"/>
	</g>
	<g>
		<polygon fill="#8D8C7F" points="589.5,471 589.3,472.4 542.5,387 542.7,385.6 		"/>
	</g>
	<g>
		<polygon fill="#9E9C8E" points="778.2,436.8 777.7,438.2 618.8,483.5 619.1,482.1 		"/>
	</g>
	<g>
		<polygon fill="#929083" points="619.1,482.1 618.8,483.5 589.3,472.4 589.5,471 		"/>
	</g>
	<g>
		<polygon fill="#8D8C7F" points="587.5,477.8 587.2,479.2 537.7,388.3 537.9,386.8 		"/>
	</g>
	<g>
		<polygon fill="#DDD9C2" points="619.1,482.1 778.2,436.8 783.9,421.2 784.7,422.4 777,443.3 617.1,489.1 587.5,477.8 537.9,386.8 
			542.7,385.6 589.5,471 		"/>
	</g>
	<g>
		<polygon fill="#919082" points="617.1,489.1 616.8,490.5 587.2,479.2 587.5,477.8 		"/>
	</g>
	<g>
		<polygon fill="#9E9C8D" points="777,443.3 776.5,444.7 616.8,490.5 617.1,489.1 		"/>
	</g>
	<g>
		<polygon fill="#8D8C7F" points="105,435 105.3,436.5 58.4,257.1 58.1,255.6 		"/>
	</g>
	<g>
		<polygon fill="#8D8C7F" points="100.6,441.8 100.9,443.3 54,261.5 53.7,260 		"/>
	</g>
	<g>
		<polygon fill="#8E8D80" points="134.1,446.8 134.3,448.3 105.3,436.5 105,435 		"/>
	</g>
	<g>
		<polygon fill="#A6A494" points="313.7,403.2 313.8,404.6 134.3,448.3 134.1,446.8 		"/>
	</g>
	<g>
		<polygon fill="#DDD9C2" points="105,435 134.1,446.8 313.7,403.2 315.8,408.3 129.8,453.7 100.6,441.8 53.7,260 58.1,255.6 		"/>
	</g>
	<g>
		<polygon fill="#A5A394" points="315.8,408.3 315.8,409.8 130,455.2 129.8,453.7 		"/>
	</g>
	<g>
		<polygon fill="#8E8D80" points="129.8,453.7 130,455.2 100.9,443.3 100.6,441.8 		"/>
	</g>
</g>
<g enable-background="new    ">
	<g>
		<polygon fill="#945D3C" points="612.3,197.5 610.8,205.8 596.9,184.8 598.2,176.5 		"/>
	</g>
	<g>
		<polygon fill="#942C1A" points="764.4,221.2 762.1,229.5 735.5,194.5 737.6,186.3 		"/>
	</g>
	<g>
		<polygon fill="#B8744D" points="658.5,195.7 656.9,204 649.3,205.6 651,197.3 		"/>
	</g>
	<g>
		<polygon fill="#B23826" points="737.6,186.3 735.5,194.5 669.4,208.6 671.1,200.3 		"/>
	</g>
	<g>
		<polygon fill="#922B19" points="671.1,200.3 669.4,208.6 649.5,180.4 651.1,172.1 		"/>
	</g>
	<g>
		<polygon fill="#AE3624" points="821.5,221.5 818.9,229.7 793.8,222.4 796.2,214.1 		"/>
	</g>
	<g>
		<polygon fill="#902A18" points="830.5,199.1 827.9,207.3 818.9,229.7 821.5,221.5 		"/>
	</g>
	<g>
		<polygon fill="#935C3B" points="575.5,189.4 574.3,197.8 563.4,180.8 564.5,172.4 		"/>
	</g>
	<g>
		<polygon fill="#B9754E" points="601.2,184.2 599.8,192.5 574.3,197.8 575.5,189.4 		"/>
	</g>
	<g>
		<polygon fill="#B5724C" points="756.7,213.6 754.5,221.8 744.6,224 746.8,215.8 		"/>
	</g>
	<g>
		<polygon fill="#985F3E" points="746.8,215.8 744.6,224 737.5,214.6 739.6,206.3 		"/>
	</g>
	<g>
		<polygon fill="#915B3A" points="440.9,174.3 440.4,182.8 435.5,174 436,165.5 		"/>
	</g>
	<g>
		<polygon fill="#AF3725" points="796.2,214.1 793.8,222.4 762.1,229.5 764.4,221.2 		"/>
	</g>
	<g>
		<polygon fill="#B8754D" points="609.6,196.7 608.2,205.1 582.4,210.4 583.7,202.1 		"/>
	</g>
	<g>
		<polygon fill="#B4724B" points="762.8,221.6 760.5,229.8 714.8,240.1 716.8,231.8 		"/>
	</g>
	<g>
		<polygon fill="#935C3B" points="583.7,202.1 582.4,210.4 575,198.9 576.2,190.5 		"/>
	</g>
	<g>
		<polygon fill="#925B3A" points="522.1,193.7 521.2,202.1 508.9,181.8 509.8,173.3 		"/>
	</g>
	<g>
		<polygon fill="#BA764E" points="562.3,185.6 561.2,194 521.2,202.1 522.1,193.7 		"/>
	</g>
	<g>
		<polygon fill="#915B3A" points="447.1,185.5 446.6,194 440.4,182.8 440.9,174.3 		"/>
	</g>
	<g>
		<polygon fill="#BB774F" points="509.8,173.3 508.9,181.8 446.6,194 447.1,185.5 		"/>
	</g>
	<g>
		<polygon fill="#945D3B" points="610.9,213 609.5,221.4 600.7,207.9 602,199.6 		"/>
	</g>
	<g>
		<polygon fill="#B7744D" points="655.4,203.6 653.7,212 609.5,221.4 610.9,213 		"/>
	</g>
	<g>
		<polygon fill="#905A3A" points="418.2,187.8 417.9,196.3 414.1,189.1 414.4,180.6 		"/>
	</g>
	<g>
		<polygon fill="#905A3A" points="418.9,188.9 418.5,197.4 417.9,196.3 418.2,187.8 		"/>
	</g>
	<g>
		<polygon fill="#925C3B" points="716.8,231.8 714.8,240.1 706.4,221.4 708.4,213.1 		"/>
	</g>
	<g>
		<polygon fill="#B8754D" points="566.8,207.6 565.6,215.9 549.5,219.3 550.6,210.9 		"/>
	</g>
	<g>
		<polygon fill="#925C3B" points="550.6,210.9 549.5,219.3 544.4,211.1 545.5,202.7 		"/>
	</g>
	<g>
		<polygon fill="#B9754E" points="523.9,199.8 523,208.3 496.3,213.7 497.1,205.3 		"/>
	</g>
	<g>
		<polygon fill="#915B3A" points="455.4,200.5 454.9,209 447.3,195.3 447.8,186.8 		"/>
	</g>
	<g>
		<polygon fill="#BA764E" points="465.1,198.6 464.5,207.1 454.9,209 455.4,200.5 		"/>
	</g>
	<g>
		<polygon fill="#915B3A" points="471.4,209.8 470.8,218.3 464.5,207.1 465.1,198.6 		"/>
	</g>
	<path fill="none" d="M669.9,237.2l-1.8,8.3c0,0.2-0.2,0.5-0.3,0.7s-0.3,0.4-0.5,0.6s-0.5,0.3-0.8,0.5c-0.3,0.1-0.6,0.2-1,0.3
		c-0.6,0.1-1.2,0.2-1.8,0.1c-0.6,0-1.2-0.2-1.8-0.4s-1.1-0.4-1.5-0.8c-0.5-0.3-0.8-0.7-1.1-1.1c-0.1-0.2-0.2-0.3-0.3-0.5
		s-0.1-0.3-0.2-0.5c0-0.2,0-0.3-0.1-0.5c0-0.1,0-0.3,0-0.4l1.7-8.4c0,0.1,0,0.3,0,0.4s0,0.3,0.1,0.5c0,0.2,0.1,0.3,0.2,0.5
		c0.1,0.2,0.2,0.3,0.3,0.5c0.3,0.4,0.7,0.8,1.1,1.1c0.5,0.3,1,0.6,1.6,0.8s1.2,0.3,1.8,0.4c0.6,0,1.2,0,1.8-0.1
		c0.4-0.1,0.7-0.2,1-0.3s0.5-0.3,0.8-0.5c0.2-0.2,0.4-0.4,0.5-0.6C669.8,237.7,669.9,237.5,669.9,237.2z"/>
	<g enable-background="new    ">
		<path fill="#8F8A7F" d="M669.9,237.2l-1.8,8.3c0,0,0,0,0,0.1s0,0,0,0.1s0,0,0,0.1c0,0,0,0,0,0.1l1.8-8.3c0,0,0,0,0-0.1s0,0,0-0.1
			S669.9,237.3,669.9,237.2C669.9,237.3,669.9,237.3,669.9,237.2"/>
		<path fill="#938D82" d="M669.9,237.4l-1.8,8.3v0.1v0.1v0.1c0,0,0,0.1-0.1,0.1l1.8-8.3c0,0,0-0.1,0.1-0.1v-0.1v-0.1
			C669.9,237.5,669.9,237.5,669.9,237.4"/>
		<path fill="#979186" d="M669.7,237.9l-1.8,8.3c0,0,0,0.1-0.1,0.1s0,0.1-0.1,0.1s0,0.1-0.1,0.1s0,0.1-0.1,0.1l1.8-8.3
			c0,0,0-0.1,0.1-0.1s0-0.1,0.1-0.1s0-0.1,0.1-0.1C669.7,237.9,669.7,237.9,669.7,237.9"/>
		<path fill="#9B9589" d="M669.4,238.3l-1.8,8.3l-0.1,0.1l-0.1,0.1l-0.1,0.1l-0.1,0.1l1.8-8.3l0.1-0.1l0.1-0.1
			C669.2,238.5,669.3,238.4,669.4,238.3C669.3,238.3,669.4,238.3,669.4,238.3"/>
		<path fill="#9E988C" d="M669,238.6l-1.8,8.3l-0.1,0.1l-0.1,0.1l-0.1,0.1c0,0-0.1,0.1-0.2,0.1l1.8-8.3c0,0,0.1-0.1,0.2-0.1l0.1-0.1
			l0.1-0.1L669,238.6"/>
		<path fill="#A29C8F" d="M668.5,238.9l-1.8,8.3c-0.1,0-0.2,0.1-0.2,0.1s-0.2,0.1-0.3,0.1s-0.2,0.1-0.3,0.1s-0.2,0.1-0.3,0.1l0,0
			l0,0l0,0l0,0l1.8-8.3l0,0l0,0l0,0l0,0c0.1,0,0.2-0.1,0.3-0.1s0.2-0.1,0.3-0.1s0.2-0.1,0.3-0.1S668.4,239,668.5,238.9"/>
		<path fill="#A69F93" d="M667.2,239.4l-1.8,8.3c0,0-0.1,0-0.2,0s-0.1,0-0.2,0c0,0-0.1,0-0.2,0c0,0-0.1,0-0.2,0l1.8-8.3
			c0.1,0,0.1,0,0.2,0c0.1,0,0.1,0,0.2,0s0.1,0,0.2,0C667.1,239.4,667.2,239.4,667.2,239.4"/>
		<path fill="#A29C8F" d="M666.6,239.4l-1.8,8.3c-0.1,0-0.2,0-0.4,0c-0.1,0-0.2,0-0.4,0s-0.2,0-0.4,0s-0.2,0-0.4,0l1.8-8.3
			c0.1,0,0.2,0,0.4,0c0.1,0,0.3,0,0.4,0s0.3,0,0.4,0S666.5,239.4,666.6,239.4"/>
		<path fill="#9E988C" d="M665.1,239.4l-1.8,8.3c-0.1,0-0.1,0-0.2,0c-0.1,0-0.1,0-0.2,0c-0.1,0-0.1,0-0.2,0c-0.1,0-0.1,0-0.2-0.1
			l1.8-8.4c0.1,0,0.1,0,0.2,0.1s0.1,0,0.2,0s0.1,0,0.2,0C665,239.4,665,239.4,665.1,239.4"/>
		<path fill="#9B9589" d="M664.3,239.2l-1.8,8.4c-0.1,0-0.1,0-0.2-0.1s-0.1,0-0.2-0.1s-0.1,0-0.2-0.1c0,0-0.1,0-0.2-0.1l1.8-8.4
			c0,0,0.1,0,0.2,0.1c0.1,0,0.1,0,0.2,0.1s0.1,0,0.2,0.1S664.2,239.2,664.3,239.2"/>
		<path fill="#979186" d="M663.6,239l-1.8,8.4c0,0-0.1,0-0.2-0.1c0,0-0.1,0-0.2-0.1c0,0-0.1,0-0.2-0.1s-0.1-0.1-0.2-0.1l1.8-8.4
			c0,0,0.1,0.1,0.2,0.1c0,0,0.1,0.1,0.2,0.1c0,0,0.1,0,0.2,0.1S663.6,239,663.6,239"/>
		<path fill="#938D82" d="M663,238.7l-1.8,8.4c0,0-0.1-0.1-0.2-0.1c0,0-0.1-0.1-0.2-0.1l-0.1-0.1l-0.1-0.1l1.8-8.4l0.1,0.1l0.1,0.1
			c0,0,0.1,0.1,0.2,0.1C662.9,238.7,663,238.7,663,238.7"/>
		<path fill="#8F8A7F" d="M662.4,238.4l-1.8,8.4c0,0-0.1-0.1-0.2-0.1c0,0-0.1-0.1-0.2-0.1c0,0-0.1-0.1-0.2-0.1s-0.1-0.1-0.1-0.1
			l1.8-8.4l0.1,0.1c0,0,0.1,0.1,0.2,0.1c0,0,0.1,0.1,0.2,0.1C662.3,238.4,662.4,238.4,662.4,238.4"/>
		<path fill="#8C867C" d="M661.8,238l-1.8,8.4c-0.1-0.1-0.1-0.1-0.2-0.2s-0.1-0.1-0.2-0.2s-0.1-0.1-0.2-0.2c0-0.1-0.1-0.1-0.2-0.2
			c-0.1-0.2-0.2-0.3-0.3-0.5s-0.1-0.3-0.2-0.5c0-0.2,0-0.3-0.1-0.5c0-0.1,0-0.3,0-0.4l1.7-8.4c0,0.1,0,0.3,0,0.4s0,0.3,0.1,0.5
			c0,0.2,0.1,0.3,0.2,0.5c0.1,0.2,0.2,0.3,0.3,0.5c0,0.1,0.1,0.1,0.2,0.2c0,0.1,0.1,0.1,0.2,0.2c0.1,0.1,0.1,0.1,0.2,0.2
			C661.7,237.9,661.8,237.9,661.8,238"/>
	</g>
	<g>
		<polygon fill="#915B3A" points="508.7,221.6 507.8,230.1 498.8,214.5 499.6,206.1 		"/>
	</g>
	<g>
		<polygon fill="#A26642" points="522.9,201.3 522,209.8 507.8,230.1 508.7,221.6 		"/>
	</g>
	<g>
		<polygon fill="#905A39" points="719.7,253.9 717.6,262.2 715.2,241.4 717.2,233.1 		"/>
	</g>
	<g>
		<polygon fill="#B3714B" points="764.8,243.6 762.5,251.8 717.6,262.2 719.7,253.9 		"/>
	</g>
	<g>
		<polygon fill="#BA764E" points="453,199.7 452.5,208.2 385.7,221.6 385.9,213 		"/>
	</g>
	<g>
		<polygon fill="#B2704A" points="775,257 772.6,265.3 714.7,279 716.8,270.6 		"/>
	</g>
	<g>
		<polygon fill="#905A3A" points="385.9,213 385.7,221.6 377.6,205.5 377.8,196.9 		"/>
	</g>
	<g>
		<polygon fill="#B8744D" points="507.6,223.2 506.8,231.7 471.5,239.1 472.2,230.6 		"/>
	</g>
	<g>
		<polygon fill="#915B3A" points="472.2,230.6 471.5,239.1 461.1,220.3 461.7,211.8 		"/>
	</g>
	<g>
		<polygon fill="#905A39" points="716.8,270.6 714.7,279 717.6,263.6 719.7,255.3 		"/>
	</g>
	<g>
		<polygon fill="#935C3B" points="599.1,265.1 597.7,273.5 595.1,269.4 596.5,261 		"/>
	</g>
	<g>
		<polygon fill="#B4724B" points="623.7,259.6 622.1,268 597.7,273.5 599.1,265.1 		"/>
	</g>
	<g>
		<polygon fill="#905A3A" points="414.9,242.5 414.6,251 398.9,220.3 399.2,211.7 		"/>
	</g>
	<g>
		<polygon fill="#B8744D" points="461.4,232.8 460.8,241.3 414.6,251 414.9,242.5 		"/>
	</g>
	<g>
		<polygon fill="#808080" points="337,236.3 337.1,245 326.4,221.5 326.3,212.8 		"/>
	</g>
	<g>
		<polygon fill="#A96B46" points="725.1,292.8 722.9,301.1 707.3,294.7 709.4,286.4 		"/>
	</g>
	<g>
		<polygon fill="#B06F49" points="765.3,283.1 762.9,291.4 722.9,301.1 725.1,292.8 		"/>
	</g>
	<path fill="none" d="M650.2,284.5l-1.8,8.4c0,0.3-0.2,0.5-0.3,0.8c-0.1,0.2-0.3,0.5-0.5,0.6c-0.2,0.2-0.5,0.4-0.8,0.5
		s-0.6,0.3-1,0.4c-0.6,0.1-1.2,0.2-1.9,0.1c-0.6,0-1.3-0.2-1.8-0.4c-0.6-0.2-1.1-0.5-1.6-0.8s-0.9-0.7-1.2-1.2
		c-0.1-0.2-0.2-0.3-0.3-0.5s-0.1-0.3-0.2-0.5s0-0.3-0.1-0.5c0-0.2,0-0.3,0-0.5l1.7-8.4c0,0.2,0,0.3,0,0.5s0,0.3,0.1,0.5
		c0,0.2,0.1,0.3,0.2,0.5c0.1,0.2,0.2,0.3,0.3,0.5c0.3,0.5,0.7,0.9,1.2,1.2c0.5,0.3,1,0.6,1.6,0.8c0.6,0.2,1.2,0.3,1.8,0.4
		c0.6,0,1.3,0,1.9-0.1c0.4-0.1,0.7-0.2,1-0.4c0.3-0.1,0.6-0.3,0.8-0.5s0.4-0.4,0.6-0.6C650,285.1,650.1,284.8,650.2,284.5z"/>
	<g enable-background="new    ">
		<path fill="#8F8A7F" d="M650.2,284.5l-1.8,8.4c0,0,0,0,0,0.1c0,0,0,0,0,0.1s0,0,0,0.1s0,0,0,0.1l1.8-8.4c0,0,0,0,0-0.1s0,0,0-0.1
			S650.2,284.6,650.2,284.5C650.2,284.6,650.2,284.6,650.2,284.5"/>
		<path fill="#938D82" d="M650.1,284.8l-1.8,8.4v0.1v0.1c0,0,0,0.1-0.1,0.1s0,0.1-0.1,0.1l1.8-8.4c0,0,0-0.1,0.1-0.1
			c0,0,0-0.1,0.1-0.1s0-0.1,0-0.1V284.8"/>
		<path fill="#979186" d="M649.9,285.3l-1.8,8.4c0,0,0,0.1-0.1,0.1c0,0,0,0.1-0.1,0.1s0,0.1-0.1,0.1s0,0.1-0.1,0.1l1.7-8.4l0.1-0.1
			c0,0,0-0.1,0.1-0.1c0,0,0-0.1,0.1-0.1C649.9,285.3,649.9,285.3,649.9,285.3"/>
		<path fill="#9B9589" d="M649.6,285.7l-1.7,8.4l-0.1,0.1l-0.1,0.1l-0.1,0.1l-0.1,0.1l1.7-8.4l0.1-0.1l0.1-0.1l0.1-0.1
			C649.5,285.7,649.6,285.7,649.6,285.7"/>
		<path fill="#9E988C" d="M649.2,286l-1.7,8.4l-0.1,0.1l-0.1,0.1c0,0-0.1,0.1-0.2,0.1s-0.1,0.1-0.2,0.1l1.7-8.4c0,0,0.1-0.1,0.2-0.1
			c0,0,0.1-0.1,0.2-0.1l0.1-0.1C649.1,286.1,649.2,286.1,649.2,286"/>
		<path fill="#A29C8F" d="M648.6,286.4l-1.7,8.4c-0.1,0-0.2,0.1-0.3,0.1s-0.2,0.1-0.3,0.1s-0.2,0.1-0.3,0.1s-0.2,0.1-0.3,0.1l0,0
			l0,0l0,0l0,0l1.7-8.4l0,0l0,0l0,0l0,0c0.1,0,0.2,0,0.3-0.1s0.2-0.1,0.3-0.1s0.2-0.1,0.3-0.1C648.5,286.5,648.5,286.5,648.6,286.4"
			/>
		<path fill="#A69F93" d="M647.3,286.9l-1.7,8.4c-0.1,0-0.1,0-0.2,0s-0.1,0-0.2,0s-0.1,0-0.2,0s-0.1,0-0.2,0l1.7-8.4
			c0.1,0,0.1,0,0.2,0c0.1,0,0.1,0,0.2,0c0.1,0,0.1,0,0.2,0S647.3,286.9,647.3,286.9"/>
		<path fill="#A29C8F" d="M646.6,287l-1.7,8.4c-0.1,0-0.3,0-0.4,0s-0.3,0-0.4,0s-0.3,0-0.4,0c-0.1,0-0.3,0-0.4,0l1.7-8.4
			c0.1,0,0.3,0,0.4,0s0.3,0,0.4,0c0.1,0,0.3,0,0.4,0S646.5,287,646.6,287"/>
		<path fill="#9E988C" d="M645.1,286.9l-1.7,8.4c-0.1,0-0.1,0-0.2,0s-0.1,0-0.2,0s-0.1,0-0.2,0s-0.1,0-0.2,0l1.7-8.4
			c0.1,0,0.1,0,0.2,0c0.1,0,0.1,0,0.2,0s0.1,0,0.2,0S645,286.9,645.1,286.9"/>
		<path fill="#9B9589" d="M644.3,286.7l-1.7,8.4c-0.1,0-0.1,0-0.2,0s-0.1,0-0.2,0s-0.1,0-0.2-0.1s-0.1,0-0.2-0.1l1.7-8.4
			c0.1,0,0.1,0,0.2,0.1s0.1,0,0.2,0.1s0.1,0,0.2,0S644.2,286.7,644.3,286.7"/>
		<path fill="#979186" d="M643.6,286.5l-1.7,8.4c0,0-0.1,0-0.2-0.1s-0.1,0-0.2-0.1c0,0-0.1,0-0.2-0.1c0,0-0.1,0-0.2-0.1l1.7-8.4
			c0,0,0.1,0,0.2,0.1c0,0,0.1,0,0.2,0.1c0,0,0.1,0,0.2,0.1S643.5,286.5,643.6,286.5"/>
		<path fill="#938D82" d="M643,286.2l-1.7,8.4c0,0-0.1,0-0.2-0.1c0,0-0.1-0.1-0.2-0.1c0,0-0.1-0.1-0.2-0.1s-0.1-0.1-0.1-0.1l1.7-8.4
			c0,0,0.1,0.1,0.2,0.1c0,0,0.1,0.1,0.2,0.1s0.1,0.1,0.2,0.1S642.9,286.2,643,286.2"/>
		<path fill="#8F8A7F" d="M642.3,285.9l-1.7,8.4c0,0-0.1-0.1-0.2-0.1c0,0-0.1-0.1-0.2-0.1s-0.1-0.1-0.2-0.1s-0.1-0.1-0.2-0.1
			l1.7-8.4c0,0,0.1,0.1,0.2,0.1c0,0,0.1,0.1,0.2,0.1c0,0,0.1,0.1,0.2,0.1S642.3,285.9,642.3,285.9"/>
		<path fill="#8C867C" d="M641.7,285.4l-1.7,8.4c-0.1-0.1-0.1-0.1-0.2-0.2s-0.1-0.1-0.2-0.2c-0.1-0.1-0.1-0.1-0.2-0.2
			s-0.1-0.1-0.2-0.2c-0.1-0.2-0.2-0.3-0.3-0.5s-0.1-0.3-0.2-0.5s0-0.3-0.1-0.5c0-0.2,0-0.3,0-0.5l1.7-8.4c0,0.2,0,0.3,0,0.5
			s0,0.3,0.1,0.5c0,0.2,0.1,0.3,0.2,0.5c0.1,0.2,0.2,0.3,0.3,0.5c0,0.1,0.1,0.1,0.2,0.2s0.1,0.1,0.2,0.2c0.1,0.1,0.1,0.1,0.2,0.2
			C641.6,285.3,641.7,285.4,641.7,285.4"/>
	</g>
	<g>
		<path fill="#D3C9B7" d="M643.2,280.3c0.6-0.1,1.2-0.2,1.9-0.1c0.6,0,1.3,0.2,1.8,0.4c0.6,0.2,1.1,0.5,1.6,0.8s0.9,0.7,1.2,1.2
			s0.5,0.9,0.5,1.4c0,0.4,0,0.9-0.3,1.3s-0.5,0.7-0.9,1s-0.9,0.5-1.5,0.7c-0.6,0.1-1.2,0.2-1.9,0.1c-0.6,0-1.3-0.2-1.8-0.4
			c-0.6-0.2-1.1-0.5-1.6-0.8s-0.9-0.7-1.2-1.2s-0.5-0.9-0.5-1.4c0-0.4,0.1-0.9,0.3-1.3s0.5-0.7,0.9-1
			C642.1,280.7,642.6,280.5,643.2,280.3z"/>
	</g>
	<g>
		<polygon fill="#9B9B9B" points="413.1,242.9 412.7,251.4 400.6,268.1 400.9,259.5 		"/>
	</g>
	<g>
		<polygon fill="#A66945" points="722.5,309.1 720.3,317.4 697.8,306.8 699.8,298.5 		"/>
	</g>
	<g>
		<polygon fill="#AF6E49" points="734.5,306.1 732.3,314.5 720.3,317.4 722.5,309.1 		"/>
	</g>
	<g>
		<polygon fill="#696A6A" points="279.6,248 280,256.6 257.6,261.2 257.1,252.5 		"/>
	</g>
	<g>
		<polygon fill="#808080" points="352.4,269.8 352.4,278.4 337.1,245 337,236.3 		"/>
	</g>
	<g>
		<polygon fill="#B2B2B2" points="400.9,259.5 400.6,268.1 352.4,278.4 352.4,269.8 		"/>
	</g>
	<g>
		<polygon fill="#955E3C" points="747.7,324.9 745.3,333.2 732.3,314.5 734.5,306.1 		"/>
	</g>
	<g>
		<polygon fill="#AD6E48" points="788.5,314.6 786,322.9 745.3,333.2 747.7,324.9 		"/>
	</g>
	<g>
		<polygon fill="#905A39" points="330.1,274.5 330.3,283.1 316,250.7 315.8,242 		"/>
	</g>
	<g>
		<polygon fill="#925C3B" points="605.7,307.4 604.1,315.8 595.9,302.4 597.4,294 		"/>
	</g>
	<g>
		<polygon fill="#B1704A" points="622.7,303.3 621.1,311.8 604.1,315.8 605.7,307.4 		"/>
	</g>
	<g>
		<polygon fill="#905A39" points="272.8,286.6 273.3,295.3 260.1,262.1 259.6,253.4 		"/>
	</g>
	<g>
		<polygon fill="#B7744D" points="350.5,270.2 350.5,278.8 330.3,283.1 330.1,274.5 		"/>
	</g>
	<g>
		<polygon fill="#AD6E48" points="746.1,325.5 743.7,333.8 700,344.9 702.1,336.6 		"/>
	</g>
	<g>
		<polygon fill="#B8744D" points="325.3,268.3 325.4,277 291.4,284.2 291,275.5 		"/>
	</g>
	<g>
		<polygon fill="#696A6A" points="262,264.9 262.6,273.6 236.5,279.1 235.8,270.3 		"/>
	</g>
	<g>
		<polygon fill="#945D3C" points="702.1,336.6 700,344.9 683.1,319.4 685,311 		"/>
	</g>
	<g>
		<polygon fill="#B7744D" points="293.8,282.2 294.1,290.9 273.3,295.3 272.8,286.6 		"/>
	</g>
	<g>
		<polygon fill="#915A3A" points="512.8,325.4 511.8,333.9 493.2,299.7 494,291.2 		"/>
	</g>
	<g>
		<polygon fill="#AD6E48" points="700.2,336.8 698.1,345.2 661.5,354.5 663.3,346.1 		"/>
	</g>
	<g>
		<polygon fill="#DF8D5E" points="683.7,312.1 700.2,336.8 663.3,346.1 659.8,324.3 		"/>
	</g>
	<g>
		<polygon fill="#905A39" points="663.3,346.1 661.5,354.5 657.9,332.6 659.8,324.3 		"/>
	</g>
	<g>
		<polygon fill="#A56844" points="539.5,335 538.4,343.5 511.8,333.9 512.8,325.4 		"/>
	</g>
	<g>
		<polygon fill="#905A3A" points="447.7,323.4 447.1,332 437.3,312.4 437.8,303.8 		"/>
	</g>
	<g>
		<polygon fill="#B1704A" points="510.9,325.8 510,334.3 492.3,338.5 493.2,330 		"/>
	</g>
	<g>
		<polygon fill="#B2714A" points="445,322.5 444.5,331 423.2,336 423.6,327.4 		"/>
	</g>
	<g>
		<polygon fill="#8F2917" points="670.1,362.7 668.1,371.1 659,356.7 660.9,348.3 		"/>
	</g>
	<g>
		<polygon fill="#696A6A" points="238.3,277 239,285.8 76.9,319.8 75.2,310.9 		"/>
	</g>
	<g>
		<polygon fill="#9E6441" points="493.2,330 492.3,338.5 486.5,347.9 487.3,339.4 		"/>
	</g>
	<g>
		<polygon fill="#AF6F49" points="595.4,337.6 593.9,346 547.3,357.5 548.5,349 		"/>
	</g>
	<g>
		<polygon fill="#905A3A" points="437.5,351.2 437,359.8 425.9,337 426.3,328.4 		"/>
	</g>
	<g>
		<polygon fill="#B1704A" points="487.3,339.4 486.5,347.9 437,359.8 437.5,351.2 		"/>
	</g>
	<g>
		<polygon fill="#AD6E48" points="618,357.5 616.3,365.9 560,380.2 561.3,371.7 		"/>
	</g>
	<g>
		<polygon fill="#915B3A" points="560.3,372 559,380.4 547.2,359.2 548.4,350.7 		"/>
	</g>
	<g>
		<polygon fill="#AD6E48" points="561.3,371.7 560,380.2 559,380.4 560.3,372 		"/>
	</g>
	<g>
		<polygon fill="#525454" points="106.4,227.8 107.9,236.6 106.5,232.2 105.1,223.4 		"/>
	</g>
	<g>
		<polygon fill="#525454" points="106.8,229.1 108.2,237.9 107.9,236.6 106.4,227.8 		"/>
	</g>
	<g>
		<polygon fill="#7D7D7D" points="128.3,219 130.1,224.7 218.7,207.9 249.7,233.9 271.9,229.6 279.6,248 257.1,252.5 262,264.9 
			235.8,270.3 238.3,277 75.2,310.9 74.1,311.1 58.7,251.9 59.5,251.1 76,234.9 106.8,229.1 106.4,227.8 105.1,223.4 106.1,223.2 		
			"/>
	</g>
	<g>
		<polygon fill="#B5734C" points="276.2,314.5 276.7,323.2 185,343.4 183.9,334.7 		"/>
	</g>
	<g>
		<polygon fill="#905A39" points="183.9,334.7 185,343.4 171.9,303.5 170.8,294.8 		"/>
	</g>
	<g>
		<polygon fill="#B1704A" points="435.5,351.7 435,360.3 375,374.7 375.1,366.1 		"/>
	</g>
	<g>
		<polygon fill="#B1704A" points="370.8,358.8 370.7,367.5 329.8,377.2 329.6,368.5 		"/>
	</g>
	<g>
		<polygon fill="#905A39" points="329.6,368.5 329.8,377.2 308.7,326.1 308.4,317.4 		"/>
	</g>
	<g>
		<polygon fill="#8F2917" points="782.4,411.7 779.7,420 771.9,440.7 774.6,432.4 		"/>
	</g>
	<g>
		<polygon fill="#AC3624" points="327.5,369 327.7,377.7 305.8,382.9 305.5,374.2 		"/>
	</g>
	<g>
		<polygon fill="#A13120" points="774.6,432.4 771.9,440.7 617.3,484.9 619.1,476.6 		"/>
	</g>
	<g>
		<polygon fill="#9B2F1D" points="619.1,476.6 617.3,484.9 589.4,474.3 591,466 		"/>
	</g>
	<g>
		<polygon fill="#AB3523" points="314.8,397.4 315,406.1 135.4,449.9 133.9,441.2 		"/>
	</g>
	<g>
		<polygon fill="#942C1A" points="133.9,441.2 135.4,449.9 108,438.7 106.3,430 		"/>
	</g>
	<g>
		<path fill="#D3C9B7" d="M663.2,233.2c0.6-0.1,1.2-0.2,1.8-0.1c0.6,0,1.2,0.2,1.8,0.4s1.1,0.4,1.6,0.8c0.5,0.3,0.8,0.7,1.1,1.1
			c0.3,0.4,0.5,0.8,0.5,1.3s0,0.8-0.2,1.2s-0.5,0.7-0.9,0.9c-0.4,0.3-0.9,0.5-1.5,0.6s-1.2,0.2-1.8,0.1c-0.6,0-1.2-0.2-1.8-0.4
			s-1.1-0.4-1.6-0.8s-0.8-0.7-1.1-1.1c-0.3-0.4-0.4-0.8-0.5-1.3s0-0.8,0.2-1.2s0.5-0.7,0.9-0.9C662.2,233.6,662.6,233.4,663.2,233.2
			z"/>
	</g>
	<g>
		<polygon fill="#E3E3E3" points="376,197.3 384.6,214.6 397.4,212.1 413.1,242.9 400.9,259.5 352.4,269.8 337,236.3 326.3,212.8 
			327.1,212.6 		"/>
	</g>
	<g>
		<polygon fill="#915B3A" points="539.9,335.7 538.8,344.2 538.4,343.5 539.5,335 		"/>
	</g>
	<g>
		<polygon fill="#AF6F49" points="548.5,349 547.3,357.5 546.3,357.7 547.5,349.3 		"/>
	</g>
	<g>
		<polygon fill="#915B3A" points="547.5,349.3 546.3,357.7 538.8,344.2 539.9,335.7 		"/>
	</g>
	<g>
		<polygon fill="#525454" points="74.1,311.1 75.8,320 60.5,260.8 58.7,251.9 		"/>
	</g>
	<g>
		<polygon fill="#696A6A" points="75.2,310.9 76.9,319.8 75.8,320 74.1,311.1 		"/>
	</g>
	<g>
		<polygon fill="#905A39" points="371.5,360.3 371.3,368.9 370.7,367.5 370.8,358.8 		"/>
	</g>
	<g>
		<polygon fill="#B1704A" points="375.1,366.1 375,374.7 374,374.9 374.1,366.3 		"/>
	</g>
	<g>
		<polygon fill="#905A39" points="374.1,366.3 374,374.9 371.3,368.9 371.5,360.3 		"/>
	</g>
	<g>
		<polygon fill="#8D2816" points="589.6,465.4 588,473.8 540.6,386.8 541.8,378.3 		"/>
	</g>
	<g>
		<polygon fill="#9B2F1D" points="591,466 589.4,474.3 588,473.8 589.6,465.4 		"/>
	</g>
	<g>
		<polygon fill="#8C2816" points="104.9,429.4 106.6,438.2 76.8,323.6 75,314.7 		"/>
	</g>
	<g>
		<polygon fill="#942C1A" points="106.3,430 108,438.7 106.6,438.2 104.9,429.4 		"/>
	</g>
</g>
<g id="landmarks-level1">
	<g id="Layer_3">
	</g>
	<polygon fill="#DF8D5E" points="590,167.4 601.2,184.2 575.5,189.4 564.5,172.4 	"/>
	<polygon fill="#DF8D5E" points="749.5,204.2 756.7,213.6 746.8,215.8 739.6,206.3 	"/>
	<polygon id="applebees" fill="#D84632" points="777.1,134.6 830.5,199.1 821.5,221.5 796.2,214.1 764.4,221.2 737.6,186.3 
		671.1,200.3 651.1,172.1 716.2,159 723.3,145.3 	"/>
	<polygon fill="#DF8D5E" points="601.9,185.3 609.6,196.7 583.7,202.1 576.2,190.5 	"/>
	<polygon id="cvs" fill="#DF8D5E" points="526.2,148.4 541.7,153.4 549.5,165.6 562.3,185.6 522.1,193.7 509.8,173.3 447.1,185.5 
		440.9,174.3 436,165.5 436.8,165.3 	"/>
	<polygon id="pizzahut" fill="#DF8D5E" points="621.5,171.8 647.1,179.5 658.5,195.7 651,197.3 655.4,203.6 610.9,213 602,199.6 
		612.3,197.5 598.2,176.5 	"/>
	<polygon fill="#DF8D5E" points="738,206.7 746,217.3 757.6,214.8 762.8,221.6 716.8,231.8 708.4,213.1 	"/>
	<polygon fill="#DF8D5E" points="561.6,199.4 566.8,207.6 550.6,210.9 545.5,202.7 	"/>
	<polygon fill="#DF8D5E" points="522.9,201.3 508.7,221.6 499.6,206.1 	"/>
	<polygon id="mcdonalds" fill="#DF8D5E" points="751.2,225.6 764.8,243.6 719.7,253.9 717.2,233.1 	"/>
	<polygon id="pullnbear" fill="#DF8D5E" points="508.8,174.9 523.9,199.8 497.1,205.3 507.6,223.2 472.2,230.6 461.7,211.8 
		471.4,209.8 465.1,198.6 455.4,200.5 447.8,186.8 	"/>
	<polygon fill="#DF8D5E" points="612.9,243.1 623.7,259.6 599.1,265.1 596.5,261 605.9,244.6 	"/>
	<polygon fill="#DF8D5E" points="444.9,202.6 461.4,232.8 414.9,242.5 399.2,211.7 	"/>
	<polygon fill="#DF8D5E" points="751.3,264 765.3,283.1 725.1,292.8 709.4,286.4 716.2,272.3 	"/>
	<polygon fill="#DF8D5E" points="614.3,290 622.7,303.3 605.7,307.4 597.4,294 	"/>
	<polygon fill="#DF8D5E" points="335.7,238 350.5,270.2 330.1,274.5 315.8,242 	"/>
	<polygon id="subway" fill="#DF8D5E" points="698.7,299.7 722.2,310.8 733.7,307.9 746.1,325.5 702.1,336.6 685,311 	"/>
	<polygon fill="#DF8D5E" points="313.9,242.4 325.3,268.3 291,275.5 293.8,282.2 272.8,286.6 259.6,253.4 	"/>
	<polygon fill="#DF8D5E" points="539.5,280.9 567.3,290.7 595.4,337.6 548.5,349 547.5,349.3 539.9,335.7 539.5,335 512.8,325.4 
		494,291.2 	"/>
	<polygon fill="#DF8D5E" points="492.2,291.6 510.9,325.8 493.2,330 487.3,339.4 437.5,351.2 426.3,328.4 447.7,323.4 437.8,303.8 	
		"/>
	<polygon fill="#DF8D5E" points="261,276 276.2,314.5 183.9,334.7 170.8,294.8 	"/>
	<polygon id="atnt" fill="#DF8D5E" points="408,295.3 435.9,304.3 445,322.5 423.6,327.4 435.5,351.7 375.1,366.1 374.1,366.3 
		371.5,360.3 370.8,358.8 329.6,368.5 308.4,317.4 	"/>
	<polygon fill="#DF8D5E" points="439.8,175.8 453,199.7 385.9,213 377.8,196.9 418.9,188.9 418.2,187.8 414.4,180.6 415.3,180.5 	
		"/>
	<polygon fill="#DF8D5E" points="765.7,244.8 775,257 716.8,270.6 719.7,255.3 	"/>
	<polygon id="kfc" fill="#DF8D5E" points="708.4,287.9 724.2,294.5 766.3,284.4 788.5,314.6 747.7,324.9 734.5,306.1 722.5,309.1 
		699.8,298.5 	"/>
	<polygon fill="#DF8D5E" points="596.2,339 618,357.5 561.3,371.7 560.3,372 548.4,350.7 549.3,350.5 	"/>
	<polygon id="amc" fill="#D84632" points="727.3,331.6 782.4,411.7 774.6,432.4 619.1,476.6 591,466 589.6,465.4 541.8,378.3 
		542.8,378.1 623.1,357.9 632,372.5 670.1,362.7 660.9,348.3 	"/>
	<polygon fill="#D84632" points="168.7,295.2 182.3,336.5 266.5,318 269.6,326 306.4,317.8 327.5,369 305.5,374.2 314.8,397.4 
		133.9,441.2 106.3,430 104.9,429.4 75,314.7 76.1,314.5 	"/>
</g>
<g id="nopointer-level1">
	<path fill="#333333" d="M433.4,195.4h-0.1h-0.1l-0.1-0.1v-0.1l-0.1-1.6c0-0.1,0-0.1,0-0.2s0.1-0.1,0.1-0.2s0.1-0.1,0.2-0.2
		s0.2-0.1,0.3-0.1l0.5-0.1l0.5-0.1c0.1,0,0.3,0,0.4,0s0.2,0,0.4,0.1s0.2,0.1,0.3,0.1s0.1,0.1,0.2,0.1l1.5,1.3l0.1,0.1v0.1
		c0,0,0,0.1-0.1,0.1s-0.1,0-0.1,0.1h-0.1h-0.1H437c0,0-0.1,0-0.1-0.1l-1.3-1.2h-0.2l2.3,2.2l-1,0.2l1,1.8v0.1v0.1c0,0,0,0.1-0.1,0.1
		s-0.1,0-0.1,0h-0.1h-0.1c0,0-0.1,0-0.1-0.1l-0.1-0.1l-1-1.8h-0.2l1,1.8v0.1v0.1l-0.1,0.1h-0.1h-0.1h-0.1c0,0-0.1,0-0.1-0.1
		s-0.1-0.1-0.1-0.1l-1-1.8l-1,0.2l-0.3-2.6h-0.2l0.1,1.5v0.1v0.1C433.9,195.3,433.5,195.4,433.4,195.4
		C433.5,195.4,433.4,195.4,433.4,195.4 M440.2,194.3h-0.1H440c0,0-0.1,0-0.1-0.1s-0.1-0.1-0.1-0.1l-0.9-1.6c0-0.1-0.1-0.2-0.1-0.3
		s0-0.2,0.1-0.3s0.1-0.1,0.2-0.2c0.1-0.1,0.2-0.1,0.4-0.1l1.6-0.3c0.1,0,0.3,0,0.4,0s0.3,0.1,0.4,0.1s0.2,0.1,0.3,0.2
		c0.1,0.1,0.2,0.1,0.2,0.2l0.9,1.6v0.1v0.1c0,0,0,0.1-0.1,0.1s-0.1,0-0.1,0H443h-0.1c0,0-0.1,0-0.1-0.1s-0.1-0.1-0.1-0.1l-0.8-1.4
		h-0.2l2.2,4c0,0.1,0,0.1,0,0.1v0.1l-0.1,0.1c0,0-0.1,0-0.1,0.1c-0.1,0-0.1,0-0.2,0s-0.1,0-0.2,0s-0.1,0-0.1-0.1l-0.1-0.1l-1.3-2.3
		h-0.1l1.3,2.3c0,0.1,0,0.1,0,0.1v0.1l-0.1,0.1c0,0-0.1,0-0.1,0.1c-0.1,0-0.1,0-0.2,0s-0.1,0-0.2,0c0,0-0.1,0-0.1-0.1l-0.1-0.1
		l-2.2-4h-0.2l0.8,1.4v0.1v0.1c0,0,0,0.1-0.1,0.1C440.3,194.3,440.3,194.3,440.2,194.3 M439.6,197.3l-3.4-6.2l0.9-0.2l3.4,6.2
		L439.6,197.3 M434,192.6c-0.1,0-0.2,0-0.3,0c-0.1,0-0.2,0-0.3-0.1s-0.2-0.1-0.3-0.1s-0.1-0.1-0.2-0.2s0-0.1,0-0.2
		c0-0.1,0-0.1,0.1-0.2s0.1-0.1,0.2-0.2s0.2-0.1,0.3-0.1s0.2,0,0.3,0s0.2,0,0.3,0.1s0.2,0.1,0.3,0.1s0.1,0.1,0.2,0.2s0,0.1,0,0.2
		c0,0.1,0,0.1-0.1,0.2c0,0.1-0.1,0.1-0.2,0.2S434,192.6,434,192.6 M440.2,191.4c-0.1,0-0.2,0-0.3,0c-0.1,0-0.2,0-0.3-0.1
		s-0.2-0.1-0.3-0.1s-0.1-0.1-0.2-0.2s0-0.1,0-0.2c0-0.1,0-0.1,0.1-0.2c0-0.1,0.1-0.1,0.2-0.2c0.1,0,0.2-0.1,0.3-0.1
		c0.1,0,0.2,0,0.3,0c0.1,0,0.2,0,0.3,0.1s0.2,0.1,0.3,0.1s0.1,0.1,0.2,0.2s0,0.1,0,0.2c0,0.1,0,0.1-0.1,0.2s-0.1,0.1-0.2,0.2
		C440.4,191.4,440.3,191.4,440.2,191.4 M441,188.4l-10.9,2.1c-0.3,0.1-0.5,0.1-0.6,0.2c-0.2,0.1-0.3,0.2-0.4,0.3s-0.1,0.2-0.1,0.4
		c0,0.1,0,0.3,0.1,0.5l4,7.3c0.1,0.2,0.2,0.3,0.3,0.4c0.1,0.1,0.3,0.2,0.5,0.3s0.4,0.1,0.6,0.1s0.5,0,0.7-0.1l11.1-2.2
		c0.3-0.1,0.5-0.1,0.6-0.2s0.3-0.2,0.4-0.3s0.1-0.2,0.1-0.4s-0.1-0.3-0.1-0.5l-4-7.3c-0.1-0.2-0.2-0.3-0.3-0.4
		c-0.1-0.1-0.3-0.2-0.5-0.3s-0.4-0.1-0.6-0.1C441.5,188.4,441.2,188.4,441,188.4"/>
	<polyline fill="#FFFFFF" points="437.1,191 436.2,191.1 439.6,197.3 440.4,197.1 437.1,191 	"/>
	<path fill="#FFFFFF" d="M433.4,191.6c-0.1,0-0.2,0.1-0.3,0.1s-0.1,0.1-0.2,0.2s-0.1,0.1-0.1,0.2c0,0.1,0,0.1,0,0.2
		c0,0.1,0.1,0.1,0.2,0.2s0.2,0.1,0.3,0.1s0.2,0.1,0.3,0.1c0.1,0,0.2,0,0.3,0c0.1,0,0.2-0.1,0.3-0.1c0.1,0,0.1-0.1,0.2-0.2
		c0-0.1,0.1-0.1,0.1-0.2c0-0.1,0-0.1,0-0.2c0-0.1-0.1-0.1-0.2-0.2c-0.1-0.1-0.2-0.1-0.3-0.1s-0.2-0.1-0.3-0.1
		S433.5,191.6,433.4,191.6"/>
	<path fill="#FFFFFF" d="M434.5,192.7l-0.5,0.1l-0.5,0.1c-0.1,0-0.3,0.1-0.3,0.1c-0.1,0.1-0.2,0.1-0.2,0.2c0,0.1-0.1,0.1-0.1,0.2
		s0,0.1,0,0.2l0.1,1.6c0,0.1,0,0.1,0,0.1l0.1,0.1h0.1h0.1h0.1c0,0,0,0,0.1-0.1c0,0,0,0,0-0.1v-0.1l-0.1-1.5h0.2l0.3,2.6l1-0.2l1,1.8
		c0,0,0,0.1,0.1,0.1s0.1,0.1,0.1,0.1h0.1h0.1h0.1c0,0,0.1,0,0.1-0.1v-0.1v-0.1l-1-1.8h0.2l1,1.8c0,0,0,0.1,0.1,0.1s0.1,0.1,0.1,0.1
		h0.1h0.1h0.1c0,0,0.1,0,0.1-0.1s0-0.1,0-0.1v-0.1l-1-1.8l1-0.2l-2.3-2.2h0.2l1.3,1.2l0.1,0.1h0.1h0.1h0.1c0,0,0.1,0,0.1-0.1
		s0.1-0.1,0.1-0.1v-0.1c0,0,0-0.1-0.1-0.1l-1.5-1.3c0,0-0.1-0.1-0.2-0.1s-0.2-0.1-0.3-0.1s-0.2-0.1-0.4-0.1
		C434.8,192.6,434.7,192.7,434.5,192.7"/>
	<path fill="#FFFFFF" d="M441.1,191.4l-1.6,0.3c-0.1,0-0.3,0.1-0.4,0.1s-0.2,0.1-0.2,0.2c0,0.1-0.1,0.2-0.1,0.3s0,0.2,0.1,0.3
		l0.9,1.6c0,0,0,0.1,0.1,0.1s0.1,0,0.1,0.1h0.1h0.1h0.1c0,0,0.1,0,0.1-0.1v-0.1v-0.1l-0.8-1.4h0.2l2.2,4c0,0.1,0.1,0.1,0.1,0.1
		l0.1,0.1c0,0,0.1,0,0.2,0s0.1,0,0.2,0s0.1,0,0.1-0.1l0.1-0.1v-0.1v-0.1l-1.3-2.3h0.1l1.3,2.3c0,0.1,0.1,0.1,0.1,0.1l0.1,0.1
		c0,0,0.1,0,0.2,0s0.1,0,0.2,0s0.1,0,0.1-0.1s0.1-0.1,0.1-0.1v-0.1v-0.1l-2.2-4h0.2l0.8,1.4c0,0,0,0.1,0.1,0.1s0.1,0,0.1,0.1h0.1
		h0.1h0.1c0,0,0.1,0,0.1-0.1s0-0.1,0-0.1v-0.1l-0.9-1.6c0-0.1-0.1-0.2-0.2-0.2c-0.1-0.1-0.2-0.1-0.3-0.2s-0.3-0.1-0.4-0.1
		C441.4,191.4,441.3,191.4,441.1,191.4"/>
	<path fill="#FFFFFF" d="M439.7,190.4c-0.1,0-0.2,0.1-0.3,0.1c-0.1,0-0.1,0.1-0.2,0.2c0,0.1-0.1,0.1-0.1,0.2c0,0.1,0,0.1,0,0.2
		c0,0.1,0.1,0.1,0.2,0.2c0.1,0.1,0.2,0.1,0.3,0.1s0.2,0.1,0.3,0.1c0.1,0,0.2,0,0.3,0c0.1,0,0.2-0.1,0.3-0.1c0.1,0,0.1-0.1,0.2-0.2
		c0-0.1,0.1-0.1,0.1-0.2c0-0.1,0-0.1,0-0.2s-0.1-0.1-0.2-0.2c-0.1-0.1-0.2-0.1-0.3-0.1s-0.2-0.1-0.3-0.1
		C439.9,190.4,439.8,190.4,439.7,190.4"/>
	<path fill="#333333" d="M243.6,264.3l-0.3-0.8l2.2-0.5l-0.6-1.5l2.2-0.5l-0.6-1.5l2.2-0.5l-0.6-1.5l2.2-0.5l-0.6-1.4l3.3-0.7
		l0.3,0.7l-2.2,0.4l0.6,1.5l-2.2,0.5l0.6,1.5l-2.2,0.5l0.6,1.5l-2.2,0.5l0.6,1.5L243.6,264.3 M252.3,253.3l-12.3,2.5
		c-0.3,0.1-0.5,0.1-0.7,0.2c-0.2,0.1-0.4,0.2-0.5,0.3c-0.1,0.1-0.2,0.3-0.2,0.4c0,0.2,0,0.3,0.1,0.5l3.1,8.2
		c0.1,0.2,0.2,0.3,0.3,0.5s0.3,0.2,0.5,0.3c0.2,0.1,0.4,0.1,0.6,0.1c0.2,0,0.5,0,0.8-0.1l12.5-2.5c0.3-0.1,0.5-0.1,0.7-0.2
		s0.4-0.2,0.5-0.3c0.1-0.1,0.2-0.3,0.2-0.4c0-0.2,0-0.3-0.1-0.5l-3.2-8.1c-0.1-0.2-0.2-0.4-0.3-0.5s-0.3-0.2-0.5-0.3
		s-0.4-0.1-0.6-0.1C252.9,253.3,252.6,253.3,252.3,253.3"/>
	<polyline fill="#FFFFFF" points="253,255.2 249.8,255.8 250.3,257.3 248.1,257.7 248.7,259.2 246.5,259.6 247.1,261.1 244.9,261.6 
		245.5,263.1 243.3,263.5 243.6,264.3 246.8,263.6 246.3,262.1 248.5,261.6 247.9,260.2 250.1,259.7 249.5,258.2 251.7,257.8 
		251.2,256.3 253.3,255.9 253,255.2 	"/>
	<path fill="#333333" d="M673.4,336c-0.1,0-0.3,0-0.4,0c-0.1,0-0.3,0-0.4-0.1c-0.1,0-0.3-0.1-0.4-0.2c-0.1-0.1-0.2-0.2-0.3-0.3
		l-2.7-4.2c-0.1-0.1-0.1-0.2-0.1-0.3s0-0.2,0-0.3c0-0.1,0.1-0.2,0.2-0.2c0.1-0.1,0.2-0.1,0.4-0.2l5.4-1.3c0.1,0,0.3,0,0.4,0
		c0.1,0,0.3,0,0.4,0.1c0.1,0,0.3,0.1,0.4,0.2c0.1,0.1,0.2,0.2,0.3,0.3l2.8,4.2c0.1,0.1,0.1,0.2,0.1,0.3s0,0.2,0,0.3
		s-0.1,0.2-0.2,0.2c-0.1,0.1-0.2,0.1-0.3,0.1L673.4,336 M668.1,328.7c-0.1,0-0.2,0-0.3,0s-0.2,0-0.3-0.1c-0.1,0-0.1-0.1-0.2-0.2
		s0-0.1,0-0.2l0.5-1.6c0,0,0,0,0-0.1c0,0,0,0,0.1-0.1s0,0,0.1,0s0.1,0,0.1,0h0.1h0.1h0.1h0.1l2.1,0.9c0.1,0,0.2,0.1,0.3,0.2
		s0.1,0.1,0.1,0.2s0,0.1-0.1,0.2s-0.1,0.1-0.2,0.1c0,0,0,0-0.1,0s-0.1,0-0.1,0h-0.1h-0.1l-0.9-0.4l1.1,1.7c0,0.1,0.1,0.1,0.1,0.2
		s0,0.1,0,0.2s-0.1,0.1-0.1,0.1s-0.1,0.1-0.2,0.1c-0.1,0-0.1,0-0.2,0c-0.1,0-0.1,0-0.2,0c-0.1,0-0.1-0.1-0.2-0.1s-0.1-0.1-0.2-0.2
		l-1.1-1.7L668.1,328.7C668.2,328.6,668.2,328.6,668.1,328.7L668.1,328.7C668.2,328.7,668.2,328.7,668.1,328.7L668.1,328.7
		 M672.7,327.7l-1.1-1.6c0-0.1-0.1-0.1-0.1-0.2s0-0.1,0-0.2l0.1-0.1c0,0,0.1-0.1,0.2-0.1c0.1,0,0.1,0,0.2,0s0.1,0,0.2,0
		c0.1,0,0.1,0,0.2,0.1c0.1,0,0.1,0.1,0.2,0.2l1.1,1.7l0.2-0.7c0,0,0,0,0-0.1l0,0c0,0,0,0,0.1,0s0,0,0.1,0s0.2,0,0.3,0s0.2,0,0.3,0.1
		c0.1,0,0.1,0.1,0.2,0.2s0,0.1,0,0.2l-0.5,1.5c0,0,0,0,0,0.1s0,0-0.1,0.1s0,0-0.1,0h-0.1H674h-0.1h-0.1h-0.1l-2.1-0.9
		c-0.1,0-0.2-0.1-0.3-0.2s-0.1-0.1-0.1-0.2s0-0.1,0.1-0.2s0.1-0.1,0.2-0.1c0,0,0,0,0.1,0s0.1,0,0.1,0h0.1h0.1L672.7,327.7
		 M675.1,324l-11.1,2.7c-0.3,0.1-0.5,0.1-0.6,0.3c-0.2,0.1-0.3,0.2-0.3,0.4c-0.1,0.1-0.1,0.3-0.1,0.5s0.1,0.4,0.3,0.6l5.6,8.7
		c0.1,0.2,0.3,0.4,0.4,0.5c0.2,0.1,0.3,0.2,0.5,0.3c0.2,0.1,0.4,0.1,0.6,0.1c0.2,0,0.5,0,0.7-0.1l11.2-2.8c0.3-0.1,0.5-0.1,0.6-0.2
		c0.2-0.1,0.3-0.2,0.3-0.3s0.1-0.3,0-0.5c0-0.2-0.1-0.4-0.3-0.5l-5.7-8.6c-0.1-0.2-0.3-0.4-0.5-0.5s-0.3-0.2-0.5-0.3
		c-0.2-0.1-0.4-0.1-0.6-0.1S675.3,324,675.1,324"/>
	<path fill="#FFFFFF" d="M672.9,335.2l-2.7-4.1l5.3-1.3l2.7,4.1L672.9,335.2 M675.1,329l-5.4,1.3c-0.1,0-0.3,0.1-0.4,0.2
		c-0.1,0.1-0.2,0.1-0.2,0.2s-0.1,0.2,0,0.3c0,0.1,0,0.2,0.1,0.3l2.7,4.2c0.1,0.1,0.2,0.2,0.3,0.3c0.1,0.1,0.2,0.1,0.4,0.2
		s0.3,0.1,0.4,0.1c0.1,0,0.3,0,0.4,0l5.4-1.4c0.1,0,0.3-0.1,0.3-0.1c0.1-0.1,0.2-0.1,0.2-0.2s0.1-0.2,0-0.3s0-0.2-0.1-0.3l-2.8-4.2
		c-0.1-0.1-0.2-0.2-0.3-0.3c-0.1-0.1-0.2-0.1-0.4-0.2c-0.1,0-0.3-0.1-0.4-0.1C675.4,328.9,675.2,328.9,675.1,329"/>
	<path fill="#333333" d="M672.3,333.5L672.3,333.5c-0.1,0-0.1,0-0.2,0c0,0,0,0-0.1,0l0,0l-0.7-1v-0.1c0,0,0,0,0-0.1c0,0,0,0,0.1-0.1
		c0,0,0,0,0.1,0l1-0.3h0.1h0.1h0.1c0,0,0,0,0.1,0.1l0.7,1c0,0,0,0,0,0.1s0,0,0,0.1s0,0,0,0s0,0-0.1,0h-0.1l0.9,1.3v0.1
		c0,0,0,0,0,0.1l0,0c0,0,0,0-0.1,0h-0.1H674h-0.1c0,0,0,0-0.1-0.1l-0.9-1.3h-0.1l0.9,1.3v0.1c0,0,0,0,0,0.1l0,0c0,0,0,0-0.1,0h-0.1
		h-0.1h-0.1c0,0,0,0-0.1-0.1L672.3,333.5L672.3,333.5 M674,333.1C673.9,333.1,673.9,333.1,674,333.1c-0.1,0-0.1,0-0.2,0s0,0-0.1,0
		l0,0l-0.7-1V332c0,0,0,0,0-0.1c0,0,0,0,0-0.1s0,0,0.1,0l1.1-0.3h0.1h0.1h0.1c0,0,0,0,0.1,0.1l0.7,1c0,0,0,0,0,0.1s0,0,0,0.1
		s0,0,0,0s0,0-0.1,0h-0.1l0.9,1.3v0.1c0,0,0,0,0,0.1s0,0,0,0s0,0-0.1,0h-0.1h-0.1h-0.1c0,0,0,0-0.1-0.1l-0.9-1.3h-0.1l0.9,1.3v0.1
		c0,0,0,0,0,0.1l0,0c0,0,0,0-0.1,0s-0.1,0-0.1,0h-0.1H675c0,0,0,0-0.1-0.1L674,333V333.1 M675.6,332.7
		C675.6,332.7,675.5,332.7,675.6,332.7c-0.1,0-0.1,0-0.2,0c0,0,0,0-0.1,0l0,0l-0.7-1v-0.1c0,0,0,0,0-0.1c0,0,0,0,0.1-0.1
		c0,0,0,0,0.1,0l1-0.3h0.1h0.1h0.1c0,0,0,0,0.1,0.1l0.7,1c0,0,0,0,0,0.1s0,0,0,0.1s0,0,0,0s0,0-0.1,0h-0.1l0.9,1.3v0.1
		c0,0,0,0,0,0.1l0,0c0,0,0,0-0.1,0h-0.1h-0.1h-0.1c0,0,0,0-0.1-0.1l-0.9-1.3h-0.1l0.9,1.3v0.1c0,0,0,0,0,0.1s0,0,0,0s0,0-0.1,0
		s-0.1,0-0.1,0h-0.1h-0.1c0,0,0,0-0.1-0.1L675.6,332.7L675.6,332.7 M672,331.9c0,0-0.1,0-0.2,0c0,0-0.1,0-0.2,0c0,0-0.1,0-0.1-0.1
		s-0.1-0.1-0.1-0.1v-0.1v-0.1c0,0,0-0.1,0.1-0.1s0.1,0,0.1,0s0.1,0,0.2,0c0,0,0.1,0,0.2,0c0,0,0.1,0,0.1,0.1s0.1,0.1,0.1,0.1v0.1
		v0.1C672.2,331.8,672.2,331.9,672,331.9L672,331.9 M673.6,331.5c0,0-0.1,0-0.2,0c0,0-0.1,0-0.2,0c0,0-0.1,0-0.1-0.1
		s-0.1-0.1-0.1-0.1v-0.1v-0.1c0,0,0-0.1,0.1-0.1s0.1,0,0.1,0h0.1h0.1c0,0,0.1,0,0.1,0.1s0.1,0.1,0.1,0.1v0.1v0.1
		C673.6,331.4,673.7,331.4,673.6,331.5C673.7,331.5,673.7,331.5,673.6,331.5 M675.3,331.1L675.3,331.1h-0.2c0,0-0.1,0-0.1-0.1
		s-0.1-0.1-0.1-0.1v-0.1v-0.1c0,0,0-0.1,0.1-0.1s0.1,0,0.1,0s0.1,0,0.2,0c0,0,0.1,0,0.2,0c0,0,0.1,0,0.1,0.1s0.1,0.1,0.1,0.1v0.1
		v0.1c0,0,0,0.1-0.1,0.1C675.3,331.1,675.3,331.1,675.3,331.1 M675.6,329.8l-5.3,1.3l2.7,4.1l5.4-1.3L675.6,329.8"/>
	<path fill="#FFFFFF" d="M671.8,325.5c-0.1,0-0.1,0-0.2,0.1s-0.1,0.1-0.1,0.1s0,0.1,0,0.2s0,0.1,0.1,0.2l1.1,1.6l-0.9-0.4h-0.1h-0.1
		h-0.1h-0.1c-0.1,0-0.2,0.1-0.2,0.1s-0.1,0.1-0.1,0.2s0,0.1,0.1,0.2c0,0.1,0.1,0.1,0.3,0.2l2.1,0.9h0.1h0.1h0.1h0.1h0.1
		c0,0,0,0,0.1,0c0,0,0,0,0.1-0.1s0,0,0-0.1l0.5-1.5c0-0.1,0-0.2,0-0.2c0-0.1-0.1-0.1-0.2-0.2s-0.2-0.1-0.3-0.1s-0.2,0-0.3,0
		c0,0,0,0-0.1,0c0,0,0,0-0.1,0l0,0c0,0,0,0,0,0.1l-0.2,0.7l-1.1-1.7c0-0.1-0.1-0.1-0.2-0.2c-0.1,0-0.1-0.1-0.2-0.1
		C672,325.5,672,325.5,671.8,325.5C672,325.5,671.9,325.5,671.8,325.5"/>
	<path fill="#FFFFFF" d="M668.2,326.4C668.1,326.4,668.1,326.4,668.2,326.4c-0.1,0-0.1,0.1-0.2,0.1c0,0,0,0-0.1,0.1s0,0,0,0.1
		l-0.5,1.6c0,0.1,0,0.2,0,0.2c0,0.1,0.1,0.1,0.2,0.2s0.2,0.1,0.3,0.1s0.2,0,0.3,0c0,0,0,0,0.1,0s0,0,0.1,0l0,0c0,0,0,0,0-0.1
		l0.2-0.7l1.1,1.7c0,0.1,0.1,0.1,0.2,0.2s0.1,0.1,0.2,0.1c0.1,0,0.1,0,0.2,0c0.1,0,0.1,0,0.2,0c0.1,0,0.1,0,0.2-0.1s0.1-0.1,0.1-0.1
		s0-0.1,0-0.2s0-0.1-0.1-0.2l-1.1-1.7l0.9,0.4h0.1h0.1h0.1h0.1c0.1,0,0.2-0.1,0.2-0.1s0.1-0.1,0.1-0.2s0-0.1-0.1-0.2
		c0-0.1-0.1-0.1-0.3-0.2l-2.1-0.9h-0.1h-0.1C668.3,326.4,668.3,326.4,668.2,326.4L668.2,326.4"/>
	<path fill="#FFFFFF" d="M675.8,331l-1,0.3h-0.1c0,0,0,0-0.1,0.1c0,0,0,0,0,0.1s0,0,0,0.1l0.7,1l0,0c0,0,0,0,0.1,0c0,0,0,0,0.1,0
		c0,0,0,0,0.1,0h0.1l0.9,1.3c0,0,0,0,0.1,0.1h0.1h0.1h0.1c0,0,0,0,0.1,0l0,0c0,0,0,0,0-0.1s0,0,0-0.1l-0.9-1.3h0.1l0.9,1.3
		c0,0,0,0.1,0.1,0.1s0.1,0,0.1,0h0.1h0.1c0,0,0,0,0.1,0l0,0c0,0,0,0,0-0.1c0,0,0,0,0-0.1l-0.9-1.3h0.1c0,0,0,0,0.1,0l0,0
		c0,0,0,0,0-0.1s0,0,0-0.1l-0.7-1c0,0,0,0-0.1-0.1h-0.1H676C675.9,331,675.9,331,675.8,331"/>
	<path fill="#FFFFFF" d="M674.9,330.6L674.9,330.6c-0.1,0-0.2,0-0.2,0.1v0.1v0.1l0.1,0.1c0,0,0.1,0,0.1,0.1h0.1h0.1h0.1
		c0,0,0.1,0,0.1-0.1v-0.1v-0.1l-0.1-0.1c0,0-0.1,0-0.1-0.1C675.1,330.6,675,330.6,674.9,330.6C675,330.5,675,330.5,674.9,330.6"/>
	<path fill="#FFFFFF" d="M674.2,331.5l-1.1,0.3H673c0,0,0,0,0,0.1s0,0,0,0.1s0,0,0,0.1l0.7,1l0,0c0,0,0,0,0.1,0s0,0,0.1,0s0,0,0.1,0
		h0.1l0.9,1.3c0,0,0,0,0.1,0.1h0.1h0.1h0.1c0,0,0,0,0.1,0l0,0c0,0,0,0,0-0.1c0,0,0,0,0-0.1l-0.9-1.3h0.1l0.9,1.3c0,0,0,0.1,0.1,0.1
		s0.1,0,0.1,0h0.1h0.1c0,0,0,0,0.1,0l0,0c0,0,0,0,0-0.1c0,0,0,0,0-0.1l-0.9-1.3h0.1c0,0,0,0,0.1,0l0,0c0,0,0,0,0-0.1s0,0,0-0.1
		l-0.7-1c0,0,0,0-0.1-0.1h-0.1h-0.1C674.4,331.6,674.2,331.4,674.2,331.5"/>
	<path fill="#FFFFFF" d="M673.3,331L673.3,331c-0.1,0-0.2,0-0.2,0.1v0.1v0.1l0.1,0.1c0,0,0.1,0,0.1,0.1c0,0,0.1,0,0.2,0
		c0,0,0.1,0,0.2,0h0.1c0,0,0.1,0,0.1-0.1s0-0.1,0-0.1v-0.1l-0.1-0.1c0,0-0.1,0-0.1-0.1h-0.1C673.4,331,673.3,331,673.3,331"/>
	<path fill="#FFFFFF" d="M672.5,331.9l-1,0.3h-0.1c0,0,0,0-0.1,0.1c0,0,0,0,0,0.1s0,0,0,0.1l0.7,1l0,0c0,0,0,0,0.1,0c0,0,0,0,0.1,0
		s0,0,0.1,0h0.1l0.9,1.3c0,0,0,0,0.1,0.1s0.1,0,0.1,0h0.1h0.1c0,0,0,0,0.1,0l0,0c0,0,0,0,0-0.1s0,0,0-0.1l-0.9-1.3h0.1l0.9,1.3
		c0,0,0,0.1,0.1,0.1s0.1,0,0.1,0h0.1h0.1c0,0,0,0,0.1,0l0,0c0,0,0,0,0-0.1c0,0,0,0,0-0.1l-0.9-1.3h0.1c0,0,0,0,0.1,0l0,0
		c0,0,0,0,0-0.1s0,0,0-0.1l-0.7-1c0,0,0,0-0.1-0.1h-0.1h-0.1C672.7,332,672.6,331.9,672.5,331.9"/>
	<path fill="#FFFFFF" d="M671.6,331.4L671.6,331.4c-0.1,0-0.2,0-0.2,0.1v0.1v0.1l0.1,0.1c0,0,0.1,0,0.1,0.1c0,0,0.1,0,0.2,0
		c0,0,0.1,0,0.2,0h0.1c0,0,0.1,0,0.1-0.1v-0.1v-0.1l-0.1-0.1c0,0-0.1,0-0.1-0.1c0,0-0.1,0-0.2,0
		C671.7,331.4,671.7,331.4,671.6,331.4"/>
	<path fill="#333333" d="M583.5,269.9l0.9-1.6c0,0,0,0,0-0.1c0,0,0,0,0.1,0s0,0,0.1,0s0,0,0.1,0s0.2,0,0.2,0c0.1,0,0.2,0,0.2,0.1
		s0.1,0.1,0.1,0.1s0,0.1,0,0.2l-0.9,1.6l0.9-0.2c0.1,0,0.2,0,0.3,0s0.2,0.1,0.2,0.2s0,0.1,0,0.2s-0.1,0.1-0.2,0.1l-1.7,0.4
		c-0.1,0-0.1,0-0.2,0s-0.1,0-0.2,0s-0.1,0-0.2-0.1s-0.1-0.1-0.1-0.1l-0.8-1.3v-0.1v-0.1c0,0,0-0.1,0.1-0.1s0.1,0,0.1,0s0.1,0,0.2,0
		c0,0,0.1,0,0.2,0c0,0,0.1,0,0.1,0.1l0.1,0.1L583.5,269.9 M579.4,266.4l1-1.7c0-0.1,0.1-0.1,0.2-0.2c0.1-0.1,0.2-0.1,0.2-0.2
		c0.1,0,0.2-0.1,0.3-0.1s0.2-0.1,0.3-0.1l1.9-0.4c0.2,0,0.3,0,0.5,0s0.4,0.1,0.6,0.1s0.4,0.2,0.6,0.3c0.2,0.1,0.3,0.3,0.4,0.4
		s0.2,0.4,0.2,0.5s0,0.3-0.1,0.5s-0.2,0.3-0.3,0.3s-0.3,0.2-0.4,0.2c-0.1,0-0.3,0.1-0.4,0.1c-0.1,0-0.3,0.1-0.4,0.1s-0.2,0-0.3,0.1
		s-0.1,0-0.1,0h-0.1h-0.1c0,0,0,0-0.1,0s0,0,0,0.1l-2.8,4.7c-0.1,0.1-0.1,0.2-0.2,0.2c-0.1,0.1-0.2,0.1-0.3,0.2s-0.2,0.1-0.3,0.1
		s-0.2,0.1-0.3,0.1s-0.3,0.1-0.4,0.1c-0.2,0-0.4,0.1-0.6,0.1s-0.4,0.1-0.5,0.1s-0.2,0-0.2,0c-0.3,0.1-0.5,0.1-0.8,0
		s-0.5-0.1-0.7-0.2s-0.4-0.2-0.5-0.3c-0.2-0.1-0.3-0.3-0.4-0.4c-0.1-0.1-0.1-0.3-0.1-0.4s0-0.3,0.1-0.4s0.2-0.3,0.3-0.4
		s0.3-0.2,0.6-0.3l1-0.2c0.1,0,0.1,0,0.2,0s0.1,0,0.1,0s0,0,0.1,0s0,0,0.1-0.1l0.9-1.5l-1-1.5c-0.1-0.1-0.1-0.2-0.1-0.3
		s0-0.2,0.1-0.2s0.1-0.1,0.2-0.2c0.1,0,0.2-0.1,0.3-0.1s0.2,0,0.3,0s0.2,0,0.3,0s0.2,0.1,0.3,0.1s0.2,0.1,0.2,0.3L579.4,266.4
		 M577.9,265.5c-0.1,0-0.2,0-0.3,0s-0.2,0-0.3-0.1c-0.1,0-0.2-0.1-0.3-0.1s-0.2-0.1-0.2-0.2s-0.1-0.2-0.1-0.3s0-0.2,0.1-0.2
		s0.1-0.1,0.2-0.2s0.2-0.1,0.3-0.1s0.2,0,0.3,0s0.2,0,0.3,0.1c0.1,0,0.2,0.1,0.3,0.1c0.1,0.1,0.2,0.1,0.2,0.2s0.1,0.2,0.1,0.3
		s0,0.2-0.1,0.2s-0.1,0.1-0.2,0.2S578,265.5,577.9,265.5 M582.7,261.4l-11,2.4c-0.3,0.1-0.5,0.1-0.6,0.2s-0.3,0.2-0.4,0.3
		c-0.1,0.1-0.1,0.3-0.1,0.4c0,0.2,0.1,0.3,0.2,0.5l4.9,8c0.1,0.2,0.2,0.3,0.4,0.5s0.3,0.2,0.5,0.3c0.2,0.1,0.4,0.1,0.6,0.1
		s0.5,0,0.7-0.1l11.1-2.5c0.3-0.1,0.5-0.1,0.6-0.2s0.3-0.2,0.3-0.3c0.1-0.1,0.1-0.3,0.1-0.4s-0.1-0.3-0.2-0.5l-5-8
		c-0.1-0.2-0.3-0.4-0.4-0.5c-0.2-0.1-0.3-0.2-0.5-0.3c-0.2-0.1-0.4-0.1-0.6-0.1C583.2,261.4,582.9,261.4,582.7,261.4"/>
	<path fill="#FFFFFF" d="M577.2,264.3c-0.1,0-0.2,0.1-0.3,0.1s-0.1,0.1-0.2,0.2s-0.1,0.1-0.1,0.2s0,0.2,0.1,0.3s0.1,0.2,0.2,0.2
		s0.2,0.1,0.3,0.1s0.2,0.1,0.3,0.1s0.2,0,0.3,0s0.2-0.1,0.3-0.1s0.1-0.1,0.2-0.2c0-0.1,0.1-0.1,0.1-0.2s0-0.2-0.1-0.3
		s-0.1-0.2-0.2-0.2s-0.2-0.1-0.3-0.1s-0.2-0.1-0.3-0.1S577.3,264.3,577.2,264.3"/>
	<path fill="#FFFFFF" d="M577.4,271.5c-0.1,0-0.2,0-0.3,0s-0.2,0-0.3-0.1s-0.2-0.1-0.3-0.1s-0.2-0.1-0.2-0.2s-0.1-0.2-0.1-0.2
		c0-0.1,0-0.1,0.1-0.2s0.1-0.1,0.2-0.2s0.2-0.1,0.3-0.1l1.1-0.3c0.1,0,0.2,0,0.2-0.1s0.1,0,0.2-0.1s0.1-0.1,0.1-0.1l0.1-0.1l2.8-4.8
		l0.1-0.1l0.1-0.1c0,0,0.1,0,0.2-0.1c0.1,0,0.2,0,0.2-0.1l1.7-0.4c0.1,0,0.2,0,0.3,0s0.2,0,0.3,0.1s0.2,0.1,0.3,0.1s0.1,0.1,0.2,0.2
		c0,0,0.1,0.1,0.1,0.2s0,0.1,0,0.2s-0.1,0.1-0.1,0.2s-0.2,0.1-0.3,0.1l-1,0.2c-0.1,0-0.2,0-0.3,0.1s-0.2,0-0.2,0.1
		c-0.1,0-0.1,0.1-0.2,0.1s-0.1,0.1-0.1,0.2l-2.8,4.7l-0.1,0.1l-0.1,0.1c-0.1,0-0.1,0.1-0.2,0.1s-0.2,0-0.2,0.1L577.4,271.5
		 M583.3,263.6l-1.9,0.4c-0.1,0-0.2,0-0.3,0.1s-0.2,0.1-0.3,0.1s-0.2,0.1-0.2,0.2c-0.1,0.1-0.1,0.1-0.2,0.2l-1,1.7l-0.2-0.4
		c-0.1-0.1-0.1-0.2-0.2-0.3s-0.2-0.1-0.3-0.1s-0.2,0-0.3,0s-0.2,0-0.3,0s-0.2,0.1-0.3,0.1s-0.2,0.1-0.2,0.2s-0.1,0.1-0.1,0.2
		s0,0.2,0.1,0.3l1,1.5l-0.9,1.5c0,0,0,0.1-0.1,0.1s0,0-0.1,0h-0.1c0,0-0.1,0-0.2,0l-1,0.2c-0.2,0-0.4,0.1-0.6,0.3s-0.3,0.2-0.3,0.4
		s-0.1,0.3-0.1,0.4s0.1,0.3,0.1,0.4s0.2,0.3,0.4,0.4s0.3,0.2,0.5,0.3c0.2,0.1,0.4,0.1,0.7,0.2s0.5,0,0.8,0c0,0,0.1,0,0.2,0
		s0.3-0.1,0.5-0.1s0.4-0.1,0.6-0.1s0.3-0.1,0.4-0.1c0.1,0,0.2,0,0.3-0.1s0.2-0.1,0.3-0.1s0.2-0.1,0.3-0.2s0.2-0.1,0.2-0.2l2.8-4.7
		c0,0,0,0,0-0.1s0,0,0.1,0c0,0,0,0,0.1,0s0.1,0,0.1,0s0,0,0.1,0s0.2,0,0.3-0.1s0.3-0.1,0.4-0.1s0.3-0.1,0.4-0.1
		c0.2,0,0.3-0.1,0.4-0.2s0.2-0.2,0.3-0.3s0.1-0.3,0.1-0.5s0-0.3-0.2-0.5c-0.1-0.2-0.3-0.3-0.4-0.4s-0.4-0.2-0.6-0.3
		s-0.4-0.1-0.6-0.1C583.7,263.6,583.5,263.6,583.3,263.6"/>
	<path fill="#FFFFFF" d="M584.6,268.1L584.6,268.1c-0.1,0-0.1,0-0.1,0.1s0,0-0.1,0s0,0,0,0.1l-0.9,1.6l-0.4-0.6l-0.1-0.1
		c0,0-0.1,0-0.1-0.1s-0.1,0-0.2,0c0,0-0.1,0-0.2,0h-0.1c0,0-0.1,0-0.1,0.1s0,0.1,0,0.1v0.1l0.8,1.3l0.1,0.1c0,0,0.1,0.1,0.2,0.1
		c0,0,0.1,0,0.2,0s0.1,0,0.2,0l1.7-0.4c0.1,0,0.2-0.1,0.2-0.1c0-0.1,0-0.1,0-0.2s-0.1-0.1-0.2-0.2s-0.2,0-0.3,0l-0.9,0.2l0.9-1.6
		c0-0.1,0-0.1,0-0.2s-0.1-0.1-0.1-0.1s-0.1-0.1-0.2-0.1C584.8,268.1,584.7,268.1,584.6,268.1"/>
	<path fill="#333333" d="M583.6,264.3l-1.7,0.4c-0.1,0-0.2,0-0.2,0.1s-0.1,0-0.2,0.1c0,0-0.1,0-0.1,0.1l-0.1,0.1l-2.8,4.8
		c0,0,0,0.1-0.1,0.1l-0.1,0.1c0,0-0.1,0.1-0.2,0.1s-0.1,0-0.2,0.1l-1.1,0.3c-0.1,0-0.2,0-0.3,0.1s-0.1,0.1-0.2,0.2
		c0,0.1-0.1,0.1-0.1,0.2s0,0.2,0.1,0.2c0,0.1,0.1,0.2,0.2,0.2s0.2,0.1,0.3,0.1s0.2,0.1,0.3,0.1s0.2,0,0.3,0l1.7-0.4
		c0.1,0,0.2,0,0.2-0.1s0.1,0,0.2-0.1s0.1-0.1,0.1-0.1l0.1-0.1l2.8-4.7c0-0.1,0.1-0.1,0.1-0.2s0.1-0.1,0.2-0.1s0.1-0.1,0.2-0.1
		s0.2,0,0.3-0.1l1-0.2c0.1,0,0.2-0.1,0.3-0.1s0.1-0.1,0.1-0.2s0-0.1,0-0.2s0-0.1-0.1-0.2s-0.1-0.1-0.2-0.2c-0.1,0-0.2-0.1-0.3-0.1
		s-0.2-0.1-0.3-0.1C583.8,264.2,583.7,264.2,583.6,264.3"/>
</g>
</svg>
