<?xml version="1.0" encoding="utf-8"?>
<!-- Generator: Adobe Illustrator 17.1.0, SVG Export Plug-In . SVG Version: 6.00 Build 0)  -->
<!DOCTYPE svg PUBLIC "-//W3C//DTD SVG 1.1//EN" "http://www.w3.org/Graphics/SVG/1.1/DTD/svg11.dtd">
<svg version="1.1" id="Layer_1" xmlns="http://www.w3.org/2000/svg" xmlns:xlink="http://www.w3.org/1999/xlink" x="0px" y="0px"
	 width="1000px" height="600px" viewBox="0 0 1000 600" enable-background="new 0 0 1000 600" xml:space="preserve">
<g id="base-ground" enable-background="new    ">
	<g>
		<polygon fill="#8F8D80" points="736,161 735.6,162.3 715.4,136.7 715.7,135.4 		"/>
	</g>
	<g>
		<polygon fill="#8F8C80" points="697.5,181 697.2,182.3 689.1,171.6 689.4,170.2 		"/>
	</g>
	<g>
		<polygon fill="#8E8C7F" points="438.3,194.4 438.2,195.8 432.6,185.8 432.7,184.4 		"/>
	</g>
	<g>
		<polygon fill="#A9A697" points="899.3,224.7 898.8,226.1 803.3,247.9 803.8,246.5 		"/>
	</g>
	<g>
		<polygon fill="#8F8D80" points="803.8,246.5 803.3,247.9 794.5,236.7 794.9,235.4 		"/>
	</g>
	<g>
		<polygon fill="#AAA798" points="794.9,235.4 794.5,236.7 751.7,246.4 752.1,245 		"/>
	</g>
	<g>
		<polygon fill="#8E8C7F" points="415.6,207.9 415.5,209.3 411.1,201 411.2,199.6 		"/>
	</g>
	<g>
		<polygon fill="#A8A596" points="776.9,277.7 776.5,279.1 751.9,284.9 752.3,283.5 		"/>
	</g>
	<g>
		<polygon fill="#8E8C7F" points="334.3,256.6 334.3,258.1 323,233.3 323,231.9 		"/>
	</g>
	<g>
		<polygon fill="#8E8C7F" points="103.4,248.2 103.7,249.6 102,243.9 101.7,242.4 		"/>
	</g>
	<g>
		<polygon fill="#A4A293" points="790.6,335.5 790.2,336.9 728.3,352.8 728.6,351.4 		"/>
	</g>
	<g>
		<polygon fill="#A7A495" points="511,347.4 510.9,348.8 494.6,351.8 494.8,350.4 		"/>
	</g>
	<g>
		<polygon fill="#959386" points="537.8,357 537.6,358.4 510.9,348.8 511,347.4 		"/>
	</g>
	<g>
		<polygon fill="#A29F91" points="494.8,350.4 494.6,351.8 489.2,362 489.4,360.5 		"/>
	</g>
	<g>
		<polygon fill="#8E8C7F" points="557.8,392.6 557.6,394.1 537.6,358.4 537.8,357 		"/>
	</g>
	<g>
		<polygon fill="#A7A495" points="489.4,360.5 489.2,362 372,390 372.1,388.6 		"/>
	</g>
	<g>
		<polygon fill="#8E8C7F" points="372.1,388.6 372,390 368.7,382.5 368.8,381 		"/>
	</g>
	<g>
		<polygon fill="#959385" points="784.8,433 784.3,434.4 776.6,455.2 777.1,453.8 		"/>
	</g>
	<g>
		<polygon fill="#A7A595" points="368.8,381 368.7,382.5 307.6,397 307.6,395.5 		"/>
	</g>
	<g>
		<polygon fill="#8E8C7F" points="588,488.1 587.7,489.5 538.3,398.9 538.5,397.5 		"/>
	</g>
	<g>
		<polygon fill="#9F9C8E" points="777.1,453.8 776.6,455.2 617.3,500.7 617.6,499.3 		"/>
	</g>
	<g>
		<polygon fill="#929083" points="617.6,499.3 617.3,500.7 587.7,489.5 588,488.1 		"/>
	</g>
	<g>
		<polygon fill="#8E8C7F" points="102.3,452.2 102.6,453.6 55.6,272.5 55.3,271.1 		"/>
	</g>
	<g>
		<polygon fill="#8F8D80" points="131.4,464 131.7,465.5 102.6,453.6 102.3,452.2 		"/>
	</g>
	<g>
		<polygon fill="#DED9C3" points="128.9,237.3 130.7,243 217.3,226.5 248.3,252.6 272.5,247.9 280.7,267.5 334.3,256.6 323,231.9 
			374.5,215.9 415.6,207.9 411.2,199.6 438.3,194.4 432.7,184.4 550.7,162 577.1,169.1 580,173.4 606.4,168.2 641.8,179.9 
			649.5,190.7 697.5,181 689.4,170.2 736,161 715.7,135.4 814.6,127.8 899.3,224.7 803.8,246.5 794.9,235.4 752.1,245 776.9,277.7 
			752.3,283.5 790.6,335.5 728.6,351.4 784.8,433 777.1,453.8 617.6,499.3 588,488.1 538.5,397.5 557.8,392.6 537.8,357 511,347.4 
			494.8,350.4 489.4,360.5 372.1,388.6 368.8,381 307.6,395.5 316.9,418.9 131.4,464 102.3,452.2 55.3,271.1 72.7,254 103.4,248.2 
			101.7,242.4 		"/>
	</g>
	<g>
		<polygon fill="#A6A394" points="316.9,418.9 316.9,420.3 131.7,465.5 131.4,464 		"/>
	</g>
</g>
<g>
	<g enable-background="new    ">
		<g>
			<polygon fill="#4C6624" points="738.5,151.8 736.5,159.9 716.3,134.4 718.2,126.2 			"/>
		</g>
		<g>
			<polygon fill="#4C6624" points="782.1,206.5 779.8,214.7 766.1,197.4 768.3,189.3 			"/>
		</g>
		<g>
			<polygon fill="#516B27" points="768.3,189.3 766.1,197.4 719,207.5 721,199.3 			"/>
		</g>
		<g>
			<polygon fill="#4B6524" points="721,199.3 719,207.5 690.3,169.2 692.1,161 			"/>
		</g>
		<g>
			<polygon fill="#4C6624" points="770.1,221.4 767.8,229.7 759.7,219.1 761.9,210.9 			"/>
		</g>
		<g>
			<polygon fill="#648B26" points="719.4,199.6 717.4,207.9 668.9,218.2 670.7,209.9 			"/>
		</g>
		<g>
			<polygon fill="#5B8022" points="670.7,209.9 668.9,218.2 649,190 650.6,181.8 			"/>
		</g>
		<g>
			<polygon fill="#638926" points="767.6,220.6 765.3,228.9 744.1,233.6 746.2,225.4 			"/>
		</g>
		<g>
			<polygon fill="#5D8223" points="746.2,225.4 744.1,233.6 736.9,224.1 739.1,215.9 			"/>
		</g>
		<g>
			<polygon fill="#4F6926" points="896.9,213.9 894,222 802.1,243 804.6,234.8 			"/>
		</g>
		<g>
			<polygon fill="#4C6624" points="804.6,234.8 802.1,243 793.3,231.9 795.8,223.7 			"/>
		</g>
		<g>
			<polygon fill="#4F6A26" points="795.8,223.7 793.3,231.9 761.6,239 763.9,230.8 			"/>
		</g>
		<g>
			<polygon fill="#4B6524" points="763.9,230.8 761.6,239 756.4,232.2 758.6,224 			"/>
		</g>
		<g>
			<polygon fill="#9FA0A2" points="762.3,231.1 760,239.4 714.3,249.7 716.4,241.4 			"/>
		</g>
		<g>
			<polygon fill="#E1E1E1" points="737.5,216.2 745.5,226.9 757.1,224.3 762.3,231.1 716.4,241.4 707.9,222.6 			"/>
		</g>
		<g>
			<polygon fill="#919294" points="716.4,241.4 714.3,249.7 705.9,230.9 707.9,222.6 			"/>
		</g>
		<g>
			<polygon fill="#628725" points="764.3,253.1 762,261.3 717.2,271.7 719.3,263.4 			"/>
		</g>
		<g>
			<polygon fill="#55791F" points="719.3,263.4 717.2,271.7 714.7,251 716.8,242.7 			"/>
		</g>
	</g>
	<g enable-background="new    ">
		<g>
			<polygon fill="#678D27" points="590.7,175.5 589.4,183.9 554.8,190.8 555.9,182.4 			"/>
		</g>
		<g>
			<polygon fill="#597D20" points="555.9,182.4 554.8,190.8 547.4,179.1 548.5,170.8 			"/>
		</g>
		<g>
			<polygon fill="#5A7E21" points="602.6,193.4 601.3,201.7 589.4,183.9 590.7,175.5 			"/>
		</g>
		<g>
			<polygon fill="#668C27" points="600.7,193.8 599.4,202.1 573.8,207.3 575.1,198.9 			"/>
		</g>
		<g>
			<polygon fill="#597D21" points="575.1,198.9 573.8,207.3 562.9,190.4 564.1,182 			"/>
		</g>
		<g>
			<polygon fill="#5A7E21" points="611.8,207 610.4,215.4 601.3,201.7 602.6,193.4 			"/>
		</g>
		<g>
			<polygon fill="#658C27" points="609.1,206.3 607.7,214.6 582,220 583.3,211.6 			"/>
		</g>
		<g>
			<polygon fill="#597D21" points="583.3,211.6 582,220 574.6,208.5 575.8,200.1 			"/>
		</g>
		<g>
			<polygon fill="#648B26" points="669,210.2 667.3,218.5 609.1,230.9 610.5,222.6 			"/>
		</g>
		<g>
			<polygon fill="#597E21" points="610.5,222.6 609.1,230.9 600.2,217.5 601.6,209.2 			"/>
		</g>
		<g>
			<polygon fill="#648A26" points="602.1,228.4 600.7,236.8 584.7,240.2 586,231.8 			"/>
		</g>
		<g>
			<polygon fill="#597D20" points="586,231.8 584.7,240.2 577.5,228.9 578.7,220.5 			"/>
		</g>
		<g>
			<polygon fill="#55781E" points="678.1,245.2 676.3,253.5 675.8,254.4 677.7,246.1 			"/>
		</g>
		<g>
			<polygon fill="#5A7E21" points="651.3,252 649.6,260.3 638.8,244.3 640.4,235.9 			"/>
		</g>
		<g>
			<polygon fill="#638925" points="677.7,246.1 675.8,254.4 649.6,260.3 651.3,252 			"/>
		</g>
		<g>
			<polygon fill="#638925" points="649.6,252.4 647.9,260.7 617.3,267.6 618.8,259.2 			"/>
		</g>
		<g>
			<polygon fill="#597D21" points="618.8,259.2 617.3,267.6 606.7,251.3 608.2,242.9 			"/>
		</g>
		<g>
			<polygon fill="#638925" points="617.1,259.6 615.6,268 609.4,269.3 610.9,260.9 			"/>
		</g>
		<g>
			<polygon fill="#618725" points="774.5,266.6 772.1,274.8 714.3,288.5 716.4,280.1 			"/>
		</g>
		<g>
			<polygon fill="#54771E" points="716.4,280.1 714.3,288.5 717.1,273.2 719.2,264.9 			"/>
		</g>
		<g>
			<polygon fill="#638925" points="610.9,260.9 609.4,269.3 591.3,273.4 592.7,265 			"/>
		</g>
		<g>
			<polygon fill="#587C20" points="592.7,265 591.3,273.4 588.8,269.3 590.1,260.9 			"/>
		</g>
		<g>
			<polygon fill="#597D20" points="617.4,271 615.9,279.4 610.1,270.4 611.6,262 			"/>
		</g>
		<g>
			<polygon fill="#628825" points="625.2,269.2 623.6,277.6 615.9,279.4 617.4,271 			"/>
		</g>
		<g>
			<polygon fill="#597D21" points="631,278.1 629.4,286.5 623.6,277.6 625.2,269.2 			"/>
		</g>
		<g>
			<polygon fill="#628825" points="615.7,271.4 614.1,279.8 597.7,283.5 599.1,275.1 			"/>
		</g>
		<g>
			<polygon fill="#587C20" points="599.1,275.1 597.7,283.5 592.1,274.6 593.5,266.2 			"/>
		</g>
		<g>
			<polygon fill="#628825" points="628.4,277.2 626.8,285.6 602.5,291.2 604,282.8 			"/>
		</g>
		<g>
			<polygon fill="#587C20" points="604,282.8 602.5,291.2 598.5,284.8 599.9,276.4 			"/>
		</g>
		<g>
			<polygon fill="#608624" points="764.9,292.6 762.5,300.9 722.5,310.6 724.7,302.3 			"/>
		</g>
		<g>
			<polygon fill="#638A26" points="724.7,302.3 722.5,310.6 706.9,304.2 709,295.9 			"/>
		</g>
		<g>
			<polygon fill="#597D20" points="632.4,294.1 630.7,302.5 621.6,288.3 623.2,279.9 			"/>
		</g>
		<g>
			<polygon fill="#618725" points="629.8,293.2 628.1,301.6 611.5,305.5 613,297.1 			"/>
		</g>
		<g>
			<polygon fill="#587C20" points="613,297.1 611.5,305.5 603.3,292.5 604.8,284.1 			"/>
		</g>
		<g>
			<polygon fill="#55781E" points="677.1,247.4 675.2,255.8 647.3,314.9 649,306.5 			"/>
		</g>
		<g>
			<polygon fill="#5F8524" points="734.2,315.6 731.9,323.9 719.9,326.9 722.1,318.6 			"/>
		</g>
		<g>
			<polygon fill="#628825" points="722.1,318.6 719.9,326.9 697.5,316.3 699.5,308 			"/>
		</g>
		<g>
			<polygon fill="#618624" points="649,306.5 647.3,314.9 621.3,321.1 622.9,312.7 			"/>
		</g>
		<g>
			<polygon fill="#587C20" points="622.9,312.7 621.3,321.1 612.3,306.8 613.9,298.4 			"/>
		</g>
		<g>
			<polygon fill="#5F8423" points="788.1,324.1 785.5,332.4 745,342.6 747.4,334.3 			"/>
		</g>
		<g>
			<polygon fill="#5B7F22" points="747.4,334.3 745,342.6 731.9,323.9 734.2,315.6 			"/>
		</g>
		<g>
			<polygon fill="#5F8423" points="745.7,335 743.4,343.3 699.7,354.4 701.8,346 			"/>
		</g>
		<g>
			<polygon fill="#5A7E21" points="701.8,346 699.7,354.4 682.8,328.9 684.7,320.5 			"/>
		</g>
	</g>
	<g enable-background="new    ">
		<g>
			<polygon fill="#5F8423" points="699.9,346.3 697.8,354.6 661.2,363.9 663.1,355.5 			"/>
		</g>
		<g>
			<polygon fill="#55781F" points="663.1,355.5 661.2,363.9 657.7,342.1 659.5,333.7 			"/>
		</g>
	</g>
	<g enable-background="new    ">
		<g enable-background="new    ">
			<g>
				<g>
					<g>
						<g>
							<g>
								<defs>
									<path id="SVGID_1_" d="M638.3,342.3l-1.8,8.4c-0.1,0.6-0.4,1.2-0.7,1.8s-0.8,1.1-1.3,1.5s-1.1,0.9-1.8,1.2
										c-0.7,0.4-1.5,0.6-2.3,0.9c-1.4,0.3-2.8,0.5-4.3,0.4c-1.4-0.1-2.9-0.4-4.2-0.9s-2.6-1.1-3.7-1.9c-1.1-0.8-2-1.7-2.6-2.8
										c-0.2-0.4-0.4-0.8-0.6-1.2c-0.2-0.4-0.3-0.8-0.3-1.2c-0.1-0.4-0.1-0.8-0.1-1.1c0-0.4,0-0.7,0.1-1.1l1.6-8.4
										c-0.1,0.4-0.1,0.7-0.1,1.1s0,0.8,0.1,1.1s0.2,0.8,0.3,1.2s0.3,0.8,0.6,1.2c0.7,1.1,1.6,2,2.6,2.8s2.3,1.5,3.7,1.9
										c1.3,0.5,2.8,0.8,4.2,0.9c1.5,0.1,2.9,0,4.3-0.4c0.9-0.2,1.7-0.5,2.3-0.9c0.7-0.4,1.3-0.8,1.8-1.2s1-1,1.3-1.5
										C638,343.5,638.2,342.9,638.3,342.3z"/>
								</defs>
								<clipPath id="SVGID_2_">
									<use xlink:href="#SVGID_1_"  overflow="visible"/>
								</clipPath>
								<g clip-path="url(#SVGID_2_)" enable-background="new    ">
									<path fill="#577B1F" d="M638.3,342.3l-1.8,8.4c0,0.2-0.1,0.4-0.2,0.6s-0.1,0.4-0.2,0.6c-0.1,0.2-0.2,0.4-0.3,0.5
										c-0.1,0.2-0.2,0.4-0.3,0.5l1.8-8.4c0.1-0.2,0.2-0.3,0.3-0.5s0.2-0.4,0.3-0.5c0.1-0.2,0.2-0.4,0.2-0.5
										C638.3,342.6,638.3,342.4,638.3,342.3"/>
									<path fill="#597E21" d="M637.4,344.4l-1.8,8.4c-0.1,0.1-0.2,0.3-0.3,0.4s-0.2,0.3-0.4,0.4s-0.3,0.3-0.4,0.4
										c-0.1,0.1-0.3,0.3-0.5,0.4l1.7-8.4c0.2-0.1,0.3-0.2,0.5-0.4c0.1-0.1,0.3-0.3,0.4-0.4c0.1-0.1,0.3-0.3,0.4-0.4
										C637.2,344.7,637.3,344.6,637.4,344.4"/>
									<path fill="#5C8122" d="M635.8,346l-1.7,8.4c-0.2,0.1-0.3,0.2-0.5,0.3s-0.3,0.2-0.5,0.3s-0.4,0.2-0.5,0.3
										c-0.2,0.1-0.4,0.2-0.6,0.3l1.7-8.4c0.2-0.1,0.4-0.2,0.6-0.3s0.4-0.2,0.5-0.3s0.3-0.2,0.5-0.3S635.7,346.1,635.8,346"/>
									<path fill="#5F8424" d="M633.7,347.2l-1.7,8.4c-0.1,0-0.2,0.1-0.4,0.1c-0.1,0-0.3,0.1-0.4,0.1c-0.1,0-0.3,0.1-0.4,0.1
										s-0.3,0.1-0.4,0.1c-0.2,0.1-0.5,0.1-0.7,0.2s-0.5,0.1-0.8,0.1s-0.5,0.1-0.8,0.1s-0.5,0-0.8,0l1.7-8.4c0.3,0,0.5,0,0.8,0
										s0.5,0,0.8-0.1c0.3,0,0.5-0.1,0.8-0.1s0.5-0.1,0.7-0.2c0.1,0,0.3-0.1,0.4-0.1c0.1,0,0.3-0.1,0.4-0.1s0.3-0.1,0.4-0.1
										C633.5,347.3,633.6,347.2,633.7,347.2"/>
									<path fill="#628725" d="M629.2,348l-1.7,8.4c-0.2,0-0.3,0-0.5,0s-0.3,0-0.5,0s-0.3,0-0.5,0s-0.3,0-0.5,0l1.7-8.4
										c0.2,0,0.3,0,0.5,0s0.3,0,0.5,0s0.3,0,0.5,0C628.8,348,629,348,629.2,348"/>
									<path fill="#5F8424" d="M627.1,348l-1.7,8.4c-0.4,0-0.8-0.1-1.2-0.2s-0.8-0.2-1.2-0.3s-0.8-0.2-1.2-0.4s-0.8-0.3-1.1-0.5
										l1.7-8.4c0.4,0.2,0.7,0.3,1.1,0.5s0.8,0.3,1.2,0.4s0.8,0.2,1.2,0.3C626.3,347.8,626.7,347.9,627.1,348"/>
									<path fill="#5C8122" d="M622.4,346.6l-1.7,8.4c-0.2-0.1-0.4-0.2-0.6-0.3s-0.4-0.2-0.6-0.3c-0.2-0.1-0.4-0.2-0.6-0.4
										s-0.4-0.3-0.5-0.4l1.7-8.4c0.2,0.1,0.4,0.3,0.6,0.4c0.2,0.1,0.4,0.3,0.6,0.4c0.2,0.1,0.4,0.2,0.6,0.3
										C622,346.4,622.2,346.5,622.4,346.6"/>
									<path fill="#597E21" d="M620,345.3l-1.7,8.4c-0.2-0.1-0.3-0.3-0.5-0.4s-0.3-0.3-0.5-0.4s-0.3-0.3-0.5-0.5s-0.3-0.3-0.4-0.5
										l1.6-8.4c0.1,0.2,0.3,0.3,0.4,0.5c0.2,0.1,0.3,0.3,0.5,0.5c0.2,0.1,0.3,0.3,0.5,0.4C619.7,345,619.9,345.1,620,345.3"/>
									<path fill="#577B1F" d="M618.2,343.5l-1.6,8.4c-0.1-0.1-0.2-0.2-0.2-0.3c-0.1-0.1-0.1-0.2-0.2-0.3
										c-0.1-0.1-0.1-0.2-0.2-0.3c-0.1-0.1-0.1-0.2-0.2-0.3c-0.2-0.4-0.4-0.8-0.6-1.2c-0.2-0.4-0.3-0.8-0.3-1.2
										c-0.1-0.4-0.1-0.8-0.1-1.1c0-0.4,0-0.7,0.1-1.1l1.6-8.4c-0.1,0.4-0.1,0.7-0.1,1.1s0,0.8,0.1,1.1s0.2,0.8,0.3,1.2
										s0.3,0.8,0.6,1.2c0.1,0.1,0.1,0.2,0.2,0.3s0.1,0.2,0.2,0.3c0.1,0.1,0.1,0.2,0.2,0.3C618,343.3,618.1,343.4,618.2,343.5"/>
								</g>
							</g>
						</g>
					</g>
				</g>
			</g>
		</g>
	</g>
	<g enable-background="new    ">
		<g>
			<polygon fill="#668C27" points="523.6,209.4 522.6,217.8 496,223.3 496.8,214.8 			"/>
		</g>
		<g>
			<polygon fill="#567A1F" points="455.1,210.1 454.5,218.6 435.2,183.6 435.6,175.1 			"/>
		</g>
		<g>
			<polygon fill="#668D27" points="464.8,208.1 464.1,216.6 454.5,218.6 455.1,210.1 			"/>
		</g>
		<g>
			<polygon fill="#55781F" points="522.6,210.9 521.6,219.3 518.7,230.6 519.6,222.1 			"/>
		</g>
		<g>
			<polygon fill="#567A1F" points="471.1,219.4 470.5,227.8 464.1,216.6 464.8,208.1 			"/>
		</g>
		<g>
			<polygon fill="#577B20" points="508.4,231.2 507.5,239.6 498.4,224.1 499.3,215.6 			"/>
		</g>
		<g>
			<polygon fill="#5D8223" points="519.6,222.1 518.7,230.6 507.5,239.6 508.4,231.2 			"/>
		</g>
		<g>
			<polygon fill="#658B26" points="507.3,232.7 506.4,241.2 471.2,248.6 471.9,240.1 			"/>
		</g>
		<g>
			<polygon fill="#567A1F" points="471.9,240.1 471.2,248.6 460.8,229.8 461.4,221.3 			"/>
		</g>
	</g>
	<g enable-background="new    ">
		<g>
			<polygon fill="#638926" points="522.6,265.7 521.6,274.2 508.2,277.1 509.1,268.6 			"/>
		</g>
		<g>
			<polygon fill="#577A1F" points="509.1,268.6 508.2,277.1 502.8,267.6 503.7,259.1 			"/>
		</g>
	</g>
	<g enable-background="new    ">
		<g>
			<polygon fill="#56791F" points="418.6,198.5 418.2,207 413.8,198.7 414.1,190.2 			"/>
		</g>
		<g>
			<polygon fill="#668D27" points="452.7,209.2 452.1,217.7 385.4,231.1 385.6,222.6 			"/>
		</g>
		<g>
			<polygon fill="#55781F" points="385.6,222.6 385.4,231.1 377.4,215 377.5,206.5 			"/>
		</g>
		<g>
			<polygon fill="#55791F" points="414.7,252 414.4,260.6 398.7,229.8 399,221.3 			"/>
		</g>
		<g>
			<polygon fill="#658B26" points="461.1,242.3 460.5,250.9 414.4,260.6 414.7,252 			"/>
		</g>
		<g>
			<polygon fill="#567A1F" points="475.5,276 474.8,284.5 469.5,274.8 470.2,266.3 			"/>
		</g>
		<g>
			<polygon fill="#638926" points="507.3,269 506.4,277.5 474.8,284.5 475.5,276 			"/>
		</g>
		<g>
			<polygon fill="#5A7E21" points="412.9,252.4 412.5,261 400.4,277.6 400.7,269 			"/>
		</g>
		<g>
			<polygon fill="#56791F" points="459.9,279.4 459.2,287.9 454,278.2 454.7,269.7 			"/>
		</g>
		<g>
			<polygon fill="#638926" points="473.7,276.4 473,284.9 459.2,287.9 459.9,279.4 			"/>
		</g>
		<g>
			<polygon fill="#55791F" points="444.2,282.8 443.7,291.3 438.6,281.6 439.1,273 			"/>
		</g>
		<g>
			<polygon fill="#638926" points="458.1,279.7 457.5,288.3 443.7,291.3 444.2,282.8 			"/>
		</g>
		<g>
			<polygon fill="#648B26" points="400.7,269 400.4,277.6 352.3,287.9 352.3,279.3 			"/>
		</g>
		<g>
			<polygon fill="#54781E" points="352.3,279.3 352.3,287.9 326.2,231 326.1,222.4 			"/>
		</g>
		<g>
			<polygon fill="#567A1F" points="512.7,334.8 511.7,343.3 493,309.1 493.9,300.6 			"/>
		</g>
		<g>
			<polygon fill="#608524" points="539.4,344.4 538.2,352.9 511.7,343.3 512.7,334.8 			"/>
		</g>
		<g>
			<polygon fill="#486122" points="669.9,372.1 667.9,380.5 658.8,366.1 660.7,357.8 			"/>
		</g>
		<g>
			<polygon fill="#608524" points="595.2,347 593.7,355.5 546.2,367.2 547.4,358.7 			"/>
		</g>
		<g>
			<polygon fill="#567A1F" points="547.4,358.7 546.2,367.2 538.2,352.9 539.4,344.4 			"/>
		</g>
		<g>
			<polygon fill="#567A1F" points="560.2,381.4 558.9,389.8 547,368.6 548.2,360.1 			"/>
		</g>
		<g>
			<polygon fill="#5F8423" points="617.8,366.9 616.2,375.3 558.9,389.8 560.2,381.4 			"/>
		</g>
		<g>
			<polygon fill="#445E1F" points="782.2,421.1 779.4,429.3 771.7,450 774.4,441.8 			"/>
		</g>
		<g>
			<polygon fill="#465F20" points="589.6,474.7 588,483.1 540.5,396.2 541.7,387.7 			"/>
		</g>
		<g>
			<polygon fill="#496323" points="774.4,441.8 771.7,450 617.3,494.2 619.2,485.9 			"/>
		</g>
		<g>
			<polygon fill="#4B6523" points="619.2,485.9 617.3,494.2 588,483.1 589.6,474.7 			"/>
		</g>
	</g>
	<g enable-background="new    ">
		<g>
			<polygon fill="#525454" points="106.8,238.6 108.3,247.4 106.6,241.7 105.1,232.9 			"/>
		</g>
		<g>
			<polygon fill="#616262" points="279.5,257.5 279.9,266.2 257.6,270.7 257,262 			"/>
		</g>
		<g>
			<polygon fill="#54781E" points="330,284 330.2,292.6 315.9,260.2 315.6,251.5 			"/>
		</g>
		<g>
			<polygon fill="#648B26" points="350.4,279.7 350.4,288.3 330.2,292.6 330,284 			"/>
		</g>
		<g>
			<polygon fill="#658B26" points="325.2,277.8 325.3,286.4 293.3,293.2 292.9,284.6 			"/>
		</g>
		<g>
			<polygon fill="#54771E" points="292.9,284.6 293.3,293.2 282.4,267 282,258.4 			"/>
		</g>
		<g>
			<polygon fill="#8B8C8E" points="272.8,296.1 273.3,304.8 260.1,271.6 259.5,262.9 			"/>
		</g>
		<g>
			<polygon fill="#606161" points="262,274.4 262.5,283.1 236.5,288.6 235.8,279.8 			"/>
		</g>
		<g>
			<polygon fill="#A1A2A4" points="293.8,291.7 294.1,300.4 273.3,304.8 272.8,296.1 			"/>
		</g>
		<g>
			<polygon fill="#E1E1E1" points="280,258.8 293.8,291.7 272.8,296.1 259.5,262.9 			"/>
		</g>
		<g>
			<polygon fill="#55791F" points="447.6,332.9 447,341.4 437.1,321.9 437.7,313.3 			"/>
		</g>
		<g>
			<polygon fill="#618725" points="445,331.9 444.4,340.5 423.1,345.4 423.6,336.9 			"/>
		</g>
		<g>
			<polygon fill="#577B20" points="493.1,339.5 492.2,348 486.4,357.4 487.2,348.8 			"/>
		</g>
		<g>
			<polygon fill="#608624" points="487.2,348.8 486.4,357.4 436.9,369.2 437.5,360.6 			"/>
		</g>
		<g>
			<polygon fill="#55781E" points="437.5,360.6 436.9,369.2 425.8,346.4 426.2,337.8 			"/>
		</g>
		<g>
			<polygon fill="#606161" points="238.3,286.5 239,295.3 76.1,329.4 74.3,320.6 			"/>
		</g>
		<g>
			<polygon fill="#525454" points="74.3,320.6 76.1,329.4 60.6,270.3 58.8,261.4 			"/>
		</g>
		<g>
			<polygon fill="#838383" points="128.3,228.5 130.1,234.2 218.6,217.4 249.6,243.5 271.8,239.1 279.5,257.5 257,262 262,274.4 
				235.8,279.8 238.3,286.5 74.3,320.6 58.8,261.4 76.1,244.4 106.8,238.6 105.1,232.9 			"/>
		</g>
		<g>
			<polygon fill="#54781E" points="374.2,375.7 374,384.3 348.4,326.6 348.4,318 			"/>
		</g>
		<g>
			<polygon fill="#608624" points="435.5,361.1 435,369.7 374,384.3 374.2,375.7 			"/>
		</g>
		<g>
			<polygon fill="#4E6826" points="368.8,368.7 368.7,377.3 306,392.3 305.7,383.6 			"/>
		</g>
		<g>
			<polygon fill="#445E1F" points="105.3,438.7 107,447.5 77,333 75.3,324.1 			"/>
		</g>
		<g>
			<polygon fill="#476121" points="134.4,450.5 135.8,459.2 107,447.5 105.3,438.7 			"/>
		</g>
		<g>
			<polygon fill="#4D6825" points="315,406.8 315.2,415.4 135.8,459.2 134.4,450.5 			"/>
		</g>
	</g>
</g>
<g id="landmarks-ground">
	<polygon fill="#91BF39" points="698.6,172 719.4,199.6 670.7,209.9 650.6,181.8 	"/>
	<polygon fill="#91BF39" points="760.3,211.3 767.6,220.6 746.2,225.4 739.1,215.9 	"/>
	<polygon id="sears" fill="#72903A" points="718.2,126.2 814.2,119.3 896.9,213.9 804.6,234.8 795.8,223.7 763.9,230.8 758.6,224 
		770.1,221.4 761.9,210.9 782.1,206.5 768.3,189.3 721,199.3 692.1,161 738.5,151.8 	"/>
	<polygon fill="#91BF39" points="750.7,235.1 764.3,253.1 719.3,263.4 716.8,242.7 	"/>
	<polygon fill="#91BF39" points="589.5,177 600.7,193.8 575.1,198.9 564.1,182 	"/>
	<polygon fill="#91BF39" points="601.5,194.9 609.1,206.3 583.3,211.6 575.8,200.1 	"/>
	<polygon id="sportchek" fill="#91BF39" points="606,159.6 641.3,171.3 669,210.2 610.5,222.6 601.6,209.2 611.8,207 602.6,193.4 
		590.7,175.5 555.9,182.4 548.5,170.8 	"/>
	<polygon fill="#91BF39" points="594.7,217.2 602.1,228.4 586,231.8 578.7,220.5 	"/>
	<polygon fill="#91BF39" points="667.5,230 678.1,245.2 677.7,246.1 651.3,252 640.4,235.9 	"/>
	<polygon fill="#91BF39" points="638.7,236.3 649.6,252.4 618.8,259.2 608.2,242.9 	"/>
	<polygon fill="#91BF39" points="765.2,254.3 774.5,266.6 716.4,280.1 719.2,264.9 	"/>
	<polygon fill="#91BF39" points="606.5,243.3 617.1,259.6 610.9,260.9 592.7,265 590.1,260.9 599.5,244.8 	"/>
	<polygon fill="#91BF39" points="610,262.6 615.7,271.4 599.1,275.1 593.5,266.2 	"/>
	<polygon fill="#91BF39" points="624.3,270.9 628.4,277.2 604,282.8 599.9,276.4 	"/>
	<polygon fill="#91BF39" points="750.9,273.6 764.9,292.6 724.7,302.3 709,295.9 715.8,281.8 	"/>
	<polygon fill="#91BF39" points="621.4,280.3 629.8,293.2 613,297.1 604.8,284.1 	"/>
	<polygon id="starbucks" fill="#91BF39" points="677.1,247.4 649,306.5 622.9,312.7 613.9,298.4 632.4,294.1 623.2,279.9 631,278.1 
		625.2,269.2 617.4,271 611.6,262 617.8,260.6 622.9,259.5 650.9,253.2 652,253 	"/>
	<polygon id="sephora" fill="#91BF39" points="708,297.4 723.9,304 765.8,293.9 788.1,324.1 747.4,334.3 734.2,315.6 722.1,318.6 
		699.5,308 	"/>
	<polygon fill="#91BF39" points="698.3,309.2 721.9,320.3 733.3,317.4 745.7,335 701.8,346 684.7,320.5 	"/>
	<polygon fill="#91BF39" points="683.4,321.6 699.9,346.3 663.1,355.5 659.5,333.7 	"/>
	<path fill="#91BF39" d="M622.6,332.3c1.4-0.3,2.8-0.4,4.3-0.3s2.8,0.4,4.2,0.9c1.3,0.5,2.6,1.1,3.7,1.9s2,1.7,2.7,2.8
		c0.7,1,1,2.1,1.1,3.2c0.1,1-0.1,2-0.6,3s-1.2,1.8-2.1,2.4c-1,0.7-2.1,1.2-3.5,1.6c-1.4,0.3-2.8,0.5-4.3,0.4s-2.9-0.4-4.2-0.9
		s-2.6-1.1-3.7-1.9c-1.1-0.8-2-1.7-2.6-2.8c-0.7-1.1-1-2.1-1-3.2c-0.1-1,0.2-2,0.7-3c0.5-0.9,1.2-1.7,2.2-2.4
		C620.1,333.2,621.3,332.7,622.6,332.3z"/>
	<polygon fill="#91BF39" points="522.6,210.9 519.6,222.1 508.4,231.2 499.3,215.6 	"/>
	<polygon id="zara" fill="#91BF39" points="495.8,163.7 523.6,209.4 496.8,214.8 507.3,232.7 471.9,240.1 461.4,221.3 471.1,219.4 
		464.8,208.1 455.1,210.1 435.6,175.1 	"/>
	<polygon fill="#91BF39" points="517.1,256.3 522.6,265.7 509.1,268.6 503.7,259.1 	"/>
	<polygon fill="#91BF39" points="439.4,185.4 452.7,209.2 385.6,222.6 377.5,206.5 418.6,198.5 414.1,190.2 	"/>
	<polygon fill="#91BF39" points="444.6,212.2 461.1,242.3 414.7,252 399,221.3 	"/>
	<polygon fill="#91BF39" points="501.9,259.5 507.3,269 475.5,276 470.2,266.3 	"/>
	<polygon fill="#91BF39" points="468.4,266.7 473.7,276.4 459.9,279.4 454.7,269.7 	"/>
	<polygon fill="#91BF39" points="453,270 458.1,279.7 444.2,282.8 439.1,273 	"/>
	<polygon id="oldnavy" fill="#91BF39" points="375.7,206.8 384.4,224.1 397.1,221.6 412.9,252.4 400.7,269 352.3,279.3 326.1,222.4 
			"/>
	<polygon id="hnm" fill="#91BF39" points="540.2,290.2 544.6,297.8 563.1,293.6 595.2,347 547.4,358.7 539.4,344.4 512.7,334.8 
		493.9,300.6 512.3,296.5 	"/>
	<polygon fill="#91BF39" points="596,348.4 617.8,366.9 560.2,381.4 548.2,360.1 	"/>
	<polygon id="jcpenney" fill="#72903A" points="727,341.1 782.2,421.1 774.4,441.8 619.2,485.9 589.6,474.7 541.7,387.7 
		622.9,367.3 631.8,381.9 669.9,372.1 660.7,357.8 	"/>
	<polygon fill="#91BF39" points="335.6,247.5 350.4,279.7 330,284 315.6,251.5 	"/>
	<polygon fill="#91BF39" points="313.7,251.9 325.2,277.8 292.9,284.6 282,258.4 	"/>
	<polygon id="walgreens" fill="#91BF39" points="474.6,305 493.1,339.5 487.2,348.8 437.5,360.6 426.2,337.8 447.6,332.9 
		437.7,313.3 	"/>
	<polygon id="belk" fill="#91BF39" points="407.9,304.8 435.8,313.7 445,331.9 423.6,336.9 435.5,361.1 374.2,375.7 348.4,318 	"/>
	<polygon id="macys" fill="#72903A" points="261,285.4 279.9,333.1 346.4,318.4 368.8,368.7 305.7,383.6 315,406.8 134.4,450.5 
		105.3,438.7 75.3,324.1 	"/>
</g>
<g>
	<g>
		<g>
			<g>
				<path fill="#333333" d="M434.3,205.2h-0.1h-0.1l-0.1-0.1V205l-0.1-1.6c0-0.1,0-0.1,0-0.2c0-0.1,0.1-0.1,0.1-0.2s0.1-0.1,0.2-0.2
					c0.1-0.1,0.2-0.1,0.3-0.1l0.5-0.1l0.5-0.1c0.1,0,0.3,0,0.4,0s0.2,0,0.4,0.1c0.1,0,0.2,0.1,0.3,0.1s0.1,0.1,0.2,0.1l1.5,1.3
					l0.1,0.1v0.1c0,0,0,0.1-0.1,0.1s-0.1,0-0.1,0.1h-0.1H438h-0.1c0,0-0.1,0-0.1-0.1l-1.3-1.2h-0.2l2.3,2.2l-1,0.2l1,1.8v0.1v0.1
					c0,0,0,0.1-0.1,0.1s-0.1,0-0.1,0h-0.1h-0.1c0,0-0.1,0-0.1-0.1l-0.1-0.1l-1-1.8h-0.2l1,1.8v0.1v0.1l-0.1,0.1h-0.1h-0.1h-0.1
					c0,0-0.1,0-0.1-0.1l-0.1-0.1l-1-1.8l-1,0.2l-0.3-2.6h-0.2l0.1,1.5v0.1v0.1c0,0,0,0-0.1,0.1C434.3,205.2,434.3,205.2,434.3,205.2
					 M441.1,204.1H441h-0.1c0,0-0.1,0-0.1-0.1l-0.1-0.1l-0.9-1.6c0-0.1-0.1-0.2-0.1-0.3s0-0.2,0.1-0.3s0.1-0.1,0.2-0.2
					c0.1-0.1,0.2-0.1,0.4-0.1l1.6-0.3c0.1,0,0.3,0,0.4,0s0.3,0.1,0.4,0.1s0.2,0.1,0.3,0.2c0.1,0.1,0.2,0.1,0.2,0.2l0.9,1.6v0.1v0.1
					c0,0,0,0.1-0.1,0.1H444h-0.1h-0.1c0,0-0.1,0-0.1-0.1s-0.1-0.1-0.1-0.1l-0.8-1.4h-0.2l2.2,4c0,0.1,0,0.1,0,0.1v0.1l-0.1,0.1
					c0,0-0.1,0-0.1,0.1c-0.1,0-0.1,0-0.2,0s-0.1,0-0.2,0s-0.1,0-0.1-0.1s-0.1-0.1-0.1-0.1l-1.3-2.3h-0.2l1.3,2.3c0,0.1,0,0.1,0,0.1
					v0.1l-0.1,0.1c0,0-0.1,0-0.1,0.1c-0.1,0-0.1,0-0.2,0s-0.1,0-0.2,0c0,0-0.1,0-0.1-0.1l-0.1-0.1l-2.2-4h-0.2l0.8,1.4v0.1v0.1
					c0,0,0,0.1-0.1,0.1C441.2,204.1,441.1,204.1,441.1,204.1 M440.4,207.1l-3.4-6.2l0.9-0.2l3.4,6.2L440.4,207.1 M434.8,202.5
					c-0.1,0-0.2,0-0.3,0c-0.1,0-0.2,0-0.3-0.1s-0.2-0.1-0.3-0.1s-0.1-0.1-0.2-0.2s0-0.1,0-0.2c0-0.1,0-0.1,0.1-0.2s0.1-0.1,0.2-0.2
					s0.2-0.1,0.3-0.1s0.2,0,0.3,0s0.2,0,0.3,0.1s0.2,0.1,0.3,0.1s0.1,0.1,0.2,0.2s0,0.1,0,0.2c0,0.1,0,0.1-0.1,0.2
					c0,0.1-0.1,0.1-0.2,0.2S434.9,202.4,434.8,202.5 M441.1,201.2c-0.1,0-0.2,0-0.3,0s-0.2,0-0.3-0.1s-0.2-0.1-0.3-0.1
					s-0.1-0.1-0.2-0.2s0-0.1,0-0.2c0-0.1,0-0.1,0.1-0.2c0-0.1,0.1-0.1,0.2-0.2c0.1,0,0.2-0.1,0.3-0.1c0.1,0,0.2,0,0.3,0
					c0.1,0,0.2,0,0.3,0.1s0.2,0.1,0.3,0.1s0.1,0.1,0.2,0.2s0,0.1,0,0.2c0,0.1,0,0.1-0.1,0.2s-0.1,0.1-0.2,0.2
					S441.2,201.2,441.1,201.2 M441.9,198.3l-10.9,2.1c-0.3,0.1-0.5,0.1-0.6,0.2c-0.2,0.1-0.3,0.2-0.4,0.3s-0.1,0.2-0.1,0.4
					c0,0.1,0,0.3,0.1,0.5l4,7.3c0.1,0.2,0.2,0.3,0.3,0.4c0.1,0.1,0.3,0.2,0.5,0.3s0.4,0.1,0.6,0.1s0.5,0,0.7-0.1l11.1-2.2
					c0.3-0.1,0.5-0.1,0.6-0.2s0.3-0.2,0.4-0.3s0.1-0.2,0.1-0.4s-0.1-0.3-0.1-0.5l-4-7.3c-0.1-0.2-0.2-0.3-0.3-0.4s-0.3-0.2-0.5-0.3
					s-0.4-0.1-0.6-0.1C442.4,198.2,442.1,198.2,441.9,198.3"/>
				<polyline fill="#FFFFFF" points="437.9,200.8 437.1,201 440.4,207.1 441.3,207 437.9,200.8 				"/>
				<path fill="#FFFFFF" d="M434.3,201.4c-0.1,0-0.2,0.1-0.3,0.1s-0.1,0.1-0.2,0.2s-0.1,0.1-0.1,0.2c0,0.1,0,0.1,0,0.2
					s0.1,0.1,0.2,0.2s0.2,0.1,0.3,0.1s0.2,0.1,0.3,0.1c0.1,0,0.2,0,0.3,0c0.1,0,0.2-0.1,0.3-0.1s0.1-0.1,0.2-0.2
					c0-0.1,0.1-0.1,0.1-0.2c0-0.1,0-0.1,0-0.2c0-0.1-0.1-0.1-0.2-0.2c-0.1-0.1-0.2-0.1-0.3-0.1s-0.2-0.1-0.3-0.1
					S434.4,201.4,434.3,201.4"/>
				<path fill="#FFFFFF" d="M435.4,202.5l-0.5,0.1l-0.5,0.1c-0.1,0-0.3,0.1-0.3,0.1c-0.1,0.1-0.2,0.1-0.2,0.2c0,0.1-0.1,0.1-0.1,0.2
					s0,0.1,0,0.2l0.1,1.6c0,0.1,0,0.1,0,0.1l0.1,0.1h0.1h0.1h0.1c0,0,0,0,0.1-0.1c0,0,0,0,0-0.1s0-0.1,0-0.1l-0.1-1.5h0.2l0.3,2.6
					l1-0.2l1,1.8c0,0,0,0.1,0.1,0.1s0.1,0.1,0.1,0.1h0.1h0.1h0.1c0,0,0.1,0,0.1-0.1s0-0.1,0-0.1v-0.1l-1-1.8h0.2l1,1.8
					c0,0,0,0.1,0.1,0.1s0.1,0.1,0.1,0.1h0.1h0.1h0.1c0,0,0.1,0,0.1-0.1v-0.1v-0.1l-1-1.8l1-0.2l-2.3-2.2h0.2l1.3,1.2l0.1,0.1h0.1
					h0.1h0.1c0,0,0.1,0,0.1-0.1s0.1-0.1,0.1-0.1v-0.1c0,0,0-0.1-0.1-0.1l-1.5-1.3c0,0-0.1-0.1-0.2-0.1s-0.2-0.1-0.3-0.1
					c-0.1,0-0.2-0.1-0.4-0.1C435.7,202.5,435.6,202.5,435.4,202.5"/>
				<path fill="#FFFFFF" d="M442,201.2l-1.6,0.3c-0.1,0-0.3,0.1-0.4,0.1s-0.2,0.1-0.2,0.2c0,0.1-0.1,0.2-0.1,0.3s0,0.2,0.1,0.3
					l0.9,1.6c0,0,0,0.1,0.1,0.1c0,0,0.1,0,0.1,0.1s0.1,0,0.1,0h0.1h0.1c0,0,0.1,0,0.1-0.1V204v-0.1l-0.8-1.4h0.2l2.2,4
					c0,0.1,0.1,0.1,0.1,0.1l0.1,0.1c0,0,0.1,0,0.2,0s0.1,0,0.2,0s0.1,0,0.1-0.1l0.1-0.1v-0.1v-0.1l-1.3-2.3h0.2l1.3,2.3
					c0,0.1,0.1,0.1,0.1,0.1l0.1,0.1c0.1,0,0.1,0,0.2,0s0.1,0,0.2,0s0.1,0,0.1-0.1s0.1-0.1,0.1-0.1v-0.1v-0.1l-2.2-4h0.2l0.8,1.4
					c0,0,0,0.1,0.1,0.1s0.1,0,0.1,0.1h0.1h0.1h0.1c0,0,0.1,0,0.1-0.1v-0.1v-0.1l-0.9-1.6c0-0.1-0.1-0.2-0.2-0.2
					c-0.1-0.1-0.2-0.1-0.3-0.2s-0.3-0.1-0.4-0.1C442.3,201.2,442.1,201.2,442,201.2"/>
				<path fill="#FFFFFF" d="M440.5,200.2c-0.1,0-0.2,0.1-0.3,0.1c-0.1,0-0.1,0.1-0.2,0.2c0,0.1-0.1,0.1-0.1,0.2c0,0.1,0,0.1,0,0.2
					s0.1,0.1,0.2,0.2c0.1,0.1,0.2,0.1,0.3,0.1s0.2,0.1,0.3,0.1s0.2,0,0.3,0c0.1,0,0.2-0.1,0.3-0.1s0.1-0.1,0.2-0.2
					c0-0.1,0.1-0.1,0.1-0.2c0-0.1,0-0.1,0-0.2s-0.1-0.1-0.2-0.2c-0.1-0.1-0.2-0.1-0.3-0.1s-0.2-0.1-0.3-0.1
					C440.8,200.2,440.6,200.2,440.5,200.2"/>
				<path fill="#333333" d="M422.5,211h-0.1h-0.1h-0.1h-0.1l-1.9-0.7c-0.1,0-0.2-0.1-0.3-0.1s-0.1-0.1-0.2-0.2
					c0-0.1-0.1-0.1-0.1-0.2s0-0.1,0.1-0.2l0.6-0.9l1.6,0.6l-0.6,0.7l1.2,0.4c0.1,0.1,0.2,0.1,0.3,0.2c0.1,0.1,0.1,0.1,0.1,0.2
					c0,0.1,0,0.1-0.1,0.2C422.7,211,422.6,211,422.5,211 M423.9,210.8c-0.1,0-0.2,0-0.3,0s-0.2-0.1-0.3-0.1s-0.1-0.1-0.1-0.2
					c0-0.1,0-0.1,0.1-0.2l0.6-0.8l-1.2-0.4l0.8-1l1.4,0.5c0.1,0,0.2,0.1,0.3,0.1c0.1,0.1,0.1,0.1,0.1,0.2s0,0.1,0,0.2s0,0.1-0.1,0.2
					l-0.9,1.2c0,0,0,0.1-0.1,0.1c0,0,0,0-0.1,0.1S424,210.7,423.9,210.8C424,210.7,423.9,210.7,423.9,210.8 M418.5,208.8
					c-0.1,0-0.2,0-0.3,0c-0.1,0-0.2-0.1-0.3-0.1c-0.1-0.1-0.1-0.1-0.1-0.2s0-0.1,0.1-0.2l1.3-1.7c0,0,0-0.1,0.1-0.1l0.1-0.1l0.1-0.1
					c0,0,0.1,0,0.2-0.1l0.9-0.2l0.9-0.2c0.1,0,0.1,0,0.2,0s0.1,0,0.2,0s0.1,0,0.2,0s0.1,0,0.2,0.1l2.7,0.9c0.1,0,0.2,0.1,0.3,0.2
					c0,0.1,0.1,0.1,0.1,0.2c0,0.1,0,0.1-0.1,0.2s-0.1,0.1-0.3,0.1h-0.1h-0.1h-0.1h-0.1l-1.7-0.6l0.4,0.8l-1.5,0.3l-1.6,0.3l-0.4-0.8
					l-0.8,1c0,0,0,0.1-0.1,0.1c0,0-0.1,0-0.1,0.1S418.7,208.7,418.5,208.8C418.6,208.7,418.6,208.8,418.5,208.8 M420.5,205.9
					c-0.2,0-0.4,0.1-0.6,0s-0.4-0.1-0.6-0.1s-0.3-0.1-0.5-0.3s-0.2-0.2-0.3-0.4c-0.1-0.1-0.1-0.3-0.1-0.4c0-0.1,0.1-0.3,0.1-0.4
					s0.2-0.2,0.4-0.3s0.3-0.1,0.5-0.2c0.2,0,0.4-0.1,0.6,0c0.2,0,0.4,0.1,0.6,0.1c0.2,0.1,0.3,0.1,0.5,0.3s0.3,0.2,0.3,0.4
					c0.1,0.1,0.1,0.3,0.1,0.4c0,0.1-0.1,0.3-0.1,0.4s-0.2,0.2-0.4,0.3S420.7,205.9,420.5,205.9 M424.3,201.7l-11,2.1
					c-0.3,0.1-0.5,0.1-0.6,0.2s-0.3,0.2-0.4,0.3s-0.1,0.2-0.1,0.4s0,0.3,0.1,0.5l3.9,7.4c0.1,0.2,0.2,0.3,0.3,0.4
					c0.1,0.1,0.3,0.2,0.5,0.3s0.4,0.1,0.6,0.1s0.5,0,0.7-0.1l11.2-2.2c0.3-0.1,0.5-0.1,0.6-0.2s0.3-0.2,0.4-0.3s0.1-0.2,0.1-0.4
					c0-0.1,0-0.3-0.1-0.5l-3.9-7.3c-0.1-0.2-0.2-0.3-0.3-0.4c-0.1-0.1-0.3-0.2-0.5-0.3s-0.4-0.1-0.6-0.1
					C424.8,201.6,424.6,201.7,424.3,201.7"/>
				<path fill="#FFFFFF" d="M419.5,204c-0.2,0-0.4,0.1-0.5,0.2c-0.1,0.1-0.3,0.2-0.4,0.3s-0.1,0.2-0.1,0.4c0,0.1,0,0.3,0.1,0.4
					c0.1,0.1,0.2,0.3,0.3,0.4s0.3,0.2,0.5,0.3s0.4,0.1,0.6,0.1s0.4,0,0.6,0s0.4-0.1,0.5-0.2s0.3-0.2,0.4-0.3s0.1-0.2,0.1-0.4
					c0-0.1,0-0.3-0.1-0.4c-0.1-0.1-0.2-0.3-0.3-0.4c-0.1-0.1-0.3-0.2-0.5-0.3s-0.4-0.1-0.6-0.1C419.9,203.9,419.7,203.9,419.5,204"
					/>
				<path fill="#FFFFFF" d="M421.5,205.9l-0.9,0.2l-0.9,0.2c-0.1,0-0.1,0-0.2,0.1s-0.1,0-0.1,0.1s-0.1,0.1-0.1,0.1l-0.1,0.1
					l-1.3,1.7c-0.1,0.1-0.1,0.2-0.1,0.2s0.1,0.1,0.1,0.2c0.1,0.1,0.2,0.1,0.3,0.1c0.1,0,0.2,0,0.3,0h0.1h0.1c0,0,0.1,0,0.1-0.1
					s0-0.1,0.1-0.1l0.8-1l0.4,0.8l1.6-0.3l1.5-0.3l-0.4-0.8l1.7,0.6h0.1h0.1h0.1h0.1c0.1,0,0.2-0.1,0.3-0.1s0.1-0.1,0.1-0.2
					c0-0.1,0-0.1-0.1-0.2c0-0.1-0.1-0.1-0.3-0.2l-2.7-0.9c-0.1,0-0.1,0-0.2-0.1c-0.1,0-0.1,0-0.2,0s-0.1,0-0.2,0
					C421.6,205.9,421.6,205.9,421.5,205.9"/>
				<path fill="#FFFFFF" d="M423.4,208l-0.8,1l1.2,0.4l-0.6,0.8c-0.1,0.1-0.1,0.2-0.1,0.2s0.1,0.1,0.1,0.2s0.2,0.1,0.3,0.1
					s0.2,0,0.3,0h0.1h0.1c0,0,0.1,0,0.1-0.1c0,0,0-0.1,0.1-0.1l0.9-1.2c0-0.1,0.1-0.1,0.1-0.2c0-0.1,0-0.1,0-0.2s-0.1-0.1-0.1-0.2
					c-0.1-0.1-0.2-0.1-0.3-0.1L423.4,208"/>
				<path fill="#FFFFFF" d="M420.3,208.6l-0.6,0.9c0,0.1-0.1,0.1-0.1,0.2c0,0.1,0,0.1,0.1,0.2s0.1,0.1,0.2,0.2
					c0.1,0.1,0.2,0.1,0.3,0.1l1.9,0.7h0.1h0.1h0.1h0.1c0.1,0,0.2-0.1,0.3-0.1s0.1-0.1,0.1-0.2c0-0.1,0-0.1-0.1-0.2
					c-0.1-0.1-0.1-0.1-0.3-0.2l-1.2-0.4l0.6-0.7L420.3,208.6"/>
				<path fill="#333333" d="M673.4,344.4c-0.1,0-0.3,0-0.4,0c-0.1,0-0.3,0-0.4-0.1s-0.3-0.1-0.4-0.2c-0.1-0.1-0.2-0.2-0.3-0.3
					l-2.7-4.2c-0.1-0.1-0.1-0.2-0.1-0.3s0-0.2,0-0.3s0.1-0.2,0.2-0.2s0.2-0.1,0.4-0.2l5.4-1.3c0.1,0,0.3,0,0.4,0
					c0.1,0,0.3,0,0.4,0.1c0.1,0,0.3,0.1,0.4,0.2c0.1,0.1,0.2,0.2,0.3,0.3l2.8,4.2c0.1,0.1,0.1,0.2,0.1,0.3c0,0.1,0,0.2,0,0.3
					s-0.1,0.2-0.2,0.2s-0.2,0.1-0.3,0.1L673.4,344.4 M668.1,337.1c-0.1,0-0.2,0-0.3,0s-0.2,0-0.3-0.1s-0.1-0.1-0.2-0.2s0-0.1,0-0.2
					l0.5-1.6c0,0,0,0,0-0.1c0,0,0,0,0.1-0.1s0,0,0.1,0s0,0,0.1,0s0.1,0,0.1,0h0.1h0.1h0.1l2.1,0.9c0.1,0,0.2,0.1,0.3,0.2
					s0.1,0.1,0.1,0.2s0,0.1-0.1,0.2s-0.1,0.1-0.2,0.1c0,0,0,0-0.1,0s-0.1,0-0.1,0h-0.1h-0.1l-0.9-0.4l1.1,1.7c0,0.1,0.1,0.1,0.1,0.2
					s0,0.1,0,0.2l-0.1,0.1c0,0-0.1,0.1-0.2,0.1c-0.1,0-0.1,0-0.2,0c-0.1,0-0.1,0-0.2,0s-0.1-0.1-0.2-0.1s-0.1-0.1-0.2-0.2l-1.1-1.7
					L668.1,337.1C668.2,337,668.2,337,668.1,337.1L668.1,337.1C668.2,337.1,668.2,337.1,668.1,337.1L668.1,337.1 M672.7,336.1
					l-1.1-1.6c0-0.1-0.1-0.1-0.1-0.2s0-0.1,0-0.2s0.1-0.1,0.1-0.1s0.1-0.1,0.2-0.1c0.1,0,0.1,0,0.2,0s0.1,0,0.2,0s0.1,0.1,0.2,0.1
					s0.1,0.1,0.2,0.2l1.1,1.7l0.2-0.7c0,0,0,0,0-0.1s0,0,0,0s0,0,0.1,0s0,0,0.1,0s0.2,0,0.3,0s0.2,0,0.3,0.1s0.1,0.1,0.2,0.2
					s0,0.1,0,0.2l-0.5,1.6c0,0,0,0,0,0.1c0,0,0,0-0.1,0.1s0,0-0.1,0h-0.1H674h-0.1h-0.1h-0.1l-2.1-0.9c-0.1,0-0.2-0.1-0.3-0.2
					s-0.1-0.1-0.1-0.2s0-0.1,0.1-0.2s0.1-0.1,0.2-0.1c0,0,0,0,0.1,0s0.1,0,0.1,0h0.1h0.1L672.7,336.1 M675.1,332.4l-11.1,2.7
					c-0.3,0.1-0.5,0.1-0.6,0.2c-0.2,0.1-0.3,0.2-0.3,0.4c-0.1,0.1-0.1,0.3-0.1,0.5s0.1,0.4,0.3,0.6l5.6,8.7c0.1,0.2,0.3,0.4,0.4,0.5
					c0.2,0.1,0.3,0.2,0.5,0.3s0.4,0.1,0.6,0.1s0.5,0,0.7-0.1l11.2-2.8c0.3-0.1,0.5-0.1,0.6-0.2c0.2-0.1,0.3-0.2,0.3-0.3
					s0.1-0.3,0-0.5c0-0.2-0.1-0.4-0.3-0.5l-5.7-8.6c-0.1-0.2-0.3-0.4-0.5-0.5s-0.3-0.2-0.5-0.3c-0.2-0.1-0.4-0.1-0.6-0.1
					C675.6,332.3,675.3,332.4,675.1,332.4"/>
				<path fill="#FFFFFF" d="M672.9,343.6l-2.7-4.1l5.3-1.3l2.7,4.1L672.9,343.6 M675.1,337.4l-5.4,1.3c-0.1,0-0.3,0.1-0.4,0.2
					s-0.2,0.1-0.2,0.2s-0.1,0.2,0,0.3s0,0.2,0.1,0.3l2.7,4.2c0.1,0.1,0.2,0.2,0.3,0.3c0.1,0.1,0.2,0.1,0.4,0.2s0.3,0.1,0.4,0.1
					c0.1,0,0.3,0,0.4,0l5.4-1.4c0.1,0,0.3-0.1,0.3-0.1s0.2-0.1,0.2-0.2s0.1-0.2,0-0.3s0-0.2-0.1-0.3l-2.8-4.2
					c-0.1-0.1-0.2-0.2-0.3-0.3c-0.1-0.1-0.2-0.1-0.4-0.2c-0.1,0-0.3-0.1-0.4-0.1C675.4,337.3,675.2,337.3,675.1,337.4"/>
				<path fill="#333333" d="M672.3,341.9L672.3,341.9c-0.1,0-0.1,0-0.2,0c0,0,0,0-0.1,0l0,0l-0.7-1v-0.1c0,0,0,0,0-0.1
					c0,0,0,0,0.1-0.1c0,0,0,0,0.1,0l1-0.3h0.1h0.1h0.1c0,0,0,0,0.1,0.1l0.7,1c0,0,0,0,0,0.1s0,0,0,0.1s0,0,0,0s0,0-0.1,0h-0.1
					l0.9,1.3v0.1c0,0,0,0,0,0.1l0,0c0,0,0,0-0.1,0s-0.1,0-0.1,0H674h-0.1c0,0,0,0-0.1-0.1l-0.9-1.3h-0.1l0.9,1.3v0.1c0,0,0,0,0,0.1
					s0,0,0,0s0,0-0.1,0s-0.1,0-0.1,0h-0.1h-0.1c0,0,0,0-0.1-0.1L672.3,341.9L672.3,341.9 M673.9,341.5L673.9,341.5
					c-0.1,0-0.1,0-0.2,0c0,0,0,0-0.1,0l0,0l-0.7-1v-0.1c0,0,0,0,0-0.1c0,0,0,0,0-0.1c0,0,0,0,0.1,0l1.1-0.3h0.1h0.1h0.1
					c0,0,0,0,0.1,0.1l0.7,1c0,0,0,0,0,0.1s0,0,0,0.1s0,0,0,0s0,0-0.1,0H675l0.9,1.3v0.1c0,0,0,0,0,0.1l0,0c0,0,0,0-0.1,0
					s-0.1,0-0.1,0h-0.1h-0.1c0,0,0,0-0.1-0.1l-0.9-1.3h-0.1l0.9,1.3v0.1c0,0,0,0,0,0.1l0,0c0,0,0,0-0.1,0h-0.1H675h-0.1
					c0,0,0,0-0.1-0.1L673.9,341.5L673.9,341.5 M675.6,341.1C675.5,341.1,675.5,341.1,675.6,341.1c-0.1,0-0.1,0-0.2,0c0,0,0,0-0.1,0
					s0,0,0,0l-0.7-1V340c0,0,0,0,0-0.1c0,0,0,0,0-0.1c0,0,0,0,0.1,0l1.1-0.3h0.1h0.1h0.1c0,0,0,0,0.1,0.1l0.7,1c0,0,0,0,0,0.1
					s0,0,0,0.1s0,0,0,0s0,0-0.1,0h-0.1l0.9,1.3v0.1c0,0,0,0,0,0.1l0,0c0,0,0,0-0.1,0s-0.1,0-0.1,0h-0.1h-0.1c0,0,0,0-0.1-0.1
					l-0.9-1.3h-0.1l0.9,1.3v0.1c0,0,0,0,0,0.1l0,0c0,0,0,0-0.1,0s-0.1,0-0.1,0h-0.1h-0.1c0,0,0,0-0.1-0.1L675.6,341.1L675.6,341.1
					 M672,340.3L672,340.3h-0.2c0,0-0.1,0-0.1-0.1s-0.1-0.1-0.1-0.1V340v-0.1c0,0,0-0.1,0.1-0.1s0.1,0,0.1,0s0.1,0,0.2,0
					c0,0,0.1,0,0.2,0c0,0,0.1,0,0.1,0.1s0.1,0.1,0.1,0.1v0.1v0.1c0,0,0,0.1-0.1,0.1C672.1,340.3,672,340.3,672,340.3 M673.6,339.9
					c0,0-0.1,0-0.2,0c0,0-0.1,0-0.2,0s-0.1,0-0.1-0.1s-0.1-0.1-0.1-0.1v-0.1v-0.1c0,0,0-0.1,0.1-0.1s0.1,0,0.1,0h0.1h0.1
					c0,0,0.1,0,0.1,0.1s0.1,0.1,0.1,0.1v0.1v0.1C673.8,339.8,673.7,339.8,673.6,339.9C673.7,339.9,673.7,339.9,673.6,339.9
					 M675.2,339.5L675.2,339.5H675c0,0-0.1,0-0.1-0.1s-0.1-0.1-0.1-0.1v-0.1v-0.1c0,0,0-0.1,0.1-0.1s0.1,0,0.1,0s0.1,0,0.2,0
					c0,0,0.1,0,0.2,0c0,0,0.1,0,0.1,0.1s0.1,0.1,0.1,0.1v0.1v0.1c0,0,0,0.1-0.1,0.1C675.3,339.5,675.3,339.5,675.2,339.5
					 M675.6,338.2l-5.3,1.3l2.7,4.1l5.3-1.3L675.6,338.2"/>
				<path fill="#FFFFFF" d="M671.8,333.9c-0.1,0-0.1,0-0.2,0.1s-0.1,0.1-0.1,0.1s0,0.1,0,0.2s0,0.1,0.1,0.2l1.1,1.6l-0.9-0.4h-0.1
					h-0.1h-0.1h-0.1c-0.1,0-0.2,0.1-0.2,0.1s-0.1,0.1-0.1,0.2s0,0.1,0.1,0.2s0.1,0.1,0.3,0.2l2.1,0.9h0.1h0.1h0.1h0.1h0.1
					c0,0,0,0,0.1,0s0,0,0.1-0.1s0,0,0-0.1l0.5-1.6c0-0.1,0-0.2,0-0.2s-0.1-0.1-0.2-0.2s-0.2-0.1-0.3-0.1s-0.2,0-0.3,0c0,0,0,0-0.1,0
					s0,0-0.1,0l0,0c0,0,0,0,0,0.1l-0.2,0.7l-1.1-1.7c0-0.1-0.1-0.1-0.2-0.2c-0.1,0-0.1-0.1-0.2-0.1S672,333.8,671.8,333.9
					C672,333.9,671.9,333.9,671.8,333.9"/>
				<path fill="#FFFFFF" d="M668.2,334.8C668.1,334.9,668.1,334.9,668.2,334.8c-0.1,0-0.1,0.1-0.2,0.1c0,0,0,0-0.1,0.1s0,0,0,0.1
					l-0.5,1.6c0,0.1,0,0.2,0,0.2s0.1,0.1,0.2,0.2s0.2,0.1,0.3,0.1s0.2,0,0.3,0c0,0,0,0,0.1,0s0,0,0.1,0l0,0c0,0,0,0,0-0.1l0.2-0.7
					l1.1,1.7c0,0.1,0.1,0.1,0.2,0.2s0.1,0.1,0.2,0.1s0.1,0,0.2,0c0.1,0,0.1,0,0.2,0c0.1,0,0.1,0,0.2-0.1s0.1-0.1,0.1-0.1
					s0-0.1,0-0.2s0-0.1-0.1-0.2l-1.1-1.7l0.9,0.4h0.1h0.1h0.1h0.1c0.1,0,0.2-0.1,0.2-0.1s0.1-0.1,0.1-0.2s0-0.1-0.1-0.2
					c0-0.1-0.1-0.1-0.3-0.2l-2.1-0.9h-0.1h-0.1C668.3,334.8,668.3,334.8,668.2,334.8L668.2,334.8"/>
				<path fill="#FFFFFF" d="M675.8,339.4l-1.1,0.3h-0.1c0,0,0,0,0,0.1s0,0,0,0.1v0.1l0.7,1l0,0c0,0,0,0,0.1,0s0,0,0.1,0
					c0,0,0,0,0.1,0h0.1l0.9,1.3c0,0,0,0.1,0.1,0.1s0.1,0,0.1,0h0.1h0.1c0,0,0,0,0.1,0l0,0c0,0,0,0,0-0.1c0,0,0,0,0-0.1l-0.9-1.3h0.1
					l0.9,1.3c0,0,0,0.1,0.1,0.1s0.1,0,0.1,0h0.1h0.1c0,0,0,0,0.1,0l0,0c0,0,0,0,0-0.1s0,0,0-0.1l-0.9-1.3h0.1c0,0,0,0,0.1,0s0,0,0,0
					s0,0,0-0.1s0,0,0-0.1l-0.7-1c0,0,0,0-0.1-0.1h-0.1C676,339.4,676,339.4,675.8,339.4C675.9,339.4,675.9,339.4,675.8,339.4"/>
				<path fill="#FFFFFF" d="M674.9,339L674.9,339c-0.1,0-0.2,0-0.2,0.1v0.1v0.1l0.1,0.1c0,0,0.1,0,0.1,0.1h0.1h0.1h0.1
					c0,0,0.1,0,0.1-0.1v-0.1v-0.1l-0.1-0.1c0,0-0.1,0-0.1-0.1C675.1,339,675,339,674.9,339C675,338.9,674.9,339,674.9,339"/>
				<path fill="#FFFFFF" d="M674.2,339.8l-1.1,0.3H673c0,0,0,0,0,0.1s0,0,0,0.1v0.1l0.7,1l0,0c0,0,0,0,0.1,0c0,0,0,0,0.1,0
					c0,0,0,0,0.1,0h0.1l0.9,1.3c0,0,0,0.1,0.1,0.1s0.1,0,0.1,0h0.1h0.1c0,0,0,0,0.1,0l0,0c0,0,0,0,0-0.1c0,0,0,0,0-0.1l-0.9-1.3h0.1
					l0.9,1.3c0,0,0,0.1,0.1,0.1s0.1,0,0.1,0h0.1h0.1c0,0,0,0,0.1,0l0,0c0,0,0,0,0-0.1s0,0,0-0.1l-0.9-1.3h0.1c0,0,0,0,0.1,0l0,0
					c0,0,0,0,0-0.1s0,0,0-0.1l-0.7-1c0,0,0,0-0.1-0.1s-0.1,0-0.1,0h-0.1C674.3,339.8,674.2,339.8,674.2,339.8"/>
				<path fill="#FFFFFF" d="M673.3,339.4L673.3,339.4c-0.1,0-0.2,0-0.2,0.1v0.1v0.1l0.1,0.1c0,0,0.1,0,0.1,0.1s0.1,0,0.2,0
					c0,0,0.1,0,0.2,0h0.1c0,0,0.1,0,0.1-0.1s0-0.1,0-0.1v-0.1l-0.1-0.1c0,0-0.1,0-0.1-0.1s-0.1,0-0.1,0
					C673.4,339.4,673.3,339.4,673.3,339.4"/>
				<path fill="#FFFFFF" d="M672.5,340.3l-1,0.3h-0.1c0,0,0,0-0.1,0.1c0,0,0,0,0,0.1s0,0.1,0,0.1l0.7,1l0,0c0,0,0,0,0.1,0
					c0,0,0,0,0.1,0c0,0,0,0,0.1,0h0.1l0.9,1.3c0,0,0,0.1,0.1,0.1s0.1,0,0.1,0h0.1h0.1c0,0,0,0,0.1,0s0,0,0,0s0,0,0-0.1
					c0,0,0,0,0-0.1l-0.9-1.3h0.1l0.9,1.3c0,0,0,0.1,0.1,0.1s0.1,0,0.1,0h0.1h0.1c0,0,0,0,0.1,0l0,0c0,0,0,0,0-0.1c0,0,0,0,0-0.1
					l-0.9-1.3h0.1c0,0,0,0,0.1,0l0,0c0,0,0,0,0-0.1s0,0,0-0.1l-0.7-1c0,0,0,0-0.1-0.1s-0.1,0-0.1,0h-0.1
					C672.6,340.2,672.6,340.2,672.5,340.3"/>
				<path fill="#FFFFFF" d="M671.6,339.8L671.6,339.8c-0.1,0-0.2,0-0.2,0.1s0,0.1,0,0.1v0.1l0.1,0.1c0,0,0.1,0,0.1,0.1h0.1h0.1h0.1
					c0,0,0.1,0,0.1-0.1v-0.1V340l-0.1-0.1c0,0-0.1,0-0.1-0.1C671.8,339.8,671.7,339.8,671.6,339.8
					C671.7,339.8,671.7,339.8,671.6,339.8"/>
				<path fill="#333333" d="M243.6,274.3l-0.3-0.8l2.2-0.5l-0.6-1.5l2.2-0.5l-0.6-1.5l2.2-0.5l-0.6-1.5l2.2-0.5l-0.6-1.5l3.3-0.7
					l0.3,0.7l-2.2,0.4l0.6,1.5l-2.2,0.5l0.6,1.5l-2.2,0.5l0.6,1.5l-2.2,0.5l0.6,1.5L243.6,274.3 M252.3,263.3l-12.3,2.5
					c-0.3,0.1-0.5,0.1-0.7,0.2s-0.4,0.2-0.5,0.3c-0.1,0.1-0.2,0.3-0.2,0.4c0,0.2,0,0.3,0.1,0.5l3.1,8.2c0.1,0.2,0.2,0.3,0.3,0.5
					s0.3,0.2,0.5,0.3c0.2,0.1,0.4,0.1,0.6,0.1c0.2,0,0.5,0,0.8-0.1l12.5-2.5c0.3-0.1,0.5-0.1,0.7-0.2s0.4-0.2,0.5-0.3
					c0.1-0.1,0.2-0.3,0.2-0.4c0-0.2,0-0.3-0.1-0.5l-3.2-8.1c-0.1-0.2-0.2-0.4-0.3-0.5s-0.3-0.2-0.5-0.3c-0.2-0.1-0.4-0.1-0.6-0.1
					C252.9,263.3,252.6,263.3,252.3,263.3"/>
				<polyline fill="#FFFFFF" points="253,265.2 249.8,265.8 250.3,267.3 248.1,267.7 248.7,269.2 246.5,269.6 247.1,271.1 
					244.9,271.6 245.5,273.1 243.3,273.5 243.6,274.3 246.8,273.6 246.3,272.1 248.5,271.6 247.9,270.2 250.1,269.7 249.5,268.2 
					251.7,267.8 251.2,266.3 253.3,265.9 253,265.2 				"/>
				<path fill="#333333" d="M566.3,250c-0.1,0-0.2,0-0.3,0s-0.2-0.1-0.2-0.2s0-0.1,0-0.2c0-0.1,0.1-0.1,0.2-0.1l1.7-0.4
					c0.1,0,0.1,0,0.2,0s0.1,0,0.2,0s0.1,0,0.2,0.1l0.1,0.1l0.7,1.2v0.1v0.1c0,0,0,0.1-0.1,0.1h-0.1h-0.1c0,0-0.1,0-0.2,0
					s-0.1,0-0.1-0.1s-0.1-0.1-0.1-0.1L568,250l-0.9,1.5c0,0,0,0,0,0.1s0,0-0.1,0.1c0,0,0,0-0.1,0c0,0,0,0-0.1,0s-0.2,0-0.2,0
					c-0.1,0-0.2,0-0.2-0.1s-0.1-0.1-0.1-0.1s0-0.1,0-0.2l0.9-1.5L566.3,250 M562.6,247.5l1-1.6c0-0.1,0.1-0.1,0.2-0.2
					s0.2-0.1,0.2-0.2c0.1-0.1,0.2-0.1,0.3-0.1s0.2-0.1,0.3-0.1l1.9-0.4c0.2,0,0.3,0,0.5,0s0.4,0.1,0.6,0.1c0.2,0.1,0.4,0.2,0.6,0.3
					c0.2,0.1,0.3,0.3,0.4,0.4c0.1,0.2,0.2,0.3,0.2,0.5s0,0.3-0.1,0.4c-0.1,0.1-0.2,0.2-0.3,0.3s-0.3,0.1-0.4,0.2
					c-0.1,0-0.3,0.1-0.4,0.1c-0.1,0-0.3,0.1-0.4,0.1c-0.1,0-0.2,0.1-0.3,0.1s-0.1,0-0.1,0h-0.1h-0.1c0,0,0,0-0.1,0s0,0,0,0.1
					l-2.8,4.5c-0.1,0.1-0.1,0.2-0.2,0.2s-0.2,0.1-0.3,0.2c-0.1,0.1-0.2,0.1-0.3,0.1s-0.2,0.1-0.3,0.1s-0.3,0.1-0.4,0.1
					s-0.4,0.1-0.6,0.1s-0.4,0.1-0.5,0.1s-0.2,0-0.2,0c-0.3,0.1-0.5,0.1-0.8,0s-0.5-0.1-0.7-0.2s-0.4-0.2-0.5-0.3
					c-0.2-0.1-0.3-0.2-0.3-0.4c-0.1-0.1-0.1-0.3-0.1-0.4c0-0.1,0-0.3,0.1-0.4c0.1-0.1,0.2-0.3,0.3-0.4s0.3-0.2,0.6-0.2l0.9-0.2
					c0.1,0,0.1,0,0.2,0s0.1,0,0.1,0s0,0,0.1-0.1s0-0.1,0-0.1l0.9-1.4l-0.9-1.5c-0.1-0.1-0.1-0.2-0.1-0.3s0-0.2,0.1-0.2
					c0-0.1,0.1-0.1,0.2-0.2c0.1,0,0.2-0.1,0.3-0.1s0.2,0,0.3,0s0.2,0,0.3,0.1c0.1,0,0.2,0.1,0.3,0.1c0.1,0.1,0.2,0.1,0.2,0.2
					L562.6,247.5 M561.2,246.6c-0.1,0-0.2,0-0.3,0s-0.2,0-0.3-0.1c-0.1,0-0.2-0.1-0.3-0.1c-0.1-0.1-0.2-0.1-0.2-0.2S560,246,560,246
					s0-0.1,0.1-0.2s0.1-0.1,0.2-0.2s0.2-0.1,0.3-0.1s0.2,0,0.3,0s0.2,0,0.3,0.1c0.1,0,0.2,0.1,0.3,0.1c0.1,0.1,0.2,0.1,0.2,0.2
					s0.1,0.2,0.1,0.2s0,0.1-0.1,0.2s-0.1,0.1-0.2,0.2C561.4,246.5,561.3,246.6,561.2,246.6 M565.9,242.7l-10.8,2.3
					c-0.3,0.1-0.5,0.1-0.6,0.2c-0.2,0.1-0.3,0.2-0.4,0.3c-0.1,0.1-0.1,0.3-0.1,0.4c0,0.1,0.1,0.3,0.2,0.5l4.7,7.7
					c0.1,0.2,0.2,0.3,0.4,0.4s0.3,0.2,0.5,0.3s0.4,0.1,0.6,0.1s0.5,0,0.7-0.1l10.9-2.4c0.3-0.1,0.5-0.1,0.6-0.2
					c0.2-0.1,0.3-0.2,0.3-0.3c0.1-0.1,0.1-0.3,0.1-0.4c0-0.1-0.1-0.3-0.2-0.5l-4.8-7.7c-0.1-0.2-0.2-0.3-0.4-0.4s-0.3-0.2-0.5-0.3
					s-0.4-0.1-0.6-0.1C566.4,242.6,566.1,242.6,565.9,242.7"/>
				<path fill="#FFFFFF" d="M560.5,245.4c-0.1,0-0.2,0.1-0.3,0.1s-0.1,0.1-0.2,0.2c0,0.1-0.1,0.1-0.1,0.2s0,0.2,0.1,0.2
					c0,0.1,0.1,0.1,0.2,0.2c0.1,0.1,0.2,0.1,0.3,0.1s0.2,0.1,0.3,0.1s0.2,0,0.3,0s0.2-0.1,0.3-0.1c0.1-0.1,0.1-0.1,0.2-0.2
					c0-0.1,0.1-0.1,0.1-0.2s0-0.2-0.1-0.2s-0.1-0.1-0.2-0.2c-0.1-0.1-0.2-0.1-0.3-0.1s-0.2-0.1-0.3-0.1S560.6,245.4,560.5,245.4"/>
				<path fill="#FFFFFF" d="M560.6,252.4c-0.1,0-0.2,0-0.3,0s-0.2,0-0.3-0.1s-0.2-0.1-0.3-0.1s-0.2-0.1-0.2-0.2
					c0-0.1-0.1-0.2-0.1-0.2c0-0.1,0-0.1,0.1-0.2s0.1-0.1,0.2-0.1s0.2-0.1,0.2-0.1l1.1-0.2c0.1,0,0.2,0,0.2-0.1
					c0.1,0,0.1-0.1,0.2-0.1s0.1-0.1,0.1-0.1l0.1-0.1l2.8-4.6c0-0.1,0.1-0.1,0.1-0.1l0.1-0.1c0,0,0.1,0,0.2-0.1s0.2,0,0.2-0.1
					l1.7-0.4c0.1,0,0.2,0,0.3,0s0.2,0.1,0.3,0.1s0.2,0.1,0.3,0.1s0.1,0.1,0.2,0.1c0,0.1,0.1,0.1,0.1,0.2c0,0.1,0,0.1,0,0.2
					s-0.1,0.1-0.1,0.2c-0.1,0.1-0.2,0.1-0.3,0.1l-1,0.2c-0.1,0-0.2,0.1-0.3,0.1s-0.1,0.1-0.2,0.1s-0.1,0.1-0.1,0.1l-0.1,0.1
					l-2.8,4.5c0,0.1-0.1,0.1-0.1,0.1l-0.1,0.1c0,0-0.1,0.1-0.2,0.1c-0.1,0-0.1,0-0.2,0.1L560.6,252.4 M566.5,244.9l-1.9,0.4
					c-0.1,0-0.2,0.1-0.3,0.1s-0.2,0.1-0.3,0.1c-0.1,0.1-0.2,0.1-0.2,0.2s-0.1,0.1-0.2,0.2l-1,1.6l-0.2-0.4c-0.1-0.1-0.1-0.2-0.2-0.2
					c-0.1-0.1-0.2-0.1-0.3-0.1s-0.2-0.1-0.3-0.1s-0.2,0-0.3,0s-0.2,0.1-0.3,0.1s-0.2,0.1-0.2,0.2c0,0.1-0.1,0.1-0.1,0.2
					s0,0.2,0.1,0.3l0.9,1.5l-0.9,1.4v0.1c0,0,0,0-0.1,0.1h-0.1c0,0-0.1,0-0.2,0l-0.9,0.2c-0.2,0.1-0.4,0.1-0.6,0.2s-0.3,0.2-0.3,0.4
					c-0.1,0.1-0.1,0.3-0.1,0.4s0.1,0.3,0.1,0.4s0.2,0.3,0.3,0.4c0.2,0.1,0.3,0.2,0.5,0.3s0.4,0.1,0.7,0.2s0.5,0,0.8,0
					c0,0,0.1,0,0.2,0c0.1,0,0.3-0.1,0.5-0.1s0.4-0.1,0.6-0.1s0.3-0.1,0.4-0.1c0.1,0,0.2-0.1,0.3-0.1s0.2-0.1,0.3-0.1
					c0.1-0.1,0.2-0.1,0.3-0.2c0.1-0.1,0.2-0.1,0.2-0.2l2.8-4.5c0,0,0,0,0-0.1s0,0,0.1,0c0,0,0,0,0.1,0s0.1,0,0.1,0s0,0,0.1,0
					s0.2,0,0.3-0.1c0.1,0,0.3-0.1,0.4-0.1s0.3-0.1,0.4-0.1c0.2,0,0.3-0.1,0.4-0.2s0.2-0.2,0.3-0.3s0.1-0.3,0.1-0.4
					c0-0.2,0-0.3-0.2-0.5c-0.1-0.2-0.3-0.3-0.4-0.4c-0.2-0.1-0.4-0.2-0.6-0.3c-0.2-0.1-0.4-0.1-0.6-0.1
					C566.9,244.8,566.7,244.8,566.5,244.9"/>
				<path fill="#FFFFFF" d="M567.7,249.1l-1.7,0.4c-0.1,0-0.2,0.1-0.2,0.1c0,0.1,0,0.1,0,0.2s0.1,0.1,0.2,0.2c0.1,0,0.2,0.1,0.3,0
					l0.9-0.2l-0.9,1.5c0,0.1,0,0.1,0,0.2c0,0.1,0.1,0.1,0.1,0.1s0.1,0.1,0.2,0.1s0.2,0,0.2,0s0,0,0.1,0c0,0,0,0,0.1,0
					c0,0,0,0,0.1-0.1s0,0,0-0.1l0.9-1.5l0.4,0.6l0.1,0.1l0.1,0.1c0,0,0.1,0,0.2,0s0.1,0,0.1,0h0.1c0,0,0.1,0,0.1-0.1v-0.1v-0.1
					l-0.7-1.2c0-0.1-0.1-0.1-0.1-0.1s-0.1-0.1-0.2-0.1c0,0-0.1,0-0.2,0S567.8,249.1,567.7,249.1"/>
				<path fill="#333333" d="M566.8,245.4l-1.7,0.4c-0.1,0-0.2,0-0.2,0.1s-0.1,0-0.2,0.1s-0.1,0.1-0.1,0.1l-0.1,0.1l-2.8,4.6
					c0,0,0,0.1-0.1,0.1l-0.1,0.1c0,0-0.1,0.1-0.2,0.1c-0.1,0-0.1,0-0.2,0.1l-1.1,0.2c-0.1,0-0.2,0.1-0.2,0.1s-0.1,0.1-0.2,0.1
					s-0.1,0.1-0.1,0.2c0,0.1,0,0.1,0.1,0.2s0.1,0.1,0.2,0.2c0.1,0.1,0.2,0.1,0.3,0.1s0.2,0.1,0.3,0.1s0.2,0,0.3,0l1.6-0.4
					c0.1,0,0.2,0,0.2-0.1s0.1-0.1,0.2-0.1s0.1-0.1,0.1-0.1l0.1-0.1l2.8-4.5c0-0.1,0.1-0.1,0.1-0.1l0.1-0.1c0.1,0,0.1-0.1,0.2-0.1
					s0.2-0.1,0.3-0.1l1-0.2c0.1,0,0.2-0.1,0.3-0.1s0.1-0.1,0.1-0.2s0-0.1,0-0.2s0-0.1-0.1-0.2c0-0.1-0.1-0.1-0.2-0.1
					c-0.1-0.1-0.2-0.1-0.3-0.1s-0.2-0.1-0.3-0.1S566.9,245.4,566.8,245.4"/>
				<path fill="#333333" d="M574.1,263.2l0.9-1.5c0,0,0,0,0-0.1c0,0,0,0,0.1,0c0,0,0,0,0.1,0c0,0,0,0,0.1,0s0.2,0,0.2,0
					c0.1,0,0.2,0,0.2,0.1c0.1,0,0.1,0.1,0.1,0.1s0,0.1,0,0.2l-0.9,1.6l0.9-0.2c0.1,0,0.2,0,0.3,0s0.2,0.1,0.2,0.2s0,0.1,0,0.2
					s-0.1,0.1-0.2,0.1l-1.7,0.4c-0.1,0-0.1,0-0.2,0c-0.1,0-0.1,0-0.2,0s-0.1,0-0.2-0.1l-0.1-0.1l-0.8-1.2v-0.1v-0.1c0,0,0,0,0.1-0.1
					h0.1c0,0,0.1,0,0.2,0c0,0,0.1,0,0.2,0s0.1,0,0.1,0.1s0.1,0.1,0.1,0.1L574.1,263.2 M570.1,259.8l1-1.6c0-0.1,0.1-0.1,0.2-0.2
					s0.2-0.1,0.2-0.2c0.1,0,0.2-0.1,0.3-0.1s0.2-0.1,0.3-0.1l1.9-0.4c0.2,0,0.3,0,0.5,0s0.4,0.1,0.6,0.1c0.2,0.1,0.4,0.2,0.6,0.3
					s0.3,0.3,0.4,0.4c0.1,0.2,0.2,0.3,0.2,0.5s0,0.3-0.1,0.4s-0.2,0.3-0.3,0.3c-0.1,0.1-0.3,0.1-0.4,0.2c-0.1,0-0.3,0.1-0.4,0.1
					c-0.1,0-0.3,0.1-0.4,0.1s-0.2,0-0.3,0.1c-0.1,0-0.1,0-0.1,0h-0.1h-0.1c0,0,0,0-0.1,0s0,0,0,0.1l-2.7,4.6
					c-0.1,0.1-0.1,0.2-0.2,0.2c-0.1,0.1-0.2,0.1-0.3,0.2c-0.1,0-0.2,0.1-0.3,0.1s-0.2,0.1-0.3,0.1s-0.3,0.1-0.4,0.1
					c-0.2,0-0.4,0.1-0.6,0.1s-0.4,0.1-0.5,0.1s-0.2,0-0.2,0c-0.3,0.1-0.5,0.1-0.8,0s-0.5-0.1-0.7-0.2s-0.4-0.2-0.5-0.3
					c-0.2-0.1-0.3-0.3-0.3-0.4c-0.1-0.1-0.1-0.3-0.1-0.4s0-0.3,0.1-0.4s0.2-0.3,0.3-0.4s0.3-0.2,0.6-0.2l0.9-0.2c0.1,0,0.1,0,0.2,0
					s0.1,0,0.1,0s0,0,0.1,0s0,0,0-0.1l0.9-1.4l0,0l-0.9-1.5c-0.1-0.1-0.1-0.2-0.1-0.3s0-0.2,0.1-0.2c0-0.1,0.1-0.1,0.2-0.2
					c0.1,0,0.2-0.1,0.3-0.1s0.2,0,0.3,0s0.2,0,0.3,0s0.2,0.1,0.3,0.1c0.1,0.1,0.2,0.1,0.2,0.2L570.1,259.8 M568.7,258.9
					c-0.1,0-0.2,0-0.3,0s-0.2,0-0.3-0.1c-0.1,0-0.2-0.1-0.3-0.1c-0.1-0.1-0.2-0.1-0.2-0.2s-0.1-0.2-0.1-0.2s0-0.2,0.1-0.2
					s0.1-0.1,0.2-0.2s0.2-0.1,0.3-0.1s0.2,0,0.3,0s0.2,0,0.3,0.1c0.1,0,0.2,0.1,0.3,0.1c0.1,0.1,0.2,0.1,0.2,0.2s0.1,0.2,0.1,0.2
					c0,0.1,0,0.1-0.1,0.2s-0.1,0.1-0.2,0.2C568.9,258.8,568.8,258.9,568.7,258.9 M573.4,254.9l-10.9,2.4c-0.3,0-0.5,0.1-0.6,0.2
					c-0.2,0.1-0.3,0.2-0.4,0.3c-0.1,0.1-0.1,0.3-0.1,0.4c0,0.2,0.1,0.3,0.2,0.5l4.8,7.8c0.1,0.2,0.2,0.3,0.4,0.5
					c0.2,0.1,0.3,0.2,0.5,0.3c0.2,0.1,0.4,0.1,0.6,0.1s0.5,0,0.7-0.1l11-2.4c0.3-0.1,0.5-0.1,0.6-0.2s0.3-0.2,0.3-0.3
					c0.1-0.1,0.1-0.3,0.1-0.4s-0.1-0.3-0.2-0.5l-4.8-7.8c-0.1-0.2-0.3-0.3-0.4-0.5s-0.3-0.2-0.5-0.3s-0.4-0.1-0.6-0.1
					C573.9,254.9,573.7,254.9,573.4,254.9"/>
				<path fill="#FFFFFF" d="M568,257.7c-0.1,0-0.2,0.1-0.3,0.1s-0.1,0.1-0.2,0.2s-0.1,0.1-0.1,0.2s0,0.2,0.1,0.2s0.1,0.1,0.2,0.2
					c0.1,0.1,0.2,0.1,0.3,0.1s0.2,0.1,0.3,0.1s0.2,0,0.3,0s0.2-0.1,0.3-0.1s0.1-0.1,0.2-0.2s0.1-0.1,0.1-0.2s0-0.2-0.1-0.2
					s-0.1-0.1-0.2-0.2c-0.1-0.1-0.2-0.1-0.3-0.1s-0.2-0.1-0.3-0.1S568.1,257.7,568,257.7"/>
				<path fill="#FFFFFF" d="M568.2,264.8c-0.1,0-0.2,0-0.3,0s-0.2,0-0.3-0.1c-0.1,0-0.2-0.1-0.3-0.1c-0.1-0.1-0.2-0.1-0.2-0.2
					s-0.1-0.2-0.1-0.2c0-0.1,0-0.1,0.1-0.2s0.1-0.1,0.2-0.1s0.2-0.1,0.2-0.1l1.1-0.3c0.1,0,0.2,0,0.2-0.1s0.1,0,0.2-0.1
					s0.1-0.1,0.1-0.1l0.1-0.1l2.8-4.7l0.1-0.1l0.1-0.1c0,0,0.1,0,0.2-0.1c0.1,0,0.2,0,0.2-0.1l1.7-0.4c0.1,0,0.2,0,0.3,0
					s0.2,0,0.3,0.1c0.1,0,0.2,0.1,0.3,0.1s0.1,0.1,0.2,0.1c0,0,0.1,0.1,0.1,0.2s0,0.1,0,0.2s-0.1,0.1-0.1,0.2s-0.2,0.1-0.3,0.1
					l-1,0.2c-0.1,0-0.2,0-0.3,0.1c-0.1,0-0.1,0-0.2,0.1s-0.1,0.1-0.2,0.1l-0.1,0.1l-2.8,4.6l-0.1,0.1l-0.1,0.1c0,0-0.1,0.1-0.2,0.1
					s-0.1,0-0.2,0.1L568.2,264.8 M574,257.1l-1.9,0.4c-0.1,0-0.2,0-0.3,0.1s-0.2,0.1-0.3,0.1s-0.2,0.1-0.2,0.2
					c-0.1,0.1-0.1,0.1-0.2,0.2l-1,1.6l-0.2-0.4c-0.1-0.1-0.1-0.2-0.2-0.2c-0.1-0.1-0.2-0.1-0.3-0.1s-0.2,0-0.3,0s-0.2,0-0.3,0
					s-0.2,0.1-0.3,0.1s-0.2,0.1-0.2,0.2s-0.1,0.1-0.1,0.2s0,0.2,0.1,0.3l0.9,1.5l0,0l-0.9,1.4v0.1c0,0,0,0-0.1,0h-0.1
					c0,0-0.1,0-0.2,0L567,263c-0.2,0-0.4,0.1-0.6,0.2s-0.3,0.2-0.3,0.4c-0.1,0.1-0.1,0.3-0.1,0.4s0.1,0.3,0.1,0.4s0.2,0.3,0.3,0.4
					c0.2,0.1,0.3,0.2,0.5,0.3c0.2,0.1,0.4,0.1,0.7,0.2s0.5,0,0.8,0c0,0,0.1,0,0.2,0s0.3-0.1,0.5-0.1s0.4-0.1,0.6-0.1
					s0.3-0.1,0.4-0.1s0.2,0,0.3-0.1s0.2-0.1,0.3-0.1s0.2-0.1,0.3-0.2s0.2-0.1,0.2-0.2l2.7-4.6c0,0,0,0,0-0.1s0,0,0.1,0s0,0,0.1,0
					s0.1,0,0.1,0s0,0,0.1,0s0.2,0,0.3-0.1c0.1,0,0.3-0.1,0.4-0.1s0.3-0.1,0.4-0.1c0.2,0,0.3-0.1,0.4-0.2s0.2-0.2,0.3-0.3
					c0.1-0.1,0.1-0.3,0.1-0.4s0-0.3-0.2-0.5c-0.1-0.2-0.3-0.3-0.4-0.4s-0.4-0.2-0.6-0.3s-0.4-0.1-0.6-0.1
					C574.4,257.1,574.2,257.1,574,257.1"/>
				<path fill="#FFFFFF" d="M575.3,261.5L575.3,261.5C575.2,261.5,575.2,261.5,575.3,261.5c-0.1,0-0.1,0-0.2,0s0,0,0,0.1l-0.9,1.5
					l-0.4-0.6l-0.1-0.1c0,0-0.1,0-0.1-0.1s-0.1,0-0.2,0c0,0-0.1,0-0.2,0h-0.1c0,0-0.1,0-0.1,0.1s0,0.1,0,0.1v0.1l0.8,1.2l0.1,0.1
					c0,0,0.1,0.1,0.2,0.1c0,0,0.1,0,0.2,0s0.1,0,0.2,0l1.7-0.4c0.1,0,0.2-0.1,0.2-0.1s0-0.1,0-0.2s-0.1-0.1-0.2-0.2
					c-0.1,0-0.2,0-0.3,0l-0.9,0.2l0.9-1.6c0-0.1,0-0.1,0-0.2s-0.1-0.1-0.1-0.1s-0.1-0.1-0.2-0.1
					C575.5,261.5,575.4,261.5,575.3,261.5"/>
				<path fill="#333333" d="M574.3,257.7l-1.7,0.4c-0.1,0-0.2,0-0.2,0.1s-0.1,0-0.2,0.1s-0.1,0-0.1,0.1l-0.1,0.1l-2.8,4.7l-0.1,0.1
					l-0.1,0.1c0,0-0.1,0.1-0.2,0.1c-0.1,0-0.1,0-0.2,0.1l-1.1,0.3c-0.1,0-0.2,0-0.2,0.1s-0.1,0.1-0.2,0.1s-0.1,0.1-0.1,0.2
					s0,0.1,0.1,0.2c0,0.1,0.1,0.2,0.2,0.2c0.1,0.1,0.2,0.1,0.3,0.1s0.2,0.1,0.3,0.1s0.2,0,0.3,0l1.6-0.4c0.1,0,0.2,0,0.2-0.1
					s0.1,0,0.2-0.1s0.1-0.1,0.1-0.1l0.1-0.1l2.8-4.6c0-0.1,0.1-0.1,0.1-0.1s0.1-0.1,0.2-0.1s0.1-0.1,0.2-0.1c0.1,0,0.2,0,0.3-0.1
					l1-0.2c0.1,0,0.2-0.1,0.3-0.1s0.1-0.1,0.1-0.2s0-0.1,0-0.2s0-0.1-0.1-0.2s-0.1-0.1-0.2-0.1s-0.2-0.1-0.3-0.1s-0.2-0.1-0.3-0.1
					S574.4,257.7,574.3,257.7"/>
				<path fill="#BAB5A8" d="M497.9,336.1c-0.1,0-0.1,0-0.2,0.1s-0.1,0.1-0.1,0.1l-0.1,0.1c0,0-0.1,0.1-0.1,0.2l-1.7,3.6
					c0,0,0,0.1-0.1,0.1s0,0.1-0.1,0.1v0.1c0,0,0,0.1,0,0.2s0.1,0.1,0.2,0.2s0.2,0.1,0.3,0.1s0.2,0,0.3,0c0.1,0,0.2,0,0.3,0l2.1-0.5
					l1.5,2.8l0.5,0.9c0,0.1,0.1,0.1,0.2,0.2s0.1,0.1,0.2,0.1s0.2,0,0.3,0.1s0.2,0,0.3,0l1.4-0.3c0.1,0,0.2-0.1,0.3-0.1
					s0.1-0.1,0.2-0.2c0-0.1,0.1-0.1,0.1-0.2s0-0.1,0-0.2l-0.5-0.9l-1.5-2.8l2.1-0.5c0.1,0,0.2,0,0.2-0.1c0.1,0,0.1-0.1,0.2-0.2
					s0.1-0.1,0.1-0.2s0-0.1-0.1-0.2c0-0.1-0.1-0.1-0.1-0.2c0,0-0.1-0.1-0.2-0.1s-0.1-0.1-0.2-0.1s-0.1,0-0.2-0.1l-4.7-2.1
					c-0.1,0-0.2-0.1-0.2-0.1s-0.1,0-0.2-0.1c-0.1,0-0.1,0-0.2,0C498,336.1,497.9,336.1,497.9,336.1"/>
				<path fill="#BAB5A8" d="M523.2,171.8L522,172c-0.1,0-0.2,0-0.2,0.1s-0.1,0.1-0.1,0.1s0,0.1,0,0.2s0,0.1,0,0.2l1.8,2.9l-1.9,0.4
					c-0.1,0-0.2,0-0.2,0.1c-0.1,0-0.1,0.1-0.2,0.1c0,0.1-0.1,0.1-0.1,0.2s0,0.1,0,0.2c0,0.1,0.1,0.1,0.1,0.1l0.1,0.1
					c0,0,0.1,0.1,0.2,0.1s0.1,0,0.2,0.1l4.2,1.7c0.1,0,0.1,0.1,0.2,0.1s0.1,0,0.2,0.1c0.1,0,0.1,0,0.2,0s0.1,0,0.2,0
					c0.1,0,0.1,0,0.2-0.1l0.1-0.1l0.1-0.1c0,0,0-0.1,0.1-0.1l1.4-2.8c0,0,0-0.1,0.1-0.1s0-0.1,0-0.1v-0.1v-0.1
					c0-0.1-0.1-0.1-0.2-0.2s-0.1-0.1-0.2-0.1s-0.2,0-0.3,0s-0.2,0-0.2,0l-1.9,0.4l-1.8-2.9c0-0.1-0.1-0.1-0.2-0.1s-0.1-0.1-0.2-0.1
					c-0.1,0-0.2,0-0.3-0.1S523.3,171.8,523.2,171.8"/>
			</g>
		</g>
	</g>
</g>
</svg>
