<?xml version="1.0" encoding="utf-8"?>
<!-- Generator: Adobe Illustrator 17.1.0, SVG Export Plug-In . SVG Version: 6.00 Build 0)  -->
<!DOCTYPE svg PUBLIC "-//W3C//DTD SVG 1.1//EN" "http://www.w3.org/Graphics/SVG/1.1/DTD/svg11.dtd">
<svg version="1.1" id="Layer_1" xmlns="http://www.w3.org/2000/svg" xmlns:xlink="http://www.w3.org/1999/xlink" x="0px" y="0px"
	 width="1000px" height="600px" viewBox="0 0 1000 600" enable-background="new 0 0 1000 600" xml:space="preserve">
<g id="base-underground">
	<g>
		<g enable-background="new    ">
			<g>
				<polygon fill="#8F8D80" points="736,170 735.6,171.3 715.4,145.7 715.7,144.4 				"/>
			</g>
			<g>
				<polygon fill="#8F8C80" points="697.5,190 697.2,191.3 689.1,180.6 689.4,179.2 				"/>
			</g>
			<g>
				<polygon fill="#8E8C7F" points="438.3,203.4 438.2,204.8 432.6,194.8 432.7,193.4 				"/>
			</g>
			<g>
				<polygon fill="#A9A697" points="899.3,233.8 898.8,235.1 803.3,256.9 803.8,255.5 				"/>
			</g>
			<g>
				<polygon fill="#8F8D80" points="803.8,255.5 803.3,256.9 794.5,245.7 794.9,244.4 				"/>
			</g>
			<g>
				<polygon fill="#AAA798" points="794.9,244.4 794.5,245.7 751.7,255.3 752.1,254 				"/>
			</g>
			<g>
				<polygon fill="#8E8C7F" points="415.6,216.9 415.5,218.3 411.1,210 411.2,208.6 				"/>
			</g>
			<g>
				<polygon fill="#A8A596" points="776.9,286.7 776.5,288.1 751.9,293.9 752.3,292.5 				"/>
			</g>
			<g>
				<polygon fill="#8E8C7F" points="334.3,265.6 334.3,267.1 323,242.3 323,240.9 				"/>
			</g>
			<g>
				<polygon fill="#8E8C7F" points="103.4,257.2 103.7,258.6 102,252.9 101.7,251.4 				"/>
			</g>
			<g>
				<polygon fill="#A4A293" points="790.6,344.5 790.2,345.9 728.2,361.8 728.6,360.4 				"/>
			</g>
			<g>
				<polygon fill="#A7A595" points="511,356.3 510.9,357.8 495,361.5 495.1,360.1 				"/>
			</g>
			<g>
				<polygon fill="#959386" points="537.8,366 537.6,367.4 510.9,357.8 511,356.3 				"/>
			</g>
			<g>
				<polygon fill="#A3A192" points="495.1,360.1 495,361.5 489.2,371 489.4,369.5 				"/>
			</g>
			<g>
				<polygon fill="#8E8C7F" points="557.8,401.6 557.6,403.1 537.6,367.4 537.8,366 				"/>
			</g>
			<g>
				<polygon fill="#A7A495" points="489.4,369.5 489.2,371 372,399 372.1,397.6 				"/>
			</g>
			<g>
				<polygon fill="#8E8C7F" points="372.1,397.6 372,399 368.7,391.5 368.8,390 				"/>
			</g>
			<g>
				<polygon fill="#959385" points="784.8,442 784.3,443.4 776.6,464.2 777.1,462.8 				"/>
			</g>
			<g>
				<polygon fill="#A7A595" points="368.8,390 368.7,391.5 307.6,406 307.6,404.5 				"/>
			</g>
			<g>
				<polygon fill="#8E8C7F" points="588,497.1 587.7,498.5 538.3,407.9 538.5,406.5 				"/>
			</g>
			<g>
				<polygon fill="#9F9C8E" points="777.1,462.8 776.6,464.2 617.3,509.7 617.6,508.3 				"/>
			</g>
			<g>
				<polygon fill="#929083" points="617.6,508.3 617.3,509.7 587.7,498.5 588,497.1 				"/>
			</g>
			<g>
				<polygon fill="#8E8C7F" points="102.3,461.1 102.6,462.6 55.6,281.5 55.3,280.1 				"/>
			</g>
			<g>
				<polygon fill="#8F8D80" points="131.4,473 131.7,474.5 102.6,462.6 102.3,461.1 				"/>
			</g>
			<g>
				<polygon fill="#DED9C3" points="128.9,246.3 130.7,252 217.3,235.5 248.3,261.6 272.5,256.9 280.7,276.5 334.3,265.6 323,240.9 
					374.5,224.9 415.6,216.9 411.2,208.6 438.3,203.4 432.7,193.4 550.7,171 577.1,178.1 580,182.4 606.4,177.3 641.8,188.9 
					649.5,199.7 697.5,190 689.4,179.2 736,170 715.7,144.4 814.6,136.8 899.3,233.8 803.8,255.5 794.9,244.4 752.1,254 
					776.9,286.7 752.3,292.5 790.6,344.5 728.6,360.4 784.8,442 777.1,462.8 617.6,508.3 588,497.1 538.5,406.5 557.8,401.6 
					537.8,366 511,356.3 495.1,360.1 489.4,369.5 372.1,397.6 368.8,390 307.6,404.5 316.9,427.9 131.4,473 102.3,461.1 55.3,280.1 
					72.7,263 103.4,257.2 101.7,251.4 				"/>
			</g>
			<g>
				<polygon fill="#A6A394" points="316.9,427.9 316.9,429.3 131.7,474.5 131.4,473 				"/>
			</g>
		</g>
	</g>
</g>
<g>
	<g enable-background="new    ">
		<g>
			<polygon fill="#006765" points="738.5,161.8 736.5,169.9 716.3,144.4 718.2,136.2 			"/>
		</g>
		<g>
			<polygon fill="#006765" points="782.1,216.5 779.8,224.7 766.1,207.4 768.3,199.3 			"/>
		</g>
		<g>
			<polygon fill="#006663" points="721,209.3 719,217.5 690.3,179.2 692.1,171 			"/>
		</g>
		<g>
			<polygon fill="#006D6A" points="768.3,199.3 766.1,207.4 719,217.5 721,209.3 			"/>
		</g>
		<g>
			<polygon fill="#006764" points="770.1,231.4 767.8,239.7 759.7,229.1 761.9,220.9 			"/>
		</g>
		<g>
			<polygon fill="#4F837F" points="670.7,219.9 668.9,228.2 649,200 650.6,191.8 			"/>
		</g>
		<g>
			<polygon fill="#578F89" points="719.4,209.6 717.4,217.9 668.9,228.2 670.7,219.9 			"/>
		</g>
		<g>
			<polygon fill="#568D88" points="767.6,230.6 765.3,238.9 744.1,243.6 746.2,235.4 			"/>
		</g>
		<g>
			<polygon fill="#508681" points="746.2,235.4 744.1,243.6 736.9,234.1 739.1,225.9 			"/>
		</g>
		<g>
			<polygon fill="#006765" points="804.6,244.8 802.1,253 793.3,241.9 795.8,233.7 			"/>
		</g>
		<g>
			<polygon fill="#006B68" points="896.9,223.9 894,232 802.1,253 804.6,244.8 			"/>
		</g>
		<g>
			<polygon fill="#006B68" points="795.8,233.7 793.3,241.9 761.6,249 763.9,240.8 			"/>
		</g>
		<g>
			<polygon fill="#006664" points="763.9,240.8 761.6,249 756.4,242.2 758.6,234 			"/>
		</g>
		<g>
			<polygon fill="#006360" points="595.2,220.5 593.9,228.9 584.9,215.1 586.2,206.7 			"/>
		</g>
		<g>
			<polygon fill="#006E6B" points="586.2,206.7 584.9,215.1 538.7,224.5 539.8,216.1 			"/>
		</g>
		<g>
			<polygon fill="#E1E1E1" points="585,208.2 592.5,219.7 566.5,225.1 559.1,213.5 			"/>
		</g>
		<g>
			<polygon fill="#A2A3A5" points="592.5,219.7 591.2,228.1 565.3,233.5 566.5,225.1 			"/>
		</g>
		<g>
			<polygon fill="#919294" points="566.5,225.1 565.3,233.5 557.9,221.9 559.1,213.5 			"/>
		</g>
		<g>
			<polygon fill="#4C807B" points="716.4,251.4 714.3,259.7 705.9,240.9 707.9,232.6 			"/>
		</g>
		<g>
			<polygon fill="#558C87" points="762.3,241.1 760,249.4 714.3,259.7 716.4,251.4 			"/>
		</g>
		<g>
			<polygon fill="#006D6A" points="669,220.2 667.3,228.5 592.3,244.5 593.7,236.1 			"/>
		</g>
		<g>
			<polygon fill="#006360" points="593.7,236.1 592.3,244.5 583.6,231 584.9,222.6 			"/>
		</g>
		<g>
			<polygon fill="#006F6C" points="464.8,218.1 464.1,226.6 454.5,228.6 455.1,220.1 			"/>
		</g>
		<g>
			<polygon fill="#00605D" points="455.1,220.1 454.5,228.6 435.2,193.6 435.6,185.1 			"/>
		</g>
		<g>
			<polygon fill="#4E827E" points="660.5,252.6 658.7,260.9 652.6,251.9 654.3,243.6 			"/>
		</g>
		<g>
			<polygon fill="#568D88" points="672.9,249.9 671.1,258.2 658.7,260.9 660.5,252.6 			"/>
		</g>
		<g>
			<polygon fill="#00605D" points="471.1,229.4 470.5,237.8 464.1,226.6 464.8,218.1 			"/>
		</g>
		<g>
			<polygon fill="#00625F" points="539.8,216.1 538.7,224.5 523.8,247.6 524.8,239.1 			"/>
		</g>
		<g>
			<polygon fill="#568D88" points="658.8,253 657.1,261.3 627.8,267.8 629.3,259.4 			"/>
		</g>
		<g>
			<polygon fill="#4D817D" points="629.3,259.4 627.8,267.8 621.7,258.7 623.3,250.3 			"/>
		</g>
		<g>
			<polygon fill="#4E837E" points="697.7,279.8 695.7,288.1 681.9,268.4 683.8,260 			"/>
		</g>
		<g>
			<polygon fill="#00605D" points="471.9,250.1 471.2,258.6 460.8,239.8 461.4,231.3 			"/>
		</g>
		<g>
			<polygon fill="#006E6B" points="524.8,239.1 523.8,247.6 471.2,258.6 471.9,250.1 			"/>
		</g>
		<g>
			<polygon fill="#548A86" points="774.5,276.6 772.1,284.8 672,308.5 673.8,300.1 			"/>
		</g>
		<g>
			<polygon fill="#4E827D" points="673.8,300.1 672,308.5 663.3,295.6 665.2,287.3 			"/>
		</g>
	</g>
	<g enable-background="new    ">
		<g>
			<polygon fill="#548B86" points="630.7,297.4 629.1,305.8 602.8,311.9 604.3,303.5 			"/>
		</g>
		<g>
			<polygon fill="#4C807B" points="604.3,303.5 602.8,311.9 590.8,292.5 592.2,284.1 			"/>
		</g>
	</g>
	<g enable-background="new    ">
		<g>
			<polygon fill="#4A7D78" points="418.6,208.5 418.2,217 413.8,208.7 414.1,200.2 			"/>
		</g>
		<g>
			<polygon fill="#4A7C78" points="385.6,232.6 385.4,241.1 377.4,225 377.5,216.5 			"/>
		</g>
		<g>
			<polygon fill="#58918C" points="452.7,219.2 452.1,227.7 385.4,241.1 385.6,232.6 			"/>
		</g>
		<g>
			<polygon fill="#4A7C78" points="421.2,274.7 420.8,283.2 398.7,239.8 399,231.3 			"/>
		</g>
		<g>
			<polygon fill="#578E89" points="468,264.8 467.3,273.3 420.8,283.2 421.2,274.7 			"/>
		</g>
		<g>
			<polygon fill="#515353" points="666.1,316.3 664.3,324.7 665.5,311.5 667.4,303.1 			"/>
		</g>
		<g>
			<polygon fill="#4E827D" points="419.4,275.1 419,283.6 406.9,300.6 407.2,292 			"/>
		</g>
		<g>
			<polygon fill="#5A5B5B" points="788.1,334.1 785.5,342.4 724,358.2 726.2,349.9 			"/>
		</g>
		<g>
			<polygon fill="#568E89" points="407.2,292 406.9,300.6 358.4,311.2 358.4,302.5 			"/>
		</g>
		<g>
			<polygon fill="#497B77" points="358.4,302.5 358.4,311.2 326.2,241 326.1,232.4 			"/>
		</g>
		<g>
			<polygon fill="#548A86" points="574.9,323.2 573.6,331.7 525,343.1 526.1,334.6 			"/>
		</g>
		<g>
			<polygon fill="#535455" points="561,392.8 559.7,401.3 527.7,344 528.7,335.6 			"/>
		</g>
		<g>
			<polygon fill="#538984" points="536.7,353.5 535.5,361.9 511.7,353.3 512.7,344.8 			"/>
		</g>
		<g>
			<polygon fill="#548A85" points="512.7,344.8 511.7,353.3 493.8,357.6 494.6,349.1 			"/>
		</g>
		<g>
			<polygon fill="#4A7D78" points="494.6,349.1 493.8,357.6 468.3,309.8 469,301.3 			"/>
		</g>
		<g>
			<polygon fill="#515353" points="782.2,431.1 779.4,439.3 771.7,460 774.4,451.8 			"/>
		</g>
		<g>
			<polygon fill="#535454" points="589.6,484.7 588,493.1 540.5,406.2 541.7,397.7 			"/>
		</g>
		<g>
			<polygon fill="#585959" points="619.2,495.9 617.3,504.2 588,493.1 589.6,484.7 			"/>
		</g>
		<g>
			<polygon fill="#575858" points="774.4,451.8 771.7,460 617.3,504.2 619.2,495.9 			"/>
		</g>
		<g>
			<polygon fill="#808080" points="750.9,283.6 788.1,334.1 726.2,349.9 782.2,431.1 774.4,451.8 619.2,495.9 589.6,484.7 
				541.7,397.7 561,392.8 528.7,335.6 575.3,324.7 591.3,334.1 666.1,316.3 667.4,303.1 			"/>
		</g>
	</g>
	<g enable-background="new    ">
		<g>
			<polygon fill="#525454" points="106.8,248.6 108.3,257.4 106.6,251.7 105.1,242.9 			"/>
		</g>
		<g>
			<polygon fill="#606161" points="264,284 264.5,292.7 236.5,298.6 235.8,289.8 			"/>
		</g>
		<g>
			<polygon fill="#497B77" points="295.7,301.3 296.1,309.9 282.4,277 282,268.4 			"/>
		</g>
		<g>
			<polygon fill="#497B77" points="336,307.4 336.1,316 315.9,270.2 315.6,261.5 			"/>
		</g>
		<g>
			<polygon fill="#578E89" points="328.1,294.4 328.3,303 296.1,309.9 295.7,301.3 			"/>
		</g>
		<g>
			<polygon fill="#568E89" points="356.5,303 356.4,311.6 336.1,316 336,307.4 			"/>
		</g>
		<g>
			<polygon fill="#5F6161" points="293.8,301.7 294.1,310.4 273.3,314.8 272.8,306.1 			"/>
		</g>
		<g>
			<polygon fill="#525454" points="272.8,306.1 273.3,314.8 264.5,292.7 264,284 			"/>
		</g>
		<g>
			<polygon fill="#4A7C78" points="447.6,342.9 447,351.4 437.1,331.9 437.7,323.3 			"/>
		</g>
		<g>
			<polygon fill="#548B86" points="445,341.9 444.4,350.5 423.1,355.4 423.6,346.9 			"/>
		</g>
		<g>
			<polygon fill="#4B7F7A" points="493.1,349.5 492.2,358 486.4,367.4 487.2,358.8 			"/>
		</g>
		<g>
			<polygon fill="#538A85" points="487.2,358.8 486.4,367.4 436.9,379.2 437.5,370.6 			"/>
		</g>
		<g>
			<polygon fill="#497C77" points="437.5,370.6 436.9,379.2 425.8,356.4 426.2,347.8 			"/>
		</g>
		<g>
			<polygon fill="#606161" points="238.3,296.5 239,305.3 76.1,339.4 74.3,330.6 			"/>
		</g>
		<g>
			<polygon fill="#525454" points="74.3,330.6 76.1,339.4 60.6,280.3 58.8,271.4 			"/>
		</g>
		<g>
			<polygon fill="#838383" points="128.3,238.5 130.1,244.2 218.6,227.4 249.6,253.5 271.8,249.1 293.8,301.7 272.8,306.1 264,284 
				235.8,289.8 238.3,296.5 74.3,330.6 58.8,271.4 76.1,254.4 106.8,248.6 105.1,242.9 			"/>
		</g>
		<g>
			<polygon fill="#538A85" points="435.5,371.1 435,379.7 374,394.3 374.2,385.7 			"/>
		</g>
		<g>
			<polygon fill="#497B77" points="374.2,385.7 374,394.3 348.4,336.6 348.4,328 			"/>
		</g>
		<g>
			<polygon fill="#5C5D5D" points="368.8,378.7 368.7,387.3 306,402.3 305.7,393.6 			"/>
		</g>
		<g>
			<polygon fill="#525353" points="105.3,448.7 107,457.5 77,343 75.3,334.1 			"/>
		</g>
		<g>
			<polygon fill="#555657" points="134.4,460.5 135.8,469.2 107,457.5 105.3,448.7 			"/>
		</g>
		<g>
			<polygon fill="#5B5C5D" points="315,416.8 315.2,425.4 135.8,469.2 134.4,460.5 			"/>
		</g>
		<g>
			<polygon fill="#818182" points="261,295.4 279.9,343.1 346.4,328.4 368.8,378.7 305.7,393.6 315,416.8 134.4,460.5 105.3,448.7 
				75.3,334.1 			"/>
		</g>
	</g>
</g>
<g id="landmarks-underground">
	<polygon fill="#7BC3BB" points="698.6,182 719.4,209.6 670.7,219.9 650.6,191.8 	"/>
	<polygon fill="#7BC3BB" points="760.3,221.3 767.6,230.6 746.2,235.4 739.1,225.9 	"/>
	<polygon fill="#0E9491" points="718.2,136.2 814.2,129.3 896.9,223.9 804.6,244.8 795.8,233.7 763.9,240.8 758.6,234 770.1,231.4 
		761.9,220.9 782.1,216.5 768.3,199.3 721,209.3 692.1,171 738.5,161.8 	"/>
	<polygon fill="#7AC3BB" points="737.5,226.2 745.5,236.9 757.1,234.3 762.3,241.1 716.4,251.4 707.9,232.6 	"/>
	<polygon fill="#7BC3BB" points="666.7,240.9 672.9,249.9 660.5,252.6 654.3,243.6 	"/>
	<polygon fill="#7BC3BB" points="652.6,243.9 658.8,253 629.3,259.4 623.3,250.3 	"/>
	<polygon id="petco" fill="#0C9591" points="550.1,163.4 576.5,170.5 579.4,174.8 606,169.6 641.3,181.3 669,220.2 593.7,236.1 
		584.9,222.6 595.2,220.5 586.2,206.7 539.8,216.1 524.8,239.1 471.9,250.1 461.4,231.3 471.1,229.4 464.8,218.1 455.1,220.1 
		435.6,185.1 	"/>
	<polygon fill="#7BC3BB" points="750.7,245.1 774.5,276.6 673.8,300.1 665.2,287.3 697.7,279.8 683.8,260 	"/>
	<polygon fill="#7BC3BB" points="618.3,278.3 630.7,297.4 604.3,303.5 592.2,284.1 	"/>
	<polygon fill="#7BC3BB" points="439.4,195.4 452.7,219.2 385.6,232.6 377.5,216.5 418.6,208.5 414.1,200.2 	"/>
	<polygon fill="#7BC3BB" points="444.6,222.2 468,264.8 421.2,274.7 399,231.3 	"/>
	<polygon id="gap" fill="#7BC3BB" points="375.7,216.8 384.4,234.1 397.1,231.6 419.4,275.1 407.2,292 358.4,302.5 326.1,232.4 	"/>
	<polygon fill="#7BC3BB" points="532.5,287.2 544.6,307.8 563.1,303.6 574.9,323.2 526.1,334.6 536.7,353.5 512.7,344.8 
		494.6,349.1 469,301.3 	"/>
	<polygon fill="#7BC3BB" points="313.7,261.9 328.1,294.4 295.7,301.3 282,268.4 	"/>
	<polygon fill="#7BC3BB" points="335.6,257.5 356.5,303 336,307.4 315.6,261.5 	"/>
	<polygon fill="#7BC3BB" points="474.6,315 493.1,349.5 487.2,358.8 437.5,370.6 426.2,347.8 447.6,342.9 437.7,323.3 	"/>
	<polygon fill="#7BC3BB" points="407.9,314.8 435.8,323.7 445,341.9 423.6,346.9 435.5,371.1 374.2,385.7 348.4,328 	"/>
</g>
<g>
	<g>
		<g>
			<g>
				<path fill="#333333" d="M434.6,215.8h-0.1h-0.1l-0.1-0.1v-0.1l-0.1-1.6c0-0.1,0-0.1,0-0.2c0-0.1,0.1-0.1,0.1-0.2
					s0.1-0.1,0.2-0.2s0.2-0.1,0.3-0.1l0.5-0.1l0.5-0.1c0.1,0,0.3,0,0.4,0s0.2,0,0.4,0.1c0.1,0,0.2,0.1,0.3,0.1s0.1,0.1,0.2,0.1
					l1.5,1.3l0.1,0.1v0.1c0,0,0,0.1-0.1,0.1c0,0-0.1,0-0.1,0.1h-0.1h-0.1h-0.1c0,0-0.1,0-0.1-0.1l-1.3-1.2h-0.2l2.3,2.2l-1,0.2
					l1,1.8v0.1v0.1c0,0,0,0.1-0.1,0.1s-0.1,0-0.1,0h-0.1h-0.1c0,0-0.1,0-0.1-0.1l-0.1-0.1l-1-1.8h-0.2l1,1.8v0.1v0.1l-0.1,0.1h-0.1
					h-0.1h-0.1c0,0-0.1,0-0.1-0.1s-0.1-0.1-0.1-0.1l-1-1.8l-1,0.2l-0.3-2.6H435l0.1,1.5v0.1v0.1c0,0,0,0-0.1,0.1
					C434.6,215.8,434.6,215.8,434.6,215.8 M441.4,214.7h-0.1h-0.1c0,0-0.1,0-0.1-0.1s-0.1-0.1-0.1-0.1l-0.9-1.6
					c0-0.1-0.1-0.2-0.1-0.3s0-0.2,0.1-0.3s0.1-0.1,0.2-0.2s0.2-0.1,0.4-0.1l1.6-0.3c0.1,0,0.3,0,0.4,0s0.3,0.1,0.4,0.1
					c0.1,0.1,0.2,0.1,0.3,0.2c0.1,0.1,0.2,0.1,0.2,0.2l0.9,1.6v0.1v0.1c0,0,0,0.1-0.1,0.1h-0.1h-0.1h-0.1c0,0-0.1,0-0.1-0.1
					s-0.1-0.1-0.1-0.1l-0.8-1.4h-0.2l2.2,4c0,0.1,0,0.1,0,0.1v0.1l-0.1,0.1c0,0-0.1,0-0.1,0.1c-0.1,0-0.1,0-0.2,0s-0.1,0-0.2,0
					s-0.1,0-0.1-0.1l-0.1-0.1l-1.3-2.3h-0.2l1.3,2.3c0,0.1,0,0.1,0,0.1v0.1L444,217c0,0-0.1,0-0.1,0.1c-0.1,0-0.1,0-0.2,0
					s-0.1,0-0.2,0c0,0-0.1,0-0.1-0.1s-0.1-0.1-0.1-0.1l-2.2-4h-0.2l0.8,1.4v0.1v0.1c0,0,0,0.1-0.1,0.1S441.5,214.7,441.4,214.7
					 M440.8,217.7l-3.4-6.2l0.9-0.2l3.4,6.2L440.8,217.7 M435.1,213.1c-0.1,0-0.2,0-0.3,0c-0.1,0-0.2,0-0.3-0.1s-0.2-0.1-0.3-0.1
					s-0.1-0.1-0.2-0.2s0-0.1,0-0.2c0-0.1,0-0.1,0.1-0.2c0-0.1,0.1-0.1,0.2-0.2c0.1,0,0.2-0.1,0.3-0.1c0.1,0,0.2,0,0.3,0
					c0.1,0,0.2,0,0.3,0.1s0.2,0.1,0.3,0.1s0.1,0.1,0.2,0.2c0,0.1,0,0.1,0,0.2c0,0.1,0,0.1-0.1,0.2c0,0.1-0.1,0.1-0.2,0.2
					C435.3,213,435.3,213,435.1,213.1 M441.4,211.8c-0.1,0-0.2,0-0.3,0c-0.1,0-0.2,0-0.3-0.1s-0.2-0.1-0.3-0.1s-0.1-0.1-0.2-0.2
					s0-0.1,0-0.2c0-0.1,0-0.1,0.1-0.2c0-0.1,0.1-0.1,0.2-0.2s0.2-0.1,0.3-0.1c0.1,0,0.2,0,0.3,0s0.2,0,0.3,0.1s0.2,0.1,0.3,0.1
					s0.1,0.1,0.2,0.2c0,0.1,0,0.1,0,0.2s0,0.1-0.1,0.2s-0.1,0.1-0.2,0.2C441.6,211.8,441.5,211.8,441.4,211.8 M442.2,208.9
					l-10.9,2.1c-0.3,0.1-0.5,0.1-0.6,0.2c-0.2,0.1-0.3,0.2-0.4,0.3s-0.1,0.2-0.1,0.4c0,0.1,0,0.3,0.1,0.5l4,7.3
					c0.1,0.2,0.2,0.3,0.3,0.4c0.1,0.1,0.3,0.2,0.5,0.3s0.4,0.1,0.6,0.1s0.5,0,0.7-0.1l11.1-2.2c0.3-0.1,0.5-0.1,0.6-0.2
					s0.3-0.2,0.4-0.3s0.1-0.2,0.1-0.4s-0.1-0.3-0.1-0.5l-4-7.3c-0.1-0.2-0.2-0.3-0.3-0.4s-0.3-0.2-0.5-0.3s-0.4-0.1-0.6-0.1
					S442.4,208.8,442.2,208.9"/>
				<polyline fill="#FFFFFF" points="438.3,211.4 437.4,211.6 440.8,217.7 441.6,217.6 438.3,211.4 				"/>
				<path fill="#FFFFFF" d="M434.6,212c-0.1,0-0.2,0.1-0.3,0.1c-0.1,0-0.1,0.1-0.2,0.2c0,0.1-0.1,0.1-0.1,0.2c0,0.1,0,0.1,0,0.2
					c0,0.1,0.1,0.1,0.2,0.2c0.1,0.1,0.2,0.1,0.3,0.1s0.2,0.1,0.3,0.1c0.1,0,0.2,0,0.3,0c0.1,0,0.2-0.1,0.3-0.1
					c0.1,0,0.1-0.1,0.2-0.2c0-0.1,0.1-0.1,0.1-0.2c0-0.1,0-0.1,0-0.2c0-0.1-0.1-0.1-0.2-0.2c-0.1-0.1-0.2-0.1-0.3-0.1
					s-0.2-0.1-0.3-0.1C434.8,212,434.7,212,434.6,212"/>
				<path fill="#FFFFFF" d="M435.7,213.1l-0.5,0.1l-0.5,0.1c-0.1,0-0.3,0.1-0.3,0.1s-0.2,0.1-0.2,0.2c0,0.1-0.1,0.1-0.1,0.2
					s0,0.1,0,0.2l0.1,1.6c0,0.1,0,0.1,0,0.1l0.1,0.1h0.1h0.1h0.1c0,0,0,0,0.1-0.1c0,0,0,0,0-0.1s0-0.1,0-0.1l-0.1-1.5h0.2l0.3,2.6
					l1-0.2l1,1.8c0,0,0,0.1,0.1,0.1s0.1,0.1,0.1,0.1h0.1h0.1h0.1c0,0,0.1,0,0.1-0.1v-0.1v-0.1l-1-1.8h0.2l1,1.8c0,0,0,0.1,0.1,0.1
					s0.1,0,0.1,0.1h0.1h0.1h0.1c0,0,0.1,0,0.1-0.1v-0.1V218l-1-1.8l1-0.2l-2.3-2.2h0.2l1.3,1.2l0.1,0.1h0.1h0.1h0.1
					c0,0,0.1,0,0.1-0.1s0.1-0.1,0.1-0.1v-0.1c0,0,0-0.1-0.1-0.1l-1.5-1.3c0,0-0.1-0.1-0.2-0.1s-0.2-0.1-0.3-0.1s-0.2-0.1-0.4-0.1
					C436,213.1,435.9,213.1,435.7,213.1"/>
				<path fill="#FFFFFF" d="M442.3,211.8l-1.6,0.3c-0.1,0-0.3,0.1-0.4,0.1s-0.2,0.1-0.2,0.2c0,0.1-0.1,0.2-0.1,0.3s0,0.2,0.1,0.3
					l0.9,1.6c0,0,0,0.1,0.1,0.1s0.1,0,0.1,0.1h0.1h0.1h0.1c0,0,0.1,0,0.1-0.1v-0.1v-0.1l-0.8-1.4h0.2l2.2,4c0,0.1,0.1,0.1,0.1,0.1
					l0.1,0.1c0,0,0.1,0,0.2,0s0.1,0,0.2,0s0.1,0,0.1-0.1l0.1-0.1V217v-0.1l-1.3-2.3h0.2l1.3,2.3c0,0.1,0.1,0.1,0.1,0.1l0.1,0.1
					c0.1,0,0.1,0,0.2,0s0.1,0,0.2,0s0.1,0,0.1-0.1s0.1-0.1,0.1-0.1v-0.1v-0.1l-2.2-4h0.2l0.8,1.4c0,0,0,0.1,0.1,0.1s0.1,0,0.1,0.1
					h0.1h0.1h0.1c0,0,0.1,0,0.1-0.1s0-0.1,0-0.1V214l-0.9-1.6c0-0.1-0.1-0.2-0.2-0.2c-0.1-0.1-0.2-0.1-0.3-0.2
					c-0.1-0.1-0.3-0.1-0.4-0.1C442.6,211.8,442.5,211.8,442.3,211.8"/>
				<path fill="#FFFFFF" d="M440.9,210.8c-0.1,0-0.2,0.1-0.3,0.1s-0.1,0.1-0.2,0.2c0,0.1-0.1,0.1-0.1,0.2c0,0.1,0,0.1,0,0.2
					c0,0.1,0.1,0.1,0.2,0.2s0.2,0.1,0.3,0.1s0.2,0.1,0.3,0.1c0.1,0,0.2,0,0.3,0c0.1,0,0.2-0.1,0.3-0.1c0.1,0,0.1-0.1,0.2-0.2
					c0-0.1,0.1-0.1,0.1-0.2s0-0.1,0-0.2c0-0.1-0.1-0.1-0.2-0.2c-0.1-0.1-0.2-0.1-0.3-0.1s-0.2-0.1-0.3-0.1S441,210.8,440.9,210.8"/>
				<path fill="#333333" d="M574.9,272.3c-0.1,0-0.2,0-0.3,0s-0.2-0.1-0.2-0.2s0-0.1,0-0.2s0.1-0.1,0.2-0.1l1.7-0.4
					c0.1,0,0.1,0,0.2,0c0.1,0,0.1,0,0.2,0s0.1,0,0.2,0.1l0.1,0.1l0.8,1.2v0.1v0.1c0,0,0,0-0.1,0.1h-0.1c0,0-0.1,0-0.2,0
					c0,0-0.1,0-0.2,0s-0.1,0-0.1-0.1s-0.1-0.1-0.1-0.1l-0.4-0.6l-0.9,1.5c0,0,0,0,0,0.1c0,0,0,0-0.1,0c0,0,0,0-0.1,0c0,0,0,0-0.1,0
					s-0.2,0-0.2,0c-0.1,0-0.2,0-0.2-0.1c-0.1,0-0.1-0.1-0.1-0.1s0-0.1,0-0.2l0.9-1.6L574.9,272.3 M571.2,269.7l1-1.6
					c0-0.1,0.1-0.1,0.2-0.2s0.2-0.1,0.2-0.2c0.1,0,0.2-0.1,0.3-0.1s0.2-0.1,0.3-0.1l1.9-0.4c0.2,0,0.3,0,0.5,0s0.4,0.1,0.6,0.1
					c0.2,0.1,0.4,0.2,0.6,0.3s0.3,0.3,0.4,0.4c0.1,0.2,0.2,0.3,0.2,0.5s0,0.3-0.1,0.4s-0.2,0.3-0.3,0.3c-0.1,0.1-0.3,0.1-0.4,0.2
					c-0.1,0-0.3,0.1-0.4,0.1c-0.1,0-0.3,0.1-0.4,0.1s-0.2,0-0.3,0.1s-0.1,0-0.1,0h-0.1h-0.1c0,0,0,0-0.1,0l0,0l-2.7,4.6
					c-0.1,0.1-0.1,0.2-0.2,0.2c-0.1,0.1-0.2,0.1-0.3,0.2c-0.1,0-0.2,0.1-0.3,0.1s-0.2,0.1-0.3,0.1s-0.3,0.1-0.4,0.1
					c-0.2,0-0.4,0.1-0.6,0.1s-0.4,0.1-0.5,0.1s-0.2,0-0.2,0c-0.3,0.1-0.5,0.1-0.8,0c-0.2,0-0.5-0.1-0.7-0.2s-0.4-0.2-0.5-0.3
					c-0.2-0.1-0.3-0.3-0.3-0.4c-0.1-0.1-0.1-0.3-0.1-0.4s0-0.3,0.1-0.4s0.2-0.3,0.3-0.4c0.2-0.1,0.3-0.2,0.6-0.2l0.9-0.2
					c0.1,0,0.1,0,0.2,0s0.1,0,0.1,0s0,0,0.1,0s0,0,0-0.1l0.9-1.4l0,0l-0.9-1.5c-0.1-0.1-0.1-0.2-0.1-0.3s0-0.2,0.1-0.2
					c0-0.1,0.1-0.1,0.2-0.2s0.2-0.1,0.3-0.1s0.2,0,0.3,0s0.2,0,0.3,0s0.2,0.1,0.3,0.1s0.2,0.1,0.2,0.2L571.2,269.7 M569.7,268.8
					c-0.1,0-0.2,0-0.3,0s-0.2,0-0.3-0.1c-0.1,0-0.2-0.1-0.3-0.1s-0.2-0.1-0.2-0.2s-0.1-0.2-0.1-0.2c0-0.1,0-0.2,0.1-0.2
					s0.1-0.1,0.2-0.2s0.2-0.1,0.3-0.1s0.2,0,0.3,0s0.2,0,0.3,0.1c0.1,0,0.2,0.1,0.3,0.1c0.1,0.1,0.2,0.1,0.2,0.2s0.1,0.2,0.1,0.2
					c0,0.1,0,0.1-0.1,0.2s-0.1,0.1-0.2,0.2C569.9,268.7,569.8,268.8,569.7,268.8 M574.4,264.8l-10.9,2.4c-0.3,0-0.5,0.1-0.6,0.2
					c-0.2,0.1-0.3,0.2-0.4,0.3c-0.1,0.1-0.1,0.3-0.1,0.4c0,0.2,0.1,0.3,0.2,0.5l4.8,7.8c0.1,0.2,0.2,0.3,0.4,0.5
					c0.2,0.1,0.3,0.2,0.5,0.3c0.2,0.1,0.4,0.1,0.6,0.1s0.5,0,0.7-0.1l11-2.4c0.3-0.1,0.5-0.1,0.6-0.2c0.2-0.1,0.3-0.2,0.3-0.3
					c0.1-0.1,0.1-0.3,0.1-0.4s-0.1-0.3-0.2-0.5l-4.8-7.8c-0.1-0.2-0.3-0.3-0.4-0.5s-0.3-0.2-0.5-0.3c-0.2-0.1-0.4-0.1-0.6-0.1
					C574.9,264.7,574.6,264.7,574.4,264.8"/>
				<path fill="#FFFFFF" d="M569,267.6c-0.1,0-0.2,0.1-0.3,0.1s-0.1,0.1-0.2,0.2s-0.1,0.1-0.1,0.2s0,0.2,0.1,0.2s0.1,0.1,0.2,0.2
					s0.2,0.1,0.3,0.1s0.2,0.1,0.3,0.1s0.2,0,0.3,0s0.2-0.1,0.3-0.1s0.1-0.1,0.2-0.2s0.1-0.1,0.1-0.2s0-0.2-0.1-0.2s-0.1-0.1-0.2-0.2
					c-0.1-0.1-0.2-0.1-0.3-0.1s-0.2-0.1-0.3-0.1S569.1,267.6,569,267.6"/>
				<path fill="#FFFFFF" d="M569.2,274.7c-0.1,0-0.2,0-0.3,0s-0.2,0-0.3-0.1c-0.1,0-0.2-0.1-0.3-0.1c-0.1-0.1-0.2-0.1-0.2-0.2
					s-0.1-0.2-0.1-0.2c0-0.1,0-0.1,0.1-0.2s0.1-0.1,0.2-0.1s0.2-0.1,0.2-0.1l1.1-0.3c0.1,0,0.2,0,0.2-0.1s0.1,0,0.2-0.1
					s0.1-0.1,0.1-0.1l0.1-0.1l2.8-4.7l0.1-0.1l0.1-0.1c0,0,0.1,0,0.2-0.1s0.1,0,0.2-0.1l1.7-0.4c0.1,0,0.2,0,0.3,0s0.2,0,0.3,0.1
					c0.1,0,0.2,0.1,0.3,0.1s0.1,0.1,0.2,0.1c0,0,0.1,0.1,0.1,0.2s0,0.1,0,0.2s-0.1,0.1-0.1,0.2s-0.2,0.1-0.3,0.1l-1,0.2
					c-0.1,0-0.2,0-0.3,0.1c-0.1,0-0.1,0-0.2,0.1s-0.1,0.1-0.1,0.1l-0.1,0.1l-2.8,4.6l-0.1,0.1l-0.1,0.1c0,0-0.1,0.1-0.2,0.1
					s-0.1,0-0.2,0.1L569.2,274.7 M575,267l-1.9,0.4c-0.1,0-0.2,0-0.3,0.1s-0.2,0.1-0.3,0.1s-0.2,0.1-0.2,0.2
					c-0.1,0.1-0.1,0.1-0.2,0.2l-1,1.6l-0.2-0.4c-0.1-0.1-0.1-0.2-0.2-0.2s-0.2-0.1-0.3-0.1s-0.2,0-0.3,0s-0.2,0-0.3,0
					s-0.2,0.1-0.3,0.1s-0.2,0.1-0.2,0.2s-0.1,0.1-0.1,0.2s0,0.2,0.1,0.3l0.9,1.5l0,0l-0.9,1.4v0.1c0,0,0,0-0.1,0s-0.1,0-0.1,0
					s-0.1,0-0.2,0l-0.9,0.2c-0.2,0-0.4,0.1-0.6,0.2c-0.2,0.1-0.3,0.2-0.3,0.4c-0.1,0.1-0.1,0.3-0.1,0.4s0.1,0.3,0.1,0.4
					s0.2,0.3,0.3,0.4c0.2,0.1,0.3,0.2,0.5,0.3c0.2,0.1,0.4,0.1,0.7,0.2c0.2,0,0.5,0,0.8,0c0,0,0.1,0,0.2,0s0.3-0.1,0.5-0.1
					s0.4-0.1,0.6-0.1s0.3-0.1,0.4-0.1s0.2,0,0.3-0.1s0.2-0.1,0.3-0.1s0.2-0.1,0.3-0.2s0.2-0.1,0.2-0.2l2.7-4.6l0,0c0,0,0,0,0.1,0
					c0,0,0,0,0.1,0s0.1,0,0.1,0s0,0,0.1,0s0.2,0,0.3-0.1c0.1,0,0.3-0.1,0.4-0.1s0.3-0.1,0.4-0.1c0.2,0,0.3-0.1,0.4-0.2
					s0.2-0.2,0.3-0.3c0.1-0.1,0.1-0.3,0.1-0.4s0-0.3-0.2-0.5c-0.1-0.2-0.3-0.3-0.4-0.4s-0.4-0.2-0.6-0.3s-0.4-0.1-0.6-0.1
					C575.4,267,575.2,267,575,267"/>
				<path fill="#FFFFFF" d="M576.3,271.4l-1.7,0.4c-0.1,0-0.2,0.1-0.2,0.1c0,0.1,0,0.1,0,0.2s0.1,0.1,0.2,0.2s0.2,0,0.3,0l0.9-0.2
					l-0.9,1.6c0,0.1,0,0.1,0,0.2s0.1,0.1,0.1,0.1s0.1,0.1,0.2,0.1c0.1,0,0.2,0,0.2,0s0,0,0.1,0c0,0,0,0,0.1,0c0,0,0,0,0.1,0
					s0,0,0-0.1l0.9-1.5l0.4,0.6l0.1,0.1c0,0,0.1,0,0.1,0.1s0.1,0,0.2,0c0,0,0.1,0,0.2,0h0.1c0,0,0.1,0,0.1-0.1s0-0.1,0-0.1V273
					l-0.8-1.2l-0.1-0.1c0,0-0.1-0.1-0.2-0.1c0,0-0.1,0-0.2,0C576.4,271.4,576.3,271.4,576.3,271.4"/>
				<path fill="#333333" d="M575.3,267.6l-1.7,0.4c-0.1,0-0.2,0-0.2,0.1s-0.1,0-0.2,0.1s-0.1,0-0.1,0.1s-0.1,0.1-0.1,0.1l-2.8,4.7
					l-0.1,0.1l-0.1,0.1c0,0-0.1,0.1-0.2,0.1c-0.1,0-0.1,0-0.2,0.1l-1.1,0.3c-0.1,0-0.2,0-0.2,0.1s-0.1,0.1-0.2,0.1s-0.1,0.1-0.1,0.2
					s0,0.1,0.1,0.2c0,0.1,0.1,0.2,0.2,0.2c0.1,0.1,0.2,0.1,0.3,0.1s0.2,0.1,0.3,0.1s0.2,0,0.3,0l1.6-0.4c0.1,0,0.2,0,0.2-0.1
					s0.1,0,0.2-0.1l0.1-0.1l0.1-0.1l2.8-4.6c0-0.1,0.1-0.1,0.1-0.1l0.1-0.1c0.1,0,0.1-0.1,0.2-0.1c0.1,0,0.2,0,0.3-0.1l1-0.2
					c0.1,0,0.2-0.1,0.3-0.1s0.1-0.1,0.1-0.2s0-0.1,0-0.2s0-0.1-0.1-0.2s-0.1-0.1-0.2-0.1s-0.2-0.1-0.3-0.1s-0.2-0.1-0.3-0.1
					C575.5,267.6,575.4,267.6,575.3,267.6"/>
				<path fill="#333333" d="M243.3,283.6l-0.3-0.8l2.2-0.5l-0.6-1.5l2.2-0.5l-0.6-1.5l2.2-0.5l-0.6-1.5l2.2-0.5l-0.6-1.5l3.3-0.7
					l0.3,0.7l-2.2,0.4l0.6,1.5l-2.2,0.5l0.6,1.5l-2.2,0.5l0.6,1.5l-2.2,0.5l0.6,1.5L243.3,283.6 M252.1,272.7l-12.3,2.5
					c-0.3,0.1-0.5,0.1-0.7,0.2s-0.4,0.2-0.5,0.3c-0.1,0.1-0.2,0.3-0.2,0.4c0,0.2,0,0.3,0.1,0.5l3.1,8.2c0.1,0.2,0.2,0.3,0.3,0.5
					s0.3,0.2,0.5,0.3c0.2,0.1,0.4,0.1,0.6,0.1c0.2,0,0.5,0,0.8-0.1l12.5-2.5c0.3-0.1,0.5-0.1,0.7-0.2s0.4-0.2,0.5-0.3
					c0.1-0.1,0.2-0.3,0.2-0.4c0-0.2,0-0.3-0.1-0.5l-3.2-8.1c-0.1-0.2-0.2-0.4-0.3-0.5s-0.3-0.2-0.5-0.3s-0.4-0.1-0.6-0.1
					C252.6,272.6,252.4,272.6,252.1,272.7"/>
				<polyline fill="#FFFFFF" points="252.8,274.5 249.5,275.2 250.1,276.6 247.9,277.1 248.5,278.5 246.2,279 246.8,280.5 
					244.6,280.9 245.2,282.4 243,282.9 243.3,283.6 246.6,282.9 246,281.4 248.2,281 247.6,279.5 249.9,279.1 249.3,277.6 
					251.5,277.1 250.9,275.7 253.1,275.3 252.8,274.5 				"/>
				<path fill="#333333" d="M673.4,354.4c-0.1,0-0.3,0-0.4,0c-0.1,0-0.3,0-0.4-0.1s-0.3-0.1-0.4-0.2c-0.1-0.1-0.2-0.2-0.3-0.3
					l-2.7-4.2c-0.1-0.1-0.1-0.2-0.1-0.3s0-0.2,0-0.3s0.1-0.2,0.2-0.2s0.2-0.1,0.4-0.2l5.4-1.3c0.1,0,0.3,0,0.4,0
					c0.1,0,0.3,0,0.4,0.1c0.1,0,0.3,0.1,0.4,0.2c0.1,0.1,0.2,0.2,0.3,0.3l2.8,4.2c0.1,0.1,0.1,0.2,0.1,0.3c0,0.1,0,0.2,0,0.3
					s-0.1,0.2-0.2,0.2s-0.2,0.1-0.3,0.1L673.4,354.4 M668.1,347.1c-0.1,0-0.2,0-0.3,0s-0.2,0-0.3-0.1s-0.1-0.1-0.2-0.2s0-0.1,0-0.2
					l0.5-1.6c0,0,0,0,0-0.1c0,0,0,0,0.1-0.1s0,0,0.1,0s0,0,0.1,0s0.1,0,0.1,0h0.1h0.1h0.1l2.1,0.9c0.1,0,0.2,0.1,0.3,0.2
					s0.1,0.1,0.1,0.2s0,0.1-0.1,0.2s-0.1,0.1-0.2,0.1c0,0,0,0-0.1,0s-0.1,0-0.1,0h-0.1h-0.1l-0.9-0.4l1.1,1.7c0,0.1,0.1,0.1,0.1,0.2
					s0,0.1,0,0.2l-0.1,0.1c0,0-0.1,0.1-0.2,0.1c-0.1,0-0.1,0-0.2,0c-0.1,0-0.1,0-0.2,0s-0.1-0.1-0.2-0.1s-0.1-0.1-0.2-0.2l-1.1-1.7
					L668.1,347.1C668.2,347,668.2,347,668.1,347.1L668.1,347.1C668.2,347.1,668.2,347.1,668.1,347.1L668.1,347.1 M672.7,346.1
					l-1.1-1.6c0-0.1-0.1-0.1-0.1-0.2s0-0.1,0-0.2s0.1-0.1,0.1-0.1s0.1-0.1,0.2-0.1c0.1,0,0.1,0,0.2,0s0.1,0,0.2,0s0.1,0.1,0.2,0.1
					s0.1,0.1,0.2,0.2l1.1,1.7l0.2-0.7c0,0,0,0,0-0.1s0,0,0,0s0,0,0.1,0s0,0,0.1,0s0.2,0,0.3,0s0.2,0,0.3,0.1s0.1,0.1,0.2,0.2
					s0,0.1,0,0.2l-0.5,1.6c0,0,0,0,0,0.1c0,0,0,0-0.1,0.1s0,0-0.1,0h-0.1H674h-0.1h-0.1h-0.1l-2.1-0.9c-0.1,0-0.2-0.1-0.3-0.2
					s-0.1-0.1-0.1-0.2s0-0.1,0.1-0.2s0.1-0.1,0.2-0.1c0,0,0,0,0.1,0s0.1,0,0.1,0h0.1h0.1L672.7,346.1 M675.1,342.4l-11.1,2.7
					c-0.3,0.1-0.5,0.1-0.6,0.2c-0.2,0.1-0.3,0.2-0.3,0.4c-0.1,0.1-0.1,0.3-0.1,0.5s0.1,0.4,0.3,0.6l5.6,8.7c0.1,0.2,0.3,0.4,0.4,0.5
					c0.2,0.1,0.3,0.2,0.5,0.3s0.4,0.1,0.6,0.1s0.5,0,0.7-0.1l11.2-2.8c0.3-0.1,0.5-0.1,0.6-0.2c0.2-0.1,0.3-0.2,0.3-0.3
					s0.1-0.3,0-0.5c0-0.2-0.1-0.4-0.3-0.5l-5.7-8.6c-0.1-0.2-0.3-0.4-0.5-0.5s-0.3-0.2-0.5-0.3c-0.2-0.1-0.4-0.1-0.6-0.1
					C675.6,342.3,675.3,342.4,675.1,342.4"/>
				<path fill="#FFFFFF" d="M672.9,353.6l-2.7-4.1l5.3-1.3l2.7,4.1L672.9,353.6 M675.1,347.4l-5.4,1.3c-0.1,0-0.3,0.1-0.4,0.2
					s-0.2,0.1-0.2,0.2s-0.1,0.2,0,0.3s0,0.2,0.1,0.3l2.7,4.2c0.1,0.1,0.2,0.2,0.3,0.3c0.1,0.1,0.2,0.1,0.4,0.2s0.3,0.1,0.4,0.1
					c0.1,0,0.3,0,0.4,0l5.4-1.4c0.1,0,0.3-0.1,0.3-0.1s0.2-0.1,0.2-0.2s0.1-0.2,0-0.3s0-0.2-0.1-0.3l-2.8-4.2
					c-0.1-0.1-0.2-0.2-0.3-0.3c-0.1-0.1-0.2-0.1-0.4-0.2c-0.1,0-0.3-0.1-0.4-0.1C675.4,347.3,675.2,347.3,675.1,347.4"/>
				<path fill="#333333" d="M672.3,351.9L672.3,351.9c-0.1,0-0.1,0-0.2,0c0,0,0,0-0.1,0l0,0l-0.7-1v-0.1c0,0,0,0,0-0.1
					c0,0,0,0,0.1-0.1c0,0,0,0,0.1,0l1-0.3h0.1h0.1h0.1c0,0,0,0,0.1,0.1l0.7,1c0,0,0,0,0,0.1s0,0,0,0.1s0,0,0,0s0,0-0.1,0h-0.1
					l0.9,1.3v0.1c0,0,0,0,0,0.1l0,0c0,0,0,0-0.1,0s-0.1,0-0.1,0H674h-0.1c0,0,0,0-0.1-0.1l-0.9-1.3h-0.1l0.9,1.3v0.1c0,0,0,0,0,0.1
					s0,0,0,0s0,0-0.1,0s-0.1,0-0.1,0h-0.1h-0.1c0,0,0,0-0.1-0.1L672.3,351.9L672.3,351.9 M673.9,351.5L673.9,351.5
					c-0.1,0-0.1,0-0.2,0c0,0,0,0-0.1,0l0,0l-0.7-1v-0.1c0,0,0,0,0-0.1c0,0,0,0,0-0.1c0,0,0,0,0.1,0l1.1-0.3h0.1h0.1h0.1
					c0,0,0,0,0.1,0.1l0.7,1c0,0,0,0,0,0.1s0,0,0,0.1s0,0,0,0s0,0-0.1,0H675l0.9,1.3v0.1c0,0,0,0,0,0.1l0,0c0,0,0,0-0.1,0
					s-0.1,0-0.1,0h-0.1h-0.1c0,0,0,0-0.1-0.1l-0.9-1.3h-0.1l0.9,1.3v0.1c0,0,0,0,0,0.1l0,0c0,0,0,0-0.1,0h-0.1H675h-0.1
					c0,0,0,0-0.1-0.1L673.9,351.5L673.9,351.5 M675.6,351.1C675.5,351.1,675.5,351.1,675.6,351.1c-0.1,0-0.1,0-0.2,0c0,0,0,0-0.1,0
					s0,0,0,0l-0.7-1V350c0,0,0,0,0-0.1c0,0,0,0,0-0.1c0,0,0,0,0.1,0l1.1-0.3h0.1h0.1h0.1c0,0,0,0,0.1,0.1l0.7,1c0,0,0,0,0,0.1
					s0,0,0,0.1s0,0,0,0s0,0-0.1,0h-0.1l0.9,1.3v0.1c0,0,0,0,0,0.1l0,0c0,0,0,0-0.1,0s-0.1,0-0.1,0h-0.1h-0.1c0,0,0,0-0.1-0.1
					l-0.9-1.3h-0.1l0.9,1.3v0.1c0,0,0,0,0,0.1l0,0c0,0,0,0-0.1,0s-0.1,0-0.1,0h-0.1h-0.1c0,0,0,0-0.1-0.1L675.6,351.1L675.6,351.1
					 M672,350.3L672,350.3h-0.2c0,0-0.1,0-0.1-0.1s-0.1-0.1-0.1-0.1V350v-0.1c0,0,0-0.1,0.1-0.1s0.1,0,0.1,0s0.1,0,0.2,0
					c0,0,0.1,0,0.2,0c0,0,0.1,0,0.1,0.1s0.1,0.1,0.1,0.1v0.1v0.1c0,0,0,0.1-0.1,0.1C672.1,350.3,672,350.3,672,350.3 M673.6,349.9
					c0,0-0.1,0-0.2,0c0,0-0.1,0-0.2,0s-0.1,0-0.1-0.1s-0.1-0.1-0.1-0.1v-0.1v-0.1c0,0,0-0.1,0.1-0.1s0.1,0,0.1,0h0.1h0.1
					c0,0,0.1,0,0.1,0.1s0.1,0.1,0.1,0.1v0.1v0.1C673.8,349.8,673.7,349.8,673.6,349.9C673.7,349.9,673.7,349.9,673.6,349.9
					 M675.2,349.5L675.2,349.5H675c0,0-0.1,0-0.1-0.1s-0.1-0.1-0.1-0.1v-0.1v-0.1c0,0,0-0.1,0.1-0.1s0.1,0,0.1,0s0.1,0,0.2,0
					c0,0,0.1,0,0.2,0c0,0,0.1,0,0.1,0.1s0.1,0.1,0.1,0.1v0.1v0.1c0,0,0,0.1-0.1,0.1C675.3,349.5,675.3,349.5,675.2,349.5
					 M675.6,348.2l-5.3,1.3l2.7,4.1l5.3-1.3L675.6,348.2"/>
				<path fill="#FFFFFF" d="M671.8,343.9c-0.1,0-0.1,0-0.2,0.1s-0.1,0.1-0.1,0.1s0,0.1,0,0.2s0,0.1,0.1,0.2l1.1,1.6l-0.9-0.4h-0.1
					h-0.1h-0.1h-0.1c-0.1,0-0.2,0.1-0.2,0.1s-0.1,0.1-0.1,0.2s0,0.1,0.1,0.2s0.1,0.1,0.3,0.2l2.1,0.9h0.1h0.1h0.1h0.1h0.1
					c0,0,0,0,0.1,0s0,0,0.1-0.1s0,0,0-0.1l0.5-1.6c0-0.1,0-0.2,0-0.2s-0.1-0.1-0.2-0.2s-0.2-0.1-0.3-0.1s-0.2,0-0.3,0c0,0,0,0-0.1,0
					s0,0-0.1,0l0,0c0,0,0,0,0,0.1l-0.2,0.7l-1.1-1.7c0-0.1-0.1-0.1-0.2-0.2c-0.1,0-0.1-0.1-0.2-0.1S672,343.8,671.8,343.9
					C672,343.9,671.9,343.9,671.8,343.9"/>
				<path fill="#FFFFFF" d="M668.2,344.8C668.1,344.9,668.1,344.9,668.2,344.8c-0.1,0-0.1,0.1-0.2,0.1c0,0,0,0-0.1,0.1s0,0,0,0.1
					l-0.5,1.6c0,0.1,0,0.2,0,0.2s0.1,0.1,0.2,0.2s0.2,0.1,0.3,0.1s0.2,0,0.3,0c0,0,0,0,0.1,0s0,0,0.1,0l0,0c0,0,0,0,0-0.1l0.2-0.7
					l1.1,1.7c0,0.1,0.1,0.1,0.2,0.2s0.1,0.1,0.2,0.1s0.1,0,0.2,0c0.1,0,0.1,0,0.2,0c0.1,0,0.1,0,0.2-0.1s0.1-0.1,0.1-0.1
					s0-0.1,0-0.2s0-0.1-0.1-0.2l-1.1-1.7l0.9,0.4h0.1h0.1h0.1h0.1c0.1,0,0.2-0.1,0.2-0.1s0.1-0.1,0.1-0.2s0-0.1-0.1-0.2
					c0-0.1-0.1-0.1-0.3-0.2l-2.1-0.9h-0.1h-0.1C668.3,344.8,668.3,344.8,668.2,344.8L668.2,344.8"/>
				<path fill="#FFFFFF" d="M675.8,349.4l-1.1,0.3h-0.1c0,0,0,0,0,0.1s0,0,0,0.1v0.1l0.7,1l0,0c0,0,0,0,0.1,0s0,0,0.1,0
					c0,0,0,0,0.1,0h0.1l0.9,1.3c0,0,0,0.1,0.1,0.1s0.1,0,0.1,0h0.1h0.1c0,0,0,0,0.1,0l0,0c0,0,0,0,0-0.1c0,0,0,0,0-0.1l-0.9-1.3h0.1
					l0.9,1.3c0,0,0,0.1,0.1,0.1s0.1,0,0.1,0h0.1h0.1c0,0,0,0,0.1,0l0,0c0,0,0,0,0-0.1s0,0,0-0.1l-0.9-1.3h0.1c0,0,0,0,0.1,0s0,0,0,0
					s0,0,0-0.1s0,0,0-0.1l-0.7-1c0,0,0,0-0.1-0.1h-0.1C676,349.4,676,349.4,675.8,349.4C675.9,349.4,675.9,349.4,675.8,349.4"/>
				<path fill="#FFFFFF" d="M674.9,349L674.9,349c-0.1,0-0.2,0-0.2,0.1v0.1v0.1l0.1,0.1c0,0,0.1,0,0.1,0.1h0.1h0.1h0.1
					c0,0,0.1,0,0.1-0.1v-0.1v-0.1l-0.1-0.1c0,0-0.1,0-0.1-0.1C675.1,349,675,349,674.9,349C675,348.9,674.9,349,674.9,349"/>
				<path fill="#FFFFFF" d="M674.2,349.8l-1.1,0.3H673c0,0,0,0,0,0.1s0,0,0,0.1v0.1l0.7,1l0,0c0,0,0,0,0.1,0c0,0,0,0,0.1,0
					c0,0,0,0,0.1,0h0.1l0.9,1.3c0,0,0,0.1,0.1,0.1s0.1,0,0.1,0h0.1h0.1c0,0,0,0,0.1,0l0,0c0,0,0,0,0-0.1c0,0,0,0,0-0.1l-0.9-1.3h0.1
					l0.9,1.3c0,0,0,0.1,0.1,0.1s0.1,0,0.1,0h0.1h0.1c0,0,0,0,0.1,0l0,0c0,0,0,0,0-0.1s0,0,0-0.1l-0.9-1.3h0.1c0,0,0,0,0.1,0l0,0
					c0,0,0,0,0-0.1s0,0,0-0.1l-0.7-1c0,0,0,0-0.1-0.1s-0.1,0-0.1,0h-0.1C674.3,349.8,674.2,349.8,674.2,349.8"/>
				<path fill="#FFFFFF" d="M673.3,349.4L673.3,349.4c-0.1,0-0.2,0-0.2,0.1v0.1v0.1l0.1,0.1c0,0,0.1,0,0.1,0.1s0.1,0,0.2,0
					c0,0,0.1,0,0.2,0h0.1c0,0,0.1,0,0.1-0.1s0-0.1,0-0.1v-0.1l-0.1-0.1c0,0-0.1,0-0.1-0.1s-0.1,0-0.1,0
					C673.4,349.4,673.3,349.4,673.3,349.4"/>
				<path fill="#FFFFFF" d="M672.5,350.3l-1,0.3h-0.1c0,0,0,0-0.1,0.1c0,0,0,0,0,0.1s0,0.1,0,0.1l0.7,1l0,0c0,0,0,0,0.1,0
					c0,0,0,0,0.1,0c0,0,0,0,0.1,0h0.1l0.9,1.3c0,0,0,0.1,0.1,0.1s0.1,0,0.1,0h0.1h0.1c0,0,0,0,0.1,0s0,0,0,0s0,0,0-0.1
					c0,0,0,0,0-0.1l-0.9-1.3h0.1l0.9,1.3c0,0,0,0.1,0.1,0.1s0.1,0,0.1,0h0.1h0.1c0,0,0,0,0.1,0l0,0c0,0,0,0,0-0.1c0,0,0,0,0-0.1
					l-0.9-1.3h0.1c0,0,0,0,0.1,0l0,0c0,0,0,0,0-0.1s0,0,0-0.1l-0.7-1c0,0,0,0-0.1-0.1s-0.1,0-0.1,0h-0.1
					C672.6,350.2,672.6,350.2,672.5,350.3"/>
				<path fill="#FFFFFF" d="M671.6,349.8L671.6,349.8c-0.1,0-0.2,0-0.2,0.1s0,0.1,0,0.1v0.1l0.1,0.1c0,0,0.1,0,0.1,0.1h0.1h0.1h0.1
					c0,0,0.1,0,0.1-0.1v-0.1V350l-0.1-0.1c0,0-0.1,0-0.1-0.1C671.8,349.8,671.7,349.8,671.6,349.8
					C671.7,349.8,671.7,349.8,671.6,349.8"/>
			</g>
		</g>
	</g>
</g>
</svg>
