<svg version="1.1" id="landmarks-continents" xmlns="http://www.w3.org/2000/svg" xmlns:xlink="http://www.w3.org/1999/xlink" x="0px" y="0px" 
	 width="400px" height="220px" viewBox="0 0 400 220" enable-background="new 0 0 400 220" xml:space="preserve">
<g id="africa" transform="translate(0,239) scale(0.016963,-0.016963)">
	<path fill="#DDDDDD" d="M12071.3,9689.9l-109-5l-19-5l-35,1h-33l-21-12l-29-12h-32l-190-7l-180-63l-15-5.1l-20-3l-21-10l-40-25
		l-37-26l-70,10h-64.9l-109,42l-39,11l-35-62l-118.9-137l-120-107l-22-47l-23-94l-12-76.1l-13-23.9l-36-40l-56-48l-103-47l-62-72
		l-31-48l-82-123l-66-102l-45-80l-40-72l-24.1-50l-12-62.1l8-19l36-20l14-52l-6-73l-5.1-177l-20-77l-67-113l-13-10l15-10l26-27.1
		l20-45l-1-23l-10-53l30-76l14-39l-9-18l40-22l8,20l-4,33l20-30l20-30l11-15l15-15l15-8.1l50-61l51-80l20-71l5-19l3-11l6-12l37-31
		l197-153l242-74l331,9l45,6l181,75l28,14l181,38l93-17l60-109l23-36l57-15l75,10l72,8l37-19l26-29l20-19l14-25l-15-163l-7-40
		l3-24.1l-12-64l-35-54l6-51.9l32-69.1l54-75l160-238l10-27.1l5.1-15l19-61.9l42.9-106l-1-67l14-96.9l31-128l-35-99.9l-72-131
		l-42-149l7-217l20-33l95.9-194.9l43.1-85l28-115l12-120l27.1-139.1l85-191.9l60-110l71-155.1l15-51.9l-9-47l-20-12.1l27.1-59
		l3.9-32l22-37l10,3l13-13l32-20l67-3l60,16l65.1,14l155.9,10.9l52,2l37,8.1l21.1,7.9l41,16l210.9,136.1l59.1,60l105.9,150.9
		l80,81.1l54,114.9l6,120.1l13,40l92,54l93,61l13,42.9l1,36l-2,125l-10,19.9l10-4l9.9,8.1l-12,20l-13,32l-13.9,38l-11.1,25.9
		l114,126.1l16,7.9l18,32l129.1,101l62.9,29l21,16l107.1,146l2,80l-10,172.9l-23,172l-40,80l3,106l20,16.9l-15,6l-18.1,43.1l-18,52
		l-29,48.9l42.9,121l64,147l26,32.9l103.1,110.1l260,282l213.9,234l35,63l35,72l73,156l7,14l25,60l25,85l20,40l10,25l-8.1,92.1
		l-59,17l-129-44l-39-7l-46.1-7l-48.9-15l-61-16l-64-13l-130,44l-42,33l-23.9,6l23,12l-14,98l-58,67l-25,21.1l-26.9,29.9l-35,37
		l-31,20l-26,7l-18.1,20l9.1,26l-1,15l-30.1-7l-21-3l-25,60l-90.9,182l-73,172.9l-15.1,84.1l-15,41l-6,25l-48,38l-44,112l-11.1,23.9
		l-54.9,82l-51.1,97l-21,50l-17,37l-19.9,43l-38,60l-35,63l-9,29l-17,75l-19,87l-189.1-19l-41-14l-64.9,15l-65.1,20l-127.9,24
		l-32,16l-38,21l-110.1,40l-25,20l-26.9,10l-155.1-36l-21-103l-60-81l-55,28l-145,52l-74,61l-32.9,41l-56.1,26l-82,14l-93,18l-54,64
		l-9.9,6l-17-10l-40.1,9l20,45l45,20l15,6l-10,5l-3.9,33l-15.1,51l-5,58l10,30l4,8l9.9,3l-31.9,5l-24.1,4l-54,32.9L12071.3,9689.9
		L12071.3,9689.9z M13979.4,6460.9l2-29l-4-21l-26-62.1l-7.9-10.9l-17-25v-28.1l-42.9-16l-57-0.9l-18.1,78l52,123l47,20
		L13979.4,6460.9L13979.4,6460.9z M13633.3,6076.9l11.1-33l5-22l5.1-36v-25l13-51l35.9-61.9l25-69v-48l-19.9,26l-10,35l-15,35
		l-30.1,48.9l-32,51l-4,47l-6.9,110.1l9,50L13633.3,6076.9L13633.3,6076.9z M13993.3,5618.9l14-64.9l13.9-57l2.1-63.1l9-152.9
		l11.1-13l-10-4l-10-4l-11.1-10.9l-3.9,19.9l-3.1,33l-22.9,121.9l-6,175l-13,33L13993.3,5618.9L13993.3,5618.9z"/>
	<path fill="#DDDDDD" d="M15103.3,5416.9l-17-57l-33-33l-19.9-2l13-20h-10l-24.1-38l-9-23l-10-25l-15-14l-15-9l-125-88l-48.9-21
		l-33-8.1l-23-26.9l-19-57v-169l-16.9-125l-37.1-63l-23-163l9.1-70l6-50l10.9-25l53.1-51l16.9-10l74,5.1l47,15l69,69l14,36l26,75
		l31,91.1l30.1,85l50,146l44,134.9l28,80l1,83l-7,45l20-24.1l19.9-25l17,32l6,51l-10,64l-10.9,78l-59.1,129.1L15103.3,5416.9
		L15103.3,5416.9z"/>
</g>
<g id="asia" transform="translate(0,239) scale(0.016963,-0.016963)">
	<path fill="#DDDDDD" d="M16068.3,13096.9l-50-28l-2.1-9l-12-47l52-11.1h6l16-13l15,13l9-2l25-8.1l59.1-7.9l254-35l34,27l-21,23
		l-102,36l-89,28l-52,25L16068.3,13096.9L16068.3,13096.9z"/>
	<path fill="#DDDDDD" d="M16717.2,12879.9l-22.9-57l-34.1-14l-48.9-9l-41-15l-31,5l-201-15l-81.1-19l-91-23l-49-10l-23.9-4l-15-10
		l-16-17l-6-5l-47.1-4v-23l11.1,6l28-3l41-12l21.1-9l-82.1-3l-22.9,10l-3-9l-108-23l-84.1-2l29-23l50-44l68-26l45.9-14l18.1-12
		l-16-6l-60,13l-188,43l-43.1-11.1l10-16.9l-25-14l-9-20l54-23.9l-14-7l-77,57l-57.9,59l-32,12l-31,1l21-22l42.9-4l3-5.1l4-17
		l-20-30l-29.9-20l-12-16.9l45.9-33l50-61l15.1-45.9l21-27.1l73-7.9l34-5l-21-63l17-36l-13-35l-30.1-29l-29.9-22l-32-9l-43.1,17l6,4
		l34.1,35l25,40l6,33l-42.9,51l-43.1,29.9l-22,46.1l-25,53l-58,53l-16,17l-3,70l-83,26l-32.9,10l16,16l-94.1,3l-9-26l-13-52
		l-29.9-54.9l-5.1-55l25-39l43.1-48l42.9-14l52-29l15-33l-78,24.1l-72.1-9l37.1-47l-212.1-150l-57.9-30l45.9-136l84.1-351l51-130
		l-39-128l-47-20l6-49l48.9-65l109-1l95,4l6-77l9-61.9l53.1-58l54.9-47l-19.9-72l-44-9l-49,1l-35,15l-19,11.1l-48,5l-107,16
		l-208.1,9l-60.9-11l-89-11.1l-31.1-51.9l61-120l31-73l25.1-56l26.9-33l70-20l45-19l15-111l-57,9l-61.9-21l-6.1-34l-25-9l-19.9-20
		l25-19.9l32-30.1l25-30l7.9-21l12.1-13l22-7.9l35.9-20l33-59l4-39l38.9-83l35-69l11.1-30.1l10.9-25l55-93l16-80l-61.9-33l-177.1,33
		l-60,30l-61.9,75l7.9,45l14,57l28,48l26.9,10l-32.9,7l-337,173l-65.1,57l-54-6l-99.9,23l-81,36l-67.9,26l-59.1,7.9l-25.9-10
		l22.9-23.9l79.1-51l74.9-64l-148.9-105l-95,6l-29,9l-36,10l-25,5.1l-29.9,15l-32.1,14l-37,13l-98,13l-169-66l-83-5l-79-27.1
		l-107-40l-93-11.1l-18-4l-14-6l15-11l15.1-25l37-26l8.1-16l3.9-28l8.1-30.1l-3-7l-29-10l36-34l21-13v-23l22-29l-10-18l31-14l3-4
		l-18-15l15-4l15.1-4l15-10l15,11l70-21l60-18.1l41,46.1l123.1-40l139,18l67,12l39.9,7l16-11.1l-6.9-26.9l0.9-32l-0.9-31l12-90
		l-61-185l-71-90l-56-5l-33-35l41-138l19-34l85-96.9l21,15l35,15l19-15l10-15l10-10l18-30l37-57l38.1-58l42.9-82l41-63l19-15l17-8
		l3.9-4l13-36l20-40l11.1-23l5-44l10-51l10.9-31l18-34l29.9-32l34.1-37l25.9-26l20-16.9l25-43.1l18.1-45l16.9-22l38-45.9l37.1-52
		l9-14l19.9-32l-9-13l-13.9,26l-11.1,3.1l-13,7l-13.9,17l-12.1-15h-9l-19.9,9l54.9-86l53.1-55l6.9-26l43.1-145l51.9-75l46.1,4l22,5
		l46.1,25l64.9,31l109,40l40,10l54,26l103,55l140,79l51,65.1l120.9,35l58,50l33,28l54.9,43.1l66.1,48.9l19.9,61l36,55l30.1,3l-3,35
		l15,42.9l56,108l-21,15l-26,20l-14,20l-9,11l-78,50l-134,169.9l-33,32l-152.9-155l-12.1-5l-35-5l-35,13l-9.9,9l-10-14l-39-12
		l-30.1,16l-3.9,23l-10,129l-48-32l-12-40l-19,27l-8.1,43l10-16l10-9l-10,42l-21,14l-3,19l-21.1,24.1l-19.9,28l-13,11l-12.1,6
		l-19.9,16l-20,21l-7.9,14l-46.1,116l-3,7l-23-3.1v10l32,18l62.1,30l34-4l40-27l22-44l9.1-15l37-52l64-60l64-39l44.9-26.9l3-9
		l22.1-15l31-16.9l3.9-9l11.1,10h20l31-5l45.9,11l57.1,35l42.9-3l18-53l144-80l141-21l130-4l40,3l40.1,5.1l35.9,2l101,2l93-22l19-20
		l26-27l53-63l43.1-30l121-54l13.9-10l-67.9-17l-18.1-10l157.1-149l104,93l9,47l2.1-25l6.9-25l6-10l9.1-42l10-66l3.9-70l57-214
		l50.1-130l54.9-108l33-94l50-110l87-203l79.9-123l73.1,48l79,36l16,7l-19,14l-5.1,48l33,27l18,29l3,143l2.1,178l25.9,126l30.1,19
		l20,25l63.9,51.9l9.1,28l148,150l70,65.1l61,42l19.9,82l12.1,31l38,19l28-3l98,4l55,10l67.9,53l2.1,22l13.9-16l15-15l22.1-45
		l66.9-112l33-48l18-7l39-35l5.1-29l-4-18v-12l19.9-1l51-48l15.1-121l-6-75l28-7.9l88,7l50,44l36,47l76-158l20-67l13.9-53l14-25
		l25-31l-4-43l-9-10l15-16l-3-31l-19-17l-9,3l35-32l16-46l-26,3l-15,2l17-21l10-136l15.9-115.9l47.1-11.1l10-7.9l9.9,1l30.1-51
		l15-48l-0.9-21.1l15.9,5.1l15.1-2l12-63l9-48.9l18-49l31.1-69l25-49l73-71l93-86.9l0.9-4l29-9l9-10l15.1-14l10.9-19.9l6,21l8.1,9
		h19.9l-32.9,31l-9,6.1l16.9,19l-7,10.9l-9,19l-29,60l-26.9,107l-11.1,102l-105,115l-25.9,31l-36,26l-71,75l-23.9,63l-16,75l-2,36
		l-7-15l-41-20l15,169l19,115l30.1,63l26.9-36l35-40l75-38l18.1-12l34-32l18-47l51-53l3,13l2.1,4l13-42l21,7l18,6l37.1-22l6.9-15
		l5.1-121l25,20l55,46l57.9,89l13,7l101.1,54l38,23.9l19,92l5,22l9,15l-9,25l-14,53l-21,78l-16,46.1l-29.9,44l-30.1,41l-19,19
		l-141,134l-34,46l-34,81l13,50l29.9,40l25,29l14,10l18,13l12.1,13l92.9,34l42-6l17-13.9l47-95l16.9,50l-0.9,16l10.9,13l13,22l22,4
		l23,3l6,14l4,4l17,3l31,1l40,6l4,9l10,5l10.9,4l24.1,46l7-2l47.9-19l41.1,30.1l34,10.9l4-10l10.9,10l8.1,9l64.9,30l31,35l41,36
		l32,29.9l27.1,52l2,6l27.1,26l15,6l22,16l-9,10l-11.1,48.9l3,18l5.1,7l12,19l10,26l10,30.1l26,55l15,13l-4,70l4,15l13.9,60
		l-6.9,61.9l-9.1-10l-3-19l-31.9-6l-40.1,11.1l17,35.9l19,33l-5.1,14l-23.9,14l-25,41l10.9-6l11.1-15l12,9l-85,76l-25,33l-130,137.9
		l-43.1,49l35,54l16,32l20,25l63,31l29,24l-62.1,40l-66,15l-67.9-7.9l-10-25l-39-8l-25,29l-58,51l-82,58l16,19.9l70,33l35,46l29,33
		l53,35l37-61l3-61l3.1-30l4.9-31l48,41l85,45.9l63-2l26-6l27.1-9l19.9-78l10-52l10,5l56-24l25-1l19-5l25.1-11l15-44l18-48l45-66
		l1-68l10.9-30l45-20l48,12l23,10l19,10l13.9,4l56.1,59l-107.1,189l-67,66l-58.9,45l-52,44l12.1,40l54,53l12,64l5,79l12,18l9.1,15
		l19,21l10.9,14l16,5l15,3l102-29.9l88.1,101l38.9,144l9,101l10,115l-15,80l-36,62l-3.9,14l-14,22l-49,132l104.1-85l38.9-55l55-81
		l51-72l41-61l20-36l19-33l42-63l31-29l-7,36l21,31l46.1-26l18-5l-48,59l-35,23l-50,39l-40,60l-22,61l85-8l50-17l-32,27l-73.9,59
		l-128,121l-102,107l-71,78l-34,28l-73,46.1l15-26l13-39l-3-32l47-73l-57.9,66l-62.1,41l-91,45l-108,10l-19-56l-10,20l-15,20
		l-15.1,20l-10.9,20l-6,13.9l-50,41l-30.1-6l-18-9l70-12l6.9-5l4-24l6-19l-5-22l-15,12l-71,41l-49.1,61l46.1,90l44,98l-2,25l5,31
		l15,30.1l21.1,32l184,3.1l26-11.1l15,8l76,5l75,18l11.1,15l96-17l34-4l12-20l32-25l98,11l28,4l57,5l-41,41l-32,71l11.1,59l42,37
		l60,3.1l48-2.1l26.9-13.9l51-50l29-17l20-9l7,7l16.9,26l39,36l17,22l-36,27l-5.1,34l45-12l62.1-79l-13-55l-18-44l-6.1-38l-5-43
		l-29-80l-15-10l-22-10l3-24l22-49l159.9-210l90-81.1l87-75l67.9-63l52-48l29-21l16,31l-11.1,101v52h38l-21,34l-36,61.9l42,15l31,12
		l-42,44l-31,78l32-5l-56,57l-71,64l-66,32l-68,72l-19.9,56l-3,27l28.9,10l14,1l9-16l21.1,23l44-4l40,4l169,6l53,1l14,41l29.9,48
		l35,34l29,20l14,11l26.9,16l132.1-2l26.9,14l-22,28l-38,19l-40,21l-150,87l19,29l-41,67l-33,21l63-19l127-28l120.1-26l72-27l82-19
		l72-2l5.1-1l44-8l-7,16l-16.9,15l-5.1,9l-29.9,19l6,23l31,17l-11.1,7.9l-10.9,6l-24.1,29l-289.9,68l-117,23.9l-650.1,163l-175,18
		l-264.9,22l7.9-21l37.1-26l47-22l38-23l-28-3l-41,7l-60,17l-51,13.9l15,3.1l20,6l-7,10l-43.1,1l-35,3l35,7l35,7l-32,3l-67.9-10
		l-45-14l-280,2.1l-120,28l-127,60l-223.9,10l-191,7.9l-83,21.1l-89,26l-213,28l-10-2.1l-198,38h-165l25.1-13.9l-37.1-1l-32-15
		l32-15l18.1-7l21-20l28-13l-29.9,6l-50.1,6l-83-2l-85-9l-67.9,1l-66.1,11l-16,10l-7.9,7l-6-17l-14-57l-167,83l-48,31l-14,13
		l-196,55l-17-1l-37,10l-70,14h-48l-13-5l-9-5l20-23l20-18l-180.1,4l-75,5l-6,10l3,15l-269,3l-83,48.9l-46.1,14l-51-19l-23.9-14
		l-35-0.9l-4-20l-26.9-25l-88.1-1l30.1,10l32,13l95,60l53,36l-64.9,58h-12.1l-5,19l-28,4l-27.1,7l-140.9,17l-146-8l-19,5l-28,49
		l-9.1-10l-59,5.1L16717.2,12879.9L16717.2,12879.9z M17493.3,12638.9l-17-10l-32.9,10H17493.3L17493.3,12638.9z M15919.3,12257.9
		l-16-9l-36,20l-18,8L15919.3,12257.9L15919.3,12257.9z M22158.3,12118.9l-9-4l-7,14L22158.3,12118.9L22158.3,12118.9z
		 M21968.3,11948.9h-35l7,10L21968.3,11948.9L21968.3,11948.9z M18490.3,11221.9l33-130h-6l-4,17l-10-20l18-20l6-8l-18-27l-48.9-36
		l-39-42l-37.1-38l-63-1l6,11l66.1,43l21,29l15,35l7,21l21,176L18490.3,11221.9L18490.3,11221.9z M16567.3,10499.9l-9-15l-15.1-21
		l-15-15l-15-31l-15.1-19l-3,60l6,6l44.1,43.1L16567.3,10499.9L16567.3,10499.9z M16626.3,10501.9h-25l12,5L16626.3,10501.9
		L16626.3,10501.9z M16763.3,10488.9l-15-4l-19,14L16763.3,10488.9L16763.3,10488.9z M16823.3,10489.9l-20-7.9l-19.9,9l19.9,8
		L16823.3,10489.9L16823.3,10489.9z M15620.3,10472.9l-19-1l6,6L15620.3,10472.9L15620.3,10472.9z M15543.3,10428.9l-10.9-10l-4-10
		l26-5l25-19l19.9-37l-2-41l-29.9-24l-30.1,6l-14,54l-9.9,61l3,20L15543.3,10428.9L15543.3,10428.9z M15508.2,10378.9l-21-15v35
		L15508.2,10378.9L15508.2,10378.9z M15478.3,10300.9l-24.1,66l15-22L15478.3,10300.9L15478.3,10300.9z M15204.3,10076.9l42.9-51
		l18.1-22l-28.1-11l-19.9-6l-26,12l-48,62L15204.3,10076.9L15204.3,10076.9z M13963.4,8933.9l-10-15l-4,15l10,15L13963.4,8933.9
		L13963.4,8933.9z M17813.2,8178.9l-3.9-10l-11.1,10l4,10L17813.2,8178.9L17813.2,8178.9z M14567.2,7900.9l-9-9l-9,9l9,7.9
		L14567.2,7900.9L14567.2,7900.9z M19258.3,7419.9l-5-16l-10,9L19258.3,7419.9L19258.3,7419.9z M19468.3,7328.9l7-20l-22,20l-7,20
		L19468.3,7328.9L19468.3,7328.9z"/>
	<path fill="#DDDDDD" d="M18913.3,12659.9l48-27l26-9l-15.1-15l-13-11l29-5l105-5l80,11l-152,40l-52,15L18913.3,12659.9
		L18913.3,12659.9z"/>
	<path fill="#DDDDDD" d="M21133.3,10392.9l-10-9l-10-5.1l14-7l79.9-118l5.1-20l-18.1-15l-25-21.1l2.1-23.9l-15.1-38l4-20l57-42.9
		l42-9l20,15l-26,36l-40.1,26l27.1-3l31,2l75.1-10l67.9-15l5.1-4l3.9-12l6,24l38,56l66.1,38l-16,5.1l-13,40l16,40l13,5l-20,15
		l-26-34l-23.9-3l-25,4l-78.1,7l-127,63l-89,50L21133.3,10392.9L21133.3,10392.9z"/>
	<path fill="#DDDDDD" d="M21283.2,10053.9l-10.9-9l-5.1-19l-5-32l6-25l9-34l10-16l26-20l4-140l-14-45l-26.9-28l-35-22l-22,37
		l-28.1,14l-2-36l14-11.1l5,9l-26.9-58l2-42v-17l-24.1-2l-64.9,1l-73-10l-58-12l-72-81l-18-26l-12.1-31l-35.9-29l-23-20l26.9-30
		l37.1-24l3.9-4l21.1-49l26.9-54l23-18l22-15l23,13l20,90l-4,75l32-4l55-15l28.9,54l15.1-10l26.9,16l7,39l4.9,20l11.1-8l64-59l28,30
		l23,32l-5.1,35l-19.9,15l19.9,3l20-12l45-6l45,25l0.9,25l15.1-28l31,9l37,7.9h32l9,26l4,24l-9,36l-21.1,44l-3.9,36l-4,31l-21,39
		l-20,37l20,8.1l19.9,4l-10,11l-9.9,49l-65.1,117l-64.9,80.9l-14,13l-30.1,6L21283.2,10053.9L21283.2,10053.9z M21333.3,10024.9
		l-15.1-10l-15,4l15,10L21333.3,10024.9L21333.3,10024.9z M21150.2,9463.9l-31-19l-15,20L21150.2,9463.9L21150.2,9463.9z
		 M21077.2,9433.9l-38.9-6l37,20L21077.2,9433.9L21077.2,9433.9z M20990.3,9416.9l-6,6l5,13L20990.3,9416.9L20990.3,9416.9z
		 M21019.3,9411.9l-48-53l-5.1,13l-29.9,15l-33,13.9l49.1,4l56,14L21019.3,9411.9L21019.3,9411.9z"/>
	<path fill="#DDDDDD" d="M13877.4,9553.9l-56.1-15l-38-10l-21-10l15-48l57,7l38,21l5.1,14l15,28l13,28L13877.4,9553.9
		L13877.4,9553.9z"/>
	<path fill="#DDDDDD" d="M20466.3,8076.9l2-191.9l-7.9-3l-10-74l63-89l10,17l7,10l-7-31l10-51l9.9-4l-35.9,4l-21.1,15l15.1-37.1
		l45.9-70l52-28l-16,86l4.9,29l34.1-10l0.9-25h26l22-2l18-10l-5,28l41-20l26-61l-6,8l-34,52l6.9-36l15.1-48l9-27l32-3l22.9,15l-6,38
		l14,33l-23,39l-13.9,29l15-10l29-1l2,30l-31,6h-30.1l-38.9,10l-15.1,11l-50,10l-48.9,9l41,18l12,5l-52,32l-19.9,52l22,28l13.9,117
		l-16,64l-32.9,33l-39,5L20466.3,8076.9L20466.3,8076.9z"/>
	<path fill="#DDDDDD" d="M20813.2,7547.9l29-40l24.1-36l-18.1,4l-19.9-31l21-35.9l14-29l28-40l29-24l7-33l-19-21l-25.1,8l-9.9,9
		l-3.1-32l-6-24.1l-18-13l-33,1l-44,10l-26-27l-25-15l-29-12l-12.9-43l-5.1-43l32,6l15,36l15.1-2l25-12l19.9,3l15.1,16l19,11.1
		l19-62.1l26.9-74l50.1-26l22.9-26l28-1l8.1,32l-5,45l3.9,48l17-15l15-37l15,18l10,43l10,27l-51.9,172l-2.1,32l-10.9,31l-22,13
		l-23,5l-16-15l-6,13l0.9,32l21.1,33l29-4l-19,31l-20,56l-59,55L20813.2,7547.9L20813.2,7547.9z"/>
	<path fill="#DDDDDD" d="M20633.3,7499.9l10-16l7-61l22-41h18l19-6l-6-40l-7.9-37.1l23.9-20l18-15l36,20l21,35l4-10l49.1-4l-9,54
		l-25.1,52l-19.9,38l-20-10l-19-10l-13,25l-19,25l-48.9,15L20633.3,7499.9L20633.3,7499.9z M20790.3,7406.9l-6,6l4.9,13
		L20790.3,7406.9L20790.3,7406.9z M20783.3,7333.9l-10,5.1l-10,25l10-5L20783.3,7333.9L20783.3,7333.9z M20800.3,7336.9l-6.1,6
		l5.1,13L20800.3,7336.9L20800.3,7336.9z M20760.3,7316.9l-6,6l5,13L20760.3,7316.9L20760.3,7316.9z"/>
	<path fill="#DDDDDD" d="M20447.3,7428.9l-26-62l-13-38l-2-8l-98.1-101l4-34h11.1l50,61l50,61l64,62l6,32l-19.9,32l9.9,20l10,4
		l-19.9,8.1L20447.3,7428.9L20447.3,7428.9z"/>
	<path fill="#DDDDDD" d="M17457.2,7316.9l4-16l12-23l-15-13l-15-5l10-11l0.9-55l24.1-183l80-15l64.9,86l-66,158l-14,23l-67,66
		L17457.2,7316.9L17457.2,7316.9z"/>
	<path fill="#DDDDDD" d="M20296.2,7110.9l-23.9-44l-22-38l-18.1-29l-35-46l-12.9-31l-15.1-14l-42-15l-34.9-15l-19-21l-40.1-69
		l-85-53.9l-50-17l-16-4l-10-58l-9-28l-33-6.9l-40,9l-23,13l-56-35v-156l51.9-86l19-28l6-81.1l83-48l42-19l25-21l23.9,5l39,15.1
		l22,9.9l15.1-9.9l15-11.1l21-6l49-34l61-4l44,23.9l12-22l23,7l5,47l11.1,56.1l6.9,40l34.1,80.9l44,32l3,53.1l59,89l8.1,59l-36,58
		l-13.9,50l-9.1,56v37l42,44l11.1,30.1l-4,23.9l59,31l-22,19l-69,43l-20,5l-10.9,17l-23,43l-19,36L20296.2,7110.9L20296.2,7110.9z"
		/>
	<path fill="#DDDDDD" d="M18648.2,6958.9l128-186l57-77l45-45l42.9-39l50.1-127.9l108-192.1l76.9-113l27.1-36l89-95l121-77l45.9-4
		l3-41l-29-15l-16-17l36-15l62.1-39l35-13.9l57.9-16l59.1-13l127-18l213.9-34.1l15.1-6l12.9-7l44.1-9.9l47.9,6l15.1,13.9l19.9-26.9
		l15.1-2.1l15,8.1l38-17l58-15l70,5l35,14l-8.1,7l19-3l69.1,3l25,3l223.9-2l68,13.9l25.9,8.1l25.1,2l88,13l-102,13l-58,7l-28-17
		l-31-21l-131,18l-57-14l-10-2l-19,7l-26,5l5.1,10l4,11.1h-13l-57,2l-61-9l-19-10l-17-7l-21,6l-51-10.9l-22-22l-2.1,25l-45.9,31
		l-45,20l-70,18l-48,18l17,13l78,28l-73.9,8.1l-101.1,13l-35.9,9l-20,12l-30.1-7.9l-44-22l-67,3.9l-50,23l-32.9,25l-55,19l-35,6
		l-34-0.9l-40.1,3l-3,28l10,108l36,109l59,23.9l-9-2l-15-2.1l-2.1,20l-13.9,14l-34.1,60l-60,3.9l6-37l18.1-10.9l-22-5.1l-30.1,6
		l-7.9,11.1l-15.1,25l-15,45l-23,29l-41.9,13.9l-5.1,31l6,74l-9,28l-10,10l-16.9,8.1l-25.1,21l-25,20l-40,18l-15,21l-20,23l-31,13
		l-31,3l-28.1,15l-16,21.1l-9,10.9l-60,59l-48,37l-23,13l-9,15.1l-10,28l-29.9,36l-69,23l-72.1,19L18648.2,6958.9L18648.2,6958.9z
		 M20373.3,5732.9l-15-4l-15.1,10l15.1,4L20373.3,5732.9L20373.3,5732.9z"/>
	<path fill="#DDDDDD" d="M16923.3,6809.9l9.9-35.9l4-19l5.1-21l10.9-18l-10.9,3l-5.1-3l6-38l40.1-3.1l-8.1,21.1l-16,15l-18,72l-6,25
		l-4,31L16923.3,6809.9L16923.3,6809.9z M16973.3,6678.9l-10-10l-10,10l10,10L16973.3,6678.9L16973.3,6678.9z"/>
	<path fill="#DDDDDD" d="M21133.3,6643l-15.1-65.1l-9.9-39l5-10.9l4-15l-6-26l12.9-2.1l8.1-10l-19-22.9l-25-32l64.9-12l11.1-2.1
		l7.9,31l22,60.1l15.1,22.9l-5.1,37.1l11.1,61.9l-30.1-16l-22,25L21133.3,6643L21133.3,6643z"/>
	<path fill="#DDDDDD" d="M20889.3,6589l-55-36l-93,12l-78,14l-47.1,10.9l-15.9-23.9l-17-12l-50-57l-8.1-18.1l-4-29l-12-53l-16-54
		l-41-94l-4.9-27.1l4.9-44l24.1-12l25-33l-9-86.9l41.9-61l36,42l26,207.9l19-38l16.9-57l21.1-46.1l23.9-44.9l29,19.9l28,20l-3-17
		l-7-79l39,1l15,36l2.1,22l7.9,44l-19,35l-38.9,48.9l-26,70l-20,65.1l25,13.9l36,31.1l45,23.9l22.9,15l-56,20l-60-13.9l-55-25.1
		l-48.9-0.9l-21.1,31l-15,52l146,44.9l200,13l25,43.1l19,50L20889.3,6589L20889.3,6589z"/>
	<path fill="#DDDDDD" d="M21198.3,6230.9l-37-15h-8.1l-19.9-4l-5.1-29l15.1-18l34.9-13l35,24.1l20,3l39-5.1l53-15l48,3
		L21198.3,6230.9L21198.3,6230.9z"/>
	<path fill="#DDDDDD" d="M21042.2,5754.9l-64-10.9l-75-25l-61.9-40.1l-54-42.9l-21.1-39l-3-23l123,54l79.1,51l113,70L21042.2,5754.9
		L21042.2,5754.9z"/>
</g>
<g id="australia" transform="translate(0,239) scale(0.016963,-0.016963)">
	<path fill="#DDDDDD" d="M21453.3,6428.9l-47-29l-18.1-1l-44.9,4l60-64l50-25l93-39l51.9-6l-29.9-6l-35-9l-30.1-10l-50-16l25-19
		l25-25l11.1-15l3.9-10l16-44l25-7l21.1-5l-4,13.9l-3,21.1l45-3l55-33l47.9-19l186.1-89l12-30.1l14-37l7.9-18l8.1-35l-17-35l-69-88
		l101,0.9l40,12l72.1-44l92-48.9l61.9-5.1l24.1,3l13.9-10l-10-29.9l3-10l22,51l10,19l10,16l9,10l9.1,18l95.9,68l44-17l47.1-32.9
		l16.9-22.1l8.1-19l15-31l9-21l10-9l22-24.1l52-37l76.9-11.1l52-13.9l108-4l-2,9h-23l-2,9l-28.1,22l-29.9,30.1l-17,22l-25,26.9
		l-26,18.1l-42.9,35.9l-51,78.1l-38,57l35,22l35,18l-56.1,58l-31.9,17l-43.1,21l-21,31l13,25.1l9,15.9l-15.1,4l-35,8.1l-19.9,32
		l-9,5l-24.1,10l-35,15l-32,15l-67.9,30.1l-97.1,39l-51.9,19l-13,5l-41,16l-109,43.1l-98,22l-35-31.1l-31-18l-26-7.9l-17-30.1
		l-32.9-41l-36-21l-34,47.9l-17,34.1l-23,21l11.1,7l3.9,5l-9.9,58l-30.1,53l-49,15.1L21453.3,6428.9L21453.3,6428.9z"/>
	<path fill="#DDDDDD" d="M22195.3,5536.9l-16.9-38l-28.1-58l-22.9-74l-14-53l-15-76l-66-215l-19-31l-56.1-43.1l-64,40l-57.9,40.1
		l-32,25l-26,25l-20,25l-23.9,10l-49,31l-48.9,47.1l19.9,21l29,44l20,17l5-20l46.1-19l-6,61.9l-21.1-7.9l-15,14l11.1,23.9l35.9,42
		l10,54.9l-10,23l-6,12l-10.9-9l-21.1-13.9l-15,9l-34-8.1l-42-9.9l-34,12l-36,13l-26,9l-12,15l-10,3l-21,3l-20,12l-9,14l-25,11.1
		l-25.1-3l-12-5.1l26-36l14-42.9l-65.1-10l-53-4l-12-9l-62.1-75l-15-25l-21.1-22l-22-35l-9-32l-35-25l-50-7l-7.9,5l-10,22l-16,19
		l-31.1,36l-44,6l-16-12l-69,5l10-10l10-22l-15-3.9l-15.1,2l-19.9-11.1l-20-21l-6-22l-60-70l-3-36l-37.1-0.9l-29.9-4l-4-16v-26l1-19
		l-14-16.9l-12,25l-14,41.9l-44-38l-37-73l-32-70.9l-51-62.1l-129-60.9l-66.1-18.1l-44-16.9l-38-15.1l-51-10.9l-45-5.1l-19.9-9
		l-47.1-29l-67.9-45.9l-50-44l-12.1-26l-6,29.9l-16,15.1l-35-92l-25-66.1l-7-129l-7.9-57l-18,39l-10-25l-10-25.1l-11.1,25.1l-6-19
		l21.1-73l19-82.1l10-80.9l6-60l-3-149l-15.1-123.1l-13-26.9l-51-66l-28.9-26l9-44l25-18.1l98-45.9l98,23.9l61,25l36,22.1l215,28.9
		l86-5l44,45l60,44l22,9l33,16l45,22l50,9l193,44l103.1,16l117-16l37-18l50-19l50.1-23v-12l2-48l13-104l16-39l35-6l89,89l60,45
		l51.9,39l-6-11.1l-13-23l-25.9-35l-40.1-50.9l-37-43.1l-37-26.9l9.9-11.1l43.1,7l38,35l29.9,35l-21-78.1l10-35.9l40-27.1l-6-67.9
		l-9-70l34-42l21.1-17l41-9l48-10l28-22l70,13l53,18l43.1-25.9l37-34.1l21,4l216,104l123.1,67l25,39l25,39l45,53l92,99.9l156,147
		l37,31l28,41l62.1,85.1l22.9,47l93,175l20,70l-5.1,25l-10-14l26,105l4,23l19,42l19,51l-6,3.9l-53-9l-9.1,19l-13.9,30.1l-21.1,29.9
		l-18,23l-16,19l-6,54l-14,52l-25.9,9l-22,2l-13,28l-14,67l-2,36l10.9,23l-16,19l-86,60l-19.9,10.9l-14,7l-9,6l-29,49l-4,31l-2,16
		l-11.1,118l-2,146l-20,29l-10,29.9l5.1,23l-27.1,11.1l4-9.1v-9.9l-26.9-1l-8.1-9l-16-10l-12,50l16,45l12,33v41.9l-1,40.1l-9.9-69.1
		l-7-26.9l-7,23.9l-7,28.1l7,47l-7,3l-32,37l-0.9,36L22195.3,5536.9L22195.3,5536.9z M19833.3,4193.9l-4-15l-10,15l4,15
		L19833.3,4193.9L19833.3,4193.9z M21733.3,3173.9l-17-10.9l19,25.9L21733.3,3173.9L21733.3,3173.9z"/>
	<path fill="#DDDDDD" d="M21589.3,2950.9l-30.1-79.9l-15.9-61l-8.1-60l31-45l97.1,35.9h13l40,18.1l27.1,44l19,16l26.9,23l30.1,57.9
		l-49.1,41l-112-5l-29.9,24.1l-7,16.9L21589.3,2950.9L21589.3,2950.9z"/>
</g>
<g id="europe" transform="translate(0,239) scale(0.016963,-0.016963)">
	<path fill="#DDDDDD" d="M14349.2,13129.9l-48.9-16l-138.1-59l-18-2l-11.1-3l13-12l35-4l44,19l15,10l16-18l32,4l9.1,4l9-17l77.9-4
		l64-3l21-9l48,14l25,15l51,21l-19,9l-22.9,10l-132.1,20l-6,15l-23,15L14349.2,13129.9L14349.2,13129.9z M14468.3,13078.9l-44-19
		l-26,1l25,8l10,10l10,10L14468.3,13078.9L14468.3,13078.9z M14213.3,13064.9l-10-11l-10,4l10,11L14213.3,13064.9L14213.3,13064.9z"
		/>
	<path fill="#DDDDDD" d="M14005.3,13084.9l-25.9-19l-4-7l-12,10h-145l32-13l27.1-9l-2.1-9h114l15.9,11l10-9l82.1-21l15.9,10l-44.9,4
		l-16,10l32.9,16l13,10l-26,10l-19,10L14005.3,13084.9L14005.3,13084.9z"/>
	<path fill="#DDDDDD" d="M12513.3,13040.9l-52-8l-44.9-10l7.9-25l3-9l-25,16l-36,11.1l-28,3l-61.9,4l-85-4l-21.1-17l32-42l26-24
		l-27.1,16l-32.9,7l37-30.1l38-5l78.1-47l40-28l57-20l90,10l19.9,30l59.1,50l9,11.1l85-22l5.1-28l32.9-11l39-9l70,10l28,9l12,10
		l-35,10l-34,15.9l-31,12l-25,3l-108,44l-5.1,6l75.1,5l206,14l22,10l13,28l-158,8.1l-11.1,2l-54-4l-15-4L12513.3,13040.9
		L12513.3,13040.9z M12601.3,12990.9l-13.9-10l-22,16l13.9,10L12601.3,12990.9L12601.3,12990.9z M12403.4,12923.9l-18.1-5.1l-19,14
		l19,5L12403.4,12923.9L12403.4,12923.9z M12333.4,12898.9l-10-10l-10,10l10,10L12333.4,12898.9L12333.4,12898.9z"/>
	<path fill="#DDDDDD" d="M14984.2,12841.9l-48-20l-149-24l-174-28l-103-42l-16-16l-44-75l-32-16l25.1-10l9-10.9l-45-26l-11.1-25
		l-7.9-30.1l-25-23.9l50-33l14-4l22-19l35.9,2l8.1-3l99.9-36l138.1,6l-12,8.1l-12.1,2l-34,21l-40,19l-28,23l-22.1,68l10,10
		l119.1,120l29,18l197,62.1l127,80L14984.2,12841.9L14984.2,12841.9z M14470.3,12622.9l-19-1l6,6L14470.3,12622.9L14470.3,12622.9z"
		/>
	<path fill="#DDDDDD" d="M12978.4,12437.9l-23-4l-40-17l-18.1-10l-26,12l-73-20l-73.9-21l-16-11.1h-6l-89-14l-37.1-19l-50-35l-5-27
		l-3,7l-20,6l-16,8l-53-5l-39-36l-5.1-9l-82-32.9l45,3l35,10.9l30.1,5.1l29.9-1l-15-9l-15-19l-50.1-55l-50-45l-20-13.9l-19.9-31
		l-67-66l-13-10.9l1-16l-52-44l-60-27l-32-3l-26-11l-8-11l-24-22l-29-16l-25-15l-25-16l-8-4l-39-14l-32-94l14-70l7-20l-1-66l9-20
		l40-45h151l77,46l43.1,38l6,1l19-23l14-35l19.9-52l20-33l35-45l25-40l-10-18l-7-13l-73-21l-67-17l6,24.1h11l10-12l5,15l5.1,15
		l-10,35l-10.9,35l-1,65l-8.1-10l-13.9-10l-26-15l-41-15l-51-148l2-37l-3-21l19-3l14-5l-11.1-16l1-15l-51-39l-61-8.1l-54-10.9
		l-98-60l-151-138.1l-58-52l-48-47l-52-29.9l-69-7l-42,21l-21-16l-22-73l-50,8l-113-14l-3-59l13-10l13-4l61-31l6-15l5,10l47-10l9-20
		l3.1-16l16-25l15.9-9l9-10l3-10l9-12l4-23l-22-153l-69.1-47l-277,19l-59,9l-69-13l-35-20l-31-53l12-93l-50-181l-9-13l-2-30.1
		l1-29.9l9-15l13-12l3-93l36-24l66,8l79-45l76-36l142,47l78.1,1l32,30l45.9,36l46.1,44l28,39l25,15l-2,28l-10,69l111,118l67,27
		l64,87l-10,32l167,28l92,15l62,36l39,25l24.1,23l105.9-49l13-35l-6-34l-6-20l19,6h24.1l16-27l19.9-14l20-8l123-87l49-27l42-28
		l16-16l29.9-26.9l45-57l5-48l-9.9-21l-164.1-37l-76-23.9l118-70l19-13l31-20l36,47v42l26.9,19l69.1,58l19.9,23.9l-5,63l-12,40
		l41.9,22l33-13l20-25l26,5l-104.1,102l-59,51l2,19l-50,3l-78,39l-35,54l-62.1,71l-38,77v20l23,43l48.9,4l-3-34l42-27l9-8l10-28
		l10,14l12,27l5.1-10l9-33l4-23l56-50l31-20l43.1-21.1l25-1l-25-8l6.9-9l38-11l24.1-10l67.9-37l52-38l-6-61.9l22-79l15-24l15.1-40
		l28.9-16l1-68l2.1-25l15.9-23l27.1-6l45-59l31-29l23.9-9l10-15l10,10l10,10l10-25l10-25l-7,95l-2,18l31.9-13l12.1,21l16.9,17l20,16
		l12,7l16-6l15.1-5l15-32l16-4l-5.1,38l-21,14l-41,41l-29,23l-31,30l-20,30l-37,72l35-16l38-16l10.9,3l10,13l5.1,7l9.9,10.9l-3,35
		l28.1-1l-4-4l-12-3l32.9,7.9l38,7l57-23.9l84.1,13.9l54,20l45.9,12l-22.9,29l-59.1,107l10,32l19,27.1l23,53l31,62l26.9,38l30.1,57
		l30.1,45l25,12l25-15l107-28l27.1-7.9l-15.1-9l-42.9-41l52-14l19.9-34l26-29l38,12l33,16l29.9,10l41,10l34,15l51-27l32-18l32.9-15
		l33-15l32-16l48.9-6l63.1-7l66.9-26l81-36l99.9-23l54,6l65.1-57l357.1-162l-20,12l-112,104l-95,137l-63,88l-2,13l19.9,37l83,58
		l12,10l90,74l60,32l-25,27l-27.1,59l-31,73l-61,120l31.1,51.9l89,11.1l60.9,11l208.1-9l107-16l48-5l19-11.1l35-15l49-1l44,9
		l19.9,72l-54.9,47l-52,58l-10,61.9l-6,77l-95-4l-109,1l-48.9,65l-6,49l47,20l39,128l-51,130l-84.1,351l-45.9,136l57.9,30l212.1,150
		l-42,52l-228,78l-169,36l-63,11.1l10-32l31-16l108-49l-12-25l-19-15l-10-9l-15.1,12l-31.9,55l-6.1-16l-28-12l-50-15l-58-7l-61.9-13
		l-37.1-7.9l-10.9,41l-22,6l-62.1-14l-54-17l-73.9-25l-60-23l-60-45l-15-27l-89.9,7l-27.1,15l32,34l38,11l-34,26l-107.1,31l-51.9-17
		l29.9-49l25-54l16-51l-28.9-2l-41.1,11l-21,16l-32-15l-48-31l-44-23l-29-23l23-22l-53.1-28l-78,26h-44l1-40l13.9-10l29-10l35-15
		l-103.1,6l-53,19l-18,13l-20,32l-9,37l-53,53l-31.1,19l77-4l328,1l10,76l-100.1,49l-35.9,11l-36,16l-80,29l-137,30.1l-92.9,23
		l-84.1,17l-56-2l-45,5l32.9,12l28.1,21l-136.1,37l-9.9,4l-34.1,11l-48.9-22l-17-8l-26.9,28L12978.4,12437.9L12978.4,12437.9z
		 M13023.3,12418.9l-10.9-10l-4,10l11.1,10L13023.3,12418.9L13023.3,12418.9z M13133.4,12424.9l-35-6l13.9,10L13133.4,12424.9
		L13133.4,12424.9z M12673.4,12328.9l-15.1-4l-15,10l15,4L12673.4,12328.9L12673.4,12328.9z M12573.3,12308.9l-16.9-10l-3,10
		H12573.3L12573.3,12308.9z M12467.4,12242.9l-4-9l-10,16L12467.4,12242.9L12467.4,12242.9z M12546.4,12251.9h-25l12,5
		L12546.4,12251.9L12546.4,12251.9z M12992.3,12032.9l31-24l-21-13l-17-8l-78-79l-14-8l-73-36l-22-5l9.1-17l0.9-20l-5-34l18-37l6-69
		l14-50l15-10l32-18l37-17l77,9l88,15l22,5l76.1,16l95-14l-13-32l-27.1-16l-150,1l-132-60l-3-17l-15,20l-12.1,13l-40-18l-4-21
		l-9-27.1l22-25l24.1,12l19,9l45.9,10l22-9l-9-99.9l-42.9,34l-66.1,23l-57-137l-45.9-80l-17-15l-23.9-27.1l-51,12l-150-15l-72-25
		l-93,25l-124-19l-45-10.9l49,40l13.9,10l21.1,15l10,10l-18.1,3v9l6,21.1l5.1,7l13,18l7.9-8.1l51-25l49,20l73.9,45l37.1,18l10,2
		l13-10l31,89l-11.1-6l-18,10l14,88l23.9,14l26.9,9l28.1,10l22,23l15,27l2,35l-72,53l-29,66l7,43l28,45l29,29l91,45l47.1,36l22.9,43
		l9,39l32,26l8.1,5L12992.3,12032.9L12992.3,12032.9z M12213.4,11936.9l-63.1-58l3,15l5.1,15l15,20L12213.4,11936.9L12213.4,11936.9
		z M12030.3,11822.9l-19-1l6,6L12030.3,11822.9L12030.3,11822.9z M12243.3,11198.9l-16-14l-9,4l-4,10l-10.9,9l19.9,4
		L12243.3,11198.9L12243.3,11198.9z M12845.4,11196.9l-12.1-2.1l19,19L12845.4,11196.9L12845.4,11196.9z M12193.4,11179.9l13.9-3
		l-40-19l1,21L12193.4,11179.9L12193.4,11179.9z M11848.3,10999.9l-16-11.1l3,14L11848.3,10999.9L11848.3,10999.9z M14073.3,10519.9
		l-42-14l-7.9-10l23-21l6-16l-23-36l-66-21l-68-5l-30.1,16.9l-21,27.1l26.9,29l57,32.9l49,11.1l106,23.9L14073.3,10519.9
		L14073.3,10519.9z M12943.4,9785.9l3.9-12l-15-15l-16-2l-10,32l13,15L12943.4,9785.9L12943.4,9785.9z M13133.4,9808.9l-2.1-10
		l-22.9,10H13133.4L13133.4,9808.9z M13070.4,9772.9l-19-1l6,6L13070.4,9772.9L13070.4,9772.9z M13090.3,9736.9l-6,6l5.1,13
		L13090.3,9736.9L13090.3,9736.9z"/>
	<path fill="#DDDDDD" d="M10249.3,12092.9l-36-17l-19.9-14l-8.1-13l-28-15l44-12l9-29l-51.9-24l16-10l5,7.9l76-12l-17-36l-25-13.9
		l48-11.1l79-12l168-6l146,48l129,83.9l-30.1,31l-23.9,21l-8.1,9l7,16l-17,10l-43,4l-45-5l-22-15h-85l-72-18l-15.9,1l-35-4l-15-16
		l-20-3l-18.1,9l-32,40L10249.3,12092.9L10249.3,12092.9z"/>
	<path fill="#DDDDDD" d="M11110.3,11781.9l2-28l17-6l-5-19l5-21l11,3l4,23l4,15l5,15l10,18l-9-2l-15-2L11110.3,11781.9
		L11110.3,11781.9z"/>
	<path fill="#DDDDDD" d="M11324.3,11535.9l-11-24l-75-21l-40-19l-66-58l-25-5l-2-28l11-19l-3-10l9,6l15,3l-29-22l-35-21l20,1l20-4
		l18-19l-10-15l-28-21l34-12l26-13l-10,4l-10-3l30-12l24-9l-15-16l2.1-21l18-13h75l14-31l-2-67l-48-2l-38-6l10-5l-12-25l-23-22l25,4
		l-10-45.9l9-52l40-23.9l-69-49l-35-26l-29-23.9l61,6l51,10l45,13l86,15l71,5l43,6l127,43l-15,11l-1,33l37,76l-89,19l-4,3v45l-12,39
		l-54.9,55l-27.1,38l-56,72l2,50l20,26l16,28l-56,36l-65,10l5,10l37.1,20l18,20l12,23l26,33L11324.3,11535.9L11324.3,11535.9z
		 M11133.3,11398.9l-11-10l-4,10l11.1,10L11133.3,11398.9L11133.3,11398.9z"/>
	<path fill="#DDDDDD" d="M10996.4,11220.9l-53-61.9l5-10l-51-6l-54-14l3-23v-18l12-33l-15-60l-29-66l3-12l9-5l17-4l128,26.9l77,24.1
		l43,38.9l12,78.1l25,51l7,67.9L10996.4,11220.9L10996.4,11220.9z"/>
	<path fill="#DDDDDD" d="M12099.3,10186.9l-31-22l-26.9-24.1l28-86.9l-10-30.1l-35-6l-13-6l8-38l9-39l7-96.9l34,6l28,12l28,96
		l-15,82l-7,52L12099.3,10186.9L12099.3,10186.9z"/>
	<path fill="#DDDDDD" d="M13120.4,9561.9l-7-23l42-24l48-17l60-2l41,31l-6-9l-11.1,2l-69,18l-53,12l-14,3l-16.9,5L13120.4,9561.9
		L13120.4,9561.9z"/>
</g>
<g id="southamerica" transform="translate(0,239) scale(0.016963,-0.016963)">
	<path fill="#DDDDDD" d="M5921.3,7544.9l-28-28l-14-18.1l-39-19.9l-61-20l-42-15l-28-9l-87-128l-10-8.1l-39-37l-30.1-26l-23-35
		l-38.1,30.1l-130,78l-9-28l25-42l31-32l17-10.9l-1-9l15-80l26-38l7-215l1-26l-22-89.1l-9-13l-35-26.9l-35-36l-15-28l-10-29l-39-41
		l-46-56l-15-44l-15-30.1l-20-36l-15-21l2-89l21.1-29l32-40l10-11.1l10,12l5.1,6.1l-18-38l-50-42l-32-83l20-56l5-39l34-51l72-73
		l49-81.1l55-105l52-101.9l18-40.1l20-32.9l20-36l9-23l77-132l61-112l241-153l32-18l35-27.1l35-26.9l35-37l62.1-88.1l31-342l-8-25
		l8-25l12-444l7-52l8-80l15-98l20-67l10-19l10-42l1-63l-16-220l-5-73.9l-16-17l-9-21l21.1-44l13.9-29l26-58l20-72l26-150l7-20
		l-5-29.9l12-62.1l64-37l-1,35l-3.9,13.9l-5.1,15.1l-4,15l-4,12l4,24.1l10,9l4,10l10-21.1l11-13.9l5-8.1l4-42.9l15-83l17-57l-7-15.1
		l-26-9.9l-3,23.9l-34,42l-5-12l-3-38l-23.9-19l-1-22l51-34.1l-11.1-25l-6-29.9l-7.9-44.1l-9-29.9l36-5.1h26l32-6l4-9l4-16l-26-66
		l-14-18l7-14l26-52l7-6.9l35-72.1l22-41.9l16-30.1l22-3l18-41l7.9-30.1l23-22.9l43-28.1l46-16.9l31-19l8.1-9l-55,6l14-24.1l41-19.9
		l23-17l3.1-13l44-27.1l29.9-13.9l23,16l-23.9,10.9l-19.1,4l51-13l10-28l15-15l32-23l32,1l10-3l17-16l36-12.1l37-6.9l15-5.1l16-5
		l9-4l45-9l60-12l23-6l-12,21l39,10l51,10l10,15l20,15l16,15l-2-15l4-15l16,20l-35,19.9l-219,115l-48,63l-23,28l-85,123.1l25,26.9
		l25,69l47,88.1l26,41l-10,29.9l-54,46.1l-108,59l66,101.1l22,25.9l2,14l-4,50l-16,43.1l30,28l45,29l4,50l-54,14l-44-6.1l-24,53.1
		l-16,57l49-12l114-4l14,54l-4,41l-11,54l1,13l11.1,4l39,12l245,88l9,27.1l-8,124.9l-31,54l-72.1,74l-37,37l16,3l51-18l32-9l115-26
		l130.9,74l13,31l45,91l41,66l28,49.1l-13.9-5l-44-29l19.9,38l25,54.9l16,22l11-22.9l9-28l25,37l60,137.9l34.1,160l-6,146l91,93
		l30,15l30,17l35,3.9l35,4l-11,10l-5,9l189,52l60,28l38,44l25,40.1l70,177.9l7.9,76.1l12,66.9l26,181l-4,130l28,125l54.9,80l67,114
		l122,169.9l-3,220l-31,93l-65,13.9l-146,86l-110,83l-99,22l-70,5.1l-37,7.9l-34,9l-80,15.1l-15.9-4l-42,41l-12,27.1l-15,25.9
		l-10,11.1l-10-10l-82,35l-7.9,1l-14,3l-83,26l-73.9-52l-4,22l-22,68l-51,26.9l-26,20v72l-17,57l-34,30.1l-35,118.9l-40,70.1l-57,47
		l-68,55l-44,16l-161,14l-128,51l-53,39l-9,23l-19,44l-130,76l-24,30l-14,52l-23,17l-18.1,8l-29.9,12l-22-2l-10-3l-6,26.9l7.9,16
		l34,15l-76,11l-102-6l-8-13l-23.9-26l-96,26l-85,8l-85-7v26l-87,66l-23,23l-26,30l-13.9-39l-27.1-40l-57-27.1l-23-4l-3,17l-10,20
		l16,20l44,47L5921.3,7544.9L5921.3,7544.9z M5963.3,7308.9l-30.1-50l-19.9,39l6,60l18,21l13-23L5963.3,7308.9L5963.3,7308.9z
		 M6150.3,5115.9l13-37l-16,3l-19,17l-18,20L6150.3,5115.9L6150.3,5115.9z M8083.3,4468.9l-4-10l-11,10l4,10L8083.3,4468.9
		L8083.3,4468.9z M7710.4,3817l-6,6l5,13L7710.4,3817L7710.4,3817z M6988.3,2779l-14-10l-21,10l14,9.9L6988.3,2779L6988.3,2779z
		 M6447.3,2613.9l-15-9l11.1,24.1L6447.3,2613.9L6447.3,2613.9z M6428.3,2577.9l-13-4l-2,25L6428.3,2577.9L6428.3,2577.9z
		 M6473.3,2544.9l-15-10l-15,4l15,10L6473.3,2544.9L6473.3,2544.9z M6923.3,1909l55-32l7-11.1l-15-23l-11.1,11.1l-23.9,7l-18,13
		l-4,60L6923.3,1909L6923.3,1909z M6858.3,1909.9l-23-10.9l4,13.9L6858.3,1909.9L6858.3,1909.9z"/>
	<path fill="#DDDDDD" d="M7538.4,2059.9l-35-3l-2-9l-3-33l14-31l62,23l24,16.9l1-54.9l67,28.9l31,42l-63,16l-61,6L7538.4,2059.9
		L7538.4,2059.9z"/>
</g>
<g id="northamerica" transform="translate(0,239) scale(0.016963,-0.016963)">
	<path fill="#DDDDDD" d="M10003.3,13217.9l-270-13l-165-13l-55-4l-25,3.1l25-21.1l7.9-21l-23.9,11l-25,6l-33,9l-21,4l-30.1-10
		l-31-15.9l-16-9l-105-1l-13,1l-113,12l-177-12l-52,1l-26,24l-50,12l-354.1,13l-533-28l-82-5l-96-2l-133-15l-184-26l20-9l20-14
		l33-24l12-11l-34-13l-9,1l-21,17l-43,24l-68,20l-55-10l-41-10l-34.1-10l-22-11l-67.9-18l-44-42l29-28l13-10l2.1-31l152-26l164-29.9
		l-23.9,4l-105,6l-9-26l-16-15l-77-8l-59-8l-46-18l12-3l4-5l-26,4l-63,10l-51,4l-31,11l-29,9l-106-9l-20-13l2-6l25-57l-73-9l-69-5
		l29,26l12,42.9l-36,3l-25-2l-121-6l-54-30.1l-10-9l-5,15l-61,33l-42-43l5-7l69-33l40-17l73-15l86,19l31,8l6-12l5-19l6-14l2.1-20
		l15,9l49,3l77,23l13,37l-1,15l12,19l94-2.1l4-18l-29-13l-31-54l235-15l191,5h21l175,11.1l60,48.9l-274,15l-88-8l-54,8l-48,26l28,8
		l134,8l187,3l80,1v-11l40-4l38-5l3-20l31,20l28,20l85,37l-26,9l-19,4l28,10l52,16l80,20l74,25l17,3l38,5l25,11l40,24l160,42l87,20
		l46,18l255,58l25,1l50,5l165.1,28l-12-20l-73-15.9l-290-58l42-12l46-10l-140-41l-333-52l-27-14l26-11l44-12l24-8.1l-50-6l-60-7
		l20-9l20-13l128-75l44,6l25,2l40-4l243.1-7l73-29l16-34l4-20v-19l-5-6l-17-11l23-4l-7.9-17l-25-22l23,6l6-14l-4-29l-7-10l-10-24.1
		l-16-28l-14-42.9l50-12l42-4l-9-3.1l-16-5l21.1-10.9l17,18l7,17l7-12l20-13l25-20l-22-10l-129,1l6-15l-15-1l-23-3l-14-34.1l-19-25
		l32-18l86-3l35,47l-20,18l18-5l34-12l2-72l-66-21l-74-26l-33-31l-55-66l18-15l-5-9l-34-54l3-28l13-15l11.1-8l3-15l-4-37l2-47l4-15
		l20-61l6-30l2-30l20-39l26-45l15-26l38-11l112-35l18-20l39-16l88,30l22,22l18,20l39,52l40,61l32,37l52,35l45,31l17,19l21,34l16,40
		l2,18l65,34l41,9l39,13l7,1l69-13.9l15,10l15,11l10,4l23,2l67,27.1l105,61.9l77,50l38,22l19,3l53-7l336,76l49,20l76,29l68,28l-58,7
		l-125,25l20,24l26,22l32-18l9-25l126-11l14,50l-34.1,61l-7.9,11l45,28l5,9l12,19l66,31l32,43l7,7l34,1l102,48l27,8l22,3l-10,10
		l-10,10l-23,10l-36-41l-49-2l13,20l-7.9,91l32,24l29-20l4-9l6-13l18,10l26,30.1l11,18l-41,19l-45,8l14,3l35,3l-13,18l-33,21
		l-21-0.9l-5,20l64,14l34,11l11,17l-3,9l54,23l50,15l43.1,17l32,16l29.9,9l40,8l76,21l-64,39l-130-7l-51,10l-9,9l-13-12l-16-16
		l-15,9l-17,17l-12-4l-40.1-26l-38-5l11.1,26l7.9,15.9l32,10l-60,20l-106,20L10003.3,13217.9L10003.3,13217.9z M9610.3,13143.9
		l-23-8l2,14l20,8L9610.3,13143.9L9610.3,13143.9z M10573.3,13138.9l-35-9l5,9H10573.3L10573.3,13138.9z M7550.3,13122.9l-19-1l6,6
		L7550.3,13122.9L7550.3,13122.9z M7600.3,13050.9l-50-23l-20,5l83,26L7600.3,13050.9L7600.3,13050.9z M7758.3,13058.9l-11-10l2-15
		l-8-4l-17,26L7758.3,13058.9L7758.3,13058.9z M7593.3,12991.9l-7-7l-18,16l8,8L7593.3,12991.9L7593.3,12991.9z M7573.4,12974.9
		l-10-11.1l-10,4l10,11L7573.4,12974.9L7573.4,12974.9z M7383.4,12933.9l-23-15l9,15H7383.4L7383.4,12933.9z M8356.3,12871.9h-25
		l12,5L8356.3,12871.9L8356.3,12871.9z M8206.3,12861.9h-25l12,5.1L8206.3,12861.9L8206.3,12861.9z M6558.3,12797.9l-15-4l-2,15
		L6558.3,12797.9L6558.3,12797.9z M6400.3,12782.9l-19-1l6,6L6400.3,12782.9L6400.3,12782.9z M10358.4,12608.9l-4-10l-11,10l4,10
		L10358.4,12608.9L10358.4,12608.9z M10336.4,12578.9l-2.1-45l-9-8l-22,24l-17,28l27.1,10L10336.4,12578.9L10336.4,12578.9z
		 M10426.3,12581.9h-29.9l12,5L10426.3,12581.9L10426.3,12581.9z M10430.3,12562.9l-19-1l6,6L10430.3,12562.9L10430.3,12562.9z
		 M8548.4,11930.9l-18,7l6,5.1L8548.4,11930.9L8548.4,11930.9z"/>
	<path fill="#DDDDDD" d="M6613.3,12989.9l-45-18l-19.9-27.1l-15.1-20l79-10l84-15l48-10.9l52,29.9l-16,44l-57,19l-45,10
		L6613.3,12989.9L6613.3,12989.9z"/>
	<path fill="#DDDDDD" d="M6196.3,12944.9l-52-26l45-7.9l-57-7l-79-15l82-26l86,39h21l27,5l16,12l38,10v20L6196.3,12944.9
		L6196.3,12944.9z"/>
	<path fill="#DDDDDD" d="M5773.4,12869.9l-226-52l-56-9l-57-11l-5-31l34-9l29,5l21,6l32-6l13-8l7-16l52,10l26,5l-27.1-16l-10.9-19.9
		l60-13l40-15l172-12l211,25l143,32l-14,45l-47-2l16,23.9l-5.1,37l-2-12l-5-4l-49-4l-52-30.1l-7-10l-5-23l-41-6l-53,8l-95,48l-34,19
		l20,15l19,8.1l30,16L5773.4,12869.9L5773.4,12869.9z M5752.3,12777.9l46.1-8.1l-47,3l-60-5l7-10l9-5l-35,5l-6,10l17,12l-32,4
		l-7.9,7.9l44,4L5752.3,12777.9L5752.3,12777.9z M5788.3,12798.9l-26-10l-14,10l26,10L5788.3,12798.9L5788.3,12798.9z
		 M5778.3,12708.9l-26.9-9l-8.1,9l27.1,9L5778.3,12708.9L5778.3,12708.9z"/>
	<path fill="#DDDDDD" d="M5170.4,12671.9l-39-29l-23-23.9l-59-25l-58-25l-27-14l-63-31l-42-26l17-4l43.1-40l64.9-12l83,16l65,20
		l156,51l-28-14l-51-21l-0.9-28l-13-25l-16-36l107-10l141,6l23-8l-119-9l-198-36l88-49l44-12l-12-28l88-14l137,14l95,15l45,4
		l-40-7.9l-95-70l-37-6l-41,21l26-5l17,15l-42,3l-216.9-15l-12-2.1l-39-10l23,24l33,45l-79,17l-105,15l-61,16.9l-26,15l-138-1l-52-9
		l-10,25l10-10l11.1-10l5,9l9,15l15,16l-70-14l-76-36l2,40.1l-11,45.9l-25-5l-80.9-41l-12,17l-13,9l-39-11l-203-45l13-5l11-5.1
		l-45,1l-121,7l-19-8.1l-36-16.9l-129,20l-48,15l-108,23.9l-72,8l-138,10l-150,18l-82,20l-53,10l-60,11.1l-20,7l-23,10l-67-7
		l-125-24.1l-125-19l-91-16l-195-64l-140-37l-112-25l-48-14l1-25l31-58l9-27l13-17l-62-51.9l-60,18l29,16l-85-1l-205-44l-57-36
		l-3-34l73-42l82-8l48,5l47,5l-1-10l-64-56h-60l-35-3l-98-25l-114-38l-42-18l-96-41l-33-13l-41-67l-19-18l-23.9-45l26-36l63,9l28-9
		l-29-25l-35-29.9l-33-25l-6-11l33,1l16,1l34,4l76-11l38,2l36,6l-20-42l-90-51.9l-65-28l-95-33l-130-59l-19,1l-166-42l-117-33
		l-110-56l29.9,1l49,11.1l58,15.9l50,10l39,9l27,10l14,5l62-10l31-8l26-1l26,8l-5,21l-15,16l25,10l50,10l34,9l99,42l23,8.1l9,5
		l31,5.1l25,4l34,16l62.1,24l118,45.9l33,13l45,12l57,25l61,25l33,41l6,10h31l18,13.9l31,15l25,10l18,10l37,13l55,18l-26-19l-19-22
		l-24-21l-31-20l123.1,15l67,19l13,5l99,7l63,15l35,40l-10-10l-9-10l-6,18l24.1,15l21,7l25,10l1-30l-23-17l30.1-1h63l7-17l-23-17
		l18-2l88,12l104-13l59-11.1l12-3l12-31l31-46l16-24l-24.1-99l-6-19l15-17l-7-18l-8.1-10.9l34,6l21,16l-25-31l-7-38h22l-22-9l-19-42
		l33-35l48,17l31,2l23.9,8l10,25l-5-26.9l5-33l10-18l-9,2l-19-5l-17-12l-30-31l-5-16l12-45l9-20l-9-22l17-20l-7-32l-10-42l-2-13.9
		l16-36l9-19l-72,1l-23,3l23,13.9l-3,3.1l-23-28l-10-28l13-13l26-25l3-21l21-15.9l15-16l9-15l10-15l8-9l32-15l-9-12l-59.1-81
		l-99-184l-37-48l-64-78l-91-147l-54-98l-29-67l-6-55l-7-61.9l6-43.1l4-23.9l4-42l7.9-45v-18l-1-68l14-93l39-38l37-18l44-15l3-14
		l7-15l45-80l11-165l5-54l24-67l41-49l6-60l-58-26l-18-6l92.1-97.1l77.9-80l-15-42l-15-44l38-40l92-107l13-19l31,12l12,43l-6,54
		l-11.1,17l-4-12l-13,11l-25,5l-6,8l9,33l-4,25l-14,66l8.1,15l-10,4l-10,18l-52,115l4,70l4,19l-16-7l-10,7l-10,28l-10,18l16-9
		l9,10.9l-24,26l-28,19l-7,91l41,64l26-6l45-51l2-67.9l-6-81.1l7-39l2,23l13-13l31-48l13-22l19-15l13-31l17-31l21-23l22-23l5.1-31
		l-17-37l52-49l21-27l38-53l44-60l40.1-66l26-134l-17-70l9-83l57-53l44-41l102-46l48-32l161-85l27.1-12l91-48l42-14l117,18l48,16
		l129-83l147-116l69-18l139-38l32-9l22-53l89-171l33-66l40,2.1h10l34-33l36-50l13-35l34-22l23-4l16,12l34-6l20-44l5-26l9,15l40-21
		l51-7l20,59.1l15,42l30,27l15,19l9,66l-70-35l-106-18l-18,3h-14l-10,24l-21.1,24l-25,26.9l-10,15l-19.9,28l-21.1,48v42l11.1,46
		l10,26l10,53l19,88l15,57.1l6,27l-17,31l-44,39l-156,23l-113-3l-25-5h-30.1l-26.9,4l15,23l34,69l16,52l4,12l18,25l25,39l12,43
		l12,45l9,23.9l7,24.1l15,29.9l9-4l24.1,4l2,20v21l6,44l-68,20l-129-19l-78-42l-11.1-35l-23.9-62l-126-93l-150-34l-46.1,13l-52,30
		l-57,92l-23,48l-18,60l-11,67l-7,45l84.1,255l25,91l159,196l223,82l62-11.1l51-15l13-15l79,6l34,7.9l3-25l26-2l-3,32.9l-3,34l23,28
		l245.9,4l22-28l62.1-6l74-7.9l27-40.1l2-80.9l-10.9-52l26.9-109l9-15l20-32l20-45l16-21l25-8l18,1l11.1,25l14,30l25,163l-4,72
		l-11.1,71l151.1,299l70.9,58l67,42l32,10l109,60l37,39l28,28l30.1,2l-27-20l-5-5l32,6l21,78l-10,78l1,40l15,48l19,6l-13-42l-12-32
		l24.1,9l19,39l5,2l38,21l21,60l4,38l9-9l54,19l55,69l70,45l96,41l28,15l66,7.9l25,6l26,11l20,44l-10-7l-29,6l5,33l14,26l150,103
		l107,42l52,15l19,19l58,22l56,16l33,1l-61-42l-70-62l11-42l45-4l20,10l20,9l88.9,56l23,1l177,59l18,15l30,20l73,47l-15,13l-3,30v32
		l-72-50l-60-52l-22,1l-103.1,19l55-2l20-8l20,10l28,24.1l-28,16l-74,35l-7,13l-12-16l-12-6v-30l-5-19l-27.1,67l38,53l34.1,34
		l-27.1-6l12,21.1l-33,86.9l-253-77.9l-22,4l141,71l47,29l54,41l238,9l217,9l29,16l50,30l126,46h31l-45-44l-120-135l-15-11l-21-15
		l-15-9l-39-31h23l-21-21.1l83-59l219-26l-3-39l4,9l5,16l9-2l26-35l65.1,102l-10-10l-8-10l-9,15l8.1,10l19,10l-4,15l-33-20l-27-20
		l13,24l9,29l17,4l33,15l-17,11l-6,31l-7,36l-10,9l6,13l-21-7l-13-7l-15.1,12l-15-8l-29-7.9l-23.9,12l19,14l-18,24l-33,7l34,29
		l42,19l13,25l4,16l16,15l-22,15l-14-9l-17-7l-31,3l45,24.1l61,80.9l-18,83l-32,58l-48,38l-26,10l-70,22l-7,4l-9,58l-7,30.1l10,61
		l7,29l-4,34l-20,44l-15,63l-10,72l-3,42l-29-40l-8-4l-72-51l-70-55l-54-21l-59-7l-55,67l43.1,96l4,16l3,7l8,6l-30,13l-53,7.9
		l-11,21l-2,24l-78,63l-28,17v-20l-6-11l-153,13l-83-11l-25-46l-63-72l-7-17l19-17l-8.1-36l-7-13l-51-35l-52-35l-37-34l10-6l60-62
		l-58-121l-212-99l-60-10l5-44l-5-44l-10-24l-8-30l-10-38l-32-56l-25-33l-4-9l-14,13l-30.1-12l-47,9l-17,32l-19,28l-9,32l22,9l58,9
		l-31,24l-27,17l14,25l9,29.9l8,24.1l33,64l-86.9,10.9l-93,19l-58,28l-42.9,25l-62.1,58l-56,21l-70,5l-43-11l20,93l-35,47l-34,6
		l98,124l66,45l87,50l33,20l40,21.1l36,15l13,7l9,10.9l53-4l6,3l21,21l48,31l30.1,20l26.9,11l60,15l197,91l100,63l-55-57l-59-68
		l-45-24l-1-33l31-17l68-1l52,20l32,20l57-5l110-14l25,30l-23,13l-19,18l-90,69.9l-11.1,35l11.1,33l17-32l39-12l13,19l23,34l26-6
		l24,17l45,15l40,15l36,25l12,38l54,57l41,35l-7,25l6,29l65-4l57-9l18-22l-35-34l-10-21l-16-27.1l12,6l19,12l15,33l9,7l90,62l-17,3
		l-53-6l25,11.1l35,23l9,10l16-13l8.1-17l5-9l12-1l28-25l27-17l-28-1l-22,9l-31,10.9l-3-26l3-25l28-5l35-9l-42-15l-120-80l145,35
		l14,23.9l12-6l37-21l37,12l-22,18l-26,18l10,2h21l6,1l21-13l16-22l-5-40l-18-18l-32-13l-66-32l-57-47l-5-27.1l-55-9h-88.9l-88-9
		l-61.9-67l104-12l77,10l57.9-3l17-11.1l10-10l13-16.9l19-43.1l23-42l44-17l51.9-10l50-21l74-20l50-15l21-16l42,21l-33,9l-12-6
		l-10,23l-23,42l-25,31l-20,14l-20,23l20-1l27-12l21-13.9l30.1-7l9,2l17-18l29-26l43-9l-7,20l-1,9l12,20l13.9,14l30.1,12l2,38
		l-4,40.1l-33,36l-35,53l11,16.9l3,29v7l25,3l64.9-54l30.1-41l23-4l59,24.1l44,18l36,8l42,40l37,19l23,18l-28,20l-43,15l-7,7l-7,11
		l-37,26l-47,19l-29,6l-40,25l-34,22l59.1,28l19,22v19l-63,82l-47,5l-7.9,11l-9,11l-14,14l-49,20l-58-12l-1,5l2,17l-6,10l-9,10
		l-16,15l-22,19l-42.9,9l7.9,6l27.1,14l-115,50l-97-10h-18l-140,2l-60-3.1l25,10l-25,10l-342-106l-25-16l-41-54l58-13l55-11l-59,2
		l-45-43l42-15l13-5.1l59-13l25-5l-43-55l-18-23l-50-28l-44-16.9l-8.1,10l-42.9-47l-26-20l-40-1l23.9,56l-23,73l-23.9,9l-14,20
		l-10,42v27l-1,36l-18,56l26,18l50,28l62,15l199,89l-54,9l-80,6l-118-24l-13-5l-37-14l-41-27l-13-25l-70-71l-33-19l-21-8.1l-69-47
		l-25-26l-23-34l-25-24l-47,13l-46,3l-37-25l-47-19.1l-18-35.9l26-17l-17-6l-43.1-17l-136-26l-118.9,14l-24.1,9l-23,16v14l-26-5.1
		l-12,10l-17,28l-8.1-5l-23.9-5l-30.1,4l27.1,14l38,4h21l9,4l19-18l67-14l77-13l36,10l35,21l3,29l10,18l19-13l6-14l64,53l-92,50
		l2,37l20,25l96,104l54,31l-60,20l-72-27.1l12-14l-19,1l-113-22l-39-55l-18-23l3,38l-10,33l-64,4l-67,1l-75,5l-20,1l-6,28l-32,25
		l-110,41l-150,7L5170.4,12671.9L5170.4,12671.9z M7098.3,12583.9l-49-48l-18-32l-10,25l-1,27.1l43,23l50,19L7098.3,12583.9
		L7098.3,12583.9z M7376.3,12567.9l49-16l18-5l-70-12l-27.1,17l12,27l3,10L7376.3,12567.9L7376.3,12567.9z M7006.3,12511.9l-3.1-24
		l-15-9l17,39L7006.3,12511.9L7006.3,12511.9z M7598.3,12498.9l-23-9l3,9H7598.3L7598.3,12498.9z M7743.3,12418.9l-35-9l5.1,9
		H7743.3L7743.3,12418.9z M7847.3,12376.9l11-4l26-6l-58-25l-28,6l44,19l7,22L7847.3,12376.9L7847.3,12376.9z M6850.3,12372.9l-19-1
		l6,6L6850.3,12372.9L6850.3,12372.9z M7803.3,12364.9l-19.9-9l-14,4L7803.3,12364.9L7803.3,12364.9z M4430.4,12352.9l-19-1l6,6
		L4430.4,12352.9L4430.4,12352.9z M7033.3,12348.9l-22-10l-8.1,10H7033.3L7033.3,12348.9z M7181.3,12351.9h-35l17,5L7181.3,12351.9
		L7181.3,12351.9z M4353.3,12338.9l-30-9l5,9H4353.3L4353.3,12338.9z M6533.3,12338.9l-10-10l-10,10l10,10L6533.3,12338.9
		L6533.3,12338.9z M6363.3,12316.9l-25-24l-4-31l13-2l-127-45l-37-31l-26-18l1,19l9,26l0.9,6l40.1,21l41,20l39,21l-17,4l-6,12l25,16
		l27,7L6363.3,12316.9L6363.3,12316.9z M4133.3,12303.9l-40-1l50,14L4133.3,12303.9L4133.3,12303.9z M7883.3,12310.9l-35-4l-35,8
		l35,4L7883.3,12310.9L7883.3,12310.9z M6567.4,12276.9l-31-34l30,56L6567.4,12276.9L6567.4,12276.9z M7348.4,12278.9l-16-10l-4,10
		l16,10L7348.4,12278.9L7348.4,12278.9z M7043.4,12268.9l-11.1-10l-4,10l11,10L7043.4,12268.9L7043.4,12268.9z M7410.3,12272.9
		l-19-1l6,6L7410.3,12272.9L7410.3,12272.9z M6718.3,12209.9l-17-11.1l2,15L6718.3,12209.9L6718.3,12209.9z M6093.3,12204.9l-15-10
		l-15,4l15,10L6093.3,12204.9L6093.3,12204.9z M7431.3,12201.9h-35l17,5L7431.3,12201.9L7431.3,12201.9z M5453.3,12152.9l-21-4
		l-14,10L5453.3,12152.9L5453.3,12152.9z M6150.3,12142.9l-19-1l6,6L6150.3,12142.9L6150.3,12142.9z M4758.3,12128.9l-54-21l-10-22
		l74-2.1l50,6l-32-20l-71-19l-77-23l-38-10l-44-14l-41-10l84,31l20,6l-108-24l-51-10l-4,10.9l17,11.1l19,10l35,15l33,13h37l-42.9,30
		l-36-1l33-4l32-14l-2-9l-58,14l-55,12l80,13l145,26L4758.3,12128.9L4758.3,12128.9z M7543.3,12129.9l26-15l-33-29l-35,12
		L7543.3,12129.9L7543.3,12129.9z M8057.3,12119.9l-14-4l-6,13L8057.3,12119.9L8057.3,12119.9z M2400.3,12102.9l-19-0.9l6,6
		L2400.3,12102.9L2400.3,12102.9z M6680.3,12066.9l-4-20l-25,12l-15,7l-4,20l18,13L6680.3,12066.9L6680.3,12066.9z M6438.3,12032.9
		l-4-12l-29,16L6438.3,12032.9L6438.3,12032.9z M2188.4,11968.9l-18-10l3,10H2188.4L2188.4,11968.9z M7203.3,11957.9l-15-9l-9,15
		L7203.3,11957.9L7203.3,11957.9z M7328.3,11878.9l-16-10l-9,10l16,10L7328.3,11878.9L7328.3,11878.9z M4736.3,11759.9l132.1,13
		l-30.1-20l-99.9-35l-60-23l-185-16v11l33-1l45,16l62.1,23.9l38,37l25,20L4736.3,11759.9L4736.3,11759.9z M7640.4,11722.9l-19-1l6,6
		L7640.4,11722.9L7640.4,11722.9z M2483.3,11682.9l-15-4l-15,10l15,4L2483.3,11682.9L2483.3,11682.9z M2400.3,11672.9l-19-1l6,6
		L2400.3,11672.9L2400.3,11672.9z M2358.3,11658.9l-45-23l48,32L2358.3,11658.9L2358.3,11658.9z M2036.4,11561.9h-30.1l12,5
		L2036.4,11561.9L2036.4,11561.9z M2093.4,11564.9l-20-9l-14,4L2093.4,11564.9L2093.4,11564.9z M3111.3,11483.9l-12,12l5,6
		L3111.3,11483.9L3111.3,11483.9z M3128.4,11458.9l-4-10l-16,10l4,10L3128.4,11458.9L3128.4,11458.9z M3078.3,11438.9l4-24l-4-13
		l-9,8l-7,15l2,15L3078.3,11438.9L3078.3,11438.9z M1793.3,11428.9l-4-10l-11,10l4,10L1793.3,11428.9L1793.3,11428.9z
		 M3163.4,11383.9l-54-6l13,4l25,6l18,11L3163.4,11383.9L3163.4,11383.9z M3149.3,11346.9l-4-4l-20-10l-16-5l4,11l5,10l9,10
		L3149.3,11346.9L3149.3,11346.9z M3083.3,11314.9l-17-17l-4,4L3083.3,11314.9L3083.3,11314.9z M3123.3,11273.9l-4-15l-10,15l4,15
		L3123.3,11273.9L3123.3,11273.9z M3190.3,11282.9l-19-1l6,6L3190.3,11282.9L3190.3,11282.9z M3071.4,11205.9l-13-24l-2,26l13,24.1
		L3071.4,11205.9L3071.4,11205.9z M5169.3,11087.9l-27-159l-9,8l-9,21l-23.9,3l-14,1l-7,35l16,31l23,10h-22l5,36L5169.3,11087.9
		L5169.3,11087.9z M7673.3,11094.9l-32-15l-14,4L7673.3,11094.9L7673.3,11094.9z M3093.4,11058.9l-4-10l-11,10l4,10L3093.4,11058.9
		L3093.4,11058.9z M5143.3,10883.9l-30-35l-30-16l26,35L5143.3,10883.9L5143.3,10883.9z M3199.3,10762.9l32-28l20-23.9v-12l12-22
		l-9-9l-21,6l-8.1,6l-21,40l-16,59L3199.3,10762.9L3199.3,10762.9z M5676.3,10672.9l10-29l54-38l6-9l-7-21.1l-1-23.9l-14-48l-12-15
		l-5,15l-42,8l-64-15l-72,18l-23,14l16,21l-4,25l-19-18l-4-4l-44-10l-63-25l-55-15l-5,10l-22,13l-43.1-2l153,75l53,21l17,9l-9-15
		l-7-15l63,29l-13.9,5l-22,7l2,6l64,13L5676.3,10672.9L5676.3,10672.9z M3228.3,10637.9l-38-8.1l-12,6l29,14L3228.3,10637.9
		L3228.3,10637.9z M7068.3,10608.9h-25l2,10L7068.3,10608.9L7068.3,10608.9z M7173.4,10472.9l-21-4l-14,10L7173.4,10472.9
		L7173.4,10472.9z M5858.3,10453.9l-37-4l-48,7L5858.3,10453.9L5858.3,10453.9z M5673.3,10442.9l-76-72l-77-56l-57.1-123l-44-69
		l-77-21l126,235l15,40l10,15l42,24.1l35,7.9L5673.3,10442.9L5673.3,10442.9z M5843.4,10412.9l51.9,5l67-10l-56-49l-35,4l-26-54
		l-37-53l-59.1-57l-3,43l-18,39l-36-18l-23.9-14l39,45l41,55l5,15l-15,37l-25,26l48,7L5843.4,10412.9L5843.4,10412.9z
		 M5867.3,10426.9l-15-7.9l-9,7.9l15,9L5867.3,10426.9L5867.3,10426.9z M6193.3,10271.9l-125-48l-88-3l1,25l105,18l67,8l20,7
		L6193.3,10271.9L6193.3,10271.9z M5963.3,10173.9l-150-72l-160-33v30l20-12l8.1-1l67,42l105,25l31,4l20,15l47,5L5963.3,10173.9
		L5963.3,10173.9z M5708.3,10118.9l-26-10l-19,10l26,10L5708.3,10118.9L5708.3,10118.9z M5988.3,9757.9l-15-4l-2.1,15L5988.3,9757.9
		L5988.3,9757.9z M5988.3,9588.9l-9-4l-7,14L5988.3,9588.9L5988.3,9588.9z M4808.4,9088.9l-10-10l-10,10l10,10L4808.4,9088.9
		L4808.4,9088.9z M4921.3,7464.9l-24-23l-18,14l1,19l-17,25l23,4L4921.3,7464.9L4921.3,7464.9z"/>
	<path fill="#DDDDDD" d="M6478.4,12646.9l-90-11l-79-16l-23-23l-23.9-38l-29,10h-61l32-58l33-40l124-1l107,56l45,63l15,20l7,30
		L6478.4,12646.9L6478.4,12646.9z M6493.3,12577.9l-2-6l-21-6l-10,6L6493.3,12577.9L6493.3,12577.9z"/>
	<path fill="#DDDDDD" d="M2046.3,11474.9l-59-29l-29-7l-35-15l-20-10l-80-34l36-36l44,11l35,13l58,25l39,56l34,2.1l34,22l-2,25
		L2046.3,11474.9L2046.3,11474.9z"/>
	<path fill="#DDDDDD" d="M5233.4,8477.9l-72-20l-64-29.9l-33-19l-1-10l-7-16l1-26l47,13l40,19l39,20l64,19l24.1-6l-18-13l90-30.1
		l65.1-25l73-18l22-20l15-37l15-25l15-25l11-26l249,5l29,12l-29,24.1l-56.1,25l-25,16l-42,29l-102,86.9l-6,5.1l-21,7.9l-37,3l-10-5
		l-32,7l-11,12L5233.4,8477.9L5233.4,8477.9z M5598.4,8248.9l-24-10l-31,10l24,10L5598.4,8248.9L5598.4,8248.9z"/>
	<path fill="#DDDDDD" d="M5895.3,8198.9v-30.1l18.1-28l12-40l-79-15l-63-8l22-33l44-8l55,7l81-28l20-28l25,35l45,26l31,5l95-5l20-10
		l9,7l10.9,19l-20,49l-57,34.9l-21,14l-136,31l-62,8L5895.3,8198.9L5895.3,8198.9z"/>
</g>
</svg>
