<svg version="1.1" id="landmarks-italy" xmlns="http://www.w3.org/2000/svg" xmlns:xlink="http://www.w3.org/1999/xlink" x="0px" y="0px" 
	 width="800px" height="1000px" viewBox="0 0 800 1000" enable-background="new 0 0 800 1000" xml:space="preserve">
<path id="aosta-valley" fill="#DDDDDD" stroke="#FFFFFF" d="M64.3,170.9l-5.1,1.2l-2.6-2.3l-1.7-9.2l-3.3-2.7l-5.4-3.8l-2.8-5.6
	l3-5.3l5.4-1.3l7.7-3l1,0.9l3.7,1.2l1.8,1.1l2.3-0.3l2.4-1.5l1.7-2.2l2.1-1.2l1.3,0.8h2.6l0.7-0.2l2.1-0.9l2,0.1l1.7-2.2l1.7-0.3
	l2.1-0.2l1.7-1.6l3-0.5l1.4-0.2h1.4l2.1,0.8l2.1,1.5l2.5,0.8l2.3,0.2l2.4-0.2l2-0.4l0.2,0.2l0.4,4.6l0.3,5.3l1.1,4.2l2.6,3.9v5.3
	l-2.9,2.8l-4,2.5l-4.4,1.4h-5.4l-4.4-1.8h-5.4l-4,1.4l-2.9,3.9h-5.4l-4,2.1l-4.7,1.7L64.3,170.9L64.3,170.9z"/>
<g id="sardinia">
	<path id="path2159" fill="#DDDDDD" stroke="#FFFFFF" d="M131.6,565.7l-1.9-2l-1.7-1.9l-0.5-2.2l1.2-1.9l0.9-2l1.6-1.9l1.7-1.7
		l1.6-1.7l-2.1-2.4l-1.1-2.2l-0.5-2.2l0.4-3.1l1.2-1.7l1.4-2.2l1.7-2.4l0.9-2.6l1.7-1.2l2.4-0.2v2.7l-1.4,1.5l-1.6,1.4l-1.1,1.5
		l-1.7,2.4l-0.5,2.4l-0.5,2.4v2.9l1.4,1.7l2.3,1.2l2.1,0.8l2.8,1l3,0.5l3.7,0.2l2.6,0.2h3l1.6-1.2l1.4-1.7l2.3-1.7l1.7-1.7l2.3-1.4
		l2.8-0.2l2.1-0.7l1.4-1.9l1.9-1.7l1.2-2.2l1.4-2.2l2.4-2l2.3-1.9l1.2-1.9l2.1-1l2.1-1.7l2.6-0.5l2.4-0.5l2.1-2.6l1.6-2.9l1.1-2.9
		h3.1l0.9,2.6l3.1,1.7l2.4-0.7v-2.7l-0.7-2.9l2.1-2l3.3,1l3,1.9l-0.2,2.6l-1.6,1.9l-2.1,1.7l-1.4,2.6l0.9,2l2.1,1.4l2.3-0.2l1.4-1.9
		l2.1-0.7l1.7,1.7l0.5,2.4l-1.7,1.9l-0.9,1.9l0.2,2.4l2.4,1.4h2.8l1.6,1.2l-1.7,1.7l-2.1,1.5l-0.7,2.2l-1.7,0.8l3,0.7l1.4,1.9
		l2.4,1.7h2.3l1.6-1.4l1.1-2.2l2.3,1.4l-0.5,2.6l-2.3,2.2l-1.6,2.4v2.9l0.5,3.2l3.1,3.6l0.2,3.1v3.4l1.2,1.9l2.1,1.9l1.7,2.9
		L233,580l-0.2,2.7l-1.2,1.9l-1.1,2.4l-0.2,0.7l-2.4,1.9l-1.9,2l-1.6,1.9l-1.4,1.9l-1.7,2.2l-0.4,2.6v3.9v3.6l1.1,3.1l3,1.9l1.9,2.4
		l0.2,3.7l-1.9,2l0.4,2.9l-0.9,3.1v2.7l0.2,4.1l-0.5,1.2l-0.2,3.4l-0.5,3.9l-0.9,2.7l-0.4,2.6l0.5,3.7v3.6l-0.4,2.9l-1.4,1.7v2.6
		l2.1,2.9l-1.9,3.2l-0.4,2.9l-1.7,2l-0.4,1.9l1.2,2.7l0.9,1.4l-2.3,2.9l-1.1,3.1l-0.4,3.1l1.1,3.4L215,692l-0.2,3.7l-4.2-3.1
		l-2.8-1.7l-2.8-1.2l-2.3-1.5l-2.3-2l-2.6-1L195,685l-1.6,1.7l-2.3,0.7l-2.8-1.2H186l-1.6,1.9l-1.6,1.2l-0.4,2.7l-0.2,3.2v2.6v2.9
		l-0.7,2.4l-0.7,2l-1.1,1.9l-1.9,3.1l-1.9,1.7l-2.4,0.8l-3,1.5l-2.3-1.7l-2.3-2.2l-2.4-0.5l-1.7,0.8l-2.3,2.7l-2.1-2.2l-0.9-3.1
		l-1.9-3.1l-1.6-3.2l-1.6-2.6l-1.2-2l-1.1,1.4l-1.9,1v2.7l-0.7,2.9l-1.7,1.4l-1.7-1.9l-2.1-2.2l-1.2-2.2l-0.2-2.4l0.4-2.7h1.4h1.2
		h2.6l0.9-2.2v-2.6l-1.4-2.7l-1.9-1.4l-0.7-2.6l1.2-1.9l1.4-1.5l0.5-2.7l-1.6-1.7l-1.1-2.2l-0.4-2.2l1.4-1.7l-0.2-2.7l-0.7-2.9
		l2.4-3.6l1.7-1.5l2.1-4.6l-1.7-3.4l-1.2-2.7l-0.2-3.2l0.9-3.1l2.1-0.7l2.1,0.2l2.4-2.2l0.7-2.6l-0.2-3.6l-1.2-2.6l-2.1-2l-3,1
		l-2.4,1.2l-1.7-1.4l-0.7-2v-0.3l0.2-2.9l0.4-2.9v-2.7l1.7-1.7l1.9-0.8l0.9-2.7l-0.2-2.9l-1.2-1.7l0.2-2.2l0.7-2.2l0.9-3.1l0.7-2
		l-0.5-2.4l-1.9-1.7l-2.6-1.9l-1.7-1.7l-0.7-2.4l1.1-1.9l0.5-4.1l-0.5-1l-2.3-2.2l-1.9-1.9v-2.6l-0.9-2l-1.9-0.8l-2.3,0.8l-2.1,1.5
		l-2.6-0.2l-1.6-1.5v-2.2l1.2-1.7l1.6-1.5l1.6-1.2L131.6,565.7L131.6,565.7z"/>
	<path id="path2163" fill="#DDDDDD" stroke="#FFFFFF" d="M138.9,688.2l-2.8-0.2l-1.6,1.4l-1.7,1.2l0.2,2.4l1.6,1.2l1.6,1.4l1.9-0.7
		l0.9-1.9l0.2-2.6L138.9,688.2L138.9,688.2z"/>
	<path id="path2167" fill="#DDDDDD" stroke="#FFFFFF" stroke-width="0.6904" d="M144.1,713.5l0.6,1.3l0.3-0.8L144.1,713.5
		L144.1,713.5z"/>
	<path id="path2169" fill="#DDDDDD" stroke="#FFFFFF" d="M136.4,629.7l-2.3,0.5l1.9,0.8L136.4,629.7L136.4,629.7z"/>
	<path id="path2171" fill="#DDDDDD" stroke="#FFFFFF" d="M136.3,623.2l3.3-0.3l-0.7-2.4L136.3,623.2L136.3,623.2z"/>
</g>
<path id="piedmont" fill="#DDDDDD" stroke="#FFFFFF" d="M97.3,279.7l1.9,3.8l7.3-1.1l6.2,2.8l5.1-4.4l4.6-3.8v-8.3l4.5-5l3.9-6.1
	l1.2-7.2l5.7,3.3l2.8-5.5l6.8,2.8h7.3l2.8-5.5l6.2,2.8l5.1,3.3l5.1-4.4l1.1-7.2l5.7-0.6l6.5,4l5.9,2.1l1.1-7.2l-1.7-6.6l-3.9-5
	l-5.1-3.8l-2.8-6.1l-1.7-2.2l-4.6-7.2l-5.7,1.1h-7.9l-3.9-5l-2.3-4.4l-4.5-10.5l1.1-4.4l6.2-1.7l6.2,3.3l2.2-6.1l2.3-4.9l-3.9-4.4
	l-3.4-6.1l-1.7-7.2l-1.7-6.6l-4-1.9l-0.8-1.5l1.7-2.3h0.5l0.2-0.2l0.2-0.3l0.1-0.3l0.1-0.4v-0.5v-0.8l-0.2-0.6l-0.2-0.6l0,0
	l-0.1-0.4l-0.4-1.2l-0.1-0.9v-0.5l0.1-0.5l0.6-0.7l0.1-0.6l0.2-1.2V134l0.5-1.3l0.6-0.2l1.8-0.2h0.7l0.7-0.2l0.2-0.1l0.6-2.1
	l0.8-0.5l0.3-0.7l0.6-2l1-2.4l2.1-5l-2.6,0.4l-1.7,1.4l-2-0.5l-1.4-1.2l-2.1-1.8l-1.7-1.2l-1.7-2.1l-1.7-1.6l-1.6-2.1l-2.4-1.4
	l-0.1-2.4v-2.3l1.7-1.5l0.8-1.8v-3.7v-3.8l-2-1.2l-2-0.5l-1.4-0.1l-1.4,0.1l-1.4,1.4l-1.5,1.4h-0.7l-0.1,3l-1.4,3.3l-2.1,1l-2,0.7
	l-1.6,1.5l-1.7,1.3l-2.8,0.5l-1.9,1.4v1.9l2.7,1.5l0.6,1.8l0.7,1.9v2.4l-0.7,2.5l-2,0.7l-2,0.9l-1.7,0.4l-1.3,1.4l-1.3,2.1l0.1,1.9
	l-1.4,2.5l-2,0.3l-2.2,0.1l-2.7-0.3l-0.8,1.4l0.1,2.8l-0.9,1.3l0,0l0.4,4.6l0.3,5.3l1.1,4.2l2.6,3.9v5.3l-2.9,2.8l-4,2.5L103,165
	h-5.4l-4.4-1.8h-5.4l-4,1.4l-2.9,3.9h-5.4l-4,2.1l-4.7,1.7l-2.4-1.4l-5.1,1.2l5.8,5.3l-0.9,7.2l0.3,6.1l-5.5,3.2l-5.5,2.7L49,201
	l-5.6-1l-6,1.1l-4.8,2.6l2.8,5.3l4.9,3.2l-1.1,5.9l5.6,3.6l5.9,2.3l6,2.1l1.1,7.5l1.8,3.5l-6.1,2.5l-1,5.7l-3.4,4.8l0.6,4.3v5.9
	l2.2,5.8l3.8,4.9l4.4,3.7l5.8,2.2l5.4,3l5.8,2.9l4.9,1.4l9.9-2.2L97.3,279.7L97.3,279.7z"/>
<path id="liguria" fill="#DDDDDD" stroke="#FFFFFF" d="M213.3,260.7l4.7-2.9l4.1,3.6l4.4,4.1l4.6,3.7l4.6,3v4l4.3,2.9l4.7,4.9
	l2.4,6.1l-0.2,0.4l-9.6-3.6L232,288l-22.7-14.4l-10.6-7.8l-8.5-0.2l-4.6-3.4l-6.6-1.6l-8.2-1.1l-5.1-0.8l-9.2,4.5l-6.4,3.7l-5.1,6
	l-2.1,5.4l-6.5,2.8l-4,5.7l-2.8,5.6l-2.5,5.9l-6,3.7l-5.3,2.6l-6,2l-8.3,2.9l-11,0.6l-3.8-5.5l3.8-4.1l2.5-3.4l4.6-4.8l2.2-6.6
	l-0.9-2.6l7.2-1.2l6.2,2.8l5.1-4.4l4.6-3.8v-8.3l4.5-5l4-6.1l1.2-7.2l5.7,3.3l2.8-5.5l6.8,2.8h7.3l2.8-5.5l6.2,2.8l5.1,3.3l5.1-4.4
	l1.1-7.2l3.1-1.6l2.6,1.1l6.4,4.1l6.2,2.4l0.8-2.3l9.2,0.7l6.3,2.8l4,4.5l-3.5,5.6l-0.2,0.9l-0.1,0.2l-0.2,1.1l2.8,2.3L213.3,260.7
	L213.3,260.7z"/>
<path id="calabria" fill="#DDDDDD" stroke="#FFFFFF" d="M659.8,611.4l-0.1-0.3l2.4-0.7l-2.2,2.5l-0.7,4l0.6,2.9v3.2l-0.2,2.3
	l-0.7,1.8l-1.6,1.5l-1.8,1.8l-2.1,1.5l-1.6,1.9l-0.6,1.9v2.4l0.4,2.2l1,2.3l0.4,2.6l1.3,2.2l1.3,1.8l2.1,1.1l2.2,1.5h3.1h3.5
	l2.7-0.7l1.4,2.5l1.1,2.1l1.7,1.2l3.1,1.8l2,1l3.8,2.1l1.7,1.2l1.6,1.4l1.7,2.6l2.9,0.3l2.3,1.7l0.3,1.9l-0.3,2.1l-1.6,2.2l-0.9,2.3
	l-0.8,2.2l0.3,2.1l1.3,2.1l1.3,1.6l-1.4,2.9l-1,1.6l-0.3,2.2l1.7,3.7l2.5,2.1l1.7,2.5l0.3,1.9l-1.6,0.1l-1.2,4.7l-1.1,1.5l-1,1.8
	l-2.4-0.4l-2.4-0.3l-3.8-1l-3.1-0.4l-3.1-1l-2.7,0.8l-2.3,1.2l-2.2,1.7l-1.7,1.6l-0.6,0.4l-2.4,1.8l-2.4,1.9L658,719l-0.9,1.8
	l-1.3,1.5l-0.4,2.9l-0.2,3.6v0.7l0.3,3.8l0.6,2.4l0.3,2.1l0.6,1.9l0.7,1.8v2.6v2.4l-0.7,2.8l-0.9,2.5l-0.7,0.6l-0.9,0.7l-1.6,2.2
	l-2.5,1.8l-2.7,1.4l-2.8,0.4l-4.3,2.9l-2.3,3.7l-1.2,2.7l-3.8,2.5l-1.4,2.2l-1.7,3.4l-0.5,3.6l-0.3,1.9l-1,2.5l-0.9,2.1l-1,1.9
	l-0.9,1.9l-3.5,1.4l-2.1,0.7l-2.3-0.3l-2.1-2.1l-2-0.4h-2.4l-1.6,1.2l-2.5,0.2H605l-2.3-1.2l-1.3-1.3l-1.8-0.9l-1.2-2.1l-0.4-4.1
	V779v-2.5l-0.4-2.6l-0.2-2.6v-2.6l0.9-2.1l1.5-2.6h0.3l2.1-0.2l2.1-0.7l1.7-0.9l1-2.1l1-1.7l1.2-2.5l0.9-2.1l1-1.8l1-1.5l1-2.8
	l1.4-1.8l1-2.4v-2.2l-0.6-2.5l-2.1-0.8l-1.9-1.2l-0.4-2.6l0.9-1.5l1.5-1.8l1.7-0.6l2.4-1.5l1.3-1.6l1.7-2.1h2.5l1.3,1.1l3.2,0.7
	l2.1-1.2l1.8-1.1l1-2.5v-0.6l1.5-1.2V718v-3.2v-2.2v-2.2l-0.6-2.4l-1.1-2.1l-2.8-3.2l-1.7-2.6l-2.5-3.3L624,694v-2.8v-2.8v-4.1v-4.1
	v-2.9l-0.5-2.9l-0.3-0.6l-1.6-2.5l-1.3-2.9l-0.7-2.2l-0.7-2.6l-1.3-0.8l-1.3-1.2l-1.6-1.6l-0.7-2.6l-1.6-2.2l-1-3.2l-1.6-2.9l-2-4.5
	l-0.9-4.4l-0.2-2.8l-0.3-3l-0.3-2.9l-0.3-2.8l-1.1-2.3l4.2-6.4l7.5,0.5l4.1,1.5 M659.8,611.1l-0.5-0.8l-7-1.1l-5.9,2.1l-0.3,3.6
	l-0.8,3.7l-2.7,5.7l-2.7,2.1l-6.5,1.6h-8l-3.8-4.7l-0.6-1.5 M621.1,621.9l-0.2-0.2L621.1,621.9L621.1,621.9z"/>
<path id="lombardy" fill="#DDDDDD" stroke="#FFFFFF" d="M192.5,231.5l1.2,3.2l6.1,3.3v-6.2l3.5-4.5l-2.8-6.4l10.3-17.9l4.6-0.8
	l4.7-0.3l4.7,4l4.6-1.7l7-1.1l7.5-2.3l2.9,6.2l8.1,0.6l5.2,3.4l8.1,1.7l5.2,3.9l8.1,0.6l5.8-4l5.8,1.1l7.6,1.2h8.7l7.5,1.1h8.7
	l5.5-1.6l-3.8-4.1l-5.8-3.4l-4.7-5.1l-7.5-1.1l-4.1-5.1l-4.5-4.1l-5.3-3.8l-6.4-4l-1-6.7l-4.7-2.7l6.3-2.5l2.9-4.5l-7-3.4l2.3-2.8
	l0.6-7.9l4.1-5.1l3.9-4.4l-9.7-1.8l-6.9,1.7l-4.1-5.1l-1.8-6.8l0.6-7.9l4-6.2l1.2-7.9l-1.8-6.2l1.2-6.8l4.6-4.5l-5.2-3.4l-5-3.7
	l-1.8,0.1l-3-0.3l-2.4-0.9l-2.8-1.2l-2-1.5l-1.8-1.8l-2.3-0.7H255l-2.5,0.2l-0.9,1.5l-1,1.1l-1.4,2.2l-0.9,2.9l-0.4,5.1l1.3,1.4
	l3.1,0.2l1.6,0.8l0.7,1.6l-1.3,2.1l-0.9,1.8l-1.6,1.5l0.7,2.1l1.6,2.6l1.7,1.2l-1,1.8l-1.7,0.8l-2.4,0.2l-2.1-1.1l-1.6-2.2l-1.6-2.1
	l-1.5-3.7l-1.7-3l-2.8-0.8l-2.5,1.6l-3,1.7l-2.2,0.9l-2.3-0.5l-1.6,1.4l-1,2.5l-1.8,0.7l-2.5-0.4l-3.5-0.2l-0.7-0.3l-2.3-2.2
	l-1.1-2.1l-1.6-2.1l-1-1.7l-1.2-2.5l-0.8-2.3l0.4-2l-1.1-0.8l-1.6,1.2l-1.7-0.5l-1.5-1.7l-1.9-0.5l-1.8,0.7l-1.6,0.8l-0.3,2.3
	l-1.2,1.7l1.2,2.8l2.1,2.9l-0.1,2.4v2.1l-1.2,3.3l-0.3,0.5l-2.1,3.3l-2.1,2.8l-1.6,2.1l-2.7,2.1l-2,1.5l-1.6,1.1l-0.7,2.2l-1.3,1.6
	l-1,0.3l-1.9,1.2l-0.3,1.9v2.5v2.2l-1.7,0.5l2,2.1l2.8,2.2l1.6,1.4l-0.4,2.2l-1.5,1.4l-1.7,1.7l-2.1,0.3l-2.2-1.5L177,141l0.1-2.5
	l-0.6-2.5l-1.8-1.5l-1.6-1.5l-1.9-1.5l-1.7-1.4l-0.9-1.4l0.6-1.5l1.3-1.6l1.6-1.5v-1.8l-2.8-1.5l-2.7-1.1h-1.4l-2.1,4.7l-1,2.4
	l-0.6,2l-0.3,0.7l-0.8,0.5l-0.6,2.1l-0.2,0.1l-0.7,0.2h-0.8l-1.8,0.3l-0.6,0.2l-0.5,1.3v1.1l-0.2,1.2l-0.1,0.6l-0.6,0.7l-0.1,0.6
	v0.5l0.1,0.9l0.4,1.2l0.1,0.4l0,0l0.2,0.6l0.2,0.6v0.8v0.4l-0.1,0.4l-0.1,0.3l-0.2,0.3l-0.2,0.2l-0.5,0.1l-1.7,2.3l0.8,1.5l4,1.9
	l1.7,6.6l1.7,7.2l3.4,6.1l3.9,4.4l-2.3,4.9l-2.2,6.1l-6.2-3.3l-6.2,1.7l-1.1,4.4l4.5,10.5l2.3,4.4l3.9,5h7.9l5.7-1.1l4.6,7.2
	l1.7,2.2l2.8,6.1l5.1,3.8L192.5,231.5L192.5,231.5z"/>
<path id="trentino-south-tyrol" fill="#DDDDDD" stroke="#FFFFFF" d="M396.9,73.8l-0.5,0.4l-2.6,2.5l-2.8,1.9l-7.4,1.2l-7.4-4
	l-5.1,7.7l-13.4,5.9l4.1,3l-5.8,7.8l3.9,5.2l2.8,3.6l3.6,2.8v4l-4.2,3.8h-3.9h-3.9l-3.6,4.5l-1,3.5l-0.5,3.6l-3.4,0.8l-2.6-2l-2.6-2
	l-3.9,1l-4.2,2.3l-3.1,2.8l-3.1,1.8l-2.3,2.3l-2.1,2.5l-2.6,2.8L318,147v3.8l-1.3,3l-3.9-0.3l-3.1-1.3l-2.8,1.3l-2.6,1.8h-3.9
	l-2.1-1.8l-1-2.5l1.8-2.5v-3.8l-1.5-1.2l0,0l-1.3,1l-9.7-1.8l-6.9,1.7l-4.1-5.1l-1.8-6.8l0.6-7.9l4-6.2l1.2-7.9l-1.8-6.2l1.2-6.8
	l4.6-4.5l-5.2-3.4l-3.7-7.5l-0.1-2.5l-1.7-1.9l-2.3-1.8l-1.7-1.9l0.4-2.2l0.9-2.1l0.8-1.8l0.6-1.7l0.8-2.3l1.2-1.8l1.3-2.5l1.8-0.3
	l2,1l2.4-0.2l2.8-0.7l1.6-1.2l2.2,0.7l1.9,1.4L291,62l0.8,2.1l2.3,0.7l1.6,1.4l2.5,0.3h2.8h2.5l2.7-0.2l2.1-0.4l1.4-1.4l1.4-1.8
	l0.9-1.6l0.3-1.9l1.3-1.4L314,56l0.5-1.9l1.8-0.4l1.6-1l0.1-2.1l1.7-0.7h2.3l1.4-0.9l1.7-1.2l2.1-0.2l2.4,1.4l1.7,1.1h2l1.8-1.8
	l1.6-0.9l1.9-1.5l4.1,1.7l3.5-1.3l2.2,1.6l1.7,0.8l2.5,0.8l2-0.2l1.6-1.1l2.1-1l2-0.4l3.6-2.4l2.8-0.7l2.7-0.1l2.3-1.7l1.6-1.2
	l2.3-0.5h0.8h3.1h1.2l1.2,0.2l2.8,0.8l-1.4,2.3l-2.7,1.8l-2.3,1.7v2.6l0.6,2.2l1.3,2.2l2.2,1.7l3,1.2l2,1.1l2.1,2.6l-0.6,2.1
	l0.3,1.8l1.7,2.1l1.3,1.5l1.7,1.9l1.6,1.7l1.5,1.4"/>
<path id="friuli-venezia-giulia" fill="#DDDDDD" stroke="#FFFFFF" d="M414,75.9l1,3.2V83l-3.2,3.1l-2.4,3.8l-4.4,1.5l-4.4,2.7
	l-2.8,3.8l-3.6,3.1l-3.5,4.3l1.2,5l3.6,3.1l3.2,3.1l0.4,5.4l-2.4,3.8v5.8l2.4,3.5l3.5,2.7l1.6,4.3l4.4,2.7l5.1,0.8l3.2-2.7h5.9
	l4,2.7l4.4-0.8l1.6,5.4l1.6,4.3l4.8,2.7l0.3-0.3l2-1.2l2.1-1.8l2.8-1.5l2.5-0.4l2.7,1.7l2.8,1.5l2.6,1.2l2.9-0.2l1.7-1.7l2.1-1.4
	l2.1-1.8l1.5-1.2l0.6-1.8l2-0.3l2.5,1.4l2.7,1.7l2,1.9l1.2,1.8l1,2.5l0.7,1.9l1,2.5l1.7,0.8h2.4l3.2-0.1l0.7-1.7l0.1-2.1l-1.2-1.4
	l-1.5-1.6l-1.6-1.4l-2.4-1.8l-1.7-1.5l-1.4-1.7l-2.7-2.1l-1.4-0.8l-1.6-0.7l-2.3-0.8l-2.8-0.8l-1.4-1.8l1.4-2.5l1.5-1.8l1.2-1.8
	l1.5-3.7l-0.7-2.1h-2.2l-2.1,0.3l-1.6,1l-3.7-0.7l-0.8-2l1.3-1.9l1.6-1.4l1.7-1.6l1.6-0.7l2.3-2.4l1.4-1.5l1.4-1.5l0.7-1.8l-1.9-2.2
	l-2.6-0.4l-3.4-1.2l-1.8-1.1l-2-0.2l-2.2,0.5l-1.6-0.9l-1.3-1.2l-0.7-3.3l1.4-2.2l2-1.8l2.1-1.7l2.7-1.5l2.8-2.3l2.3-1.8l3.5-2.3
	h2.1l0.7-0.2l0.3-1.9v-2.1l-1.7-1.5l-2.4-0.9l-2.1-0.8l-2-1l-3.1-0.7l-2.9-0.2l-3.4-0.4l-2.7-0.1l-2.2,0.4l-2,0.4l-2,0.4h-2.7
	l-2.1-1.1l-2.3-1.4l-2.3-0.5l-2.5-0.5l-2.1-0.8H433l-2.5-0.2H428h-3h-0.4l-3.3,0.2l-1.7-1.4l-2.3-1.4L414,75.9L414,75.9z"/>
<path id="veneto" fill="#DDDDDD" stroke="#FFFFFF" d="M388.8,224.2l2.2,1.6l0.7,2.1l2.1,0.2l2.1-1.1l1.6-1.8l2.3-2.5l1.1-2.2
	l1.4-1.9l0.9-2.5l-0.1-2.4l-1.7-1.5l-1.7-1.1l-2.8-1.8l-2.5-1.5l-1.7-1.9l-1.4-1.2l-1-1.7l-0.5-1.2l-0.1-2.5l-0.1-1.9l-0.9-1.7v-2.2
	V191l0.6-2.8l1.3-3l0.1-2.4l0.9-2.3l2-1.4l1.6-1l3.6-2.1l0.6-0.3l2.5-1.8l3.6-1.6l2.8-1.4l3.7-1l1.8-1.6l2.4-1.7l2.3-1.5l2.2-1.5
	l2.8-0.2l2.1-1.2l2.5-1.5l3.8-1.8l4.3,0.2l1.1,0.1l1.7-2l-4.8-2.7l-1.6-4.3l-1.6-5.4l-4.4,0.8l-4-2.7h-5.9l-3.2,2.7l-5.1-0.8
	l-4.4-2.7l-1.6-4.3l-3.5-2.7l-2.4-3.5v-5.8l2.4-3.8l-0.4-5.4l-3.2-3.1l-3.6-3.1l-1.2-5l3.5-4.3l3.6-3.1l2.8-3.8l4.4-2.7l4.4-1.5
	l2.4-3.8L415,83v-3.9l-1-3.2h-3.1l-3-0.3l-2.8-0.3l-3.4-1.2l-2.7-0.8l-1.9-0.3l-0.2,0.7l-0.5,0.4l-2.6,2.5l-2.8,1.9l-7.4,1.2l-7.4-4
	l-5.1,7.7l-13.4,5.9l4.1,3l-5.8,7.8l3.9,5.2l2.8,3.6l3.6,2.8v4l-4.2,3.8h-3.9h-3.9l-3.6,4.5l-1,3.5l-0.5,3.6l-3.4,0.8l-2.6-2l-2.6-2
	l-3.9,1l-4.2,2.3l-3.1,2.8l-3.1,1.8l-2.3,2.3l-2.1,2.5l-2.6,2.8l-1.3,3.5v3.8l-1.3,3l-3.9-0.3l-3.1-1.3l-2.8,1.3l-2.6,1.8h-3.9
	l-2.1-1.8l-1-2.5l1.8-2.5v-3.8l-1.5-1.2l0,0l-1.3,1h-0.4l-3.9,4.4l-4,5.2l-0.6,7.9l-2.3,2.8l7,3.4l-2.9,4.5l-6.3,2.5l4.7,2.7l1,6.7
	l6.4,4l5.3,3.8l4.5,4.1l4.1,5.1l7.5,1.1l4.7,5.1l5.8,3.4l4.5,3.3l2,1l1.6,0.2l1.5,0.3l1.6,0.2l2.2-0.2l1.7,1.5l1.5,1.3l1,1.3h1.6
	l1.6-1l1.6-0.4l2.5-1.2l1.8-1.3l1.3-1.2l1.7-1l2.4-0.6l3.1-0.2h2.7l1.6-0.1l2-0.5l2.3,0.1l1.8,0.5l3.9,1.7l3,2.4l3-0.3l2.2-0.1
	l2.4-0.5l1.2,2v1.8l0.3,2l0.4,1.7l0.1,0.1"/>
<path id="emilia-romagna" fill="#DDDDDD" stroke="#FFFFFF" d="M340.2,215.9l-2.2,0.2l-1.6-0.2l-1.5-0.3l-1.6-0.2l-1.9-0.9l-0.7,0.7
	l-5.5,1.6h-8.7l-7.5-1.1h-8.7l-7.6-1.2l-5.8-1.1l-5.8,4l-8.1-0.6l-5.2-3.9l-8.1-1.7l-5.2-3.4l-8.1-0.6l-2.9-6.2h-2.6l-5,2.3l-7,1.1
	l-4.6,1.7l-4.7-4l-4.7,0.3l-4.6,0.8L200,221.1l2.8,6.4l-3.5,4.5v6.2l-5.6-3.3l0.2,3.1l-0.3,4.7l9,0.7l6.3,2.8l4,4.5l-3.5,5.6
	l-0.2,0.9v0.2l-0.2,1.1l2.8,2.3l0.4,0.4l5.7-3.4l3.6,3.2l1.9,0.7l4.7-2.5l3-3.8l6-1.3l5.1,1.3l1.3,5l4.7,2.5l6,0.4l2.6,3.8l3,3.3
	h6.4l3,1.7l2.6,3.8l4.7,1.7l3,3.3l3.9,1.7l3.4-2.9l4.3,2.1l4.7,2.1l4.3,2.5l5.1-0.4l3.9-1.7l6,1.3l5.1-1.7l3.4-3.3l4.7-2.9l4.7-1.7
	l3.9,3.3l6,0.4l2.6,4.2h7.3l-1.3,4.2l-3.4,2.1l-1.3,4.6l3.4,2.9l1.3,5.4l2.6,3.8l6,1.3l5.6,2.4l5.1,0.5l4.3,2.1l2.6-4.2l0.9-5.4
	l3-3.3l6.4-0.4l4.7-3.8l5.6,0.4l2.1-0.4l0.9,5l3.4,2.9l4.3,3.8l4.7-1.7l0.4-5.9v-5l-1.2-1l-2.4-2.8L409,290l-2.5-1.8l-2.3-1.8
	l-1.7-2l-2.1-1.9l-1.8-2.3l-0.5-0.4l-2.1-2l-1.5-2.5l-1.4-2.6l-1.7-3.2l-1-2.8l-0.1-3l-1.2-2.9l-1.1-1.4l-0.1-2.6l-0.1-3.3l-0.6-1.8
	l-0.3-2.2l-0.1-2.1v-2.1v-2.6l-1.2-2.6l-1-2.2l-0.4-1.5l0.1-4.4l0.6-3.6l1.3-1.6l1-1.4l1.7-1.2l0.1-0.5l-0.5-1.7l-0.3-2v-1.8l-1.2-2
	l-2.4,0.5l-2.2,0.1l-3.1,0.3l-3-2.4l-3.9-1.7l-1.8-0.5l-2.3-0.1l-1.9,0.5l-1.6,0.1h-2.7l-3.2,0.2l-2.4,0.6l-1.8,1l-1.3,1.2l-1.8,1.3
	l-0.7,0.3l-1.2,0.5l-0.7,0.3l-1.6,0.4l-1.6,1h-1.6l-1-1.2l-1.5-1.3"/>
<path id="marche" fill="#DDDDDD" stroke="#FFFFFF" d="M488.9,383.8l-0.1,0.3h-1.9l-3.5,1.8l-6.3,1.2l-2.2,3.4l-4.1,0.6l-5.7,2.2
	l-3.2,3.1l-1.9,3.4l-3.2,1.5l-3.8-0.6l-3.2-2.5l-4.4-0.3l0.6-3.7l2.2-2.5l0.3-3.7l-3.5,0.9l-4.4-1.5l-2.5-3.4l-4.4-0.6l-3.5,0.3
	l-1.6-3.1l-2.2-2.8l-1.3-3.4v-4.6l-0.6-4l-1.9-3.4l1.6-3.4l-3.2-3.4l-0.3-4.6l-2.2-3.4l-0.6-3.4V340l-2.5-2.8L413,340l-4.7-0.3
	l-4.1-2.2l-1.9-3.7l-4.7-2.8l-2.8,1.8l-3.5-1.5l2.2-3.1l-2.2-3.1l-2.2,2.5h-4.7l-2.5-3.1l1-3.3l4.5-2.9l1-2.9l-5.5-2l-6.4-0.9
	l1.6-3.7l0.9-5.4l3-3.3l6.4-0.4l4.7-3.7l5.5,0.4l1.8-2.6l0.4,2.2l0.9,5l3.4,2.9l4.3,3.8l4.7-1.7l0.4-5.8v-5l-0.6-0.6l2,0.9l3.1,0.2
	l2.1,0.8l2.5,1.5l3.8,1.4l1,2.1l4.1,3l3.7,2.1l2.1,2.2l1.7,1.9l2.3,3.1l2.5,2.3l2.8,2.1l3.7,2.5l3.7,2.5l5.6,1.4h1.3l2.3-0.3
	l2.3,0.8l1.6,1.4l1.3,1.4l1.3,1.6l0.6,2.1l0.3,2.5l0.3,0.6l0.1,0.4l0.9,1.5l0.9,1.8l0.7,2.1l0.4,2.4l0.7,1.8l1.6,1.4l0.8,2.7
	l1.6,4.7l1.8,3.4l1.3,2.3l1.1,2.1l0.7,2.9l0.1,3.2v3.3l1,2.5l1.3,3.3l1.4,3.8L488.9,383.8L488.9,383.8z"/>
<path id="umbria" fill="#DDDDDD" stroke="#FFFFFF" d="M446.2,394.2l-0.9,2.7l-1.3,1.9v2.4l-2,2.3l-2.1,1.4l-3.8,1h-2.6l-5.9,1.3
	l-2.1,1.8l-1.1,1.8l-2.1,1.9l-4.8,2.6l-0.7,2.1l-1.3,1.8l-3.6,1l-2.3-0.5l-0.7,1.8l-0.3,2.4l-2,1.6l-2.5,0.5l-2.1-1l-2.3-2.3l-2.5-1
	l-1.1-1.9l-0.2-2.6L394,417l-2,0.6h-2.5l-2.1-1.8l-1.3-2.4l-1.3-2.3l-0.8-2.6l-0.3-2.4l-0.8-2.3l-1.5-1.6l-2.8-0.2l-2.1,1l-2.1,0.5
	l-2.3-0.2l-2.3-0.6l-2-1l-1.6-1.1l-0.2-2.3l1.1-1.6l0.7-1.9l-1-1.4l-1.5-1.1l-1.6-1.6l-2.3-1.4l0.9-1.5l2.8-4.6v-7.3l3.5-3.4l-3-5.8
	l1.5-5.8l4.5-2.9l4.5-3.9l5.5-2.4l-3.5-2.9l-4-5.3l1-5.8l2.5-2.4l0.5-4.4l4-4.4V325l2.5,3.1h4.7l2.2-2.5l2.2,3.1l-2.2,3.1l3.5,1.5
	l2.8-1.8l4.7,2.8l1.9,3.7l4.1,2.1l4.7,0.3l2.5-2.8l2.5,2.8v4.3l0.6,3.4l2.2,3.4l0.3,4.6l3.1,3.4l-1.6,3.4l1.9,3.4l0.6,4v4.6l1.3,3.4
	l2.2,2.8l1.6,3.1l3.5-0.3l4.4,0.6l2.5,3.4l4.4,1.5l3.5-0.9l-0.3,3.7L446.2,394.2L446.2,394.2z"/>
<path id="abruzzo" fill="#DDDDDD" stroke="#FFFFFF" d="M544,452.2l-0.8-1.5l-2-1.2l-0.4-1.8l-0.5-2.6l-2.1-2.3l-3.5-0.8l-2.8-0.7
	l-1.7-1.9l-2.3-2.2l-1.7-2.8l-1.7-1.9L522,430l-2.5-3.4l-1.4-2.8l-1.9-1.1l-1.8-0.8l-2.1-1.3l-3.1-3.8l-3.1-2.1l-1.7-1.5l-1.4-1.4
	l-1.6-1.9l-0.6-0.4l-0.7-0.7l-2-2.6l-1.9-3.3l-1.4-3.2l-1.6-1.9l-1.2-2.5l-0.7-2.1l-0.8-2.5l0.1-1.8l-1.8-5.1h-0.1v0.3h-1.9
	l-3.5,1.8l-6.3,1.2l-2.2,3.4l-4.1,0.6l-5.7,2.1l-3.2,3.1l-1.9,3.4l-3.2,1.5l-2.1,0.5l4.1,4.6l-6,2.9l-6.5,0.6l-5.3,6.4v6.4l2.4,5.2
	l2.9,6.4l6,2.9l1.8,6.9l-7.7,2.3l-7.1-2.3l-4.2,3.5l-2.9,6.4l5.9,2.9l8.3,0.6l5.4,5.8l4.1,5.8l6,3.4l5.3,4.7l6.5-2.3l6.6,2.3
	l6.5,4.6l5.5,0.9l2.9,0.3l2.4-1.2l2.2-1.4l2.2-1.2l3.1-1.1l1.1-2.1l-1.3-1.6v-2.7l2-1.6l2.7-1.6l1.5-2.1l2.4-1.8l3.3,1.9l2.9,1.8
	l2.5,1.1l1.8,2.3l0.4,2.7l0.9,1.8l2.2-0.5l1.8-2.3l1.8-2.7l2-3.4l1.8-2.8l2.4-2.5l1.3-2.1l2.9-3.2l1.5-2.8L544,452.2L544,452.2z"/>
<path id="apulia" fill="#DDDDDD" stroke="#FFFFFF" d="M673.9,588.4h0.7l2.7-3.3l4.5-2.6l1.7-1.5l2-1.6l4.1-1.4l3,0.7l2.7,0.9
	l1.7,1.5l1.4,2.2l-0.6,2.6l-0.1,1.8l1.8,0.7l1.6,1l2,1.4l0.6,0.2l2.8,0.4l3.1,2.2l2.6,1.4l2.5,1.3l3.7,0.4l3.8-0.3h3.7h3.1l5.1,1.1
	l3.5,1.2l1.4,1.6l1.5,1.9l0.9,2l0.6,2l1.9,1.4l2,1.4l0.1,2.6l0.5,2.5l-0.7,1.5l-1.4,1.7l2,0.4l1,3.7v2.3l1.1,1.7l3.5,1.8l1.1,1.8
	l1.4,1.3l2.3,1.8l2.4,1.4h3.3l2.1,0.7l1.7,2.5l2.1,1l2.1-1.1l0.3-2.1v-2.3l0.1-2.2l1.4-3.7l0.8-1.9l-0.2-2.2l1.7-3.7l2-2.2l1.8-3.1
	v-2.3l-0.4-3.1l-1.8-2.3l-0.5-3.7l-1.6-2.8l-1.6-2.5l-2.5-2.1l-1.4-2.2l-3.1-2.5l-1.7-1.6l-3.9-4.8l-4.4-1.5l-2.4-3.2l-0.4-0.4
	l-2.3-1.9l-1.7-1.7l-0.6-2.8l-1.2-2.1l-1.4-1.8l-1.6-1.5l-2.1-1.4l-1.6-0.1l-3-0.6l-2-0.2l-1-1.5l-4-1.1l-2-2.3l-2.2-1.4l-2.8-1
	l-3.1-0.9l-2.5-1l-3.6-2.5l-3-2.1l-1.8-1.9l-2.8-1.2l-1.8-1.8l-1.8-2.2l-2-1.5l-1.7-1.4l-1.7-1.9l-2.8-1.4l-1.7-1.2l-2.1-1.2
	l-3.7-1.8l-2.7-0.8l-2.7-0.3l-2.8-1l-1.4-1.1l-1.7-1.2l-2-0.3h-1.4l-8.3-3.8l-8-3.4l-6.4-3.1l-5-3l-4.7-2.5l-4.8-3.4l-5.1-2.3
	l-3.4-1.5l-4.1-2.6l-4.4-2.8l-2.1-1.9l-1-4.1l-0.2-2.8l1.3-2.3l3.3-2l2.4-1.4l3.2-3.5l3.7-2.7l2.7-1.4l1.2-0.8v-5.2v-3l-0.8-2.1
	l-2.3-2.2l-2.4-1.8l-2.2-1.3l-2.3-0.1l-0.9-0.1l-2.2,0.7l-3.1,0.8l-3.2,0.3l-3.2,1.5l-3.3,0.4l-3.8,0.6l-2.1-0.1l-1.1-1.2l-1.7-0.6
	l-2.4,0.2l-2.3,1.1l-2,0.4l-2.3-0.3h-3h-2.7l-2.5-0.4l-2.4-0.8l-1.8-0.4h-2.5h-2.7h-0.6l-2.4,0.2h-0.4l-1,1.7l-1,3.8l-2.1,4.8
	l0.8,3.5l2.6,2.5l-1.6,3.5l-5.4,3.5l-3.6,0.8l-2.6,1.8l0.5,3.3l1.3,3.6l2.6,2.8v1.4l3.6,1.9l1.4,3.5v4.1l-0.3,2.7l3.3,1.4l3.3,2.7
	l3.6,1.9l1.1,3.3l-1.7,3l-0.3,4.1l2.8,0.8l4.2,0.8l3.9,1.1l3.9,0.8l3.9,0.8l3.6-1.1l4.2-0.5l4.7,0.3h3.3l3.3-1.9l4.5-1.1l1.7,2.4
	l3.3,1.9l2.2,2.4l1.7,3.3l-2.5,2.7l-0.8,2.7l3.1,1.1l3.3,1.1l3.6-0.8l2.8,1.4l2.5,3.5l1.4,3.8l2.5,3.3l3.3,2.7l2.2,1.6l3.6,1.1
	l2.5-1.6l3.9-1.6l5.8,0.3l3.3,1.6l0.8,3.8l0.8,4.6l-0.8,4.9l-0.6,3.5l3.6,4.9l3.1,2.7L673.9,588.4L673.9,588.4z M567.1,462.6
	L567.1,462.6L567.1,462.6z"/>
<path id="campania" fill="#DDDDDD" stroke="#FFFFFF" d="M589.6,532.4l-2.5-0.7l-3.9-0.8l-3.9-1.1l-4.2-0.8l-2.8-0.8l0.3-4.1l1.6-3
	l-1.1-3.3l-3.6-1.9l-3.3-2.7l-3.3-1.3l0.3-2.7v-4l-1.4-3.5l-3.6-1.9v-1.4l-2,2.5l-3.1,1l-4.4,1.2l-4.1,0.5l-3.4,1.5l-3.3,2.5
	l-5.2,0.5l-4.7-0.3l-4.9-2.3l-3.9-1.8l-4.1-2l-4.7-2l-4.4-1l-4.1,0.8l-0.3,3.8l-0.3,3.6h-3.9l-2.6-2.3l-0.8-5.4l-4.1,1.5l-1.2,8.1
	l-1.8,7.5l-6.5,3.5l-2.4-0.6l1.5,1.2l3.1,2.2l2.8,3.6l3,3.4l0.4,0.7l2.1,3.3l1.7,4l1.4,3l1.4,2.4l1,2.5l0.9,2.2l0.6,2.3l0.5,0.7v2.6
	l-0.6,2.4l-1.4,1.6l-1.4,1.3l-1.9,1.1h-2.5l-1.7-0.7l-1.5-0.8l-1,1.2v2.2l1.6,0.7l2.4,0.2l2.4-0.4l1.3-1.5l1.7-1.4l1.6-0.7l1.4-1.1
	l2-1.5l1.2-1.7l2-0.3l1.6,0.9l1.7,0.8l2-1.2l1.4-1.8l0.9-1.5l2-0.2l1.6,1.5l3.2,2.8l2.7,2.3l2.1,1.9l1.6,1.7v2.1l-0.9,1.9l-1.6,1.6
	l-2.5,1.7l-2.8,0.9l-1.6,1l-1.7,1.1l-1.7,1.1l-2.1,1.5l-1,1.8l2.4,0.4l2.7-1.4l2.6-1.6l2.5-1.3l3-0.6l2.4-0.9l5.3-0.8h4.2l2.4-0.7
	l5.1-1.8l1.3-1.5l2-0.4l2.1,1.1l1.1,2.3l2,2.9l0.9,2.1l0.9,1.5l1,2.2l1.6,1.8l0.2,2.5l1.7,1.7l1.2,1.4l0.8,2.3l0.6,2.5L557,592
	l-1.8,1.4l-1.6,1.6l-0.3,2.2l-0.9,2.4l1.1,2l3.8,0.6l1.8,1.9l1.8,0.9l1.7,1.5l2.7,0.3l2.4,0.3l0.6,2.1l1.4,1.8l1,1.4l2.8,2.4l3,2.5
	l1.3,1.8l2,1.4l2.5,0.7l2.1-0.9l2.4-1.4l1.8-1.2l2-1.8l1.6-0.9l2.5,0.4l1.6,1.1l1.7-0.4l3.1-3.4l1-4.4l1.4-3.7l3.8-2.7v-3.4
	l-3.1-2.7l-2.1-3.7l-1.7-3.4l-4.5-2.4l-2.4-3.7l-0.7-4.4l-3.1-3.7l-1.7-3.7l-3.1-2.7l-2.4-3.7l-0.7-5.1l-1.7-4.4l0.3-4.8l4.5-0.7
	l4-0.9l3.5-2.1l2-3.8l-0.3-5.1L589.6,532.4L589.6,532.4z"/>
<path id="basilicata" fill="#DDDDDD" stroke="#FFFFFF" d="M661,611.4l-1.7-1l-7-1.1l-5.9,2.1l-1.1,7.3l-2.7,5.8l-2.7,2.1l-6.5,1.6
	h-8.1l-3.8-4.7l-4.8-3.1l-7.5-0.5l-4.2,6.4l-2.2-2.9l-2.8-3.6l-2.3-2.5l-1.4-1l1.7-0.4l3.1-3.4l1-4.4l1.4-3.7l3.8-2.7v-3.4l-3.2-2.7
	l-2.1-3.7l-1.7-3.4l-4.5-2.4l-2.5-3.7l-0.7-4.4l-3.2-3.7l-1.7-3.7l-3.2-2.7l-2.4-3.7l-0.7-5.1l-1.8-4.4l0.4-4.8l4.5-0.7l4-0.9
	l3.4-2.1l2-3.8l0.1-5.4l-4.4-4.5l1.4,0.1l3.6-1.1l4.2-0.6l4.7,0.3h3.3l3.3-1.9l3.5-1.2l0.9,0.1l1.7,2.4l3.3,1.9l2.2,2.4l1.7,3.3
	l-2.5,2.7l-0.8,2.7l3.1,1.1l3.3,1.1l3.6-0.8l2.8,1.4l2.5,3.5l1.4,3.8l2.5,3.3l3.3,2.7l2.2,1.6l3.6,1.1l2.5-1.6l3.9-1.6l5.8,0.3
	l3.3,1.6l0.8,3.8l0.8,4.6l-0.8,4.9l-0.6,3.5l3.6,4.9l3.1,2.7l2.8,3l0.3,0.4l-2.2,3.6l-1.6,4.3l-1.7,4.1l-0.5,0.6l-2.1,2.8L663,609
	L661,611.4L661,611.4z"/>
<g id="tuscany">
	<path id="path7060" fill="#DDDDDD" stroke="#FFFFFF" d="M338.3,419.8l-2.1,6.4l-2.2-1.4l-3.5-0.4l-0.8-0.2l-2.1-0.7l-2.3-0.6
		l-2-0.3L321,423l-1.1,1.4l-1.1,1.6h-2.1l-1.7-0.7l-2.1-0.9l-0.3-2.1l1.5-1.7l2.1-0.3l1.4-1.9l2.6-1.4l0.1-0.7l-2.1-3.3l-0.8-1.5
		l-2.1-2.5l-1.6-1.4l-1-1.4l-1.4-1.4h-2.4l-1.6,0.9l-2,0.6l0.7-0.6l1.8-1.5l-0.1-2.2l-0.7-1.7l-1.3-1.8l-2-1.5l-1.5-1.8L300,394
		l-2.1-0.3l-2-1l-2.3-0.2l-2.5-0.2l0.1-1.9l2-1.2l-0.1-0.7l-0.3-2.6l-0.3-1.8l-0.6-1.7l-1-1.6l-1.8-1.1l-2.3-0.4h-2.5h-3.1h-2.5
		h-2.3l-1-1.7l0.3-2.3l0.1-2.2l0.7-1.8l1.3-2.2l0.6-3l-0.3-3.6v-2.6L278,357l-0.6-2.6l-2.3-3.4l-1.7-1.9l-0.9-1.8l-1.6-2.6l-1.7-1.9
		L268,341l-0.8-1.9l-1-2.1l-1.7-2.3l-0.1-0.7l-2.3-6.8l-0.8-9.8L248.1,291l-1.6-1l0.1-0.4l-2.4-6.1l-4.7-4.9l-4.3-2.9v-4l-4.6-3
		L226,265l-3.4-3.5l0.9,0.2l4.7-2.5l3-3.8l6-1.2l1.7-0.2l3.4,1.4l1.3,5l4.7,2.5l6,0.4l2.6,3.7l3,3.4h6.5l3,1.7l2.6,3.7l4.7,1.7
		l3,3.3l3.9,1.7l3.4-2.9l4.3,2.1l4.7,2.1l4.3,2.5l5.1-0.4l3.8-1.7l6,1.3l5.1-1.7l3.4-3.3l4.7-2.9l4.7-1.7l3.9,3.3l6,0.4l2.6,4.2h7.3
		l-1.3,4.2l-3.4,2.1l-1.3,4.6l3.4,2.9l1.3,5.4l2.6,3.8l6,1.2l5.6,2.4l5.2,0.5l4.1,1.5l7.5,1l5.5,1.9l-1,2.9l-4.5,2.9l-1,4.9l-4,4.4
		l-0.5,4.4l-2.5,2.4l-1,5.8l4,5.4l3.5,2.9l-5.5,2.4l-4.5,3.9l-4.5,2.9l-1.5,5.8l3,5.8l-3.5,3.4v7.3l-2.7,4.9l-2,0.4l-4.8,4.9
		l0.5,5.8l0.5,5.4l-7.5,5.8l-5.5,3.4l2,5.4L338.3,419.8L338.3,419.8z"/>
	<path id="path7067" fill="#DDDDDD" stroke="#FFFFFF" d="M235.9,337.8l-1.1,2.2l1.2,1.9l2.4-0.7l-0.9-2.4L235.9,337.8L235.9,337.8z"
		/>
	<path id="path8038" fill="#DDDDDD" stroke="#FFFFFF" stroke-width="0.7109" d="M232.6,374l1.2-1.6l-0.1-2.2l-1.4-0.4l-1.1,1.2
		l-0.2,1.8l0.6,1.3L232.6,374L232.6,374z"/>
	<path id="path9009" fill="#DDDDDD" stroke="#FFFFFF" d="M250.4,394.1l1.1-2.6l1.7-1.2l2.4-0.2l1.4,1.7l2.6,0.2l0.9-1.9l2.4-0.3
		l2.3,0.3l1.9,0.5l0.5-2l0.9-2l1.9-0.8l0.9,1.7l0.4,2.2v2.2l-1.2,1.7v2.6l0.9,1.7l-1,1.4l-2.1-0.5l-1.4-1.7l-2.3-0.7H262h-2.6
		l-1.9,1l-2.3,0.8l-2.3-0.5l-1.7-1L250.4,394.1L250.4,394.1z"/>
	<path id="path9980" fill="#DDDDDD" stroke="#FFFFFF" stroke-width="0.6356" d="M250.4,409.2l-0.1-1.4l-1.6-0.6l-1,0.9l-0.3,1.4
		l1.1,1l1.2-0.4L250.4,409.2L250.4,409.2z"/>
	<path id="path10951" fill="#DDDDDD" stroke="#FFFFFF" stroke-width="0.6379" d="M264.5,428.2l-1.8-0.5l-0.4,1.7l0.5,1.4h1.6
		l0.5-1.6L264.5,428.2L264.5,428.2z"/>
	<path id="path11922" fill="#DDDDDD" stroke="#FFFFFF" stroke-width="0.8461" d="M301.9,427.5l-0.4-0.7l-0.5-0.6l-0.7-0.6l-0.8-0.2
		l-0.6,0.6l-0.4,0.8v1.2l0.7,1.1l0.7,0.8l0.8,0.5l0.8-0.2l0.6-0.8v-0.9L301.9,427.5L301.9,427.5z"/>
	<path id="path12893" fill="#DDDDDD" stroke="#FFFFFF" d="M313.6,435.5l-1.3-0.1l-0.6,0.7l0.6,0.9l1.3,0.3l0.9-0.4l-0.3-0.8
		L313.6,435.5L313.6,435.5z"/>
</g>
<g id="lazio">
	<path id="path13888" fill="#DDDDDD" stroke="#FFFFFF" d="M336.9,421l1.5-1.2l6.9-0.5l-2-5.3l5.5-3.4l7.5-5.8l-0.5-5.4l-0.5-5.8
		l4.8-5.1l3.3,2.4l1.6,1.6l1.5,1.1l1,1.4l-0.6,1.9l-1.2,1.6l0.1,2.3l1.6,1.1l2,0.9l2.3,0.7l2.3,0.2l2.2-0.5l2.1-1l2.8,0.2l1.5,1.6
		l0.8,2.3l0.3,2.4l0.8,2.6l1.3,2.3l1.3,2.4l2.1,1.7h2.5l2-0.6l1.6,0.2l0.1,2.6l1.2,1.9l2.5,1l2.3,2.3l2.1,0.9l2.5-0.5l2-1.6l0.3-2.4
		l0.6-1.8l2.3,0.5l3.6-1l1.3-1.7l0.7-2.1l4.8-2.6l2.2-1.9l1.2-1.8l2.1-1.7l6-1.3h2.6l3.8-0.9l2.2-1.4l2-2.3v-2.4l1.1-1.3l0.5,0.4
		l4.4,0.3l4.9,3.6l4.1,4.6l-5.9,2.9l-6.5,0.6l-5.4,6.4v6.4l2.4,5.2l3,6.4l5.9,2.9l1.8,6.9l-7.7,2.3l-7.1-2.3l-4.2,3.5l-3,6.4
		l5.9,2.9l8.3,0.6l5.4,5.8l4.2,5.8l5.9,3.5l5.4,4.6l6.5-2.3l6.5,2.3l6.5,4.6l6.5,2.3l1.8,5.8l0.6,8.1l-5.9,2.9l-1.2,8.1l-1.8,7.5
		l-6.5,3.9l-3.5-1.5l-3.8-1l-3.1,0.6l-1.1,2.8l-1.5,0.7l-2.8-1.8l-0.6-0.3l-4.3-2.1l-3.4-1.5l-2.7-1.8l-2.1-0.6l-2.6,0.6l-3.2,0.6
		l-2.5,1.5l-2,1.6l-2.7,1.4h-1.6l-1.8-0.3l-1.1-3l-2.9-3.5l-1.8-3l-1.4-3.1l-2.4-1.1l-3.5-0.4l-3.4-0.6l-3-0.9l-1.3-1.7l-2.4,0.4
		l-2.4,0.4l-1.7-1.5l-1.1-3.6l-2.5-3.2l-3.1-4l-4-3.8l-3.8-2.8l-3.4-1.8l-3.4-2.6l-1.5-2.8l-1.4-2.4l-1-3.2l-1.3-2.3l-1-2.7
		l-0.6-0.6l-2.3-1.8l-2.2-1.4l-2.3-2.5l-2.7-1.2l-1.7-2.4l-3.5-2.1l-2.7-0.3l-2.4-1.3l-2-2.9l-2-4l-1.4-2.9l-1-2.5l-1.4-2.5
		l-2.4-2.5l-3.7-3.2l-1.7-1.7l-2.7-1.2l-2.4-1.2l-2.7-1.7L336.9,421L336.9,421z"/>
	<path id="path13864" fill="#DDDDDD" stroke="#FFFFFF" d="M423.6,542.8H423l-0.6,1.2l1.5-0.2L423.6,542.8L423.6,542.8z"/>
	<path id="path13866" fill="#DDDDDD" stroke="#FFFFFF" d="M430,544.8l-1.9,1.5l-0.5,1.7l1.5,0.5l0.7-1.4l0.9-1.4L430,544.8
		L430,544.8z"/>
	<path id="path13868" fill="#DDDDDD" stroke="#FFFFFF" d="M436.2,540.7l-0.5,1.2l1.1,0.8L436.2,540.7L436.2,540.7z"/>
</g>
<g id="sicily">
	<path id="path12915" fill="#DDDDDD" stroke="#FFFFFF" d="M415.3,769.9l2.1,4.1l2.7,2.9l1.8,3.2l3.6,1.5h4.5l3-2.1l2.7-2.1V773
		l1.8-2.9l3.9-2.1l1.8,2.7l2.7-1.2l2.7-2.3l3.6-0.3l1.5,3.5l0.6,3.8l2.4,2.1l4.2,0.3l2.4-2.1l2.1,2.3l1.2,3.2l3,2.3l3.3,1.2l3,1.5
		l4.2,0.3h4.5l3.6-1.8l3.3-1.8l4.8-0.3l3.6,1.2h5.1h5.1l3,1.5l4.2-1.2l5.7-1.8l5.7-0.9l6.9-2.3l2.4-3.5l6.6-3.2l6.6-1.2h3.9l2.1,3.2
		l4.2,0.3l4.2,0.6l3-2.1l2.1-3.5l1.8-2.9l1.8,2.3h4.8l3.3-2.3l0.9-0.9l8.2-3.8l2.4,2.9l0.6,3.5l-3,2.7l-1.5,4.1l-2.7,3.2l-2.1,4.1
		l-2.1,4.1l-3.6,4.7l-2.4,4.1l-3.9,6.8l-1.8,3.5l-0.9,5.6L569,814l-1.5,4.1l-2.1,3.8l-2.1,4.4v5v4.7l1.8,5.3l3.9,2.1l3.9,2.1
		l-4.2,6.2l4.5,3.5l1.2,4.1l1.2,3.5l-0.6,4.4l-4.8,2.1l-2.7,4.4l-1.2,4.1l-3,4.1l-0.3,5.3l1.8,3.2l-1.5,3.2l-3.3-1.2l-5.1-2.3
		l-4.5-1.2h-4.8l-4.5,1.2l-3-2.3l-3.6-1.5l-3.3-1.5l-4.2-1.2l-3.6-1.8l-1.5-3.5l-2.1-2.9l-1.8-3.2l-3-3.2l-2.7-3.2l-3-2.9l-3-2.7
		l-4.2-1.8l-5.1-1.8l-5.1,0.6l-4.8,1.2l-2.7-2.7l-3.9-2.3l-4.8-0.6l-2.4-2.7l-4.5-4.4l-3.9-2.1l-4.8-2.1l-3.6-1.2l-3-3.2l-3.9-3.5
		l-3.4-3.3l-2.9-2.7l-0.8-0.9l-5.3-2l-5.1-1.8l-3.3-3.5l-4.8-1.5h-5.4h-4.8l-4.5-0.3l-3-3.5l-2.4-2.1l-4.5-2.3l-1.5-6.2l-0.9-5.3
		l-0.6-5.3l2.7-2.7l0.9-3.2l0.9-1.5l0.6-4.4l2.1-2.9l5.4-0.9l2.7-2.1l3.3-4.1L415.3,769.9L415.3,769.9z"/>
	<path id="path13876" fill="#DDDDDD" stroke="#FFFFFF" d="M517.6,738.6h-2.2l0.1,1.8l1.9,0.3L517.6,738.6l-0.6,0.1"/>
	<path id="path13878" fill="#DDDDDD" stroke="#FFFFFF" d="M529.6,737.1l-1.2,0.9l2.8,0.8l-0.6-1.3L529.6,737.1L529.6,737.1z"/>
	<path id="path13880" fill="#DDDDDD" stroke="#FFFFFF" d="M562.9,731.1l-1.9,1.7l1.1,0.6l1.6-0.6l1.2-1.1l-0.9-0.9L562.9,731.1
		L562.9,731.1z"/>
	<path id="path13882" fill="#DDDDDD" stroke="#FFFFFF" d="M571.3,718.2l-1.9,2.1l1.8,0.4l0.7-1.4l0.1-1.2l-0.3,0.7"/>
	<path id="path13884" fill="#DDDDDD" stroke="#FFFFFF" stroke-width="0.8768" d="M547.8,736.7l-1.4-0.3l-1.1,0.6l-0.2,1.5l0.8,1
		l1.4,0.5l1.5-0.1l0.6-1.4l-0.6-1.1L547.8,736.7L547.8,736.7z"/>
	<path id="path13886" fill="#DDDDDD" stroke="#FFFFFF" d="M555.1,741.5l-1.9-0.2l-1.2,1.2l-0.7,1.2v2l0.3,2l1.1,1.4l1.4,1.5l0.5,1.7
		l0.9,1.2l1.5,0.1l1-1.1l-0.5-1.7l-1-1.1l-0.8-1.1l0.2-1.7l1-1.3l0.5-1.4l-0.9-1.3L555.1,741.5L555.1,741.5z"/>
	<path id="path19702" fill="#DDDDDD" stroke="#FFFFFF" stroke-width="0.8454" d="M444.1,725.9l-1-0.3l-0.9,0.3l0.2,1.1l1,0.6
		l0.7-0.3l0.2-1L444.1,725.9L444.1,725.9z"/>
	<path id="path22611" fill="#DDDDDD" stroke="#FFFFFF" d="M369.8,881.4l-1.4-1l-1.6-0.5l-1.1,0.6l-0.9,1.2l0.6,1.9l0.8,1.1l1.2,1.4
		l0.8,0.8l1.6,0.1h1.7l1-1v-1.5l-0.4-1.3l-1-1L369.8,881.4L369.8,881.4z"/>
	<path id="path23582" fill="#DDDDDD" stroke="#FFFFFF" d="M409.6,989.3l-2.1-1.5l-1.9-1l-2.6-0.2l-0.7,1.5l1.9,1.4l2.8,0.5
		L409.6,989.3L409.6,989.3z"/>
	<path id="path24553" fill="#DDDDDD" stroke="#FFFFFF" d="M423.4,958.7l-1.2,1.9l2.3,0.3L423.4,958.7L423.4,958.7z"/>
</g>
<path id="molise" fill="#DDDDDD" stroke="#FFFFFF" d="M567.8,462.8l-2.9-1.3l-3.8-1.5l-2.5-1.1l-1.8-1.7l-3-1.7l-3.5-1.1l-3.4-1.1
	l-1.8-1.2l-1.1-0.8l0.2,0.9l-1.3,1.6l-1.5,2.8l-2.9,3.2l-1.3,2.1l-2.4,2.5l-1.8,2.8l-2,3.3l-1.8,2.7l-1.8,2.3l-2.2,0.6l-0.9-1.8
	l-0.4-2.7l-1.8-2.3l-2.5-1.1l-2.9-1.8l-3.3-1.9l-2.4,1.7l-1.5,2.1l-2.7,1.6l-2,1.6v2.7l1.3,1.6l-1.1,2.1l-3,1.1l-2.2,1.2l-2.2,1.4
	l-2.4,1.2l-2.9-0.4l-1.2,0.1l2.1,1.3l1.8,5.8l0.6,8.1l-1.8,1.4l0.8,5.4l2.6,2.3h3.9l0.3-3.5l0.3-3.8l4.1-0.8l4.4,1l4.7,2l4.2,2
	l3.9,1.8l4.9,2.3l4.7,0.3l5.2-0.5l3.4-2.5l3.4-1.5l4.2-0.5l4.4-1.3l3.1-1l2.1-2.5l-2.6-2.8l-1.3-3.5l-0.5-3.3l2.6-1.8l3.6-0.8
	l5.4-3.5l1.6-3.5l-2.6-2.5l-0.8-3.5l2.1-4.8l1-3.8L567.8,462.8L567.8,462.8z"/>
</svg>
