<svg version="1.1" id="svg2" xmlns:svg="http://www.w3.org/2000/svg"
	 xmlns="http://www.w3.org/2000/svg" xmlns:xlink="http://www.w3.org/1999/xlink" x="0px" y="0px" width="640px" height="420px"
	 viewBox="0 0 640 420" enable-background="new 0 0 640 420" xml:space="preserve">
<g id="landmarks-switzerland">
	<path id="OW" fill="#DDDDDD" stroke="#FFFFFF" stroke-width="0.75" d="M334.03,216.98l-5.76-4.83l0.76-1.05l0.87-2.04l-0.23-2.21
		v-2.68l0.64-4.65l0.41-3.31l0.64-3.95l-1.28-0.23l-1.57,0.64l-1.8-0.87l-1.16-0.52l-0.52-1.57l-0.23-0.93l0.76-1.28l1.51-2.85
		l-0.12-1.4l-2.44-0.87l-4.13-0.87l-4.13,1.28l-3.31,1.28l-1.05-0.87l-2.44,0.23l-2.97,2.44l1.4,2.97l-1.8,1.51l-1.51,1.69
		l-0.87,2.04l-1.28,2.56l-1.05-0.29l0.23-1.51l-1.69-1.05l-0.87,1.16l-1.69,1.92l-0.93,0.87l-0.29,4.13l-0.41,1.4l-0.87,1.69
		l-1.4,1.05l-0.76,1.69v1.57l2.68,4.13l0.23,0.93l-1.8,1.57l-0.87,1.69l1.16,0.17l4.54,0.64l1.63,0.47l4.07,3.26l3.61,1.28l3.2-1.34
		l1.74-0.52l3.26-0.12l1.98-0.35l2.73,1.1l2.79,1.8l3.72-2.73l1.98-1.8l2.09-0.87l2.33-0.99L334.03,216.98L334.03,216.98z
		 M347.41,204.53h2.5l0.76,0.29l1.22,0.35l0.23,1.51l-2.21,1.16l-1.51,1.57l-0.93,2.62l0.7,0.64l0.52,0.87l-0.29,0.93l-0.7,0.29
		l-1.05-0.06l-0.06,0.64l2.44,0.58l-0.23,1.1l0.87,0.76l0.87,1.4l0.12,0.52l-1.74,1.63l-0.64-0.41l-1.05-0.29l-0.87-0.12l-1.63,0.17
		l-3.31-1.57l-2.38,1.86l-0.87-1.1l1.8-1.51l0.35-0.81v-0.7l-0.7-0.76l-0.93-0.47l-1.45-1.05l-0.81-1.51l-0.99-1.28l-0.52-1.51
		l-0.47-2.56l-0.17-2.27l-0.17-1.98l0.52-0.99h0.99l0.81,0.7l0.06,0.52l-0.81,0.35l0.06,0.58l1.05,0.35l0.93-0.17l1.28-0.76
		l1.05-1.28l1.86,1.86L347.41,204.53L347.41,204.53z"/>
	<path id="NW" fill="#DDDDDD" stroke="#FFFFFF" stroke-width="0.75" d="M347.41,204.53v-3.9l0.93-2.38l-0.41-0.7l-0.41,0.12
		l-0.12-0.87l-1.05,0.06l1.4-1.98l1.4-0.7l2.21-0.81l1.92-1.16l1.28-1.05l0.76-0.35l1.8-1.22l1.4-1.8l2.09-1.51l0.7-0.87l-0.17-1.63
		l0.12-1.4l0.93-1.1l0.81-0.81l-0.17-0.64l-0.35-1.16l-4.19,1.57l-4.48,0.7l-5.35-1.63l-0.29-1.51l-1.05-0.76l-1.51,0.06h-1.69
		l-1.22,0.12h-1.4l-1.69,0.35h-2.04l-0.23-2.5l-1.45,0.06l-1.34,0.76l-1.8,1.74l-1.74-0.7l-1.28,0.81l-0.58-0.58l-1.22,0.17
		l-2.33-0.06l-3.37-1.28l-1.8,0.99l-1.86-0.29l-3.55,1.63l1.16,4.54l4.13-1.28l4.13,0.87l2.44,0.87l0.12,1.4l-1.51,2.85l-0.76,1.28
		l0.23,0.93l0.52,1.57l1.16,0.52l1.8,0.87l1.57-0.64l1.28,0.23l-0.64,3.95l-0.41,3.31l-0.64,4.65v2.68l0.23,2.21l-0.87,2.04
		l-0.76,1.05l5.7,4.83l3.31,2.09l0.81,0.81l1.8-1.51l0.35-0.81v-0.76l-0.7-0.76l-0.93-0.47l-1.45-1.05l-0.81-1.51l-0.99-1.28
		l-0.52-1.51l-0.47-2.56l-0.17-2.27l-0.17-1.98l0.52-0.99h0.99l0.81,0.7l0.06,0.52l-0.81,0.35l0.06,0.58l1.05,0.35l0.93-0.17
		l1.28-0.76l1.05-1.28l1.86,1.86L347.41,204.53L347.41,204.53z"/>
	<path id="ZG" fill="#DDDDDD" stroke="#FFFFFF" stroke-width="0.75" d="M375.84,145.45l-1.74,1.05l-1.8-0.17l-0.47-0.52l-0.47-1.63
		l-0.52-0.06l-2.09-0.23l-0.76-0.29l-0.47-0.81l-0.06-1.28l-0.35-1.22l-0.29-1.34l-0.06-1.22l-0.76-0.29l-0.81,0.17l-0.58-1.45
		l-1.45,0.23l-0.76-0.99l-0.58-0.58l-2.38,0.17l-1.86-0.17l-1.22,0.47l-1.28,1.1l-1.8,0.7l-2.73,0.17l-1.8,0.17l-2.27-0.7l-0.81-0.7
		l-2.5,0.06l-0.99-2.15l-0.99-1.63l-0.64-1.63l-0.17-0.47l-0.81,1.45l-0.64,1.63l0.99,2.15l0.47,1.34l0.17,2.15v2.27l0.47,1.63
		l0.35,1.63l0.62,1.34l-0.64,1.45l-0.35,2.44l1.63,2.62l1.05,1.57l1.16,0.35l0.87-0.81l0.52-0.17l0.29,0.93l0.17,1.74l1.51-0.81
		l1.63-0.93l0.99-0.23l0.81,2.85l0.52,1.28l0.99,0.35l2.33,0.93l1.45-0.58l1.74-0.17l2.09-0.06l0.47,1.98l1.57,0.06l1.51-0.76
		l1.22-0.93l1.34-0.47l0.81-0.52l2.04,0.52l1.63,0.29l0.7-0.47l0.06-0.76l0.17-1.57l0.76-0.99l1.1-0.81l0.76-1.28l0.47-2.38
		l1.1-2.79l-0.17-0.76L375.84,145.45L375.84,145.45z"/>
	<path id="LU" fill="#DDDDDD" stroke="#FFFFFF" stroke-width="0.75" d="M292.8,217.68l0.87-1.69l1.8-1.57l-0.23-0.93l-2.68-4.13
		v-1.57l0.76-1.69l1.4-1.05l0.87-1.69l0.41-1.4l0.29-4.13l0.93-0.87l1.69-1.92l0.87-1.16l1.69,1.05l-0.23,1.51l1.05,0.29l1.28-2.56
		l0.87-2.04l1.51-1.69l1.8-1.51l-1.4-2.97l2.97-2.44l2.44-0.23l1.05,0.87l3.31-1.28l-1.16-4.54l3.55-1.63l1.86,0.29l1.8-0.99
		l3.37,1.28l2.33,0.06l1.22-0.17l0.58,0.58l1.28-0.81l1.74,0.7l1.8-1.74l1.34-0.76l1.45-0.06l0.23,2.5h2.04l1.69-0.35h1.4l1.22-0.12
		h1.69l1.51-0.06l1.1,0.76l1.05-0.52l1.92,0.23l0.76-0.23l0.64-0.64l-0.12-3.9l-0.93-0.47l-0.93-0.58l-0.93-1.05l-1.74-1.57
		l-0.93-1.16l-0.99-0.29l-0.81,0.17l-1.51,0.06l-1.8-0.35l-2.33-0.52l-1.34-0.93l-0.29-0.35l0.87-0.93l0.81-0.93l0.58-1.45
		l0.06-0.41l2.09-1.92l2.27-2.85l0.99-0.76l1.1-0.7l-0.17-1.74l-0.29-0.93l-0.52,0.17l-0.87,0.81l-1.16-0.35l-1.05-1.57l-1.63-2.68
		l-2.79,0.87l-3.14,0.76l-1.34,0.17l-0.87-1.45l-1.22-2.44l-1.16-2.44l-1.28-3.37l-0.47-2.62l-1.05-3.08l-1.22-3.95l-0.58-2.68
		l-0.12-1.92l-0.41-1.22l-0.41-0.23l-2.5-0.7l-0.58-1.05l-1.98-0.47l-1.28,0.06l-2.62,3.37l-1.45,0.81l-0.58,1.51l-0.47,2.33
		l-0.17,1.4l-0.64,1.28l-1.1,0.87l-1.16,0.17l-1.34-0.41l-1.05-0.87l-0.12-0.76v-0.87l1.45-0.7l-0.17-0.81l-1.05,0.23l-2.97,0.35
		l-3.08,0.23l-1.51-0.35l-0.06-1.69l-0.52-1.28l-0.17-0.35l-0.99-0.17l-1.45-0.35l-1.45,0.47l-0.7,0.52l-0.35,1.28l-0.47,1.34
		l-1.51,0.47l-1.45,0.12l-1.63,0.06h-1.1l0.12-0.7l0.12-2.15v-1.63l-0.41-1.16l-0.87-1.69l-1.05,0.41l-1.74,0.52h-0.81h-1.1
		l-0.76-0.7l-0.76-0.12l-0.06,1.22v5.06l-0.35,0.64l-0.52,0.58l-0.76,0.47l-2.33-0.12l-1.1-0.52l-1.92-0.23l-2.5,0.35l-1.16,0.35
		l-1.16,0.76l-2.44,0.23v0.64l-0.12,1.4l0.64,2.44l1.51,3.2l1.16,1.51l0.99,1.4l0.17,1.05l-0.41,2.97v1.92l1.28,1.92l0.58,1.45
		l-0.58,1.45l-1.1,1.22l-0.52,1.45l0.47,2.15l0.12,1.22l0.06,1.69l-0.17,1.34l-0.23,2.62l-0.64,1.63l1.28,1.22l1.34,1.63l0.52,1.16
		l0.17,1.74l0.47,1.86l1.86-0.23l2.04,0.12l1.4,0.47l0.41,1.74l0.76,2.15l0.12,1.34l-0.87,1.86l-1.22,1.98l-0.47,1.98l-0.64,1.22
		l-1.34,1.4l-2.15-0.23l-1.16,1.1l-1.51,0.81l-1.69,1.34l1.05,0.76l0.58,1.22l-0.06,2.97l-0.7,1.45l-2.04-0.06l0.23,4.19l0.76,2.09
		l0.58,1.22l3.37,2.44l3.2,1.86l3.66,3.08l2.33,2.73l2.09,3.31l1.69-0.81l3.84-1.1L292.8,217.68L292.8,217.68z"/>
	<path id="AG" fill="#DDDDDD" stroke="#FFFFFF" stroke-width="0.75" d="M340.66,67.47l-0.76,1.22l0.35,0.41l-0.17,2.27l-1.34,3.43
		l-2.38,2.38l-1.98,1.63v2.38l-1.05,1.98l-1.22,3.78l1.05,3.14l0.93,0.76l0.23,0.99l0.29,1.63l0.52,2.91l0.17,0.52l1.28,0.58
		l2.09,1.22l0.35,1.8l-0.47,1.05l-3.55,4.19l0.23,1.28l4.01,2.09l-0.35,1.51l0.29,4.54l0.99,1.22l0.81,0.64l1.57,0.29l1.16-1.63
		l0.58,0.23l-1.05,1.74l-1.05,1.86l-1.4,1.57l-1.4,0.64l-1.92,0.41l0.93,1.4l0.64,1.8l0.35,1.16l0.64,1.8l0.17,1.8l-0.81,1.45
		l-0.64,1.63l0.99,2.15l0.47,1.34l0.17,2.15v2.27l0.47,1.63l0.35,1.63l0.64,1.34l-0.64,1.45l-0.35,2.44l-2.85,0.87l-3.14,0.76
		l-1.34,0.17l-0.87-1.45l-1.22-2.44l-1.16-2.44l-1.28-3.37l-0.47-2.62l-1.05-3.08l-1.22-3.95l-0.58-2.68l-0.12-1.92l-0.41-1.22
		l-0.41-0.23l-2.5-0.7l-0.58-1.05l-1.98-0.47l-1.28,0.06l-2.62,3.37l-1.45,0.81l-0.58,1.51l-0.47,2.33l-0.17,1.4l-0.64,1.28
		l-1.1,0.87l-1.16,0.17l-1.34-0.41l-1.05-0.87l-0.12-0.76v-0.87l1.45-0.7l-0.17-0.81l-1.05,0.23l-2.97,0.35l-3.08,0.23l-1.51-0.35
		l-0.06-1.69l-0.52-1.28l-0.17-0.35l-0.99-0.17l-1.45-0.35l-1.45,0.47l-0.7,0.52l-0.35,1.28l-0.47,1.34l-1.51,0.47l-1.45,0.12h-1.51
		h-1.1l0.12-0.7l0.12-2.15v-1.63l-0.41-1.16l-0.87-1.69l-1.05,0.41l-1.74,0.52h-0.81h-1.1l-0.76-0.7l-0.76-0.12l-0.06,1.22v5.06
		l-0.35,0.64l-0.52,0.58l-0.76,0.47l-2.33-0.12l-1.1-0.52l-1.92-0.23l-2.5,0.35l-1.16,0.35l-1.16,0.76l-2.44,0.17l-0.23-2.04
		l-0.06-3.2l0.47-1.92l0.29-0.64l1.22-1.22l1.34-2.27l0.7-1.34l1.28-1.28l0.47-1.05l1.34-1.16l0.81-1.45l-0.47-2.04l0.52-1.16
		l1.1,0.76l1.1,0.87l1.4,0.52l1.74,0.41l3.37,0.29l2.21,0.17l0.99-0.17l0.76-0.29l0.7-1.05l0.58-2.04l1.1-3.2l1.1-2.21l1.1-2.62
		l-0.23-1.22l-1.63-1.51l-1.4-0.23l-1.05-0.47l-1.16-0.7l-1.92-1.05l-1.1-1.05l1.4-0.81l-0.06-1.51l-0.41-1.74l-0.93-0.23l-0.41-1.4
		l-0.06-1.05l-1.22-0.12l-0.64-0.12l-1.57-1.05l-0.35-2.04l0.12-1.34l-1.69-0.17l-1.4-0.06l-1.1-0.64l-1.4-1.86l-0.64-2.38l-1.8-3.2
		l-1.45-1.98l-1.22-1.51l-0.58-0.7l-0.99-0.64l-0.87-0.06l-0.81,0.52l-0.47,0.81l-0.35,1.4l-0.35,1.16l-0.47,1.4l-1.28,1.22
		l-1.34,0.99l-1.98,0.12l-0.12-1.34l0.17-0.87l-0.41-0.7l-0.87-0.47l-1.92-1.69l-1.69-0.87l-1.69-0.58l-0.17-0.93l1.57-0.29
		l2.15-0.47l1.63-0.64l2.27-0.64l1.63-0.81l1.34-1.45l0.64-1.8l0.47-1.16l0.47-0.47h0.81l1.34,0.64l1.16,0.17l0.99-0.17l0.81-0.35
		l0.81-0.47l1.45-0.17l0.99,0.17l1.16,0.64l0.64,1.16l0.47,1.16l0.35,0.81l0.17,1.16l0.35,1.16l0.64,0.81l1.63,0.64l0.47,0.64
		l1.45-0.35l0.64-0.99l0.81-1.16h1.45l1.98,0.17l1.98,0.17l0.99,0.47l1.34,0.17h2.15l1.34-0.35l0.81-0.64l0.81-0.64l0.64-0.81
		l0.64-0.17l0.81,0.47l0.64,0.47h1.63h0.64l0.47-0.81l0.47-0.99v-1.16v-0.35l0.81-0.99h0.81l1.34-0.35l0.35-0.17l1.45-1.34
		l0.81-0.64h1.45l0.64-0.17l1.34-0.64l0.99-0.47l0.17-0.64l1.8-1.63l0.99-0.64l0.64-0.81l0.99,0.17l0.35,0.64l1.16,0.81l0.64,0.17
		h0.64l1.8-0.35H321l0.99,0.35h1.45l1.34,0.35l0.47,0.81l0.17,1.63l1.45,1.45l1.8,1.8l1.16,0.81l1.98,1.16l2.15,0.35h1.98h1.8
		l0.17-0.64l0.99-0.99h0.64L340.66,67.47L340.66,67.47z"/>
	<path id="BL" fill="#DDDDDD" stroke="#FFFFFF" stroke-width="0.75" d="M208.19,98.17l0.23,1.16l0.64,1.1l3.02,2.73l0.93,1.4
		l1.69,0.29l1.1-0.17l0.12-0.99l0.52-1.16l0.93-0.58l1.86-0.12l2.09,0.06l0.29,1.28l1.98,1.34l1.63-1.34l2.09-0.64l0.29-1.05
		l0.7-1.98l4.42-0.64l0.64-2.27l4.19-0.29l0.12-1.74l0.99-1.69l0.7-2.15l-0.35-1.51l-1.16-1.51l0.12-2.09l2.79-0.12l1.51-0.12
		l1.28-1.45l0.7,0.29l1.16,1.74l2.5,0.41l1.92-0.17l1.69,0.76l-0.29,0.7l-1.28,2.5l-1.05,1.34l-1.45,1.45l-0.29,1.8l-0.12,2.38
		l-0.58,1.45l-1.34,0.7l-1.1,0.52l-2.97,0.17l0.12,2.97l0.35,2.15l0.52,2.38h2.15l3.2-0.17l3.55-0.52l1.34,0.81l0.64,1.34l1.05,1.4
		l1.28,1.16l1.05,0.87l1.45,0.64l1.51,0.23l1.34-0.12v-1.34l0.23-1.4l1.8-1.34l2.79-1.05l2.04-0.87l1.74-1.16l2.15-2.15l1.51-1.86
		l1.63-0.35l2.62,0.29l1.98-0.93l2.38-1.74l0.17-1.51l-0.76-1.22l-0.87-1.1l0.17-1.74l0.58-1.34l0.41-1.34l-1.57-0.99l-0.35-2.04
		l0.12-1.34l-1.69-0.17l-1.4-0.06l-1.1-0.64l-1.4-1.86l-0.64-2.38l-1.8-3.2l-1.45-1.98l-1.22-1.51l-0.58-0.7l-0.99-0.64l-0.87-0.06
		l-0.81,0.52l-0.47,0.81l-0.35,1.4l-0.35,1.16l-0.47,1.4l-1.28,1.22l-1.34,0.99L259.18,81l-0.12-1.34l0.17-0.87l-0.41-0.7
		l-0.87-0.47l-1.92-1.69l-1.69-0.87l-1.69-0.58l-0.23-0.93l-1.8,0.47l-0.99,0.64l-2.15,0.64l-1.63,0.47l-1.45-0.47l-1.63-0.81
		l-0.99-1.16l-1.16-1.45l-0.7-1.63l-1.51,1.16l0.35,2.79l-0.99,0.99l-1.92,0.35l-1.1-1.34l-1.34,0.17l-0.29-2.56l-1.69-0.76
		l-1.63,0.81l-1.63,0.17l-1.86,0.41l-2.09,0.7l-1.57,2.09l0.35,2.56l1.1,1.34v2.21l-1.4,1.98l1.1,0.06l1.22,0.76l0.12,0.93
		l0.12,0.81l-0.87,1.34l-0.47,0.93l-0.7,0.76l-0.7-0.12l-0.81,0.12l-1.1-0.12l-1.74,0.7l-1.22,0.17l-1.16-0.41l-0.81-0.29
		l-0.47-0.87l-0.93,0.76l-0.87,0.87l-1.1,2.33l0.64,0.41l0.99-0.41l0.64,0.7l1.63,1.22l1.51,1.51l0.7,1.34l-0.12,1.4l-0.47,1.1
		l-0.52,0.52l-1.34,0.12l-1.63-0.81l-2.21-0.52L208.19,98.17L208.19,98.17z M207.84,95.15l0.41,3.02l-3.26-0.29l-2.38-2.21
		l0.06-1.63l1.98,0.58l2.44,0.23L207.84,95.15L207.84,95.15z"/>
	<path id="VS" fill="#DDDDDD" stroke="#FFFFFF" stroke-width="0.75" d="M336.88,280.37l0.93-3.66l0.06-1.69l-0.12-2.5l1.16,0.29
		h2.27l1.74,0.17l0.93-0.29l0.7-1.34l0.52-1.51l2.15-1.98l0.93-1.98l-1.63-0.29l-1.34-0.7l-1.34-0.76l-0.76-1.1l-0.7-1.57
		l-0.52-1.28l-1.45-2.38l-0.52-1.16l0.99-2.91l1.28-3.31l0.29-6.22l-0.17-1.34l-1.34-0.87l-1.05-0.29l-2.27,2.56l-1.45,1.98
		l-1.34,2.38l-0.7,3.26v3.08l-0.47,1.8l-2.04,1.98l-1.8,1.28l-2.09,1.1l-0.81,1.34l-4.36,2.73l-2.79,0.99l-5.99,1.51l-3.08,0.52
		l-2.09-1.98l-3.72-0.7l-3.43-2.27l-2.62-0.99l-2.27,0.17l-2.91-1.34l-2.15-1.16l-1.8,0.12l-1.63,1.1l-2.27,1.16l-2.56,0.99
		l-0.47,5.82l-4.07,1.98l-1.28,1.74l-3.08,2.56l-3.37,0.52l-5.52,0.29l-7.5,6.51l-8.61,7.09l-2.62-4.01l-4.54-3.26l-3.26-0.64
		l-1.51,1.51l-1.28,2.38l-1.74,2.15l-2.91-0.12h-2.62l-1.34,0.7l-1.1,1.1l2.62,1.74l-0.64,0.99l-1.51,1.63l-2.44,1.16l-2.56,0.81
		l-4.71-1.51l-2.79-0.64l-5,1.34l-3.9,2.91l-2.62,1.8l-2.62,1.63l-1.63-0.64l-0.81-1.28v-3.72l-2.38-0.47l-2.27,1.45l-1.51,1.16
		l-0.47,2.56l-0.7,2.27l-1.74,1.16l-3.43-0.06l-2.44,1.69l-1.63,1.57l1.22,2.68l-1.05,1.86l-1.1,2.15l-2.27,3.31l-2.79,2.56
		l-3.49,3.37l-3.2,2.56l-4.19,2.5l-3.37,2.38l-0.41,0.41l-1.63-3.84l-0.17-1.45l-0.47-3.08l-1.92-2.73l-1.28-1.74l-0.99-0.64
		l-0.99-1.92l-0.64-1.74v-1.92v-1.45l-0.47-1.63l-0.99-2.09l-0.81-1.63l-0.99-1.1l-0.99-2.09l-1.63-1.92l-1.45-0.99l-0.47-1.1
		l-0.81-1.92l-0.35-1.28l-1.1-1.1l-1.1-1.28l-0.64-0.93l-1.92-4.71l-7.85-0.58l0.52,5l0.47,3.2l-0.87,1.45l-1.34,1.34l-2.33,0.76
		l0.47,1.22l1.45,1.86l0.99,2.09l0.76,1.1l0.99,0.23l2.09,1.45l0.87,1.22l0.87,1.1l1.74,0.47l1.1,1.57v2.97l-0.47,2.73l-1.63,2.73
		l-2.44,3.31l-1.74,3.43l0.35,3.08l0.23,3.31l-2.09,1.22l-1.74,2.44l-0.47,1.34l1.22,0.99l1.34,1.57l3.31-0.12l1.74-0.23l1.74-0.23
		l2.44,0.99l2.97,0.76l0.99,1.74l-0.87,1.45l0.35,3.55l-0.23,1.86l-1.22,0.99l-0.35,2.73l0.12,1.74l1.45-0.23l0.87-0.99l0.87-1.74
		l0.35-0.87l2.09-0.12l1.1,0.35l1.1,2.21l1.1,0.35l1.57,2.33l2.09,3.43l2.73,3.31l1.98,3.55l0.64,2.56l-0.87,2.33l1.98,0.47
		l1.98,0.47l0.23,2.85v2.73l1.57,1.74l2.56,3.55l1.34,2.33l1.34,2.21l0.87,2.44l0.47,1.1l0.99-0.12l1.22-2.33l1.45-1.57l2.85-0.23
		l2.44,1.98l1.34,1.74l1.1,0.23v-2.56l0.12-1.63l1.45-1.34h1.63l2.21-0.23l1.34-0.17l1.74-0.35l1.05-1.05l1.4-2.09l0.7-1.57
		l2.62,0.35l2.97,0.64l2.33-0.12l2.56,0.99l2.27,1.05l1.05-0.87l1.05-0.52l1.57-0.35l0.87-1.74l2.27-1.05l2.79-1.57l1.22-0.52
		l-0.35-0.52l0.87-2.62l1.22-0.17l1.22-0.87l1.22-0.52l2.09-0.35h1.57l1.57-1.05l-0.35-1.4l1.05-2.09l0.93-0.23l1.1-0.47l1.86,0.87
		l1.98,2.21l2.21,0.35l3.55-0.64l2.97,0.35l1.74,1.1l0.87,1.1l1.74,1.22l1.98,1.22l0.76,3.08l0.99,0.47l0.64-0.23l2.85-1.34
		l1.86-0.12l2.44,0.76l2.73,2.56l2.33-1.63l2.56,0.47l2.21,0.12l1.57-0.87v-0.64l-0.35-4.42l0.76-2.73l2.33-2.56l2.44-1.63
		l10.06-0.64l1.63-1.45l1.45-3.08l1.22-2.73l1.74-1.45l-1.1-2.09l0.12-4.65l0.76-1.22l2.21-2.09l3.31-1.74l2.56-0.23h2.21l0.35-1.74
		l1.22-2.09l1.86-1.63l1.74-0.47l0.12-0.99l-0.47-2.73l1.86-1.74l-0.35-2.33l-1.34-1.34l-0.87-2.97l-0.23-2.21l-1.86-2.56
		l-2.33-1.98l-3.2-1.63l0.23-2.09l1.74-1.63l2.09-3.2l1.98-1.98l1.86-0.76l2.21,0.23l2.21,0.87l2.33-0.64l2.73-3.43l1.1-1.86v-0.64
		l1.1-0.87l2.21-0.76l1.34-2.21l1.98-1.22l4.42-1.86l0.99-1.98l-0.64-1.74l-1.98-0.47l-1.45-1.34l0.64-2.44l1.1-1.45l2.56-0.64
		l2.85-1.98L336.88,280.37L336.88,280.37z"/>
	<path id="BE" fill="#DDDDDD" stroke="#FFFFFF" stroke-width="0.75" d="M188.76,261.35l1.63-2.09l2.79-2.15l2.04-1.1l3.08,0.29
		l2.04-1.22l-1.98-3.08l0.23-4.01l0.23-3.08l0.29-1.57l1.74-1.1l2.15,0.93l0.93-0.23l1.74,0.12l0.29-2.91l-0.12-4.65l-1.57-1.57
		l-2.44-2.15l-1.63-1.05l-2.91-1.05l-1.45-0.81v-1.63l1.1-1.63l0.35-1.28l-1.1-1.45l-0.99-2.38l0.17-1.45l1.63-1.1l0.17-1.45
		l0.17-1.74l0.99-1.63l0.47-1.63l0.99-1.92l1.1-1.45l-0.41-0.29l-1.34-0.81l-1.45-1.63l0.52-1.34l1.1-1.57l0.41,0.93l1.45,1.1
		l0.52,0.81l2.31-2.13l0.35-0.64l-0.81-0.81l-0.17-1.45v-1.45l-1.28-1.28l-1.63-0.47l-1.63,0.35l-0.47,0.81l-1.45-0.64l-0.99-0.47
		l-1.45,0.35l-0.47,0.35l-1.74-0.35l-2.27-1.63l-0.99,0.17l-0.81-0.47l-0.81-1.1l-2.44-0.17l0.64-4.71l-0.23-3.37l-0.93-3.37
		l1.05-1.34l2.38-1.57l-0.41-2.04l-2.04-2.27l-1.34,0.81l-5.23,2.44l-5.64,0.93l-2.56,0.12l-4.01,1.16l-0.41-0.23l-2.27-0.7
		l-3.02-1.57l-3.02-2.85l0.76-1.57l0.76-1.45l0.76-1.63l1.1-1.1l1.45-0.99l1.45-0.87l1.34-0.47l1.34-0.12l1.34-0.23l1.69-0.81
		l0.52-2.79l0.17-2.15l-0.52-1.92l-3.78-2.56l-4.07-2.15l-0.99-0.64l-3.43,0.12l-4.88,0.64l-2.97,1.45l-2.56,1.28l-1.98,0.93
		l-2.09,0.93l-0.35-2.15l1.28-1.63l0.64-2.44l-0.29-3.43l-1.05-2.21l3.37-0.41l1.92-1.22l2.79-2.44l1.57-1.51l3.43,0.35l1.8-0.17
		l0.93-1.45l0.17-1.45l3.43-0.52l2.15-2.91l1.8-4.01l0.35-1.98l4.36,0.93l7.62-0.52l-0.7-3.78l2.15-1.28l-0.17-2.56l0.93-1.98
		l2.15-0.35h2.38l1.8,1.98l3.43,0.7l4.19-0.17l3.61-0.7l3.08-1.63l3.08-2.56l2.15-2.91l0.93,0.35l0.52,2.91l2.56-0.17l5.23,0.52
		l3.08,0.35l3.61,1.28l1.98-1.45l1.8-2.15h3.78l1.05,0.12l-1.34,2.04l-1.16,1.05l-0.87,1.28l-1.34,0.93l-3.55,0.99l-1.69,0.64
		l-1.45,1.22l-0.41,1.69l-0.35,0.64l-0.81,0.29l-2.5,0.52l-2.15,0.29l-0.06,1.8l-2.04,1.74l-2.33,1.4l-3.49,1.57l-3.14,1.28
		l0.52,4.01l0.93,1.1l1.98,0.58l0.76,0.35l0.7,2.79l0.52,0.99l0.99-0.47l0.64-0.64l1.45-0.64l0.99-1.1l0.35-1.28l0.64-0.64
		l1.45,0.17l1.28-0.47l0.99-0.81l1.45-0.81l1.34-0.35l0.17,2.44l0.17,2.38l1.74,2.73l-1.1,2.15l-0.93,0.29l-1.66-0.13l-2.38-0.12
		l-1.16,1.51l-0.87,1.28v1.69l-0.41,1.22l-2.68,0.17l-1.34,0.12l-0.81-0.7l-1.69-0.29l-0.64,0.47l-0.12,1.34l0.58,1.4l0.76,1.69
		l1.34,2.21l0.29,0.41l0.52-0.35l1.74-1.28l1.4-0.76l1.4-0.41l-0.06,1.34l-0.12,1.05l0.76,1.05l1.63-0.12l1.69-0.64l0.99-0.76
		l0.23-1.22l-0.64-0.93l-0.58-1.1l0.29-0.64l2.15-1.05l1.8-1.05l1.74-1.16l1.22-2.33l0.64-2.56l0.29-1.98l1.74-0.52l1.22-0.47
		l1.51,0.29l1.51,0.93l1.28,1.22l3.14,0.58l3.14,0.17l1.74-0.52l2.15-1.8l1.34-1.8l0.06-1.34l-0.23-1.69l-1.34-1.34l-1.45-0.7
		l-1.1-1.1l-0.93-1.4l-1.51-2.97l0.12-0.7l-0.29-1.16l-1.22-0.7l-0.81-0.64l-1.1,0.06l-1.1-0.23v-1.57l-0.52-1.51l0.23-1.34
		l-0.06-0.93l-0.12-1.1l1.4,0.12l4.42,0.47l1.16-0.17l1.74-0.7l1.74-0.58l1.16-0.7l1.98,0.23l0.64,0.76l1.63,2.27l1.05,2.56
		l1.98,0.29l2.04-0.23l2.09-0.99l0.76-0.52l1.05,1.63l1.1-1.05l0.99-0.7l0.7-0.81l0.7-0.23l2.15,0.23l1.57-0.12h1.45l-0.29,0.58
		l-0.47,1.92l0.06,3.2l0.23,2.04v0.64l-0.12,1.4l0.64,2.44l1.51,3.2l1.16,1.51l0.99,1.4l0.17,1.05l-0.41,2.97v1.92l1.28,1.92
		l0.58,1.45l-0.58,1.45l-1.1,1.22l-0.52,1.45l0.47,2.15l0.12,1.22l0.06,1.69v1.16l-0.23,2.62l-0.64,1.63l1.28,1.22l1.34,1.63
		l0.52,1.16l0.17,1.74l0.47,1.86l1.86-0.23l2.04,0.12l1.4,0.47l0.41,1.74l0.76,2.15l0.12,1.34l-0.87,1.86l-1.22,1.98l-0.47,1.98
		l-0.64,1.22l-1.34,1.4l-2.15-0.23l-1.16,1.1l-1.51,0.81l-1.69,1.34l1.05,0.76l0.58,1.22l-0.06,2.97l-0.7,1.45l-2.04-0.06l0.23,4.19
		l0.76,2.09l0.58,1.22l3.37,2.44l3.2,1.86l3.66,3.08l2.33,2.73l2.09,3.31l1.69-0.81l3.84-1.1l2.62-0.41l1.16,0.17l4.54,0.64
		l1.63,0.47l4.07,3.26l3.61,1.28l3.2-1.34l1.74-0.52l3.26-0.12l1.98-0.35l2.73,1.1l2.79,1.8l3.72-2.73l1.98-1.8l2.09-0.87l2.33-0.99
		l0.41-0.64l3.31,2.09l0.81,0.81l0.87,1.1l2.38-1.86l3.31,1.57l-1.22,2.33l-0.12,1.1l0.29,3.08l1.05,1.98l0.7,2.21l0.12,1.74v1.74
		l-0.55,0.94l-1.1,0.7l-1.51-0.17l-1.52-0.53l-1.8-0.29l-1.22-0.12l0.12,1.1l0.35,2.04l0.52,1.4l1.16,1.86l-2.27,2.56l-1.45,1.98
		l-1.34,2.38l-0.7,3.26v3.08l-0.47,1.8l-2.15,1.69l-1.8,1.28l-2.09,1.1l-0.81,1.34l-4.36,2.73l-2.79,0.99l-5.99,1.51l-3.08,0.52
		l-2.09-1.98l-3.72-0.7l-3.43-2.27l-2.62-0.99l-2.27,0.17l-2.91-1.34l-2.15-1.16l-1.8,0.12l-1.63,1.1l-2.27,1.16l-2.56,0.99
		l-0.47,5.82l-4.07,1.98l-1.28,1.74l-3.08,2.56l-3.37,0.52l-5.52,0.29l-7.5,6.51l-8.61,7.09l-2.62-4.01l-4.54-3.26l-3.26-0.64
		l-1.51,1.51l-1.28,2.38l-1.74,2.15l-2.91-0.12h-2.62l-1.34,0.7l-1.1,1.1l2.62,1.74l-0.64,0.99l-1.51,1.63l-2.44,1.16l-2.56,0.81
		l-4.71-1.51l-2.79-0.64l-5,1.34l-3.9,2.91l-2.62,1.8l-2.62,1.63l-1.63-0.64l-0.81-1.28v-3.72l-2.38-0.47l-2.27,1.45l-1.51,1.16
		l-0.47,2.56l-0.7,2.27l-1.74,1.16l-3.43-0.06l0.64-1.69l-0.81-3.72l0.12-1.63l-1.98-1.74v-4.3l1.05-1.86l-0.12-1.98l-1.22-1.74
		l-0.12-2.04l0.7-0.93l2.15-0.29l1.45-1.45v-2.56l-0.29-3.08l1.86-2.38l1.34-1.98l-0.23-3.31l-0.41-3.61L188.76,261.35
		L188.76,261.35z M245.52,147.49l0.76-0.64l0.93-0.52l0.76,0.12l0.87,0.87l-0.06,0.64l-0.52,1.1l-0.81,0.81l-1.28,0.52l-0.81-0.06
		l-0.41-0.58v-1.22L245.52,147.49L245.52,147.49z"/>
	<path id="SO" fill="#DDDDDD" stroke="#FFFFFF" stroke-width="0.75" d="M231.86,116.67l-1.34,2.04l-1.16,1.05l-0.87,1.28l-1.34,0.93
		l-3.55,0.99l-1.69,0.64l-1.45,1.22l-0.41,1.69l-0.35,0.64l-0.81,0.29l-2.5,0.52l-2.15,0.29l-0.06,1.8l-2.04,1.74l-2.33,1.4
		l-3.49,1.57l-3.14,1.28l0.52,4.01l0.93,1.1l1.98,0.58l0.76,0.35l0.7,2.79l0.52,0.99l0.99-0.47l0.64-0.64l1.45-0.64l0.99-1.1
		l0.35-1.28l0.64-0.64l1.45,0.17l1.28-0.47l0.99-0.81l1.45-0.81l1.34-0.35l0.17,2.44l0.17,2.38l1.74,2.73l-1.1,2.15l-0.93,0.29
		l-1.69-0.12l-2.38-0.12l-1.16,1.51l-0.87,1.28v1.69l-0.41,1.22l-2.68,0.17l-1.34,0.12l-0.81-0.7l-1.69-0.29l-0.64,0.47l-0.12,1.34
		l0.58,1.4l0.76,1.69l1.34,2.21l0.29,0.41l0.52-0.35l1.74-1.28l1.4-0.76l1.4-0.41l-0.06,1.34l-0.12,1.05l0.76,1.05l1.63-0.12
		l1.69-0.64l0.99-0.76l0.23-1.22l-0.64-0.93l-0.58-1.1l0.29-0.64l2.15-1.05l1.8-1.05l1.74-1.16l1.22-2.33l0.64-2.56l0.29-1.98
		l1.74-0.52l1.22-0.47l1.51,0.29l1.51,0.93l1.28,1.22l3.14,0.58l3.14,0.17l1.74-0.52l2.15-1.8l1.34-1.8l0.06-1.34l-0.23-1.69
		l-1.34-1.34l-1.45-0.7l-1.1-1.1l-0.93-1.4l-1.51-2.97l0.12-0.7l-0.29-1.16l-1.22-0.7l-0.81-0.64l-1.1,0.06l-1.1-0.23v-1.57
		l-0.52-1.51l0.23-1.34l-0.06-0.93l-0.12-1.1l1.4,0.12l4.42,0.47l1.16-0.17l1.74-0.7l1.74-0.58l1.16-0.7l1.98,0.23l0.64,0.76
		l1.63,2.27l1.05,2.56l1.98,0.29l2.04-0.23l2.09-0.99l0.76-0.52l1.05,1.63l1.1-1.05l0.99-0.7l0.7-0.81l0.7-0.23l2.15,0.23l1.57-0.12
		h1.45l1.28-1.28l1.34-2.27l0.7-1.34l1.28-1.28l0.47-1.05l1.34-1.16l0.81-1.45l-0.47-2.04l0.52-1.16l1.1,0.76l1.1,0.87l1.4,0.52
		l1.74,0.41l3.37,0.29l2.21,0.17l0.99-0.17l0.76-0.29l0.7-1.05l0.58-2.04l1.1-3.2l1.1-2.21l1.1-2.62l-0.23-1.22l-1.63-1.51
		l-1.4-0.23l-1.05-0.47l-1.16-0.7l-1.92-1.05l-1.1-1.05l1.4-0.81l-0.06-1.51l-0.41-1.74l-0.93-0.23l-0.41-1.4l-0.06-1.05l-1.22-0.12
		l-0.64-0.12l-0.41,1.34l-0.58,1.34l-0.17,1.74l0.87,1.1l0.76,1.22l-0.17,1.51l-2.38,1.74l-1.98,0.93l-2.62-0.29l-1.63,0.35
		l-1.51,1.86l-2.15,2.15l-1.74,1.16l-2.04,0.87l-2.79,1.05l-1.8,1.34l-0.23,1.4v1.34l-1.34,0.12l-1.51-0.23l-1.45-0.64l-1.05-0.87
		l-1.28-1.16l-1.05-1.4l-0.64-1.34l-1.34-0.81l-3.55,0.52l-3.2,0.17h-2.15l-0.52-2.38l-0.35-2.15l-0.12-2.97l2.97-0.17l1.1-0.52
		l1.34-0.7l0.58-1.45l0.12-2.38l0.29-1.8l1.45-1.45l1.05-1.34l1.28-2.5l0.29-0.7l-1.69-0.76l-1.92,0.17l-2.5-0.41l-1.16-1.74
		l-0.7-0.29l-1.28,1.45l-1.51,0.12l-2.79,0.12l-0.12,2.09l1.16,1.51l0.35,1.51l-0.7,2.15l-0.99,1.69l-0.12,1.74l-4.19,0.29
		l-0.64,2.27l-4.42,0.64l-0.7,1.98l-0.29,1.05l-2.09,0.64l-1.63,1.34l-1.98-1.34l-0.29-1.28l-2.09-0.06l-1.86,0.12l-0.93,0.58
		l-0.52,1.16l-0.17,0.93l1.69,2.85l3.61,0.81l3.2-0.81l2.56,0.29v2.56l0.23,1.74l0.87,2.09l0.41,0.93l3.95-0.06l-0.23,1.63
		 M212.32,92.07l0.64,0.41l0.99-0.41l0.64,0.7l1.63,1.22l1.51,1.51l0.7,1.34l-0.12,1.4l-0.47,1.1l-0.52,0.52l-1.34,0.12l-1.63-0.81
		l-2.21-0.52l-3.95-0.58l-0.35-2.97l0,0l2.15-1.1L212.32,92.07L212.32,92.07z M245.52,147.49l0.76-0.64l0.93-0.52l0.76,0.12
		l0.87,0.87l-0.06,0.64l-0.52,1.1l-0.81,0.81l-1.28,0.52l-0.81-0.06l-0.41-0.58v-1.22L245.52,147.49L245.52,147.49z M223.13,83.34
		l1.16,0.06l1.22,0.76l0.12,0.93l0.12,0.81l-0.87,1.34l-0.47,0.93l-0.7,0.76l-0.7-0.12l-1.28,0.12l-1.1-0.12l-1.74,0.7l-1.22,0.17
		l-1.16-0.41l-0.81-0.29l-0.47-0.81l0.29-0.35l0.99-0.99l-1.45-1.34l-1.34-0.87l-1.1-0.35l1.34-1.63l1.1-0.12l1.1,0.64l1.45,1.45
		l1.22,1.1l2.97-0.76L223.13,83.34L223.13,83.34z"/>
	<path id="JU" fill="#DDDDDD" stroke="#FFFFFF" stroke-width="0.75" d="M202.61,93.99l-3.43,0.12l-2.09,0.23l-1.28,0.35l-1.4,0.35
		l-1.51,0.58l-1.16,0.7l-0.76,0.87l-1.92-1.1l-0.99-1.34l-2.44,0.23l-2.44-1.1l-2.33-0.76l-0.76-0.64v-2.44l0.87-1.98l1.22-1.86
		v-1.98l-1.86,0.76l-1.98-0.64l-0.99-1.22l-1.86-1.34h-1.74l-2.09,0.87l-2.33,1.1l-3.43-0.76l-3.08-0.76l-2.09-0.99l-3.08,0.23
		l-1.22,0.76l-0.64,1.1l-0.35,1.57l1.45,2.33l0.87,2.21l-0.64,1.22l-1.74,0.47l-2.09,1.45l-1.1,0.99l-1.45,0.35l-0.76,1.1
		l-0.64,2.73l-0.99,0.47l-1.45,1.22l-0.35,2.33l-1.63,1.45l-0.76,1.86l0.47,2.33l5.41,0.23l2.33,0.12l2.21-0.87l1.86-0.87l2.73-0.76
		l2.73,0.23l1.1,0.99l1.34,1.34l1.45,2.73l-0.87,0.99l-0.12,1.22l-0.76,1.22l-2.56,0.64l-1.34,1.22l-0.76,1.74l-0.29,1.57
		l-1.45,0.87l-1.28,0.47h-1.45l-1.28,0.99l-0.99,0.47l-1.63,0.17l-0.17,0.47v0.64l0.81,0.81v2.44l-0.17,1.92l0.17,1.28l-0.17,0.99
		l-1.1,0.81l-0.99,1.1l-2.56,2.09l-2.38,1.63l-1.92,2.44l-0.81,1.45l-1.28,1.74l-1.28,0.64h-0.99l-0.81,0.81l0.81,0.81l0.81-0.35
		l0.17,0.99v0.99l2.68-0.06l1.45,1.57l3.37-0.41l1.92-1.22l2.79-2.44l1.57-1.51l3.43,0.35l1.8-0.17l0.93-1.45l0.17-1.45l3.43-0.52
		l2.15-2.91l1.8-4.01l0.35-1.98l4.36,0.93l7.62-0.52l-0.7-3.78l2.15-1.28l-0.17-2.56l0.93-1.98l2.15-0.35h2.38l1.8,1.98l3.43,0.7
		l4.19-0.17l3.61-0.7l3.08-1.63l3.08-2.56l2.15-2.91l0.93,0.35l0.52,2.91l2.56-0.17l5.23,0.52l3.08,0.35l3.61,1.28l1.98-1.45
		l1.8-2.15h3.78l1.28,0.17l0.17-1.63l-3.95,0.06l-0.41-0.93l-0.87-2.09l-0.23-1.74v-2.56l-2.56-0.29l-3.2,0.81l-3.61-0.81
		l-1.69-2.79l-1.05,0.17l-1.69-0.29l-0.93-1.4l-3.02-2.73l-0.64-1.1l-0.23-1.22l-3.26-0.29l-2.38-2.21L202.61,93.99L202.61,93.99z"
		/>
	<path id="VD" fill="#DDDDDD" stroke="#FFFFFF" stroke-width="0.75" d="M160.85,178.54l3.02,1.51l2.27,0.7l0.47,0.23l-0.52,2.21v3.2
		l0.7,0.93l2.56,4.54l1.63,3.37l-1.74,1.57l-2.15,1.63l-0.29,3.08l-0.93,1.98l-1.74,1.63l-1.05,1.22l-1.1-0.7l0.93-2.38l-0.12-2.85
		l-1.45-1.05l-1.34-1.45l-2.38-1.98l-0.93-2.44l-0.7-2.79l-1.86-0.93l-0.12-0.12l-3.49-2.91l0,0L160.85,178.54L160.85,178.54z
		 M127.82,223.73l-1.1,1.86l0.29,1.63l1.34,1.05l1.05-0.93l0.52-2.04l-0.12-1.74L127.82,223.73L127.82,223.73z M134.8,224.77
		l2.27-2.85l1.22-2.15l-0.41-0.93l0.93-0.52l1.34,1.74l1.86,1.86l0.64,0.93l-1.63,3.08l-1.1,1.74l-1.22-0.23l-1.34-1.34
		L134.8,224.77L134.8,224.77z M132.94,225.3l1.57,0.23l1.34,0.93l-1.1,1.63l-1.34,0.64l-0.64-0.93L132.94,225.3L132.94,225.3z
		 M54.14,301.07l3.43,1.98l-3.61,7.09l-0.41-0.17l-2.62-1.57l-2.97-1.74l-2.44-1.63h-0.7l1.57-2.73l1.45-2.33l0.12-2.33l-0.87-1.98
		l-3.84-3.95l-3.95-2.85L36.46,287l1.22-2.09l0.47-2.44l-0.23-4.3l1.45-2.56l2.09-3.2l1.74-2.56l1.63-1.74l2.21-1.86l-0.76-3.43
		l-1.22-1.57l-3.31-3.66l1.45-2.09l2.85-2.56l5.93-5.41l7.39-6.75l2.44-2.56l2.56-2.33l2.97-1.22l5.93-3.95l4.3-3.95l0.35-1.57
		l1.1-0.64l2.85-0.64l2.09-1.22l1.74-1.86l1.74-2.44l-0.76-1.86l-1.98-0.99l-0.87-0.99l-0.47-1.22l1.22-0.87l0.23-2.97l0.12-1.34
		l1.22-1.1l1.86-2.21l9.54-1.34l5.38-3.51l3.31-1.57l4.54-1.22l2.15-2.79l3.78-2.44l3.08-2.85l1.86-0.7l1.34,3.2l-0.81,2.38
		l1.86,1.1l0.41,4.19l1.57,1.1l1.45,4.54l0.29,6.45l1.1,0.93l2.38,1.74l-0.93,0.64l2.68,1.98l2.85,1.22l1.22,0.23l1.34-0.7
		l1.34-1.45l1.63,1.05l2.27,0.93h1.74l1.22-1.22l0.64-2.27v-2.27l0.52-1.34l-0.7-0.41l-1.05,0.12l-0.29,1.05l-1.45-0.12l1.05-2.79
		l0.12-1.1l1.34-3.2l1.57-1.34l-1.98-2.97l-1.98,0.81l-0.12-0.64l2.97-1.63l-1.45-1.57l-1.22,0.12l-3.02-2.73l4.48-3.66l3.08,4.36
		l2.79,3.08l2.38,1.98l1.22,0.52v3.08l0.93,2.04l-0.12,3.61l-2.38,1.74l-0.52,2.44l-0.93,3.31l-1.45,1.63l-2.56,2.91l-0.52,1.57
		l1.57,1.34l-0.29,2.15l-4.83,5.99l-3.61,3.9l-0.23,2.68l-0.81,1.57l-1.98,0.12l-0.93-0.81l-1.22-0.12l-1.58,1.11l-2.04,1.98
		l-0.93,0.29v3.61l0.52,3.31v5.12l0.41,1.22l1.86-0.81l1.05-0.41l0.81,1.45l1.98-1.05l1.63-0.29l1.86,1.63l1.86,0.81l1.74,0.41
		l0.87,0.64l-0.52,0.87l-1.74,1.57l-1.05,1.45l-0.7,0.93l-0.93,0.12l-0.52,1.05l0.12,1.57l-2.04-0.64l-1.86-1.74l-2.27-0.12
		l-0.52,1.34l-0.29,1.74l1.74,1.1l0.52,1.1l0.93,1.98l2.04,0.29l2.27-1.22l1.1-1.74l2.27-1.98l0.81,0.29l1.45,1.45l2.56,2.27
		l2.38,1.1l2.68,0.7l0.23,2.15l0.93,4.01l0.7,2.97l-0.41,1.22l2.44-0.81l1.86-1.57l1.74-2.68l1.86-2.56l1.98-1.86l2.15-0.52
		l3.61-0.41l2.15-1.34l2.38-2.56l1.57-2.44l1.98-1.05l1.63-0.93l1.98-1.63l2.15,1.1l3.84-2.04l0.7,2.44l0.41,3.61l0.23,3.31
		l-1.34,1.98l-1.86,2.38l0.29,3.08v2.56l-1.45,1.45l-2.15,0.29l-0.7,0.93l0.12,2.04l1.22,1.74l0.12,1.98l-1.05,1.86v4.3l1.98,1.74
		l-0.12,1.63l0.81,3.72l-0.64,1.69l-2.44,1.74l-1.63,1.57l1.22,2.68l-1.05,1.86l-1.1,2.15l-2.27,3.31l-2.79,2.56l-3.49,3.37
		l-3.2,2.56l-4.19,2.5l-3.37,2.38l-0.41,0.41l-1.63-3.84l-0.17-1.45l-0.47-3.08l-1.92-2.73l-1.28-1.74l-0.99-0.64l-0.99-1.92
		l-0.64-1.74v-1.92v-1.45l-0.47-1.63l-0.99-2.09l-0.81-1.63l-0.99-1.1l-0.99-2.09l-1.63-1.92l-1.45-0.99l-0.47-1.1l-0.81-1.92
		l-0.35-1.28l-1.1-1.1l-1.1-1.28l-0.64-0.93l-1.89-4.69l-7.79-0.64l-19.54-4.3l-19.95,0.99l-21.63,7.73l-10.35,8.49l-4.13-1.8
		l-3.08-1.74l-2.79-0.81l-0.64,2.38l1.45,0.64l2.27,1.05l-0.23,1.86L54.14,301.07"/>
	<path id="FR" fill="#DDDDDD" stroke="#FFFFFF" stroke-width="0.75" d="M150.56,186.8l3.49,2.91l0.12,0.12l1.86,0.93l0.7,2.79
		l0.93,2.44l2.38,1.98l1.34,1.45l1.45,1.05l0.12,2.85l-0.93,2.38l1.1,0.7l1.05-1.22l1.74-1.63l0.93-1.98l0.29-3.08l2.15-1.63
		l1.74-1.57l-1.63-3.37l-2.56-4.54l-0.7-0.93v-3.2l0.52-2.21l4.01-1.16l2.56-0.12l5.64-0.93l5.23-2.44l1.34-0.81l2.04,2.27
		l0.41,2.04l-2.38,1.57l-1.05,1.34l0.93,3.37l0.23,3.37l-0.64,4.71l2.44,0.17l0.81,1.1l0.81,0.47l0.99-0.17l2.27,1.63l1.74,0.35
		l0.47-0.35l1.45-0.35l0.99,0.47l1.45,0.64l0.47-0.81l1.63-0.35l1.63,0.47l1.28,1.28v1.45l0.17,1.45l0.81,0.81l-0.35,0.64
		l-2.27,2.09l-0.52-0.81l-1.45-1.1l-0.41-0.93l-1.1,1.57l-0.52,1.34l1.45,1.63l1.34,0.81l0.41,0.29l-1.1,1.45l-0.99,1.92l-0.47,1.63
		l-0.99,1.63l-0.17,1.74l-0.17,1.45l-1.63,1.1l-0.17,1.45l0.99,2.38l1.1,1.45l-0.35,1.28l-1.1,1.63v1.63l1.45,0.81l2.91,1.05
		l1.63,1.05l2.44,2.15l1.57,1.57l0.12,4.65l-0.29,2.91l-1.74-0.11l-0.93,0.23l-2.15-0.93l-1.74,1.1l-0.29,1.57l-0.23,3.08
		l-0.23,4.01l1.98,3.08l-2.04,1.22l-3.08-0.29l-2.04,1.1l-2.79,2.15l-1.63,2.09l-3.84,2.04l-2.15-1.1l-1.98,1.63l-1.63,0.93
		l-1.98,1.05l-1.57,2.44l-2.38,2.56l-2.15,1.34l-3.61,0.41l-2.15,0.52l-1.98,1.86l-1.86,2.56l-1.74,2.68l-1.86,1.57l-2.44,0.81
		l0.41-1.22l-0.7-2.97l-0.93-4.01l-0.23-2.15l-2.68-0.7l-2.38-1.1l-2.56-2.27l-1.45-1.45l-0.81-0.29l-2.27,1.98l-1.1,1.74
		l-2.27,1.22l-2.04-0.29l-0.93-1.98l-0.52-1.1l-1.74-1.1l0.29-1.74l0.52-1.34l2.27,0.12l1.86,1.74l2.04,0.64l-0.12-1.57l0.52-1.05
		l0.93-0.12l0.7-0.93l1.05-1.45l1.74-1.57l0.52-0.87l-0.87-0.64l-1.76-0.41l-1.86-0.81l-1.86-1.63l-1.63,0.29l-1.98,1.05l-0.81-1.45
		l-1.05,0.41l-1.86,0.81l-0.41-1.22v-5.12l-0.52-3.31v-3.62l0.93-0.29l2.04-1.98l1.57-1.1l1.22,0.12l0.93,0.81l1.98-0.12l0.81-1.57
		l0.23-2.68l3.61-3.9l4.83-5.99l0.29-2.15l-1.57-1.34l0.52-1.57l2.56-2.91l1.45-1.63l0.93-3.31l0.52-2.44l2.38-1.74l0.12-3.61
		l-0.93-2.04v-3.08l-1.22-0.52l-2.38-1.98l-2.79-3.07l-3.14-4.36L150.56,186.8L150.56,186.8z M141.66,194.24l3.02,2.73l1.22-0.12
		l1.45,1.57l-2.97,1.63l0.12,0.64l1.98-0.81l1.98,2.97l-1.57,1.34l-1.34,3.2l-0.12,1.1l-1.05,2.79l1.45,0.12l0.29-1.05l1.05-0.12
		l0.7,0.41l-0.52,1.34v2.27l-0.64,2.27l-1.22,1.22h-1.74l-2.27-0.87l-1.63-1.05l-1.34,1.45l-1.34,0.7l-1.22-0.23l-2.85-1.22
		l-2.68-1.98l0.93-0.64l-2.38-1.74l-1.1-0.93l-0.29-6.51L141.66,194.24L141.66,194.24z M127.82,223.73l-1.1,1.86l0.29,1.63
		l1.34,1.05l1.05-0.93l0.52-2.04l-0.12-1.74L127.82,223.73L127.82,223.73z M132.94,225.3l1.57,0.23l1.34,0.93l-1.1,1.63l-1.34,0.64
		l-0.64-0.93L132.94,225.3L132.94,225.3z M134.8,224.77l2.27-2.85l1.22-2.15l-0.41-0.93l0.93-0.52l1.34,1.74l1.86,1.86l0.64,0.93
		l-1.63,3.08l-1.1,1.74l-1.22-0.23l-1.34-1.34L134.8,224.77L134.8,224.77z"/>
	<path id="BS" fill="#DDDDDD" stroke="#FFFFFF" stroke-width="0.75" d="M231.86,70.96l1.69,0.76l0.29,2.56l1.34-0.17l1.1,1.34
		l1.92-0.35l0.99-0.99l-0.35-2.79l1.51-1.16l0.93-1.05l0.47-1.22l0.35-0.76l1.22,0.12l1.1-0.87v-0.64l-0.23-0.47l-0.99-0.35
		l-0.12-1.34l1.1-1.1l0.12-0.76l-0.87-0.12l-1.34,0.99l-1.22,0.64l-1.63,0.64l-1.8,0.17l-1.45,0.7l-1.98,2.15l-0.41,2.44
		L231.86,70.96L231.86,70.96z"/>
	<path id="GE" fill="#DDDDDD" stroke="#FFFFFF" stroke-width="0.75" d="M55.54,297.11l4.13,1.8l-2.15,4.07L54.09,301l-1.57-0.64
		l0.23-1.86l-2.27-1.05l-1.45-0.64l0.64-2.38l2.79,0.81L55.54,297.11L55.54,297.11z M45.53,304.96h-0.7l-1.45,1.34l-0.35,3.08
		l-0.76,0.87L41.41,312v1.98l0.99,1.22l0.12,2.09l-0.64,1.22l-1.34,0.64l-2.09,0.76l-2.21,0.35l-1.1,0.35l-1.1,0.99l-1.22,0.12
		l-1.86-0.12l-0.87-0.12l-1.1,0.35l-0.87,0.99l-0.76,1.1l-0.64,0.87l-1.57,0.35l-1.25,1.98l-0.35,1.1l1.1,0.64l1.1,0.35l0.35,0.87
		l-0.1,2.1l-0.76,1.86l-0.87,1.98l-0.23,1.34l2.44-0.12l2.44,0.47l2.44,0.64l1.1-1.86l0.99-0.87l0.87-0.12l1.58,0.46l2.73,0.12
		l2.21,0.47l1.98,0.23l1.34-0.64l1.1-0.99l1.74-0.99l1.57-0.76l1.57-1.1l1.74-1.98l1.45-1.74l1.74-1.98l1.22-1.22l1.98-0.47
		l1.74-0.87l2.09-0.87l1.74-0.87l0.99-1.45l0.87-0.99l-0.12-1.45l-0.12-1.1l-1.1-0.64H63.7l-0.23,0.76l-1.1,0.35h-1.74l-1.1-1.1
		l-1.86-1.34l-1.1-2.33l-2.68-2.97l-0.41-0.17l-2.62-1.57l-2.97-1.74L45.53,304.96L45.53,304.96z"/>
	<path id="NE" fill="#DDDDDD" stroke="#FFFFFF" stroke-width="0.75" d="M168.18,167.2l-1.34,0.23l-1.34,0.12l-1.34,0.47l-1.45,0.87
		l-1.45,0.99l-1.1,1.1l-0.76,1.63l-0.76,1.45l-0.76,1.57l3.02,2.79l-10.29,8.32l-4.48,3.84l-4.42,3.66l-14.19,10.64l-1.45-4.59
		l-1.57-1.1l-0.4-4.19l-1.86-1.1l0.81-2.38l-1.34-3.2l-1.86,0.7l-3.08,2.85l-3.78,2.44l-2.15,2.79l-4.54,1.22l-3.31,1.57l-5.35,3.49
		l-9.54,1.34l0.06-3.95l0.35-3.55l-1.45-1.34l-1.57-2.21l-1.45-1.86l2.21-3.31l3.31-3.66l1.86-1.98l0.99,0.23l1.63-0.64l2.73-0.99
		l3.31-1.22l3.55-1.34l1.57-0.87l3.31-0.12l1.1-0.76l1.74-2.73l1.74-3.43l1.98-1.1l1.45-0.12l1.45-0.64l0.12-1.1l-0.35-1.1
		l-1.45-0.47v-1.1l0.47-1.1h1.98l0.64-0.99l0.47-0.99l0.23-1.74l0.64-0.47l2.21,0.12l1.98-0.47l0.47-1.1l-1.1-2.33l0.52-0.17
		l1.1-0.81l0.81-1.1l0.81-0.47l2.09,0.17l1.74-1.28l2.44-1.63l2.09-1.74l3.37-3.2l2.68-0.06l1.51,1.63l0.99,2.15l0.29,3.43
		l-0.64,2.44l-1.28,1.63l0.35,2.15l2.09-0.93l1.98-0.93l2.56-1.28l2.97-1.45l4.88-0.64l3.43-0.12l0.99,0.64l4.07,2.15l3.78,2.56
		l0.52,1.92l-0.17,2.15l-0.52,2.79L168.18,167.2L168.18,167.2z"/>
	<path id="GR" fill="#DDDDDD" stroke="#FFFFFF" stroke-width="0.75" d="M400.44,212.15l1.98,0.23l2.21,0.47l0.7,1.63h2.21l2.38-1.05
		l1.8-0.52l4.13-0.81l2.27-0.81l1.51-1.63l0.41-1.8l0.76-2.85l1.16-2.33l0.47-1.8l1.63-0.99l1.69-0.17l1.69,0.81l1.22,1.92
		l0.76,1.34l1.05,0.58l0.99-0.76l1.57-1.34l1.51-1.69l1.1-1.05l1.51-0.47l2.91-0.12l1.4,0.41l0.7-1.98l0.93-1.22l1.57-1.8l1.57-1.63
		l1.8-0.41l2.21,2.38l0.64-0.35l1.05-0.76l1.16-0.17l1.45,0.06l1.63,0.58l2.21,0.52l3.31,0.41l3.78,0.23l2.5,0.58l1.8,0.7l2.85,1.51
		l1.98,0.99l0.41-0.35l0.52-0.87l0.12-1.1l-0.41-1.4l2.04-0.06l-0.06-1.28l-0.58-1.16l0.17-1.74l0.99-2.5l2.21-2.44l2.33-4.01
		l0.7-1.57l1.22-0.58l1.98-1.05l-1.4-1.63l-0.93-1.63l-1.4-3.72l-2.09-3.49l-0.41-1.63l1.57,0.76l2.09-0.06l0.7-0.76l0.7-1.1
		l2.15,0.06l1.57,1.1l0.52,1.05l1.63,0.17l2.15-0.7l0.76-0.7l0.93-0.41l2.15,0.52l2.15,0.23l1.98-0.76l4.71,1.05l3.31,1.92l4.19,0.7
		l3.14,0.35l3.14,1.57l2.09,2.09l2.27,1.05l2.09,0.52l3.66-1.74l0.35,1.92l0.87,1.57l0.52,1.92l-1.05,1.4l-1.05,3.66l0.52,1.4
		l0.17,2.62l-0.17,1.22l0.87,0.87l2.44,1.22l3.49,2.27l2.09,1.22l4.36-0.52l2.44,2.62l2.27,0.35l3.49,2.09l1.74,3.49l1.4,1.57
		l2.62-0.17l1.4,2.44l6.63,0.35l2.97-1.22l2.44-2.27l2.27-1.22l4.19,0.17l0.17-6.11l0.87-1.74l0.35-2.27l1.22-1.22l1.4,0.87
		l1.92,0.35h2.97l1.74-1.22l0.17-2.09l-0.35-1.57l1.22-0.17l1.4-2.09l1.05-2.79l0.52-2.79l2.44-1.05l2.62-0.7l1.22,0.35l3.31,3.66
		l0.06,2.44l1.22,0.17l1.98,1.8l2.44,0.17l1.34,0.81l1.16,1.45l0.35,1.45l0.35,1.63l0.12,0.12l-0.41,0.87l-0.99,0.81l-0.81,1.63
		l-0.64,1.63l-0.47,1.98l-0.17,1.34l0.64,1.45l-0.23,1.92l0.35,1.1l-0.17,1.4l-0.52,2.27l-1.05,1.8l-0.58,1.74l0.06,1.45l-0.93,1.28
		l-1.28,0.87l-1.05,0.93l-0.23,1.28l0.35,1.98l0.93,1.4l1.1,1.8l-0.06,0.87l-1.74,0.93l-2.27,1.4l-1.45,1.28l-0.35,0.93l0.52,1.28
		l1.05,0.76l0.41,1.28l-3.84,3.66l-0.76,0.96l0.23,3.66l0.7,0.93l0.87,3.31l0.52,1.8l1.05,0.7l1.63-0.23l2.79-0.7l2.68,1.05l1.1,1.4
		l1.92,2.09l0.06,4.01l-0.52,3.02l-0.93,1.98l-0.58,2.15l-1.57,2.15l-1.57-0.17l-1.1-0.7l-2.09-0.52l-3.02,0.23l-1.63-0.52
		l-3.55-0.17l-1.63,0.58l-4.36,0.06l-0.35-1.1l-0.7-1.28l-0.76-1.74l-1.63-0.93l-2.44-0.17l-0.93-0.35l-1.05-0.94l0.17-1.57l1.4-1.1
		l-0.06-1.98l-0.23-0.93l-1.22-1.57l-0.58-1.63l-0.23-0.76l-1.57-0.06l-0.52,1.1v0.58l-0.52,0.93h-0.87l-1.45-0.58l-1.28-0.06
		l-1.92,0.52l-0.52,1.22l-1.45,0.41l-0.93,0.93l-2.27,0.7l-0.58,0.35l-1.57-0.35l-1.92,0.35l-0.87,1.92l0.41,2.79l-1.74,0.76
		l-1.28,1.1l-0.52,1.8l-2.67,2.79l-0.35,1.57v2.68l-0.17,2.15l-0.57,0.94l-1.05,1.98l0.41,3.37l0.41,1.4l-0.41,1.4l-0.17,2.5
		l1.28,1.92l1.05,1.98l1.1,0.23l1.63,0.76l1.28-0.17l2.33-0.23l1.63-0.41l1.98-0.76l0.41,1.1l0.58,1.28l1.57,1.74l0.41,1.28
		l-0.35,0.76l-2.27,1.74l-1.63,0.7L562,294.5l-0.06,0.35l-0.47,2.09l-0.64,2.33l-0.76,2.33l0.35,1.98l1.22,2.56l1.74,2.33l1.45,1.22
		l1.74,2.21l1.1,1.98l1.22,2.21l-2.09,2.21l-2.56,3.31l-1.1,0.23l-1.98-0.12l-2.21-0.64l-1.98,0.12l-0.97,1.33l-0.64,0.76
		l-0.76-0.87l-1.22-0.87l0.12-2.21l0.35-3.08l-0.64-2.21l-2.91-1.22l-3.2-1.34l-0.99-0.64l0.23-2.44v-1.86l-0.87-1.1l-0.12-2.44
		l0.87-0.35l-0.22-2.75l-2.21-2.09l-1.1-1.57l-1.1-1.63l-1.22-1.1l-1.45,0.76l-1.57,0.87l-2.09-0.47l-1.98,0.47l-1.74,0.87
		l-1.1,0.64l-1.45,0.64h-3.66l-2.33,0.76l-0.99,1.86l-1.45,0.99l-1.34,0.87l-1.37,0.22l-2.73-1.34l-1.98-1.22l-1.98,1.22l-0.87,1.34
		l-0.23,3.43l0.12,1.86l-0.64,1.74l-1.1,0.87l-0.87-0.35l-2.33-0.47l-2.56,0.99l-2.73,0.76l-1.86,0.23l-1.45-0.47l-2.85-0.12
		l-1.98-1.1l-3.55-1.74l-1.86-1.86l-1.57-2.21l-0.47-1.63l-0.99-2.85l-1.63-1.1l-2.09-1.34l-2.04-1.28l0.47-1.74l0.23-2.85
		l-1.57-3.31l-0.64-2.09v-2.73l0.23-1.98l0.99-2.56l0.64-3.31l-0.12-2.09l-1.1-1.45l-2.85-0.25l-0.99,0.87l-1.57,1.86l-0.23,1.86
		l-0.99,1.45l-0.23,0.64l-1.57-0.35l-0.99-1.1l-2.21-1.86v-1.57l-0.12-1.74l-2.09-0.76l-3.55,0.47l-2.97,0.47l-2.73,1.1l-1.86,1.98
		l0.12,2.09l0.35,3.08l-0.64,1.34l-1.98,1.22l-1.34,1.22l0.12,2.85l4.3,3.84v5.29l0.35,3.43l1.1,1.98l0.23,3.84l-1.45,2.97
		l-2.33,4.77l-2.33,2.85l-0.23,4.19l-0.12,1.34l-1.22,0.64l-1.86,1.45l-0.23,1.34l-1.1,1.74l-0.87,0.76l-1.34,2.33l-0.35,1.98
		l-0.12,1.63l-2.91,0.52l-2.27-2.15l-2.38-3.37l-2.09-1.98l-2.85-2.09l-0.47-2.21l0.47-2.97l-1.1-2.97l-1.74-2.97l-0.76-2.09
		l0.99-1.74l0.99-2.85l-0.12-3.08l0.64-1.74l1.34-1.1l1.22-1.98l-0.64-3.37l0.12-2.5l0.87-2.33l0.35-1.74l-1.63-1.98l-0.47-1.98
		l1.1-2.21l0.29-3.08l-1.92-2.15l-2.04-0.64l-1.28-0.12l-1.92-1.92l-1.4-2.15l-1.57-3.61l-0.23-2.91l0.47-4.19l1.28-0.93l1.74-1.86
		l-0.35-1.22l-0.58-0.35l-2.27-0.52l-1.8-2.33l-1.1-1.1l-2.62,0.76l-2.21-0.23l-0.35-1.4l-0.23-1.86l-0.29-2.73l-0.35-1.86
		l-0.41,0.47l-0.99,0.7l-3.43,0.29l-1.92,1.51l-0.64,1.4l1.16,2.33l0.47,0.99l-0.06,1.51l-1.45,1.4l-1.57,1.1l-1.57,0.7l-2.27,0.41
		l-2.27,0.58h-1.16l-0.87-0.47l-2.21,1.63l-1.98-0.35l-1.92-1.1l-1.34-0.7l-2.68-0.47l-2.09,0.47l-2.09-0.12l-2.38-1.1l-2.27-0.52
		l0.76-3.61l-1.98-2.97l-1.62-2.25v-3.6l1.4-1.98l1.1-0.64l-1.22-2.62l-0.23-1.34l0.99-2.09l1.63-0.99l2.97-0.12l1.98-2.09
		l2.38-1.34l0.87-2.97l0.35-1.51l1.98-0.23l1.1,1.86l2.09,0.12l1.63-1.51l0.52-2.5l1.86-1.86l0.87-2.5l-0.76-2.85l1.22-0.99
		l1.63-0.76l1.64-0.23L400.44,212.15"/>
	<path id="SG" fill="#DDDDDD" stroke="#FFFFFF" stroke-width="0.75" d="M503.55,103.99l-0.35-0.64l-1.16-1.45l-0.47-0.35v-1.16
		l0.35-1.45l-0.17-2.62l-0.99-2.97l0.81-1.8l-0.47-0.81l-0.64-0.81l-1.63-0.35l-1.34-0.99l-0.81-0.64l-0.47,0.17l-0.81,0.35h-0.17
		h-0.81l-0.81-1.16l-0.35-0.47l-0.99-1.8l-1.16-1.16l-0.99-1.16l-0.29-1.1l-4.59-8.72l-6.63-4.01l-6.75,9.36l-0.93,0.76l-1.69,1.57
		l-1.8,0.76l-0.58,1.98l-0.41,1.86l-0.93-0.35l-1.74-0.52l-0.29-1.45l-1.51-2.09l-1.34-0.23l-1.63-1.45l0.17-0.17l0.52-1.1
		l-0.99-0.23l0.7-1.4l-1.57-0.87l-0.64,0.64l-1.51,0.17L454,76.42l-1.28,0.23l-0.7,1.22l-1.22,0.64l-0.64,0.29l-0.12,0.7l1.63,0.35
		l0.93-0.47l1.51-0.12l1.45,1.69l0.52,2.56l0.23,1.22l-1.63,0.7l-2.44,0.29l-2.44,0.93l-1.63,0.7l-1.92-0.17l-2.21-1.51l-1.16-0.7
		l-2.56,0.23l-0.81-0.87l-0.41-1.05l-0.87-0.06l-1.28-0.35l-2.21-1.8l-0.64,1.86l-2.09,1.98l-1.57,0.52l-3.14,0.29l-1.69-0.99
		l-1.1-1.16l-2.62-1.22l-1.69-0.29l-1.63,0.76l-2.27,0.52l-0.99,1.05l-0.06,1.4l1.1,1.92l1.05,0.76l2.27,1.74l0.87,0.58l-0.29,2.38
		l-0.76,1.28h-2.33l-3.02,0.35l-0.64,0.87l-0.52,2.91l-1.16,0.99l-0.64,1.86l-0.35,1.22l-0.7,0.29l-0.81,1.05l-1.1,0.64l0.58,1.4
		l1.51,3.2l1.8,2.85l0.47,3.37l-0.52,2.27l-2.44,0.41l-1.69,1.57l-1.16,1.34l0.35,1.16l0.81-0.23l0.23,0.64l-0.99,2.15l0.06,1.74
		l-3.31,0.87l-2.73,0.93l-1.28,0.93l-0.93,0.52h-1.34l-2.33-0.35l-1.34-0.76l-1.51-0.35l-1.4,0.47l-1.1,1.16l-0.76,1.22l0.29,0.99
		l0.06,2.62l4.83,1.98h7.21l4.54-0.81l3.2-1.16l1.05,1.05l0.93,0.58l0.12,4.65l0.41,1.34l1.45-0.23l1.69,0.41l2.62,2.97l6.4,4.59
		l1.34,0.99l1.98,0.99l2.21-0.64l1.86-0.52l7.39,2.27v1.74l0.12,1.98l0.23,4.48l0.12,1.57l-1.8,2.38l-1.45,0.52l-2.04,0.64
		l-0.58,0.35l-0.17,1.1l0.41,1.16l0.76,0.99l1.51,0.47l3.08,0.17l1.28-0.58l1.22-0.64l1.34-0.41l1.16,0.41l1.57,1.1l0.58,2.91
		l0.76,4.19l0.23,5.99l-1.28,1.51l-0.47,0.52l1.22,1.05l1.05,1.22l0.93,2.09l-0.41,1.92l2.27,2.38l0.64-0.35l1.05-0.76l1.16-0.17
		l1.45,0.06l1.63,0.58l2.21,0.52l3.31,0.41l3.78,0.23l2.5,0.58l1.8,0.7l2.85,1.51l1.98,0.99l0.41-0.35l0.52-0.87l0.12-1.1l-0.41-1.4
		l2.04-0.06l-0.06-1.28l-0.58-1.16l0.17-1.74l0.99-2.5l2.21-2.44l2.33-4.01l0.7-1.57l1.22-0.58l1.98-1.05l-1.4-1.63l-0.93-1.63
		l-1.4-3.72l-2.09-3.49l-0.47-1.63l-1.16-0.93l0.23-1.28l1.34-0.81l1.16-1.8l1.45-1.8l0.47-1.63l0.35-1.45v-1.8l-0.81-2.27
		l-0.64-1.63l-0.81-2.27l-0.99-2.15l-0.17-1.16l-0.47-1.98l-0.35-1.63l-0.35-1.98l-0.17-2.15l0.35-1.16l1.34-1.63l1.16-1.63
		l1.63-2.27l1.16-2.15l0.17-1.45l0.17-1.8l1.16-1.45l1.16-0.47l1.16-1.16l0.64-2.15l0.35-1.16l0.81-0.99l0.99-0.35l1.8-1.98
		l0.81-2.15l1.16-1.98l0.99-2.27l1.16-1.63l0.64-1.16l0.64-1.34l0.81,0.17h1.98l1.16-0.17l1.34-0.81L503.55,103.99L503.55,103.99z
		 M472.2,80.67l0.99-1.8l1.28-0.93l1.4,0.52l1.63,1.28l-0.23,0.93l-0.87,1.8l-1.57,1.22l-1.45-0.29l-1.22-1.05L472.2,80.67
		L472.2,80.67z M492.73,96.08l-1.05,0.87l-2.09,0.76l-1.51,1.16l-2.33,0.52l-1.05,1.1l-0.93,0.58l-1.57-0.23l-1.51-0.17l-1.57-0.06
		l-0.64,0.41l-0.7,1.86l-0.93,2.38v1.34l0.76,1.45l0.23,1.34l0.52,2.5l-0.06,2.85l-0.76,4.25l-1.22,3.31l-2.09,2.85l-3.66,3.55
		l-1.63,1.22l-2.56,1.51l-0.87,0.52l-1.98-0.06l-1.69-0.64l-3.61-2.21l-1.57,1.28l-2.38-1.22l-2.91-1.92l-1.45-1.16l-1.4,0.87
		l-1.74,0.29l-1.98-0.29l-1.74-0.87l-1.8-1.1l1.63-3.43l-1.1-0.52l-0.64-3.14l0.23-1.51l1.92-1.51l0.87-0.87l-1.74-1.45l-1.4,1.05
		l-0.47-0.35v-1.45l-1.34-1.4l-0.06-0.93l1.51-0.81l1.51-1.63l0.35-1.74l0.17-1.1l1.74-1.16l1.63-1.63l2.5-0.47l3.14-0.23l3.14-0.81
		l2.04-1.45l2.62-0.47l2.62,0.06h0.93l2.91-0.52l2.21-1.05h1.4l0.81-2.68l2.56-0.52l2.79-0.81l2.91-1.34l1.92-2.09l1.63-1.51
		l2.04,0.06l1.92,1.4l2.38,1.34l2.62,0.87l2.91,1.63l1.22,0.76L492.73,96.08L492.73,96.08z"/>
	<path id="SZ" fill="#DDDDDD" stroke="#FFFFFF" stroke-width="0.75" d="M407.07,192.26l-5.35,2.97l-3.37,1.05l-0.87,0.64l-0.64,1.1
		l-0.93,0.7l-0.41-4.83l-1.63,1.05l-0.58-1.28l0.52-1.92l0.23-1.8l-0.7-1.16l-1.86-0.58l-1.45,0.23l-0.64,0.52l-1.1,0.87l-0.81,0.12
		l-1.16-1.1l-0.64-0.23l-2.09,0.64l-1.51,0.81l-1.92,1.86l-1.16,0.47l-1.45,0.7l-0.87-1.57l0.23-1.4l-0.52-4.13l-3.37,0.87
		l-1.63,0.23l-0.93-0.12l-1.86-0.7l-2.85,0.23l-0.29-3.37l-0.23-3.14l-1.22-1.92l-1.4,0.47l-4.19,1.57l-4.48,0.7l-5.35-1.63
		l-0.29-1.51l1.05-0.52l1.92,0.23l0.76-0.23l0.64-0.64l-0.12-3.9l-0.93-0.47l-0.93-0.58l-0.93-1.05l-1.74-1.57l-0.93-1.16
		l-0.99-0.29l-0.81,0.17l-1.51,0.06l-1.8-0.35l-2.33-0.52l-1.34-0.93l-0.29-0.35l0.87-0.93l0.81-0.93l0.58-1.45l0.06-0.41l2.09-1.92
		l2.27-2.85l0.99-0.76l1.1-0.76l1.51-0.76l1.63-0.93l0.99-0.23l0.81,2.85l0.52,1.28l0.99,0.35l2.33,0.93l1.45-0.58l1.74-0.17
		l2.09-0.06l0.47,1.98l1.57,0.06l1.51-0.76l1.22-0.93l1.34-0.47l0.81-0.52l2.04,0.52l1.63,0.29l0.7-0.47l0.06-0.76l0.17-1.57
		l0.76-0.99l1.1-0.81l0.76-1.28l0.47-2.38l1.1-2.79l-0.17-0.76l-0.47-1.57l-0.29-0.93l-0.7-1.4l0.12-1.1l1.22-0.87l1.22-1.51
		l0.81-1.57l0.47-0.93l1.34-0.17l5.52-1.8l3.9-0.23l4.77,1.98h7.21l4.54-0.81l3.2-1.16l1.05,1.05l0.93,0.58l0.12,4.65l0.41,1.34
		l1.45-0.23l1.69,0.41l-0.52,1.05l-4.13,8.96l1.22,1.28l0.47,1.69l-0.35,0.93l-0.93,0.47l-1.22,1.1l-0.23,0.87l0.81,0.7l1.1,0.23
		l0.87,0.23l-1.28,3.49l-1.63,2.97l-2.5,2.27l-1.51-0.12l-1.1-0.23l-1.1,0.12l0.17,2.85l-0.81,0.64l0.76,0.99l0.81,0.81l0.81,1.51
		l0.35,0.7l0.52-0.17l0.23,0.76l1.28,1.51l0.76,0.76l-0.76,0.93l0.52,0.87l1.4,1.86l1.8,1.63l0.99,0.64l-1.1,0.93l-0.64,1.1
		l-0.12,0.93l0.17,0.76l0.35,0.93l0.41,0.41l-1.45,0.64l-0.47,0.76L407.07,192.26L407.07,192.26z"/>
	<path id="AI" fill="#DDDDDD" stroke="#FFFFFF" stroke-width="0.75" d="M458.19,129.05l-0.47-2.79l-1.1-2.68l-1.4-1.16l-1.22-2.5
		l0.64-3.72l0.47-3.43l1.8-2.04l2.38-2.09l1.05-1.63l-0.64-0.87l-0.87-2.09l1.45-0.47l2.04-0.47l2.27,0.93l3.66,1.45l2.97,1.34
		l1.16,2.33l1.63,0.76l1.98-0.06l1.98-0.47l0.52,2.5l-0.06,2.85l-0.76,4.25l-1.22,3.31l-2.09,2.85l-3.66,3.55l-1.63,1.22l-2.56,1.51
		l-0.87,0.52l-1.98-0.06l-1.69-0.64L458.19,129.05L458.19,129.05z M492.73,96.08l-1.74-1.45l-1.98-1.57l-1.63-0.64l-2.21,0.64
		l0.17,1.86l1.63,1.1l1.28,0.87l1.4,0.81l2.09-0.76L492.73,96.08L492.73,96.08z M483.83,101.08l-0.12-1.63L486.5,98l-1.22-1.05
		L484,95.03l-0.64-1.16l-0.93,0.41l-1.63,0.52l-0.76,0.58l-0.7,0.93l1.63,1.1l-0.64,0.81l-1.4,0.7l-0.93,1.16l0.47,1.1l0.64-0.41
		l1.57,0.06l1.51,0.17L483.83,101.08L483.83,101.08z"/>
	<path id="AR" fill="#DDDDDD" stroke="#FFFFFF" stroke-width="0.75" d="M492.73,96.08l-1.74-1.45l-1.98-1.57l-1.63-0.64l-2.21,0.64
		l0.17,1.86l1.63,1.1l1.28,0.87l1.4,0.81l-1.51,1.16l-2.33,0.52l-1.05,1.1l-0.93,0.58l-0.12-1.63l2.79-1.45l-1.22-1.05L484,95.01
		l-0.64-1.16l-0.93,0.41l-1.63,0.52l-0.76,0.58l-0.7,0.93l1.63,1.1l-0.64,0.81l-1.4,0.7l-0.93,1.16l0.47,1.1l-0.7,1.8l-0.93,2.38
		v1.34l0.76,1.45l0.23,1.34l-1.98,0.47l-1.98,0.06l-1.63-0.76l-1.16-2.33l-2.97-1.34l-3.66-1.45l-2.27-0.93l-2.04,0.47l-1.45,0.47
		l0.87,2.09l0.64,0.87l-1.05,1.63l-2.38,2.09l-1.8,2.04l-0.47,3.43l-0.64,3.72l1.22,2.5l1.4,1.16l1.1,2.68l0.52,2.79l-1.57,1.22
		l-2.38-1.22l-2.91-1.92l-1.45-1.16l-1.4,0.87l-1.74,0.29l-1.98-0.29l-1.74-0.87l-1.8-1.1l1.63-3.43l-1.1-0.52l-0.64-3.14l0.23-1.51
		l1.92-1.51l0.87-0.87l-1.74-1.45l-1.4,1.05l-0.47-0.35v-1.45l-1.34-1.4l-0.06-0.93l1.51-0.81l1.51-1.63l0.35-1.74l0.17-1.1
		l1.74-1.16l1.63-1.63l2.5-0.47l3.14-0.23l3.14-0.81l2.04-1.45l2.62-0.47L462,98h0.93l2.91-0.52l2.21-1.05h1.4l0.81-2.68l2.56-0.52
		l2.79-0.81l2.91-1.34l1.92-2.09l1.63-1.51l2.04,0.06l1.92,1.4l2.38,1.34l2.62,0.87l2.91,1.63l1.22,0.76L492.73,96.08L492.73,96.08z
		"/>
	<path id="TG" fill="#DDDDDD" stroke="#FFFFFF" stroke-width="0.75" d="M407.54,52.81l-1.34,0.58l-1.63,0.17l-1.16-0.35l-1.8-1.16
		l-1.63-0.47l-1.45-0.47l-0.99-0.81l-1.16-0.99l-0.81-0.64l-0.64-0.47l-1.34-0.35l-1.34,0.17h-1.63l-1.8-0.47l-1.45-0.64l-0.99-0.81
		l-1.16-0.17l-1.16-0.35l-1.16-0.47l-0.47-0.17l-2.15,0.17l-1.16,0.17l-0.81-0.47l-1.16-0.17l-1.16,0.99l-0.81,0.35l-0.81,0.47
		l-1.22,1.63l-0.23,1.1l0.87,1.98l1.1,1.69l1.05,0.58l1.16,0.64l2.56,0.52l2.44,0.06l1.69-1.1l0.93-0.93l0.58-0.47l0.58-0.87
		l0.35-0.64l0.35,0.12l2.27,0.23v0.52l1.45,0.76l1.8,0.64l1.63,0.47l0.41,0.52l-2.5,4.54l-2.27,3.14l-1.16-0.76l0.06-0.47
		l-2.73-0.47L384.03,60l-0.7,0.58l-0.12,1.05l0.23,0.81l0.52,1.45l1.45-0.47l0.99-0.17l2.62,0.64l0.17,2.5l1.69,1.1l2.21,0.7
		l1.63,1.45l0.76,0.93l-0.17,0.58l-2.09,0.06l0.29,1.51l0.58,1.34l0.93,0.58l1.51-0.06l1.16-0.35l1.4,0.76l2.56,1.16l0.35,2.04
		l-0.64,3.72l-1.05,2.33l-0.35,2.5l1.51,2.85l-0.12,1.69l0.64,1.69l1.05,0.93l0.81,0.64l-1.57,0.58l-0.7,1.92l-1.05,1.63l3.02,0.93
		l1.16,0.7l2.09,0.7l1.22,3.78l1.1-0.64l0.81-1.05l0.7-0.29l0.35-1.22l0.64-1.86l1.16-0.99l0.52-2.91l0.64-0.87l3.02-0.35h2.33
		l0.76-1.28l0.29-2.38l-0.87-0.58l-2.27-1.74l-1.05-0.76l-1.1-1.92l0.06-1.4l0.99-1.05l2.27-0.52l1.63-0.76l1.69,0.29l2.62,1.22
		l1.1,1.16l1.69,0.99l3.14-0.29l1.57-0.52l2.09-1.98l0.64-1.86l2.21,1.8l1.28,0.35l0.87,0.06l0.41,1.05l0.81,0.87l2.56-0.23
		l1.16,0.7l2.21,1.51l1.92,0.17l1.63-0.7l2.44-0.93l2.44-0.29l1.63-0.7l-0.23-1.22l-0.52-2.56l-1.45-1.69l-1.51,0.12L451.47,80
		l-1.63-0.35l0.12-0.7l0.64-0.29l1.22-0.64l0.7-1.22l1.28-0.23l1.69-0.29l1.51-0.17l0.64-0.64l1.57,0.87l-0.7,1.4l0.99,0.23
		l-0.52,1.1l-0.17,0.17l1.63,1.45l1.34,0.23l1.51,2.09l0.29,1.45l1.74,0.52l0.93,0.35l0.41-1.86l0.58-1.98l1.8-0.76l1.69-1.57
		l0.93-0.76l6.75-9.36l-28.67-16.57l-8.37-0.17l-2.62,0.06l-1.98-0.52l-1.63-0.52l-0.35-0.93l-1.22-0.41l-4.07-1.92l-9.42-1.34
		l-3.37,1.22L407.54,52.81L407.54,52.81z M477.55,79.74l-0.23,0.93l-0.87,1.8l-1.57,1.22l-1.45-0.29l-1.22-1.05l0.06-1.69l0.99-1.8
		l1.28-0.93l1.4,0.52L477.55,79.74L477.55,79.74z"/>
	<path id="ZH" fill="#DDDDDD" stroke="#FFFFFF" stroke-width="0.75" d="M375.84,145.45l-0.29-0.93l-0.7-1.4l0.12-1.1l1.22-0.87
		l1.22-1.51l0.81-1.57l0.47-0.93l1.34-0.17l5.52-1.8l3.9-0.23v-0.06l-0.06-2.5l-0.29-0.99l0.76-1.22l1.1-1.16l1.4-0.47l1.51,0.35
		l1.34,0.76l2.33,0.35h1.34l0.93-0.52l1.28-0.93l2.73-0.93l3.31-0.87l-0.06-1.74l0.99-2.15l-0.23-0.64l-0.81,0.23l-0.35-1.16
		l1.16-1.34l1.69-1.57l2.44-0.41l0.52-2.27l-0.47-3.37l-1.8-2.85l-1.51-3.2l-0.64-1.4l-1.22-3.78l-2.09-0.7l-1.16-0.7l-3.02-0.93
		l1.05-1.63l0.7-1.92l1.57-0.58L403.08,94l-1.05-0.93l-0.64-1.69l0.12-1.69L400,86.84l0.35-2.5l1.05-2.33l0.64-3.72l-0.35-2.04
		l-2.56-1.16l-1.4-0.76l-1.16,0.35l-1.51,0.06l-0.93-0.58l-0.58-1.34l-0.29-1.51l2.09-0.06l0.17-0.58l-0.76-0.93l-1.63-1.45
		l-2.21-0.7l-1.69-1.1l-0.17-2.5l-2.62-0.64l-0.99,0.17L384,63.99l-0.52-1.45l-0.23-0.81l0.12-1.05l0.7-0.58l1.51-0.12l2.73,0.47
		l-0.06,0.47l1.16,0.76l2.27-3.14l2.5-4.54l-0.41-0.52l-1.63-0.47l-1.8-0.64l-1.45-0.76v-0.52l-2.27-0.23l-0.35-0.12l-0.35,0.64
		l-0.58,0.87l-0.58,0.47l-0.93,0.93l-1.69,1.1l-2.44-0.06l-2.56-0.52l-1.16-0.64l-1.05-0.58l-1.1-1.69l-0.87-1.98l0.23-1.1
		l1.22-1.63l-0.35-0.35l-0.99-0.81l-0.81-0.64l-0.64-0.47l-0.81-0.17l-1.34,0.17l-0.99,0.17v0.47l-0.17,1.34l-0.17,0.99l-0.64,0.81
		l-0.17,1.34l0.29,1.51l0.99,0.76l0.35,1.34l-0.17,1.63l-1.16,0.81l-0.64-0.17l-0.47-0.17l-0.17-0.81L366,53.31l-0.47,1.34
		l-0.17,1.16l0.17,1.45l0.35,0.81l0.17,1.45l-0.17,1.63l-0.64,1.16l-1.22,1.16l-1.45,1.8l-0.64,2.15l-1.16,0.64l0.17,1.45
		l-0.35,1.16l-0.64,0.81l-0.64,0.17l-0.47-1.34l-0.47-1.34l-1.16-1.16l-1.16-0.47l-1.34-0.47l-1.45-0.47h-1.34l-1.1-0.17l-0.64,0.81
		l-2.62,0.64l-1.98,0.47l-2.44,0.17l-1.45-0.17l-0.99-0.52l-0.76,1.22l0.35,0.41l-0.17,2.27l-1.34,3.43l-2.38,2.38l-1.98,1.63v2.38
		l-1.05,1.98l-1.22,3.78l1.05,3.14l0.93,0.76l0.23,0.99l0.29,1.63l0.52,2.91l0.17,0.52l1.28,0.58l2.09,1.22l0.35,1.8l-0.47,1.05
		l-3.55,4.19l0.23,1.28l4.01,2.09l-0.35,1.51l0.29,4.54l0.99,1.22l0.81,0.64l1.57,0.29l1.16-1.63l0.58,0.23l-1.05,1.74l-1.05,1.86
		l-1.4,1.57l-1.4,0.64l-1.92,0.41l0.93,1.4l0.64,1.8l0.35,1.16l0.64,1.8l0.17,1.8l0.17,0.52l0.64,1.63l0.99,1.63l0.99,2.15l2.5-0.06
		l0.81,0.7l2.27,0.7l1.8-0.17l2.73-0.17l1.8-0.7l1.28-1.1l1.22-0.47l1.86,0.17l2.38-0.17l0.58,0.58l0.76,0.99l1.45-0.23l0.58,1.45
		l0.81-0.17l0.76,0.29l0.06,1.22l0.29,1.34l0.35,1.22l0.06,1.28l0.47,0.81l0.76,0.29l2.09,0.23l0.52,0.06l0.47,1.63l0.47,0.52
		l1.8,0.17L375.84,145.45"/>
	<path id="SH" fill="#DDDDDD" stroke="#FFFFFF" stroke-width="0.75" d="M363.98,63.22l-1.4,1.74l-0.64,2.15l-1.16,0.64l0.17,1.45
		l-0.35,1.16l-0.64,0.81l-0.64,0.17L358.85,70l-0.47-1.34l-1.16-1.16l-1.16-0.47l-1.34-0.47l-1.45-0.47h-1.34l-1.1-0.17l0.35-1.34
		l-1.57,0.23l-1.74-0.47l-0.64-0.76l0.35-1.34l0.23-1.1l0.64-1.34l1.34-0.87l1.1-0.64l1.57-0.87l1.98-0.99l1.57-0.12l0.87,0.76
		l1.22,0.87l1.1,0.35l1.22,0.64l0.64,0.99l0.35,0.99l-0.47,0.87l0.47,0.76l1.1,0.47l0.87,0.12L363.98,63.22L363.98,63.22z
		 M373.98,45.89l-0.87-0.7l-0.81-0.64l-0.64-0.47l-0.81-0.17l-1.34,0.17l-0.99,0.17v0.47l-0.17,1.34l-0.17,0.99l-0.64,0.81
		l-0.17,1.34l0.29,1.51l-0.81-0.87l-0.47-0.47l-0.93-0.58l-0.87-0.29l-0.64,0.17l-0.87,0.41l-1.57-0.06l-2.04-0.06l-0.93,0.23
		l-0.23,0.47l-0.81,0.41l-0.52,0.58L356.04,51l-0.35,1.22l0.35,0.52l-0.17,0.23l-3.72-0.06l-1.92,0.41l-0.41,0.58l-0.23,0.41
		l-0.58-0.17l-0.17-0.58l0.17-0.87l-0.17-1.22l-0.58-0.35h-1.45h-1.8l-0.93-0.87l-1.1-0.87l-1.05-0.23l0.17-1.4l0.76-1.57l0.17-1.05
		l-0.52-1.63l0.7-1.4l1.28-1.22l1.22-1.1l1.05-1.05l0.7-1.22l0.35-1.28l0.58-1.4l0.52-1.28l0.81-1.05l0.93-0.87l1.1-0.87l1.4-0.7
		l1.57-0.35h1.1l0.93-0.23l1.05-0.7l1.05-0.52l1.57,0.35l1.1-0.06l0.76-0.76l-0.17-1.1l-0.35-0.93l-0.58-0.52l0.17-1.1l0.93-0.23
		h1.63l1.98,0.52l0.93,0.41l1.92,0.76l-0.23,0.93l-0.06,0.87l0.06,1.22l0.41,0.99l0.52,1.4l0.87,0.76l1.22,0.23l0.52-0.58l0.76-1.45
		l-0.7-2.44l-0.17-1.22l0.17-0.87l1.22,1.05l1.1,1.05l0.93,0.87l0.7,0.7l0.23,0.7v1.05l-0.17,1.74l0.17,0.7l1.1-0.06l0.41-0.58
		l1.1-0.52l1.1-0.06l1.45,0.7l0.52,1.57l-0.52,0.41l-0.93,1.4L380,37.44l0.23,1.28l1.1,0.93l0.76,1.1l-0.17,1.22l-0.93,0.17
		l-0.87-0.17l-0.7-0.87l-0.58-0.41l-1.63-0.17l-1.22,0.12l-1.1,0.17l-0.52,0.52l-0.58,0.87l0.17,0.93l-0.23,1.1l-0.17,0.93
		L373.98,45.89L373.98,45.89z M401.6,52.06l-1.63-0.47l-1.45-0.47l-0.99-0.81l-1.16-0.99l-0.81-0.64l-0.64-0.47l-1.34-0.35
		l-1.34,0.17h-1.63l0.52-1.05l0.35-0.93l0.58-1.1l0.23-0.87l-0.58-0.7l-0.87-0.52l-1.05-0.17l-0.87-0.35l-0.52-0.7l0.23-0.7
		l-0.06-0.87l0.76-0.58l0.87-0.7l0.7-0.41l0.58-0.17l0.87,0.17l0.06,0.41l0.41,0.93l0.58,0.23l1.05,0.52l1.45,0.52l0.7,0.17
		l1.4,0.41l1.22,0.93l0.93,0.52l0.23,0.87l-0.41,0.35l-0.7,0.17l-0.76-0.17l-0.7,0.7v1.05l1.1,1.28l0.7,1.57l0.35,0.52l0.76,0.87
		l0.52,0.87L401.6,52.06L401.6,52.06z"/>
	<path id="GL" fill="#DDDDDD" stroke="#FFFFFF" stroke-width="0.75" d="M414.86,142.78l2.62,2.97l6.4,4.59l1.34,0.99l1.98,0.99
		l2.21-0.64l1.86-0.52l7.39,2.27v1.74l0.12,1.98l0.23,4.48l0.12,1.57l-1.8,2.38l-1.45,0.52l-2.04,0.64l-0.58,0.35l-0.17,1.1
		l0.41,1.16l0.76,0.99l1.51,0.47l3.08,0.17l1.28-0.58l1.22-0.64l1.34-0.41l1.16,0.41l1.57,1.1l0.58,2.91l0.76,4.19l0.23,5.99
		l-1.28,1.51l-0.47,0.52l1.22,1.05l1.05,1.22l0.93,2.09l-0.41,1.92l-1.8,0.41l-1.57,1.63l-1.57,1.8l-0.93,1.22l-0.7,1.98l-1.4-0.41
		l-2.91,0.12l-1.51,0.47l-1.1,1.05l-1.51,1.69l-1.57,1.34l-0.99,0.76l-1.05-0.58l-0.76-1.34l-1.22-1.92l-1.69-0.81l-1.69,0.17
		l-1.63,0.99l-0.47,1.8l-1.16,2.33l-0.76,2.85l-0.41,1.8l-1.51,1.63l-2.27,0.81l-4.13,0.81l-1.8,0.52l-2.38,1.05h-2.21l-0.7-1.63
		l-2.21-0.47l-1.98-0.23l-0.47-2.15l-0.87-2.38l-0.23-0.87v-0.76l2.15-0.64l2.5-0.81l2.97-1.22l2.27-1.57l1.34-1.63l0.06-1.69
		l-0.41-2.09l-1.57-2.56l-1.22-1.57l1.92-0.93l0.47-0.76l1.45-0.64l-0.41-0.41l-0.35-0.93l-0.17-0.76l0.12-0.93l0.64-1.1l1.1-0.93
		l-0.99-0.64l-1.8-1.63l-1.4-1.86l-0.52-0.87l0.76-0.93l-0.76-0.76l-1.28-1.51l-0.23-0.76l-0.52,0.17l-0.35-0.7l-0.81-1.51
		l-0.83-0.81l-0.76-0.99l0.81-0.64l-0.17-2.85l1.1-0.12l1.1,0.23l1.51,0.12l2.5-2.27l1.63-2.97l1.28-3.49l-0.87-0.23l-1.1-0.23
		l-0.81-0.7l0.23-0.87l1.22-1.1l0.93-0.47l0.35-0.93l-0.47-1.69l-1.22-1.28l4.13-8.96L414.86,142.78L414.86,142.78z"/>
	<path id="UR" fill="#DDDDDD" stroke="#FFFFFF" stroke-width="0.75" d="M400.5,212.15l-2.38,2.44l-1.63,0.23l-1.63,0.76l-1.22,0.99
		l0.76,2.85l-0.87,2.5l-1.86,1.86l-0.52,2.5l-1.63,1.51l-2.09-0.12l-1.1-1.86l-1.98,0.23l-0.35,1.51l-0.87,2.97l-2.38,1.34
		l-1.98,2.09l-2.97,0.12l-1.63,0.99l-0.99,2.09l0.23,1.34l1.22,2.62l-1.1,0.64l-1.4,1.98v3.61l1.63,2.21l1.98,2.97l-0.76,3.61
		l-0.87,1.51l-1.74,1.45l-2.5,0.17l-0.64-0.99l-1.51-0.64l-4.3-0.47l-1.22-0.87l-2.5-0.58l-3.08,0.58l-1.92,1.86l-0.81,1.98
		l0.41,2.44l-0.17,1.45l-0.7,0.87l-2.91,0.93l-2.15,0.12l-1.63-0.29l-1.34-0.7l-1.34-0.76l-0.76-1.1l-0.7-1.57l-0.52-1.28
		l-1.45-2.38l-0.52-1.16l0.99-2.91l1.28-3.31l0.29-6.22l-0.17-1.34l-1.34-0.87l-1.05-0.29l-1.1-1.86l-0.52-1.4l-0.35-2.04l-0.12-1.1
		l1.22,0.12l1.8,0.29l1.51,0.52l1.51,0.17l1.1-0.7l0.52-0.93v-1.74l-0.12-1.74l-0.7-2.21l-1.05-1.98l-0.29-3.08l0.12-1.1l1.22-2.33
		l1.63-0.17l0.87,0.12l1.05,0.29l0.64,0.41l1.74-1.63l-0.12-0.52l-0.87-1.4l-0.87-0.76l0.23-1.1l-2.44-0.58l0.06-0.64l1.05,0.06
		l0.7-0.29l0.29-0.93l-0.52-0.87l-0.7-0.64l0.93-2.62l1.51-1.57l2.21-1.16l-0.25-1.53l-1.22-0.35l-0.76-0.29h-2.5v-3.9l0.93-2.38
		l-0.41-0.7l-0.41,0.12l-0.12-0.87l-1.05,0.06l1.4-1.98l1.4-0.7l2.21-0.81l1.92-1.16l1.28-1.05l0.76-0.35l1.8-1.22l1.4-1.8
		l2.09-1.51l0.7-0.87l-0.17-1.63l0.12-1.4l0.93-1.1l0.81-0.81l-0.17-0.64l-0.35-1.16l1.4-0.47l1.22,1.92l0.23,3.14l0.29,3.37
		l2.85-0.23l1.86,0.7l0.93,0.12l1.63-0.23l3.37-0.87l0.52,4.13l-0.23,1.4l0.87,1.57l1.45-0.7l1.16-0.47l1.92-1.86l1.51-0.81
		l2.09-0.64l0.64,0.23l1.16,1.1l0.81-0.12l1.1-0.87l0.64-0.52l1.45-0.23l1.86,0.58l0.7,1.16l-0.23,1.8l-0.52,1.92l0.58,1.28
		l1.63-1.05l0.41,4.83l0.93-0.7l0.64-1.1l0.87-0.64l3.37-1.05l5.35-2.97l1.22,1.57l1.57,2.56l0.41,2.09l-0.06,1.69l-1.34,1.63
		l-2.27,1.57l-2.97,1.22l-2.5,0.81l-2.15,0.64v0.76l0.23,0.87l0.87,2.38L400.5,212.15"/>
	<path id="TI" fill="#DDDDDD" stroke="#FFFFFF" stroke-width="0.75" d="M374.91,256.06l-0.87,1.51l-1.74,1.45l-2.5,0.17l-0.64-0.99
		l-1.51-0.64l-4.3-0.47l-1.22-0.87l-2.5-0.58l-3.08,0.58l-1.92,1.86l-0.81,1.98l0.41,2.44l-0.17,1.45l-0.7,0.87l-2.91,0.93
		l-2.15,0.12l-0.93,1.98l-2.15,1.98l-0.52,1.51l-0.7,1.34l-0.93,0.29l-1.74-0.17h-2.27l-1.16-0.29l0.12,2.5l-0.06,1.69l-0.96,3.67
		l3.55-1.74l2.97-0.47l2.44,0.87l1.98,3.66l0.23,1.57l-0.23,3.2v3.43v3.84l0.35,4.19l-0.47,3.2l-1.57,3.08l-1.74,2.09l-0.47,2.85
		l2.09,2.85l0.76,2.21l-0.23,1.22l0.47,1.74l2.73,2.33l3.43,1.98l3.43,1.86l1.98,2.97l3.31,4.94l1.98,1.86l0.23,2.21l2.44,2.62
		l1.1,2.33l1.4,0.17l1.74,0.35l1.22,1.05l1.63,0.93l2.27,0.23l1.28,0.93l0.99,0.47l1.69,0.76l3.31-2.85l2.04,1.4l1.8,0.93l1.74,1.45
		l0.93-0.52l1.28-1.1l0.58-0.7l0.87,0.23l2.97,3.02l2.09,2.5l1.22,1.74l0.17,1.8l-1.1,1.22l-0.93,0.7l-0.47,0.12l-0.12,0.93
		l-0.29,2.09l-0.93,0.81l-2.33,1.45l-1.45,1.28l-0.58,1.51l0.76,1.57h0.81l1.57,0.23l2.15,0.81l1.4,1.51l1.8,1.51l1.4,1.51
		l1.28,0.29l1.34,0.76l0.23,1.69l0.23,3.14l1.63,2.27l0.99,1.28l0.76,0.93v1.22l0.99,2.56l1.74,2.85l-0.23,1.63l-1.57,1.45
		l-1.45,2.33v1.22l0.87,0.12l1.45-1.45l1.98,0.12l1.45,1.45l1.74,0.35l1.86-0.12l1.1,0.47l0.23,1.86l1.57,0.47l2.21-1.1l0.47-2.97
		l0.35-1.74l0.99-2.09l0.64-2.44l1.86-1.22l1.22-1.34l0.47-1.74l-0.47-0.35l-1.86-2.33l-1.98-1.45h-2.73l-1.22-0.99l-0.35-1.34
		l0.23-1.86l-0.87-1.45l-0.99-1.22l-0.76-2.09l-0.23-0.99l0.87-1.1l1.1-1.1l1.34-0.35l0.06-1.28l-0.17-3.02l-0.64-0.76l-0.76-1.45
		l0.12-2.44l0.99-2.56l1.34-0.87l2.33-0.87l2.44-0.87l1.1-0.76l0.87-1.34l0.47-1.86l-0.12-1.98l-0.99-2.09l-0.35-1.45l0.87-2.09
		l3.55-1.45l2.44-2.33l1.45-1.45l1.1-0.47l1.22-2.09l1.28-0.58l-2.27-2.15l-2.38-3.37l-2.09-1.98l-2.85-2.09l-0.47-2.21l0.47-2.97
		l-1.1-2.97l-1.74-2.97l-0.76-2.09l0.99-1.74l0.99-2.85l-0.12-3.08l0.64-1.74l1.34-1.1l1.22-1.98l-0.64-3.37l0.12-2.5l0.87-2.33
		l0.35-1.74l-1.63-1.98l-0.47-1.98l1.1-2.21l0.29-3.08l-1.92-2.15l-2.04-0.64l-1.28-0.12l-1.92-1.92l-1.4-2.15l-1.57-3.61
		l-0.23-2.91l0.47-4.19l1.28-0.93l1.74-1.86l-0.35-1.22l-0.58-0.35l-2.27-0.52l-1.8-2.33l-1.1-1.1l-2.62,0.76l-2.21-0.23l-0.35-1.4
		l-0.23-1.86l-0.29-2.73l-0.35-1.86l-0.41,0.47l-0.99,0.7l-3.43,0.29l-1.92,1.51l-0.64,1.4l1.16,2.33l0.47,0.99l-0.06,1.51
		l-1.45,1.4l-1.57,1.1l-1.57,0.7l-2.27,0.41l-2.27,0.58h-1.16l-0.87-0.47l-2.21,1.63l-1.98-0.35l-1.92-1.1l-1.34-0.7l-2.68-0.47
		l-2.09,0.47l-2.09-0.12l-2.38-1.1L374.91,256.06L374.91,256.06z M413.41,368.76l0.64,0.64l0.64-0.12l0.47-0.64l0.47-0.76
		l-0.12-0.93l-0.47-0.17l-0.99,0.99L413.41,368.76L413.41,368.76z"/>
</g>
</svg>
