<svg version="1.1" id="landmarks-provinces" xmlns:svg="http://www.w3.org/2000/svg"
	 xmlns="http://www.w3.org/2000/svg" xmlns:xlink="http://www.w3.org/1999/xlink" x="0px" y="0px" width="640px" height="600px"
	 viewBox="0 0 640 600" enable-background="new 0 0 640 600" xml:space="preserve">
<path id="ca-ab" fill="#DDDDDD" d="M162.74,479.06c-23.66-6.24-21.11-5.3-22.52-8.42l-1.19-2.64l0.97-4.88
	c1.01-5.14,0.96-6.45-0.39-9.15c-0.46-0.91-1.75-3.49-2.87-5.72c-1.13-2.23-2.46-5.32-2.97-6.85c-0.52-1.53-1.51-3.67-2.22-4.73
	c-0.71-1.07-1.41-2.66-1.57-3.54c-0.16-0.88-0.86-2.25-1.55-3.04c-0.7-0.8-1.26-1.66-1.26-1.91c0-0.27-0.41-1.05-0.93-1.76
	c-0.54-0.75-1.1-2.54-1.35-4.26c-0.27-1.86-0.82-3.56-1.48-4.52c-0.59-0.85-1.27-2.09-1.51-2.75c-0.25-0.66-1.16-1.65-2.01-2.21
	c-1.53-1-2.1-2.62-1.13-3.22c0.25-0.14,0.45-1.37,0.45-2.73c0-2.4,2.9-10.72,22.62-64.95l1.78-4.9l9.79,3.25
	c5.38,1.79,13.57,4.36,18.19,5.72c4.62,1.36,12.76,3.74,18.08,5.3c5.33,1.55,9.74,2.89,9.8,2.95c0.3,0.3-1.32,6.79-1.75,7.07
	c-0.28,0.19-0.98,0.46-1.57,0.62c-1.11,0.3-5.75,4.88-5.78,5.71c-0.01,0.27,0.7,0.81,1.56,1.22c1.51,0.73,1.62,0.72,2.85-0.14
	c0.7-0.5,1.4-1.32,1.55-1.81c0.16-0.5,0.38-0.81,0.49-0.71c0.11,0.11-0.58,3.46-1.54,7.43c-2.26,9.4-4.7,19.56-8.03,33.55
	c-1.47,6.21-3.17,13.26-3.76,15.69c-2.95,12.25-5.58,23.21-6.99,29.18c-7.5,31.49-6.87,28.97-7.29,28.89
	C169.07,480.72,166.15,479.95,162.74,479.06z"/>
<g id="ca-bc">
	<path fill="#DDDDDD" d="M68.8,455.94c-2.82-1.79-7.07-7.35-7.07-9.26c0-1.06-0.27-1.42-1.3-1.81c-1.32-0.5-2.31-2.22-2.9-4.96
		c-0.15-0.74-0.73-2.02-1.28-2.88c-0.55-0.85-1.35-2.44-1.77-3.54c-0.43-1.1-1.58-3.34-2.56-4.98c-1.09-1.81-2.02-4.08-2.35-5.75
		c-0.31-1.51-0.82-3.4-1.16-4.2c-0.57-1.39-0.54-1.49,0.73-2.52c0.73-0.59,1.7-1.09,2.17-1.09c0.88-0.02,3.51,2.51,7.76,7.47
		c1.35,1.55,2.63,3.04,2.88,3.31s1.14,1.37,1.97,2.47c0.83,1.1,1.64,2.08,1.78,2.21c0.62,0.54,1.74,4.44,2.02,7.02
		c0.27,2.48,0.58,3.18,2.5,5.72c2.54,3.38,2.77,3.87,3.19,7.32c0.17,1.42,0.59,3.35,0.91,4.27c0.33,0.93,0.48,1.79,0.33,1.93
		C74,457.34,70.27,456.88,68.8,455.94z"/>
	<path fill="#DDDDDD" d="M138.88,472.61c-0.4-0.11-9.51-2.95-16.57-5.14c-2.44-0.77-28.27-10.44-38.9-14.59
		c-1.83-0.72-3.92-1.51-4.64-1.78c-1.68-0.62-1.97-1.07-1.98-3.11c-0.01-1.15-0.3-1.9-0.95-2.43c-2.57-2.12-3.5-3.19-3.5-4.04
		c0-0.51-0.17-0.94-0.38-0.94c-1.08,0-2.62-2.35-2.89-4.39c-0.44-3.31-1.91-6.19-4.51-8.84c-2.33-2.36-2.35-2.42-2.1-4.53
		c0.22-1.73,0.12-2.14-0.41-2.14c-0.37,0-0.75-0.15-0.82-0.35c-0.09-0.19-1.09-0.9-2.25-1.56c-1.16-0.67-2.11-1.45-2.13-1.75
		s-0.11-0.94-0.22-1.42c-0.25-1.2-0.28-1.97-0.2-6.72c0.06-3.97,0.1-4.09,1.4-5.2c1.24-1.04,1.31-1.24,0.86-2.51
		c-0.27-0.76-0.49-2.17-0.49-3.14c0-1.33-0.43-2.35-1.78-4.28c-1.49-2.13-1.75-2.79-1.53-4.05c0.13-0.82,0.66-1.84,1.16-2.26
		c1.01-0.85,0.91-1.54-0.62-4.54c-0.77-1.5-0.9-2.59-0.88-7.49c0.01-5.54,0.06-5.77,1.14-6.85c0.62-0.62,2.18-1.52,3.47-2.01
		c3.18-1.2,5.69-3.47,5.69-5.14c0-1.76,0.96-3.84,2.6-5.64c1.23-1.36,1.38-1.81,1.38-4.24c0-2.47-0.12-2.83-1.33-3.9
		c-1.51-1.36-4.15-6.35-4.89-9.25c-0.43-1.7-0.33-2.64,0.7-6.94c1.05-4.39,1.14-5.27,0.72-7.47c-0.27-1.37-0.59-4.38-0.73-6.7
		c-0.13-2.3-0.33-4.62-0.45-5.13c-0.11-0.51-0.31-1.7-0.45-2.65c-0.13-0.96-0.84-4.2-1.56-7.25c-0.73-3.04-1.41-5.98-1.53-6.52
		c-0.13-0.62-0.83-1.24-1.84-1.67c-3.1-1.3-3.51-1.28-4.35,0.16c-0.58,0.98-1.51,1.59-3.47,2.3c-1.47,0.54-3.47,1.35-4.43,1.8
		c-0.96,0.45-1.79,0.83-1.84,0.83c-0.06,0,0.07-0.65,0.29-1.43c0.6-2.21,0.21-7.54-0.66-8.85c-0.91-1.39-0.79-5.5,0.15-5.28
		c0.33,0.07,4.78,2.88,9.93,6.24c14,9.16,29.3,18.47,36.74,22.36c3.65,1.9,6.83,3.61,7.07,3.77c1.2,0.85,14.85,7.75,19.9,10.08
		c3.17,1.44,10.01,4.28,15.25,6.3c5.23,2.02,9.66,3.8,9.85,3.97c0.19,0.16,0.15,0.78-0.1,1.37s-2.56,6.92-5.14,14.1
		c-2.58,7.17-5.46,15.13-6.4,17.68c-10.23,27.87-12.37,34.17-12.37,36.39c0,1.34-0.28,2.7-0.66,3.25c-0.97,1.37-0.41,3.28,1.24,4.33
		c2.07,1.34,4.73,6.28,5.05,9.38c0.17,1.68,0.69,3.2,1.51,4.51c0.69,1.09,1.26,2.17,1.26,2.42s0.47,0.96,1.05,1.57
		c0.58,0.62,1.3,2.08,1.6,3.24c0.32,1.17,0.75,2.22,0.97,2.35c0.56,0.34,2.4,4.14,2.77,5.71c0.17,0.74,1.72,4.19,3.46,7.7
		c1.82,3.69,3.16,6.95,3.16,7.74c0,0.75-0.34,3.22-0.76,5.51c-0.79,4.27-0.69,6.12,0.5,7.91
		C139.67,472.48,139.63,472.84,138.88,472.61z"/>
	<path fill="#DDDDDD" d="M37.52,389.2c-1.79-4.15-2.46-9.1-2.16-16.18c0.17-4.11,0.46-6.59,0.82-7.02c0.31-0.37,0.56-1,0.57-1.39
		c0.01-1.16,1.91-1.11,3.69,0.09c2.11,1.42,4.93,4.24,4.93,4.91c0,0.3-1.79,2.4-3.98,4.68c-4.65,4.84-4.7,5.1-2.88,11.72
		c0.61,2.19,1.11,4.32,1.11,4.74C39.64,392.29,38.51,391.45,37.52,389.2z"/>
</g>
<path id="ca-mb" fill="#DDDDDD" d="M248.38,363.16l-0.33,2.79c-0.17,1.54-0.38,3.11-0.45,3.47c-0.07,0.37-0.27,1.76-0.45,3.09
	c-0.17,1.35-0.37,2.73-0.45,3.09c-0.07,0.37-0.46,3.23-0.88,6.37c-0.73,5.38-0.73,5.79-0.01,6.99c0.75,1.25,0.73,1.31-0.5,2.85
	c-0.69,0.87-1.47,1.9-1.75,2.3s-0.65,3.31-0.82,6.47c-0.17,3.17-0.37,6.55-0.45,7.52s-0.28,3.57-0.43,5.75
	c-0.15,2.19-0.36,5.17-0.47,6.64c-0.45,6.07-0.64,8.58-0.88,11.94c-0.14,1.94-0.33,4.53-0.45,5.75c-0.1,1.21-0.31,4.2-0.46,6.64
	c-0.14,2.43-0.34,5.21-0.43,6.19s-0.28,3.86-0.45,6.42c-0.16,2.54-0.36,5.35-0.45,6.19c-0.08,0.85-0.29,3.83-0.46,6.64
	c-0.17,2.8-0.36,5.38-0.43,5.75c-0.23,1.21-0.83,11.23-0.86,14.15l-0.03,2.88l2.65,0.27c4.26,0.43,8.32,0.89,9.51,1.06
	c0.61,0.09,2.2,0.28,3.54,0.43c2.58,0.29,4.04,0.46,7.96,0.93c1.35,0.16,4.31,0.42,6.64,0.58c2.3,0.16,6.23,0.34,8.69,0.41
	l4.47,0.13l0.28-2.12c0.14-1.18,0.37-4.51,0.5-7.43c0.12-2.92,0.33-6.7,0.43-8.4s0.31-6.08,0.45-9.73
	c0.49-12.63,0.64-13.94,1.68-15.7c0.54-0.9,3.68-4.49,6.97-8c3.3-3.5,6.89-7.34,7.96-8.55c1.08-1.21,2.14-2.44,2.39-2.71
	c4.26-4.79,6.3-7.14,8.59-9.89c1.51-1.82,4.12-4.82,5.81-6.68c1.68-1.86,3.74-4.15,4.57-5.1c0.83-0.95,2.51-2.81,3.75-4.14
	c1.23-1.35,2.25-2.64,2.25-2.91c0.01-0.5-2.3-1.44-4.3-1.78c-3.06-0.51-3.9-0.79-4.41-1.51c-0.43-0.61-1.14-0.77-3.23-0.72
	c-1.46,0.04-2.81,0.29-2.98,0.55c-0.35,0.55-5.47,1.19-6.47,0.8c-0.45-0.17-0.54-0.54-0.31-1.18c0.34-0.95,0.27-1.47-0.98-7.4
	c-0.9-4.26-1.13-5.53-1.43-7.96c-0.35-2.79-1.48-3.65-6.11-4.62c-2.95-0.62-3.97-1.02-4.35-1.74c-0.55-1.01-0.54-4.49,0.03-9.23
	l0.36-2.98l-2.36-0.06c-1.3-0.03-2.5-0.1-2.68-0.13c-0.19-0.04-1.83-0.23-3.64-0.43c-1.83-0.2-3.61-0.41-3.98-0.47
	c-0.37-0.07-2.05-0.27-3.73-0.45c-1.68-0.17-3.47-0.39-3.98-0.47s-2.1-0.27-3.57-0.41s-4.25-0.45-6.19-0.67
	c-1.93-0.22-4.72-0.51-6.19-0.66c-1.45-0.14-3.59-0.37-4.7-0.51L248.38,363.16z M261.02,439.14c1.7,0.01,2.85,0.81,3.71,2.51
	c0.51,1.01,1.07,1.91,1.24,2.05c0.83,0.58,2.85,5.95,2.47,6.57c-0.24,0.38,0.56,2.83,1.42,4.38c0.31,0.55,0.51,2.04,0.46,3.32
	c-0.1,2.46,1.37,7.87,2.76,10.26c0.56,0.98,0.82,2.51,0.91,5.54c0.12,4.14,0.11,4.2-0.95,4.35c-0.59,0.09-1.43,0.63-1.88,1.21
	c-0.96,1.21-1.76,1.35-2.68,0.43c-0.76-0.76-0.52-3.92,0.38-5.32c0.33-0.49,0.7-1.46,0.82-2.15s0.47-1.55,0.77-1.91
	c0.88-1.06,0.85-2.11-0.09-2.7c-0.73-0.46-0.95-0.4-1.41,0.34c-0.61,0.98-1.67,1.2-1.67,0.36c0-0.29,0.23-1.16,0.51-1.91
	c1.2-3.3-0.75-6.14-3.53-5.16c-1.14,0.4-1.44,0.33-2.2-0.5c-0.48-0.53-1.17-1.88-1.54-3.04s-1.19-2.73-1.78-3.54
	c-0.77-1.03-1.04-1.84-0.9-2.78c0.17-1.21,0.01-1.42-1.96-2.46c-2.88-1.49-4.04-1.07-4.12,1.53c-0.04,1-0.12,2.8-0.21,4.03
	c-0.39,6.08-0.4,6.08,1.41,7.52c3.88,3.08,4.18,3.47,4.8,6.19c0.33,1.45,0.6,3.38,0.59,4.25s0.52,2.61,1.15,3.86
	c1.47,2.92,1.54,5.17,0.15,5.56c-1.45,0.39-2.02,0.34-2.36-0.22c-0.31-0.49-1.52-6.13-2.37-10.94c-0.49-2.73-1.13-3.58-4.21-5.57
	c-2.45-1.58-3.63-2.82-3.51-3.66c0.05-0.31,0.11-0.95,0.13-1.41c0.03-0.46,0.33-1.13,0.67-1.44c0.4-0.4,0.59-1.63,0.58-3.54
	c-0.02-2.93-0.01-2.92-1.7-3.87c-1.88-1.06-2.58-2.07-2.58-3.75c0-0.92,0.22-1.14,1.09-1.14c1.63,0,2.19-1.41,1.11-2.79
	c-0.48-0.61-0.87-1.34-0.87-1.6c0-0.58,2.08-1.48,3.27-1.43c1.06,0.05,3.36,2.22,3.36,3.18c0,0.4,0.46,1.17,1.03,1.68l1.01,0.96
	l0.59-1.6c0.99-2.73,2.78-4.99,4.23-5.34C259.82,439.22,260.45,439.12,261.02,439.14z"/>
<path id="ca-nb" fill="#DDDDDD" d="M503.17,518.07c-1.01-0.26-2.22-1.63-2.94-3.33c-0.29-0.67-0.97-1.34-1.49-1.46
	c-1.79-0.45-4.63-7.82-4.65-12.13c-0.01-1.47-0.27-2.23-1-2.93c-1.72-1.63-4.04-2.82-5.48-2.82h-1.4l-0.17-2.76
	c-0.1-1.51-0.1-2.91-0.01-3.09s1.39-0.34,2.9-0.37c3.25-0.04,5.06-0.64,6.89-2.29c0.84-0.75,2.62-1.56,4.65-2.11
	c3.05-0.84,3.4-0.85,4.93-0.22c1.57,0.66,1.68,0.65,2.52-0.26c1.79-1.92,6.96-3.46,6.91-2.06c-0.01,0.31-0.31,1.05-0.65,1.65
	c-0.95,1.63-0.84,5.4,0.16,6.68c0.46,0.58,0.98,1.71,1.15,2.51c0.2,0.9,1.12,2.22,2.36,3.42c1.96,1.88,2.15,1.96,4.74,1.96
	c1.47,0,2.81,0.11,2.95,0.26c0.14,0.14-0.74,1.29-1.94,2.54c-1.21,1.26-2.72,3.35-3.33,4.65c-1.57,3.32-7.1,8.91-8.82,8.91
	c-0.98,0-1.4,0.3-1.82,1.24C508.86,517.9,505.96,518.79,503.17,518.07z"/>
<g id="ca-nl">
	<path fill="#DDDDDD" d="M552.47,469.5c-1.22-1.55-1.2-3.44,0.1-5.19c1.36-1.86,1.51-4.11,0.31-4.49c-1.14-0.36-1.13-1.29,0.05-3.18
		c0.84-1.37,0.91-1.91,0.66-5.35c-0.46-6.19-0.33-13.44,0.4-20.63c0.05-0.49,0.25-2.47,0.43-4.41c0.39-4.08,1.21-5.57,4.38-7.99
		c1.73-1.34,2.2-1.49,2.75-1.04c1.65,1.37,1.99,2.95,1.8,8.34c-0.11,2.88-0.31,5.4-0.43,5.62c-0.13,0.22-0.37,1.58-0.53,3.03
		l-0.29,2.64l1.13-1.34c0.62-0.74,1.13-1.46,1.14-1.63c0.04-0.67,1.86-0.83,3.33-0.31c1.64,0.59,1.68,0.68,1.55,2.93l-0.08,1.43
		h2.22c1.22,0,2.32-0.17,2.46-0.38c0.12-0.21,1.19-0.65,2.34-0.98c1.16-0.33,3.11-1.05,4.31-1.6c2.2-1.01,4.18-1.05,6.02-0.1
		c0.97,0.5,1.4,2.87,0.73,3.95c-0.45,0.72-0.39,1.01,0.34,1.74c0.76,0.77,1.2,0.83,3.11,0.53c2.82-0.45,3.3-0.28,3.3,1.2
		c0,1.25-0.91,2.85-2.36,4.14c-0.48,0.43-0.64,0.77-0.35,0.77s0.51,0.67,0.51,1.5s0.11,1.83,0.27,2.21
		c0.31,0.81,1.06,0.95,1.06,0.19c0-0.82,2.2-3.47,2.88-3.47c0.34,0,0.86,0.79,1.16,1.76c0.61,2.02,1.2,2.17,3.05,0.8
		c0.72-0.53,1.44-0.81,1.64-0.62c0.19,0.19,0.38,1.66,0.44,3.29c0.06,1.62,0.13,3.69,0.17,4.59c0.11,2.38-1.68,4.97-3.55,5.12
		c-1.12,0.09-1.49-0.11-1.89-1.01c-0.64-1.39-0.96-1.4-1.68-0.01c-1.2,2.25-2.18,0.85-2.72-3.83c-0.38-3.43-0.88-4.78-1.76-4.78
		c-0.22,0-0.38,0.74-0.38,1.62c0,1.31-0.33,1.93-1.73,3.27c-1.57,1.49-1.78,1.96-2.18,4.87c-0.59,4.27-1.65,5.42-5.12,5.51
		c-2.99,0.08-3.22-0.64-0.9-2.82c1.26-1.2,1.54-1.78,1.54-3.21c0-1.64-0.06-1.72-0.96-1.24c-1.67,0.9-3.61,1.3-4.12,0.86
		c-0.53-0.45-1.29-0.1-5.74,2.56c-1.35,0.8-2.99,1.55-3.66,1.65c-0.68,0.11-1.9,0.31-2.73,0.45c-0.84,0.14-3.53,1.06-5.97,2.04
		c-2.45,0.98-4.68,1.86-4.95,1.97C553.63,470.61,552.99,470.16,552.47,469.5z"/>
	<path fill="#DDDDDD" d="M497.53,437.72c-0.08-0.07-0.9-0.23-1.83-0.35s-2.07-0.57-2.53-0.99c-0.68-0.61-1.38-0.73-3.4-0.55
		c-3.24,0.28-3.58,0.14-3.89-1.56c-0.53-2.84-0.59-3.18-0.62-3.69c-0.02-0.29-0.33-0.82-0.72-1.2c-0.61-0.61-0.82-0.59-2.09,0.19
		c-0.78,0.48-1.84,0.87-2.34,0.87c-1.13,0-2.67-1.54-1.97-1.96c0.51-0.32,0.62-2.94,0.2-4.49c-0.16-0.59-0.95-1.21-2.09-1.66
		c-3.26-1.26-6.7-6.61-5.58-8.68c0.26-0.48,0.66-0.87,0.9-0.87c0.46,0,1.23-1.69,1.45-3.21c0.07-0.48,0.56-1.2,1.08-1.6
		s1.14-1.25,1.37-1.89c0.42-1.13,0.52-1.16,2.33-0.76c1.05,0.23,2.4,0.76,3.01,1.19c1.55,1.08,3.17,0.76,4.2-0.84
		c0.84-1.28,0.98-1.33,3.09-1.03c1.21,0.17,2.56,0.3,2.99,0.28c0.64-0.02,0.75,0.27,0.61,1.5c-0.1,0.84-0.25,1.58-0.33,1.64
		c-1.96,1.33-3.48,2.67-3.68,3.29c-0.13,0.43-0.85,1.18-1.57,1.65c-1.55,1.04-1.64,1.56-0.46,2.64c1.06,0.97,3.67,0.62,4.53-0.59
		c1.04-1.44,3.25-2.25,4.86-1.75c2.08,0.64,3.69-0.11,4.6-2.15c0.77-1.72,0.87-4.02,0.19-4.7c-0.22-0.22-0.79,0.01-1.32,0.55
		c-0.58,0.58-1.49,0.94-2.44,0.94c-3.33,0-3.63-0.88-1.58-4.7c0.73-1.37,1.34-2.94,1.34-3.5c0-1.34-1.46-4.7-2.36-5.45
		c-0.4-0.33-0.73-0.93-0.73-1.33c0-1.23-2.21-5.08-3.64-6.33c-0.95-0.82-1.46-1.79-1.69-3.09c-0.19-1.05-0.56-3.19-0.85-4.77
		c-0.28-1.58-0.52-4.16-0.54-5.75c-0.03-3.33-0.85-5.11-2.52-5.47c-0.63-0.13-1.79-0.65-2.58-1.14c-1.6-1-1.86-2.31-0.77-3.87
		c0.46-0.67,0.55-1.26,0.29-1.97c-0.39-1.06-0.38-1.46,0.14-3.84c0.33-1.52,0.09-1.61-3.94-1.43c-0.96,0.04-1.63-0.03-1.5-0.16
		c0.12-0.12-0.1-1.67-0.52-3.43c-0.59-2.51-0.95-3.22-1.6-3.33c-0.48-0.07-1.08-0.48-1.35-0.91c-0.63-1.01-2.46-7.64-2.17-7.91
		c0.46-0.46,5.6,4.09,7.39,6.56c1.05,1.43,2.25,2.62,2.66,2.62s1.17,0.58,1.67,1.3c0.51,0.72,1.58,1.7,2.41,2.22
		c0.98,0.6,1.81,1.68,2.44,3.13c0.61,1.42,1.22,2.21,1.71,2.21c0.42,0.01,1.2,0.67,1.72,1.48c0.75,1.15,1.36,1.54,2.75,1.76
		c1.55,0.25,1.93,0.55,2.77,2.16c0.54,1.03,1.09,2.67,1.22,3.63c0.23,1.64,0.38,1.79,2.29,2.32c1.13,0.32,2.37,0.96,2.79,1.41
		c0.69,0.76,0.7,1.03,0.11,3c-0.55,1.83-0.55,2.34-0.06,3.25c0.33,0.59,0.7,1.57,0.82,2.18c0.2,0.96,0.88,1.34,5,2.76
		c2.62,0.91,5.13,1.65,5.56,1.65s1.55,0.82,2.49,1.83l1.69,1.83l3.93,0.19c2.15,0.1,4.68,0.47,5.6,0.82
		c1.72,0.66,2.8,0.42,4.14-0.94c0.42-0.42,1.23-0.35,3.77,0.34c1.78,0.49,3.35,1.08,3.5,1.3c0.57,0.9-0.17,2.51-1.37,3.01
		c-0.69,0.29-2.3,1.72-3.61,3.19c-1.3,1.46-2.95,3.3-3.69,4.08c-0.74,0.77-2.26,2.39-3.39,3.6c-2.11,2.23-3.09,4.89-1.96,5.33
		c0.95,0.36,5.49-4.43,5.8-6.12c0.2-1.05,1.32-2.59,3.68-5.12c3.07-3.27,3.56-3.62,5.03-3.62c1.36,0,1.81,0.25,2.65,1.46
		c0.85,1.23,1.2,1.41,2.11,1.16c2.08-0.59,4.27-0.42,5.35,0.42c0.58,0.45,2.25,1.47,3.71,2.29c1.45,0.8,2.71,1.5,2.78,1.55
		s-0.11,0.61-0.4,1.24c-0.75,1.63,0.12,4.3,2.03,6.21c1.44,1.44,3.33,4.6,3.33,5.57c0,0.74-3.01,5.34-4.53,6.93l-1.35,1.42l-1.8-2.3
		c-0.99-1.26-1.99-2.43-2.23-2.59c-0.23-0.16-1.14,0.06-2,0.49c-0.87,0.43-2.62,1.04-3.9,1.34c-1.27,0.31-3.77,1.11-5.53,1.78
		c-1.76,0.69-5.4,2.07-8.07,3.08s-5.81,2.23-6.97,2.72c-4.21,1.75-13.41,4.92-15.13,5.23c-1.43,0.25-2.23,0.09-4.23-0.9
		c-1.36-0.67-2.67-1.08-2.92-0.91c-0.25,0.16-0.48,1.09-0.51,2.07c-0.07,2.18-0.55,6.13-0.77,6.36
		C499.79,437.66,497.72,437.9,497.53,437.72z"/>
</g>
<g id="ca-ns">
	<path fill="#DDDDDD" d="M518.24,532.39c-2.58-0.56-3.84-2.02-4.88-5.69c-0.51-1.79-0.59-2.83-0.3-3.63c0.65-1.7,3.58-6.02,5.5-8.11
		c0.95-1.03,1.98-2.25,2.3-2.72c0.33-0.47,1.1-0.98,1.7-1.13c1.26-0.32,5.1-2.91,5.1-3.43c0-0.46-1.98,0.31-4.33,1.68
		c-4.08,2.39-3.52-1.48,0.98-6.6c1.97-2.24,2.44-2.54,3.8-2.51c4.21,0.12,8.94-0.62,10.49-1.66c0.97-0.66,1.84-0.95,2.28-0.76
		c0.4,0.17,1.63,0.33,2.76,0.38c2.32,0.09,4.17,1.11,4.91,2.73c0.48,1.04,0.31,1.32-2.33,3.97c-1.56,1.56-3.15,3.17-3.51,3.55
		c-1.57,1.66-5.46,4.62-6.37,4.85c-0.58,0.14-1.52,1.17-2.28,2.46c-1.19,2.02-1.4,2.18-2.67,1.99c-1.15-0.17-1.46-0.02-1.87,0.88
		c-0.28,0.6-0.5,1.3-0.5,1.54s-0.6,1.88-1.34,3.65c-1.01,2.41-2.04,3.92-4.22,6.16c-1.58,1.63-2.94,2.94-2.98,2.91
		C520.41,532.88,519.41,532.65,518.24,532.39z"/>
	<path fill="#DDDDDD" d="M547.99,498.81c-0.37-0.3-1.64-1.58-2.82-2.86c-1.57-1.7-2.03-2.47-1.69-2.88c0.25-0.31,1.07-2.4,1.82-4.65
		c1.52-4.56,2.95-7.62,3.58-7.62c0.78,0,1.78,1.97,1.79,3.53c0.01,2.51,0.43,3.45,1.69,3.77c1.54,0.38,3.61,2.36,3.61,3.48
		c0,0.48-0.62,1.84-1.37,3.01c-1,1.55-1.65,2.14-2.4,2.14c-0.64,0-1.39,0.51-1.97,1.34C549.16,499.52,548.97,499.6,547.99,498.81z"
		/>
</g>
<g id="ca-nt">
	<path fill="#DDDDDD" d="M124.09,190.05c-0.76-0.01-1.83,0.12-3.38,0.33c-2.37,0.3-4.57,0.64-4.91,0.77
		c-0.43,0.16-0.53,0.82-0.37,2.36c0.26,2.49-0.31,3.15-1.36,1.54c-0.4-0.62-0.87-1.13-1.04-1.13c-0.74,0-7.16,11.63-8.42,15.25
		c-0.76,2.19-1.67,4.42-2.04,4.96c-1.01,1.55-0.77,1.99,2.14,3.98c6.2,4.2,6.36,4.63,3.82,9.85c-0.89,1.83-1.72,4.14-1.84,5.16
		c-0.2,1.72-0.1,1.94,1.5,3.23c0.95,0.77,1.63,1.52,1.51,1.71c-0.11,0.19-0.27,1.47-0.33,2.89c-0.11,2.73-0.64,3.63-2.42,4.08
		c-1.25,0.32-1.94,1.39-1.94,3.01c0,0.62-0.19,1.14-0.4,1.14c-0.22,0-0.52,0.52-0.68,1.17c-0.22,0.85-0.06,1.42,0.61,2.12
		c0.64,0.67,0.91,1.56,0.91,2.93c0,1.16,0.44,2.85,1.06,4.14c0.73,1.5,0.99,2.64,0.83,3.63c-0.15,0.98,0.07,2.02,0.68,3.19
		c0.9,1.72,0.9,1.78,0.11,4.36c-1.06,3.5-2.13,9.34-2.42,13.15c-0.12,1.7-0.35,3.5-0.5,4c-0.16,0.58,0.09,1.3,0.7,1.99
		c1.18,1.36,1.88,3.03,2.62,6.18c0.67,2.83,1.51,4.68,2.79,6.08l0.91,1l-0.96,1.02c-0.64,0.68-0.98,1.58-0.98,2.68
		c0,0.91-0.22,2.05-0.47,2.53c-0.42,0.78-0.19,1,2.32,2.14c1.53,0.7,3.56,1.8,4.48,2.43c1.35,0.93,2.01,1.1,3.21,0.87
		c1.79-0.33,1.66-0.79,1.7,6.39l0.03,5.46l4.86,1.96c15.78,6.38,34.41,12.72,52.39,17.84c5.22,1.49,12.39,3.59,15.91,4.64
		c3.53,1.06,7,2.06,7.74,2.18c0.73,0.12,4.3,0.84,7.96,1.57c3.64,0.75,7.18,1.43,7.84,1.55c0.67,0.11,3.25,0.63,5.75,1.13
		c2.5,0.49,5.13,0.99,5.85,1.13c0.73,0.12,4.1,0.8,7.52,1.49c6.97,1.41,9.49,1.62,9.52,0.79c0.02-0.31,0.11-0.93,0.2-1.38
		c0.1-0.45,0.29-2.54,0.45-4.64c0.16-2.09,0.37-4.3,0.46-4.92c0.09-0.61,0.28-2.4,0.41-3.98c0.4-4.51,1.1-11.72,1.35-13.92
		c0.08-0.74,0.28-3.12,0.45-5.3c0.16-2.18,0.37-4.27,0.46-4.64c0.09-0.37,0.28-2.35,0.43-4.42s0.47-5.4,0.71-7.41
		c0.24-2.02,0.33-3.85,0.2-4.06c-0.12-0.22-3.07-1.86-6.54-3.68c-7.32-3.83-14.84-7.8-20.42-10.81l-3.94-2.11l-2.72-4.42l-2.72-4.42
		l-5-1.06l-5-1.08l-4.28-5.78c-2.35-3.18-6.08-8.27-8.26-11.31s-6.52-8.98-9.59-13.19c-3.09-4.22-5.92-8.14-6.3-8.72
		c-0.64-0.98-0.58-1.33,0.87-5.15c5.46-14.42,5.45-14.34,2.7-17.94c-0.84-1.09-1.51-2.15-1.51-2.36c0-0.22-0.22-0.37-0.49-0.37
		s-1.01-0.37-1.65-0.83c-0.65-0.46-1.96-0.93-2.95-1.04c-1.51-0.17-2.04,0.01-3.6,1.29c-1.57,1.29-1.98,1.42-2.98,1.04
		c-1.47-0.56-1.45-0.89,0.15-2.43c0.73-0.7,1.19-1.47,1.01-1.74c-0.16-0.27-0.32-1.51-0.33-2.78c-0.02-3.83-0.62-3.83-4.46,0.01
		c-1.86,1.86-3.48,3.39-3.6,3.39c-0.33,0-1.67-1.44-1.74-1.85c-0.03-0.2-0.09-2.92-0.11-6.03c-0.06-5.63-0.07-5.67-1.19-6.19
		c-1.58-0.73-2.31-0.65-3.63,0.38c-0.85,0.67-1.69,0.89-3.26,0.82c-1.43-0.07-1.99-0.27-1.74-0.58c0.21-0.27,0.48-1.03,0.59-1.71
		c0.2-1.11,0.01-1.35-1.83-2.26c-2.05-1.03-5.28-1.26-8.01-0.57c-0.61,0.15-3.19,0.39-5.75,0.54c-3.38,0.2-4.72,0.45-4.99,0.91
		c-0.2,0.35-0.96,0.64-1.67,0.64c-1.24,0-1.3-0.1-1.3-1.87C125.82,190.78,125.74,190.08,124.09,190.05z M160.72,252.01
		c11.49,0.04,12.42,0.2,12.42,2.05c0,0.43-0.95,1.57-2.09,2.55c-1.4,1.19-1.94,1.93-1.65,2.22c0.52,0.52,6.63,2.98,9.64,3.9
		c2.08,0.63,2.11,0.69,1.83,2.06c-0.33,1.52-0.96,2.51-1.58,2.51c-0.22,0-1.18,0.52-2.12,1.15l-1.74,1.15l-2.55-1.19
		c-1.41-0.66-2.94-1.39-3.39-1.63c-1.11-0.59-1.74,0.14-2.68,3.04c-0.9,2.76-1.06,2.91-4.54,4.08c-1.51,0.51-2.95,0.93-3.21,0.93
		c-0.83,0-0.47-1.27,0.77-2.75c2.59-3.06,2.55-3,1.06-3c-0.8,0-1.87,0.46-2.68,1.14c-2.17,1.83-3.83,2.1-5.83,0.96
		c-0.94-0.54-1.91-1.47-2.2-2.08c-0.47-1.03-0.31-1.3,2.61-4.08c1.72-1.64,4.01-3.4,5.09-3.92c1.08-0.51,2.05-1.29,2.17-1.74
		c0.33-1.27-1.42-2.65-3.47-2.7c-0.96-0.02-3.01-0.47-4.57-1c-2.32-0.78-2.87-1.16-3-2.04c-0.09-0.59,0.06-1.21,0.33-1.37
		C149.54,252.09,154.68,251.98,160.72,252.01z M175.74,308.85c0.19,0,1,0.92,1.79,2.04c0.8,1.12,2.15,2.66,3.01,3.42
		c2.37,2.12,4.12,4.1,5.22,5.93c0.87,1.44,1.35,1.72,3.93,2.37c2.73,0.7,3.11,0.7,5.53,0.01c1.75-0.49,2.91-1.14,3.56-1.96
		c1.35-1.7,3-2.46,5.79-2.61c2.36-0.13,2.39-0.12,2.3,1.09c-0.12,1.76-1.86,3.75-3.79,4.29c-0.92,0.27-2.51,1.3-3.54,2.29
		c-1.04,1-3.17,2.39-4.75,3.11s-3.63,1.7-4.55,2.2c-0.98,0.52-2.15,0.8-2.8,0.68c-0.79-0.15-1.52,0.14-2.51,1.01
		c-0.77,0.67-2.16,1.54-3.11,1.93c-0.95,0.4-2.24,0.69-2.88,0.62c-8.16-0.74-8.93-1.01-12.83-4.64c-3.52-3.27-3.48-4.09,0.2-4.09
		c1.36,0,2.86,0.2,3.33,0.46c1,0.54,2.2,0.03,4.07-1.71c0.98-0.91,1.58-1.11,3-1.01c2.03,0.14,3.07-0.49,3.07-1.9
		c0-1.32-1.8-6.5-3.39-9.77C175.16,310.1,174.94,308.85,175.74,308.85z"/>
	<path fill="#DDDDDD" d="M222.86,223.97c-3.17-0.93-8.14-2.39-11.05-3.26c-2.92-0.87-6.89-2.04-8.85-2.58
		c-3.33-0.95-3.44-1.01-1.99-1.25c0.85-0.13,3.74-0.16,6.42-0.06c3.95,0.15,5.24,0.38,6.88,1.21c2.03,1.02,7.43,2.61,7.76,2.28
		c0.1-0.1-1.01-1.32-2.47-2.69c-2.76-2.64-4.9-3.81-6.96-3.82c-1.57-0.01-8.53-1.83-11.35-2.95c-2.05-0.82-2.2-1.01-2.97-3.49
		c-0.45-1.43-0.82-2.85-0.82-3.15c-0.01-0.48,2.07-1.21,7.96-2.82l1.99-0.55l-1.54-0.35c-0.85-0.2-2.11-0.41-2.8-0.47
		c-1.35-0.11-2.77-2.11-2.33-3.27c0.12-0.33-0.01-0.77-0.31-0.96c-0.31-0.19-0.9-0.9-1.35-1.58c-1.05-1.64-0.67-3.27,1.24-5.28
		c1.75-1.86,2.45-3.04,2.45-4.19c0-2.25,6.56-5.82,13.1-7.14c2.4-0.49,5.28-1,6.4-1.16c1.96-0.27,2.07-0.22,2.51,1.05
		c0.55,1.57,0.06,4.1-1.29,6.7c-0.52,0.99-0.82,1.91-0.68,2.07c0.14,0.14,1.17-0.48,2.27-1.38l2.01-1.64l2.75,1.57
		c1.51,0.87,3.24,1.98,3.82,2.49l1.08,0.91l-0.9,2.12l-0.9,2.12l1.81-0.41c1-0.23,1.94-0.55,2.11-0.72c0.16-0.17,0-1.18-0.36-2.23
		c-0.36-1.06-0.59-1.96-0.52-2.02c1.87-1.21,2.56-1.52,2.73-1.25c0.25,0.39-9.37,39.09-9.8,39.5
		C228.74,225.52,226.03,224.88,222.86,223.97z"/>
	<path fill="#DDDDDD" d="M179.12,195.17c-0.11-0.33-0.4-2.31-0.65-4.41c-0.4-3.48-0.66-4.17-2.9-7.91
		c-1.36-2.25-2.45-4.31-2.44-4.59c0.01-0.69,1.33-2.18,2.64-3.01c0.61-0.38,2.2-2.46,3.54-4.61s2.8-4.31,3.27-4.8
		c0.46-0.49,2.29-2.84,4.09-5.22c3.12-4.15,3.26-4.45,3.32-6.85c0.03-1.38,0.02-2.78-0.03-3.11c-0.11-0.79,1.25-2.26,1.89-2.05
		c0.28,0.09,1.24,0.26,2.14,0.36c0.9,0.11,2.69,0.61,3.98,1.13c1.3,0.51,3.18,1.14,4.18,1.39c1.51,0.37,1.93,0.72,2.33,1.88
		c0.28,0.79,1.56,2.51,2.88,3.84c2.36,2.4,2.4,2.41,4.95,2.33c3.61-0.1,4.09,0.45,6.16,6.76c2.61,8.03,2.27,8.85-4.43,10.46
		c-3.08,0.75-6.14,2.08-6.88,3c-0.12,0.14-0.83,0.52-1.57,0.81c-0.75,0.31-1.84,0.98-2.44,1.52c-0.6,0.54-2.43,1.97-4.05,3.19
		c-2.36,1.76-3.29,2.82-4.54,5.19c-0.87,1.64-2.02,3.21-2.55,3.51c-0.54,0.29-0.98,0.46-0.98,0.38c0-0.12-0.54-0.02-3.76,0.69
		c-0.61,0.13-2.64,0.35-4.52,0.48C180.1,195.73,179.29,195.65,179.12,195.17z"/>
	<path fill="#DDDDDD" d="M230.44,162.05c-1.13-1.23-2.05-2.6-2.05-3.04c0-1.1,1.75-2.14,4.52-2.73c4.47-0.94,5.79-2.37,2.15-2.37
		c-1.46,0-2.05-0.23-2.69-1.1c-0.79-1.05-0.86-1.06-1.68-0.32c-1.05,0.96-3.61,1.26-4.82,0.58c-1.29-0.72-5.4-5.61-5.72-6.81
		c-0.29-1.1,0.85-2.74,1.89-2.74c0.33,0,0.61-0.14,0.63-0.33c0.14-1.39,0.5-2.14,1.47-3.17c0.62-0.66,1.14-1.57,1.14-2.06
		c0-1.19,2.52-4.16,3.53-4.16c0.44,0,1.13-0.5,1.52-1.11c0.61-0.93,1.07-1.11,2.86-1.11c2.83,0,4.47,1.22,4.47,3.35
		c0,1.26,0.28,1.69,1.68,2.62c2.26,1.49,3.32,3.74,3.39,7.24c0.07,3.1,0.73,4.03,2.85,4.04c2.18,0.01,2.22,0.32,0.77,6.29
		c-1,4.11-1.54,5.63-2.03,5.63c-0.37,0-1.8,0.79-3.19,1.76c-2.35,1.65-2.72,1.76-5.6,1.76h-3.08L230.44,162.05z"/>
	<path fill="#DDDDDD" d="M216.8,142.33c-0.42-0.11-0.98-0.94-1.21-1.83c-0.61-2.2,0.31-3.39,3.71-4.76c2.95-1.2,3.94-1.32,4.56-0.51
		c0.8,1.02,0.42,2.17-1.13,3.36c-0.85,0.65-2.25,1.82-3.11,2.61c-0.87,0.79-1.68,1.42-1.81,1.39
		C217.67,142.56,217.22,142.44,216.8,142.33z"/>
	<path fill="#DDDDDD" d="M212.73,134.86c-0.38-0.38-0.7-1.19-0.7-1.76c0-1.01-0.15-1.08-2.43-1.08c-3.93,0-5.19-1.93-3.21-4.88
		c0.73-1.08,1.52-1.61,2.99-1.98c1.1-0.28,2.95-1.05,4.11-1.69c1.17-0.65,2.29-1.09,2.5-0.96c0.21,0.12,1.8-1.12,3.56-2.75
		c4.06-3.81,4.73-4.14,8.08-4.07c1.51,0.04,3.25-0.03,3.86-0.13c1.32-0.24,3.32,0.69,3.71,1.68c0.85,2.21-0.08,4.67-2.21,5.86
		c-0.48,0.27-0.8,1.2-0.96,2.67c-0.2,2.11-0.33,2.33-2.14,3.39c-1.06,0.62-2.12,1.5-2.37,1.96c-0.59,1.1-2.09,1.55-2.91,0.88
		c-0.98-0.81-0.82-3.82,0.25-4.72c0.49-0.41,0.88-0.91,0.88-1.1c0-0.54-1.62,0.89-6.01,5.28
		C215.47,135.74,214.22,136.35,212.73,134.86z"/>
	<path fill="#DDDDDD" d="M247.1,122.77c-1.43-0.64-1.93-1.21-2.72-3.11c-0.54-1.29-0.98-2.59-0.98-2.93s-0.41-0.85-0.91-1.16
		c-2.38-1.45-3.39-5.64-1.36-5.64c0.91,0,2.27,1.32,2.27,2.19c0,0.41,0.4,0.48,1.43,0.25c1.86-0.41,9.52-0.79,10.28-0.51
		c0.45,0.17,0.49,0.65,0.14,2.13c-0.25,1.05-0.52,2.3-0.61,2.79c-0.66,3.36-1.26,5.11-1.96,5.76
		C251.54,123.58,249.16,123.67,247.1,122.77z"/>
	<path fill="#DDDDDD" d="M254.92,109.97c0-0.22-0.58-0.63-1.3-0.93c-0.72-0.3-1.64-0.93-2.08-1.4c-0.56-0.62-1.12-0.79-1.97-0.6
		c-0.66,0.14-1.34,0.06-1.47-0.19c-0.68-1.1,2.65-4.03,3.79-3.32c0.24,0.14,0.72,0.02,1.08-0.28c0.56-0.46,3.96-0.39,4.38,0.1
		c0.38,0.43-1.36,6.99-1.85,6.99C255.16,110.36,254.92,110.18,254.92,109.97z"/>
</g>
<g id="ca-nu">
	<path fill="#DDDDDD" d="M256.91,249.65c-2.17-0.52-5.42-2.41-7.76-4.48c-0.71-0.63-2.08-1.5-3.06-1.94s-1.8-1.07-1.83-1.4
		s-0.09-0.85-0.11-1.16c-0.1-0.99-1.93-0.91-2.26,0.09c-0.41,1.32-2.65,2.3-5.72,2.57c-1.45,0.12-2.91,0.48-3.22,0.79
		c-1.32,1.32-3.72,1.63-10.02,1.35c-9.4-0.44-12.18-0.93-12.23-2.12c-0.01-0.31-0.11-1.37-0.2-2.32c-0.1-0.98-0.28-2.94-0.38-4.37
		c-0.23-3-1.04-4.07-3.37-4.47c-2.64-0.46-7.97-4.19-7.97-5.59c0-0.21-0.04-0.52-0.07-0.71c-0.04-0.19-0.43-1.91-0.87-3.87
		s-0.8-3.68-0.81-3.83c-0.01-0.33,0.09-0.31,19.15,5.36c7.5,2.23,13.71,3.99,13.8,3.9s2.36-9,5.06-19.8
		c2.7-10.82,5.01-19.96,5.14-20.32s1.01,1.34,1.98,3.76c1.71,4.29,1.75,4.53,1.57,8.72c-0.22,5.06,0.28,6.4,1.78,4.89
		c0.77-0.76,0.87-1.36,0.75-4.15c-0.08-1.79-0.23-5.74-0.34-8.75l-0.2-5.48l1.4-1.46c1.32-1.37,1.51-1.43,3.14-1.08
		c1,0.23,2.17,0.93,2.79,1.64c1.03,1.2,1.04,1.21,0.35,0.09c-0.38-0.64-0.87-1.75-1.09-2.49c-0.54-1.86,0.87-3.47,3.51-3.98
		c2.36-0.45,4.1,0.36,5.94,2.75c1.66,2.18,1.24,4.03-1.81,7.78l-2.43,3l0.11,5.54c0.11,6.21,0.53,9.83,1.4,12.42
		c0.54,1.6,0.51,1.94-0.48,4.1c-0.77,1.71-0.99,2.8-0.8,3.96c0.4,2.44,3.17,6.06,7.23,9.46c4.68,3.91,6.33,6.88,5.35,9.67
		c-0.46,1.32-0.49,1.34-2.95,1.05c-1.37-0.15-2.69-0.46-2.92-0.69c-0.23-0.22-0.66-0.4-0.96-0.4c-1.17,0-0.98,1.45,0.49,3.75
		c2.44,3.82,1.94,6.19-1.62,7.87C260.68,250.09,259.14,250.2,256.91,249.65z"/>
	<path fill="#DDDDDD" d="M380.07,449.98c-2.27-0.91-2.7-1.25-2.7-2.15c0-1.21,0.25-1.34,3.29-1.66c2.04-0.22,2.27-0.14,3.44,1.19
		c1.62,1.82,1.54,3.58-0.16,3.66C383.29,451.03,381.55,450.57,380.07,449.98z"/>
	<path fill="#DDDDDD" d="M287.59,366.15c-0.1-0.1-1.78-0.32-3.72-0.49c-1.93-0.17-3.64-0.37-3.76-0.44s-1.81-0.28-3.76-0.45
		c-1.94-0.17-3.64-0.37-3.76-0.44s-1.51-0.26-3.09-0.41c-1.58-0.16-3.77-0.38-4.86-0.51c-4.15-0.46-5.67-0.62-10.6-1.11
		c-5.14-0.51-5.91-0.67-5.57-1.21c0.1-0.16,0.33-2.19,0.5-4.49s0.37-4.49,0.44-4.86s0.26-2.35,0.41-4.42
		c0.16-2.07,0.37-4.26,0.48-4.86c0.1-0.61,0.3-2.5,0.43-4.2c0.31-3.7,0.62-7.23,0.91-9.94c0.11-1.1,0.3-2.98,0.41-4.2
		c0.73-7.97,0.9-9.83,1.36-14.15c0.15-1.45,0.32-3.11,0.35-3.66c0.06-0.84-0.54-1.34-3.47-2.9c-4.48-2.38-12.67-6.71-19.23-10.16
		c-2.8-1.46-5.88-3.11-6.85-3.64c-1.71-0.94-2.62-2.08-6.01-7.57l-1.59-2.58l-5.05-1.06l-5.05-1.06l-2.46-3.36
		c-1.36-1.84-6.51-8.92-11.47-15.73c-4.95-6.81-10.15-13.96-11.57-15.87c-1.42-1.92-2.56-3.72-2.57-3.98
		c-0.01-0.43,5.72-16.19,6-16.53c0.54-0.65,4.81,3.22,6.56,5.91c1.18,1.81,4.41,4.56,6.52,5.52c0.89,0.4,1.39,0.4,2.12,0.01
		c0.84-0.45,1.21-0.32,2.91,1.08c1.07,0.88,2.32,2.13,2.79,2.79c1.05,1.48,2.73,5.29,2.73,6.16c0,1.14-1.14,1.82-3.55,2.12
		c-2.41,0.31-4.41,1.27-4.41,2.12c0,0.27,0.44,1.12,0.98,1.89c0.83,1.21,1.64,1.62,5.42,2.77c6.98,2.12,8.32,2.33,11.52,1.83
		c1.57-0.25,3.38-0.7,4.03-0.99c1.06-0.48,1.24-0.43,1.88,0.55c0.39,0.6,1.9,2.65,3.37,4.56c3.45,4.52,4.59,6.74,4.35,8.45
		c-0.14,1.02-0.08,1.2,0.27,0.69c0.28-0.41,0.35-2.37,0.19-5.16l-0.27-4.49l4.67-2.32c2.68-1.34,4.75-2.64,4.86-3.08
		c0.19-0.72,0.09-0.72-1.63,0.02c-1.01,0.43-2.88,1.05-4.14,1.37c-2.16,0.55-2.41,0.54-3.54-0.32c-2.98-2.23-0.47-6.45,4.03-6.74
		c0.94-0.06,2.73-0.45,3.98-0.86c1.25-0.41,2.83-0.69,3.51-0.6c1.46,0.19,2.67,1.83,2.77,3.79c0.04,0.77,0.41,2.06,0.84,2.88
		c1.11,2.12,4.47,5.35,5.66,5.42c0.55,0.03,1.2,0.1,1.44,0.15c0.25,0.06,0.67,0.12,0.95,0.17c0.28,0.04,1.34,1.34,2.33,2.88
		l1.83,2.81l2.71,0.29c1.48,0.15,4.03,0.29,5.62,0.29s4.31,0.4,6.01,0.88c1.7,0.49,3.09,0.88,3.09,0.88s0.04-0.73,0.09-1.61
		c0.05-0.89,0.4-2.38,0.77-3.33c0.38-0.95,0.69-2.23,0.69-2.87c0-1.13,0.07-1.16,2.04-0.88c2.53,0.35,5.26,1.26,8.26,2.77
		c1.27,0.64,2.37,1.22,2.46,1.3c0.11,0.11-1.48,6.15-2.39,8.94c-0.1,0.32,0.3,0.75,0.86,0.98c0.58,0.22,1.3,1.06,1.6,1.86l0.56,1.46
		l0.31-1.34c0.2-0.85,0.06-1.8-0.37-2.65c-0.4-0.79-0.69-2.54-0.7-4.32c-0.02-3.18,0.42-3.95,2.04-3.53
		c1.57,0.41,4.69-1.17,6.11-3.1c1.13-1.52,1.35-2.23,1.35-4.32c0-1.93-0.2-2.68-0.88-3.3c-1.02-0.93-1.23-4.1-0.33-5.01
		c0.76-0.77-1.96-3.21-4.48-4.04c-1.51-0.51-2.19-1.1-3.43-3.03c-1.32-2.06-1.54-2.79-1.52-4.98c0.01-1.42,0.22-2.96,0.48-3.44
		c0.36-0.68,0.2-1.46-0.73-3.61l-1.19-2.73l0.85-2.49c0.73-2.09,1.16-2.64,2.72-3.51c1.7-0.95,1.82-1.11,1.38-2.07
		c-0.41-0.9-0.28-1.31,1.01-2.9c3.46-4.27,3.15-4.04,4.74-3.71c1.03,0.21,1.64,0.67,1.99,1.47c0.28,0.66,1.25,1.84,2.17,2.64
		c3.01,2.64,3.44,3.58,3.61,7.86c0.14,3.79,0.22,4,2.41,7.64c2.76,4.59,3.06,7.07,0.75,6.21c-0.9-0.33-0.97-0.27-0.78,0.96
		c0.11,0.74-0.07,2.12-0.39,3.11c-0.55,1.67-0.53,1.83,0.39,2.57c0.81,0.66,1.25,0.72,2.61,0.34c1.69-0.47,3.18-0.19,6.57,1.23
		c1.4,0.59,1.55,0.78,1.04,1.3c-0.33,0.33-1.51,0.73-2.61,0.88c-3.11,0.43-3.35,1.17-1.29,4.15c1.62,2.36,1.98,3.58,2.14,7.11
		c0.09,1.87,0.77,0.08,1.11-2.88c0.51-4.6,1.11-6.01,2.86-6.74l1.55-0.66l2.97,3.25c2.08,2.28,3.11,3.82,3.44,5.1
		c0.71,2.77,0.58,4.45-0.41,5.44c-0.49,0.49-0.88,1.44-0.88,2.14c0,1.3,0.81,4.08,1.31,4.48c0.14,0.12,0.95,1.27,1.74,2.54
		c0.8,1.28,1.6,2.32,1.76,2.32c0.69,0,2.34-1.48,2.7-2.42c0.21-0.55,0.5-2.17,0.65-3.61c0.14-1.42,0.55-3.2,0.9-3.93
		c0.34-0.73,1.03-2.73,1.52-4.44s1.49-4.01,2.22-5.09c1.58-2.33,1.67-3.34,0.41-4.67c-1.06-1.13-2.33-6.44-1.89-7.86
		c0.58-1.88,1.52-2.47,4.02-2.47c1.79,0,2.98,0.33,4.85,1.34c1.37,0.74,2.88,1.34,3.37,1.34s1.51,0.68,2.29,1.49
		c0.77,0.82,2.28,1.94,3.34,2.49c1.86,0.96,3.49,2.46,3.52,3.27c0.01,0.22-0.32,0.64-0.72,0.93c-0.67,0.49-0.66,0.64,0.2,1.82
		c0.51,0.71,1.06,2,1.21,2.89c0.27,1.48,0.19,1.63-1.05,2.07c-0.74,0.26-1.55,0.88-1.83,1.38c-0.28,0.51-0.88,0.93-1.36,0.93
		c-1.18,0-1.09,0.84,0.23,2.37c0.61,0.7,1.22,1.93,1.37,2.73c0.19,0.98,0.76,1.79,1.72,2.46c3.14,2.14,3.14,6.59,0.01,11.93
		c-3.71,6.33-3.97,6.61-5.89,6.43c-0.95-0.09-2.23-0.51-2.88-0.94l-1.18-0.76l0.7,1.65c0.77,1.84,0.3,2.64-1.31,2.14
		c-1.64-0.51-2.28-0.49-2.97,0.11c-0.61,0.53-0.93,0.52-2.21-0.02c-0.83-0.35-1.8-1.06-2.17-1.57c-0.56-0.79-0.95-0.9-2.43-0.65
		c-0.98,0.16-2.12,0.48-2.55,0.71c-0.7,0.37-0.62,0.57,0.82,1.91c1.49,1.41,1.57,1.63,1.29,3.37c-0.23,1.35-0.98,2.64-2.69,4.65
		c-1.31,1.53-2.5,3.3-2.65,3.91c-0.15,0.61-0.51,1.12-0.78,1.12s0.06,0.46,0.76,1.01c1.06,0.85,1.24,1.29,1.13,2.76
		c-0.08,0.98-0.46,2.25-0.85,2.86s-1.11,1.7-1.58,2.43c-0.49,0.73-1.76,2.86-2.85,4.74c-2.24,3.89-2.96,4.32-7.27,4.32
		c-3.17,0-4.05,0.64-4.27,3.09c-0.14,1.52-0.17,1.54-2.13,1.51c-1.1-0.02-2.53-0.14-3.2-0.31c-1.77-0.4-1.88,0.33-0.23,1.47
		c0.79,0.55,1.51,1.06,1.6,1.13c0.46,0.35,0.52,3.86,0.08,5.18c-0.59,1.77-2.23,2.62-5.3,2.75c-3.47,0.14-3.31,0.07-2.56,1.19
		c0.63,0.95,0.57,1.09-0.95,2.55c-2.24,2.18-4.82,5.58-6.02,7.95c-0.56,1.1-1.44,2.39-1.99,2.88c-1.17,1.06-2.21,2.96-2.21,4.05
		c0,0.43-1.03,2.95-2.29,5.61c-1.91,4.07-2.28,5.22-2.24,7.2l0.05,2.35h-1.88C288.62,366.32,287.69,366.25,287.59,366.15z"/>
	<path fill="#DDDDDD" d="M376.86,341.7c-2.35-1.46-2.26-5.78,0.19-8.42c1-1.08,2.11-1,3.53,0.24s0.72,6.37-1.11,8.06
		C378.35,342.62,378.35,342.62,376.86,341.7z"/>
	<path fill="#DDDDDD" d="M353.96,336.76c-1.03-1.91,0.43-6.27,2.58-7.74c1.72-1.19,2.21-1.28,5.63-1.2c2.08,0.05,2.3,0.16,2.82,1.37
		c0.5,1.2,0.42,1.51-0.85,3.49c-1.84,2.87-4.47,4.59-7.39,4.83C354.77,337.66,354.39,337.57,353.96,336.76z"/>
	<path fill="#DDDDDD" d="M344.1,327.08c-0.61-0.12-0.77-0.63-0.77-2.26c0-1.16-0.24-2.32-0.54-2.62c-0.3-0.3-1.63-0.55-2.98-0.58
		c-5.22-0.1-6.03-1.22-3.14-4.35c1.66-1.8,1.95-2.59,1.88-5.1c-0.27-8.69,0.01-11.45,1.72-18.21c0.54-2.11,0.71-2.3,2.13-2.58
		c1.35-0.26,1.68-0.12,2.55,0.98c0.55,0.69,1.36,2.09,1.78,3.14c0.67,1.6,0.98,1.87,2.1,1.9c0.88,0.02,2.61,0.93,5.09,2.65
		c2.07,1.43,4.99,3.47,6.52,4.5c1.51,1.04,2.76,2.18,2.77,2.54c0.01,0.37,0.51,1.45,1.11,2.43c0.6,0.98,1.1,2.11,1.11,2.54
		c0.01,0.68,0.32,0.75,2.33,0.51c2.08-0.24,2.49-0.13,3.96,0.99c1.42,1.09,1.61,1.45,1.47,2.8c-0.23,2.28-0.53,2.78-2.34,3.82
		c-1.64,0.95-1.65,0.95-3.64,0.07c-1.28-0.55-2.57-0.79-3.61-0.66c-1.29,0.16-1.82,0-2.57-0.8c-0.52-0.56-0.88-1.37-0.8-1.79
		c0.21-1.16-3.78-3.19-4.71-2.41c-0.37,0.31-0.67,1.01-0.67,1.57c0,1.57-0.8,3.33-2.12,4.65c-0.66,0.66-1.63,1.78-2.18,2.5
		c-1.39,1.84-3.11,3.66-3.53,3.72C345.87,327.2,344.78,327.22,344.1,327.08z"/>
	<path fill="#DDDDDD" d="M286.03,257.42c-1.47-0.48-3.38-1.73-5.25-3.48c-0.74-0.68-1.49-1.23-1.7-1.23
		c-0.88-0.01-2.94-1.9-2.94-2.7c0-1.11,7.01-10.57,7.83-10.57c1.11,0,5.17,4.28,6.37,6.7c1.79,3.66,3.04,7.11,3.04,8.44
		c0,0.9-0.42,1.47-1.7,2.32C289.92,258.08,288.45,258.21,286.03,257.42z"/>
	<path fill="#DDDDDD" d="M450.19,324.07c-0.09-0.09-2.89-0.27-6.23-0.41c-4.78-0.21-6.28-0.42-7-1.01
		c-0.51-0.41-1.55-1.29-2.32-1.93c-1.18-1-1.75-1.17-3.59-1.06c-2.41,0.13-3.86-0.28-8.47-2.43c-2.78-1.3-3.19-1.64-3.69-3.18
		c-0.51-1.53-0.49-1.78,0.17-2.15c0.82-0.46,1.01-1.26,0.3-1.26c-0.25,0-1.43-0.69-2.65-1.51s-2.8-1.64-3.54-1.81
		c-0.85-0.19-1.57-0.76-1.98-1.54c-0.98-1.88-3.24-3.28-5.74-3.54c-1.86-0.19-2.34-0.07-3.18,0.77c-0.73,0.74-1.51,1-2.91,1
		c-1.63,0-2.2,0.27-3.82,1.76l-1.89,1.76h-3.67c-6.1,0-7.46-1.13-8.05-6.55c-0.2-1.88-0.1-2.2,1.14-3.38c1.05-1,1.36-1.67,1.36-2.96
		c0-1.14,0.25-1.8,0.77-2.08c0.43-0.23,3.14-0.44,6.02-0.48c4.75-0.06,5.37-0.16,6.64-1.11c1.96-1.46,4.05-2.47,5.16-2.47
		c0.79,0,0.91-0.17,0.67-1c-0.35-1.17-0.61-2.21-0.66-2.59c-0.02-0.14-0.85-0.82-1.86-1.47c-1.71-1.14-1.81-1.32-1.59-2.91
		c0.12-0.95,0.52-2.26,0.87-2.95s1.67-3.27,2.93-5.74l2.29-4.49l-0.87-3.13c-0.82-2.97-3.4-7.09-5.58-8.89
		c-0.42-0.35-1.24-1.39-1.82-2.3c-0.61-0.96-1.99-2.18-3.24-2.88c-1.74-0.98-2.26-1.52-2.55-2.75c-0.33-1.39-0.51-1.52-1.67-1.4
		c-0.72,0.09-1.6,0.41-1.97,0.73s-1.48,0.98-2.51,1.49c-1.57,0.79-1.9,0.83-2.35,0.3c-0.75-0.9-0.14-2.46,1.46-3.87
		c1.35-1.19,1.36-1.22,0.51-1.86c-1.13-0.85-1.72-0.85-3.37,0.01c-1.73,0.9-2.59,0.55-2.59-1.06c0-0.85,0.3-1.4,0.9-1.67
		c0.84-0.37,0.76-0.54-1.21-2.46c-3.6-3.51-5.62-5.11-6.21-4.91c-0.31,0.11-0.55,0.87-0.55,1.7v1.51l-4.53,0.11
		c-2.5,0.06-5.85,0.08-7.46,0.05c-2.47-0.05-2.93,0.06-2.88,0.67c0.05,0.63-0.47,0.73-3.71,0.69c-2.07-0.02-5.85-0.2-8.4-0.38
		c-2.85-0.21-5.25-0.16-6.23,0.1c-1.95,0.55-3.42-0.37-4.18-2.62c-0.43-1.26-0.69-1.45-1.78-1.36c-5.21,0.45-5.47,0.43-6.8-0.55
		c-2.93-2.15-5.32-5.6-5.32-7.67c0-0.67,0.43-0.9,2.05-1.13c1.13-0.15,2.86-0.28,3.86-0.28c1.54,0,1.7-0.09,1.16-0.61
		c-0.97-0.9-3.4-1.6-5.53-1.6c-1.37,0-1.96-0.21-2.19-0.77c-0.78-1.9-1.42-5.59-1.31-7.52c0.55-9.1,0.73-10.14,2.62-15.66
		c2.76-8.03,4.8-11.76,7.3-13.23c3.96-2.35,10.35-1.7,11.11,1.14c0.3,1.11,0.12,1.54-1.17,2.95c-0.87,0.97-1.63,2.37-1.82,3.35
		c-0.17,0.93-0.61,2.14-0.98,2.7c-0.8,1.23-1.91,5.83-1.55,6.42c0.14,0.23,0.32,1.87,0.38,3.67c0.14,3.64,0.33,4.15,1.49,4.15
		c0.52,0,0.93-0.45,1.12-1.21c0.16-0.67,0.63-1.57,1.03-2.01c0.58-0.65,0.62-0.96,0.19-1.54c-1.11-1.55-1.57-3.02-1.6-5.1
		c-0.02-1.64,0.17-2.3,0.87-2.88c0.5-0.4,1.04-1.09,1.2-1.51c0.16-0.43,0.51-0.77,0.76-0.77s0.46-0.4,0.46-0.9
		c0-1.57,3.37-6.36,5.2-7.39c1.95-1.1,6.19-1.88,7.5-1.39c0.79,0.3,1.54,1.42,4.23,6.37c1.68,3.12,2.94,6.57,2.72,7.47
		c-0.32,1.26,1.32,3.37,2.6,3.37c0.53,0,1.72-0.22,2.64-0.47c1.39-0.38,1.63-0.62,1.4-1.34c-0.48-1.51,2.2-3.69,5.35-4.35
		c2.5-0.52,2.79-0.5,4.2,0.36c0.84,0.51,2.02,0.95,2.62,0.95c1.38,0.02,3.33,1.62,3.76,3.08c0.44,1.49,1.51,2.65,2.46,2.65
		c0.56,0,0.86,0.49,1.08,1.76c0.16,0.98,0.48,1.76,0.69,1.76s1.49,1.1,2.85,2.44c2.03,2.01,2.51,2.3,2.7,1.65
		c0.13-0.43,0.53-1.43,0.87-2.23c0.7-1.6,1.12-1.62,4.95-0.26c1.6,0.57,2.02,0.99,2.82,2.85c0.55,1.29,1.44,2.49,2.17,2.91
		c0.68,0.4,1.45,1.16,1.73,1.67c0.94,1.73,2,2.08,3.3,1.06c1.41-1.11,2.49-0.9,5.07,0.98c1.64,1.2,1.86,1.52,1.6,2.55
		c-0.76,3.06-0.79,3.65-0.19,3.53c0.33-0.07,0.96-0.68,1.37-1.35c1.12-1.76,2.47-1.56,4.62,0.67c2.03,2.11,2.98,3.66,3.04,4.97
		c0.11,2.47,0.26,2.73,1.72,3.43c0.84,0.4,1.84,1.33,2.21,2.05l0.69,1.33l-2.02,1.19c-1.65,0.98-2.2,1.11-3.05,0.72
		c-1.37-0.62-1.67-0.23-0.82,1.08c0.67,1.02,0.64,2.85-0.07,4.65c-0.38,0.98,1.1,2.31,3.25,2.96c0.94,0.28,2.47,1.04,3.41,1.67
		c0.96,0.65,2.42,1.2,3.27,1.24c0.85,0.04,2.05,0.28,2.65,0.54c0.61,0.26,2.26,0.37,3.67,0.27l2.56-0.2l2.36,2.47
		c2.08,2.16,2.59,2.48,4.17,2.52c1,0.03,2.05,0.09,2.33,0.11s0.67,0.72,0.84,1.51c0.16,0.8,0.43,1.58,0.59,1.75
		c0.16,0.16,1.67-0.19,3.37-0.77l3.07-1.07l1.66,0.96c1.55,0.89,1.67,1.11,1.8,3.27c0.16,2.87-0.08,3.9-1.23,5.23
		c-0.84,0.98-0.85,1.09-0.16,1.85c0.59,0.66,0.64,1.03,0.25,1.88c-0.27,0.59-0.38,1.77-0.24,2.62c0.33,2-1.16,4.26-2.79,4.26
		c-0.95,0-1.06,0.14-0.8,1c0.48,1.52,1.89,4.22,2.4,4.52c0.93,0.57,0.39,1.48-1.37,2.35c-1.79,0.89-1.85,0.89-3.37,0.07
		c-0.85-0.46-2.52-1.08-3.72-1.39c-1.87-0.48-2.37-0.87-3.68-2.83c-1.68-2.54-4.77-5.51-5.74-5.51c-0.34,0-0.9-0.26-1.21-0.57
		c-1.79-1.75-4.78-2.82-4.78-1.71c0,0.2-0.53,0.61-1.17,0.91l-1.17,0.54l1.2,1.26c1.43,1.49,1.42,3.52-0.01,4.23
		c-0.7,0.34-0.84,0.68-0.58,1.35c0.19,0.48,0.35,0.73,0.37,0.54c0.06-0.55,3.23,0.96,3.83,1.81c0.31,0.44,1.36,1.69,2.33,2.79
		c1.73,1.94,2.32,2.23,6.95,3.44c1.38,0.36,1.9,0.75,2.1,1.56c0.14,0.6,0.67,1.31,1.16,1.56c0.49,0.27,1.37,1.25,1.97,2.19
		c0.6,0.96,2.49,3.16,4.2,4.9l3.12,3.18L459,306.7c-0.05,3.39-0.23,6.24-0.41,6.35c-0.48,0.3-8.5-2.27-12.76-4.08
		c-2.08-0.88-4.39-2.14-5.14-2.79c-1.26-1.09-2.51-1.32-5.15-0.95c-0.76,0.11-0.25,0.86,0.9,1.34c0.69,0.28,1.59,1.19,2.04,1.99
		c0.66,1.22,1.4,1.72,4.18,2.77c1.86,0.71,5.52,2.67,8.13,4.35l4.75,3.07l-0.11,2.65l-0.11,2.65l-2.52,0.06
		C451.48,324.18,450.27,324.14,450.19,324.07z"/>
	<path fill="#DDDDDD" d="M385.88,322.41c-1.65-1.13-2.18-2.29-1.42-3.2c0.74-0.88,1.6-0.8,3.12,0.28c1.36,0.97,1.68,2.49,0.76,3.42
		C387.65,323.59,387.59,323.58,385.88,322.41z"/>
	<path fill="#DDDDDD" d="M390.71,317.38c-0.81-0.15-0.99-0.44-0.88-1.37c0.1-0.9,0.41-1.21,1.27-1.32c1.48-0.17,3.22,1.2,2.82,2.23
		C393.64,317.68,392.84,317.78,390.71,317.38z"/>
	<path fill="#DDDDDD" d="M383.56,268.25c-2.97-2.97-1.99-12.16,1.54-14.49c1.57-1.03,3.98-0.48,5.57,1.27
		c1.24,1.37,1.27,1.51,1.27,6.31c0,5.48-0.19,5.87-3.61,7.41C386.08,269.81,384.99,269.69,383.56,268.25z"/>
	<path fill="#DDDDDD" d="M395.7,260.14c-1.32-0.62-2.43-2.3-1.97-3.02c0.53-0.85,4.04-0.61,4.74,0.33c0.85,1.13,0.67,1.81-0.67,2.49
		C396.98,260.36,396.32,260.43,395.7,260.14z"/>
	<path fill="#DDDDDD" d="M369.26,248.44c-0.46-0.46-0.37-0.74,0.76-2.03c0.66-0.77,1.17-2.07,1.35-3.47
		c0.3-2.17,1.32-4.36,2.03-4.36c0.66,0,0.87,1.4,0.35,2.35c-0.29,0.53-0.48,1.61-0.43,2.41
		C373.47,245.73,370.41,249.59,369.26,248.44z"/>
	<path fill="#DDDDDD" d="M278.92,216.88c-1.14-0.95-2.09-2.07-2.13-2.51c-0.4-4.75-1.11-5.96-5.12-8.72
		c-0.77-0.53-2.04-2.14-2.8-3.6c-1.37-2.56-1.39-2.69-0.77-4.62c0.34-1.1,1.11-2.35,1.7-2.8c1.08-0.8,1.09-0.8,3.43,0.98
		c2.27,1.71,2.39,1.75,3.09,0.98c0.4-0.45,0.95-1.55,1.19-2.46c0.39-1.41,0.33-1.78-0.41-2.59c-2.11-2.3-2.64-3.74-2.17-5.95
		c0.51-2.39,1.84-4.5,2.85-4.5c0.38,0,1.73,0.6,3.01,1.34c1.99,1.14,2.4,1.24,2.85,0.69c1.09-1.32,5.94-2.33,6.98-1.47
		c0.32,0.27,0.55,1.45,0.55,2.79c0,1.81-0.17,2.4-0.77,2.63c-0.74,0.29-0.74,0.33,0,0.87c1.14,0.84,0.98,1.32-1.21,3.79
		c-1.1,1.23-1.99,2.44-1.99,2.69s0.6,0.66,1.34,0.92c1.02,0.35,1.34,0.74,1.34,1.63c0.01,0.65,0.3,1.67,0.65,2.28
		c1.32,2.28,1.63,3.4,1.84,6.49c0.19,2.83,0.1,3.37-0.89,4.92c-1.15,1.81-3.59,3.62-4.88,3.62c-0.41,0-0.64,0.19-0.5,0.4
		c0.43,0.7-1.83,2.95-3.49,3.45C281.07,218.55,280.88,218.5,278.92,216.88z"/>
	<path fill="#DDDDDD" d="M297.18,208.47c-0.95-0.75-1.17-1.29-1.17-2.85c0-1.06-0.21-2.47-0.46-3.14
		c-1.04-2.73-0.23-12.87,1.32-16.35c0.51-1.16,1.05-2.85,1.2-3.79c0.37-2.35,1.72-3.12,6.63-3.77c1.34-0.17,2.3,0.01,3.63,0.69
		c1,0.51,2.22,0.93,2.73,0.93c1.27,0,3.89,1.15,5.61,2.47c1.45,1.11,1.45,1.13,0.75,2.53c-0.39,0.77-1,1.73-1.35,2.13
		c-0.34,0.4-0.74,1.3-0.86,1.99c-0.12,0.7-0.9,2.26-1.71,3.48c-0.84,1.24-1.73,3.35-2.05,4.79c-0.31,1.42-0.77,2.65-1.03,2.73
		c-0.27,0.08-1.75,0.26-3.32,0.39c-1.56,0.13-2.99,0.4-3.17,0.59c-0.27,0.28-0.69,3.44-0.81,6.19c-0.04,0.72-2.34,1.88-3.71,1.88
		C298.84,209.39,297.83,208.97,297.18,208.47z"/>
	<path fill="#DDDDDD" d="M361.08,193.81c-2.05-3.34-4.99-9.69-4.77-10.29c0.38-1,9.29-0.88,11.16,0.14
		c2.54,1.39,5.69,4.67,7.17,7.46c0.87,1.63-0.4,2.43-3.7,2.3c-2.11-0.08-3.19,0.12-4.59,0.85
		C363.66,195.7,362.16,195.56,361.08,193.81z"/>
	<path fill="#DDDDDD" d="M317.02,172.91c-0.98-0.6-2.37-1.09-3.13-1.09c-2.26-0.01-2.93-0.83-3.09-3.88
		c-0.09-1.49-0.35-3.09-0.59-3.55c-0.7-1.3-0.97-5.42-0.41-6.44c0.27-0.5,0.52-2.02,0.56-3.37c0.07-2.08-0.11-2.7-1.13-4.01
		c-0.67-0.85-1.27-1.94-1.36-2.43c-0.12-0.76-0.61-0.93-3.47-1.16c-1.82-0.14-3.63-0.41-4.04-0.58c-1-0.43-5.07-5.57-5.37-6.8
		c-0.13-0.55-0.06-1.69,0.17-2.53c0.51-1.84,1.58-2.22,5.1-1.81c3.65,0.43,5.82,1.81,6.54,4.13c0.36,1.2,1.49,1.52,4.44,1.29
		c3.54-0.29,5.06,0.58,5.08,2.85c0.01,0.79,0.35,1.31,1.13,1.65c1.69,0.77,2.16,2.2,1.42,4.35c-0.62,1.79-0.61,1.81,0.85,3.25
		c0.81,0.79,1.47,1.88,1.47,2.43c0,0.82,0.32,1.03,1.87,1.26c1.03,0.15,3.58,0.61,5.63,1.01l3.76,0.74l2.47-1.18
		c1.36-0.65,2.69-1.18,2.94-1.18s1.32-0.71,2.34-1.57c1.84-1.53,1.94-1.56,5.46-1.47c4.13,0.1,5.4,0.46,8.44,2.43
		c3.66,2.36,5.61,5.66,4.2,7.07c-0.3,0.3-0.27,0.91,0.09,1.84c0.45,1.18,0.41,1.52-0.19,2.19c-0.39,0.44-0.79,1.49-0.88,2.33
		c-0.14,1.36-0.43,1.68-2.3,2.61c-3.67,1.83-9.03,1.82-9.84-0.02c-0.35-0.8-0.51-0.85-1.08-0.33c-0.36,0.33-1.54,1.05-2.63,1.58
		c-1.71,0.85-2.86,1-8.62,1.16c-7.09,0.17-8.73-0.15-9.29-1.9c-0.38-1.21-0.7-1.14-2.44,0.66c-0.82,0.85-1.7,1.54-1.96,1.53
		C318.98,174.01,318,173.5,317.02,172.91z"/>
	<path fill="#DDDDDD" d="M302,171.5c-0.91-0.23-5.8-3.56-7.04-4.79c-1.08-1.08-0.84-2.48,1.04-6c1.48-2.79,1.97-3.34,3.42-3.84
		c2-0.69,4.1-0.22,6,1.35c1.16,0.96,1.22,1.25,1.49,6.16c0.3,5.14,0.3,5.15-0.85,6.3C304.96,171.76,303.93,171.97,302,171.5z"/>
	<path fill="#DDDDDD" d="M284.68,163.39c-2.02-0.94-4.12-3.15-4.12-4.31c0-0.41,0.64-1.32,1.42-1.99l1.42-1.24l-4.1,0.13
		c-4.65,0.15-5.35-0.25-5.35-3.04c0-2.11-0.56-2.93-3.09-4.48c-1.22-0.76-2.22-1.48-2.22-1.63c0-0.14,0.33-0.84,0.75-1.52
		c0.7-1.18,0.89-1.24,2.76-1c2.4,0.32,3.57,0.85,3.57,1.62c0,0.32,0.89,1.49,1.97,2.64c1.46,1.53,2.3,2.07,3.27,2.07
		c1.16,0,1.31-0.17,1.47-1.6c0.2-1.72-0.42-2.6-2.86-4.05c-0.67-0.4-1.21-0.98-1.21-1.28c0-0.31,0.99-1.35,2.2-2.29
		c1.64-1.31,2.51-1.69,3.42-1.56c0.68,0.1,2.29,0.28,3.61,0.4c1.32,0.12,2.88,0.54,3.46,0.93l1.08,0.7l-0.25,8.2
		c-0.14,4.86-0.44,8.43-0.73,8.78c-0.28,0.33-0.35,1.22-0.19,2.11c0.45,2.38-0.33,3.4-2.57,3.37
		C287.35,164.23,285.7,163.84,284.68,163.39z"/>
	<path fill="#DDDDDD" d="M252.54,160.57c-1.81-1.12-3.02-1.14-4.21-0.06c-0.4,0.36-0.97,0.51-1.24,0.33
		c-0.69-0.42,1.73-10.52,2.47-10.35c0.33,0.07,0.5-0.73,0.5-2.25c0-2.96,2.08-13.44,2.93-14.77c1.32-2.05,4.78-0.35,3.64,1.78
		c-0.31,0.57-0.33,1.2-0.05,1.81c0.48,1.06,0.33,3.89-0.26,5.04c-0.22,0.42-0.37,1.55-0.34,2.53c0.04,1.51,0.2,1.79,1.11,1.91
		c0.58,0.09,1.93-0.1,3.01-0.4c1.76-0.49,2.04-0.46,2.8,0.3c1.63,1.63,2.03,7.76,0.62,9.65c-0.37,0.5-1.08,1.54-1.57,2.32
		C259.88,161.66,255.82,162.58,252.54,160.57z"/>
	<path fill="#DDDDDD" d="M264.61,160.5c-0.32-0.82-0.23-1.4,0.33-2.29c0.41-0.66,0.76-1.23,0.78-1.28s0.67-0.2,1.43-0.33
		c1.33-0.23,1.44-0.12,2.31,1.83c0.56,1.26,0.76,2.23,0.51,2.48c-0.23,0.23-1.42,0.48-2.69,0.56
		C265.22,161.59,265,161.49,264.61,160.5z"/>
	<path fill="#DDDDDD" d="M350.62,146.62c-0.15-0.49-0.17-1.05-0.06-1.24c0.33-0.55-0.25-1.22-1.7-1.97
		c-1.26-0.66-1.36-0.64-2.33,0.42c-0.76,0.82-1.29,1.03-1.99,0.8c-0.54-0.16-1.46-0.41-2.08-0.54c-0.61-0.12-1.54-0.75-2.07-1.37
		c-0.82-0.98-1.08-1.05-1.65-0.56c-0.38,0.32-0.7,1.11-0.7,1.74c0,1.51-1.4,2.41-3.19,2.02c-0.75-0.16-3.8-0.33-6.8-0.36
		c-4.77-0.06-5.6-0.19-6.68-0.99c-1.07-0.79-1.26-1.28-1.37-3.4c-0.09-1.61,0.11-2.95,0.56-3.82c1.06-2.05,3.67-4.44,4.83-4.44
		c1.88,0,2.16-1.03,0.66-2.47c-2.46-2.33-3.21-4.83-2.09-6.95c0.74-1.4,1.23-1.61,3.69-1.62c2.69-0.01,4.46,1.3,5.14,3.77
		c0.25,0.9,0.94,2.12,1.51,2.71c0.88,0.88,1.23,0.98,1.96,0.59c0.85-0.46,0.8-0.58-1.08-2.51c-1.09-1.12-2.2-2.59-2.5-3.3
		c-0.47-1.14-0.4-1.43,0.66-2.82l1.19-1.54h-3.01c-3.77,0-4.98-0.72-4.98-2.92c0-0.85,0.41-2.34,0.91-3.33
		c0.51-0.98,0.81-1.89,0.69-2.03c-0.7-0.7,1.28-2.77,3.93-4.13l2.93-1.49l2.94,1.54c3.73,1.96,3.51,1.87,3.53,1.22
		c0.01-0.31,0.16-0.91,0.34-1.35c0.17-0.43,0.14-0.79-0.06-0.82c-0.21-0.02-0.96-0.1-1.65-0.15c-1.82-0.16-4.83-3.53-5.81-6.5
		c-0.43-1.3-1.44-3.24-2.26-4.3c-0.81-1.07-1.47-2.09-1.47-2.29c0-0.19-0.38-0.47-0.85-0.62c-1.26-0.4-1.74-2.36-1.4-5.63
		c0.4-3.83,0.85-4.33,3.69-4.08c2.95,0.27,3.75,0.84,6.98,5.1c1.49,1.96,2.79,3.51,2.86,3.43c0.49-0.49-0.71-3.18-2.13-4.8
		c-2.19-2.5-2.1-3.82,0.35-5.07c0.98-0.49,2.56-1.43,3.53-2.09c0.98-0.66,2.11-1.2,2.54-1.2c0.49,0,0.78-0.33,0.78-0.9
		c0-0.5,0.81-1.69,1.79-2.67l1.79-1.76l-1.14-1.36c-0.62-0.75-1.15-1.68-1.16-2.08c-0.01-0.41-0.47,0.15-1.03,1.25
		c-2.73,5.38-4.84,7.27-8.17,7.32c-1.14,0.02-3.2,0.31-4.59,0.64c-3.51,0.84-4.93,0.33-5.12-1.86c-0.08-0.88,0.16-2.32,0.53-3.19
		c0.36-0.87,0.55-1.58,0.41-1.58c-0.48,0-1.9,1.89-1.9,2.51c0,0.33-0.51,1.09-1.14,1.66c-0.91,0.84-1.37,0.98-2.37,0.69
		c-2.96-0.85-5.11-3.33-4.03-4.64c0.48-0.58,0.41-0.68-0.37-0.68c-0.52,0-1.09-0.03-1.27-0.07c-0.73-0.14-1.41-1.56-1.42-2.97
		c-0.01-1.19,0.35-1.82,1.75-3.11c1.89-1.73,2.15-2.26,1.11-2.26c-0.37,0-1.06-0.4-1.54-0.88c-0.49-0.49-1.35-0.88-1.9-0.88
		c-3.83,0-2.79-4.1,1.46-5.77c0.85-0.33,2.27-1.36,3.16-2.28c1.36-1.42,1.88-1.68,3.47-1.68c1.75,0,1.85-0.07,1.6-1.07
		c-0.21-0.83,0.03-1.32,1.06-2.18c0.73-0.61,1.34-1.49,1.34-1.97c0-1.11,0.9-1.84,2-1.64c0.48,0.09,1.09,0.17,1.36,0.2
		c0.27,0.02,1.2,0.52,2.07,1.11c1.68,1.15,2.08,0.93,2.08-1.21c0-0.53,0.7-1.93,1.54-3.14c0.85-1.2,1.54-2.53,1.54-2.96
		s0.79-1.62,1.75-2.63c1.41-1.47,1.97-1.79,2.92-1.62c0.98,0.19,1.23,0.02,1.59-1.02c0.47-1.36,2.31-2.25,4.01-1.95
		c3.35,0.59,4.4,0.5,6.38-0.55c2.2-1.17,5.6-1.61,6.96-0.9c0.6,0.32,1.57,0.22,3.42-0.34c1.86-0.57,2.86-0.67,3.59-0.35
		c0.55,0.24,2.08,0.36,3.42,0.28c3.29-0.21,4.09,0.06,4.75,1.54c0.61,1.38,1.8,2.15,3.83,2.5c1.7,0.29,2.44,1.08,2.93,3.17
		c0.62,2.66,0.5,5-0.43,8.37c-0.66,2.36-1.2,3.37-2.3,4.3c-0.8,0.67-1.68,1.21-1.97,1.21c-0.8,0-3.06,2.77-4.33,5.32
		c-0.63,1.25-1.15,2.36-1.15,2.48c0,0.58,2.23-1.53,2.64-2.49c0.27-0.61,1.07-1.5,1.79-1.99c0.73-0.49,1.32-1.03,1.32-1.21
		c0-0.51,2.12-0.4,2.44,0.11c0.15,0.25,0.28,1.55,0.28,2.92c0,1.86-0.27,2.86-1.08,4.08c-1.65,2.51-3.03,5.37-2.85,5.93
		c0.1,0.28-0.76,2.59-1.89,5.16c-1.14,2.56-2.27,5.15-2.52,5.77c-0.56,1.36-1.51,6.22-1.68,8.63c-0.17,2.32-2.26,4.32-4.3,4.11
		c-1.24-0.12-1.4,0-1.67,1.34c-0.16,0.8-0.75,1.93-1.3,2.51c-0.94,0.99-4.56,2.57-4.97,2.16c-0.1-0.1-0.56,0.24-1.03,0.76
		c-0.84,0.94-0.83,0.96,0.14,1.6c1.19,0.79,1.32,2.56,0.27,3.73c-0.59,0.66-0.61,0.82-0.11,0.86c0.34,0.03,0.82,0.1,1.06,0.15
		c0.25,0.06,0.81,0.12,1.26,0.17c0.45,0.04,1.39,0.69,2.09,1.43c1.62,1.73,1.84,4.9,0.4,5.8c-1.16,0.73-1.12,1.14,0.22,2.18
		c0.61,0.48,1.11,1.25,1.11,1.71c0,0.54-0.41,0.96-1.11,1.13c-0.9,0.23-1.11,0.55-1.11,1.69c0,1.98-1.97,4.1-4,4.3l-1.54,0.14
		l0.14,3.33c0.13,2.99,0.05,3.43-0.88,4.42c-2.72,2.88-2.73,2.9-1.88,4.17c0.42,0.64,1.38,1.47,2.13,1.86
		c0.76,0.39,1.59,1.01,1.86,1.39c0.67,0.9,0.4,3.17-0.62,5.48C357.82,145.38,351.47,149.3,350.62,146.62z"/>
	<path fill="#DDDDDD" d="M267.95,130.07c-1.22-1.22-1.43-3.15-0.62-5.5c0.6-1.72,1.4-1.76,2.54-0.14c1.73,2.44,1.76,5.36,0.06,6.28
		C269.21,131.09,268.86,130.98,267.95,130.07z"/>
	<path fill="#DDDDDD" d="M300.49,129.47c-3.16-1.63-3.49-3.22-1.12-5.33c1.93-1.71,4.36-1.89,6.63-0.51
		c2.47,1.52,2.51,3.48,0.11,5.5C304.63,130.41,302.53,130.52,300.49,129.47z"/>
	<path fill="#DDDDDD" d="M296.63,122.11c-1.46-0.64-2.15-1.91-1.73-3.23c0.15-0.49-0.26-1.36-1.09-2.32
		c-1.62-1.87-1.93-2.96-1.63-5.64c0.27-2.37,1.62-3.83,3.15-3.39c0.52,0.14,2.11,1.05,3.55,1.99c1.43,0.96,2.75,1.72,2.92,1.72
		c0.72,0,1.34,2.47,1.34,5.3v3.05l-2.05,1.57C298.75,122.93,298.59,122.97,296.63,122.11z"/>
	<path fill="#DDDDDD" d="M287.06,121.27c-0.54-0.56-1.67-1.83-2.52-2.8c-2.73-3.12-4.07-3.86-6.85-3.75
		c-2.2,0.09-2.59-0.04-3.77-1.21c-1.37-1.37-1.67-2.97-0.86-4.5c0.25-0.47,0.75-0.85,1.11-0.85c0.35,0,1.03-0.38,1.5-0.85
		c0.75-0.75,0.79-1.09,0.4-2.54c-0.28-1.01-1.07-2.18-1.96-2.94c-2.83-2.35-1.61-6.04,2-6.04c1.96,0,4.46,1.73,4.46,3.11
		c0,0.82,0.64,1.43,1.64,1.59c1.08,0.16,3.17,2.18,4.11,4.02c0.54,1.03,1.34,2.23,1.75,2.68c1.51,1.63,1.72,2.44,1.08,4.3
		c-0.88,2.51-0.79,3.09,0.7,4.79c0.74,0.83,1.34,1.83,1.34,2.2c0,1.27-0.98,2.85-2.06,3.35
		C288.19,122.23,287.89,122.15,287.06,121.27z"/>
	<path fill="#DDDDDD" d="M312.43,116.48c-0.99-1.03-1.91-2.24-2.07-2.69c-0.14-0.45-0.77-1.36-1.37-2.02
		c-1.58-1.7-3.24-5.14-3.24-6.73c0-1.75,1.72-3.54,3.42-3.54c1.16,0,2.77-1.26,2.77-2.14c0-0.4-2.14-1.55-2.88-1.54
		c-0.25,0-1.39,0.16-2.53,0.35c-2.68,0.45-4.04,0.09-4.64-1.2c-0.35-0.77-0.31-1.34,0.16-2.22c0.37-0.72,0.45-1.2,0.17-1.2
		c-0.25,0-0.85-0.4-1.35-0.88c-1-1-1.16-3.08-0.4-5.24c0.43-1.24,0.67-1.39,2.24-1.39c1.62,0,1.73-0.08,1.43-0.99
		c-0.17-0.55-0.91-1.51-1.63-2.14c-1.12-0.98-1.27-1.36-1.01-2.51c0.35-1.62,1.24-2.46,2.83-2.64c2.75-0.33,2.84-0.66,0.72-2.91
		l-1.55-1.64l0.9-1.75c0.49-0.98,1.47-2.06,2.19-2.43c1.03-0.54,1.33-1.01,1.43-2.32c0.12-1.55,0.25-1.67,1.7-1.79
		c1.61-0.13,4.18,1.21,4.89,2.56c0.98,1.9,2.17,4.75,2.17,5.21c0,0.96,1.86,3.84,3.81,5.93c1.42,1.52,1.93,2.44,1.93,3.45
		c0,1.04,0.54,1.93,2.21,3.71c1.93,2.05,2.21,2.57,2.21,4.2c0,1.97,0.16,2.19,4.4,5.72c1.58,1.32,1.79,1.7,1.79,3.39
		c0,1.63-0.37,2.38-2.64,5.39c-1.44,1.92-3.15,3.77-3.76,4.09c-0.74,0.39-1.13,0.98-1.13,1.68c0,0.6-0.74,2.07-1.63,3.24
		c-1.82,2.39-2.09,2.52-3.98,1.95c-0.84-0.26-0.98-0.11-1.11,1.17c-0.13,1.42-0.2,1.45-2.43,1.58
		C314.33,118.36,314.14,118.27,312.43,116.48z"/>
	<path fill="#DDDDDD" d="M257.7,109.47c0.13-0.61,0.38-1.85,0.55-2.76c0.16-0.92,0.48-1.65,0.71-1.65c0.64,0-0.06,4.11-0.82,4.86
		C257.53,110.52,257.49,110.47,257.7,109.47z"/>
	<path fill="#DDDDDD" d="M291.16,90.35c-1.5-1.2-2.55-3-2.31-3.98c0.37-1.52,1-2.09,2.29-2.09c0.91,0,1.47,0.43,2.37,1.81
		c1.42,2.16,1.46,2.77,0.31,3.95C292.81,91.04,292.11,91.11,291.16,90.35z"/>
</g>
<path id="ca-on" fill="#DDDDDD" d="M379.34,576.76c0.47-0.91,1.08-1.31,2.3-1.5c0.93-0.15,1.93-0.45,2.25-0.65
	c0.82-0.54,1.24-3.61,0.56-4.04c-0.39-0.25-0.43-0.59-0.12-1.18c0.24-0.46,0.56-1.57,0.74-2.48c0.16-0.91,0.66-1.9,1.11-2.21
	c1.59-1.13,2.98-3.7,2.83-5.26c-0.08-0.82-0.17-3.11-0.22-5.09c-0.07-3.37,0.03-3.77,1.51-6.44l1.58-2.84l-0.79-1.75
	c-0.43-0.97-1.22-2.12-1.73-2.59c-0.93-0.82-1.29-2.04-0.61-2.04c0.19,0,1.5,1.19,2.93,2.64c2.35,2.4,4.74,3.95,7.11,4.6
	c2.43,0.67,3.76-3.39,1.96-5.99c-1.17-1.69-5.99-6.91-7.22-7.84c-0.46-0.34-2.15-0.77-3.76-0.97c-1.6-0.19-4.01-0.66-5.34-1.03
	c-1.71-0.5-4.3-0.7-8.92-0.7c-6.08,0-6.56-0.06-7.14-0.91c-0.35-0.51-1.68-1.44-2.97-2.11c-1.89-0.98-2.33-1.42-2.38-2.39
	c-0.03-0.66-0.62-1.78-1.33-2.51c-1.09-1.14-1.17-1.37-0.54-1.6c0.98-0.37,0.93-1.34-0.16-2.87c-0.5-0.7-1.29-2.14-1.76-3.22
	c-0.76-1.7-1.08-1.98-2.56-2.22c-1.7-0.28-6.4-2.51-7.54-3.61c-0.33-0.33-0.66-1.35-0.73-2.28c-0.07-0.95-0.27-2.27-0.45-2.96
	l-0.33-1.27l-3.58,0.23c-3.31,0.22-3.76,0.14-6.13-1.06l-2.56-1.3l-1.83,1.16c-1.65,1.05-1.76,1.21-1.13,1.85
	c0.64,0.64,0.43,0.87-2.26,2.62c-1.63,1.06-3.68,2.7-4.56,3.64c-1.79,1.91-2,1.93-8.35,0.89c-1.83-0.31-4.72-0.59-6.45-0.64
	c-2.97-0.09-5.93-1.13-5.93-2.09c0-0.19-0.51-0.35-1.14-0.35c-0.7,0-1.77-0.61-2.76-1.54c-1.62-1.53-1.65-1.54-5.69-1.54
	c-2.93,0-4.24-0.17-4.69-0.64c-0.35-0.35-1.4-0.77-2.35-0.95c-2.44-0.44-2.69-0.77-3.03-3.86c-0.28-2.52-0.41-2.81-1.7-3.46
	c-1.36-0.69-1.4-0.81-1.36-3.32c0.06-2.83,0.58-14.68,0.84-18.96c0.09-1.45,0.3-5.81,0.45-9.67c0.35-8.82-0.41-7.43,10.14-18.39
	c2.22-2.3,5.33-5.67,6.89-7.46c1.57-1.79,3.06-3.5,3.32-3.76c0.25-0.27,2.84-3.28,5.75-6.68c2.91-3.4,6.28-7.29,7.49-8.63
	c5.96-6.6,8.63-9.58,9.44-10.6l0.88-1.11l1.46,0.84c1.81,1.03,4.78,3.82,4.78,4.47c0,0.27,0.66,1.13,1.44,1.89
	c1.08,1.05,2.14,1.54,4.08,1.91c1.82,0.35,3.05,0.9,3.98,1.76c1.26,1.19,2.38,1.61,4.43,1.68c0.5,0.02,1.99,1,3.32,2.17l2.41,2.14
	l8.29,0.28c7.22,0.25,8.52,0.4,10.11,1.21l1.83,0.94l-0.31,3.83c-0.16,2.11-0.47,4.01-0.69,4.21c-0.22,0.22-0.01,0.99,0.46,1.75
	c0.46,0.76,0.96,2.28,1.11,3.38c0.48,3.54,0.56,3.9,0.98,4.72c0.23,0.45,0.34,1.72,0.27,2.85c-0.11,1.64,0.11,2.43,1.18,4.1
	c1.7,2.69,7.02,9.12,7.54,9.12c1.01,0,3.83,3.65,4.63,5.98l0.85,2.51l2.73-0.21l2.73-0.21l0.28,2.26c0.45,3.58,0.63,5.17,0.88,7.78
	c0.12,1.35,0.33,2.93,0.43,3.54c0.11,0.61,0.32,2.29,0.46,3.76c0.14,1.45,0.33,3.15,0.43,3.76c0.22,1.44,0.63,4.98,0.92,7.74
	c0.12,1.21,0.32,2.91,0.42,3.76c0.67,5.33,1.1,8.95,1.34,11.23c0.14,1.42,0.87,3.94,1.6,5.57c1.13,2.51,1.73,3.25,3.9,4.77
	c2.86,2.01,6.84,3.43,10.86,3.86c1.84,0.2,3.28,0.68,4.68,1.57c1.12,0.72,2.41,1.3,2.88,1.31c0.48,0.01,1.38,0.77,2.06,1.72
	l1.21,1.71l3.82-0.21c3.31-0.19,4.18-0.41,6.61-1.74c2.8-1.53,5.03-2.24,5.1-1.6c0.07,0.68,0.33,1.79,0.62,2.73
	c0.24,0.75-0.06,1.25-1.39,2.37c-2.76,2.33-5.06,4.77-8.33,8.83c-1.7,2.11-3.3,3.86-3.54,3.87c-0.75,0.06-2.51,1.72-2.26,2.13
	c0.52,0.83-3.03,2.17-5.97,2.26c-5.27,0.16-12.87,3.29-14.51,5.96c-1.6,2.65-1.59,3.3,0.08,4.01c0.83,0.35,1.89,0.53,2.36,0.41
	c0.66-0.17,1.04,0.14,1.59,1.32c0.86,1.8,0.57,2.06-2.4,2.06c-1.79,0-6.63,1.83-7.86,2.97c-0.59,0.54-0.54,0.72,0.43,1.43l1.1,0.83
	l-1.21,0.31c-0.67,0.16-2.09,0.09-3.17-0.19c-4.18-1.06-5.18-0.59-10.4,4.88c-2.86,3-3.53,3.48-4.86,3.51
	c-0.85,0.02-2.19,0.11-2.97,0.19l-1.42,0.14L379.34,576.76z"/>
<path id="ca-pe" fill="#DDDDDD" d="M534.59,498.2c-0.12-0.12-1.88-0.31-3.92-0.39c-2.02-0.09-4.77-0.48-6.11-0.87
	c-2.96-0.87-3.58-1.02-4.42-1.07c-1.8-0.11-1.99-0.77-0.9-3.09c0.58-1.23,1.32-2.24,1.63-2.24c0.33,0,1.47,0.87,2.58,1.91
	c1.61,1.54,2.09,1.8,2.5,1.34c0.3-0.35,1.39-0.59,2.68-0.59c1.2,0,2.51-0.17,2.93-0.4c1.42-0.76,5.37-1.76,5.57-1.42
	c0.11,0.19-0.07,0.88-0.41,1.53c-0.34,0.65-0.67,2.08-0.73,3.17C535.91,497.82,535.23,498.84,534.59,498.2z"/>
<g id="ca-qc">
	<path fill="#DDDDDD" d="M445.35,530.86c-0.4-0.67-0.8-1.91-0.9-2.76c-0.16-1.45-0.28-1.54-1.99-1.67
		c-1.83-0.13-4.18,0.77-6.81,2.62c-0.9,0.63-1.96,0.82-4.47,0.82c-3.28,0-3.31-0.01-4.35-1.54c-0.58-0.85-1.42-1.54-1.88-1.54
		s-1.84-0.62-3.08-1.38c-1.56-0.97-2.98-1.43-4.7-1.58c-3.74-0.33-7.88-1.68-10.42-3.44c-1.87-1.3-2.53-2.11-3.64-4.54
		c-0.81-1.8-1.45-4.1-1.63-5.84c-0.15-1.58-0.36-3.47-0.46-4.2c-0.1-0.74-0.4-3.22-0.67-5.53c-0.27-2.3-0.57-4.89-0.68-5.75
		c-0.1-0.85-0.3-2.44-0.43-3.54c-0.12-1.1-0.84-7.16-1.55-13.48c-0.73-6.32-1.42-12.02-1.56-12.65c-0.22-1.01-0.07-1.2,1.15-1.43
		c1.28-0.26,1.36-0.38,1.09-1.63c-0.23-1.06-0.03-1.76,0.93-3.2c0.67-1.01,1.22-2.34,1.21-2.95c0-0.61-0.81-2.8-1.79-4.87
		c-0.99-2.07-2.01-4.54-2.27-5.53c-0.27-0.98-0.81-2.25-1.23-2.85c-0.51-0.74-0.72-1.76-0.64-3.21c0.12-2.3-1.05-4.83-2.64-5.69
		c-0.51-0.28-0.85-0.94-0.85-1.65c-0.01-0.66-0.4-1.69-0.88-2.3s-0.87-1.31-0.88-1.54c-0.01-0.66,2.14-2.57,4.64-4.1
		c1.21-0.75,2.83-2.11,3.61-3.04s2.29-2.65,3.38-3.84c1.33-1.44,2.51-3.47,3.6-6.13c1.46-3.6,1.61-4.3,1.54-7.7
		c-0.06-2.74-0.41-4.7-1.31-7.35c-0.67-1.99-1.35-4.15-1.48-4.8c-0.46-2.05-4.41-6.29-7.27-7.8c-3.41-1.82-6.04-4.44-6.18-6.17
		c-0.06-0.73,0.24-2.08,0.65-3.03s0.8-2.02,0.87-2.38c0.07-0.36,0.53-1,1.03-1.4c0.69-0.56,0.91-1.25,0.91-2.85
		c0-1.48,0.26-2.38,0.87-3.03c0.8-0.85,0.82-1.06,0.24-2.75c-0.34-1.01-0.72-2.31-0.83-2.93c-0.25-1.36-1.41-3.64-2.73-5.4
		c-0.91-1.2-1.01-1.81-1.01-6.34c-0.01-3.62-0.17-5.22-0.62-5.75c-0.33-0.4-1.19-2.09-1.86-3.77l-1.26-3.03l1.14-2.31
		c1.09-2.21,1.24-2.33,3.22-2.61c3.32-0.46,6.14-0.33,8.05,0.34c2.53,0.9,6.06,1.21,7.48,0.67c0.67-0.26,2-1.24,2.97-2.2
		c0.98-0.96,1.96-1.73,2.23-1.73c0.77,0.02,9.31,4.51,12.15,6.4c2.16,1.43,2.64,1.97,2.58,2.88c-0.05,0.61,0.26,1.61,0.67,2.23
		c0.67,1.01,1.21,1.19,5.28,1.67c2.5,0.31,5.51,0.86,6.68,1.24l2.14,0.7l-0.31,2.42c-0.3,2.35,0.04,3.89,2.08,9.64
		c0.27,0.74,0.45,1.86,0.43,2.54c-0.03,0.76,0.38,1.64,1.08,2.32c0.62,0.62,1.51,2.01,1.99,3.1l0.88,1.97l2.18-0.27
		c2.09-0.26,2.26-0.19,4.51,1.73c1.29,1.11,2.89,2.13,3.56,2.3c0.67,0.17,1.21,0.48,1.21,0.7c0,0.82,0.95,0.33,2.82-1.48
		c1.44-1.4,2.02-2.33,2.25-3.7c0.22-1.28,0.59-1.95,1.3-2.28c0.61-0.28,1.23-1.2,1.6-2.37c0.69-2.18,0.61-6.78-0.12-8.11
		c-0.28-0.49-0.44-1.09-0.37-1.33s0.33-1.52,0.58-2.85c0.4-2.19,1.44-3.77,2.19-3.32c0.16,0.1,0.42,0.93,0.59,1.84
		c0.37,2.06,2.28,5.42,3.07,5.42c0.54,0,1.79,4.42,1.57,5.53c-0.25,1.2,0.11,1.37,2.56,1.2l2.54-0.19l-0.07,2.81
		c-0.04,1.54-0.28,3.48-0.54,4.3c-0.31,0.98-0.33,1.77-0.05,2.28c0.52,0.97,2.87,2.46,4.49,2.87c1.48,0.37,1.61,0.76,1.9,5.95
		c0.12,2.29,0.52,5.17,0.85,6.4c0.33,1.23,0.74,2.94,0.88,3.81c0.17,1.07,0.71,1.9,1.62,2.58c1.34,0.98,3.48,4.85,3.49,6.27
		c0,0.38,0.37,1.05,0.83,1.44c0.45,0.41,1.17,1.51,1.58,2.45c0.75,1.64,0.74,1.77-0.16,3.8l-0.93,2.09l-2.32-0.25
		c-1.28-0.12-2.94-0.37-3.68-0.54c-1.2-0.27-1.47-0.11-2.43,1.3c-1.19,1.73-1.93,1.94-3.11,0.9c-0.42-0.38-1.98-0.96-3.47-1.25
		c-2.95-0.61-3.24-0.49-3.74,1.63c-0.16,0.7-0.76,1.44-1.39,1.73c-0.85,0.38-1.09,0.84-1.09,1.97c0,1.06-0.4,1.89-1.37,2.92
		c-1.2,1.26-1.35,1.65-1.13,3.22c0.13,0.98,0.52,2.3,0.85,2.95c1.01,1.94,3.64,4.59,5.46,5.47c1.91,0.95,2.23,1.99,1.36,4.52
		c-0.48,1.38-0.43,1.55,0.77,2.58c1.3,1.11,2.82,1.21,5.38,0.37c0.85-0.28,0.97-0.1,1.24,1.97c0.21,1.57,0.65,2.63,1.42,3.39
		c1.01,1.01,1.34,1.09,3.56,0.8c2-0.25,2.59-0.16,3.31,0.48c0.48,0.43,1.21,0.85,1.62,0.93c2.06,0.37,6.58,0.49,7.08,0.17
		c0.32-0.2,0.66-1.23,0.77-2.29c0.25-2.5,0.57-5.45,0.61-5.6c0.02-0.07,0.85,0.31,1.86,0.81c1.35,0.69,2.3,0.87,3.64,0.69
		c1.91-0.26,9.01-2.67,16.41-5.57c11.37-4.47,18.36-7.04,20.96-7.7c1.56-0.4,3.11-0.96,3.44-1.22c0.35-0.3,0.75-0.33,0.96-0.1
		c1.03,1.2,3.16,4.09,3.16,4.3c0,0.12-1.24,1.2-2.76,2.35c-4.05,3.09-6.47,5.84-6.74,7.67c-0.12,0.85-1.13,3.34-2.22,5.53
		s-2.16,4.47-2.38,5.09c-0.5,1.37-7.64,5.21-12.2,6.56c-1.7,0.5-5.48,1.6-8.4,2.45c-17.1,4.95-25.36,8.06-26.9,10.13
		c-0.46,0.61-1.01,2.08-1.22,3.26c-0.22,1.19-0.81,3.5-1.32,5.14c-0.8,2.59-1.06,2.98-1.97,2.98c-2.1,0-6.45,4.92-7.97,9.07
		c-0.45,1.21-1.44,3.21-2.22,4.43c-0.77,1.21-1.49,2.92-1.62,3.76c-0.51,3.71-7.28,14.69-10.82,17.51
		c-4.95,3.97-11.78,11.22-11.13,11.85c0.1,0.1,1.86-1.69,3.94-3.99c2.07-2.29,5.07-5.14,6.67-6.34c2.75-2.07,5.76-5.24,7.76-8.2
		c1.79-2.65,5.02-9.04,5.02-9.95c0-0.52,0.23-1.37,0.51-1.9c0.8-1.53,4.87-6.56,6.57-8.09c0.85-0.77,2.53-2.32,3.75-3.43
		c1.21-1.12,3.39-2.75,4.86-3.65c1.46-0.89,4.15-2.65,5.98-3.92c2.3-1.59,4.18-2.51,6.21-3c2.72-0.67,3.04-0.67,5.48,0.09
		c2.12,0.66,2.73,1.08,3.38,2.29c1.75,3.35,1.47,5.61-1.06,8.7c-2.46,2.98-3.37,3.58-5.96,3.83c-5.07,0.52-9.29,1.7-10.68,3
		c-1.79,1.67-3.27,2.18-6.77,2.31c-4.18,0.16-4.43,0.46-4.07,4.89l0.29,3.62l-1.7,0.28c-0.95,0.14-2.23,0.17-2.88,0.06
		c-0.87-0.16-1.36,0.05-1.88,0.78c-0.87,1.23-2.75,7.35-3.09,10.06c-0.13,1.1-0.45,3.29-0.69,4.86c-0.24,1.58-0.52,3.74-0.62,4.77
		c-0.34,3.41-1.65,6.33-3.41,7.56c-0.88,0.62-2.06,1.78-2.6,2.58c-0.55,0.79-1.42,1.52-1.93,1.63c-0.52,0.1-4.15,0.9-8.09,1.76
		c-3.94,0.87-8.21,1.57-9.51,1.57C446.33,532.09,446,531.96,445.35,530.86z"/>
	<path fill="#DDDDDD" d="M517.5,463.21c-0.61-0.1-1.6-0.52-2.21-0.95c-0.61-0.42-2.25-1.01-3.63-1.32c-3.17-0.69-3.78-1.82-1.84-3.4
		c1.01-0.82,1.84-1.05,4.13-1.11c6.03-0.14,8.21,0.11,12.26,1.47c4.04,1.37,4.08,1.39,4.08,2.81c0,1.68-0.16,1.76-5.09,2.17
		C519.87,463.37,518.7,463.41,517.5,463.21z"/>
</g>
<path id="ca-sk" fill="#DDDDDD" d="M233.66,492.58c-0.1-0.1-1.78-0.31-3.72-0.47s-4.04-0.37-4.64-0.46c-0.61-0.09-2.4-0.3-3.98-0.45
	s-3.38-0.35-3.98-0.44c-0.61-0.09-2.4-0.3-3.98-0.45c-1.57-0.16-7.75-1.39-13.7-2.73c-5.96-1.35-11.13-2.5-11.49-2.57
	c-2.01-0.43-3.15-0.69-5.75-1.3c-1.58-0.37-3.27-0.75-3.76-0.83s-2.43-0.51-4.32-0.95c-2.8-0.64-3.39-0.93-3.21-1.51
	c0.22-0.68,3.69-14.96,4-16.42c0.08-0.37,0.76-3.25,1.52-6.42c0.76-3.17,2.09-8.73,2.97-12.37c0.87-3.64,2.57-10.71,3.79-15.69
	c1.21-4.98,2.28-9.47,2.37-9.94c0.1-0.49,0.77-3.37,1.51-6.42c0.74-3.04,2.23-9.31,3.35-13.92c1.11-4.62,2.68-11.19,3.51-14.59
	c0.82-3.4,2.22-9.21,3.11-12.89l1.61-6.71l2.29,0.19c1.26,0.11,3.27,0.33,4.46,0.52c1.2,0.17,3.72,0.14,5.6-0.08
	c3.24-0.38,3.59-0.33,6.13,0.8c2.51,1.13,3.58,1.21,3.58,0.28c0-0.5-9.4-5.07-11.72-5.71c-0.98-0.27-2.22-0.49-2.76-0.49
	c-0.55,0-1.39-0.4-1.87-0.89c-0.98-0.98-2.26-1.13-3.58-0.43c-1.01,0.54-1.03,0.4-0.37-2.66c0.38-1.76,0.64-2.2,1.21-2.04
	c0.66,0.19,3.79,0.83,6.73,1.39c0.59,0.11,1.46,0.29,1.95,0.38c1.47,0.31,19.81,3.89,20.99,4.08c0.61,0.11,3.5,0.67,6.42,1.25
	s6.1,1.14,7.07,1.23c1.7,0.16,1.76,0.23,1.7,1.68c-0.04,0.84-0.58,5.19-1.2,9.69c-0.62,4.49-1.26,9.18-1.42,10.38
	c-0.28,2.17-0.81,3.32-1.55,3.32c-0.68,0-3.33,2.94-3.9,4.32c-0.42,1.01-0.45,1.75-0.11,2.83c0.98,3.12,0.81,4.65-0.7,6.21
	c-0.98,1.01-1.3,1.64-1.02,2.08c0.32,0.51,0.65,0.4,1.78-0.56c0.77-0.65,1.69-1.19,2.06-1.19c0.67,0,0.66,1.39-0.06,10.16
	c-0.11,1.35-0.32,4.22-0.45,6.42c-0.13,2.18-0.33,4.87-0.44,5.97c-0.1,1.1-0.31,3.98-0.45,6.42s-0.33,5.12-0.44,5.97
	c-0.1,0.85-0.3,3.74-0.45,6.42s-0.35,5.35-0.43,5.97c-0.09,0.61-0.3,3.5-0.46,6.42s-0.35,5.6-0.42,5.97
	c-0.07,0.37-0.27,3.15-0.44,6.19s-0.37,5.82-0.45,6.19c-0.07,0.37-0.27,3.16-0.45,6.19c-0.17,3.04-0.38,5.88-0.47,6.31
	s-0.19,2.08-0.25,3.64C234.88,492.44,234.46,493.32,233.66,492.58z"/>
<path id="ca-yt" fill="#DDDDDD" d="M118.96,325.51c-0.48-0.31-2.34-1.23-4.17-2.06c-2.79-1.25-12.38-6.23-28.15-14.61
	c-5.01-2.66-23.36-14.07-36.94-22.97c-4.81-3.15-6.96-4.81-6.96-5.37c0-1.13,1.36-3.27,2.79-4.38c2.56-2.01,1.09-3.32-3.97-3.48
	c-1-0.03-1.44-0.3-1.62-0.95c-0.12-0.49-0.4-0.85-0.61-0.79c-0.83,0.23-2.32-0.62-2.59-1.45c-0.22-0.67,0.84-2.54,4.11-7.38
	c6.09-8.98,17.34-25.64,26.02-38.54c6.91-10.28,15.86-23.52,27.94-41.42l5.43-8.03l1.4,0.49c2.9,1,3.74,1.99,4.07,4.82
	c0.16,1.43,0.76,3.53,1.34,4.65c0.57,1.13,1.17,2.8,1.33,3.74c0.22,1.25,0.76,2.11,2.09,3.25c1.64,1.41,1.74,1.61,1.15,2.32
	c-0.94,1.1-5.4,8.38-6.45,10.51c-0.48,0.98-1.23,2.86-1.65,4.2s-1.23,3.33-1.77,4.42c-1.92,3.89-2.04,3.6,2.64,7.1
	c3.22,2.42,4.22,3.42,4.22,4.2c0,0.57-0.72,2.4-1.58,4.06c-1.03,1.97-1.65,3.87-1.81,5.46c-0.23,2.38-0.2,2.46,1.38,3.66
	c1.72,1.32,1.65,0.96,1.16,6.1c-0.02,0.16-0.61,0.43-1.33,0.58c-1.4,0.31-2.69,1.87-2.69,3.29c0,0.48-0.4,1.55-0.9,2.39
	c-0.98,1.63-0.76,3.1,0.62,4.24c0.51,0.42,0.64,1.07,0.48,2.33c-0.17,1.35,0.01,2.08,0.76,3.14c0.71,0.99,1,2.08,1.05,3.85
	c0.04,1.37,0.41,3.14,0.84,3.97c0.75,1.43,0.75,1.62-0.12,4.64c-1.16,4.03-1.72,7.14-2.04,11.39c-0.14,1.86-0.48,4.02-0.75,4.78
	c-0.43,1.24-0.37,1.52,0.62,2.58c1.47,1.58,1.88,2.46,2.75,5.84c0.4,1.57,1.3,3.9,1.97,5.15c0.9,1.67,1.09,2.35,0.68,2.51
	c-0.31,0.11-0.67,1.18-0.79,2.34c-0.12,1.18-0.37,2.69-0.55,3.37c-0.38,1.47,0.19,2.02,3.77,3.66c1.35,0.61,3.19,1.64,4.12,2.29
	c0.95,0.65,2.23,1.19,2.88,1.2l1.18,0.02l-0.12,4.62c-0.07,2.54-0.17,4.68-0.25,4.74C119.87,326.02,119.43,325.82,118.96,325.51z"/>
</svg>
