<svg version="1.1" id="svg2" xmlns="http://www.w3.org/2000/svg" xmlns:xlink="http://www.w3.org/1999/xlink" x="0px" y="0px"
	 width="1000px" height="1000px" viewBox="0 0 1000 1000" enable-background="new 0 0 1000 1000" xml:space="preserve">
<g id="landmarks-departments">
	<path id="fr-d13" fill="#DDDDDD" stroke="#FFFFFF" d="M741.35,801.33l-10.5,6.01l-2.71,20.16l-11.1-1.56l-3.19,8.47l2.65,3.73
		l-12.17,7.45l-3.36,7.8l11.89,0.54l15.78,1.13l3,3h-5.65l-3.72,6.36l16.09,3.36l12.79-2.23l-6.78-6.41l4.49-3.73l7.14,3l3.36,7.14
		l21.43,0.36l5.59-2.28l1.13,3.42l-6.01,5.22l8.28,0.36l-1.5,3.78l-2.28,2.65h18.36l9.01,3l0.9,1.21l0.36-7.45l2.71-3.05l3.42-2.04
		l-0.36-2.04l-2.71-2.71h-2.71l-1.75-2.04l3.05-2.76v-1.02l-3.36-1.69v-2.71l7.45,0.36l1.75-1.38l-6.49-6.13l0.36-7.14l-4.09-3.36
		l3.36-6.78l8.16-5.45l-6.13-4.09l-4.38,3.42l-10.2,2.34l-8.16-1.02l-14.57-6.07l-8.81,0.31l-7.45-3.36l-2.76-3.78l-5.76-6.41
		l-13.56-5.76L741.35,801.33L741.35,801.33z"/>
	<path id="fr-d84" fill="#DDDDDD" stroke="#FFFFFF" d="M755.33,746.47l-5.28,0.42l-4.09,6.36l1.08,6.72l6.36,0.79l-1.08,3
		l-4.92,0.36l-5.59,5.65l-1.5-1.86l1.08-7.51l-2.23-2.65l-10.14,1.5l-1.98,4.01l1.08,0.6l6.36,10.56v8.53l11.16,11.1v4.8l-4.32,2.46
		l0.31,0.12l13.56,5.76l5.76,6.41l2.76,3.78l7.45,3.36l8.81-0.31l14.57,6.07l8.16,1.02l10.2-2.34l4.21-3.3l0.54-2.82l-7.8-8.81
		h-8.53v-3.05l3.05-3.42v-3.72l-6.78-3.36l-0.65-5.45l3.72-1.69v-4.74l-4.09-0.73l-0.31-5.11l-0.06-0.36l-3.42-0.25l-5.65-4.15
		l-1.5-4.86l-10.5-0.79l-7.85-0.73l-0.79-4.49l2.65-5.65l-4.86,4.15l-7.51-0.79l-1.52-2.63l5.22-7.09L755.33,746.47L755.33,746.47z"
		/>
	<path id="fr-d83" fill="#DDDDDD" stroke="#FFFFFF" d="M891.23,807.63l-5.7,0.25l-2.71,2.76l-10.2-0.36l-8.81,6.41l-6.07-4.09
		l-9.54,3.05l-1.69,3.42l-6.78,5.11l-12.25-8.16l-9.91,3.24l-0.48,2.65l0.17-0.12l6.13,4.09l-8.16,5.45l-3.36,6.78l4.09,3.36
		l-0.36,7.14l6.49,6.13l-1.75,1.38l-7.45-0.36v2.71l3.36,1.69v1.02l-3.05,2.76l1.75,2.04h2.71l2.71,2.71l0.36,2.04l-3.42,2.04
		l-2.71,3.05l-0.36,7.45l1.02,1.38l6.72,3l1.86,7.51l4.15,0.79l3.78-2.65l6.72-4.15l11.64,1.13l-0.36,3l-3.78,1.86l9.01,0.42
		l-2.23-2.28l-0.79-4.86l4.86-3.36l5.65,1.86l2.28,0.73l1.86,2.28l2.65-1.86l0.73-4.92l3-2.57h7.85l2.28-3.42l5.22,1.5l6.01-2.57
		v-9.77l-7.85,0.36l6.01-3.73l3-4.15l0.79-6.01l10.87-1.5l6.07-6.78l-4.21-4.32v-2.4l-2.04-2.04l2.71-2.34l-0.65-3.78l-4.44-1.69
		h-2.34l-4.09-4.09l-0.73-7.14l-4.38-2.04l-4.44-0.31l-1.69-4.09L891.23,807.63L891.23,807.63z"/>
	<path id="fr-d04" fill="#DDDDDD" stroke="#FFFFFF" d="M902.87,713.83l-4.09,6.13l-5.76,3.42l-2.04,4.09l-5.11,0.31v3.72l-1.38,2.04
		l-2.04,5.11l-12.17-0.31l-5.76-3.05l-3.78,2.71l-7.09-0.36l-1.75,2.4h1.75l1.02,6.41l-1.75,0.73l-6.41-4.09v-2.4l-3.72-3.05h-2.04
		v3.42l-3.05,0.65l-6.49,3.72l-4.09,6.84l-1.02,3.36l2.4,0.65l0.36,5.45h-2.4l-3.72-3.42l-2.04,0.36l1.02,3.05l5.76,6.41l-3.73,1.38
		l-2.71-1.69h-6.84l-5.76,5.4l-0.06-0.06l-0.25,2.23l-2.23-2.65l-3-2.65l-1.92,5.65l-3.36,3l-1.44-0.12l0.06,0.36l0.31,5.11
		l4.09,0.73v4.74l-3.72,1.69l0.65,5.45l6.78,3.36v3.72l-3.05,3.42v3.05h8.53l7.8,8.81l-0.06,0.17l9.91-3.24l12.25,8.16l6.78-5.11
		l1.69-3.42l9.54-3.05l6.07,4.09l8.81-6.41l10.2,0.36l2.71-2.76l5.7-0.25l0.12-0.06l-1.38-3.42l1.69-2.04l-0.65-2.71h5.4l1.38-1.69
		l5.11-2.76l4.09,2.76l2.71-1.75l-6.41-5.76l-6.84-6.41l-2.34-0.73l-0.36-5.11l-4.09-6.07l1.38-8.81l2.04-4.8l3.73-3.05l0.36-4.74
		l5.11-2.71l0.79-0.31v-7.26l5.28-0.73l-3-2.65l-3.78-1.13l-1.86-4.86l1.5-3.36l6.72-7.14l-1.08-5.28l0.96-1.02L902.87,713.83
		L902.87,713.83z"/>
	<path id="fr-d06" fill="#DDDDDD" stroke="#FFFFFF" d="M903,747.51l-0.79,0.31l-5.11,2.71l-0.36,4.74l-3.72,3.05l-2.04,4.8
		l-1.38,8.81l4.09,6.07l0.36,5.11l2.34,0.73l6.84,6.41l6.41,5.76l-2.71,1.75l-4.09-2.76l-5.11,2.76l-1.38,1.69h-5.4l0.65,2.71
		l-1.69,2.04l1.38,3.42l-4.44,2.71l1.69,4.09l4.44,0.31l4.38,2.04l0.73,7.14l4.09,4.09h2.34l4.44,1.69l0.65,3.78l-2.71,2.34
		l2.04,2.04v2.4l4.21,4.32l0.31-0.36l0.36-8.58l7.51,1.5l2.65-3.42l3.78,0.79l0.36-11.64l8.64-0.73l7.51-6.78h6.72l0.36-4.15
		l6.78-4.09l-3.78-8.64l5.65-4.86l-1.15-5.65l8.28-2.65l2.23-8.22l-1.08-5.65l-1.92-3.36l-1.5-4.92l-5.59,0.42l-17.65,6.36h-5.65
		l-9.72-7.85l-9.77-2.65h-5.65v-6.78L903,747.8V747.51L903,747.51z"/>
	<path id="fr-d05" fill="#DDDDDD" stroke="#FFFFFF" d="M871.19,665.48l-3.36,1.5l-0.79,5.65l-6.72,0.79l-1.13-5.28l-2.23-2.23
		l-6.78,0.73l-2.65,2.28l-1.5,7.85l1.13,1.86l7.85,0.79l1.5,4.86l3,1.5v8.2l-7.14-0.36l-3,3.36l-8.58-1.5l-4.86,4.15l-3.42-1.5
		l-4.86,3.78l1.86,3.36l-3,3h-9.37v4.49l3,1.5l-1.13,2.65l-6.36,2.57l-7.85,0.79l-2.28,7.14l-0.36,4.49l4.15,3.36l-4.15,4.86
		l-5.22-2.65l-6.01-0.36l-0.79,3.36l3.78,2.65l-4.57,3l1.56,6.36l12.73,3.42l2.28,4.86l3.73,0.73l-1.27,11.69l0.06,0.06l5.76-5.4
		h6.84l2.71,1.69l3.73-1.38l-5.76-6.41l-1.02-3.05l2.04-0.36l3.73,3.42h2.4l-0.36-5.45l-2.4-0.65l1.02-3.36l4.09-6.84l6.49-3.72
		l3.05-0.65v-3.42h2.04l3.72,3.05v2.4l6.41,4.09l1.75-0.73l-1.02-6.41h-1.75l1.75-2.4l7.09,0.36l3.78-2.71l5.76,3.05l12.17,0.31
		l2.04-5.11l1.38-2.04v-3.72l5.11-0.31l2.04-4.09l5.76-3.42l4.09-6.13l4.86,0.25l3.53-3.84l4.09,0.36v-3.36l-5.22-2.65l-1.13-10.87
		l-4.15-1.5l-5.22,0.79l-9.77-4.92l-1.5-11.21l-5.59-1.86l-1.92-3.78l-2.46-5.4L871.19,665.48L871.19,665.48z"/>
	<path id="fr-d48" fill="#DDDDDD" stroke="#FFFFFF" d="M628.18,690.62l-10.5,3.78l-3,6.72l-6.72-4.49l-5.28,16.49l-5.4,12.42
		l7.85,9.66l-0.54,7.45l5.28,3.73v9.01l1.61,12.73l6.36,2.71l-0.54,4.21l9.01-1.56l3.19,1.56l-1.98,1.75l11.58,7.74l9.91-2.04
		l1.69-2.4l-1.38-3.36l4.09-1.02l5.76,5.4l9.85,1.02l4.44-6.78v-5.76l2.71-3.05l-2.4-0.65v-7.8l-5.4-5.76l4.44-0.73l2.34-2.04
		l1.86-3.61l-1.86-1.13l1.08-7.93l-6.36-6.89l-2.65-13.81L657.67,704l-6.97,1.69l-1.5-5.22h-3.78l-0.73,4.49l-9.72,3L628.18,690.62
		L628.18,690.62z"/>
	<path id="fr-d03" fill="#DDDDDD" stroke="#FFFFFF" d="M591.41,490.39l-5.22,6.72l-3,0.36l-3.36,3.42l-3.78-4.15l-10.08,10.14v6.01
		l1.86,1.5l0.36,3l-5.22,4.09l-4.92-1.5l-9.37,1.92l-4.86,5.59l-1.8,3.84l0.31-0.06l4.49,6.36v4.49l2.57,3.36l2.65-3.36l3,5.28
		l4.15,1.5l4.15,9.72l0.17,2.82l5.7,4.44l3.05-1.38l2.4-5.76l2.34-0.65v-3.05l4.09-0.36l0.36,2.04l5.11-5.76h5.76l1.02,2.04
		l-2.71,3.72l4.01,4.44l0.73,2.71l9.49,5.45l11.52,1.69l3.42-0.36l5.11,1.02l4.38-2.71l3.42,1.69l0.65,4.74l4.44,1.02l5.76-0.31
		l1.69,4.09l5.28,2.09l0.17-1.86l9.01-0.42l-0.73-21.37l-2.65-5.22l1.08-4.15l6.24-1.08l0.17-0.42l7.85-6.01l0.36-14.65l-2.65-3.72
		h-6.01l-2.23-3h-6.36l-1.86-2.28v-5.65l-7.57-14.23l-3.73-2.65l-7.14,9.77l-3,0.73l-1.13-4.86l-3.36-1.5l-1.5,3h-5.59l-0.79-3.36
		l-3.78,2.23l-4.03,2.34l-4.49-4.92l-6.41-3l-0.36-4.86L591.41,490.39L591.41,490.39z"/>
	<path id="fr-d30" fill="#DDDDDD" stroke="#FFFFFF" d="M676.97,745.88l-1.86,3.61l-2.34,2.04l-4.44,0.73l5.4,5.76v7.8l2.4,0.65
		l-2.71,3.05v5.76l-4.44,6.78l-9.85-1.02l-5.76-5.4l-4.09,1.02l1.38,3.36l-1.69,2.4l-9.91,2.04l-11.58-7.74l-2.23,1.98v5.34
		l-4.26,1.02l1.08,4.26l5.28,1.08h5.82l1.61,7.37l-6.89,3.19v3.36l5.4,1.86v3.05l2.4,1.38l2.04-1.75h2.71l1.38,3.05h4.09l2.04-7.14
		h3.36l5.11-6.41l6.13,0.65l1.02,8.81l2.34,2.76l3.78-2.04l6.41,3.36l2.4,4.09l11.16,6.78l4.09,9.54v5.05l-7.14,4.09l-4.63,4.15
		l5.76,0.42v7.51l8.58-0.42l4.63,0.25l3.36-7.8l12.17-7.45l-2.65-3.73l3.19-8.47l11.1,1.56l2.71-20.16l14.82-8.47v-4.8l-11.16-11.1
		v-8.53l-6.36-10.56l-13.27-7.45l-1.02,5.82l-5.34,0.54l-1.56-5.82l-5.34,1.02l-1.02,7.45l-4.26-1.56l-9.01-5.88l-4.26,2.17v-10.62
		L676.97,745.88L676.97,745.88z"/>
	<path id="fr-d11" fill="#DDDDDD" stroke="#FFFFFF" d="M538.84,856.17l-0.54,6.89l-6.89-2.17h-7.45l0.54-2.65l-3.72,0.54l-7.93,2.65
		l-2.65-4.8l-5.34,4.8l1.61,3.72l-5.88,2.65l-1.02,5.82l-4.8,2.17l4.26,4.74l-1.08,3.19l18.61,9.01l1.56,12.79v6.89l1.08,9.01h-9.54
		l-2.65,3.72l12.17,10.08l6.89-3.72l8.47,10.08l-1.27,0.12l1.61,0.96l15.25-7.45l-3.72-5.45l-0.31-6.41h35.58l-0.65-4.8l8.16-4.38
		l9.49,7.45l4.92,2.28l-0.31-10.73l0.42-12.37l-4.49,0.36l-3.78-5.59l3-4.92l6.36,6.01l5.65-4.49l3.78-3.72l0.48-3.96l-4.8-0.17
		l-1.69-5.4l-4.74-0.36l-4.44-6.49l-3.42,0.36l-4.01-2.4l-0.73-5.76l-2.04,1.02l1.02,4.09h-4.74l-0.36,6.78l-7.09,2.4l-3.42-7.14
		l-4.74,3.05l-4.09-3.05l-2.04-4.74l3.42-4.09l-1.54-4.44l-0.42,0.12h-11.16l-11.64-2.09L538.84,856.17L538.84,856.17L538.84,856.17
		z"/>
	<path id="fr-d34" fill="#DDDDDD" stroke="#FFFFFF" d="M656.45,798.39l-5.11,6.41h-3.36l-2.04,7.14h-4.09l-1.38-3.05h-2.71
		l-2.04,1.75l-2.4-1.38v-3.05l-5.4-1.86v1.98l-6.36,1.02l-3.19,2.71l1.02,6.36h-5.82l-5.82-3.19h-3.19v3.73l0.54,11.1h-6.36h-3.19
		l-2.17,4.26l-13.81,4.74l-5.28-3.67l-3.19,4.74l-1.56,5.28l5.82,5.34l-2.17,6.89l-7.99,2.52l1.61,4.38l-3.42,4.09l2.04,4.74
		l4.09,3.05l4.74-3.05l3.42,7.14l7.09-2.4l0.36-6.78h4.74l-1.02-4.09l2.04-1.02l0.73,5.76l4.01,2.4l3.42-0.36l4.44,6.49l4.74,0.36
		l1.69,5.4l4.8,0.17l0.25-2.04l13.5-4.15l1.5-3.36l10.5-0.36l3.36-4.15l20.28-16.15l12.73-9.01l5.17,0.36l4.63-4.15l7.14-4.09v-5.05
		l-4.09-9.54l-11.17-6.78l-2.4-4.09l-6.41-3.36l-3.78,2.04l-2.34-2.76l-1.02-8.81L656.45,798.39L656.45,798.39z"/>
	<path id="fr-d66" fill="#DDDDDD" stroke="#FFFFFF" d="M589.24,914.14l-8.16,4.38l0.65,4.8h-35.58l0.31,6.41l3.72,5.45l-15.25,7.45
		l-1.61-0.96l-12.54,0.9l-1.56,3.19l-6.36,1.61l-4.26,3.73l-11.64,2.71l0.65,3.96l5.65,5.28l11.21,3l0.36,6.72l6.01,5.28l4.49-0.79
		l6.41-7.85l7.85-1.5l12.37,4.15l10.5,9.01l3-3.78h2.65l2.65,1.86l2.23-1.08l0.36-5.28l11.29-2.65l3.72-4.86l5.65-1.86h7.85
		l4.92,5.22l6.01,0.42v-6.01l-3-4.15l-5.28-2.28l-0.9-32.76l-4.92-2.28L589.24,914.14L589.24,914.14z"/>
	<path id="fr-d15" fill="#DDDDDD" stroke="#FFFFFF" d="M561.09,635.84l-1.13,4.15l1.86,4.49l-2.28,2.65h-3.72l-3.78-4.15l-3.36-1.86
		l-0.36,10.5l-6.78,4.15l-4.86,6.72l1.13,6.78l-1.5,3l-1.92,6.01h-3l-3,3.72l2.28,2.28l1.5,3.73l-4.86,3.42l1.98,12.54l6.36,4.74
		l-4.8,11.16l4.8,2.09l-2.09,6.36l4.21,0.54l3.19-5.28h5.34l1.02,1.56H559l2.09-4.74l2.65-1.08l1.08-8.47h2.65v-9.01l10.62-9.06
		l1.08,1.61l1.02,6.89l7.45-1.08l1.61,10.62h3.67l1.08,10.62l3.3,4.09l5.4-12.42l5.28-16.49l6.72,4.49l3-6.72l9.6-3.48v-3.19
		l-2.04-3.05l-4.09-2.4l2.04-3.05l-1.75-1.69l2.04-0.65l2.4-2.04l-4.09-0.36l-2.04-2.71l-0.65-7.14l-2.4-2.4l-1.69-6.07h-8.53
		l-1.69-4.8l-2.71-0.31l-1.38,2.71l-5.4-0.36l-5.11-7.8l-2.04-0.31l-4.09-2.04l-2.4,2.34h-6.07l-3.05-6.41L561.09,635.84
		L561.09,635.84z"/>
	<path id="fr-d43" fill="#DDDDDD" stroke="#FFFFFF" d="M622.48,640.87l-2.71,1.38v2.34l-4.09,0.36l-3.72,3.05l-6.78,1.02l-1.56,2.23
		l1.21,0.12l1.69,4.8h8.53l1.69,6.07l2.4,2.4l0.65,7.14l2.04,2.71l4.09,0.36l-2.4,2.04l-2.04,0.65l1.75,1.69l-2.04,3.05l4.09,2.4
		l2.04,3.05v3.19l0.9-0.31L635,707.9l9.72-3l0.73-4.49h3.78l1.5,5.22l6.97-1.69l8.64,11.04l5.4-8.58l9.72-7.14h9.01l3-9.37
		l6.01-0.42l0.42-7.09h5.57l-1.08-2.65l-1.5-4.86l2.23-3.78l5.28-2.23l2.23-9.01l-4.86-5.65l-6.01,0.36l0.73-7.14l-12-5.22
		l-4.09,0.36l-8.28,6.78l-7.57-2.46l-1.5,1.44l-4.74-1.38l-3.36-3.42l-2.04,4.09l-5.82-0.31l-2.71-2.4l-2.04,4.74l-3.72-1.69
		l-2.4-4.44h-3.05l-2.71-2.34l-4.09,1.69l-4.74,0.36l-2.71-1.75l-1.69,1.02L622.48,640.87L622.48,640.87z"/>
	<path id="fr-d63" fill="#DDDDDD" stroke="#FFFFFF" d="M586.53,550.93l-5.11,5.76l-0.36-2.04l-4.09,0.36v3.05l-2.34,0.65l-2.4,5.76
		l-3.05,1.38l-5.7-4.44l0.54,8.81l3,3.73l1.5,7.14l-4.49,3.36l-1.08,5.28l-4.15,2.23l-7.14,4.15l0.73,3.36l8.64,8.64l0.79,5.28
		l-3.42,5.59v5.28l2.28,2.65l1.13,6.36l-0.73,2.57l11.52,3.36l3.05,6.41h6.07l2.4-2.34l4.09,2.04l2.04,0.31l5.11,7.8l5.4,0.36
		l1.38-2.71l1.5,0.17l1.56-2.23l6.78-1.02l3.72-3.05l4.09-0.36v-2.34l2.71-1.38l0.73,1.69l1.69-1.02l2.71,1.75l4.74-0.36l4.09-1.69
		l2.71,2.34h3.05l2.4,4.44l3.73,1.69l2.04-4.74l2.71,2.4l5.82,0.31l2.04-4.09l3.36,3.42l4.74,1.38l1.5-1.44l-2.94-0.96l-1.13-4.49
		l7.14-6.72l-3.36-12.37l-9.77-6.41l-4.09-9.72l-4.49-6.01l1.13-8.28l3.36-3.36l-6.01-4.86l0.17-1.5l-5.28-2.09l-1.69-4.09
		l-5.76,0.31l-4.44-1.02l-0.65-4.74l-3.42-1.69l-4.38,2.71l-5.11-1.02l-3.42,0.36l-11.52-1.69l-9.49-5.45l-0.73-2.71l-4.01-4.44
		l2.71-3.72l-1.02-2.04L586.53,550.93L586.53,550.93L586.53,550.93z"/>
	<path id="fr-d65" fill="#DDDDDD" stroke="#FFFFFF" d="M356.37,837.08l-3.72,1.98l0.65,0.06l6.36,10.5l-4.15,3.78l3,4.49l4.49,6.72
		l-3.72,4.86l-6.01,13.5l-10.14,8.64l2.65,5.28l-2.28,1.5l-5.59-1.13l-1.56,12.37l-3,2.28l-0.6,7.74l0.96-0.54l6.36,3.78l7.51,5.65
		l0.73,4.49l6.01,4.86h4.92l12.37-5.28l5.22,6.01l7.14,1.92l2.65-4.49l3.36,1.5l7.26,0.48l-0.48-20.16h3.78l3.36,1.69l2.4-2.34
		l-0.36-3.72l4.74-2.76l-1.69-7.09l-2.04-1.75l-4.07,1.38l2.04-3.42l-1.02-4.38l-6.13-4.44l0.36-3.05l3.42-5.76l4.38-1.69v-2.4
		l2.71-4.09l1.8-2.52L403.6,868h-9.18l-1.38-2.76h-4.74l-1.38-3.05h-4.38l-1.38,1.38h-5.11l-0.31-3.05l-4.09-2.71l1.38-1.38
		l0.65-3.36l-1.02-1.02l-2.04-5.45l-4.44-0.65l-4.38-2.4l0.31-6.41L356.37,837.08L356.37,837.08L356.37,837.08z"/>
	<path id="fr-d64" fill="#DDDDDD" stroke="#FFFFFF" d="M342.82,837.76l-5.4,3.05l-10.87-0.36l-1.02-1.69l-7.14,2.4l-5.45,1.69
		l-4.09-3.05l-4.38,1.38l-1.38-1.75h-5.4l-3.42,1.75l-8.81-0.36l-4.74,3.72l-8.53-0.65l-1.69,2.4l-2.04-0.73l2.71-2.71l-4.74-3.72
		l-5.76,5.11l-9.85,0.65l-10.81-5.4l-1.56,2.76l-8.64,10.5l-6.72,2.65l-4.86,0.73v4.15l4.49,4.15l6.72,0.36l0.36,4.86l5.28,0.42
		l1.5-3.42l7.14,3l4.49,1.13l1.08,4.49l-2.57,2.28v7.09l-5.28,2.65l-0.36,3.36l3.36,3.78l6.01,1.86l1.13-5.65l3.36-3.72l-0.36,4.86
		l2.65,3.78h6.72l3,4.09l9.01,1.5l8.64,5.28h14.23l0.79,7.85l9.72,7.51l3.78,4.49l4.15-2.23l3.72-0.79l1.86,1.86l3.42-1.86
		l6.55-3.61l0.6-7.74l3-2.28l1.56-12.37l5.59,1.13l2.28-1.5l-2.65-5.28l10.14-8.64l6.01-13.5l3.73-4.86l-4.49-6.72l-3-4.49
		l4.15-3.78l-6.36-10.5l-10.14-0.73L342.82,837.76L342.82,837.76z"/>
	<path id="fr-d40" fill="#DDDDDD" stroke="#FFFFFF" d="M280.7,733.23l-11.89,6.13l-3.05,0.12l-6.66,35.64l-8.64,33.01l-2.65,12.79
		l-2.23,9.01l-5.59,9.6l10.81,5.4l9.85-0.65l5.76-5.11l4.74,3.72l-2.71,2.71l2.04,0.73l1.69-2.4l8.53,0.65l4.74-3.72l8.81,0.36
		l3.42-1.75h5.4l1.38,1.75l4.38-1.38l4.09,3.05l5.45-1.69l7.14-2.4l1.02,1.69l10.87,0.36l5.4-3.05l-2.65-4.63l2.65-7.14l3.72-4.86
		l-1.13-6.36l3-3l-4.44-7.51l3.72-4.49l4.15-0.79l3.72,1.5l5.28-4.49l1.86,5.65l1.86,2.65l4.15-1.13l-0.36-4.86l1.21-2.65l-0.9-2.34
		l1.02-7.45l4.09-4.09l-2.04-2.4l-4.44-0.36l-5.11-1.98l-7.45,0.65l-1.38-8.16l-4.74-5.76l-2.04-0.67l0.73,6.78v2.04l-6.49,0.31
		l-6.78-2.34l-1.38-8.53l-4.74-5.11l-3.36-0.31l-0.36-3.05l-3.72-2.4l-6.13-1.69l1.69-2.04v-2.04l-2.04-1.69l-2.34-2.04l-6.84,1.02
		l-4.01,3.36l-2.76,0.36l-4.38-3.05l-6.49,2.71l-3.05-2.04l2.76-3.36l0.31-4.44L280.7,733.23L280.7,733.23z"/>
	<path id="fr-d33" fill="#DDDDDD" stroke="#FFFFFF" d="M283.47,619.52l-6.01,9.01l-1.86,31.51l-4.86,31.85l-3.42,24.73l-0.36,6.41
		l2.65-8.64l5.22-6.78l7.51,6.78l0.79,2.23l2.23,3l-9.37,0.42l-1.5-2.28l-3.72,1.5l-0.79,5.65l-4.15,5.65v8.58l-0.06,0.36l3.05-0.12
		l11.89-6.13l6.41,2.34l-0.31,4.44l-2.76,3.36l3.05,2.04l6.49-2.71l4.38,3.05l2.76-0.36l4.01-3.36l6.84-1.02l2.34,2.04l2.04,1.69
		v2.04l-1.69,2.04l6.13,1.69l3.73,2.4l0.36,3.05l3.36,0.31l4.74,5.11l1.38,8.53l6.78,2.34l6.49-0.31v-2.04l-0.73-6.78l2.04,0.65
		l3.84,4.68l6.01-0.96l2.76-2.71l-0.36-3.72l-2.4-2.04l0.73-3.78h3.73l3.72-2.34l-1.69-3.42l-1.02-5.11l2.71-4.74l5.76-8.81
		l3.42-4.09l3.05-1.02l0.65-3.36l-4.09-0.36l-1.69-3.72l1.32-3.73l4.8-1.02l3.36-1.02l3.96-0.54l-0.25-0.17l-0.31-7.45l3.73-2.71
		l-4.74-3.05l-4.74,5.76l-11.58,0.36l-1.02-2.76l-3.36-1.69l2.71-3.42v-3.73l-1.38-2.04v-2.04l3.42-2.04l1.02-6.07l2.04-5.45
		l-2.04-3.05h-3.73l-1.98-2.34l-1.92,4.01l-3.73-2.65l-5.28,2.65l-4.49-0.73l-8.58-8.64l-5.28-0.36l-1.5-12l-9.77-1.13l-0.36-5.65
		l-1.86,1.86h-11.1l0.54,2.4l2.65,10.87l0.73,10.87l-1.86,3l-1.86-9.01L305.93,645l-19.14-17.28l0.42-7.85L283.47,619.52
		L283.47,619.52z"/>
	<path id="fr-d24" fill="#DDDDDD" stroke="#FFFFFF" d="M415.17,610.4l-3.36,6.01l-5.28,0.73l-0.36,9.01l-17.65,12l-0.36,13.13
		l-6.78,6.72l-3.72,3.42l-7.51-0.79l-4.15,7.14l-1.08,2.34l1.98,2.34h3.73l2.04,3.05l-2.04,5.45l-1.02,6.07l-3.42,2.04v2.04
		l1.38,2.04v3.72l-2.71,3.42l3.36,1.69l1.02,2.76l11.58-0.36l4.74-5.76l4.74,3.05l-3.72,2.71l0.31,7.45l5.45,3.78l0.65,7.09
		l5.76,2.04l3.42-3.05h7.45l4.09-3.36l2.4,0.36l0.65,2.71h7.51l1.69-2.04l2.71,0.36l3.05,3.36v2.4l-2.71,1.69l1.02,2.4l3.73,0.31
		l4.74-4.38h4.09l2.71,3.05l5.88,2.46l0.36-0.96l3.42-3.36l0.36-5.65l8.22-0.73l5.28-7.51l-2.28-0.79l-0.36-4.09l6.36-0.79
		l0.42-3.73l3-1.92l3.36-6.01l-3.36-3.72v-4.15l2.57-2.23l-3.36-5.28l0.36-8.22l-8.22,0.35l-3.36-2.28l3-3.73l-4.15-3.36l3-3.78
		l-3-1.5v-5.22l7.51-6.78l-4.15-3.36l-2.23-5.65l-7.93-1.13l-2.65-1.86l5.65-2.65l-1.86-2.57l-8.22-1.13L447,619.7l-12-1.13
		l-2.65,3.78l-2.57,0.73l-3.42-4.49l1.56-4.15l-1.92-3.72L415.17,610.4L415.17,610.4z"/>
	<path id="fr-d47" fill="#DDDDDD" stroke="#FFFFFF" d="M387.15,711.99l-3.96,0.54l-3.36,1.02l-4.8,1.02l-1.32,3.72l1.69,3.73
		l4.09,0.36l-0.65,3.36l-3.05,1.02l-3.42,4.09l-5.76,8.81l-2.71,4.74l1.02,5.11l1.69,3.42l-3.73,2.34h-3.72l-0.73,3.78l2.4,2.04
		l0.36,3.72l-2.76,2.71l-6.01,0.96l0.9,1.08l1.38,8.16l7.45-0.65l5.11,1.98l4.44,0.36l2.04,2.4l-4.09,4.09l-1.02,7.45l0.9,2.34
		l1.44-3l4.44,3.78l6.01-6.01l2.65,3.72l6.36-1.13l6.78-0.73l3-5.28l11.21-1.08l5.65,5.59l1.92-1.86l3.73-1.13l-1.5-5.22l5.65-1.5
		l7.14-1.5l-1.56-4.49l2.28-2.65l1.86-7.14l-4.15-4.49l2.65-8.58l5.65,3.36l8.28-1.5l-3.78-8.28l-3-11.21l7.51-0.36l1.5-3.96
		l-5.88-2.46l-2.71-3.05h-4.13l-4.74,4.38l-3.72-0.31l-1.02-2.4l2.71-1.69v-2.4l-3.05-3.36l-2.71-0.36l-1.69,2.04h-7.51l-0.65-2.71
		l-2.4-0.36l-4.09,3.36h-7.45l-3.42,3.05l-5.76-2.04l-0.65-7.09L387.15,711.99L387.15,711.99z"/>
	<path id="fr-d46" fill="#DDDDDD" stroke="#FFFFFF" d="M487.42,681.13l-7.99,3.73l-1.13,0.17l0.25,0.36l-2.57,2.23v4.15l3.36,3.72
		l-3.36,6.01l-3,1.92l-0.42,3.72l-6.36,0.79l0.36,4.09l2.28,0.79l-5.28,7.51l-8.22,0.73l-0.36,5.65l-3.42,3.36l-1.86,4.92
		l-7.51,0.36l3,11.21l3.19,6.97l4.8-0.17l0.31,1.98l-2.71,3.05l2.04,4.09h3.05l3.36,3.72h3.05l2.4-2.71l0.65,0.73v3.36l1.02,4.44
		l7.14,0.31l5.76-6.13l3.05-0.31l1.02,1.69l1.69,3.72h2.76l1.02-6.78l5.76,0.73l3.36-4.09l5.45,1.32l8.16-3.72l0.06,0.73l2.65-2.76
		l-3.42-5.11l-1.32-6.78l4.38-3.72l2.04,0.65l6.13-6.78l3.36,0.36l1.38-1.75h6.78l2.4-2.71l0.65-2.09l-3.05-0.42l2.09-6.36
		l-4.8-2.09l4.8-11.16l-6.36-4.74l-2.17-13.81l-5.82-1.56l-4.26,4.21l-2.09-3.72l-6.36,6.36l-4.26,0.54l-7.37-10.56L487.42,681.13
		L487.42,681.13z"/>
	<path id="fr-d09" fill="#DDDDDD" stroke="#FFFFFF" d="M467.74,871.36l-2.4,1.69l-1.02,2.04l4.74,3.42l1.38,2.4l-1.02,1.98
		l-8.16,0.73l-2.34,3.36l0.31,1.02l3.05,1.02l1.75,2.4l-2.04,3.36l-2.4-0.31l-3.72-3.42l-4.44-1.32l-4.38,0.31l-7.8,4.74l0.31,6.49
		l2.04,1.38l-1.32,5.05l-8.89,2.4l-3.36,4.09v6.78l1.38,2.04l-3.19,2.94l2.04,1.13l11.58,2.23h4.92l6.36,8.28l16.15-0.79l6.36,10.14
		l5.65-2.28l16.49,2.28l1.21,6.89l11.64-2.71l4.26-3.73l6.36-1.61l1.56-3.19l13.81-1.02l-8.47-10.08l-6.89,3.72l-12.17-10.08
		l2.65-3.72h9.54l-1.08-9.01v-6.89l-1.56-12.79L498,883.7l1.08-3.19l-3.53-3.96l-3,1.27l-4.09,0.65l-7.51-3.42l-2.04-0.65l3.05,3.72
		l-1.32,3.05l-6.49-0.65l-0.31-3.42l-3.78-5.11L467.74,871.36L467.74,871.36z"/>
	<path id="fr-d32" fill="#DDDDDD" stroke="#FFFFFF" d="M411.4,785.91l-11.21,1.08l-3,5.28l-6.78,0.73l-6.36,1.13l-2.65-3.72
		l-6.01,6.01l-4.44-3.78l-2.65,5.65l0.36,4.86l-4.15,1.13l-1.86-2.65l-1.86-5.65l-5.28,4.49l-3.72-1.5l-4.15,0.79l-3.72,4.49
		l4.44,7.51l-3,3l1.13,6.36l-3.72,4.86l-2.65,7.14l3,5.28l9.49,0.65l3.73-1.98h5.76l-0.31,6.41l4.38,2.4l4.44,0.65l2.04,5.45
		l1.02,1.02l-0.65,3.36l-1.38,1.38l4.09,2.71l0.31,3.05h5.11l1.38-1.38h4.38l1.38,3.05h4.74l1.38,2.76h9.18l6.84,3.53l0.6-0.84
		l3.73-2.04l6.78-8.81l12.6,1.02l5.4,3.72l1.75-2.4l2.71-8.1l3.36-7.8l7.14-3.05l3.42-1.38l-1.02-3.05l-3.42-0.36l-1.32-3.36h-2.76
		l-4.38-4.44l0.31-3.05l-5.76-5.76l-1.02-3.67l-3.72,1.61l-1.02-2.04l2.4-3.72l-2.76-2.71v-4.74l-2.34-2.4l-7.51-0.36v-4.38
		l4.09-3.05v-3.42l4.44-2.04l-2.4-1.32l-2.71,1.32h-5.45l-1.69-1.56l-0.9,0.31l-1.92,1.86L411.4,785.91L411.4,785.91z"/>
	<path id="fr-d31" fill="#DDDDDD" stroke="#FFFFFF" d="M482.68,806.19l-5.45,2.04l-1.69,2.71l-2.04-2.34l-3.72-0.36l-0.73,3.42
		l-2.34,0.96l3.36,1.75l-2.34,3.72l-8.53,2.4l-3.72-4.44h-3.36l-2.76,1.69h-9.85l-1.02,0.42l1.02,3.67l5.76,5.76l-0.31,3.05
		l4.38,4.44h2.76l1.32,3.36l3.42,0.36l1.02,3.05l-3.42,1.38l-7.14,3.05l-3.36,7.8l-2.71,8.1l-1.75,2.4l-5.4-3.73l-12.6-1.02
		l-6.78,8.81l-3.73,2.04l-2.4,3.36l-2.71,4.09v2.4l-4.38,1.69l-3.42,5.76l-0.36,3.05l6.13,4.44l1.02,4.38l-2.04,3.42l4.09-1.38
		l2.04,1.75l1.69,7.09l-4.74,2.76l0.36,3.72l-2.4,2.34l-3.36-1.69h-3.78l0.48,20.16l15.25,1.02l0.79-18.41l5.22,0.79l7.74,4.49
		l3.19-2.94l-1.38-2.04v-6.78l3.36-4.09l8.89-2.4l1.32-5.05l-2.04-1.38l-0.31-6.49l7.8-4.74l4.38-0.31l4.44,1.32l3.73,3.42l2.4,0.31
		l2.04-3.36l-1.75-2.4l-3.05-1.02l-0.31-1.02l2.34-3.36l8.16-0.73l1.02-1.98l-1.38-2.4l-4.74-3.42l1.02-2.04l2.4-1.69l2.34,0.65
		l3.78,5.11l0.31,3.42l6.49,0.65l1.32-3.05l-3.05-3.72l2.04,0.65l7.51,3.42l4.09-0.65l3-1.27l-0.73-0.79l4.8-2.17l1.02-5.82
		l5.88-2.65l-1.61-3.72l5.34-4.8l2.65,4.8l7.93-2.65l1.5-0.25l0.12-2.46v-4.8l-4.09,0.73l-5.11-1.38l-4.44-5.4l-1.69-2.4l-8.81-3.73
		l-2.05-3.05l2.71-1.02v-3.73l-2.71-3.05l-3.42-5.45l-0.31-4.74l-1.02-0.65l-4.09-4.8l-1.69-5.05L482.68,806.19L482.68,806.19z"/>
	<path id="fr-d82" fill="#DDDDDD" stroke="#FFFFFF" d="M435.04,752.91l-2.65,8.58l4.15,4.49l-1.86,7.14l-2.28,2.65l1.56,4.49
		l-7.14,1.5l-5.65,1.5l1.5,5.22l-2.82,0.84l1.69,1.56h5.47l2.71-1.32l2.4,1.32l-4.44,2.04v3.42l-4.09,3.05v4.38l7.51,0.36l2.34,2.4
		v4.74l2.76,2.71l-2.4,3.72l1.02,2.04l4.74-2.04h9.85l2.76-1.69h3.36l3.73,4.44l8.53-2.4l2.34-3.72l-3.36-1.75l2.34-0.96l0.73-3.42
		l3.72,0.36l2.04,2.34l1.69-2.71l5.45-2.04l2.46,1.13l1.92-3.19l-3.36-3.73h6.41l2.04-3.72l4.44-4.09h-4.44l1.38-5.76l11.52-1.38
		l4.44-2.71l5.4-2.04l1.75-1.75l-2.09-5.4l3.05-6.13l-5.4-0.36l-0.65-8.47l-8.16,3.72l-5.45-1.32l-3.36,4.09l-5.76-0.73l-1.02,6.78
		h-2.76l-1.69-3.72l-1.02-1.69l-3.05,0.31l-5.76,6.13l-7.14-0.31l-1.02-4.44v-3.36l-0.65-0.73l-2.4,2.71h-3.05l-3.36-3.72h-3.05
		l-2.04-4.09l2.71-3.05l-0.31-1.98l-4.8,0.17l0.6,1.32l-8.28,1.5L435.04,752.91L435.04,752.91z"/>
	<path id="fr-d12" fill="#DDDDDD" stroke="#FFFFFF" d="M578.09,692.79l-10.62,9.06v9.01h-2.65l-1.08,8.47l-2.65,1.08l-2.09,4.74
		h-11.69l-1.02-1.56h-5.34l-3.19,5.28l-1.13-0.12l-0.65,2.09l-2.4,2.71h-6.78l-1.38,1.75l-3.36-0.36l-6.13,6.78l-2.04-0.65
		l-4.38,3.72l1.32,6.78l3.42,5.11l-2.65,2.76l0.6,7.74l5.4,0.36l-3.05,6.13l2.4,6.13l3.05-1.75l1.38,3.05l4.38-4.38l6.49-0.36
		l6.41,4.74l11.21,2.04l4.09,7.14l5.76,2.71l3.05,7.8l-0.36,3.05l3.72,6.84v3.73l6.78,8.81l6.49,3.36l4.09-1.02l2.04-2.71l3.05,0.73
		l7.03,4.49h0.06h3.13h6.36l-0.54-11.1v-3.72h3.19l5.82,3.19h5.82l-1.02-6.36l3.19-2.71l6.36-1.02V801l6.89-3.19l-1.61-7.37h-5.82
		l-5.28-1.08l-1.08-4.26l4.26-1.02v-5.34l4.21-3.72l-3.19-1.56l-9.01,1.56l0.54-4.21l-6.36-2.71l-1.61-12.73v-9.01l-5.28-3.73
		l0.54-7.45l-11.16-13.75l-1.08-10.62h-3.67l-1.61-10.62l-7.45,1.08l-1.02-6.89L578.09,692.79L578.09,692.79z"/>
	<path id="fr-d81" fill="#DDDDDD" stroke="#FFFFFF" d="M532.23,776.31l-6.49,0.36l-4.38,4.38l-1.38-3.05l-3.05,1.75l-0.31-0.73
		l-1.75,1.75l-5.4,2.04l-4.44,2.71l-11.52,1.38l-1.38,5.76h4.44l-4.44,4.09l-2.04,3.72h-6.41l3.36,3.72l-1.92,3.19l0.6,0.25
		l1.69,5.05l4.09,4.8l1.02,0.65l0.31,4.74l3.42,5.45l2.71,3.05v3.72l-2.69,1.02l2.04,3.05l8.81,3.72l1.69,2.4l4.44,5.4l5.11,1.38
		l4.09-0.73v4.8l-0.12,2.46l2.23-0.31l-0.54,2.65h7.45l6.89,2.17l0.54-6.89h3.19l11.64,2.09h11.16l8.47-2.65l2.17-6.89l-5.82-5.34
		l1.56-5.28l3.19-4.74l5.28,3.67l13.81-4.74l2.17-4.26l-7.03-4.49l-3.05-0.73l-2.04,2.71l-4.09,1.02l-6.49-3.36l-6.78-8.81v-3.73
		l-3.72-6.84l0.36-3.05l-3.05-7.8l-5.76-2.71l-4.09-7.14l-11.21-2.04L532.23,776.31L532.23,776.31z"/>
	<path id="fr-d01" fill="#DDDDDD" stroke="#FFFFFF" d="M748.19,518.46l-4.15,0.42l-2.65,4.86l-7.09,27.73l-1.02,2.28l-0.73,8.76
		l-2.04,2.82v12.65l-1.21,2.88l7.32,4.44l2.88,0.42l4.49,4.09l0.79,6.55l4.92-1.61l7.62,2.23l0.12-1.44h3.67l5.28,4.92l4.92-2.46
		l2.46-7.32l2.46-2.88l3.24,0.42l3.24,2.88l1.69,5.28l15.05,18.36l4.49-3.24l0.79-6.97l4.92-0.84v-12.25l2.46-2.04l0.79-10.98
		l0.96,0.79l-0.12-4.01l-2.04-3.72l0.84-10.56l3.67,2.04l2.04-3.72l3.67-1.21l3.78-3h-4.09v-7.14l4.49-2.65l6.72-0.73l0.42-3.78
		l-2.28-1.5l5.65-7.14l-0.79-2.23l-6.41-3.42l-15.61,17.17h-10.87v-4.49l-6.01-3l-7.14,7.85l-5.65,0.79v-5.28l-4.86-2.23l-7.51-10.5
		l-6.78-2.65l-2.23-4.86l-3.78-0.79l-3.72,2.65l-3,0.79L748.19,518.46L748.19,518.46z"/>
	<path id="fr-d38" fill="#DDDDDD" stroke="#FFFFFF" d="M776.28,587.78l-2.46,2.88l-2.46,7.32l-4.92,2.46l-5.28-4.92h-3.67
		l-0.42,5.34l5.34,4.49l-8.16,10.56l-10.62,2.46l-8.16,2.88l5.28,5.28l1.27,2.46l-8.16,4.09l-0.84,11.83l-0.25,0.12l2.28,4.74
		l6.55,2.04l4.49-1.61l5.28-3.67l6.97,5.7h5.7l4.09,5.7l-1.69,4.09l0.84,5.76l-2.04,5.7l0.84,2.04l2.82-0.84l6.55,2.04l8.58,2.46
		l3.67-2.46l1.61-2.82h1.27l0.36,30.55l2.04,2.04h5.34l4.86,2.88l3.67,2.88l3.72,0.36l2.4,2.04l6.78,0.79l0.48-1.13l-3-1.5v-4.49
		h9.37l3-3l-1.86-3.36l4.86-3.78l3.42,1.5l4.86-4.15l8.58,1.5l3-3.36l7.14,0.36v-8.22l-3-1.5l-1.5-4.86l-7.85-0.79l-1.13-1.86
		l1.5-7.85l2.65-2.28l-2.17-2.94l-4.09-2.46l-2.46,2.46l0.84-3.3v-3.24l-3.3-3.3l1.69-7.74l3.67-2.04l-0.42-5.28l-7.74-7.74h-2.88
		l-2.04,2.82l-4.86-6.49l-2.88,0.36l-2.46,5.34l1.69,3.24l-1.27,1.27l-3.24-2.46l-9.43-2.04l-4.44-8.16v-3.3l-4.49-4.86l-0.48-2.09
		l-15-18.3l-1.69-5.28l-3.24-2.88L776.28,587.78L776.28,587.78z"/>
	<path id="fr-d74" fill="#DDDDDD" stroke="#FFFFFF" d="M868.87,525.37l-8.58,1.5l-8.28,6.72l-2.23-3.36l-4.15,0.36l-3.78,8.28
		l0.42,3.36l4.09,3.36l-7.51,4.92L834,555h-8.28l-3.78,3l-3.67,1.21l-2.04,3.72l-3.67-2.04l-0.84,10.56l2.04,3.72l0.12,4.01
		l3.13,2.46v10.62l7.37,1.21l2.82,5.34l6.55,0.79l1.21-2.4h3.3l5.7,6.13l2.04,2.04l6.55-1.27l1.61-3.24l1.61-6.55l3.67-2.88
		l2.88-8.53l3.67-2.46l2.88,0.79l0.79,2.46l-2.04,2.46l3.67,4.49h6.13l3.72,6.13l-0.84,2.04l3.67-2.46l2.88-3.24l2.52,0.31
		l0.17-6.55l12.79-5.28l1.5-3.73l-0.79-8.28l-8.22-8.58l-2.65,1.5v-3.42v-5.59l-7.14-3.42l-0.36-3l4.15-4.49v-5.22l-6.78-7.14
		l-0.36-4.86L868.87,525.37L868.87,525.37L868.87,525.37z"/>
	<path id="fr-d42" fill="#DDDDDD" stroke="#FFFFFF" d="M664.18,548.11l-6.78,1.13l-1.08,4.15l2.65,5.22l0.73,21.37l-9.01,0.42
		l-0.36,3.36l6.01,4.86l-3.36,3.36l-1.13,8.28l4.49,6.01l4.09,9.72l9.77,6.41l3.36,12.37l-7.14,6.72l1.13,4.49l10.5,3.42l8.28-6.78
		l4.09-0.36l12,5.22l-0.73,7.14l6.01-0.36l4.74,5.45l3.48-0.96l6.49-1.21l1.69-7.37l8.95-5.28l0.84-11.83l0.31-0.17l-4.38-0.65
		l-4.09,1.61l-3.3-2.04l4.09-4.86l-1.21-3.67l-12.65-2.04l-10.62-9.77v-3.3l2.46-2.04v-2.82l-2.82-1.69l2.4-3.67v-5.28l-4.86-4.49
		v-4.49l-3.3-3.24v-3.67l-1.61-6.13l2.46-2.46l0.42-7.32h7.74l2.04-2.46l-2.46-4.09v-3.67l-2.04-1.61l-1.44,7.68h-4.15l-3,3
		l-2.28-2.28l-12-1.86l-4.49,2.65h-3l-0.73-2.65l-5.65-1.13l-0.36-6.01L664.18,548.11L664.18,548.11z"/>
	<path id="fr-d69" fill="#DDDDDD" stroke="#FFFFFF" d="M726.05,542.89l-4.09,0.36l-3.42,3.36l-2.23-3l-3.36,3l-4.57-3h-3.73
		l-1.5,1.13l-0.79,4.32l2.04,1.61v3.67l2.46,4.09l-2.04,2.46h-7.74l-0.42,7.32l-2.46,2.46l1.61,6.13v3.67l3.3,3.24v4.49l4.86,4.49
		v5.28l-2.4,3.67l2.82,1.69v2.82l-2.46,2.04v3.3l10.62,9.77l12.65,2.04l1.21,3.67l-4.09,4.86l3.3,2.04l4.09-1.61l4.38,0.65l7.85-3.9
		l-1.27-2.46l-5.28-5.28l8.16-2.88l10.62-2.46l8.16-10.56l-5.34-4.49l0.31-3.9l-7.62-2.23l-4.92,1.61l-0.79-6.55l-4.49-4.09
		l-2.88-0.42l-7.32-4.44l1.21-2.88v-12.65l2.04-2.82l0.73-8.76l-1.27,3l-2.65-0.36l-1.44-7.51L726.05,542.89L726.05,542.89z"/>
	<path id="fr-d73" fill="#DDDDDD" stroke="#FFFFFF" d="M812.93,578.41l-0.79,10.98l-2.46,2.04v12.25l-4.92,0.84l-0.79,6.97
		l-4.49,3.24l-0.06-0.06l0.48,2.09l4.49,4.86v3.3l4.44,8.16l9.43,2.04l3.24,2.46l1.27-1.27l-1.69-3.24l2.46-5.34l2.88-0.36
		l4.86,6.49l2.04-2.82h2.88l7.74,7.74l0.42,5.28l-3.67,2.04l-1.69,7.74l3.3,3.3v3.24l-0.84,3.3l2.46-2.46l4.09,2.46l2.17,2.94
		l6.78-0.73l2.23,2.23l1.13,5.28l6.72-0.79l0.79-5.65l3.36-1.5l7.2,0.36l-0.12-0.25l11.21-4.49l4.15,2.65h4.15l0.36-4.49l4.86-2.65
		l1.86-2.23l9.77-3.78l1.13-6.36l-1.92-3l5.28-9.01l-4.86-1.86l-1.5-5.28l-10.14-5.99l-0.36-13.56l-0.12-0.17l-0.06-0.06h-0.06
		v-0.06h-0.06h-0.06h-0.06l-7.09,0.79l-5.65-6.41l0.17-6.18l-2.52-0.31l-2.88,3.24l-3.67,2.46l0.84-2.04l-3.72-6.13h-6.13
		l-3.67-4.49l2.04-2.46l-0.79-2.46l-2.88-0.79l-3.67,2.46l-2.88,8.53l-3.67,2.88l-1.61,6.55l-1.61,3.24l-6.55,1.27l-2.04-2.04
		l-5.7-6.13h-3.3l-1.21,2.4l-6.55-0.79l-2.82-5.34l-7.37-1.21v-10.62L812.93,578.41L812.93,578.41z"/>
	<path id="fr-d07" fill="#DDDDDD" stroke="#FFFFFF" d="M732.77,645.02l-8.7,5.17l-1.69,7.37l-6.49,1.21l-3.48,0.96l0.12,0.17
		l-2.23,9.01l-5.28,2.23l-2.23,3.78l1.5,4.86l1.08,2.65h-5.59l-0.42,7.09l-6.01,0.42l-3,9.37h-9.01l-9.72,7.14l-5.4,8.58l0.9,1.13
		l2.65,13.81l6.36,6.89l-1.08,7.93l7.99,4.8v10.62l4.26-2.17l9.01,5.88l4.26,1.56l1.02-7.45l5.34-1.02l1.56,5.82l5.34-0.54
		l1.02-5.82l12.17,6.84l1.98-4.01l5.17-0.79l0.42-7.93l-1.21-1.69l-1.61-0.36v-2.88l1.21-2.88l-2.04-3.24l1.21-7.32l4.92-5.76v-8.1
		l-2.04-9.43l3.67-0.79l0.84-4.09l3.67-6.97l2.04-5.28l-3.24-8.16l-2.04-6.55l-2.88-11.41v-15.3l-2.04-0.65L732.77,645.02
		L732.77,645.02z"/>
	<path id="fr-d26" fill="#DDDDDD" stroke="#FFFFFF" d="M751.37,646.51l-5.28,3.67l-4.49,1.61l-4.49-1.38v15.3l2.88,11.41l2.04,6.55
		l3.24,8.16l-2.04,5.28l-3.67,6.97l-0.84,4.09l-3.67,0.79l2.04,9.43v8.1l-4.92,5.76l-1.21,7.32l2.04,3.24l-1.21,2.88v2.88l1.61,0.36
		l1.21,1.69l-0.42,7.91l4.97-0.73l2.23,2.65l-1.08,7.51l1.5,1.86l5.59-5.65l4.92-0.36l1.08-3l-6.36-0.79l-1.08-6.72l4.09-6.36
		l5.28-0.42l5.22,4.92l-5.22,7.09l1.5,2.65l7.51,0.79l4.86-4.15l-2.65,5.65l0.79,4.49l7.85,0.73l10.5,0.79l1.5,4.86l5.65,4.15
		l4.86,0.36l3.36-3l1.92-5.65l3,2.65l2.23,2.65l1.5-13.92l-3.72-0.73l-2.28-4.86l-12.73-3.42l-1.56-6.36l4.57-3l-3.78-2.65
		l0.79-3.36l6.01,0.36l5.22,2.65l4.15-4.86l-4.15-3.36l0.36-4.49l2.28-7.14l7.85-0.79l6.36-2.57l0.65-1.5l-6.78-0.79l-2.4-2.04
		l-3.72-0.36l-3.67-2.88l-4.86-2.88h-5.34l-2.04-2.04l-0.36-30.55h-1.27l-1.61,2.82l-3.67,2.46l-8.58-2.46l-6.55-2.04l-2.82,0.84
		l-0.84-2.04l2.04-5.7l-0.84-5.76l1.69-4.09l-4.09-5.7h-5.7L751.37,646.51L751.37,646.51z"/>
	<path id="fr-d17" fill="#DDDDDD" stroke="#FFFFFF" d="M298.94,533.9l-5.28,0.36l-11.46,6.97l2.76,2.52l-6.01,4.86l-0.73,3.78
		l-5.65,0.73l-3-3.36l-7.51-0.73l-0.79-3.78l-4.49-3l-6.36,2.28l4.15,6.01h5.22l5.28,3.36l4.15,3.36l7.85-0.36l1.5,3.36l5.22,1.13
		l1.92,5.22l3.36,1.5l-0.36,4.15l-4.49-0.73l-1.5,2.23l3.36,4.86l-1.86,8.28l-4.49-0.36l0.36,5.22l1.13,1.86h-5.28l-0.73-3
		l3.36-4.49l-1.13-2.57l-1.86-1.5l-0.79-9.01l-6.36-0.79l-5.22-6.36l-0.79,13.13l8.64,6.36l0.73,7.14l1.5,8.22l0.79,8.28l4.49-0.42
		l7.85,6.41l5.28,3l0.36,3.72l4.15,0.79l12,12l2.82,12.96h11.1l1.86-1.86l0.36,5.65l9.77,1.13l1.5,12l5.28,0.36l8.58,8.64l4.49,0.73
		l5.28-2.65l3.72,2.65l3-6.36l3-5.22l-7.99-5.4l-2.46-3.3l-3.3-3.67l-7.74,1.27l-2.46-1.27l-0.36-2.04l4.09-1.61v-0.79l-2.88-0.84
		l-2.04-1.61l4.92-4.09v-2.88l-2.46-2.46l1.61-1.61l0.84-4.09l-2.88-2.82l-2.46-4.09l-4.44-4.09l-3.3-2.04l2.88-3.3l-1.61-0.36
		l-0.42-8.58l-3.3-1.27l4.49-2.4h5.34l2.4-2.04h4.49l0.84,2.04l4.09,0.36l2.82-1.21l0.84-7.74l3.24-11.83l0.12-0.06l-2.94-2.82
		l-0.84-4.09l-5.28-2.46l-6.97-4.86l-8.58,0.79l-5.28-6.89l-7.74-0.42l-6.13-4.49v-2.46l-4.09-4.44l-0.17-5.53l-5.65-4.21l-7.14,3
		L298.94,533.9L298.94,533.9z"/>
	<path id="fr-d19" fill="#DDDDDD" stroke="#FFFFFF" d="M522.52,604.94l-1.61,4.09l-6.13,1.21l-2.4,4.09h-2.88l-4.09-1.21l-2.88,4.86
		l-4.44,0.42l-2.88,5.28h-3.67l-2.88,2.88l-7.32-0.84l-2.46,4.09l-2.82-0.36l-4.92,6.13l-4.49-1.69l-2.09,4.26l1.61,4.15l4.15,3.36
		l-7.51,6.78v5.22l3,1.5l-3,3.78l4.15,3.36l-3,3.72l3.36,2.28l8.22-0.36l-0.36,8.22l3.13,4.92l1.13-0.17l7.99-3.72l9.54,4.26
		l7.37,10.56l4.26-0.54l6.36-6.36l2.09,3.73l4.26-4.21l5.82,1.56l0.17,1.27l4.86-3.42l-1.5-3.73l-2.28-2.28l3-3.72h3l1.92-6.01
		l1.5-3l-1.13-6.78l4.86-6.72l6.78-4.15l0.36-10.5l3.36,1.86l3.78,4.15h3.72l2.28-2.65l-1.86-4.49l1.86-6.72l-1.13-6.36l-2.28-2.65
		V619l3.42-5.59l-0.79-5.28l-0.84-0.84l-3.78,2.94h-7.37l-2.4,3.67h-4.49l-3.67-3.67l-1.69-2.46h-9.37l-2.04-2.82L522.52,604.94
		L522.52,604.94L522.52,604.94z"/>
	<path id="fr-d23" fill="#DDDDDD" stroke="#FFFFFF" d="M504.05,528.62l-2.23,6.01l-6.78-0.36l-1.5-0.79l-4.49,0.42l-3.36-2.28
		l-6.49,7.45l0.12,5.53l-4.49,8.95l0.84,4.49l4.86,1.21l3.3,8.16l3.24,3.3l-1.21,15.48l6.89-2.04l2.88,3.67l-4.49,3.67v3.73
		l3.67,0.36l6.55-0.36l2.04-2.88h1.61l-0.79,4.92l5.28,2.4l4.92,3.3V605h-2.88l0.84,4.86l1.92,1.21l0.48-0.79l6.13-1.21l1.61-4.09
		h2.88l2.04,2.82h9.37l1.69,2.46l3.67,3.67h4.49l2.4-3.67h7.37l3.78-2.94l-7.8-7.8l-0.73-3.36l7.14-4.15l4.15-2.23l1.08-5.28
		l4.49-3.36l-1.5-7.14l-3-3.73l-0.73-11.65l-4.15-9.72l-4.15-1.5l-3-5.28l-2.65,3.36l-2.57-3.36v-4.49l-4.49-6.36l-12.37,1.5
		l-7.14-1.86L504.05,528.62L504.05,528.62z"/>
	<path id="fr-d87" fill="#DDDDDD" stroke="#FFFFFF" d="M472.17,534.25l-3.36,3.36l-9.43-0.73l-1.08-0.25l-7.14,1.32l-4.15,3.42v4.49
		l-8.22,0.36l-4.86,5.65l-3,2.23l2.57,3l-0.36,10.14l-1.86,3.36l3,3.36l5.22,0.42l1.13,5.22l0.36,3.36l-6.72,1.5l-3.36,1.13
		l0.73,9.37l-4.51,3l-3.78,1.13l-1.86,5.28l-3,0.36l-1.27,5.7l8.76,0.31l1.92,3.72l-1.56,4.15l3.42,4.49l2.57-0.73l2.65-3.78
		l12,1.13l1.92,7.51l8.22,1.13l1.86,2.57l-5.65,2.65l2.65,1.86l7.93,1.13l0.6,1.5l2.09-4.26l4.49,1.69l4.92-6.13l2.82,0.36
		l2.46-4.09l7.32,0.84l2.88-2.88h3.67l2.88-5.28l4.44-0.42l2.88-4.86l4.09,1.21h2.88l1.92-3.3l-1.92-1.21l-0.84-4.86h2.88v-2.04
		l-4.92-3.3l-5.28-2.4l0.79-4.92h-1.61l-2.04,2.88l-6.55,0.36l-3.67-0.36v-3.72l4.49-3.67l-2.88-3.67l-6.89,2.04l1.21-15.48
		l-3.24-3.3l-3.3-8.16l-4.86-1.21l-0.84-4.49l4.49-8.95l-0.12-5.53l-1.02,1.21L472.17,534.25L472.17,534.25z"/>
	<path id="fr-d86" fill="#DDDDDD" stroke="#FFFFFF" d="M374.67,447.61l-7.14,7.51l-1.8,3.13l0.6,9.24l3.24-0.42l0.42,4.09l1.27,6.55
		l2.04,4.49l-2.46,2.82l1.21,2.04l-1.61,2.88v1.21l2.88,3.3v2.04l-1.27,3.24l-4.09,6.11l4.09,1.61l1.27,2.88l-1.69,4.44l-0.36,2.04
		l-2.46,4.09v2.88l1.61,0.42v8.58l2.88,2.04l-1.27,2.82l0.42,2.46l3.24,3.67l1.69-2.46v-2.04l3.24-1.61l2.46,1.61v6.13l-2.46,2.88
		l-2.04,4.86l2.82,4.49l5.76,1.61l-1.27,3.72l-5.34,0.9l4.92,6.01l6.55-0.42l5.7-2.04l5.76,3.3l2.04-1.61l-0.42-5.34l3.24-2.46
		l2.88,4.92l2.4,2.46l6.97-2.88l2.88-3.24h6.49l3.36,1.69l0.25-7.09l-2.57-3l3-2.23l4.86-5.65l8.22-0.36v-4.49l4.15-3.42l10.14-1.86
		l0.73-5.65l-4.09-2.23l-2.28-7.85l-6.01-0.79l-3.73-3.72l-7.14-5.65l1.5-4.49v-7.14l-6.78-6.72l-0.73-5.28l-6.41-6.72l-2.23-9.01
		l-2.65-1.13l-3-4.15l-3,1.86l0.79,4.15l-9.77,2.28h-11.21l0.36-4.49v-7.14l-9.01-2.63v-4.49l-7.14-1.5l-1.5-6.01h-3.4V447.61
		L374.67,447.61L374.67,447.61z"/>
	<path id="fr-d16" fill="#DDDDDD" stroke="#FFFFFF" d="M408.33,561.26l-3.24,2.46l0.42,5.34l-2.04,1.61l-5.76-3.3l-5.7,2.04
		l-6.55,0.42l-4.92-6.01l-1.56,0.31l-6.55,3.24l-4.92,1.27v2.82l-2.82,3.3l0.79,2.04l-3.67,2.04l-3.24,11.83l-0.84,7.74l-2.82,1.21
		l-4.09-0.36l-0.84-2.04h-4.49l-2.4,2.04h-5.34l-4.49,2.4l3.3,1.27l0.42,8.58l1.61,0.36l-2.88,3.3l3.3,2.04l4.44,4.09l2.46,4.09
		l2.88,2.82l-0.84,4.09l-1.61,1.61l2.46,2.46v2.88l-4.92,4.09l2.04,1.61l2.88,0.84v0.79l-4.09,1.61l0.36,2.04l2.46,1.27l7.74-1.27
		l3.3,3.67l2.46,3.3l7.99,5.4l1.13-1.92l7.51,0.79l3.72-3.42l6.78-6.72l0.36-13.13l17.65-12l0.36-9.01l5.28-0.73l3.36-6.01
		l2.09,0.06l1.27-5.7l3-0.36l1.86-5.28l3.78-1.13l4.49-3l-0.73-9.37l3.36-1.13l6.72-1.5l-0.36-3.36l-1.13-5.22l-5.22-0.42l-3-3.36
		l1.86-3.36l0.12-3.05l-3.36-1.69h-6.49l-2.88,3.24l-6.97,2.88l-2.4-2.46L408.33,561.26L408.33,561.26z"/>
	<path id="fr-d79" fill="#DDDDDD" stroke="#FFFFFF" d="M361.17,454.75l-10.14,0.36l-9.37,1.86l-10.14,0.79v5.22l-5.22,3.42
		l-11.64-2.65l-7.85,3.36l3.73,5.28v4.49l9.01,7.51l-2.23,4.86l6.01,6.72l-2.65,3.42l3.73,5.59l1.13,10.5l-2.23,3l2.65,4.49
		l-2.65,4.92l0.36,3l3-2.28l3.73,3.78l-5.22,3.36l-1.86,2.23l-4.15,1.13l-4.86,2.28l-0.36-0.31l0.17,5.53l4.09,4.44v2.46l6.13,4.49
		l7.74,0.42l5.28,6.89l8.58-0.79l6.97,4.86l5.28,2.46l0.84,4.09l2.94,2.82l3.53-1.98l-0.79-2.04l2.82-3.3v-2.82l4.92-1.27l6.55-3.24
		l6.89-1.21l1.27-3.73l-5.76-1.61l-2.82-4.49l2.04-4.86l2.46-2.88v-6.13l-2.46-1.61l-3.24,1.61v2.04l-1.69,2.46l-3.24-3.67
		l-0.42-2.46l1.27-2.82l-2.88-2.04v-8.58l-1.61-0.42v-2.88l2.46-4.09l0.36-2.04l1.69-4.44l-1.27-2.88l-4.09-1.61l4.09-6.13
		l1.27-3.24v-2.04l-2.88-3.3v-1.21l1.61-2.88l-1.21-2.04l2.46-2.82l-2.04-4.49l-1.27-6.55l-0.42-4.09l-3.24,0.42l-0.6-9.24
		l-0.79,1.38l-2.65-2.23L361.17,454.75L361.17,454.75z"/>
	<path id="fr-d22" fill="#DDDDDD" stroke="#FFFFFF" d="M146.24,250.86l-3.42,2.63l-8.58,1.08l-1.92,2.65l-6.01-4.49l-7.85,5.28
		l3,4.09l-5.22,7.14l-0.25-0.12l-2.17,10.08l4.63,0.31l-0.31,4.01l3.42,2.17l-3.13,3.13l-2.17,1.56l0.31,3.67l4.69,1.56l-4.38,1.27
		v4.63l2.82,3.72l0.6,10.87l-1.86,1.86l1.56,5.59l5.88,1.56l0.6,3.05l3.72,0.31l3.13-2.17l1.86,1.86l7.14,3.13l5.88-3.13l1.5-3.05
		l4.97-0.36l5.59,4.97l5.28-1.27l4.63,4.69h2.17l2.17,2.76h4.38l1.5-2.17l1.86,4.01l4.69,1.86l5.88-3.73v-4.01l4.32-1.56h2.76
		l3.42,6.24l7.45,0.6l3.72-4.69l4.01-8.64l5.28-1.86l2.76-4.01l2.82,2.76l5.88-1.21l1.86-17.05l1.86-6.84l-1.86-3.73l-3.13-1.21
		l-2.09-11.35l-2.4,2.71l-7.14-0.79l-0.73,4.15l-4.49,0.36l-0.36-5.22l-3.78-1.13l-2.65,3v-7.51l-4.49,3.36l-6.72-1.13l-2.28,4.49
		l-13.86,7.51v3.78h-3v-6.78l-7.85-3.72l0.73-6.78l-7.09-5.22v-6.36l-5.28-1.13l0.36-6.01l-4.09-0.36l0.36-4.15h-7.51l-1.13,3.73
		L146.24,250.86L146.24,250.86z"/>
	<path id="fr-d85" fill="#DDDDDD" stroke="#FFFFFF" d="M278.24,455.04l-2.17,4.01h-6.18l2.46,2.52l-1.86,6.18l-5.59,1.86l-2.17-1.56
		l0.96-6.18l-1.56-3.42h-3.42l-2.46,2.76l1.21,8.7l2.82,4.01l-2.82,3.13l-5.22-0.96l-7.74-1.86l-2.17-5.88l-4.97-0.6l-6.49-2.82
		l-1.56-3.73l-7.09-4.63L211.08,471l-0.36,9.01l11.58,11.21l-0.36,3.36h3.36l7.14,21.43l7.51,3.72l7.51,7.51h8.64l3.36,7.51h8.28
		l3.74,5.63l8.28,4.15l0.36-5.28l2.09,1.98l11.46-6.97l5.28-0.36l2.23,6.01l7.14-3l6.01,4.49l4.86-2.28l4.13-1.13l1.86-2.23
		l5.22-3.36l-3.73-3.78l-3,2.28l-0.36-3l2.65-4.92l-2.65-4.49l2.23-3l-1.13-10.5l-3.73-5.59l2.65-3.42l-6.01-6.72l2.23-4.86
		l-9.01-7.51v-4.49l-3.73-5.28l0.73-0.31l-5.11-4.32h-9.6l-3.13-1.86l-4.32-0.6l-4.97-4.69L278.24,455.04L278.24,455.04z"/>
	<path id="fr-d50" fill="#DDDDDD" stroke="#FFFFFF" d="M241.82,163.07l-1.5,3.78l7.93,6.36v8.28l-3,3.72l1.86,1.86l1.13,0.79
		l-0.79,7.14l2.65,6.01l8.64,9.72l1.86,8.64l1.86,2.65v13.5l4.49,9.01v10.5l-4.86,9.72l5.22,13.5l8.28,1.86l0.73,3.78l-4.09,1.86
		h-7.09l1.13,4.74l2.23,7.14l6.41,5.65l3,0.73l3-4.09l3.36-0.42l4.09-4.86l3.78,3h4.49l3,1.5v0.73l6.36,0.79l3.78-3l5.59,2.28
		l0.12,0.25l6.41-5.45l2.17-7.14l-0.6-3.13l0.9-3.67l-3.72-3.73l-9.6-6.24l-7.09-0.6l-7.14-9.01l5.88-2.17l2.46-4.63l-3.05-2.82
		l2.76-2.46l2.76,2.17l4.97-3.05l3.13-4.97l1.21-4.92l-2.17-4.38l1.27-1.56l-2.82-4.63l3.13-4.01l-2.46-3.13l-3.13,4.01l-4.32-2.46
		l-7.14-7.14l-0.31-3.05l2.17-2.17l-0.65-4.15l-3.53,0.9l-0.36-9.01l-9.79-11.58l3-7.51h4.15l-3.73-10.14l-16.15-0.79l-8.64,6.01
		l-9.72-6.36L241.82,163.07L241.82,163.07z"/>
	<path id="fr-d56" fill="#DDDDDD" stroke="#FFFFFF" d="M119.78,322.61l-6.24,3h-4.38l-4.63,3.73l0.31,2.76l2.76,7.14l1.56,5.59
		l9.6,1.56l4.69,3.73l1.86-2.23l3.05,4.09l-1.56,1.86l-0.31,5.53h-2.76l-2.17,3.42h-4.38l-1.8,7.37l4.21,6.72l6.01,1.5l2.23-3.36
		l-1.08,4.07l5.22,2.28l6.78,6.72l2.23,4.15l-0.73,4.86l-0.79,4.92l4.49,3.36l2.28-2.65l-2.28-3V393l4.49,1.08l1.5-4.49l1.13,2.65
		l4.86,4.15l2.28-3.78l-2.28-5.22l4.15,5.65l5.22-0.79l-1.08-2.65l4.86,1.13l3.72,4.49l-1.86,3l-4.86-1.5l-5.65-2.65l-3,3.78
		l4.49,1.5l3.36,5.22l20.28-1.86l5.22,1.13l-2.57,2.23l0.36,3.42l0.73,0.54l1.61-0.31l3.36-3.36l2.23,2.57h6.01l7.14-3.73l10.5-4.15
		l0.36-10.5l2.23-1.21l-3.96-7.45l3.42-2.76l-0.6-1.86l-2.17-1.27l3.36-1.56l3.13-3.72l-0.31-3.73h-4.01l-0.96-3.67l2.82-3.72
		l-3.13-5.57l-4.63-2.82h-5.28l-1.86-0.6v-2.46l2.76-2.52l1.56-6.18l-0.9-4.01l-1.27,1.56l-7.45-0.6l-3.42-6.24h-2.76l-4.32,1.56
		v4.01l-5.88,3.72l-4.69-1.86l-1.86-4.01l-1.5,2.17h-4.38l-2.17-2.76h-2.17l-4.63-4.69l-5.28,1.27l-5.59-4.97l-4.97,0.36l-1.5,3.05
		l-5.88,3.13l-7.14-3.13l-1.86-1.86l-3.13,2.17l-3.72-0.31l-0.6-3.05l-5.88-1.56L119.78,322.61L119.78,322.61z"/>
	<path id="fr-d29" fill="#DDDDDD" stroke="#FFFFFF" d="M90.32,262.07l-4.09,4.49l-4.49-1.86l-8.28,0.79l-1.5,3.72l-4.86,1.13
		l-0.79-4.15l-8.58,1.13v2.65l-6.01,0.36l-2.65-1.86l-3,1.5l-0.79,4.49l-10.08,0.36l-5.28,6.36l4.49,3.36l-6.01,4.92l1.86,3.36
		l-1.5,8.22l6.01,0.79l2.28-2.28l1.13,1.5l14.23-1.86l9.37-6.72l-8.22,7.89l0.73,3.72l7.51-3.36L60.3,306l8.28,0.36l-0.36,2.23
		l-9.01-0.36l-7.14-1.86l-8.64-4.15l-5.22,6.01l6.72,2.28l-0.36,10.08l1.86-1.5l4.15-6.36l7.85,4.49l3.78,0.79l1.5,6.01l-2.28,4.09
		l-4.86-0.36h-4.49l-7.51,1.13l-12.79,0.73L29.23,333l3.72,2.23l4.15-0.36l3.36,3l4.86-0.36l7.93,9.01l1.86,9.72l-2.65,5.28
		l7.85,1.5l8.64-0.42l1.86-3.36l-3.36-4.49l3.36,1.5l3.42-0.36l6.01,3.36l3.72-0.73v-6.41l1.5,6.41l4.86,7.85l10.5,0.73l0.42-2.23
		l2.57,3.73l6.41,1.13h4.86l0.31,0.42l1.8-7.37h4.38l2.17-3.42h2.76l0.31-5.53l1.56-1.86l-3.05-4.09l-1.86,2.23l-4.69-3.72
		l-9.6-1.56l-1.56-5.59l-2.76-7.14l-0.31-2.76l4.63-3.72h4.38l6.24-3l-1.32-4.74l1.86-1.86l-0.6-10.87l-2.82-3.72v-4.63l4.38-1.27
		l-4.69-1.56l-0.31-3.67l2.17-1.56l3.13-3.13l-3.42-2.17l0.31-4.01l-4.63-0.31l2.17-10.08l-6.18-3.61l-10.5,0.36v7.51h-3l-0.73-3.36
		l-4.49,0.73L90.32,262.07L90.32,262.07z"/>
	<path id="fr-d35" fill="#DDDDDD" stroke="#FFFFFF" d="M235.46,275.22l-3.61,4.09l2.09,11.35l3.13,1.21l1.86,3.73l-1.86,6.84
		l-1.86,17.05l-5.88,1.21l-2.82-2.76l-2.76,4.01l-5.28,1.86l-4.01,8.64l-2.46,3.13l0.9,4.01l-1.56,6.18l-2.76,2.52v2.46l1.86,0.6
		h5.28l4.63,2.82l3.13,5.59l-2.82,3.72l0.96,3.67h4.01l0.31,3.73l-3.13,3.72l-3.36,1.56l2.17,1.27l0.6,1.86l-3.42,2.76l3.96,7.45
		l7.57-4.01l23.21-1.13l1.5-4.15l3.78-3.73l8.22-1.13l0.36-4.15l5.65,0.79l3.36,4.49l7.57,1.86l1.44-3l1.92-6.78l4.86-12l2.65-1.5
		l6.36,0.79v-10.14l-2.65-2.65v-10.87l-1.13-3.72v-6.01l3.78-3.78v-7.51l-1.86-1.5l0.36-10.5l-3-1.5h-4.49l-3.78-3.01l-4.09,4.86
		l-3.36,0.42l-3,4.09l-3-0.73l-6.41-5.65l-2.23-7.14l-1.13-4.74h-18.41l-6.78-4.15l4.49-6.01L235.46,275.22L235.46,275.22z"/>
	<path id="fr-d44" fill="#DDDDDD" stroke="#FFFFFF" d="M267.4,371.1l-0.36,4.15l-8.22,1.13l-3.78,3.72l-1.5,4.15l-23.21,1.13
		l-9.77,5.22l-0.36,10.5l-10.5,4.15l-7.14,3.73h-6.01l-2.23-2.57l-3.36,3.36l-1.61,0.31l1.92,1.32l-7.14,6.36l1.5,1.5l1.5,3
		l-3.78,5.28l4.15,2.23l7.14,1.5l0.73-3l4.15,5.28h6.78l4.86-5.28h6.36l-6.72,3.36l0.36,3.78l1.5,3.36l-4.15,4.15h-4.49l0.79,5.65
		l8.22-1.5l9.77,9.01l-0.48,0.6l7.09,4.63l1.56,3.72l6.49,2.82l4.97,0.6l2.17,5.88l7.74,1.86l5.22,0.96l2.82-3.13l-2.82-4.01
		l-1.21-8.7l2.46-2.76h3.42l1.56,3.42l-0.96,6.18l2.17,1.56l5.59-1.86l1.86-6.18l-2.46-2.52h6.18l2.17-4.01l2.17,0.31l4.97,4.69
		l3.61,0.48l0.12-3.9l-3.13-4.01h-2.76l-0.96,0.31l-1.86-0.9l1.56-1.56v-2.82l3.13-0.9l1.86-4.32l-1.56-1.56l-0.31-5.28h-4.05
		l-4.01-4.97v-3.67l4.32-2.23l7.74-1.5l12.06,0.31l3.73-2.52l-1.27-7.74l-5.59-5.22l-6.78,0.9l-1.86-1.56l-0.31-5.53l4.92-4.38
		l-3.72-4.63l-2.46-6.55l-4.01-2.46v-4.32l-0.42-1.38l-7.03-1.75l-3.36-4.49L267.4,371.1L267.4,371.1z"/>
	<path id="fr-d49" fill="#DDDDDD" stroke="#FFFFFF" d="M284.79,376.57l-0.84,1.69l-0.54-0.12l0.42,1.38v4.32l4.01,2.46l2.46,6.55
		l3.72,4.63l-4.92,4.38l0.31,5.53l1.86,1.56l6.78-0.9l5.59,5.22l1.27,7.74l-3.72,2.52l-12.06-0.31l-7.74,1.5l-4.32,2.23v3.67
		l4.01,4.97h4.01l0.31,5.28l1.56,1.56l-1.86,4.32l-3.13,0.9v2.82l-1.56,1.56l1.86,0.9l0.96-0.31H286l3.13,4.01l-0.12,3.9l0.73,0.12
		l3.13,1.86h9.6l5.11,4.32l7.14-3.05l11.64,2.65l5.22-3.42v-5.22l10.14-0.79l9.37-1.86l10.14-0.36l1.13,2.65l2.65,2.23l2.57-4.49
		l7.14-7.51h2.88l4.26-15.36l6.01-7.14l-0.42-8.22l3.78-4.92v-2.23l-1.86-2.28l1.19-2.46l-5.11-1.98l-15.78-9.6l-14.57-4.32
		l-5.59-0.31v-3.73l-3.42-2.82h-3.67l-6.84-2.17l-4.32,4.32l-9.91,0.36l-4.38-2.52l-11.1-3.36l-2.52,3.05l-6.18-4.01h-5.59
		L284.79,376.57L284.79,376.57z"/>
	<path id="fr-d72" fill="#DDDDDD" stroke="#FFFFFF" d="M400.96,305.89l-10.14,0.36l-10.14,9.37l-5.28-0.31l-7.03,2.28l-2.17,3.73
		l-0.96,8.05l0.65,4.92l-5.59,4.69l-1.56,3.05l1.27,2.82l-1.56,3.72l0.6,1.56l-6.18,0.6l-0.9,2.76l2.76,6.84l-0.31,1.86l-2.46,2.17
		l-5.28,0.31l-0.65,1.86l1.27,1.86v11.16l-1.21,2.82l3.36,2.76v3.73l5.59,0.31l14.57,4.32l15.78,9.6l5.11,1.96l2.52-5.05l7.51,5.28
		h4.15l-2.28-7.51l4.57,3l2.57-3.78l10.87-3l-1.86-4.49l2.65-3.36l5.65-2.23l5.22-6.78v-7.14h3.78l1.5-5.22l0.36-7.85l-3.73-3.42
		l3-5.22l4.44-5.65l-5.22-3.73l-4.86-0.79l-5.28-7.85h-1.5l-0.36,3.72l-0.36-2.57h-7.85l-3.78-5.65l-6.36-2.28l-1.88-13.52
		L400.96,305.89L400.96,305.89z"/>
	<path id="fr-d53" fill="#DDDDDD" stroke="#FFFFFF" d="M362.67,295.39l-3.72,0.36l-1.56,3.73l-5.59,2.28l-10.14-1.5l-10.14,6.01
		l-3.72-2.65l-5.65,3.78l-4.15-3l-2.65-4.49l-5.59-2.28l-3.78,3l-6.36-0.79l-0.36,9.77l1.86,1.5v7.51l-3.78,3.78v6.01l1.13,3.73V343
		l2.65,2.65v10.14l-6.36-0.79l-2.65,1.5l-4.86,12l-1.92,6.78l-0.6,1.32l6.78,1.38h5.59l6.18,4.01l2.52-3.05l11.1,3.36l4.38,2.52
		l9.91-0.36l4.32-4.32l6.84,2.17h3.67l0.06,0.06l1.21-2.82v-11.16l-1.27-1.86l0.65-1.86l5.28-0.31l2.46-2.17l0.31-1.86l-2.76-6.84
		l0.9-2.76l6.18-0.6l-0.6-1.56l1.56-3.72l-1.27-2.82l1.56-3.05l5.59-4.69l-0.65-4.92l0.96-8.05l2.17-3.73l7.03-2.28l-1.08-0.06
		l-1.92-6.78l-4.86-1.86l-1.5-8.22L362.67,295.39L362.67,295.39z"/>
	<path id="fr-d14" fill="#DDDDDD" stroke="#FFFFFF" d="M401.38,202.01l-8.76,1.56l-14.29,8.28l-16.09,6.36l-12.79-7.14l-30.72-4.49
		l-7.14-3.72l-11.1,2.82l0.65,4.15l-2.17,2.17l0.31,3.05l7.14,7.14l4.32,2.46l3.13-4.01l2.46,3.13l-3.13,4.01l2.82,4.63l-1.27,1.56
		l2.17,4.38l-1.21,4.92l-3.13,4.97l-4.97,3.05l-2.76-2.17l-2.76,2.46l3.05,2.82l-2.46,4.63l-5.88,2.15l7.14,9.01l7.09,0.6l5.45,3.53
		l7.57-2.28l5.59-6.49l7.74,2.17l6.78-4.69l4.09-1.5l4.32,4.32l7.14-1.27l6.18,3.42l7.74-2.46l7.09-5.28l4.69-5.28l3.13-0.6
		l0.9,4.01l2.46-0.6l0.31-2.82l7.14-1.21l2.46,1.5l7.62-1.69l1.27-3.67l-0.36-3.36l-3.78-1.5l-0.36-2.65l3.36-2.23l0.42-3.78
		l-2.28-9.01l-4.49-6.36l3.78-2.23v-1.5l-3.78-1.13L401.38,202.01L401.38,202.01z"/>
	<path id="fr-d61" fill="#DDDDDD" stroke="#FFFFFF" d="M409.41,253.62l-7.62,1.69l-2.46-1.5l-7.14,1.21l-0.31,2.82l-2.46,0.6
		l-0.9-4.01l-3.13,0.6l-4.69,5.28l-7.09,5.28l-7.74,2.46l-6.18-3.42l-7.14,1.27l-4.32-4.32l-4.09,1.5l-6.78,4.69l-7.74-2.17
		l-5.59,6.49l-7.57,2.28l4.15,2.71l3.72,3.73l-0.9,3.67l0.6,3.13l-2.17,7.14l-6.41,5.45l2.52,4.26l4.15,3l5.65-3.78l3.72,2.65
		l10.14-6.01l10.14,1.5l5.59-2.28l1.56-3.73l3.73-0.36l3.36,3l1.5,8.22l4.86,1.86l1.92,6.78l6.36,0.36l10.14-9.37l10.14-0.36
		l3.05,4.05l1.86,13.5l6.36,2.28l3.78,5.65h7.85l0.36,2.57l0.36-3.73h1.5l5.28,7.85l4.09,0.65v-8.89l-2.57-3.42l-0.79-3l5.65-3.36
		l5.65-1.13l3.73-4.49l-0.73-13.86l-7.93-6.72l-0.36-6.41l-6.72-4.49l2.65-3.72l-1.56-5.65l-5.22-1.86l-3.78-3.78l-2.23-5.22
		l-10.5-0.36l-3-3.78L409.41,253.62L409.41,253.62z"/>
	<path id="fr-d28" fill="#DDDDDD" stroke="#FFFFFF" d="M486.82,256.37l-2.28,1.86v6.01l-7.51,3.72v5.65l-2.23,2.65h-9.41l-4.44-1.86
		l-13.56,7.09h-5.22l-5.4,5.17l1.27,0.84l0.36,6.41l7.93,6.72l0.73,13.86l-3.73,4.49l-5.65,1.13l-5.65,3.36l0.79,3l2.57,3.42v8.87
		l0.79,0.12l5.22,3.72l-1.92,2.4l3.72,1.86l5.93-1.08h3.48l-0.25,1.61l-3.24,1.86l2.17,1.61h5.4l1.86,4.32l3.24,1.86l2.4,5.4
		l8.33,2.17l5.17-0.54l4.57-4.32l4.09,1.13l1.02-2.23l-0.25-2.4l2.17-1.61l3.48,2.17l2.17-1.61v-2.94l2.94-1.92l2.71,1.08l2.4,2.71
		l4.32-2.4h4.57l3.24-3.53l1.92-6.97l2.94-0.54l-0.79-7.03l3.48-2.94l-1.08-2.17l0.42-0.73l-1.02,0.12l-0.79-10.08l-0.79-1.13
		l-0.73-4.86l-7.85-1.5l-3.42-4.15l-1.08-8.28l-4.49-0.73l-0.79-4.15l-5.22-3.73l-2.65-6.41l2.65-4.49l-2.65-3v-3.73l1.5-4.15l-3-3
		l-1.13-4.49L486.82,256.37L486.82,256.37z"/>
	<path id="fr-d89" fill="#DDDDDD" stroke="#FFFFFF" d="M623.69,316.37l-3.36,2.57l-14.65-0.73l-6.72,3.36l-2.65,5.65l3,3.36
		l-4.49,5.28l-3.42,4.09l6.78,6.41l1.86,6.01l4.92,5.22v6.78l-9.77,8.22l3.36,3.78l-0.73,5.59l-5.28,3.78h-7.51l1.13,4.15l4.86,6.72
		l1.13,6.01l1.13,4.15l-2.23,0.65l4.74,1.08h3.53l1.86-2.94h2.46l2.71,2.4l-0.54,3l2.46,1.61h3.48l4.86,3.24l2.17-1.08l2.17,1.86
		l2.17-0.54l3.72-2.4l3.53,1.08l2.4-0.54v-6.72l1.32,0.25l0.84,3.48l4.32,2.71V418l6.18,0.25l8.1,7.57l5.11,0.25l-0.31-2.4
		l2.17-3.24l1.92,2.4l-1.61,2.71l0.79,2.46l2.94-1.92h3.53l-0.31,5.4l3.24,2.17l2.46-1.08l6.01-4.09l-0.36-0.79l-3.53-2.17
		l-0.25-3.78l3.78-1.86l1.61-2.17l-1.08-1.86v-4.32l2.94-4.32l4.32-9.18l0.79-4.01l2.71-1.08l0.31-0.79l-1.38-1.08v-3.24l4.32-3.24
		l1.08-5.4l-1.86-3.19h-3l-0.79-0.84v-4.57l3.78-2.71l-0.31-2.71l-0.54-2.71l-1.92,4.15l-2.65-0.36l-2.23-4.15l-7.51,3.78l-15-0.79
		l-1.86-4.15l-4.15-5.59l-0.73-6.78l-6.01-7.14l-3.78,2.65l-6.78-5.22l1.13-10.14l-9.72-10.14h-4.49L623.69,316.37L623.69,316.37z"
		/>
	<path id="fr-d70" fill="#DDDDDD" stroke="#FFFFFF" d="M825.41,351.24l-7.09,1.13l-1.13,3.73l-3.78,2.65l-2.57-3l-1.86,1.13
		l1.44,2.23l-3.72,2.28l1.13,3l-4.15,1.5v4.86h-5.28l-0.36,3l-5.22,1.13l0.36,4.49l3.36,0.36l-1.86,2.21l-1.13,7.51h-3.36
		l-5.65,2.28l-6.01-2.28l-5.22,2.28v3.78l4.09,0.73l3,6.01l0.42,3l-4.86,5.65l-2.28,0.73l-1.5,1.86l4.15,1.92l0.73,6.01l3.36,0.36
		l0.42,7.51l1.5,1.5l0.17,1.21l2.88,0.79l3.24,2.71h4.86l1.86-1.86l3.3,0.12l3.42,0.12l7.57-6.18h2.17l2.4-1.86l7.8,0.25l5.93-4.86
		l4.32-0.79l1.61-4.01l3.48-1.08l3.48-5.93l4.86-3.78l5.11-0.79l3.78,2.71l7.03-0.84v-3.78l2.82-1.61l2.23-3.05h4.32l2.4-2.52
		l0.9-6.01V386l-1.61-5.7v-4.8l2.94-2.17l3.48-1.8l-0.36-0.73l-12-6.36l-3.36-3.78l-3.36-2.23l-3,1.5l-0.42,2.23l-3,1.86h-1.86
		l-5.65-6.36h-7.85l-3.36,2.65l-3,0.36l-4.86-3.72l0.36-4.15L825.41,351.24L825.41,351.24z"/>
	<path id="fr-d76" fill="#DDDDDD" stroke="#FFFFFF" d="M476.8,132.35l-2.46,3l-16.09,12.37l-28.49,7.14l-18.78,6.72l-15.36,8.28
		l-9.01,13.5l-1.86,10.5l7.51,5.65l10.87,2.23l-1.75,0.31l0.06,0.31l8.41-1.08l4.32-4.63l3.24-0.77l3.73,6.49l5.17-0.54l2.17,3.72
		l9.12-0.54l9.18,6.49l-5.93,1.86l4.32,3.24h2.71l2.4,5.17h4.32l1.32-3.24l-3.24-2.17l9.18-2.71l9.66-1.08l2.46-7.03l4.57-4.01
		l8.64-0.25l9.97,5.11l5.93,0.65l1.02-3.13l2.65-4.92l1.5-2.57h-3.78v-6.47l-2.23-3.72l1.5-7.51l1.5-3.78h-3l1.5-3.72l3.73-4.49
		l-3.73-6.78l-1.13-6.72l-16.49-16.15l-1.86-3.72l-4.15,0.36L476.8,132.35L476.8,132.35z"/>
	<path id="fr-d27" fill="#DDDDDD" stroke="#FFFFFF" d="M417.39,195.83l-3.24,0.79l-4.32,4.63l-8.41,1.08l1.75,13.92l3.78,1.13v1.5
		l-3.78,2.23l4.49,6.36l2.28,9.01l-0.42,3.78l-3.36,2.23l0.36,2.65l3.78,1.5l0.36,3.36l-3,8.64l3,3.78l10.5,0.36l2.23,5.22
		l3.78,3.78l5.22,1.86l1.56,5.65l-2.65,3.73l5.45,3.67l5.4-5.17h5.22l13.56-7.09l4.44,1.86h9.43l2.23-2.65v-5.65l7.51-3.73v-6.01
		l2.04-1.69l-0.17-1.69l1.92-1.92l-3.36-0.73v-3l-1.92-3l1.5-1.86l10.5-3l2.65-4.49l2.28-8.28l2.76-3.42l0.6-4.44l3.36,1.86
		l2.65-0.73l-1.92-3l-1.08-8.64l-3.36-3l0.06-0.25l-5.93-0.65l-9.97-5.11l-8.64,0.25l-4.57,4.01l-2.46,7.03l-9.66,1.08l-9.18,2.71
		l3.24,2.17l-1.32,3.24h-4.32l-2.4-5.17h-2.71l-4.32-3.24l5.93-1.86l-9.18-6.49l-9.12,0.54l-2.17-3.72l-5.17,0.54L417.39,195.83
		L417.39,195.83z"/>
	<path id="fr-d37" fill="#DDDDDD" stroke="#FFFFFF" d="M419.68,392.29l0.73,1.69l-10.87,3l-2.57,3.78l-4.57-3l2.28,7.51h-4.15
		l-7.51-5.28l-3.72,7.51l1.86,2.28v2.23l-3.78,4.92l0.42,8.22l-6.01,7.14l-4.26,15.36h0.48l1.5,6.01l7.14,1.5v4.49l9.01,2.65v7.14
		l-0.36,4.49h11.21l9.77-2.28l-0.79-4.15l3-1.86l3,4.15l2.65,1.13l2.23,9.01l6.41,6.72l0.73,5.28l5.82,5.76l3.3-0.31l4.09-3.78
		l2.94-15.3l1.86-5.4l1.38-6.72l5.93-2.17l4.01,0.79l2.71,2.46l2.94-4.86l2.71-2.46V457l3.48-0.25l0.84-3.53l-3-4.01l0.48-1.69
		l-2.09-1.8l-5.65-8.33H458l-2.17-3.24v-13.5l-2.94-7.8l-0.54-9.66l-3.78-0.31l-4.32-3.24h-1.08l-3.78,2.71l-2.4-1.61l-0.54-3.73
		l2.71-1.38l0.25-1.32l-1.56-1.38L419.68,392.29L419.68,392.29z"/>
	<path id="fr-d45" fill="#DDDDDD" stroke="#FFFFFF" d="M537.82,322.38l-4.86,4.49l-10.98,0.96l-0.42,0.73l1.08,2.17l-3.48,2.94
		l0.79,7.03l-2.94,0.54l-1.92,6.97l-3.24,3.53h-4.57l-4.32,2.4l-2.4-2.71l-2.71-1.08l-2.94,1.92v2.94l-2.17,1.61l-3.48-2.17
		l-2.17,1.61l0.25,2.4l-1.02,2.23l0.79,0.25h3.19l-0.25,2.17l-2.17,3.72v1.92h2.17l1.86,2.17l0.54,2.17l-4.26,4.26l2.09,5.17v2.4
		l3.53,2.4l4.86,0.54l3.19,2.71l0.84,4.63l3.48,4.01l3.78-1.08l1.61-3.48l5.93,0.79l1.32,1.38h3.78l1.86-2.17l13.75,0.54l3.24,4.8
		l3.78,1.61l3.24,3l4.01-0.54l1.08-1.38h2.4l3,3.78l6.18,0.31l1.61,2.09l4.32,5.93l1.86,1.61l2.4-0.25l0.31-5.4l1.08-0.54l1.61,0.25
		l2.71,3.53l1.86,0.79l3.84-1.56l-0.6-0.65l-0.36-3.78l7.51-2.23l-1.13-4.15l-1.13-6.01l-4.86-6.72l-1.13-4.15h7.51l5.28-3.78
		l0.73-5.59l-3.36-3.78l9.77-8.22v-6.78l-4.92-5.22l-1.86-6.01l-6.78-6.41l-9.37,5.28l-0.73-3l-4.15-0.36l-1.13,3l-3.73,0.73
		l-10.14-0.36l-4.15,2.65l-3.36-3l6.01-4.15l-0.36-6.36l-4.49-2.28l-3.78-5.65l-10.08-0.73L537.82,322.38L537.82,322.38z"/>
	<path id="fr-d36" fill="#DDDDDD" stroke="#FFFFFF" d="M501.34,439.45l-2.4,0.84l-4.86-0.31l-5.65,1.92l-1.32,2.94l-0.54-1.08
		l-6.49,0.31l-3.24,2.71l-3.78,0.54l-0.54,1.86l3,4.01l-0.84,3.53l-3.48,0.25v2.94l-2.71,2.46l-2.94,4.86l-2.71-2.46l-4.01-0.79
		l-5.93,2.17l-1.38,6.72l-1.86,5.4l-2.94,15.3l-4.09,3.78l-3.3,0.31l0.96,0.96v7.14l-1.5,4.49l7.14,5.65l3.72,3.72l6.01,0.79
		l2.28,7.85l4.09,2.23l-0.73,5.65l-3,0.54l1.08,0.25l9.43,0.73l3.36-3.36l6.01,6.01l7.51-8.64l3.36,2.28l4.49-0.42l1.5,0.79
		l6.78,0.36l2.23-6.01l18.78,2.28l7.14,1.86l3.24-0.36l0.17-3l3.78-3.78l-0.79-3.24l-2.17-4.26l0.79-1.61l0.31-4.86l1.32-1.61
		l0.31-1.08l-3.24-2.94l-1.08-3.78l-5.11-2.71v-3.24l3.72-2.17V492l-3.48-2.94l-1.08-1.86l2.71-1.38l-0.25-2.4l4.26-3.53l-0.25-1.56
		h-3.48l-2.17-2.46v-1.32l1.86-3.24v-2.4l-4.32-5.7l0.84-5.11l-2.46-1.86l-5.11,0.25l-4.01,1.61l-5.4-0.79l-2.71-2.17l-0.54-1.61
		l4.32-3.53l0.31-4.26l-5.7-3.23L501.34,439.45L501.34,439.45z"/>
	<path id="fr-d41" fill="#DDDDDD" stroke="#FFFFFF" d="M439.47,345l-2.52,3.24l-3,5.22l3.72,3.42l-0.36,7.85l-1.5,5.22h-3.78v7.14
		l-5.22,6.78l-5.65,2.23l-2.65,3.36l1.13,2.82l18.18,0.6l1.56,1.38l-0.25,1.32l-2.71,1.38l0.54,3.73l2.4,1.61l3.78-2.71h1.11
		l4.32,3.24l3.78,0.31l0.54,9.66l2.94,7.8v13.5l2.17,3.24h7.26l5.65,8.33l2.09,1.8l0.06-0.17l3.78-0.54l3.24-2.71l6.49-0.31
		l0.54,1.08l1.32-2.94l5.65-1.92l4.86,0.31l2.4-0.84l3.24,3l5.7,3.24l4.8-0.31l-0.25-4.88l2.17-2.4l2.17-0.25l1.86,2.09l7.57-0.79
		l4.8-2.71l-0.54-1.86l-1.32-1.61l0.25-3.53l3.53-6.41l4.57-1.92v-4.01l1.08-2.4l-2.94-1.08l-1.92-4.09l-4.86-1.32l-0.25-1.61
		l4.86-4.01l5.45-2.71l-3.05-4.57l-13.75-0.54l-1.86,2.17h-3.78l-1.32-1.38l-5.93-0.79l-1.61,3.48l-3.78,1.08l-3.48-4.01l-0.84-4.63
		l-3.19-2.71l-4.86-0.54l-3.53-2.4v-2.4l-2.09-5.17l4.26-4.26l-0.54-2.17l-1.86-2.17h-2.17v-1.92l2.17-3.72l0.25-2.17h-3.19
		l-4.86-1.38l-4.57,4.32l-5.17,0.54l-8.33-2.17l-2.4-5.4l-3.24-1.86l-1.86-4.32h-5.4l-2.17-1.61l3.24-1.86l0.25-1.61h-3.48
		l-5.93,1.08L439.47,345L439.47,345z"/>
	<path id="fr-d18" fill="#DDDDDD" stroke="#FFFFFF" d="M541.3,399.9l-5.45,2.71l-4.86,4.01l0.25,1.61l4.86,1.32l1.92,4.09l2.94,1.08
		l-1.08,2.4v4.01l-4.57,1.92l-3.53,6.41l-0.25,3.53l1.32,1.61l0.54,1.86l-4.8,2.71l-7.57,0.79l-1.86-2.11l-2.17,0.25l-2.17,2.4
		l0.25,4.86l-4.8,0.31l-0.31,4.26l-4.32,3.53l0.54,1.61l2.71,2.17l5.4,0.79l4.01-1.61l5.11-0.25l2.46,1.86l-0.84,5.11l4.32,5.7v2.4
		l-1.86,3.24v1.32l2.17,2.46h3.48l0.25,1.56l-4.26,3.53l0.25,2.4l-2.71,1.38l1.08,1.86l3.48,2.94v2.17l-3.72,2.17v3.24l5.11,2.71
		l1.08,3.78l3.24,2.94l-0.31,1.08l-1.32,1.61l-0.31,4.86l-0.79,1.61l2.17,4.26l0.79,3.24l-3.78,3.78l-0.17,3l8.81-1.08l1.8-3.84
		l4.86-5.59l9.37-1.92l4.92,1.5l5.22-4.09l-0.36-3l-1.86-1.5v-6.01l10.08-10.14l3.78,4.15l3.36-3.42l3-0.36l5.22-6.72l8.64,0.73
		l0.12,2.04l2.88-9.18l-1.86-3.36l0.36-4.86l1.13-9.77l-4.15-4.09l0.79-9.01l-3.78-7.93l-0.36-5.22l-6.78-5.28l-1.08-4.51l3.36-4.86
		v-7.14l-3.9-4.57l-3.84,1.56l-1.86-0.79l-2.71-3.53l-1.61-0.25l-1.08,0.54l-0.31,5.4l-2.4,0.25l-1.86-1.61l-4.32-5.93l-1.61-2.09
		l-6.18-0.31l-3-3.78h-2.4l-1.08,1.38l-4.01,0.54l-3.24-3l-3.78-1.61L541.3,399.9L541.3,399.9z"/>
	<path id="fr-d21" fill="#DDDDDD" stroke="#FFFFFF" d="M709.98,354.6l-0.79,4.86l-4.86,2.65l-12.37,0.36l0.54,2.71l0.31,2.71
		l-3.78,2.71v4.57l0.79,0.84h3l1.86,3.19l-1.08,5.4l-4.32,3.24v3.24l1.38,1.08l-0.31,0.79l-2.71,1.08l-0.79,4.01l-4.32,9.18
		l-2.94,4.32v4.32l1.08,1.86l-1.61,2.17l-3.78,1.86l0.25,3.78l3.53,2.17l1.32,2.94l-0.54,4.09l-0.79,2.94l1.86,3.24l5.4,1.08
		l2.4,3.78v1.61l-1.61,0.54v3.9l0.31,0.12l7.26,7.51l7.57-0.25l6.72,5.11l4.86,3.53l0.25,4.57l5.11,1.08l4.32,3.48l11.35-4.01
		l7.8-2.46l3.48-0.54l1.08-1.56l3.78,0.25l2.94,1.86l4.32-1.09l4.32-2.94l3.24,0.36l0.06-0.36l2.57-1.5l-0.36-1.92l-0.73-2.23
		l1.86-3l6.36-3v-3l2.28-3l2.23-3l-0.73-2.65l1.08-4.15l0.79-6.01h1.5l-0.36-2.23l-1.5-1.5l-0.42-7.51l-3.36-0.36l-0.73-6.01
		l-4.15-1.92l1.5-1.86l2.28-0.73l4.86-5.65l-0.42-3l-3-6.01l-4.44-0.79l-1.56,3.78l-8.22,1.86l-0.79-1.86l-6.01-7.51l-3.36,1.86
		l-4.49-0.36l-1.5-3l-5.99,0.36l-0.36-6.36l-3.36-2.28l4.86-5.22l-8.64-11.64l-6.72-7.14l-6.01-3.36L709.98,354.6L709.98,354.6
		L709.98,354.6z"/>
	<path id="fr-d58" fill="#DDDDDD" stroke="#FFFFFF" d="M601.24,405.54l-1.86,2.94h-3.53l-4.74-1.08l-5.28,1.56l0.36,3.78l4.49,5.22
		v7.14l-3.36,4.86l1.08,4.49l6.78,5.28l0.36,5.22l3.78,7.93l-0.79,9.01l4.15,4.09l-1.13,9.77l-0.36,4.86l1.86,3.36l-2.88,9.18
		l0.25,2.82l6.41,3l4.49,4.92l4.09-2.28l3.78-2.23l0.79,3.36h5.59l1.5-3l3.36,1.5l1.13,4.86l3-0.73l7.14-9.77l3.72,2.65l0.6,1.13
		l5.88-3.67l2.4,0.31l1.86,4.57l3.53-0.54l2.71-2.71h3.48l2.71-3.48l2.71-0.54l0.54-1.92l5.88,0.31l0.31-1.38l-2.71-2.4v-2.4
		l3.78-2.17v-1.61l-3.53-2.17l-0.54-4.01l0.31-3.78l-2.4-1.61l2.09-2.94l1.92-1.08l1.32-3.24l-1.86-1.08l-2.17-3.24l2.71-3.78
		l4.57-2.71h5.65v-4.26l1.61-0.54v-1.61l-2.4-3.78l-5.4-1.08l-1.86-3.24l0.79-2.94l0.54-4.09l-0.96-2.17l-6.01,4.09l-2.46,1.08
		l-3.24-2.17l0.31-5.4h-3.53l-2.94,1.92l-0.79-2.46l1.61-2.71l-1.92-2.4l-2.17,3.24l0.31,2.4l-5.11-0.25l-8.1-7.57l-6.18-0.25v-4.09
		l-4.32-2.71l-0.84-3.48l-1.32-0.25v6.72l-2.4,0.54l-3.53-1.08l-3.72,2.4l-2.17,0.54l-2.17-1.86l-2.17,1.08l-4.86-3.24h-3.48
		l-2.46-1.61l0.54-3l-2.71-2.4L601.24,405.54L601.24,405.54L601.24,405.54z"/>
	<path id="fr-d71" fill="#DDDDDD" stroke="#FFFFFF" d="M687.11,451.74v0.36h-5.65l-4.57,2.71l-2.71,3.78l2.17,3.24l1.86,1.08
		l-1.32,3.24l-1.92,1.08l-2.09,2.94l2.4,1.61l-0.31,3.78l0.54,4.01l3.53,2.17v1.61l-3.78,2.17v2.4l2.71,2.4l-0.31,1.38l-5.88-0.31
		l-0.54,1.92l-2.71,0.54l-2.71,3.48h-3.48l-2.71,2.71l-3.53,0.54l-1.86-4.57l-2.4-0.31l-5.88,3.67l6.97,13.08v5.65l1.86,2.28h6.36
		l2.23,3h6.01l2.65,3.72l-0.36,14.65l-7.85,6.01l-0.17,0.42l0.54-0.06l1.13,0.36l0.36,6.01l5.65,1.13l0.73,2.65h3l4.49-2.65l12,1.86
		l2.28,2.28l3-3h4.15l2.23-12l1.5-1.13h3.72l4.57,3l3.36-3l2.23,3l3.42-3.36l4.09-0.36l1.92,6.01l1.44,7.51l2.65,0.36l2.28-5.28
		l7.09-27.73l2.65-4.86l4.15-0.42l4.15,3.42l3-0.79l3.72-2.65l3.78,0.79l2.23,4.86l2.17,0.84l9.85-1.21l3.78-3l-1.5-2.28l-4.49-1.5
		l-0.42-5.22l3.78-2.65l1.5-6.36l-3.36-6.01l-2.28-3l1.13-1.13v-3.72l-3-1.92l-0.79-3l8.64-1.08l0.79-3h-2.65l-2.23-2.65h-4.15
		l-3.42-5.65l-3-0.36l0.36-4.49l-3.24-0.36l-4.44,2.92l-4.32,1.08l-2.94-1.86l-3.78-0.25l-1.08,1.56l-3.48,0.54l-7.8,2.46
		l-11.35,4.01l-4.32-3.48l-5.11-1.08l-0.25-4.57l-4.86-3.53l-6.72-5.11l-7.57,0.25l-7.26-7.51L687.11,451.74L687.11,451.74z"/>
	<path id="fr-d39" fill="#DDDDDD" stroke="#FFFFFF" d="M782.52,431.94l0.17,1.02h-1.5l-0.79,6.01l-1.08,4.15l0.73,2.65l-2.23,3
		l-2.28,3v3l-6.36,3l-1.86,3l0.73,2.23l0.36,1.92l-2.57,1.5l-0.42,4.86l3,0.36l3.42,5.65h4.15l2.23,2.65h2.65l-0.79,3l-8.64,1.08
		l0.79,3l3,1.92v3.72l-1.13,1.13l2.28,3l3.36,6.01l-1.5,6.36l-3.78,2.65l0.42,5.22l4.49,1.5l1.5,2.28l-3.78,3l-9.85,1.21l4.63,1.8
		l7.51,10.5l4.86,2.23v5.28l5.65-0.79l7.14-7.85l6.01,3v4.49h10.87l15.61-17.17l-0.65-0.36l0.73-7.85l5.65-6.72l-3.78-1.5l0.36-2.28
		l-4.57-0.42l-0.31-2.71l2.94-2.94l-0.79-2.94l-1.61-3.78l6.72-2.17l2.46-3.48l0.54-4.32l-5.4-5.17l-3.78-1.02l-8.33-2.71v-7.57
		l-0.54-5.65l-6.72,0.54l-10.5-3.53l1.61-3.73l2.4-5.7l0.84-3.73l-2.71-3.53l-4.86-3.24l-0.54-4.01l0.06-2.28l-3.3-0.12l-1.86,1.86
		h-4.86l-3.24-2.71L782.52,431.94L782.52,431.94z"/>
	<path id="fr-d51" fill="#DDDDDD" stroke="#FFFFFF" d="M660.05,204.95l-4.49,1.92l0.79,3.72h-7.93l-7.09,5.28v10.08l5.22,3.42
		l1.5,3.36l-8.64,0.73l-1.08,3.42l3.36,2.23l-1.5,2.28l-3.36,1.5l0.73,2.57h4.86l1.92,2.65l-3.36,2.28l-3,7.85l-5.65,2.65
		l-1.92,4.09l-1.86,2.28l0.42,2.23l-3,1.92l-0.79,5.22l3,1.86l1.5,5.65l-1.86,3.36l1.13,2.65l5.59-0.36v1.86l1.61-0.36l6.49,6.84
		l9.12-1.5l10.68-7.26h6.41l6.49-4.57l7.62-4.21l5.7,0.42l0.79,7.62l6.84,10.25h7.62l10.68-2.28l7.62,2.65l7.99-5.7l1.13-9.49
		l8.81-1.5l-0.17-5.95l-7.14-5.65l-0.79-3l2.65-4.49l-2.28-1.86l2.28-5.65l4.15-1.86l3-9.37l-6.01,0.36l3.36-3.72l-2.65-8.28
		l-2.57-5.65l3.36-3l-1.92-0.36l-0.48-2.57l-0.54,0.06l-3.42-3.05l-3.84,3.84H726l-1.5-1.92l-9.12-0.36l-1.56,2.28h-2.67l-2.28-4.97
		h-4.97l-1.13,1.13l-4.92-0.36l-6.13-4.57l-4.21-1.13l-1.5-2.28l-7.99-4.97l-9.12-0.27l0.12,3.42l-2.65,0.73L660.05,204.95
		L660.05,204.95z"/>
	<path id="fr-d60" fill="#DDDDDD" stroke="#FFFFFF" d="M506.14,168.29l-2.46,2.94l-1.5,3.72h3l-1.5,3.78l-1.5,7.51l2.23,3.72v6.41
		h3.78l-1.5,2.57l-2.65,4.92l-1.08,3.36l3.36,3l1.08,8.64l1.92,3l-2.65,0.71l-3.36-1.86l-0.6,4.44l0.25-0.31l1.44,3.36l2.28,3.72
		l10.14,0.79l7.14-0.79l4.86-3.72l6.01,3.72l3,2.28l4.49-1.13l4.09-1.86l7.93,4.15l8.22,4.86l2.65,2.65l4.49-3l3.72,2.23l2.28,1.86
		l3.36-0.36l2.28-3l5.22,3l6.41-2.65l3.72,1.13l3.73-3l2.28-1.13l0.73,0.54l0.79-5.11l-2.71-3.05l-4.57-3.05l-1.92,3.05l-1.13,0.36
		l-0.36-5.7l3.42-0.79l-0.79-5.28l-4.57-0.79l2.28-3.84l6.49-1.5l2.28-9.12l3.42-1.56l-4.57-3.42l1.56-3.42l0.73-11.41l-1.56-8.81
		l-7.93,0.79l-5.34-0.73l-9.91,2.65l-8.41,7.99l-6.84-2.28l-6.84-0.73l-5.34-5.34l-9.54-2.71l-12.9,1.13l-3.42-2.65h-6.89
		l-4.92,1.92l-2.28-1.56v-4.15l-0.79-1.13L506.14,168.29L506.14,168.29L506.14,168.29z"/>
	<path id="fr-d62" fill="#DDDDDD" stroke="#FFFFFF" d="M529.24,30.89l-20.76,3.96l-16.49,12.73v50.65l-0.12,1.5l5.82,1.38l1.86,4.15
		l4.49-1.13l2.65-3.36l3.36,1.13l7.14,5.59l2.65-1.08l1.86,4.49l6.72,3v3.72l4.92,1.86l4.86-1.86l9.37-1.13l2.28,1.92l4.49-1.92
		l2.23,3.78l-5.59,3.72v5.28l1.86,1.86l1.5-0.36l1.08-3l3.42-2.28l3.36,2.65l7.85,2.65h3.36v-3.78l4.92,3.42l0.36,3l-2.28,3.36
		l4.15-2.28l3.42-1.5l1.44,2.65v2.63l5.65-3h9.01l0.36,0.36l2.23-4.26l-1.13-1.92l-3.42-0.73h-3.78l-2.28-0.79l3.78-2.28l3.42,0.36
		l3.42-0.36l0.42-6.13l2.28-1.5l0.36-3.42l-4.21-2.71l-4.92-0.36l-1.13-0.79l3.05-2.28l0.73-2.28l-2.65-1.86l-3.84-4.63l0.42-2.28
		l4.92-2.28l0.79-2.65l-3.42-1.56l-1.92-4.92l-6.84-0.79l-6.91-1.84l-0.79-7.62l4.92-3.05l-1.86-3.84h-3.84l-2.65,4.21l-11.83-0.73
		L554.22,70l-5.28-5.7v-4.57l4.15-1.92l-3.42-2.65l-8.33-0.36l-4.97-12.6L529.24,30.89L529.24,30.89z"/>
	<path id="fr-d59" fill="#DDDDDD" stroke="#FFFFFF" d="M560.98,22.06l-12,5.65l-18.72,3l-1.02,0.17l7.14,11.35l4.97,12.6l8.33,0.36
		l3.42,2.65l-4.15,1.92v4.57l5.28,5.7l9.54,2.34l11.83,0.73l2.65-4.21h3.84l1.86,3.84l-4.92,3.05l0.79,7.62l6.84,1.86l6.84,0.79
		l1.92,4.92l3.42,1.56l-0.79,2.65l-4.92,2.28l-0.42,2.28l3.84,4.63l2.65,1.86l-0.73,2.28l-3.05,2.28l1.13,0.79l4.92,0.36l4.21,2.71
		l-0.36,3.42l-2.28,1.5l-0.4,6.05l-3.42,0.36l-3.42-0.36l-3.78,2.28l2.28,0.79h3.78l3.42,0.73l1.13,1.92l-2.23,4.26l3,3l3,0.79
		l3-1.92h4.15l1.13,2.28l1.5-0.36l4.49-2.65l4.49,2.65l5.99-4.15h2.65l3,2.65l6.01-4.15l2.57,0.36l2.28,1.86l8.28,0.79l0.73,3.36
		l4.15-3.72h2.23l1.5,4.86l7.14,1.86l2.04-1.38h-0.6l-0.35-3.74l7.51-4.49l-1.13-7.14L672,124.5l1.86-1.92v-5.22l5.65-4.15l-1.5-3
		l-12-9.37L645,101.97l-2.23,3.72h-2.65l0.36-13.13l-6.01-7.09l-4.49,0.73l-2.65-3l-7.51,3.36L617.26,84l-5.28-0.79l-1.5-4.86
		l-0.36-15l-3.36-1.5l-0.42-2.28h-2.23l-0.79-4.49l-4.86,0.42l-9.37,3l-4.49,5.59h-4.49l-2.98-3.74L576,56.2l-3.72-4.15H567
		l-2.23-4.09v-6.41l2.57-4.09l-1.5-5.65L560.98,22.06L560.98,22.06z"/>
	<path id="fr-d02" fill="#DDDDDD" stroke="#FFFFFF" d="M642.83,133.73l-6.01,4.15l-3-2.65h-2.65l-6.01,4.15l-4.49-2.65l-4.49,2.65
		l-1.5,0.36l-1.13-2.28h-4.15l-3,1.92h-0.12l0.9,5.28l-4.92,5.34v4.92l-3.42,3.84l0.79,4.57l1.86,7.62l2.28,12.96l-0.73,11.41
		l-1.56,3.42l4.57,3.42l-3.42,1.56l-2.28,9.12l-6.49,1.5l-2.28,3.84l4.57,0.79l0.79,5.28l-3.42,0.79l0.36,5.7l1.13-0.36l1.92-3.05
		l4.57,3.05l2.71,3.05l-0.79,5.11l3.42,2.46l1.13,8.28l10.08,9.72l3.36,1.13l1.92,4.49l6.3,1.32l0.79-0.96l1.92-4.09l5.65-2.65
		l3-7.85l3.36-2.28l-1.92-2.65h-4.86l-0.73-2.57l3.36-1.5l1.5-2.28l-3.36-2.23l1.08-3.42l8.64-0.73l-1.5-3.36l-5.22-3.42v-10.04
		l7.09-5.28h7.93l-0.79-3.72l4.49-1.92l6.36,4.15l2.65-0.73l-0.36-12.79l1.13-4.49l1.5-5.22l-4.93-2.63l1.13-3l7.14-1.5v-4.86
		l5.65-3l1.5-4.49l-1.86-3l0.36-5.65l3.36-3l-3.36-6.36l1.02-6.66h-7.62l-2.04,1.38l-7.14-1.86l-1.5-4.86h-2.23l-4.15,3.72
		l-0.73-3.36l-8.28-0.79l-2.28-1.86L642.83,133.73L642.83,133.73z"/>
	<path id="fr-d80" fill="#DDDDDD" stroke="#FFFFFF" d="M491.85,99.71l-1.02,12.37l8.28,7.51v3.78l-10.14-6.01l-12.17,15l3.24,1.38
		l4.15-0.36l1.86,3.72l16.49,16.15l1.13,6.72l3.72,6.78l-1.27,1.56h4.74l0.79,1.13v4.15l2.28,1.56l4.92-1.92h6.89l3.42,2.65
		l12.9-1.13l9.54,2.71l5.34,5.34l6.84,0.73l6.84,2.28l8.41-7.99l9.91-2.65l5.34,0.73l7.93-0.79l-0.73-4.15l-1.86-7.62l-0.79-4.57
		l3.42-3.84V150l4.92-5.34l-0.9-5.28l-2.88-0.79l-3.34-3.36h-9.01l-5.65,3v-2.65l-1.44-2.65l-3.42,1.5l-4.15,2.28l2.28-3.36l-0.36-3
		l-4.92-3.42v3.78h-3.36l-7.85-2.65l-3.36-2.65l-3.42,2.28l-1.08,3l-1.5,0.36l-1.86-1.86v-5.28l5.59-3.72l-2.23-3.78l-4.49,1.92
		l-2.28-1.92l-9.37,1.13l-4.86,1.86l-4.92-1.86v-3.72l-6.72-3l-1.86-4.49l-2.65,1.08l-7.14-5.59l-3.36-1.13l-2.65,3.36l-4.49,1.13
		l-1.86-4.15L491.85,99.71L491.85,99.71z"/>
	<path id="fr-d08" fill="#DDDDDD" stroke="#FFFFFF" d="M718.14,121.48l-3.78,5.59l-3.36,3.42v3.36v4.49l-4.49,3l-8.22,2.65
		l-4.49,1.86l-5.28-4.15h-7.14l-1.02,6.66l3.36,6.36l-3.36,3l-0.36,5.65l1.86,3l-1.5,4.49l-5.66,3.03v4.86l-7.14,1.5l-1.13,3
		l4.92,2.65l-1.5,5.22l-1.13,4.49l0.23,9.37l9.12,0.25l7.99,4.97l1.5,2.28l4.21,1.13l6.13,4.57l4.92,0.36l1.13-1.13h4.97l2.28,4.97
		h2.65l1.56-2.28l9.12,0.36l1.5,1.92h1.13l3.84-3.84l3.42,3.05l0.54-0.06l-0.25-1.56l4.49-2.23l2.23-2.28l-1.44-3.72l-0.42-2.65
		l4.15-3.36l1.5-7.51l-4.49-5.65l1.5-2.65l3.78-7.09l1.08,1.5h5.65l2.63,2.57l3.36-2.23l2.65-4.32l-2.71-0.42l-1.5-7.51l-3-2.28
		l-10.5-1.13l-1.86-4.86l-3.42-2.23l-12-1.5l-0.73-8.64l1.5-1.5v-3.36l-6.01-3.78l1.13-4.15l1.5-3.72l-2.65-2.28l4.15-3.72v-6.78
		l-1.5-1.08L718.14,121.48L718.14,121.48L718.14,121.48z"/>
	<path id="fr-d10" fill="#DDDDDD" stroke="#FFFFFF" d="M682.96,280.56l-7.62,4.21l-6.49,4.57h-6.41l-10.68,7.26l-9.12,1.5
		l-6.49-6.84l-1.61,0.36v1.13l-5.22,2.23l-0.36,4.49l-2.65,3.42l-1.5,7.51l-0.84,6.3l2.34,1.92h4.49l9.72,10.14l-1.13,10.14
		l6.78,5.22l3.78-2.65l6.01,7.14l0.73,6.78l4.15,5.59l1.86,4.15l15,0.79l7.51-3.78l2.23,4.15l2.65,0.36l1.92-4.15l12.37-0.36
		l4.86-2.65l0.79-4.86h10.87l1.5,0.84l-1.27-4.8l-3.05-1.92l4.21-3.78l6.49-0.42l2.28-3.42l-0.42-13.69l-1.5-7.99l-6.49-2.28
		l-6.84-9.54l0.36-5.7l1.98-4.15l-3.48-1.21l-10.68,2.28h-7.62l-6.84-10.25l-0.79-7.62L682.96,280.56L682.96,280.56z"/>
	<path id="fr-d52" fill="#DDDDDD" stroke="#FFFFFF" d="M740.14,282.54l-8.81,1.5l-1.13,9.49l-7.99,5.7l-4.15-1.44l-1.98,4.15
		l-0.36,5.7l6.84,9.54l6.49,2.28l1.5,7.99l0.42,13.69l-2.28,3.42l-6.49,0.42l-4.21,3.78l3.05,1.92l1.27,4.8l4.49,2.52l6.72,7.14
		l8.64,11.64L737.3,382l3.36,2.28l0.36,6.36l6.01-0.36l1.5,3l4.49,0.36l3.36-1.86l6.01,7.51l0.79,1.86l8.22-1.86l1.56-3.78
		l0.36,0.06v-3.78l5.22-2.28l6.01,2.28l5.65-2.28h3.36l1.13-7.51l1.86-2.23l-3.36-0.36l-0.36-4.49l5.22-1.13l0.36-3h5.28v-4.86
		l4.15-1.5l-1.13-3l1.13-0.73l-3.42-2.71l-4.09,1.5v-7.85l-10.5-5.22l2.23-10.14l3.36-2.28l-1.08-3.36l-4.92-0.73l-1.08-4.92h-4.49
		l-5.28-7.09l-6.01-0.42l-2.57-3.73l3.36-3.36l-7.93-8.64l-3.36-1.13l-9.01-4.49l-4.86-5.22l-7.85-1.13L740.14,282.54L740.14,282.54
		z"/>
	<path id="fr-d67" fill="#DDDDDD" stroke="#FFFFFF" d="M935.28,229.85l-7.14,1.98l-3.3,5.76v5.65l-3,2.65h-2.65l-4.86-3.42
		l-3.78,2.65h-4.49l-3.72-3.73l-7.14-1.13l-4.15-1.86l-1.5-5.65l-3.36,3.72l-1.86,8.64l-4.92,1.5v4.86l4.92,2.28l3.72,2.65
		l-1.5,3.36l3.42,2.23l6.01-4.49l10.45,6.01l-4.44,8.28l0.36,2.65l3,3l-2.28,7.85l-7.51,7.51l-4.15-0.36l2.65,2.57l-1.5,6.78
		l1.5,10.14l7.14,1.86l-0.6,1.38l5.65-0.31l3.3,4.01l2.94,3.67l7.37-0.36l3.3,9.54l5.76,2.52l-0.06-1.21l9.77-19.14l-1.13-10.87
		l4.49-14.65l1.13-12.79l9.72-7.09V264l3.78-4.92h3l3.36-3.36l-0.73-6.36l3.36-9.01l5.22-1.13l-5.22-4.13l-9.37-1.08l-8.28-4.15
		l-5.65,3.36l-3-3.36L935.28,229.85L935.28,229.85L935.28,229.85z"/>
	<path id="fr-d54" fill="#DDDDDD" stroke="#FFFFFF" d="M783.34,184.08l-4.49,4.15l-6.36,0.36l-2.23,2.28h-0.48l-0.25,4.49l2.23,3.67
		l-0.79,2.23l-0.73,2.57l0.36,1.44l1.86-1.44l1.8-3.3l3.72-0.36l6.24-1.86l3.3,2.57l1.44,2.94l1.13,3.3v3.3l1.8,1.5v2.52l-1.8,2.23
		l-0.36,4.8l1.44,2.23l0.36,2.94l0.36,4.74l2.23,1.86l3.3,1.44l-1.44,2.94l4.01,3.72l-3.67,4.01l0.73,2.57l3.67,1.8v1.86h-4.38
		l-1.86,2.57l0.36,1.86l2.94,2.94l-2.52,6.97l-2.94,6.61l1.44,4.09v6.61l1.5,3.3h2.17l1.13,1.86h-3.3l-2.94,1.44v2.23l3.67,3.3v5.17
		l3.67-1.13l5.53,0.36l0.36,5.88l2.23,0.79l-2.57,1.8l-0.36,1.86l4.01,0.73l2.57,3.3l12.12-0.73l2.57-4.8h5.53l2.23-1.8l3.67,2.23
		l3.3-1.13l4.8,0.36l4.01-1.44l4.01-2.94l2.23,2.23l0.36-5.17l2.94-1.13l1.5,4.8l4.38,0.36l4.44,1.13l1.8,0.36l6.3-2.94l3.3-2.23
		l2.94-3.67l5.88-2.23l3.84-0.84l-2.17-2.09l4.15,0.36l0.79-0.79l-4.44-1.44l-6.24-4.38l-5.53-4.09h-6.61l-6.97-4.01l-5.53-0.36
		v-1.5l-8.47-5.11l-9.54-4.09h-4.8l-1.8-5.11l-7.37-9.24h-7.32l-2.94-4.01h-5.89l0.36-5.88l-7.74-4.8l0.36-4.74h4.09v-4.09
		l1.44-2.94l-3.3-3.3l2.94-5.11l-2.23-5.88l-1.8-1.5l-4.8-10.25l1.86-2.94l-0.31-5.65h-5.05l-6.78-7.51L783.34,184.08L783.34,184.08
		L783.34,184.08z"/>
	<path id="fr-d77" fill="#DDDDDD" stroke="#FFFFFF" d="M602.68,237.96l-2.28,1.13l-3.72,3l-3.73-1.13l-6.41,2.65l-5.22-3l-2.28,3
		l-3.36,0.36l-2.28-1.86l-3.72-2.23l-4.49,3l-0.17-0.17l-1.61,10.39l2.23,13.21v8.81l-2.94,7.37l0.73,5.11l-3.3,2.57l1.8,9.97
		l-1.46,2.15l-1.08,9.97l2.52,3.3l-8.41,5.53v7.57l2.34,3.48l4.49,2.28l0.36,6.36l-6.01,4.15l3.36,3l4.15-2.65l10.14,0.36l3.72-0.73
		l1.13-3l4.15,0.36l0.73,3l9.37-5.28l3.42-4.09l4.49-5.28l-3-3.36l2.65-5.65l6.72-3.36l14.65,0.73l3.36-2.57l0.31,0.31l0.84-6.3
		l1.5-7.51l2.65-3.42l0.36-4.49l5.22-2.23v-3l-5.59,0.36l-1.13-2.65l1.86-3.36l-1.5-5.65l-3-1.86l0.79-5.22l3-1.92l-0.42-2.23
		l1.08-1.32l-6.3-1.32l-1.92-4.49l-3.36-1.13l-10.08-9.72l-1.13-8.28L602.68,237.96L602.68,237.96z"/>
	<path id="fr-d68" fill="#DDDDDD" stroke="#FFFFFF" d="M906.23,314.82l-5.65,0.31l-3.53,7.99l-4.49,9.01l1.13,5.65l-3.72,8.64
		l-6.41,5.59l-0.36,14.65l-4.68,4.01l0.17,0.12l1.5,3l6.01,0.36l6.78,5.28l1.08,2.57l-0.36,4.49l-1.86,3.42l0.73,4.49l5.28-0.79
		l1.13,4.15l1.86,7.99l4.44-0.73l-0.79,4.09l2.65,2.28l13.86-0.36l7.14-5.65l0.36-8.28l3.78-4.86l-4.92-5.65l-2.57-6.01l3-4.09
		v-9.43l1.86-4.49v-7.51l3.36-4.86l-3.72-5.22l-0.36-10.81l-5.76-2.52l-3.3-9.54l-7.37,0.36l-2.94-3.67L906.23,314.82L906.23,314.82
		z"/>
	<path id="fr-d55" fill="#DDDDDD" stroke="#FFFFFF" d="M761.34,180.41l-2.65,4.32l-3.36,2.23l-2.65-2.57h-5.65l-1.08-1.5l-3.78,7.09
		l-1.5,2.65l4.49,5.65l-1.5,7.51l-4.15,3.36l0.42,2.65l1.44,3.72l-2.23,2.28l-4.49,2.23l0.73,4.15l1.92,0.36l-3.36,3l2.57,5.65
		l2.65,8.28l-3.36,3.72l6.01-0.36l-3,9.37l-4.15,1.86l-2.28,5.65l2.28,1.86l-2.65,4.49l0.79,3l7.14,5.65l0.36,13.13l7.85,1.13
		l4.86,5.22l9.01,4.49l3.36,1.13l7.93,8.64l-0.84,0.84l6.61-0.84v-3.32l7.37-1.5v-2.52h1.8v2.17l5.88-1.8l2.28-3.05l-0.42,0.12
		v-5.17l-3.67-3.3v-2.21l2.94-1.44h3.3l-1.13-1.86h-2.17l-1.5-3.3v-6.61l-1.44-4.09l2.94-6.61l2.52-6.97l-2.94-2.94l-0.36-1.86
		l1.86-2.57h4.38v-1.86l-3.67-1.8l-0.73-2.57l3.67-4.01l-4.01-3.72l1.44-2.94l-3.3-1.44l-2.23-1.86l-0.36-4.74l-0.36-2.94
		l-1.44-2.23l0.36-4.8l1.8-2.23v-2.52l-1.8-1.5v-3.3l-1.13-3.3l-1.44-2.94l-3.3-2.57l-6.24,1.86l-3.69,0.33l-1.8,3.3l-1.86,1.44
		l-0.36-1.44l0.73-2.57l0.79-2.23l-2.23-3.67l0.25-4.49H768l-1.5-7.14l-3-3L761.34,180.41L761.34,180.41z"/>
	<path id="fr-d57" fill="#DDDDDD" stroke="#FFFFFF" d="M824.63,187.86l-5.65,0.36l-4.49,3.78l-1.13,1.86H807l-2.23-2.28h-0.96
		l0.31,5.65l-1.86,2.94l4.8,10.25l1.8,1.5l2.23,5.88l-2.94,5.11l3.3,3.3l-1.44,2.94v4.09h-4.09l-0.36,4.74l7.74,4.8l-0.36,5.88h5.88
		l2.94,4.01h7.32l7.37,9.24l1.8,5.11h4.8l9.54,4.09l8.47,5.11v1.5l5.53,0.36l6.97,4.01h6.59l5.53,4.09l6.24,4.38l4.44,1.44
		l6.72-6.72l2.28-7.85l-3-3l-0.36-2.65l4.44-8.28l-10.45-6.01l-6.01,4.49l-3.42-2.23l1.5-3.36l-3.72-2.65l-4.92-2.28v-4.86l4.92-1.5
		l1.86-8.64l3.36-3.72l1.5,5.65l4.15,1.86l7.14,1.13l3.72,3.72h4.49l3.78-2.65l4.86,3.42h2.65l3-2.65v-5.65l3.3-5.76l-0.79,0.25
		l-2.57-3.72l-7.51-4.49l-2.65-4.15l-9.01,0.79l-5.28,4.86l-12.73,0.36l-3.78-2.65l-3.72-4.63l-0.25-0.12l-0.17-0.06l-0.12-0.06
		h-0.06h-0.17l-5.59-2.23l-5.28,2.23l-0.36,4.49l-6.36,0.79l-3.78-7.14l-2.23-0.79v-5.22l-5.28-2.28l-0.36-9.01l-3.78-3.72
		l-7.85-3.78h-3.72l-1.13,0.79h-3.78L824.63,187.86L824.63,187.86z"/>
	<path id="fr-d88" fill="#DDDDDD" stroke="#FFFFFF" d="M893.58,294.48l-3.84,0.84l-5.88,2.23l-2.94,3.67l-3.3,2.23l-6.3,2.94
		l-1.8-0.36l-4.44-1.13l-4.38-0.36l-1.5-4.8l-2.94,1.13l-0.36,5.17l-2.23-2.23l-4.01,2.94l-4.01,1.44l-4.8-0.36l-3.3,1.13
		l-3.67-2.23l-2.23,1.8h-5.53l-2.57,4.8l-12.12,0.73l-2.57-3.3l-4.01-0.73l0.36-1.86l2.57-1.8l-2.23-0.79l-0.36-5.88l-5.53-0.36
		l-3.24,1.02l-2.28,3.05l-5.88,1.8v-2.17h-1.8v2.52l-7.37,1.5v3.3l-6.61,0.84l-2.52,2.52l2.57,3.72l6.01,0.42l5.28,7.09h4.49
		l1.08,4.92l4.92,0.73l1.08,3.36l-3.36,2.28l-2.23,10.14l10.5,5.22v7.85l4.09-1.5l3.42,2.71l2.57-1.56l-1.44-2.23l1.86-1.13l2.57,3
		l3.78-2.65l1.13-3.73l7.09-1.13l1.92,1.5l-0.36,4.15l4.86,3.73l3-0.36l3.36-2.65H846l5.65,6.36h1.86l3-1.86l0.42-2.23l3-1.5
		l3.36,2.23l3.36,3.78l11.83,6.24l4.69-4.01l0.36-14.65l6.41-5.59l3.73-8.64l-1.13-5.65l4.49-9.01l4.15-9.37l-7.14-1.86l-1.5-10.14
		l1.5-6.78L893.58,294.48L893.58,294.48z"/>
	<path id="fr-d91" fill="#DDDDDD" stroke="#FFFFFF" d="M563.86,250.07l-0.48,3l2.23,13.21v8.81l-2.94,7.37l0.73,5.11l-3.3,2.57
		l1.8,9.97l-1.46,2.17l-1.08,9.97l2.52,3.3l-8.41,5.53v7.57l-1.44-2.17l-10.08-0.73l-4.15-3.36l-4.86,4.49l-12,1.08l-0.79-10.08
		l-0.79-1.13l-0.73-4.86l-1.8-0.36l-6.07-1.13l-3.42-4.15l-1.08-8.28l-4.49-0.73l-0.79-4.15l-5.22-3.73l-2.65-6.41l2.65-4.49
		l-2.65-3v-3.73l1.5-4.15l-3-3l-1.13-4.49l-3.72-3.72l-0.25,0.17l-0.17-1.69l1.92-1.92l-3.36-0.73v-3l-1.92-3l1.38-1.88l10.62-3.67
		l2.63-3.8l2.28-8.28l3-3.72l1.44,3.36l2.28,3.72l10.14,0.79l7.14-0.79l4.86-3.72l6.01,3.72l3,2.28l4.49-1.13l4.09-1.86l7.93,4.15
		l8.22,4.86l2.46,2.46L563.86,250.07"/>
	<path id="fr-d25" fill="#DDDDDD" stroke="#FFFFFF" d="M871.32,397.75l-0.36,0.42h-4.32l-2.23,3.05l-2.82,1.61v3.78l-7.03,0.84
		l-3.78-2.71l-5.11,0.79l-4.86,3.78l-3.48,5.93l-3.48,1.08l-1.61,4.01l-4.32,0.79l-5.93,4.86l-7.8-0.25l-2.4,1.86h-2.17l-7.57,6.18
		l-3.42-0.12l-0.06,2.28l0.54,4.01l4.86,3.24l2.71,3.53l-0.84,3.73l-2.4,5.7l-1.61,3.73l10.5,3.53l6.72-0.54l0.54,5.65v7.57
		l8.33,2.71l3.78,1.02l5.4,5.17l-0.54,4.32l-2.46,3.48l-6.72,2.17l1.61,3.78l0.79,2.94l-2.94,2.94l0.31,2.71l4.57,0.42l0.06-0.36
		L855,485.61l-0.73-18.01l8.22-4.09l5.65-2.65l5.22-4.86l0.42-7.14l5.22-2.65l12-13.86l-1.86-4.49l4.15-1.86l4.86-6.01l-2.63-2.65
		l-9.01,1.86l-0.36-1.5l8.28-9.54L871.32,397.75L871.32,397.75z"/>
	<path id="fr-d90" fill="#DDDDDD" stroke="#FFFFFF" d="M879.06,371.46l-3.48,1.8l-2.94,2.17v4.8l1.61,5.7v3.73l-0.9,6.01l-2.04,2.09
		l23.1,10.45l1.44-1.69l4.97-0.79l-1.86-7.99l-1.13-4.15l-5.28,0.79l-0.73-4.49l1.86-3.42l0.36-4.49l-1.08-2.57l-6.78-5.28
		l-6.01-0.36L879.06,371.46L879.06,371.46z"/>
</g>
</svg>
