<svg version="1.1" id="mapplic-germany" xmlns="http://www.w3.org/2000/svg" xmlns:xlink="http://www.w3.org/1999/xlink" x="0px" y="0px"
	 width="600px" height="800px" viewBox="0 0 600 800" enable-background="new 0 0 600 800" xml:space="preserve">
<g id="landmarks-lands">
	<path id="de-th" fill="#DDDDDD" stroke="#FFFFFF" stroke-linejoin="round" d="M315,351.73l1.85-0.4l8.23,1.13l2.39,2.13l1.27-0.54
		l-1.68,2.24l-0.48,1.61l5.94,9.97l-0.28,5.1l0.77,0.47l0.86,0.96l1.59,0.04l1.79-0.73l6.91,2.09l11.31,0.08l4.19,1.61l0.23,0.3
		l-0.23,2.21l0.55,1.02l0.02,0.4l1.8,0.6l-0.52,0.51l-0.08,0.3l1.17,1.28l0.71,0.31l1.78,1.68l0.04,0.27l-3.97,5.84l-0.75,0.38
		l-0.05-0.01l-0.75-0.85l-0.19,0.01l-0.23,0.16l-0.92,1.54l-0.1,0.8l1.55,1.24l1.59,0.04l0.94-0.44l0.23,0.02l0.86,0.36l1.57,1.61
		l1.08,2.45v0.27l-0.8,1.76l-1.31,0.24l0.83,3.43l1.38,0.79l0.05,0.26l3.87-0.08l1.1-0.94l0.34-0.75l0.2-0.18l6.3,0.99l1.56,0.96
		l0.64,3.11l6.59,2.01l4.84-1.12l6.7,4.26l2.35,3.02l0.24,1.65l4.77-1.05l4.7,1.7l-0.07-0.73l1.2-1.13l1.52,1.9l0.7,1.92l0.04,0.02
		l0.82-0.52l3.89-7.8l0.1-1.33l-0.48-0.62l-1.69-1.19l-0.25-1.68l1.61-2.51l3.09-1.48l10.97,3.71l0.19,0.27l0.35,4.56l2.48,1.86
		l4.8,1.51l0.93,3.92l0.81,1.36l0.81,0.62l-0.82,1.24l-4.22,1.16l-0.56-0.14l-5.1,1.11l-1.71,1.38l-0.03,1.25l-0.92,2.62l-1.47,0.45
		l-0.6-0.79l-0.59-0.22h-1.58l-0.3,0.1l-1.63,1.27l0.01,1.45l-4.36,1.57l-1.33-0.15l-0.57-0.74l-0.47,0.96l-0.79,7.29l2.49,4.43
		l0.79,0.78l2.95,0.79l-0.22,1.29l-3.22,3.68l-1.93,0.44l-0.15-0.02l-7.56,3.4l-0.29,0.84l1.98,0.58l0.35-0.31l0.69,0.02l0.1,0.04
		l0.23,0.4l-0.15,0.54l-0.32,0.17l-0.84,0.09l-0.35-0.14l-1.16,0.76l-6.45-0.1l0.46-2.81l-0.44-3.07l-0.75-0.79l-0.38,0.1l-1.5,1.32
		l-0.05,0.81l-2.24,2.32l-1.32,0.65l-3.25,4.74l-0.01,0.1l1.06,2.31l2.04-0.12l2.81,2.62l0.24,0.49l0.04,0.27l-4.41,3.63l-0.44,0.7
		l2.2,1.79l-19.47,4.36l-1.56-1.41l-0.39-0.19l-1.32,0.28l-0.16,0.1l-0.16,0.26l-0.18,0.98l-0.44,0.41l-1.89,0.59l-0.59-0.3
		l-2.33-3.05l-0.55-2.19l-1.77,0.21l-1.98-1.17l-0.11-0.18l0.03-4.25l0.44-0.65l0.44,0.02l0.34-0.78v-0.15l-1.16-1.53l-3.48-0.67
		l-1.74,0.27l-1.08,1.15l-0.22,0.75l-3.72,2.47l-0.1-0.16l-0.45-0.14l-0.43,0.14l-0.22,0.25l-0.04,2.95l0.69,0.48l0.44,0.15
		l1.5,8.45l-2.02,6.87l-3.1,0.52l-1.04,2.02l-0.82,0.03l-2.91-3.17l-0.12-0.59l0.11-0.58l1.3-1.17l0.42-0.15l0.04-0.6l-1.35-2.37
		l-1.62-1.36l-1.63,0.16l-0.14,0.11l-0.38,1.15l-2.53,0.96l-3.98-0.68l-3.05-4.06h-7l-7.51,3.07l0.06,4.37l5.87,4.21l2.66,0.94
		l0.41,0.53l0.05,1.38l-0.22,0.61l-0.14,0.17l-0.68,0.46l-0.7,0.18l-6.1-1.37l-0.29,0.23l-0.07,0.21l0.04,1.7l0.14,0.06l0.15,1.75
		l-0.45,0.76l-0.19,0.1l-0.28,0.04l-7.07-2.37l-1.29-4.48l0.61-6.38l-7.04-2.2l-2.28-2.5l-0.56-2.2l-1.82,0.86l-2.03-0.22
		l-0.53-0.75l-0.41-2.99l-2.43-5.16l-1.05-0.96l-4.68-1.95l-3.29-4.38l-7.18,0.65l-2.8,2.99l-0.65,0.27l-0.2-9.71l0.57-1.01
		l2.01-1.74l-1.52-3.41l-0.3-0.24l-3.43-0.26l-2.91,1.08l-0.24,0.32l0.04,0.6l1.23,1.53l-0.54,1.24l-0.92,0.19l-4.35-0.76l0.01-3.58
		l4.09-7.05l-0.17-1.8l-0.93-1.13l1.61-0.52l0.13-0.15l-0.1-1.45l-0.38-0.71l0.49-2.72l1.56-1.22l3,0.17l2.33-5.25l-2.45-11.51
		l0.76-1.57l0.41-0.24l4.58,0.36l1.87,1.28l0.46,0.14l2.12-0.28l0.24-0.18l0.18,0.04l0.79-0.36l0.55-0.65l-0.15-0.18l0.76-1.66
		l-1.03-1.47l-1.09-0.81l-1.8-0.65l-0.21-4.31l-2.07-4.36l0.46-0.57l2.61-0.64l1.05,1.08l0.36,1.32l0.28,0.44l-0.01,0.04l0.37,0.7
		h0.57l0.19-0.22v-2.57l-0.21,0.03l-0.36-0.53l-0.03-0.26l0.42-1.33l1.31-0.93l0.32-0.79l-0.28-0.61l-1.24-0.3l-1.9-1.77l-7.03-3.37
		l-0.91-2.9L268.6,388l-3.38-8.16l0.2-0.91l0.2,0.14l10.44-6.19l5.32-1.08l10.61-7.51l1.65-2.37l0.38-1.14l-0.04-0.1l-0.43-0.2
		l1.6-3.1l2.56-0.64l3.93,1.83l1.21,1.8l0.58,0.31l7-1.47l3.02-7.3l0.27,0.04l1.15-0.16L315,351.73L315,351.73z"/>
	<path id="de-sh" fill="#DDDDDD" stroke="#FFFFFF" stroke-linejoin="round" d="M324.98,114.02l0.9,3l-0.95,2.14l-2.62-0.19
		l-5.22,3.67l-1.42,2.27l0.02,1.81l1.58,4.26l-0.6,4.62l5.34,4.63l0.22,0.1l1.65-0.18l0.03-0.18l0.22-0.13l0.17-0.04l2.03,0.66
		l1.32,1.45l0.71,3.78l-1.4,1.95l-0.4,2.43l-13.85,15.55l-2.54-0.6l-1,0.58l-2.38,9.38l0.05,0.04l-0.83,0.46l-16.87-7.43l-4.27-5.05
		l-0.24-0.79l0.14-0.62l-0.48,0.06l-0.38-0.09l-3.7-2.64l-0.85-2.42l0.24-3.26l2.71-2.29l1.52-3.43l-2.35-3.06l-0.14-4.67l0.74-2.28
		l-1.48-0.81l-0.29-0.04l-5.71,3.01l0.5,0.62l-0.8,1.94l-4.88,3.77l-2.21-0.26l-0.25-0.2l-2.37,0.03l-0.06,1.09l-4.23,5.54
		l-0.76,0.37l-0.53-0.23l-2.75-3.04l-0.13-0.67l0.09-0.52l-0.39,0.02l-0.23,0.32l-1.85,6.81l-3.33-0.73l-7.62-5.32l-2.9-8.3
		l-4.77-4.44l-6.21-11.41l-5.35-2.83l-12.63-0.3l-0.26-2.61l-1.97,0.9l-0.46-0.01l-0.37-0.15l-2.95-2.42L199.61,107l-0.37,0.05
		l-0.32-0.05l-0.05-0.21l2.69-1.9l0.96-0.2l2.49,0.59l0.92,0.82l0.65,0.1l1.35-0.43l0.5-0.47l0.55-1.87l-3.6-7.63l-0.95-0.26
		l-0.95,0.19l-1.65,1.07l-1.6-1.03l-1.8-4.47l1.97-4.37l0.46-4.83l-0.23-0.05l0.18-0.15l-0.06-0.88l-0.4-0.94l-0.54-0.61l-7.29,0.14
		l-1.64,1.74l0.05,0.06l0.63,0.13l0.09-0.06l0.03,0.02l-0.05,0.12l-0.12,0.13l-0.51,0.1l-0.4-0.05l-5-2.72l-0.65-1.57l0.87-3.87
		l0.3-0.5l0.92-0.48l0.06,0.91l1.23,0.88l0.73-0.11l2.74-1.69l0.54-4.26l6.63-1.15l1.29,0.14l1.38,0.65l2.36-0.87l6.56-5.19
		l0.79-1.22l0.15-1.45l-10.86-16.93l-2.99-1.56l-1.53-1.59l-3.97-11.49l-4.36-5.02l0.36-3.82l1.48-3.36l2.52,0.11l1.61,1.01
		l15.04,0.32l3.98,2.08l-0.04,0.21l1.14,0.66l5.2-0.13l6.15,2.51l0.27,0.63l-0.58,0.87l0.86,2.64l5.71,0.37l1.64-1.47l0.07-0.63
		l2.61-0.51l1.1,0.48l3.62-1.35l5.14-4.58l0.47-0.1l2.16,0.77l-1.44,2.55l7.59,3.11l5.9,6.68l1.91,0.79l0.61,0.05l1.71-3.6
		l-0.09-0.21l0.36-0.81l0.1-0.08l2.79,1.83l4.45,12.56l-0.29,11.02l-3.54,4.75l-6.35,3.22l-0.24-0.17l-0.18-0.24l-0.95,0.05
		l-0.27,0.15l-0.12,0.14l1.34,2.28l0.49,0.3l0.27,0.07l4.88-1.47v-0.07l10.06-2.29l0.99,0.08l3.58,2.92l-1.51,2.37l0.93,4.36
		l-1.24,1.05l-0.69,1.74l1.35,1.78l2.6-6.33l0.46-0.51l5.59-2.45l19.09,8.81l0.71,1.25l-0.06,0.05l0.12,0.29l2.46,2.55l0.8,0.3
		l4.23-0.36l9.28-7.73l9.35-0.68l-0.25,3.57l-0.46,0.8l1.44,15.02l-0.02,0.1l-13.1,11.63l-0.5,0.19l-2.55-0.48l-0.48-0.34
		l-3.43,3.64l-0.35,0.95l-0.05,0.76l1.76,3.88L318,110l0.52,0.33l3.78-0.14l0.93,0.58l0.32,0.41l0.2,0.52v2.03L324.98,114.02
		L324.98,114.02z M171.3,10.27l-3.43,21.14l0.87,1.68l0.13-0.04l0.11-0.18l0.26-8.22l-0.28-0.7l0.59-3.06l0.25-0.33l2.13-1.38
		l3.57,2.52l0.47,0.16h0.22l4.49-2.86l-0.08-0.07l-3.57-0.13l-0.27-0.1l-3.54-3.38l-0.41-5.95l1.65-2.91l1.06-0.81l1.21-0.29
		L178,4.57l1.56-3.06l-0.02-0.08l-0.11-0.1l-2.7-1.05l-0.34-0.02l-0.69,0.39L171.3,10.27L171.3,10.27z M179.73,31.72l-3.01,0.57
		l-0.96,0.89l-0.93,1.99L174.75,36l0.09,0.42l0.17,0.31l4.2,2.14l5.48,0.4l0.21-0.1l1.85-3.87L186,32.63l-2.77-1.2l-0.71-0.05
		l-1.15,0.43L179.73,31.72L179.73,31.72z M168.7,40.79l0.01,0.22l2.9,4.86l0.17,0.08l1.49,0.04l1.26-0.6l0.12-0.13l0.3-0.75
		l-0.04-0.1l-1.28-0.64l-2.44-5.87l0.44-1.01l1.02-1l-0.09-0.1l-0.16-0.05l-0.4,0.18l-2.77,2.64L168.7,40.79L168.7,40.79z
		 M185.95,44.41l3.65-0.91l0.48-0.28l0.35-0.44l0.37-1.62l-0.17-0.08l-7.94,3.14l-0.15,0.41l0.05,0.15l1.05,0.86L185.95,44.41
		L185.95,44.41z M181.67,49.55l-0.26,0.03l-0.2,0.17l0.05,0.18l0.25,0.39l2.06,1.51l0.85,0.01l0.52-0.15l0.12-0.21l-0.01-0.44
		l-0.86-1.32l-0.44-0.17l-0.66,0.19L181.67,49.55L181.67,49.55z M187.2,58.3l0.55,0.5l0.31,0.1l2.8-0.64l0.35-0.39l1.7-3.85
		l0.08-1.48l-0.23-0.14l-0.62-0.1l-6.06,2.14l-0.21,0.27l-0.02,1.41l0.28,0.8l0.23,0.32l0.14,0.1L187.2,58.3L187.2,58.3z
		 M202.42,55.61l-3.15,2.04l-0.41,0.51l-0.01,2.85l1.27,0.83l3.86,0.38l3.41-4.16l0.03-0.16l-0.24-1.3l-0.32-0.36L202.42,55.61
		L202.42,55.61z M334.82,54.88l-0.48-0.16l-0.29-0.34l-0.15,0.06l-2.09,2.64l-1.45,6.29l0.14,0.56l0.14,0.2l1.82,1.18l0.39,0.06
		l0.05-0.05l-0.05-0.04l-0.02,0.04h-0.06l-1.34-0.74l0.01-0.62l0.19-0.18l2.31-0.81l1.86,0.68l0.42,1.1l-0.25,2.21l12.87,1.01
		l0.06-0.02l0.03-0.1l-0.04-0.59l-5.45-9.71l-3.23-1.68L334.82,54.88L334.82,54.88z M191.04,104.78l-1.03-1.08l0.13-0.89l0.38-0.65
		l0.42-0.34l0.25-0.1l0.25-0.02l0.31,0.26l0.02,0.06l-0.15,2.55l-0.29,0.2L191.04,104.78L191.04,104.78z M143.78,88.76l1.18-0.12
		l0.07,0.61l-0.87,1.52l-1.02-0.12l-0.88-1.61l0.04-0.24l0.96-0.52L143.78,88.76L143.78,88.76z"/>
	<path id="de-st" fill="#DDDDDD" stroke="#FFFFFF" stroke-linejoin="round" d="M368.99,207.78l1.67-0.61l0.69,0.09l0.44,0.31
		l0.07,0.24l-0.02,0.2l-0.96,1.32l-0.05,0.31l0.05,0.38l0.14,0.29l4.03,3.24l0.53,0.1l0.31-0.08l1.73-1.1l0.17-0.03l6.72,3.53
		l0.24,0.31l0.13,0.54l-0.12,0.51l-1.19,1.19l-0.25,0.6l0.06,0.49l0.25,0.5l0.22,0.22l9.45,3.37l8.22-0.97l0.75-0.69l-0.13,0.17
		l-0.25,0.65l-0.03,0.68l0.84,1.99l4.11-1.73l2.1,1.08l1.33,5.17l-0.2,1.81l-1.46,0.73l-1.02,2.43l-0.42,4.44l2.46,3.92l0.3,1.47
		l-0.4,3.68l-1.64,1.19l-0.82-0.14l-2.72,9.5l2.73,3.24l2.3-0.52l0.32-0.47l0.22-1.09l5.55,1.92l0.37,3.27l-1.76,4.11l1.24,7.93
		l-1.19,2.4l-0.25,0.12l-1.99,5.01l-0.04,6.5l-1.82,4.15l9.32,12.29l11.81,5.66l3.96,0.6l0.77-0.13l1.82-1.29l0.15-1.35l0.44-0.59
		l0.93-0.01l6.09,3.2l0.35,0.02l0.48,1.44l7.36,3.44l0.52,0.02l1.06-0.38l4.87,2.59l3.32,3.32l2.51,0.23l2.39-1.04l-0.06-0.67
		l0.9,0.04l1.13,0.99l0.16,1.23l-1.74,0.28l3.34,12.17l0.75,0.68l0.46,0.94l0.04,0.62l-1.92,3.08l-6.45,4.28l-18.28,0.81l-1.74-0.93
		l-2.89-0.57l-0.36,0.22l-0.4,0.55l-0.79,2.44l-3.43,2.19l-2.03-1.39l-0.33,1.12l-15,3.48l-8.73,5.86l-0.2,2.39l-2.44,5.31l1.4,4.82
		l0.14,0.06l1.41,7.83l-2.93,1.38l3.39,8.49l0.36,9.65l2.35,0.59l0.54,0.58l-0.05,0.39l-0.67,0.56l3.68,3l-1.61,2.52l0.25,1.68
		l1.68,1.19l0.48,0.62l-0.1,1.33l-3.89,7.79l-0.82,0.54l-0.04-0.03l-0.7-1.91l-1.51-1.9l-1.2,1.13l0.07,0.72l-4.7-1.7l-4.77,1.04
		l-0.24-1.66l-2.6-3.24l-6.45-4.03l-4.84,1.12l-6.58-2l-0.64-3.1l-1.56-0.96l-6.3-0.99l-0.2,0.18l-0.35,0.75l-1.09,0.94l-3.88,0.08
		l-0.05-0.26l-1.39-0.8l-0.83-3.43l1.32-0.24l0.79-1.76v-0.27l-1.08-2.45l-1.57-1.61l-0.86-0.36l-0.24-0.02l-0.94,0.44l-1.59-0.04
		l-1.55-1.24l0.11-0.8l0.91-1.53l0.22-0.16l0.19-0.01l0.75,0.86l0.05,0.01l0.74-0.38l3.96-5.84l-0.04-0.27l-1.77-1.68l-0.71-0.32
		l-1.17-1.28l0.08-0.3l0.52-0.51l-1.81-0.6l-0.02-0.4l-0.55-1.02l0.23-2.21l-0.23-0.3l-4.19-1.61l-11.31-0.08l-6.91-2.09l-1.79,0.73
		l-1.59-0.03l-0.86-0.96l-0.77-0.46l0.28-5.1l-5.94-9.97l0.48-1.61l1.67-2.24l-1.26,0.54l-2.39-2.13l-8.22-1.13l-1.85,0.4
		l-0.37-0.12l-1.76-2.88l-0.3-2.14l0.21-0.53l-3.95-6.68l-1.02-0.57l-0.7-1.47l-0.27-6.28l0.15-0.51l2.5-2.24l0.39-0.16l0.38-0.02
		l0.18-0.13l1.02-1.6l-0.07-2.03l-0.52-0.65l-1.7-0.66v-1.81l0.77-1.1l1.27-0.42l-3.73-2.8l-1.69-2.38l4.21-0.44l1.77-1.74
		l0.09-0.43l-0.16-0.44l0.11-0.95l12.75-1.12l0.94-0.67l5.66-0.03l0.11,0.1l0.69-5.01l3.91-2.98l1.34-2.04l0.05-1.46l-0.1-0.36
		l-0.06-0.07l-1.52,0.07l-1.23-0.89l-0.15-0.31l-0.06-0.42l0.81-2.34l3.11-1.08l0.62-0.84l-4.73-6.07l-0.42-4.1l1.23-1.71l0.56,0.14
		l2.13-1.22l0.04-1.98l-1.39-1.27l-0.23-0.11l-0.31-0.05l-1.29-0.8l-5.37-7.61l0.63-1.55l2.23-1.21l1.74,0.07l-4.24-5.83l-0.34-1.35
		l0.2-2.23l-6.53-10.74l-2.61-1.92l-2.63-7.19l0.54-5.83l10.8-1.29l2.85-3.1l0.2-0.42l0.14-2.01l0.33-0.38l0.6-0.13l13.16,1.16
		l1.07,1.1l0.13,0.32v0.27l0.04,0.13l0.1,0.07l3.46,0.39l6.82-3.1l3.92-3.66l2.09-0.27l-0.8-1.87l1.15-4.92l0.83-0.16l0.08,0.04
		l0.38,0.53l0.65,0.36l0.74,0.07l2.51-3.69l0.02-0.09L368.99,207.78L368.99,207.78z"/>
	<path id="de-sn" fill="#DDDDDD" stroke="#FFFFFF" stroke-linejoin="round" d="M464.78,347.26l2.41,3.88l0.57,0.32l1.06-0.8
		l0.19-0.31l2.65,1.42l3.67,8.33l-0.83,9.58l1.53,1.83l0.43,1.03l4.5-0.56l-0.11-1.22L488,366l9.96,7.25l3.25,0.91l5.3-0.15
		l0.47-0.68l0.34,0.43l0.83,0.45l3.61,0.48l4.48-2.18l10.65-1.51l2.65-3.5l2.94-9.96l2.12-3.08l11.72,1.59l4.35-2.45l3.44-0.44
		l0.33,0.18l-0.11-0.92l0.13-0.36l7.31-2.71l2.21,0.86l0.15,0.67l0.59,0.92l0.95,0.17l3.36-0.38l0.63-0.78l0.76-2.62l0.83-0.76
		l0.98,0.79l-1,1.95l-0.03,0.16l1.27,2.99l0.44,0.53l1.93,0.63l1.82-0.01l10.31,4.07l1.8,2.94l-0.03,4.44l5.53,12.47l-3.59,22.78
		l-0.86,1.22l-0.69,2.48l0.26,0.24l0.02,0.08l-2.46,8.46l-4.31,6.43l-0.92,5.54l-0.35,0.21l-1.9,0.15l-9.65-3.23l-0.09-0.77
		l0.84-2.43l-2.95-9.91l-6.62-5.77l-0.52,0.35l0.07,2.12l-5.43,0.73l-4.77-1.82l-1.36-1.49l-0.86,0.02l-2.48,6.92l0.09,0.19
		l3.86,3.37l3.95,1.12l0.68-0.19l0.68,0.38l0.27,0.4l0.15,0.92l-0.7,2.52l-18.41,8.66l-1.12,1.35l-11.66,3.12l0.25,0.47l0.16,3.59
		l-0.33,0.79l-3.07,1.86l-1.19,0.18l-0.56-0.15l-0.55-0.4l-2.2-0.52l-8.09,1.05l-7.24,4.33l0.42,1.43l-1.87,4.28l-0.92,0.56
		l-1.9,2.44l-3.88-1.9l-2.14-0.19l-9.24,8.22l0.09,0.69l-1.85,4.52l-1.5,0.33l-3.08-0.97l-5.52,0.48l-0.75,0.3l-0.49,5.08l0.16,0.39
		l-0.12,0.91l-2.24,2.88l-2.5,1.56l-8.5-5.19l-9.04,5.27l-10.6,2.05l-11.64,16.92l-0.27,2.76l0.16,0.46l0.13,0.14l0.23,0.12
		l0.21,0.2l0.35,0.72l-0.17,1.88l-0.27,0.2l-2.52-0.31l-0.2-0.11l-1.19-1.98l0.04-0.25l0.71-0.36l0.2-0.8l-0.23-1.63l-6.95-9.65
		l-5.17,0.1l-0.39,0.32l-0.47-0.64l-7.61-2.26l-0.41-0.3l0.57-3.89l-3.25-3.27l-0.93-0.19l-2.05-1.58l-0.14-0.2l0.44-0.7l4.42-3.63
		l-0.04-0.26l-0.24-0.5l-2.81-2.62l-2.04,0.12l-1.05-2.31l0.14-0.44l3.12-4.4l1.32-0.64l2.23-2.31l0.06-0.81l1.5-1.32l0.38-0.1
		l0.75,0.79l0.44,3.08l-0.46,2.81l6.45,0.11l1.16-0.76l0.35,0.14l0.84-0.1l0.32-0.19l0.15-0.54l-0.23-0.4l-0.1-0.04l-0.69-0.02
		l-0.35,0.32l-1.97-0.58l0.29-0.85l7.6-3.36l0.15,0.02l1.93-0.44l3.23-3.68l0.23-1.29l-2.95-0.79l-0.79-0.78l-2.49-4.43l0.79-7.28
		l0.48-0.96l0.57,0.74l1.33,0.15l4.38-1.57l-0.01-1.45l1.63-1.27l0.31-0.09h1.56l0.59,0.22l0.6,0.79l1.46-0.45l0.92-2.62l0.03-1.25
		l1.72-1.39l5.1-1.11l0.56,0.14l4.22-1.16l0.81-1.24l-0.81-0.63l-0.81-1.35l-0.94-3.92l-4.8-1.51l-2.48-1.86l-0.35-4.57l-0.19-0.28
		l-10.97-3.71l-0.1,0.01l-2.99,1.47l-3.69-2.99l0.67-0.56l0.05-0.39l-0.54-0.58l-2.33-0.59l-0.8-11.81l-2.94-6.32l2.93-1.38
		l-1.42-7.83l-0.14-0.06l-1.41-4.83l2.44-5.31l0.2-2.39l8.73-5.86l15-3.49l0.33-1.12l2.03,1.38l3.44-2.19l0.79-2.44l0.4-0.55
		l0.36-0.22l2.9,0.57l1.73,0.93L464.78,347.26L464.78,347.26z"/>
	<path id="de-sl" fill="#DDDDDD" stroke="#FFFFFF" stroke-linejoin="round" d="M28.86,560.26l13.2,2.95l11.35-2.48l2.67-1.78
		l0.77-0.95l5.96-2.48h0.43l-0.01-0.09l3.6-2.1l2.94,0.44l-0.24,1.01l0.01,0.19l1.79-0.69l1.08-1.06l12.02,7.98l0.76,0.15l1.92-0.85
		l0.43-0.42l1,2.06l-0.27,10.67l-1.67,0.51l-0.38,0.27l0.35,1.53l2.52,1.69l-0.19,2.67l5.02,2.87l1.96-0.75l0.44,0.38l-0.6,0.43
		l-0.71,4.35l0.02,0.1l0.58,0.4l-0.53,2.28l-0.95,1.29l-4.84,2.88l-1,1.32l-0.04,0.75l1.02,3.06l3.11,4.22l0.98-0.02l-0.53,0.86
		l-4.71,3.72l-3.16-1.57l-4.12-0.39l-1.1,0.34l-0.59,0.68l-2.83-2.1l-0.96-1.66l-0.83,2.55l-1.64,1.62l-0.67,0.22l-0.33-0.12
		l-0.29-0.29l-1.11-5.69l0.07-0.53l-1.24-1.92l-2.21-1.68l-7.75-1.69l-1.43,0.9l-0.14,0.22l1.02,1.2l0.56,1.89l-0.21,0.73
		l-0.94,1.48l-1.7,0.3l-5.52-1l-1.16-1.26l-0.56-1.35l1.44-1.76l-0.49-1.35l-2.13-1.23l0.03-2.02l-1.3-3.2l-4.8-4.05l-3.38-9.58
		l0.1-0.27l0.7-0.55l0.6-0.15l-5.72-4.86L32,568.6l-3.94,0.59l-0.49-0.57l-0.4-6.25l0.31-0.63L28.86,560.26L28.86,560.26z"/>
	<path id="de-rp" fill="#DDDDDD" stroke="#FFFFFF" stroke-linejoin="round" d="M148.21,448.33l-0.88,1.01l-0.21,0.96l0.92,5.79
		l0.13,0.25l1.53,0.88l0.01,0.59l-2.35,5.94l-0.76,0.1l-2.09-0.56l-0.5-1.06l-1.21-0.48l-0.31-0.03l-0.98,0.31l-2.92,3.9l-0.46,2.77
		l1.28,2.26l-2.05,5.72l0.51,0.01l5.28,3.52l3.66,7.66l0.09,2.32l-2,1.15l-2.77-0.95l-0.89,0.27l-0.99,1.3l0.23,0.48l2.05,1.89
		l0.1,0.17l-1.68,1.86l-1.3-0.23l-1.84-1.08l-5.27,2.49l-1.6,2.14L131,501l0.37,0.52l2.31,1.82l0.13,0.36l-0.38,2.98l-0.3,0.4
		l-2.69-0.79l-6.15,4.59l-0.95,0.2l0.68,1.93l5.41,7.57l0.47,0.33l5.95-0.29l13.97-5.49l4.4,0.72l5.91,7.05l1.21,5.07l-0.85,1.9
		l-0.12,0.92l3.72,8.36l3.31,3.9l0.34,2.34l-1.26,2.11l-0.89,0.61l-3.08,0.99l-1.18,0.83l-0.31,0.5l-0.24,1.21l4.3,10.09l-0.08,1.13
		l-0.53,1.19l2.15,10.17l-0.46,0.42l-0.11,0.31l0.01,0.35l0.55,0.65l3.39,0.4l0.34,0.4l0.1,0.32l-0.01,0.32l-0.78,2.09l-0.06,4.64
		l-0.97,1.72l-1.91,1.65l-0.35,0.65v0.63l0.14,0.38l0.19,0.23l1.24,0.49l0.59,0.46l0.23,0.36l0.12,0.54l-0.05,0.42l-0.11,0.22
		l-6.47,5.27l-0.46,1.15l-0.05,0.71l0.02,0.04l0.27-0.04l0.16,1.8l-7.82,21.2l-3.47,2.74l-0.45-0.88l-0.15-0.1l-3.49-0.42
		l-0.32,0.15l-1.84-0.13l-4.64-1.97l-0.12-0.29l-1.38-1.52l-8.24-3.34l-1.35-0.12l-0.98-0.46l-14.44-0.02l-9.67-5.64l-2.08-4.01
		l0.01-3.45l-3.2-1.62l-5.46,1.06l-0.04,0.51l0.06,0.29l0.19,0.29l-0.98,0.01l-3.11-4.23l-1.02-3.04l0.04-0.75l1-1.32l4.84-2.89
		l0.96-1.28l0.53-2.29l-0.54-0.48L95,586.7l0.71-4.35l0.6-0.43l-0.44-0.38l-1.96,0.75l-5.02-2.88l0.19-2.67l-2.52-1.69l-0.35-1.53
		l0.38-0.27l1.67-0.51l0.27-10.67l-1-2.06l-0.43,0.42l-1.92,0.86l-0.76-0.15l-12.02-7.98l-1.08,1.08l-1.79,0.67l-0.01-0.19
		l0.24-1.01l-2.94-0.44l-3.55,2.04l-0.05,0.07l0.01,0.08H62.8l-5.97,2.5l-1.48,1.63l-1.95,1.11l-11.35,2.48l-13.2-2.93l-1.4-2.18
		v-0.12l1.86-2.58l0.22-0.12l0.51-0.02l0.27-0.13l1.46-1.54l7.32-14.55l-0.6-4.88l-1.98-1.31l-1.47,0.94l-1.61-0.01l-10.75-7.78
		l-8.6-18.37l2.33-10.18l2.46-2.06l-0.12-5.66l0.16-0.22l7.46-4.8l1.55-3.43l1.4-0.4l2.2,1.13l2.83-0.73l1.44,0.11l-2.41-6.4
		l1.88-0.45l2.96,3.08l9.5-2.34l1.42,1.55l7,2.47l3.01-0.93l1.32,0.27l-1.86-3.31l-0.12-5.97l3.24-2.08l2.77,1.88l3.08-1.31l2.1-9.1
		l2.88,0.39l1.9-0.98l1.96-2.22l9.52-2.09l1.08-1.1l0.74-2.51l0.26-0.13l0.49,0.02l-0.03,2.69l8.16-1.43l1.35-0.72l0.71-2.44
		l-0.07-3.05l0.47-1.01l0.49-0.48l1.93-0.06l2.08,0.69l0.26-0.23l13.99-5.06l1.53-1.79l0.35-0.85l-0.17-1.59l-1.25-1.13l0.97,0.15
		l1.68-0.62l3.64-3.95l-0.56-4.97l3.29-2.85l1.29,0.25l2.34,1.67l-1.56,3.56l0.07,0.76l8.6,3.9l0.26,0.3l0.55,1.4l-0.31,2.87
		l-0.37,0.38l-0.12,1.57l0.2,0.95l4.49,4.92l0.13,1.56l-0.3,1.51l2.65-0.92l1.27,0.34L148.21,448.33L148.21,448.33z"/>
	<path id="de-nw" fill="#DDDDDD" stroke="#FFFFFF" stroke-linejoin="round" d="M234.54,350.83l-8.38,12.11l-8.77,6.97l-1.25,2.06
		l-3.35-0.08l-0.89-0.38l-0.17-0.24l-0.57-1.63l0.71-1.77l-1.18-1.96l-2.92-1.24l-7.83,2.36l-0.68,0.69l0.18,1.1l2.52,4.14l0.85,0.3
		l0.25,1.58l-0.82,2.45l-0.15,0.05l-7.61-0.12l-8.75,2.53l-4.04,2.59l-4.27,5.95l2.29,3.1l1.07,0.14l5.63-2.73l1.61-0.04l0.97,1.41
		l0.91,8.46l-3.2,7.24l-3.19,1.23l-6.83-1.01l-2.31,1.31l-0.97,1.09v0.19l2.19,5.93l-4.24,4.61l0.01,0.24l0.27,0.37l-0.16-0.06
		l-0.6,0.01l-0.5,0.29l-0.65,2.72l-5.54,7.8l-0.54,0.11l-4.26-2.21l-1.36-0.06l-9.69,9.44l2.38,4.46l0.18,0.95l-0.05,0.35
		l-2.74,4.71l-1.7-1.87l-1.27-0.34l-2.65,0.92l0.31-1.51l-0.14-1.56l-4.48-4.93l-0.21-0.95l0.12-1.57l0.37-0.38l0.31-2.87l-0.55-1.4
		l-0.51-0.52l-8.35-3.68l-0.06-0.76l1.55-3.57l-2.34-1.67l-1.29-0.25l-3.3,2.85l0.56,4.97l-3.64,3.95l-1.68,0.62l-0.97-0.15
		l1.25,1.13l0.17,1.59l-1.88,2.64l-14,5.06l-0.26,0.23l-2.08-0.69l-1.94,0.06l-0.48,0.49l-0.47,1.01l0.06,3.05l-0.71,2.44
		l-6.54,2.17l-2.96-0.02l0.03-2.69l-0.49-0.02l-0.26,0.13l-0.74,2.51l-1.08,1.1l-9.51,2.09l-1.96,2.22l-1.9,0.97l-2.87-0.39
		l-2.11,9.1l-3.08,1.31l-2.77-1.88l-3.24,2.08l0.12,5.97l1.86,3.32l-1.32-0.27l-3.01,0.93l-7-2.47l-1.42-1.56l-9.5,2.34l-2.95-3.08
		l-1.88,0.45l2.4,6.41l-1.44-0.11l0.31-1.2l-0.01-0.11l-2.91-3.75l-0.11-2.02l0.92-1.81l0.54-4.32l-2.37-4.1l-1.57-1.22l-3.75-0.42
		l-1.71,0.83l-0.1-0.04l-2.29-3.32l-0.55-3.09l0.08-0.26l3.29-3.11l0.8-3.61l-3.45-0.91l-0.89-1.15l1.27-0.49l-3.95-7.44l-4.98-2.92
		l-2.67-4.46l1.85-5.93l2.03-0.67l0.4,0.04l0.08,0.27l1.03,0.52l1.09-2.6l-0.09-0.74l-0.57-0.89l-0.07-0.51l0.52-1.68l0.37-0.36
		l0.13-0.27l0.05-0.37l-4.53-1.77l-0.07-2.78l0.87-2.11l-0.03-0.1l-4.45-0.4l-2.54,0.61l-0.89-1.04l-2.02-6.14l-0.02-0.52l0.06-0.07
		l17.16-8.64l0.99-2.86l2.78-1.19l-0.95-0.85l-3.27,1.51l-0.32,0.39l-0.7,0.28l-1.12-0.15l-0.54-1.07l-0.09-3.23l1.19-3.45L28,374
		l-0.99-3.57l1.49-7.67l-0.49-3.97l-7.19-9.87l0.08-5.57l-3.2-1.48l-0.41-0.56l-3.37-13.27l1.53-2.5l4.41-1.97l7.07-0.55l1.95-1.28
		l5.19,0.26l7.57,5.11l0.44,0.06l-1.12-3.84l0.28-0.93l0.17,0.02l2.12,0.91l4.85,0.05l11.69-4.51l2.29,2.28l4.41-3.22l2.92-4.05
		l-0.27-2.35l-6.89-5.11l3.01-5.95l6.25-1.91l1.17-1.14l0.57-2.44l12.06-8.28l2.1-0.07l1.51-1.82l2.14-0.48l8.88,0.63l1.3-1.62
		l1.82-0.19l1.04-0.55l0.61-1.18l10.24-6.84l0.58-0.05l2.31-1.15l1.81-3.18l0.13-0.68l-2.06-1.21l2.23-4.32l4.84,1.91l0.35,0.42
		l2.09,5.57l5.08,3.09l2.21,0.34l3.16-1.14l2.79,1.7l1.66,4.22l-2.1,2.24l-0.14,0.84l0.07,0.59l1.52,1.6l-1.05,0.71l-2.73,5.81
		l-0.01,0.12l0.76,2.25l1.29,0.91l2.33,0.45l1.97,1.83l0.19,4.14l-6.88,2.2l-0.94,0.71l-0.04,0.14h0.28l1.4,2.29l0.24,1.01
		l3.98,1.73l1.02-1.46l2.27-1.73l3.83,0.55l0.3,0.62l2.27-1.41l1.6-0.37l7.1-5.57l8.97,1.91l-0.36-1.29l0.06-0.34l0.77-0.89
		l2.38-1.53l1.01-0.02l0.76-0.44l2.13-2.5l-2.45-1.04l-0.36-0.02l-0.28-0.12l-0.78-0.69l-0.62-1.25l1.6-5.42l-0.09-5.09l-1.56-4.62
		l-7.39-5.6l-1.14-4.28l0.41-0.27l2.81,0.72l0.31,0.31l-0.03,0.19l0.5,0.51l4.34-0.4l1.54-1.31l0.44-3.06l3.11-2.39l3.08,1.51
		l5.9-3.07l2.86,2.36l0.27,0.88l0.15,10.43l2.38,1.18l12.03-1.27l7.37-10.01l5.05,1.78l0.26,0.89l-1.8,4.09l0.91,2.34l-2.56,5.77
		l-1.66,1.26l-1.2,0.17l-2.66,1.61l-2.26,4.78l0.51,1.55l6.57,3.17l-2.05,5.15l-1.45-0.02l-2.3-1.21l5.36,5.19l4.62,1.11l0.53,0.58
		l0.34,0.98l-0.28,2.22l1.35,1.23l0.91,1.59l-0.64,0.38l-0.46,0.67l0.21,8.25l0.63,1.53l6.53,4.58l1.01-0.16l0.06-0.03l0.34,0.05
		l1.06,0.57l0.87,2.2l-0.7,4.03l-0.23,0.15l1.97-1.04l2.69,1.01l1.78,1.77l-3.93,19.25l0.46,0.34l2.23,0.01l1.34-0.46L234.54,350.83
		L234.54,350.83z"/>
	<path id="de-ni" fill="#DDDDDD" stroke="#FFFFFF" stroke-linejoin="round" d="M179.9,149.43l-2.09-5.2l-0.01-3.29l5.38-16.02
		l3.03-3.65l4.2-0.93l0.03,0.85l1.61,2.09l3.79,2.75l8.01,1.11l1.92-0.44l0.06-0.07l0.01-0.15l2.37-0.54l2.68,0.55l-1.66-3.83
		l1.7-0.68l12.63,0.3l5.35,2.83l6.8,12.24l4.52,4.21l2.15,7.11l9.7,6.48l4.37,0.55l-0.31,5.04l0.83,0.86l0.96,2.23l0.07,0.59
		l3.41,3.51l2.61-2.34l4.76,4.47l0.42-0.03l2.82-2.07l0.78-2.21l0.56-0.74l7.38,6.85l3.96,0.18l0.42-0.38l0.79-1.76l0.25-0.26
		l2.78-1.52l0.15-0.01l16.86,7.43l0.83-0.45l-0.05-0.04l1.34-0.65l5.01-0.12l5.24,5.28l3.33,1.41l3.08-1.96l0.04-0.27l-0.04-0.1
		l0.39-0.75l1.38-1.08l4.37,1.14l6.55,12.22l2.86,2.13l2.62,0.55l0.78,0.43l0.15,0.23l0.04,0.36l-0.36,1.13l-0.55,0.55l-0.54,0.2
		l4.18,1.74l1.89,2.05l0.06,1.79l0.07,0.2l4.14,4.46l0.29,0.16l0.69,0.03l3-1.86l3.36-0.67l3.2,2.91l5.63,1.27l0.09,0.14l-0.01,0.09
		l-2.51,3.69l-0.73-0.07l-0.65-0.36l-0.38-0.53l-0.09-0.04l-0.83,0.16l-1.14,4.93l0.8,1.87l-2.09,0.28l-3.92,3.65l-6.82,3.09
		l-3.47-0.38l-0.1-0.07l-0.04-0.13v-0.28l-0.14-0.32l-1.05-1.1l-13.16-1.16l-0.6,0.13l-0.33,0.38l-0.21,1.4l0.09,0.46l-0.02,0.16
		l-0.19,0.42l-2.85,3.1l-10.79,1.29l-0.53,2.39l0.23,2.27l-0.23,1.17l2.63,7.19l2.61,1.92l6.53,10.75l-0.19,2.23l0.68,2.1l3.89,5.08
		l-1.74-0.07l-2.23,1.2l-0.62,1.56l5.37,7.61l1.3,0.81l0.55,0.15l1.39,1.27l-0.04,1.98l-2.12,1.22l-0.56-0.14l-1.23,1.71l0.42,4.1
		l4.27,5.04l0.46,1.04l-0.62,0.84l-3.11,1.07l-0.82,2.34l0.06,0.42l0.15,0.31l1.22,0.89l1.53-0.09l0.06,0.07l0.11,0.36l-0.05,1.46
		l-1.35,2.05l-3.91,2.98l-0.69,5.01l-0.11-0.1l-5.66,0.03l-1.29,0.82l-12.38,0.97l-0.1,0.95l0.16,0.44l-0.1,0.42l-1.77,1.74
		l-4.21,0.44l1.69,2.38l3.73,2.8l-1.27,0.42l-0.76,1.1v1.81l1.71,0.66l0.52,0.64l0.17,1.68l-1.13,1.95l-0.18,0.13l-0.38,0.02
		l-0.39,0.16l-2.51,2.23l-0.15,0.51l0.27,6.28l0.7,1.47l1.03,0.57l3.95,6.68l-0.21,0.53l0.3,2.14l1.76,2.88l0.37,0.12l-0.1,0.18
		l-1.15,0.16l-0.27-0.04l-3.01,7.3l-7,1.47l-0.58-0.31l-1.21-1.8l-3.93-1.84l-2.56,0.64l-1.6,3.09l0.44,0.2l0.04,0.1l-1.89,3.39
		l-10.76,7.62l-5.31,1.08l-10.44,6.19l-0.2-0.14l0.36-0.23l0.04-0.14l-0.04-1.17l-1.59-2.62l-0.29-0.17l-6.47,0.91l-5.91,5.47
		l1.77,2.78l1.72-0.82l0.51-0.02l0.07,0.15l-0.29,3.02l-2.32,1.19l-0.13-0.23l-10.38-4.42l-1.17-1.93l0.58-2.32l1.27-2.13l3.4-0.32
		l0.85-1.35l-1.11-5.89l-2.66-4.28l0.01-0.1l0.15-0.32l2.43-2.72l1.53-0.27l0.77-1.15l0.73-0.6l0.66,0.19h0.1l0.45-1l-0.18-0.4
		l-6.6-4.7l-4.87-0.13l-0.73-0.44l-0.31-0.41l-0.04-0.33l0.45-1.37l-0.03-0.38l-0.15-0.22l-0.27-0.05l-3.27,0.72l-0.14-0.08
		l-1.34,0.46l-2.23-0.01l-0.46-0.34l3.93-19.25l-2.34-2.1l-1.93-0.68l-0.21-0.01l-1.97,1.06l0.23-0.15l0.7-4.03l-0.87-2.21
		l-1.06-0.57l-0.34-0.05l-0.06,0.03l-1.01,0.16l-6.53-4.58l-0.63-1.53l-0.21-8.25l0.47-0.67l0.64-0.39l-0.92-1.59l-1.35-1.23
		l0.29-2.22l-0.34-0.97l-0.53-0.58l-4.62-1.1l-5.36-5.19l2.3,1.21l1.45,0.02l2.05-5.15l-6.57-3.17l-0.51-1.56l2.26-4.78l2.65-1.61
		l1.2-0.17l1.54-1.14l2.59-5.22l0.08-0.7l-0.91-2.34l1.8-4.09l-0.26-0.89l-5.05-1.78l-7.37,10l-12.03,1.27l-2.38-1.18l-0.14-10.44
		l-0.27-0.88l-2.86-2.36l-5.9,3.07l-3.08-1.51l-3.11,2.39l-0.44,3.05l-1.54,1.31l-4.34,0.39l-0.5-0.51l0.03-0.19l-0.31-0.31
		l-2.81-0.71l-0.41,0.26l1.15,4.28l7.39,5.6l1.56,4.62l0.09,5.09l-1.6,5.43l0.64,1.25l0.78,0.69l3.09,1.18l-2.27,2.81l-0.89,0.31
		l-0.65-0.04l-2.38,1.53l-0.77,0.89l-0.05,0.34l0.36,1.29l-8.98-1.91l-7.1,5.57l-1.6,0.37l-2.26,1.41l-0.31-0.62l-3.84-0.55
		l-2.27,1.73l-1.02,1.46l-3.98-1.73l-0.24-1.01l-1.4-2.29h-0.27l0.04-0.14l0.94-0.71l6.88-2.2l-0.19-4.14l-1.97-1.84l-2.39-0.49
		l-1.23-0.88l-0.76-2.25l0.01-0.12l2.73-5.81l1.05-0.71l-1.52-1.6l-0.03-1.05l0.1-0.38l2.1-2.24l-1.66-4.22l-2.79-1.7l-3.16,1.14
		l-2.21-0.34l-5.08-3.09l-2.08-5.57l-0.35-0.42l-4.85-1.92l-2.23,4.33l2.06,1.2l-0.13,0.68l-1.8,3.18l-2.31,1.15l-0.59,0.05
		l-10.24,6.83l-0.61,1.19l-1.04,0.55l-1.83,0.19l-1.29,1.62l-8.89-0.74l-2.14,0.48l-1.51,1.81l-2.1,0.07l-1.39-1.57l-0.86-3.75
		l3.1-6.03l0.11-2.14l-4.65-9.84l-0.25-0.22L81,263.56l-1.06,2.15l-1.33,0.8l-11.7-3.43l-3.36-2.45l1.41-14.49l2.11-1.73l2.66-0.61
		l13.54,1.72l0.18,0.24l0.02,0.06l2.12,0.67l0.07-0.02l0.84-1.06l2.88-21.09l6.22-9.1l1.94-5.98l0.01-11.53l-1.16-0.94l-0.18-1.69
		l4.8-18.43l0.1-0.1l0.53-0.19h2.88l-16.84-2l-0.4-0.24l-1.21-2.21l1.06-1.97l1.7-15.36l3.36,1.52l0.98,1.39l2.98-3.07l-1-1.79
		l-2.33-1.5l-0.51-0.66l0.29-0.9l9.62-8.72l7.05-1.6l7.82,0.74l0.6,0.35l0.14,0.19l1.23,0.71l11.81-2.9l0.01,0.16l18.34-0.64
		l0.98,0.5l0.24,0.3l-0.12,0.71l-0.45,0.64l-0.1,0.73l1.1,4.52l2.88,0.4l4.75,10.13l-0.7,2.26l-4.36,1.69l-0.92-0.03l-0.99-0.77
		l0.54,4.19l1.72,2.36l1.22-0.71l1.09-0.07l0.7,0.2l2.9,4.15l-0.02,0.24l0.21,0.42l0.14,0.15l2.89,0.58l1.13-0.7l2.96-5.09
		l0.22-6.28l-0.39-0.67l-0.44-0.25l-2.12,0.77l-2.14-0.4l1.24-7.03l2.2-2.14l1.31-0.49l1.2,0.12l1.4,0.92l2.1,3.37l5.06,2.33
		l3.03,0.31l2.05,1.32l0.26,1.22l-0.02,0.07l-0.54,0.42l1.7,2.3v0.18l-0.06,0.2l-0.37,0.53l0.17,0.23l0.32,0.2l2,0.19l2.56-2.71
		l0.09-0.52l-0.9-3.88l1.07-4.97l-0.06-0.1L179.9,149.43L179.9,149.43z M207.52,199.23l-1.65-2.24l-0.68-0.49l-0.32-0.01l-1.15,0.73
		l-4.71-0.14l-8-3.98l-6.48-0.77l-7.51-4.05l-0.27-0.87l-0.01-0.68l0.2,2.04l1.45,2.5l6.77,3.37l1.98,6.03l3.36,3.41l0.12,3.24
		l1.03,0.97l0.31,0.07l1.42-0.51l1.35,0.01l8.46,3.07l3.25-2.78l-0.33-6.74l-0.79-1.23l0.09-0.13L207.52,199.23L207.52,199.23z
		 M140.57,131.3l-1.14-1.38v-0.18l0.43-0.38l0.38-0.16l4.53,0.47l2.07,1.16l0.06,0.48l-0.17,0.04l-5.47-1.58l-0.15,0.01l-0.1,0.07
		l-0.25,0.43L140.57,131.3L140.57,131.3z M149.85,134.48l-0.1-0.01l-0.58-0.32l-0.21-0.24l-0.53-1.91l0.01-0.38l0.73-0.87l0.36,0.44
		l0.39,3.18L149.85,134.48L149.85,134.48z M129.21,133.15l-0.53-0.1l-0.18-0.1l-0.21-0.4l0.01-0.39l0.88-1.32l0.55-0.44l7.33,0.45
		l0.39,0.41l0.05,0.15l-0.05,0.04l-7.36,0.46L129.21,133.15L129.21,133.15z M116.53,135.99l-0.22-0.04l-0.36-0.3l-0.13-1.63
		l0.07-0.29l0.92-1.15l0.62-0.32l7.47,0.17l1.01,0.43l0.13,0.19l0.01,0.59l-0.83,0.06l-0.01-0.05l0.13-0.13l-0.01-0.05l-6.61,0.3
		L116.53,135.99L116.53,135.99z M114.21,136.11l-4.38-0.56l-0.32-0.49l0.01-0.1l0.09-0.1l1.72-0.65l2.55,0.53l0.36,1.28
		L114.21,136.11L114.21,136.11z M96.81,137.72l-0.91-0.92l-0.05-0.19l0.13-0.23l3.03-1.28l9.3,0.13l0.25,0.13l0.18,0.51l-0.04,0.15
		L96.81,137.72L96.81,137.72z M81.28,140.41l-0.71-0.05l-0.84-0.45l-0.06-0.17l0.06-0.14l12.49-0.99l0.87,0.19l0.13,0.16l0.05,0.15
		l-0.01,0.25l-0.17,0.23l-0.06-0.16l-0.08-0.04l-11.64,0.92L81.28,140.41L81.28,140.41z M71.59,150.95l-0.52-1.08l-0.31-0.2
		l-0.52,0.03l-0.43,0.16L69.74,150v0.3l0.1,0.31l0.13,0.1l-0.01,0.04l-0.12,0.03l-0.65-0.1l-2.6-2.07l-0.44-0.68l-0.17-0.86
		l0.08-0.41l0.26-0.35l5.53-1.69l0.82,0.07l2.94,2.15l0.05,0.16l-5.28,1.49l1.93,1.95l-0.05,0.09l-0.55,0.42L71.59,150.95
		L71.59,150.95L71.59,150.95z"/>
	<path id="de-mv" fill="#DDDDDD" stroke="#FFFFFF" stroke-linejoin="round" d="M324.98,114.02l8.95-5.42l7.78-0.81l4,4.32
		l-0.18,2.44l0.34,0.8l1.2,0.87l0.55,0.18l0.54-0.05l1.79-1.21l0.17-0.26l1.62-0.38l3.6,1.59l-0.06,0.9l0.12,0.23l2.7,1.66
		l1.83-3.55l0.56-5.59l1.03-2.02l3.38-1.9l3.4-4.95l0.03-1.41l-0.86-1.28h-0.24l-5.43,6.66l-0.06,0.03l-0.07-0.06l-0.17-1.41
		l0.76-1.75l9.31-8.62l10.24,0.61l8.82-3.32l7.08,1l3.48-7.2l9.23-6.82l10.2-18.62l1.76,1.44l24.99,0.87l0.12,0.06l0.06,0.12
		l0.03,0.2l-0.07,0.1l-2.91,1.94l-10.08,0.84l-0.13-0.04l-0.22-0.19l-0.7-1.37l-0.27-0.14l-17.83,6.87l-3.04,8.32l0.03,2.51
		l0.04,0.07l3.29,1.91l2.18-0.11l0.36-0.2l0.01-0.2l-0.65-0.42l-1.89-0.32l-0.59-1.15l-0.07-0.86l0.45-0.99l7.85-7.23l5.98-2.9
		l9.75,3.16l1.96-0.36l1.94-1.66l0.21-0.41l0.09-1.41l0.64-1.69l1.63-1.42l3.76-1.42l2.23,0.22l4.1,6.01l-0.79,1.8l1.89,6.37
		l2.51,2.81l2.42-1.31h0.17l6.13,2.93l2.62,5.15l0.18,0.12l0.19-0.01l0.27,0.6l2.2-0.02l2.22,0.85l0.02,0.1l-1.69,1.49l0.15,0.68
		l0.19,0.2l0.3,0.03l0.75-0.57l0.23-0.02l1.33,0.84l0.81,1.71l0.11,1.21l1.13,1.84l0.36,0.32l1.86,0.43l0.19-0.05l0.25-0.16
		l0.02-0.06L480,93.06l-0.01-0.2l0.93-0.76l12.7-4.12l4.54,4.59l0.76,1.53l0.05,4.55l8.53,13.01l-0.03,0.24l-0.71,0.94l-0.1,0.06
		l-0.18-0.05l-0.39,0.01l-0.38,0.17l-4.42,5.4l0.66,1.54l9.64,6.75l9.55,3.18l3.71,0.06l2.67-2.79l1.49,0.3l0.85,0.73l3.82,17.02
		l-0.41,2.95l1.79,5.07l0.17,0.13l1.62,2.27l4.44,15.2l-0.44-0.1l-0.31,0.02l-5.02,2.11l-0.78,2.73l-2.03,2.84l-10.25,0.33l0.28-1.7
		l7.09-9.41l0.67-2.45l-0.21-3.37l-0.42-0.69l-0.73-0.49l-6.33-0.39l-0.72,1.4l-10.55,0.56l-1.62-0.65l-2.45-6.46l-5-5.79
		l-0.52,0.13l-0.36,0.63l-0.15,3.98l1.37,1.24l-2.75,2.43l-2.69,0.2l-9.28,8.55l-1.87,4.94l0.57,3.23l-6.94,7.96l-0.7,0.31
		l-0.35-0.1l-1.08-1.63l-0.19-1.09l-0.39-0.54l-0.21-0.11l-3.52-0.06l-3.31,2.6l-0.42,3.17l-0.49,0.87l-1.49-0.22l-0.18-0.2
		l-1.36-2.96l-2.12,0.28l-2.27,1.1l-7.44,8.05l-0.3,0.16l-0.16,0.02l-2.07-0.89l-0.15-0.13l-0.01-0.06l0.27-0.41l1.97-1.35
		l-0.23-0.68l-0.04-0.04l-0.69-0.2l-7.28,0.2l-1.78,0.58l-0.08,0.06l-0.02,0.15l-1.99,0.75l-1.17-0.13l-6.23-6.41l-8.46-0.86
		l-1.77,0.38l0.04,0.52l-0.2,0.21l-3.25,0.39l-2.48-2.79l-0.51-1.43l-10.59-6.25l-7.34,1.69l-3.24-0.52l-2.07,2.96l0.16,1.78
		l-0.37,0.5l-4.14,2.91l-8.22,2.06l1.23,2.21l-0.03,0.12l-0.21,0.23l-6.16,1.35l-0.7-1.46l-1.7-0.96l-3.76-0.03l-4.44,3.96
		l0.68,4.09l-0.97,3.52l-0.86,0.6l-3.17-0.35l-0.64-0.3l-0.03-0.25l-0.8-0.59l-3.38,0.4l-2.76,2.18l-5.62-0.33l-1.9-2.06l-4.18-1.74
		l0.54-0.2l0.55-0.55l0.36-1.14l-0.04-0.35l-0.15-0.23l-0.78-0.43l-2.63-0.55l-3.54-2.81l-5.88-11.54l-4.37-1.15l-1.39,1.08
		l-0.39,0.75l0.04,0.1l-0.04,0.27l-3.08,1.96l-3.33-1.42l-5.23-5.28l-5.01,0.12l-1.34,0.65l2.39-9.38l1-0.58l2.54,0.6l13.85-15.55
		l0.4-2.43l1.4-1.94l-0.71-3.78l-1.33-1.45l-2.02-0.66l-0.18,0.04l-0.22,0.13l-0.03,0.18l-1.65,0.18l-5.56-4.73l0.6-4.62l-1.58-4.26
		l-0.02-1.81l1.42-2.27l5.22-3.67l2.62,0.19l0.95-2.14L324.98,114.02L324.98,114.02z M466.02,36.3l-3.85,3.63l-3.15,8.53l0.14,0.02
		l0.48-0.16l3.21-3.07l0.65-1.69l-0.46-1.63l1.7-2.47l1.04-0.3l0.1,0.03l0.2,0.43l0.13,1.53l-2,6.95l4.87-2.52l6.98,2.85l3.85-0.99
		l-0.04,7.99l-0.15,0.1l-2.05,0.05l-7.34-3.53l-0.23-0.26l0.35-3.46l-10.87,1.46l-0.89,0.52l1.05,3.54l3.6,0.03l2.52,2.27L465,57.79
		l-4.9,1.38l-1.16,2.58l0.06,0.69l0.34,0.19l5.98,1.3l-7.38,3.77l-0.3,0.62l-0.4,3.5l1.8,5.21l15.51,5.2l1.54-1.29l0.14-0.26
		l-0.05-0.72l-0.41-0.94l-0.85-0.99l-0.1-0.04h-0.56l-0.25,0.37l0.05,0.24l-0.04,0.13l-1.44,0.95l-0.37,0.03l-0.36-0.42l-0.03-1.2
		l8.85-8.5l10.05-1.23l0.42,0.07l1.43,2.41l0.01,0.47l-0.26,0.56L490.51,73l-0.01,1.54l2.14-0.56l2.11-4.27l-2.46-4.54l-2.54-1.94
		l-0.12,0.14l-0.22,0.12l-2.09,0.11l-0.69-0.55l-2.69-5.04v-2.02l4.68-4.52l0.21-0.04l0.6-0.44l0.57-1.16l-0.09-3.17l-2.78-2.16
		l-10.8,1.97l-1.42-0.39l-2.34-2.34l-1.08-3.47l0.39-1.37l0.35-0.48l0.71-0.37l0.8-0.13l0.68-0.49l0.6-1.84L475,35.51l-0.62-0.77
		L466.02,36.3L466.02,36.3z M453.55,58.49l0.13,0.32h0.1l0.18-0.25l2.07-10.68l2.27-1.15l-2.98-1.06l-1.9,12.31L453.55,58.49
		L453.55,58.49z M458.41,59.99l4.77-2.76l0.12-0.15l-0.29-0.92l-0.25-0.32l-1.55-0.7l-0.69-0.08l-0.67,0.17l-0.65,0.44l-2.06,3.96
		l-0.03,0.67l0.06,0.16l0.14,0.06L458.41,59.99L458.41,59.99z M448.84,60.94l-0.15-0.04l-0.4,0.07l-0.35,0.28l0.01,0.14l0.52,0.48
		l0.67-0.04l3.23-1.14l1.02-0.96l-0.5-0.55l-3.06,1.12l-0.87,1.04L448.84,60.94L448.84,60.94z M500.06,86.93l-0.75-0.72l-0.51-0.13
		l-0.99,0.21l-1.21,0.77l-0.32,0.57l0.04,1.34l0.35,1.06l2.41,2.62l0.51,5.02l3.81,5.92l0.18,0.11l0.19,0.03l3.85-1.87l0.4-1.1
		l-0.02-0.12l-1.25-1.87l-0.38-1.7l0.07-0.11l3.48,0.31l4.68,5.04l0.42,1.11l-0.06,5.15l-3.62-0.64l-1.33-3.51l-0.15-0.14l-0.45-0.2
		l-0.74-0.1l-2.03,0.55l-0.13,0.1l-0.36,0.76l-0.14,1.6l0.18,0.41l1.54,1.74l1.15,3.17l0.02,0.49l-0.76,1.94l-3.82,2.17l-1.09,0.02
		l-0.76,1.54l0.75,0.72l2.59,0.87l18.69-4.37l0.21,0.04l1.35-6.03L509.8,96.16l-4.21-1.65l-3.51-3.27L500.06,86.93L500.06,86.93z
		 M359.92,110.97l0.93-3.41l-0.06-0.53l-0.08-0.19l-1.21-0.35l-1.41,0.25l-4.33,2.57l-0.26,0.59l0.21,1.69l0.47,0.84l0.36,0.3
		l3.89,0.73L359.92,110.97L359.92,110.97z"/>
	<path id="de-he" fill="#DDDDDD" stroke="#FFFFFF" stroke-linejoin="round" d="M265.48,379.05l-0.2,0.91l3.38,8.14l5.3,2.05
		l0.91,2.9l7.61,3.85l1.31,1.29l1.24,0.3l0.29,0.61l-0.33,0.79l-1.31,0.93l-0.42,1.33l0.03,0.25l0.36,0.54l0.21-0.02v2.56
		l-0.19,0.22h-0.57l-0.37-0.7l0.01-0.04l-0.28-0.44l-0.36-1.32l-1.05-1.08l-2.61,0.64l-0.45,0.57l2.07,4.36l0.21,4.32l2.7,1.25
		l1.23,1.68l-0.76,1.65l0.15,0.19l-0.55,0.65l-0.78,0.36l-0.18-0.04l-0.24,0.18l-2.12,0.28l-0.46-0.14l-0.59-0.59l-1.29-0.7
		l-4.58-0.37l-0.42,0.23l-0.76,1.57l2.45,11.51l-2.33,5.25l-3-0.17l-1.56,1.22l-0.49,2.71l0.38,0.71l0.11,1.43l-0.13,0.15
		l-1.61,0.52l0.93,1.13l0.17,1.8l-4.1,7.03l-0.01,3.58l4.35,0.76l0.93-0.19l0.54-1.25l-1.23-1.52l-0.04-0.61l0.24-0.32l2.91-1.08
		l3.43,0.26l0.3,0.24l1.52,3.41l-2.01,1.74l-0.57,1l0.24,10.47l-0.78,2.96l-7.24,7.08l-2.37,1.22l-1.54,0.18l-3-1.53l-3.56,1.04
		l-1.08,4.07l-0.68,0.63l0.94,1.57v2.75l-0.55,1.19l-2.38,2.22l-0.83,0.32h-0.68l-1.71,0.61l-2.17,4.79l-0.13,0.11l-2.37,0.13
		l-4.14-1.15l-1.19,2.52l0.99,10.54l-0.4,1.19l-6.66,1.07l-0.54-0.43l-1.86-4.31l-0.11-0.13l-10.01-1.98l-13.47,3.7l-1.38,1.89
		l-1.12,3.79l1.29,1.12l0.88-0.04l0.65,0.22l0.32,0.27l0.14,0.27l0.36,3.89l-1.58,0.89l0.35,0.48l1.05,11.2l0.81,1.17l-0.92-0.1
		l-0.21,0.05l0.25,2.47l4.62,4.64l1.4,0.26l0.18,0.13l1.18,5.31l-1.62,4.31l-0.5,0.24l-2.18,10.69l0.89,1.64l-0.17,1.64l0.09,0.08
		l-0.54,1.2l-0.54,0.43l1.96,1.12l0.57,1.38l-0.01,0.42l-0.29,0.42l-0.92,0.24l-1.48-1.72l-1.14-0.27l-5.88,1.92l-2.63,2.57
		l-0.58,1.35l1.3,1.52l-6.73,6.1l-2.48-0.15l-0.59-0.65l-0.3-0.87l2.13-4.59l2.31-0.8l2.32-2.1l-0.2-1.25l0.16-0.65l-11.66-2.52
		l-1.45-0.99l-1.87-7.64l0.36-0.2l0.1,0.19l0.43,0.16l0.1-0.1l0.51-0.99l-0.13-0.48l-0.97-0.22l-5.64,1.47l-0.3,0.6l0.04,0.81
		l0.21,0.4l0.63-0.1l0.9,4.57l-0.1,0.54l-0.67,1.09l-1.73,1.36l-0.94,0.04l-0.75-0.27l-0.91-0.69l-0.63-0.86l-0.38-1.18l-4.04-4.36
		l-1.28-0.08l-1.51,0.66l-4.3-10.11l0.24-1.21l0.32-0.5l5.15-2.43l1.27-2.11l-0.35-2.34l-4.61-5.84l-2.42-6.43l0.12-0.93l0.85-1.91
		L160.6,524l-6.39-8.22l-4.39-0.73l-13.99,5.47l-5.33,0.41l-0.62-0.13l-0.47-0.33L124,512.9l-0.68-1.93l0.94-0.2l6.14-4.59l2.69,0.8
		l0.3-0.4l0.38-2.99l-0.13-0.35l-2.31-1.82l-0.36-0.52l-0.06-1.32l1.6-2.14l5.26-2.48l1.84,1.08l1,0.24l0.3-0.02l1.68-1.85
		l-0.1-0.17l-2.04-1.9l-0.23-0.48l0.99-1.31l0.89-0.27l2.77,0.94l2-1.15l-0.09-2.33l-3.65-7.66l-5.28-3.52l-0.51-0.01l2.05-5.72
		l-1.27-2.26l0.46-2.76l2.92-3.92l0.98-0.31l0.31,0.03l1.21,0.5l0.5,1.06l2.09,0.56l0.76-0.1l2.36-5.94l-0.01-0.59l-1.53-0.88
		l-0.99-6.6l3.76-6.13l0.06-0.35l-0.18-0.95l-2.38-4.46l9.69-9.43h1.16l4.45,2.27l0.54-0.12l5.54-7.81l0.66-2.72l0.5-0.28l0.6-0.01
		l0.16,0.06l-0.26-0.36l-0.01-0.24l4.25-4.61l-2.2-5.93v-0.19l1.87-1.8l1.41-0.59l6.84,1.01l3.19-1.23l3.11-6.87l-0.84-8.84
		l-0.97-1.41l-1.61,0.04l-5.64,2.73l-1.07-0.14l-2.29-3.1l4.28-5.96l4.05-2.59l8.75-2.54l7.61,0.13l0.15-0.05l0.82-2.45l-0.25-1.57
		l-0.85-0.3l-2.7-4.8v-0.44l0.68-0.69l7.84-2.36l2.92,1.24l1.18,1.96l-0.71,1.77l0.57,1.63l0.17,0.24l0.89,0.38l3.35,0.08l1.25-2.06
		l8.78-6.97l8.37-12.11l3.27-0.71l0.27,0.06l0.15,0.21l0.03,0.38l-0.45,1.36l0.04,0.34l0.31,0.4l0.73,0.44l4.87,0.13l6.59,4.7
		l0.18,0.4l-0.44,1.01h-0.1l-0.66-0.19l-1.32,1.39l-0.18,0.36l-1.53,0.27l-2.43,2.72l-0.15,0.32l-0.01,0.1l2.66,4.28l1.11,5.89
		l-0.85,1.35l-3.41,0.3l-1.27,2.12l-0.58,2.32l1.17,1.93l10.38,4.42l0.14,0.23l2.31-1.19l0.29-3.03l-0.07-0.15l-0.51,0.02
		l-1.72,0.82l-1.78-2.78l5.92-5.48l6.48-0.91l0.29,0.17l1.59,2.62l0.04,1.17l-0.04,0.14L265.48,379.05L265.48,379.05z"/>
	<path id="de-hh" fill="#DDDDDD" stroke="#FFFFFF" stroke-linejoin="round" d="M253.76,155.3l1.84-6.82l0.23-0.31l0.39-0.02
		l-0.1,0.52l0.13,0.67l2.75,3.04l0.53,0.23l0.76-0.37l4.23-5.54l0.06-1.09l2.37-0.03l0.25,0.2l2.21,0.26l4.88-3.77l0.81-1.94
		l-0.5-0.62l5.71-3.01l1.78,0.85l-0.74,2.27l0.14,4.67l2.35,3.06l-1.52,3.43l-2.71,2.29l-0.24,3.27l0.85,2.42l3.7,2.64l0.38,0.08
		l0.48-0.06l-0.14,0.62l0.24,0.79l4.27,5.05l-0.15,0.01l-2.78,1.51l-0.44,0.53l-0.6,1.49l-0.43,0.38l-3.96-0.17l-7.38-6.85
		l-1.15,2.04l-0.18,0.91l-2.82,2.07l-0.42,0.03l-4.76-4.47l-2.61,2.33l-3.41-3.51l-0.07-0.59l-0.96-2.23l-0.83-0.85l0.31-5.04
		L253.76,155.3L253.76,155.3z"/>
	<path id="de-hb" fill="#DDDDDD" stroke="#FFFFFF" stroke-linejoin="round" d="M181.36,158.23l0.57-0.37l0.25-0.72l-0.1-1.12
		l-3.14-5.42l0.97-1.18l7.99,0.47l0.06,0.1l-1.07,4.97l0.9,3.88l-0.1,0.52l-2.56,2.71l-2-0.19l-0.32-0.2l-0.17-0.23l0.37-0.53
		l0.06-0.19v-0.19L181.36,158.23L181.36,158.23z M207.24,198.64l-2.06-2.16l-0.32-0.01l-1.15,0.73l-4.71-0.14l-8-3.98l-6.48-0.77
		l-7.51-4.05l-0.27-0.87l-0.01-0.68l0.2,2.04l1.46,2.49l6.77,3.37l1.98,6.03l3.36,3.41l0.12,3.24l1.03,0.98l0.31,0.07l1.42-0.51
		l1.35,0.01l8.46,3.07l3.25-2.78l-0.33-6.74l-0.79-1.23l0.08-0.13l2.12-0.81L207.24,198.64L207.24,198.64z"/>
	<path id="de-bb" fill="#DDDDDD" stroke="#FFFFFF" stroke-linejoin="round" d="M541.22,170.71l-0.21,2.05l1.06,3.29l1.48,0.11
		l0.4,1.42l-3.41,5.84l-0.52,0.24l-0.17,0.15l-0.48,3.06l0.41,1.7l1.04,1.35l-1.57,8.54l-7.94,7.82l-0.8,0.26l-3.59,2.84l-0.27,0.92
		l1.76,6.44l-0.1,1.31l-2,3.43l0.09,0.83l0.52,0.82l0.69,0.31l1.84,0.15l11.56,6.56l5.13,5.85l0.18,0.7l10.84,6.98l2.93,3.75
		l0.07,8.45l-2.63,4.3l-2.17,1.67l-0.74,4.01l1.3,2.16l1.9,8.53l1.34,1.47l6.28,1.44l1.59,2.07l-0.25,7.08l-1.43,2.22l0.29,2.92
		l0.72,1.28l0.72,0.67l1.35,0.25l1.02,0.65l1.36,1.93l-0.4,3.61l-1.83,3.27l0.13,0.07l0.27,0.6l-1.15,9.38l-6.15,7.17l0.08,1.76
		l1.02,1.57l0.17,0.12l1.02,0.3l3.35,7.4l4.83,4.19l1.24,2.06l0.5,4.22l-0.8,2.7l-0.89,1.36l-0.98-0.79l-0.82,0.76l-0.75,2.62
		l-0.63,0.78l-3.36,0.38l-0.95-0.17l-0.59-0.92L564,350.3l-2.21-0.86l-7.31,2.71l-0.13,0.36l0.09,0.92l-0.33-0.18l-3.44,0.44
		l-4.35,2.45l-11.31-1.64l-0.4,0.06l-5.05,13.04l-2.67,3.5l-10.64,1.5l-4.47,2.18l-3.61-0.48l-0.83-0.45l-0.34-0.43l-0.46,0.68
		l-5.3,0.15l-3.25-0.91l-9.97-7.25l-7.16,4.76l0.12,1.22l-2.22,0.61l-2.28-0.05l-0.43-1.03l-1.53-1.83l0.99-8.9l-3.83-9.01
		l-2.64-1.42l-0.52,0.63l-0.74,0.48l-0.58-0.32l-2.41-3.88l6.97-4.84l1.4-2.52l-0.04-0.62l-0.47-0.94l-0.75-0.68l-3.34-12.17
		l1.74-0.28l-0.16-1.23l-1.14-0.99l-0.9-0.04l0.06,0.67l-2.39,1.04l-2.52-0.23l-3.33-3.32l-4.88-2.59l-1.06,0.38l-2.94-0.63
		l-4.93-2.83l-0.48-1.44l-0.35-0.02l-6.09-3.2l-0.92,0.01l-0.44,0.59l-0.16,1.35l-1.82,1.29l-0.77,0.13l-15.76-6.26l-9.33-12.3
		l1.83-4.15l0.04-6.5l1.97-5.01l0.25-0.12l1.19-2.4l-1.24-7.93l1.75-4.1l-0.37-3.27l-5.55-1.92l-0.22,1.09l-0.32,0.47l-2.29,0.52
		l-2.73-3.24l2.72-9.5l0.83,0.14l1.63-1.19l0.39-4.26l-2.73-4.81l0.77-5.58l0.67-1.29l1.47-0.73l0.2-1.81l-1.33-5.17l-2.1-1.08
		l-4.1,1.73l-0.84-1.99l0.03-0.68l0.25-0.65l0.14-0.17l-0.74,0.69l-8.22,0.97l-9.45-3.37l-0.22-0.22l-0.26-0.5l-0.06-0.49l0.24-0.6
		l1.19-1.19l0.12-0.51l-0.13-0.54l-0.24-0.31l-6.18-3.44l-0.54-0.09l-0.17,0.03l-1.73,1.1l-0.31,0.08l-0.53-0.1l-4.03-3.24
		l-0.14-0.29l-0.05-0.38l0.05-0.31l0.96-1.32l0.02-0.2l-0.07-0.24l-0.44-0.31l-0.7-0.09l-1.65,0.61l-5.62-1.27l-2.8-2.71l-0.41-0.2
		l-3.35,0.68l-3,1.86l-0.69-0.03l-0.29-0.16l-4.14-4.46l-0.07-0.2l-0.04-1.79l5.62,0.33l2.76-2.18l3.38-0.4l0.8,0.59l0.03,0.26
		l3.81,0.65l0.86-0.6l0.97-3.52l-0.68-4.09l4.45-3.96l3.76,0.03l1.7,0.96l0.7,1.46l6.16-1.34l0.21-0.23l0.02-0.12l-1.23-2.21
		l8.22-2.06l4.14-2.92l0.37-0.5l-0.16-1.77l2.07-2.96l3.24,0.52l7.34-1.69l10.59,6.24l0.51,1.43l2.48,2.79l3.25-0.39l0.2-0.21
		l-0.04-0.52l1.77-0.38l8.46,0.86l5.85,5.72l0.38,0.69l1.17,0.13l1.99-0.75l0.02-0.15l0.08-0.06l1.78-0.58l7.29-0.2l0.68,0.2
		l0.04,0.04l0.23,0.68l-1.97,1.35l-0.27,0.41l0.01,0.06l0.15,0.13l2.07,0.89l0.16-0.02l0.3-0.16l7.44-8.04l2.26-1.1l2.11-0.28
		l1.36,2.96l0.18,0.2l1.49,0.22l0.49-0.87l0.41-3.17l2.18-2.08l1.1-0.52l3.52,0.05l0.21,0.11l0.39,0.54l0.19,1.09l1.08,1.63
		l0.36,0.1l0.7-0.31l6.94-7.96l-0.56-3.23l1.86-4.93l9.28-8.56l2.69-0.2l2.75-2.43l-1.37-1.24l0.15-3.96l0.36-0.63l0.52-0.13l5,5.79
		l2.45,6.46l1.62,0.66l10.55-0.56l0.72-1.4l6.33,0.39l0.73,0.49l0.42,0.69l0.22,3.38l-2.1,5.08l-5.66,6.78l-0.28,1.7l10.26-0.33
		l2.02-2.83l0.78-2.73l5.02-2.12L541.22,170.71L541.22,170.71z M482.23,243.81l-1.28,1.92l-1.29,0.71l-8.38-0.13l-1.16,2.34
		l0.14,0.31l0.98,1.04l0.02,0.14l-0.06,0.38l-1.59-0.18l-1.74-0.83l-0.52,0.15l-1.67,1.12l-0.41,7.16l1.62-0.32l1.57,1.12
		l-2.23,2.93l-0.42,0.31l-0.74,1.23v1.52l0.85,1.23l-1.1,1.56l-0.99,0.54l0.17,0.77l2.29,1.48l2.63,0.07l-0.55-0.12l0.09-0.64
		l3.8-1.99l1.4-0.14l3.37,0.72l0.99,1.3l1.9-0.95l2.95,2.89l2,0.15l-0.2-3.4l0.1-0.1l2.88-1.26l0.75,1.85l12.11,3.47l1.6-0.55
		l0.39-0.7l0.05-0.36l-0.15-0.35l-0.24-0.01L501.6,270l0.02-0.25l1.81-1.51l1.49-4.18l-1.54-1.6l-0.9-0.06l-2.54-1.66l-1.6-0.46
		l-10.58-19.1l-0.88-0.47l-0.8,0.61l-1.62,3.39l-0.59,0.18L482.23,243.81L482.23,243.81z"/>
	<path id="de-be" fill="#DDDDDD" stroke="#FFFFFF" stroke-linejoin="round" d="M482.23,243.81l1.61,1.06l0.6-0.18l1.62-3.39
		l0.81-0.61l0.88,0.47l10.59,19.1l1.6,0.46l2.54,1.66l0.9,0.06l1.54,1.6l-1.49,4.19l-1.81,1.51l-0.01,0.25l0.75,0.17l0.15,0.35
		l-0.05,0.36l-0.4,0.7l-1.58,0.55l-12.11-3.47l-0.75-1.85l-2.88,1.26l-0.1,0.1l0.2,3.39l-2-0.15l-2.94-2.89l-1.9,0.95l-0.99-1.3
		l-4.56-0.64l-4,2.04l-0.08,0.65l0.54,0.12l-2.62-0.07l-2.29-1.48l-0.17-0.77l0.99-0.54l1.1-1.56l-0.84-1.23v-1.52l0.73-1.23
		l0.42-0.31l2.25-2.93l-1.58-1.12l-1.62,0.32l0.41-7.16l1.67-1.12l0.52-0.15l1.74,0.83l1.6,0.18l0.06-0.38l-0.02-0.14l-0.98-1.04
		l-0.15-0.31l1.16-2.33l8.39,0.13l1.3-0.71L482.23,243.81L482.23,243.81z"/>
	<path id="de-by" fill="#DDDDDD" stroke="#FFFFFF" stroke-linejoin="round" d="M396.09,474.99l0.92,0.19l3.25,3.28l-0.57,3.91
		l0.4,0.3l7.62,2.26l1.96,2.12l1.2,2.65l-0.12,0.28l-0.73,0.57l-0.95,0.23l-1.38,1.61l0.15,0.31l5.92,4.28l2.41,3.79l-0.26,0.96
		l-0.67,0.68l-0.34,1.49l0.44,2.81l0.09,0.19l0.55,0.62l0.08,0.05l0.69-0.22l0.52,0.14l2.56,2.38l-0.32,2.06l3.85,0.6l7.42,5.78
		l2.67,0.2l1.42,0.77l3.43,5.74l-0.06,3.49l-0.89,0.96l-2.82,5.92l-0.46,4.03l-4.26,2.94l-0.04,0.27l0.4,1.59l2.54,3.61l5.32,1.61
		l1.17,6.98l3.71,7.31l0.41,0.34l-0.34,0.39l2.17,1.04l0.54,0.05l0.13-0.42l0.1-0.1l0.3,0.02l0.39,0.68l0.25,4.07l-0.04,0.12
		l-0.61,0.81l1.73,2.58l6.85,5.42l0.31,1.27l-0.18,0.75l1.5,2.75l7.3,1.33l0.13-0.09l-0.2-0.57l-0.37-0.45l-0.08-0.71l4.69,0.58
		l15.2,16.77l0.35,0.01l0.07,2.99l4.55,2.89l3.1-0.84l8.09,7.47l1.66,6.55l5.48,3.67l0.2,0.03l0.64-0.13l-0.21-2.76l1.48-0.56
		l3.44,0.15l4.05,4.48l1.41,3.19l1.15,1.32l0.35,0.14l2.71-0.09l0.31-0.16l0.4-0.4l0.6,0.02l7.07,11.18l-2.16,5.98l1.31,2.27
		l1.22,7.35l-1.33,4.54l-4.8,6.63l-15-7.28l-0.53,1.95l-1.85,1.77l-2.47,0.88l0.82,1.02l0.69,2.69l-1.82,5.6l0.03,0.56l0.91,1.72
		l-1.52,6.15l-10.32,9l-5.45,0.14l-3.32,1.8l-3.14,0.22l-4.27,2.35l-3.7,4.77l-0.79,0.43l-5.24,0.71l-0.28,0.2l-0.22,0.31
		l-0.08,0.88l-2.1,3.64l-5.38,4.65l0.78,3.6l7.03,6.73l1.21,4.34l0.26,0.25l2.89,0.65l6.2,10.09l0.25,0.93l-6.4,12.38l-0.02,0.19
		l0.07,0.21l1.41,1.23l4.32,0.18l1-0.65l0.16-0.2l0.07-0.17l-0.07-0.11l0.23-0.44l0.16-0.07l0.48-0.04l2.25,1.16l3.74,7.59
		l-0.18,0.75l-3.43,4.72l-0.64,5.3l0.45,0.44l0.33,0.11l0.3,0.24l0.09,0.25l0.13,3.01l-2.73,2.97l-0.2,0.1l-14.92-9.02l-1.12-2.22
		l0.85-2.26l0.97-1.04l-2.68-5.57l-5.33-1.51l-6.29,1.15l-1.42,2.68l-4.83,2.47l-0.92,0.05l-4.23-4.9l-0.12-0.26l-7.03-1.24
		l-0.22-0.17l0.16-0.46l-4.79,1.81l-1.16-3.56l0.81-1.74l-0.14-0.46l-0.44-0.6l-0.51,0.19l-4.3,4.21l-0.14,3.47l1.96,5.7l-0.06,0.25
		l-0.13,0.2l-0.16,0.1l-8.35-0.12l-1.54-0.89l-10.32,0.87l-3.22,1.25l-1.18,2.04l-0.21,0.13l-14.72-0.83l-1.77,1.14l-1.26,2.62
		l-0.11,1.53l0.11,0.27l0.05,1.4l-1,1.1l-4.61,1.1l-4.11-0.52l-0.48-0.59l-0.47,0.28l-1.37,1.58l-0.17,0.38l-7.17,6.8l-1.46,2.87
		l-0.99,0.53l-3.14,0.28l-0.17-0.2l0.1-0.43l1.1-1.89l0.9-0.85l-0.19-0.39l-0.15-0.1l-3.03-0.08l-8.53,4l-5.97,0.23l-1.82-0.53
		l-0.13-1.21l0.15-0.48l0.09-0.1l0.59-0.11l0.29-0.25l-0.11-0.93l-3.9-4.25l-3.97-0.96l-0.14-0.4l0.05-1.35l2.41-1.93l-1.36-1.98
		l-6.09,1.78l-7.25-2.44l-0.24-0.95l0.06-0.19l-0.09-0.27l-6.29-0.94l-1.26,1.88l-0.01,0.17l-0.62,1.45l-5.85-0.6l-2.45-1.6
		l1.07-1.41l0.18-1.82l-2.6,0.38l-0.39,0.66l0.13,7.57l0.66,1.75l0.16,0.18l0.2,0.06l0.42-0.16l0.65,0.32l0.48,0.55l0.41,4.67
		l-8.84,11.56l-4.47,3.29l-7.22,1.82l-0.29-0.01l-0.15-0.9l4.51-9.72l-0.06-0.85l-0.49-0.65l-3.31-0.4l-0.86,0.67l0.01,1.48
		l-0.26,0.25l-4.59,1.46l-1.57-5.02l0.55-1.08l0.6-0.26l0.81-1.21l-3.68-4.89l-2.06-0.84l-1.4,0.25l-0.14-0.05l-2.5-4l0.2-2.57
		l-3.16,1.7l-3.36,0.1l-4.07-1.94l-0.04-0.21l0.15-0.38l0.13-0.11l0.14-0.04l0.35-0.55l0.11-1.9l-0.26-0.85l-1.47-0.9l-1.77,0.03
		l-0.81,0.63l-3.14,4.37l-7.88-3.08l-0.32-0.85l3.89-2.85l2.36,0.19l0.05,0.37l0.11,0.22l0.25,0.19l0.42,0.14l3.12-0.15l5.58-5.72
		l10.24-0.35l1.59-2.07l0.16-0.08l1.34-0.22l2.59,0.5l0.36,0.6l0.9,3.65l-0.07-0.31l0.42-1.15l1-1.22l0.44-0.25l0.89,0.15l1.1-1.02
		l0.69-2.84l-2.55-6.23l-0.05-3.7l1.01-0.02l1.33-1.19l-0.27-0.78l-0.45-0.3l-1.05-1.73l-0.02-9.97l-1.14-0.79l-0.46-0.67
		l-0.15-0.61l0.16-1.04l0.31-0.42l0.26-0.16l1.38-0.3l0.3-2.89l0.96-1.24l0.19-9.48L278,712.5l-3.21-16.14l-4.64-6.94l-0.39-2
		l2.88-5.99l0.29-1.71l-0.16-0.71l-0.32-0.48l1.59-0.13l3.3-1.89l2.1,2.08l2.29-0.48l4.75-4.19l-0.44-1.07l1.79-0.92l0.48-0.07
		l0.94,0.41l1.23-0.08l1.07-0.62l-0.93-10.25l-3.06-4.25l0.95-4.01l4.67,1.48l6.39-1.12l0.49,0.44l0.06,0.31l-0.99,2.17l-0.43,0.31
		l-0.1,0.19l0.05,0.23l0.03,0.02l3.2-0.74l1.8-2.05l-0.32-0.64l-0.22,0.01l-0.63-0.62l-0.75-3.42l-2.54-0.83l-0.21,0.03l-0.26-3.27
		l0.69-0.3l1.23-3.2l0.1-13.18l-1.88-2.07l-0.87-2.32l-10.28-6.22l-0.15-1.74h0.15l0.42-0.2l-1.33-6.67l-2.07-3.75l-5.81-3.27
		l-0.29-0.35l0.18-6.4l0.96-2.7l-2.64-5.82l0.3-3.53l0.32-0.63l2.28-0.07l0.68-0.31l0.34-0.67l-2.94-7.89l-0.14-0.06l-1.01-1.32
		l-0.05-0.62l0.26-0.67l0.39-0.37l-1.77-4.24l-1.13-0.21l-0.34,0.1l-1.52,1.45l-0.05,0.09l0.9,0.92l0.63,0.15l-2.88,3.55l-0.36,0.13
		l-4.05,0.25l-1.72-0.46l-0.81-0.81l0.14-0.68l0.41-0.43l0.2-0.52v-5.28l-0.84-2.63l-0.26-0.06l-0.75,0.09l-1.72-2.7l-2.6-9.35
		l-2.4-2.4l-9.38,3.84l-1.44-0.79l-0.5-0.73l0.38-1.38l0.66-0.36l0.55-7.27l-1.22,0.56l-4.41,4.21l-0.23-0.01l-3.11-2.03l-0.29-0.61
		l0.22-1.23l-0.08-0.2l-0.5-0.46l-0.23-0.06l-1.3,0.14l-1.24,1.74l-1.24-0.51l-8.25,0.57l-0.27,0.12l-0.13,0.24l0.48,2.43l2.39,3.88
		l1.67-0.06l0.04-1.63l-0.15-0.53l0.35-0.57l0.91,0.23l1.47,3.45l-0.76,3.31l0.53,0.5l-0.21,0.54l-0.68,0.84l-1.48,0.27l-5.31-1.18
		l-1.95,2.95l0.57,0.8l0.07,0.23l-2.42,3.08l-3.65,1.07l-5.15-0.05l-0.97-0.38l-0.89-1.64l2.18-10.69l0.5-0.24l1.62-4.32l-1.18-5.31
		l-0.18-0.13l-1.4-0.26l-4.62-4.64l-0.25-2.46l0.21-0.05l0.91,0.11l-0.81-1.17l-1.05-11.2l-0.35-0.48l1.58-0.89l-0.36-3.89
		l-0.14-0.27l-0.32-0.27l-0.65-0.22l-0.88,0.04l-1.29-1.12l1.12-3.79l1.25-1.8l0.13-0.1l13.47-3.7l10.01,1.98l0.11,0.13l1.86,4.31
		l0.54,0.43l6.65-1.07l0.4-1.18l-0.99-10.54l1.19-2.53l4.14,1.15l2.37-0.12l0.13-0.11l2.16-4.79l1.71-0.61h0.68l0.82-0.31l2.38-2.22
		l0.54-1.19v-2.75l-0.94-1.56l0.68-0.63l1.07-4.06l3.56-1.04l3,1.53l2.74-0.68l8.42-7.8l0.77-2.97l-0.04-0.76l0.65-0.26l2.8-2.99
		l7.18-0.66l3.29,4.38l4.67,1.95l1.05,0.97l2.43,5.15l0.41,3l0.54,0.75l2.02,0.22l1.82-0.87l0.55,2.2l2.28,2.5l7.04,2.2l-0.61,6.38
		l1.27,4.49l7.06,2.37l0.27-0.04l0.19-0.09l0.45-0.76l-0.14-1.75l-0.15-0.06l-0.04-1.7l0.07-0.21l0.29-0.22l6.12,1.37l0.69-0.18
		l0.69-0.46l0.14-0.18l0.22-0.6l-0.05-1.37l-0.41-0.53l-2.65-0.93l-5.87-4.2l-0.27-3.43l0.21-0.94l7.52-3.07h6.99l3.03,4.06
		l3.99,0.69l2.53-0.98l0.38-1.15l0.12-0.11l1.64-0.16l1.62,1.36l1.36,2.37l-0.04,0.61l-0.42,0.14l-1.3,1.18l-0.1,0.58l0.13,0.59
		l2.9,3.15l0.82-0.03l1.04-2.04l3.11-0.51l2-6.87l-1.5-8.45l-1.13-0.64l-0.12-2.34l0.15-0.63l0.23-0.25l0.43-0.15l0.45,0.15
		l0.1,0.16l3.71-2.47l0.23-0.75l1.08-1.15l1.75-0.27l3.48,0.67l0.27,0.22l0.9,1.3v0.15l-0.34,0.79l-0.44-0.01l-0.44,0.65l-0.03,4.24
		l0.1,0.18l1.98,1.17l1.75-0.21l1.21,3.38l1.68,1.87l0.59,0.28l1.89-0.58l0.44-0.41l0.18-0.98l0.16-0.25l0.16-0.1l1.31-0.28
		l1.96,1.59L396.09,474.99L396.09,474.99z"/>
	<path id="de-bw" fill="#DDDDDD" stroke="#FFFFFF" stroke-linejoin="round" d="M210.43,563.14l1.17,0.41l8.02-0.72l0.58-0.33
		l2.42-3.08l-0.07-0.23l-0.57-0.81l1.95-2.94l5.31,1.18l1.48-0.27l0.68-0.84l0.21-0.54l-0.53-0.5l0.76-3.31l-1.47-3.45l-0.91-0.23
		l-0.35,0.56l0.15,0.53l-0.04,1.63l-1.67,0.07l-2.39-3.88l-0.48-2.43l0.13-0.24l0.26-0.12l8.26-0.57l1.24,0.51l1.24-1.74l1.3-0.15
		l0.23,0.06l0.5,0.46l0.08,0.2l-0.22,1.23l0.29,0.61l3.12,2.04l0.23,0.01l4.41-4.21l1.22-0.57l-0.54,7.27l-0.66,0.36l-0.38,1.4
		l0.5,0.73l1.44,0.78l9.38-3.84l2.4,2.4l2.6,9.36l1.72,2.71l0.76-0.09l0.26,0.06l1,3.7l-0.19,4.31l-0.17,0.39l-0.41,0.44l-0.14,0.67
		l1,0.92l1.53,0.35l4.05-0.25l0.36-0.13l2.88-3.55l-0.63-0.15l-0.9-0.92l0.05-0.09l1.52-1.45l0.34-0.1l1.13,0.21l1.77,4.25
		l-0.39,0.37l-0.26,0.66l0.05,0.62l1.01,1.32l0.15,0.05l2.95,7.89l-0.34,0.67l-0.68,0.31l-2.29,0.07l-0.32,0.62l-0.26,3.82
		l2.61,5.53l-0.96,2.71l-0.18,6.4l0.29,0.35l5.81,3.28l2.07,3.74l1.33,6.67l-0.43,0.2h-0.15l0.15,1.74l10.29,6.22l0.87,2.32
		l1.88,2.08l-0.12,13.23l-1.21,3.14l-0.69,0.29l0.26,3.28l0.21-0.02l2.54,0.83l0.75,3.43l0.63,0.61l0.22-0.01l0.32,0.63l-1.8,2.06
		l-3.19,0.74l-0.03-0.02l-0.05-0.24l0.11-0.19l0.43-0.31l0.99-2.17l-0.05-0.31l-0.5-0.43l-6.39,1.12l-4.67-1.48l-0.9,2.66
		l-0.05,1.34l3.06,4.25l0.93,10.25l-1.07,0.62l-1.23,0.08l-0.94-0.41l-2.28,0.98l0.44,1.07l-4.75,4.18l-2.3,0.48l-2.1-2.08
		l-3.31,1.88l-1.59,0.13l0.32,0.48l0.16,0.71l-0.29,1.71l-2.88,5.99l0.39,2l4.64,6.94l3.13,16.01l1.76,1.81l-0.2,9.48l-0.96,1.24
		l-0.3,2.9l-1.38,0.3l-0.43,0.34l-0.14,0.24l-0.16,1.04l0.36,1.01l1.39,1.07l0.02,9.98l1.05,1.74l0.45,0.3l0.27,0.78l-1.33,1.19
		l-1.01,0.02l0.05,3.7l2.55,6.24l-0.69,2.84l-1.1,1.03l-0.89-0.15l-0.44,0.25l-0.87,1.15l-0.42,1.15l0.07,0.3l-0.9-3.65l-0.36-0.6
		l-2.59-0.51l-1.34,0.23l-0.16,0.08l-1.59,2.06l-10.24,0.36l-5.59,5.72l-3.12,0.15l-0.42-0.14l-0.25-0.19l-0.11-0.22l-0.05-0.37
		l-2.36-0.19l-3.89,2.86l-2.92-0.08l-0.66-0.34l-1.43-1.56l-1.98-4.43l-0.59-0.48l-5.89-1.84l-2.57,0.27l-1.04,0.46l-0.36-0.02
		l-7.69-5.23l-0.71-1.4l-0.14-0.86l0.1-0.18l-0.03-0.37l-0.05-0.1l-10.63-7.05l-0.36-0.61l-0.29-0.22l-1.52-0.26l-0.61,1.12
		l-0.01,0.13l7.22,6.05l0.13,0.03l0.84-0.05l1.66,1.38l2.98,7.04l-1.59,0.96l-1.36,0.22l-10.69-3.47l-8.62,3.87h-0.21l-5.85-4.75
		l-1,1.82l-0.28,0.04l-4.4-1.9l-1.09-3.85l0.24-0.87l0.64-0.72l-1.14-1.87l-1.62-1.42l-2.33-0.75l0.25,1.13l-0.59,0.91l-0.93,0.6
		l-0.27-0.12l-0.56-0.85l-0.32-3.44l-2.81-0.56l-0.76,1.07l-0.42,1.22l-4.72,0.97l-5.48,7.98l-0.49,2.02l0.02,0.15l0.42,0.73
		l4.18,2.97l3.91-1.61l-0.14-0.59l1.76-0.84l3.77-0.27l1.48,2.02l0.02,0.31l-1.89,4.01l-1.43,1.45l-1.04-0.17l-0.25-0.54l0.2-0.72
		l0.25-0.1l0.09-0.17l-0.05-0.27l-0.87-1.01l-2.47-0.94l-3.75,2.96l1.73,2.24l0.02,0.12l-4.43,1.43l-7.04-0.6l-0.4-0.21l-1.8-1.74
		l-0.14-0.33l0.19-1.27l-0.03-0.12l-0.21-0.21l-6.16-1.47l-7.03,4.08l-0.15,0.23l-0.16,1.11l-0.19,0.41l-0.44,0.35l-4.87,0.7
		l-7.71-2.29l-1.21-1.72l-0.61-0.2l-3.55,0.13l-1.43,1.42l-0.19,0.4l-1.03,1.1l-7.31,2.35l-0.83-0.06l-0.77-0.31l-2.07-2.55
		l0.25-0.14l0.48,0.15l2.49-1.02l-0.52-2.22l-5.79-1.52l-4.55-6l-0.66-3.62l0.09-0.4l1.95-1.7l0.52-1l0.13-1.06l-1.11-3.43v-1.25
		l2.48-6.1v-1.1l-0.42-1.33l0.13-1.22l4.77-9.43l-0.32-1.89l-3.02-4.31l-0.08-0.3l0.85-8.73l6.59-10.46l1.78-7.41l0.62-0.96
		l2.64-1.26l0.36-0.4l0.25-0.69l-0.81-5.69l5.57-13.55l-0.2-6.77l3.23-6.13l2.67-1.33l5.28-5.89l0.89-3.95l0.15-0.15l3.38-0.86
		l4.25-3.16l8.19-16.05l2.3-0.81l3.47-2.73l2.05-6.03l3.2-4.34l2.59-10.81l-0.16-1.8l-0.27,0.04l-0.02-0.04l0.23-1.32l5.39-5.09
		l1.36-0.7l0.1-0.21l0.05-0.43l-0.12-0.54l-0.78-0.83l-1.24-0.49l-0.19-0.22l-0.14-0.38v-0.63l0.35-0.64l1.91-1.66l0.97-1.71
		l0.06-4.65l0.78-2.09l0.01-0.32l-0.1-0.32l-0.35-0.4l-0.91-0.26l-1.66,0.06l-0.81-0.21l-0.42-0.4l-0.13-0.24l-0.01-0.36l0.12-0.31
		l0.46-0.41l-2.18-9.76l0.15-0.92l0.4-0.7l0.08-1.14l1.2-0.59l0.59-0.1l1,0.12l4.04,4.36l0.38,1.18l0.63,0.86l1.67,0.96l0.94-0.04
		l1.73-1.36l0.67-1.09l0.1-1.05l-0.9-4.06l-0.63,0.1l-0.21-0.39l-0.04-0.81l0.3-0.6l5.64-1.47l0.97,0.22l0.13,0.48l-0.62,1.11
		l-0.43-0.16l-0.1-0.19l-0.36,0.2l1.87,7.64l3.76,2.02l9.35,1.44l-0.16,0.65l0.2,1.25l-2.33,2.1l-2.31,0.8l-2.14,4.61l0.3,0.85
		l0.59,0.65l2.35,0.18l0.13-0.03l6.73-6.1l-1.29-1.53l0.58-1.35l2.63-2.57l5.88-1.93l1.14,0.27l1.48,1.72l0.91-0.24l0.3-0.42
		l0.01-0.42l-0.57-1.39l-1.96-1.12l0.54-0.43l0.54-1.2l-0.09-0.09L210.43,563.14L210.43,563.14z M181.26,755.81l-0.73-1.88
		l-0.23-0.2l-2.55,0.15l0.22,2.19l0.64,0.52l2.77-0.3L181.26,755.81L181.26,755.81z"/>
</g>
</svg>
