<svg version="1.1"
	 id="landmarks-russia" xmlns:svg="http://www.w3.org/2000/svg"
	 xmlns="http://www.w3.org/2000/svg" xmlns:xlink="http://www.w3.org/1999/xlink" x="0px" y="0px" width="1100px" height="640px"
	 viewBox="0 0 1100 640" enable-background="new 0 0 1100 640" xml:space="preserve">
<polygon id="PSK" fill="#DDDDDD" stroke="#FFFFFF" points="102.7,341.2 104.9,344 105.9,341.1 108.3,341.1 109.3,339.4 110.2,337.4 
	110.5,333.9 112,332.4 112.3,330.3 114.8,328.1 113.4,326.7 114.8,325.4 116.3,324.6 116.3,322.3 117.7,321.5 119.3,319.9 
	121.6,318.9 122.3,316.5 120.6,315.2 120,313.8 121.3,312.6 121.3,310.5 122.5,309.2 125.3,309 124.6,305.7 125.5,302.7 
	124.4,300.3 124.3,297.9 122.1,295.7 123.2,293.5 121.2,291.1 117.3,291 114.5,294.8 111,296.1 110.8,298.6 109,300.8 104.8,301 
	103.2,303 103.2,306.5 99.2,309 96.5,309.6 97.3,312.6 95.5,316 92.3,319.1 91.8,321.5 93.3,324.8 95.7,327.1 94.8,329.8 
	93.8,332.3 97,333.1 99.8,335.8 99.8,341.5 102.7,341.2 "/>
<polygon id="SMO" fill="#DDDDDD" stroke="#FFFFFF" points="96.7,344.1 95.5,346.6 92.2,347.6 90.8,351.3 89,355.6 88,359.6 
	88.2,362.5 86.5,363.6 89,366.1 88,369.8 87.2,373.1 89.7,374.5 89.7,377.4 91.2,375.8 92.9,373.1 95.1,373.3 97.6,372 99.8,371.5 
	102.3,369.1 104.5,369.1 106.2,370.8 106.7,372.8 109.1,373 109.9,372.2 111.3,372.6 113.7,374.5 115.5,373 117.8,373 120.9,372.4 
	122.1,370.5 124.3,368.3 127.3,367 128.2,364.3 127.3,362.5 125.3,361 124.1,358.5 122.8,357.1 122.8,355.4 119.9,354.6 
	117.3,355.4 114,354.5 112.4,352.9 109.9,351.5 108,349.6 107.4,346.2 105.2,345 104.9,344 102.7,341.2 99.8,341.5 96.7,344.1 "/>
<polygon id="BRY" fill="#DDDDDD" stroke="#FFFFFF" points="84,374.1 80.7,373 79.7,370.5 77.8,368.5 75.3,368.6 74.5,371.6 
	72.3,374.1 69.2,377.3 67.7,380 69.2,382.5 70.9,384.2 73.2,382.3 74.7,384.5 76.5,386.5 79,386.8 80.8,388.6 82.2,392 81.8,394.6 
	80.7,399.1 82.5,399.2 83.7,397.5 86.1,396.7 87.5,397.8 89.6,397.8 91.4,396 93.2,396 93.6,394.5 93.1,393 94.7,392.4 96.5,392.4 
	97.9,393.7 98.8,392.8 99.3,390.7 100.3,389.7 100,387.3 98.4,385.7 98.4,383.7 99.6,382.4 99.6,380 100.3,377.5 99,376.2 
	99.2,374.5 97.6,372 95.1,373.3 92.9,373.1 91.2,375.8 89.7,377.4 89.7,374.5 87.2,373.1 84,374.1 "/>
<polygon id="KRS" fill="#DDDDDD" stroke="#FFFFFF" points="78.2,414 78.2,410.5 76.3,407.1 74.5,404.3 76.2,403 77.2,400.5 
	79.2,400.5 80.7,399.1 82.5,399.2 83.7,397.5 86.1,396.7 87.5,397.8 89.6,397.8 90.5,399.2 92.3,399.9 93.5,400.9 93.5,403.6 
	95.4,404.1 95.9,405.7 97.7,406.5 98.2,410.2 100,413.3 100.6,417.1 102.4,417.5 103.8,418.8 103.8,421.6 105.9,422 108.2,423.5 
	106.2,425.5 103.7,424.6 102.1,426.3 102.1,428.7 100.3,429.5 99.6,426.9 97,424.4 93.3,422 90.9,422.5 86.3,421.6 86.3,419.8 
	83.9,417.2 82.8,418.4 79.9,418.4 76.5,417.6 78.2,414 "/>
<polygon id="BEL" fill="#DDDDDD" stroke="#FFFFFF" points="91.8,450.5 90.8,446.6 88.3,445.1 85.7,442.1 86.7,438.6 85.7,433.5 
	82.5,431.1 78.8,428.3 77.7,424.5 75.2,422.5 74.3,420.1 76.5,417.6 79.9,418.4 82.8,418.4 83.9,417.2 86.3,419.8 86.3,421.6 
	90.9,422.5 93.3,422 97,424.4 99.6,426.9 100.3,429.5 101,431.7 99.5,432.9 101.6,435 100.3,437.4 98.6,437.4 98.6,440.7 
	99.2,443.1 96.6,444.4 96.6,447.3 94.7,447.4 95.2,449.5 92.3,451 91.8,450.5 "/>
<polygon id="VOR" fill="#DDDDDD" stroke="#FFFFFF" points="92.3,451 95.2,449.5 94.7,447.4 96.6,447.3 96.6,444.4 99.2,443.1 
	98.6,440.7 98.6,437.4 100.3,437.4 101.6,435 100.4,433.7 99.5,432.9 101,431.7 100.3,429.5 102.1,428.7 102.1,426.3 103.7,424.6 
	106.2,425.5 108.2,423.5 111.1,423.9 112.4,426.5 115.4,427.5 114.8,430.5 116.8,432.5 119.4,432.8 121.8,436.1 123.5,437.7 
	122.6,440.3 124.6,442.3 127.8,443.6 128.9,445.7 130.8,447.6 131.8,450.9 133.2,454.3 131.9,455.5 128.6,455.5 126,454.1 
	125.4,452.3 123,451.8 120.7,453.9 115.9,453.9 114.7,457.9 110.8,461.8 106.5,461.8 105,463.3 102.7,463.3 101.5,461.7 98.6,461.7 
	98.6,459.6 97.3,458.3 94.5,457 94.5,453.5 92.3,451 "/>
<polygon id="KC" fill="#DDDDDD" stroke="#FFFFFF" points="55.3,544.3 52.8,543.1 49.2,540.6 48,536.6 45.5,532.8 44.7,529.5 
	46.7,527.4 49.1,527.1 50.7,525.4 52.4,525.4 53.3,527.4 54.8,529.6 58,529.6 60.5,526.4 62.5,527.1 62.5,529.7 64.3,530.9 
	64.8,533 65.7,534.4 62.8,534.4 61.9,535.9 63.3,537.2 64.1,538.7 63.2,540.7 60.9,541.7 59.3,541.5 57.3,543.5 55.3,544.3 "/>
<polygon id="SE" fill="#DDDDDD" stroke="#FFFFFF" points="61.3,556 62,561.3 64.3,563.6 68,564.1 70.1,566.2 70.7,568 72.3,565.3 
	74.8,565.3 75,563.5 74.3,560.9 75,557 77.3,556.1 80.7,556.2 80,553.4 76.8,550.5 75.5,551.6 75.5,553.6 74.3,554.8 71.3,555 
	70.3,556 68.6,554.6 66.5,554.6 65,555.5 63.6,555.2 61.3,556 "/>
<polygon id="IN" fill="#DDDDDD" stroke="#FFFFFF" points="80.4,562.9 78.8,566.3 76.9,569.5 74.3,571.3 73.5,568.3 70.7,568 
	72.3,565.3 74.8,565.3 75,563.5 74.3,560.9 75,557 77.3,556.1 78.4,558.3 81.1,560.3 80.4,562.9 "/>
<polygon id="DA" fill="#DDDDDD" stroke="#FFFFFF" points="104.6,555.2 102.9,557 102.9,559.7 104.7,561.5 105.7,564.6 104.8,567.8 
	104.1,570.7 102.2,572.6 102.2,573.8 100.5,575.3 96.8,581.3 96.8,586 97.8,591.6 97.2,596 97.5,601.3 93.5,603.1 90.8,602 
	87,603.3 83.3,602.5 82.8,599.3 81,593.8 80.7,589.8 78,588 78,585.8 76.7,582.3 74.3,579.3 75.8,576.8 78.7,576.4 80.5,575 
	83.3,575.2 85,573.9 87.8,575.5 88.8,571.6 91.7,568.1 94.8,566.4 96.5,565.8 96.2,562 92.8,561.7 90.9,559.2 88.5,556.6 89.5,554 
	87.8,553.1 87.8,551.7 89.8,551.7 91,550.6 90.2,549.2 91.5,548 93.7,548.7 96.2,547.9 98.8,546.2 101.1,547.8 102.2,549.6 
	104,550.2 104.8,552.3 104.6,555.2 "/>
<polygon id="KL" fill="#DDDDDD" stroke="#FFFFFF" points="106.7,555.8 110.2,554.8 113.3,554.8 116.2,551.5 118.5,550.5 
	118.5,548.1 116.7,546.9 114.4,546.8 113.9,545.5 119.4,541.7 119.4,540.1 118.3,539.1 118.3,537.1 117.1,535.4 118.4,534.1 
	120.3,534.9 120.6,536.2 121.8,536.2 122.1,534.1 125.6,534.4 126.7,531.7 125,530 126.2,525.8 128.1,524.7 128.6,522.8 129,520.7 
	125.3,520.6 123.7,518.4 123.4,515.2 123.9,512.7 124.4,509.9 122.4,508.6 121.5,505.3 118.5,504.6 116.7,502.9 116.7,500.8 
	115.1,500.2 113.9,503.5 112.2,504.2 110.5,502.5 108.5,503.3 106.7,501.5 103.7,504.2 103.7,507.8 105.8,507.9 108.3,506.6 
	108.3,509.1 106.6,512.4 103.2,514.9 99.4,514.9 95.9,518.6 93.9,518.1 93.1,518.9 91.3,518.2 90,516.9 88.8,511.9 86.8,511.4 
	85.2,509.8 85.2,507.6 84.3,505.2 82.4,505.2 82.4,506.9 81.2,508.1 78.1,508.1 76.5,506.9 74.4,508.6 76.3,509.6 77,511.7 
	78.7,511.7 80.1,511.2 80.8,513.4 82.2,514.8 85.1,514.2 87,515 87.3,517.5 88.9,519.3 89.4,521.4 91,523 92.1,526 90.9,528.2 
	92.2,530.5 93.9,532.2 95.2,534 95.2,536 97,537.7 97.4,540.3 98.8,542.4 98.8,546.2 101.1,547.8 102.2,549.6 104,550.2 
	104.8,552.3 104.6,555.2 106.7,555.8 "/>
<polygon id="ORE" fill="#DDDDDD" stroke="#FFFFFF" points="270,531 271.1,533.4 273.4,535.7 275,537.3 275.7,540.1 278,542.5 
	275.7,545.6 273.5,547.8 269.8,547.8 266.1,548 264.2,546.1 262.8,543.4 261.1,543.4 259.3,545.2 256.4,545.2 253.2,542 
	252.5,540.1 250.1,537.6 250.1,533.4 248,531.3 244.2,531.3 241,532.5 239.8,530 236.7,527.5 233.8,526 230,527.8 226.5,528.3 
	223.7,527.5 221.7,523.6 218.8,521.1 216.8,524.5 214.7,524.5 214.7,521.8 216.7,519.8 215.3,517 213.7,512.6 213,508.1 
	210.5,505.1 206.5,503.6 205.3,500.8 203.2,498.6 199.2,499.3 196.8,499.3 196.8,496.1 195.7,492.8 195.8,490.9 201.7,490.9 
	203.4,487.4 206.6,485.1 208.5,485.6 209.5,483.4 214,482.6 216.3,477.3 220.1,475.2 223,472.3 224.1,467.6 226.8,467.6 
	229.6,470.4 227.7,472.4 229.4,474 230.4,475.8 230.3,480.1 231.5,481.4 230.6,486 232.5,487.2 234.7,489.4 236.1,493.1 
	236.1,496.7 237.2,499 236.3,501.3 236.3,504.5 235.6,506.1 237.5,507.2 239.3,505.5 242.1,505.5 243.1,507.3 242.1,509.8 
	239.4,510.9 240,512.2 241.8,512.6 241.3,515.9 240.2,517 240.8,519.5 242.4,519.5 242.7,521 244.7,523 246.7,522 248.2,520.5 
	249.9,521.4 250.6,523.1 252.3,524.4 254.5,525 256.6,523.3 258,520 260.7,520 263.9,520 265.9,519.3 268.6,520.5 270.3,520.5 
	271.4,522.6 270.6,524.7 267.5,526.2 267.7,528.3 269.5,528.3 270,531 "/>
<polygon id="CHE" fill="#DDDDDD" stroke="#FFFFFF" points="305.5,510.3 301.3,509.5 298.3,510.3 295.7,508 291.8,506 288.3,506 
	287.2,509.6 288.3,512.1 286,514.5 287.8,515.6 289.7,517.5 291.9,519.7 289.8,521.8 287.5,521.8 284.7,519 280.3,519.1 
	277.5,520.3 278.7,524.5 277.5,527.5 274.7,528.3 271.3,527.5 270,531 269.5,528.3 267.7,528.3 267.5,526.2 270.6,524.7 
	271.4,522.6 270.3,520.5 268.6,520.5 265.9,519.3 263.9,520 258,520 259,518.3 261.6,517.1 262.1,514.6 264.3,510.5 266.1,510.5 
	266.1,507.6 268.3,504.7 268.3,502.8 271.7,499.4 274.3,498.5 274.3,497.3 277.1,497.1 278.3,498.7 280.2,498.7 280.2,495.5 
	279.1,491.8 275,490.5 273.2,491.7 269.1,491.3 267,487.9 266.5,483.4 264.9,481.8 264.2,478.6 267.8,475.9 270.3,476.7 273.1,478 
	274.9,479.9 274.9,482.2 278.4,483.4 280.6,481.2 284.4,480.3 284.4,478.3 286.4,474.6 287.2,472 286.5,469.2 288.8,468.3 
	291.6,470.2 292.5,471.9 295.5,472.9 296.1,474.1 298.3,474.4 300.6,476.6 302.7,474.6 305.1,475.9 306.9,477.7 308.6,479.5 
	308.7,483.2 309.2,487.4 307.6,489.9 304.8,489.9 303.1,491.5 304.1,494.7 302.5,496.3 300.3,496.3 299.7,498.6 301.6,500.5 
	303.7,500.6 304.2,502.1 307.5,502.1 308.8,505.4 306.4,507.9 305.5,510.3 "/>
<polygon id="OMS" fill="#DDDDDD" stroke="#FFFFFF" points="405.3,540.7 402.5,543.5 397.8,544.8 393.8,547 392,544.3 388.5,546 
	385.7,546 386.7,541.5 390.7,539.6 390.7,537.3 387.3,537.3 384.3,535.5 382.5,537.3 379.2,536.3 380.3,532.4 377.8,530 374.5,532 
	370.8,531 369.9,528 372,526 372,522.8 372.8,520.5 371.5,516.3 369,515.1 369,513.1 369.9,511.2 371.6,509.5 371.6,507.2 373,507 
	374.8,505.2 375.4,503.5 375.4,500.6 379.6,496.4 382.8,495.8 384,494.6 384,492.4 381.5,491 380.7,489.1 379.1,487.5 376.9,486.4 
	376.9,484.5 379.5,483.2 378.4,479.9 378.6,477.2 381,474.7 382.1,472.7 384.6,471 387.3,473.6 385.6,475.2 385.6,477.2 387.9,478 
	390.8,478.9 392.6,479.7 394.8,481.1 398.1,481.1 399.3,479.5 402.1,481 404.6,481.7 408.6,481.7 411.9,480.2 414.6,477.5 
	416.1,475.4 416.6,477 415.8,479.1 414.8,481.4 414.8,484.7 416.7,486.7 416.1,490.9 418,494.6 419,497.5 419,501.7 419,505.5 
	416.3,508.2 416.9,510 416.9,512.5 415.6,513.7 413.3,512.9 411.1,513.7 408,517.4 406.1,522 406.9,527.9 406.9,531.2 408.6,532.9 
	408.6,534.9 406.7,536.7 405.3,540.7 "/>
<polygon id="NVS" fill="#DDDDDD" stroke="#FFFFFF" points="422,555.1 420.2,553.3 418.3,549.2 416.2,547.1 413.3,546 413.3,543 
	415.7,543 417.7,540.3 416.8,538 413.8,538 411.3,540.5 407.8,540.6 405.3,540.7 406.7,536.7 408.6,534.9 408.6,532.9 406.9,531.2 
	406.9,527.9 406.1,522 408,517.4 411.1,513.7 413.3,512.9 415.6,513.7 416.9,512.5 416.9,510 416.3,508.2 419,505.5 419,497.5 
	422.6,498.4 424.6,500.4 428.8,500.4 433.3,501 437,503 441.5,504.9 444.3,507.7 446.6,509.9 449.9,514.5 457.1,514.5 460,518.5 
	463.4,518.5 467.4,517.5 469.8,515.1 471.9,516.1 472.5,520.4 472.5,523.5 473.8,524.8 472.3,526.4 474.1,528.2 476.2,526.1 
	478.4,523.6 482.6,523.9 483.1,529.4 484.3,531.7 485.1,536.7 484.5,543.9 486.6,547 481.1,550.1 477.9,550.1 475.6,551.9 
	473.4,550.6 471.1,552.9 469.1,550.9 465.9,554.1 464.5,557.9 462.3,558.9 460,555.6 458.1,555.6 456.6,553.4 456.6,551 453.6,548 
	452.1,546.4 448.6,546.6 443.8,548.2 438.9,551.9 433.4,551.9 430.1,553.2 427.6,554.1 425.8,552.2 424.6,553.9 422,555.1 "/>
<polygon id="ALT" fill="#DDDDDD" stroke="#FFFFFF" points="473.7,601.1 471.3,599 468.2,597.6 466.2,595.5 461.9,595.5 459.8,597.6 
	455.7,598.3 454,596.6 450.3,597.3 448.3,595.3 446.5,593.5 446.5,591 444.7,588.8 442,589.6 440.2,593.5 436.5,594.1 434.3,589.8 
	433.2,586 432.3,581.6 429.5,576.6 429.5,572.6 426.8,570.1 426.8,564.6 424.8,558 422,555.1 424,554.2 425.8,552.2 427.6,554.1 
	433.4,551.9 438.9,551.9 443.8,548.2 448.6,546.6 452.1,546.4 456.6,551 456.6,553.4 458.1,555.6 460,555.6 462.3,558.9 
	464.5,557.9 465.9,554.1 469.1,550.9 471.1,552.9 473.4,550.6 475.6,551.9 477.9,550.1 481.1,550.1 486.6,547 488.6,550.9 
	491.6,550.9 493.8,555 495.6,556.9 496.3,560 498.9,561.6 501.4,561.6 501.5,563.9 499,565 500.8,568.1 500.8,570.7 501.8,573.5 
	499.1,574.7 497.6,577.4 499.4,579.2 498.1,581.1 496.4,581.1 494.8,583.2 491.6,581.2 489.6,583.2 489.6,585.7 487.8,587.6 
	485.6,589.9 482.8,589.9 478.4,591.5 474.9,592.6 473.3,594.2 475.5,596.5 476.9,597.9 476.9,600.9 473.7,601.1 "/>
<polygon id="AL" fill="#DDDDDD" stroke="#FFFFFF" points="524.5,616.5 520.6,617.4 517.8,620.1 512.8,620 508.7,622.3 506.5,624.5 
	501.7,623.6 500.2,621.1 498.3,617.8 497.4,614.4 494.8,617 490.5,618.6 486.5,617.3 482,616.1 482,612.1 478.5,610 477.2,607 
	474.3,605.1 473.7,601.1 476.9,600.9 476.9,597.9 475.5,596.5 473.3,594.2 474.9,592.6 478.4,591.5 482.8,589.9 485.6,589.9 
	489.6,585.7 489.6,583.2 491.6,581.2 494.8,583.2 496.4,581.1 498.1,581.1 499.4,579.2 497.6,577.4 499.1,574.7 501.8,573.5 
	505,576.4 508.3,576.4 511.1,577.9 512.8,577.9 512.9,580.9 510.8,582.9 508.4,585.4 509.1,588.6 507.5,590.2 510.9,593.7 
	513.6,593.7 515.3,590.4 517,590.4 517.5,594.2 518.6,597.9 522.4,601.7 525.5,604.6 524.8,607 522,607.6 520.8,608.9 523.3,611.4 
	523.3,614.1 524.5,616.5 "/>
<polygon id="TY" fill="#DDDDDD" stroke="#FFFFFF" points="605.6,579.4 603,582 600.9,586.2 598.7,588.5 598,592.8 600.1,595.3 
	600.1,599 603,602 603,606 599.1,608.5 595.3,612.3 592.2,612.3 587.3,612.3 582.8,611.1 578.2,612 574.8,611 570,609.3 
	567.3,606.6 564.2,603.5 560.3,602.3 555.8,604.1 553,601.3 549.4,599.7 546.5,602.6 542.8,602.6 541.7,606.1 537.3,606.1 
	531.8,609.6 528.5,613 525.2,613 524.5,616.5 523.3,614.1 523.3,611.4 520.8,608.9 522,607.6 524.8,607 525.5,604.6 522.4,601.7 
	518.6,597.9 517.5,594.2 517,590.4 518.5,588.9 521.4,589.6 524.6,589.9 527.8,586.7 527.8,583 531.4,581.1 534.3,584 538.1,585.4 
	541.9,585.4 545.3,587.1 547.9,587.1 551.4,585.6 556.3,581.4 559.8,580.4 559.8,576.1 562.3,573.6 562.3,570.9 566.1,569.9 
	567.1,563.9 568.8,562.2 573.1,563 576.3,559.8 580,560 581.4,558.6 583.3,559.2 584.1,557.1 587.1,557.1 589.6,559 593.4,559.5 
	596.5,562.5 598.6,563.5 602.3,563.5 603.8,562 605.5,563.7 606.9,565.1 604.9,567.1 604.9,570 603.2,571.8 603.8,574.6 
	605.4,576.2 605.6,579.4 "/>
<path id="AMU" fill="#DDDDDD" stroke="#FFFFFF" d="M891.3,520.9l-1.9,1.9l-3.8-1l-3.2-0.8l-4.8,0.7H873l-1.8,1.8l-5,1.8l-5-1
	l-2.1-4.1l-2.4-2.4l-2.8-2.3l-3.2-3.2l-4-0.7l-1.7-4l-3.8-3l-2.7-2.7l-3.7-1l-1.3-3.5l-3.3-1.5l-2-2l-6.7-0.7H818l-4,2.2l-5-0.8
	l-3.8,1.3H801l-5.7,4.2l-2.7,2.7l-2.4-4.2l-1.1-2.2h-2.8l-0.8-3.6l-1.4-2.2l2.5-1.5V488h-1.3l-2.3-2.4l-1.8-0.3l0.4-4.3l-1.1-1.9
	l-1.2-3.3l-2.7-1.3l-1.9,2.7l-2-0.8l-0.2-2.8l-1.3-1.3l-2-0.5l-2,2l-1,2.5l-3.4-0.9l-1.1-2.1l2-2.5l-1.2-1.9l-2.3,0.8l-2.9-0.8l-2-2
	v-2l2.9-2.9l3.2-2.7h3.2l1.5-1.5l1.8,1.8l2.5,0.5l1.1-1.1h3.3l1.4,1.8h2.1l0.6-2.5l4.2,0.8l1.5-1.5l3-0.6l2.8,1.3l3.5,3.5l2.7-1.2
	l3-0.7l1.4-1.9l2.3,1l1.7-1.7h1.9l1.8,1.8l6.6-6.6l3.6,0.6v-2.3l4.5-1.7l3.2,0.6l3.3-2.1l-0.2-3.4l5.4-3.2l5.1-4.2l1.3,0.8l2.1-1.1
	l1.9-2.4l2.7-0.4l2.3-2.3l3-0.6l3,1.7l-1.1,2.9l0.1,2.3l-2.1,2.9v5.1l-1.1-0.1l-0.9,2.3l1.8,3v2.3l-2,1.1l-1.2,2.8l2.1,2.6l4.1,0.6
	l1.4-1.3l2.6-0.9l4.6,6.3l2-1.8l2.1,0.1l3.1-4.5l3.2-1.2l1.1-1.1l-0.7-3.1l0.9-2.6l3.2-0.6l1.7-1.7l1.8-3.1l3.1-0.3l2.9,2.9l0.9,5.1
	l3.1,2.1l-1.2,4.1l-5.4,2l-2.9-0.1l-1.3,1.8l3.4,3.4l0.1,2.2l-3,3.4l-0.4,4.8l-2.8,2.6l-0.1,2.3l-2.3,2.7l2,3l-1.6,2.9l0.7,6.7
	l1.8,1.8h1.7l1.9,2.9l1.4-1.4l3.6,0.4l0.6,2.6l3.1,2.3l0.3,2.4l1.4,0.4l1.9,1.4l0.1,4l-1.6,0.7l0.7,2.6l-0.8,2l0.3,3.7L891.3,520.9
	L891.3,520.9z"/>
<path id="YEV" fill="#DDDDDD" stroke="#FFFFFF" d="M928.5,506.1l-4,2.2l-1,3.3l-2.7,4.3l-3,3.8l1.3,4.2l-3.5,2.8l-3.5,2l-3,1l-0.8,3
	h-3.2L902,531l-2.3-0.8v-3.8L897,524l-2.2-2.2l-0.3-3.7l0.8-2l-0.7-2.6l1.6-0.7l1.8,0.3l1.8-2.7l1.5-1.5l-0.3-3.5l2.7-0.4l2.8,0.5
	l3.8-1.8l2.7,1.3l3.3,3.9l2.1-2.9l4.6-1l1.7-3.1l3.4-0.4l2.9-1.1l-0.3,2.7l1.1,1.1l-0.4,1.9H928.5L928.5,506.1L928.5,506.1z"/>
<polygon id="PRI" fill="#DDDDDD" stroke="#FFFFFF" points="970.5,495.3 972.3,500.1 973.7,505.5 974.7,510.3 975.7,516.8 
	975.7,523.1 974.7,526.5 974.7,533 974.7,541 973.7,547 974.7,553.1 974.3,561.1 974.3,565 971,570.5 968.8,575.1 966.3,579.8 
	964.2,579.8 960,581.5 956.5,583.5 954.1,582.5 954.1,580.2 952.8,579 951.6,581.8 951.6,584.9 950.2,583.5 948,581.3 948,583 
	947.3,587.1 948,590 947.1,593.2 945.7,594.6 945.7,596.3 945.7,599 942.5,598.8 941.2,597.5 942.3,593.6 944.3,589.6 944.3,586.3 
	942.6,582.4 939,578.8 937.2,577 935.7,573.1 932.5,570 929.5,569 929.4,565.7 931.5,563.6 933.3,561.8 933.3,558.5 935.7,556.1 
	938.3,554.8 941.1,555.7 943.5,553.3 945,550.3 942.3,546.1 943.7,542.6 942,539 941.7,535.1 939.3,532 940,529.3 938.2,526.1 
	941.4,525.7 941.4,524.3 939.6,522.5 940,519.3 942.9,515.3 945.3,516 945.9,516.6 948.2,516.6 949,515.4 952.4,515.9 952.7,514.9 
	956.1,514.4 958.8,511 958.8,506.3 956.8,505.7 957.3,503 961.3,501.5 962.3,499.2 962.7,495.9 961.4,492.7 960.1,492.4 
	959.1,494.4 956.3,494.7 955.5,492.4 952.4,492 951.9,489.7 955.2,486.9 956.4,482.4 958.4,482.1 960.7,483.9 962.5,485.7 
	964.9,485.6 965.9,487.6 965.1,489.4 968,491.4 970.7,489.1 970.5,495.3 "/>
<path id="MAG" fill="#DDDDDD" stroke="#FFFFFF" d="M942.1,209.5l2.1,2.1v5.3l1.7,4l0.3,6.3L945,231l-1.3-3.3l-3-1.5v4.2l-2.5-2.5
	l-1.7-1.7l-1.3-2.8l-4.7-4.3l1.3,3.7l-1.3,4H926v2.7l-1.5,5.5l-1.8,2.2l0.2,7.3l3,2l-0.5,4.7l3,4.7v5l0.9,6.6l2.8,2.8v3l2.3,2.3
	l2.2-0.3l1.9-1.8l1.4-1.4h2.5l-0.2,3.2l-2.7,0.8v4.5l-5,0.8l1.2,5.8l-0.5,2.5L932,291v3.5l-1.2,3.2l-3.2,0.2l-1.5-1.5v-2.2l0.7-2.2
	l2.8-0.9l-1.3-1.3l-3,1.2l-3.2,0.5v1.5l-4.7,2.2l-2.3,2.8l-2.7,0.7l-2.2,2.2l-0.8,2.5l0.8,3.2l1.8,1.8l-2.2,2.3l-3.5-1.3l1.1,3.6
	l-2.6,2.6l-2.3,2.2l-0.8-2.6l-3.6-3.6h-2l-1.5,1.4l-2-1l-2.9-0.1l-2.5,3l-2.3,0.1l-1.9-2.8v-3.8l3.1-1.8l-2.5-3.4v-2.5l-2.3-0.8
	l-3.8-2.4l-2.3-1.1l-6.4-0.4l-3.4,4l-2.7-0.1l0.5-3.1l-2.5-2.5l-0.6-2l-2.2-2.2l-3.9-2l-1-2.4l-2.7-3.6v-2l-1.4-0.6l0.6-3.3l1.5-1.5
	l-2.3-1.4l0.5-2.9l4.4-1.8V267l3.3,0.1l-0.3-3.7l-2.5-0.7l-1.7-2.2l2.1-2h2.1v-2.6l2.1-1.5v-1.9l2.6-0.6l1.6,1.9l2.2-0.3l1.1-2.4
	l-0.7-2.1l2.3-3.6l0.7-2.4l2.3-0.4v-2.1l-1.1-3l-2.7-1.6l-2.6-2.6l-0.2-6.3l-2.5-1.3l-1.8-2.4v-2.8l2-0.4l-0.9-2.7l-2.8-0.8l0.5-2.5
	l2.9-1.1v-2.9l1.4-1.4h3.2l0.3-3.4h4.2l1.7-1.7l-1-3.4l1.5-2.8l-2-3.2l3.7-1.6l1.7,1.7l2,2.9h2.8l3.3-1.3l1-2.1l3.4,0.7l4-0.4
	l3.5-4.9l5.3,0.8l5.5-6.5l4.2,0.4l0.1,1.8l1.1,1.1l-0.8,2.3l4,1.8l0.5,2.5l4-0.8l1.3,3l2.8,1.1l0.1,2.3l2.1,2.1l2.4-0.7h2.9l0.5,2
	h1.9l1.4,1.6l-1,3.6h1.5l1.1-1.8l1.1,1.1v2.3L942.1,209.5L942.1,209.5z"/>
<g id="ARK">
	<polygon id="polygon246" fill="#DDDDDD" stroke="#FFFFFF" points="223.8,270.7 223.2,271.6 224.3,272.9 225.6,271.6 223.8,270.7 	
		"/>
	<polygon id="polygon248" fill="#DDDDDD" stroke="#FFFFFF" points="364.8,272.8 363.1,272.8 361.3,270.1 360.2,270.7 357.1,267.7 
		354.6,265.1 355.5,262.4 358,261.6 358.9,260.1 357.2,258.7 357.4,255.1 356.3,254.8 355.2,252.1 353,251.9 351.2,249.4 351.8,246 
		354.2,242.7 357.1,243 358,244.1 359,244.5 359.5,242.5 363,241.5 365.7,238.6 363.9,236.6 366.3,235.1 369,236.2 369.8,233.9 
		369.8,231.7 373.2,231.7 374.9,233.3 376.6,231.6 377,230 380.8,229.2 379.5,227.9 376.3,226.8 376.3,225.6 380.1,224.5 384,223.5 
		386,221.5 388.5,221.5 388.5,219.7 392.2,219.6 390.2,217.6 393.4,217.4 394.6,218.6 394.4,215.6 395.9,214.1 394.3,212.1 
		395.3,210.5 397.1,212.3 399.4,212.3 399.4,210 402.7,211.2 404.4,209.4 406.1,207.5 408.2,207.5 411.8,205.8 414.4,206.7 
		418.2,206.7 420.7,204.2 423.6,204.4 425,206.4 428.1,206.4 429.7,207.9 432.4,207.1 436.2,207.1 438.7,204.7 441.6,203.1 
		445.5,201.6 449.2,201.6 451.3,204.9 451.3,208.5 448.1,211.4 445.2,214.1 441.5,214.4 436.9,216.5 432.8,215 430.9,217 
		426.2,216.8 420.1,216.8 417.9,219.3 413.2,219.3 409.7,221.2 410.8,223.6 408.3,224.5 405.5,224.2 402.9,224.2 402.6,225.9 
		399.9,225.1 399.9,227.9 397.1,229.8 394.9,231.5 394.9,228.9 393.1,230.6 393.5,233.6 391.7,233.6 390.4,232.3 390.4,233.8 
		390.4,236 389.1,234.7 387.4,236.4 386,237.9 384,237.9 382.5,239.8 380.5,243.1 377.3,243.1 374.8,245.3 374.8,248.1 372.2,249.2 
		371.3,252.2 369.2,254.3 369.2,258.1 368.1,260.8 369.5,264.8 368.3,268.7 369.9,271.3 370.7,274 369.8,274.9 367.2,276.1 
		367.2,274.2 364.8,272.8 	"/>
	<polygon id="polygon250" fill="#DDDDDD" stroke="#FFFFFF" points="461.1,124.1 459.9,124.5 460.9,125.9 460.9,127.1 462.6,127.1 
		462.6,124.7 461.1,124.1 	"/>
	<polygon id="polygon252" fill="#DDDDDD" stroke="#FFFFFF" points="460.8,134.7 459.9,136.1 456.6,136.7 454.5,137.9 456.1,138.6 
		455.4,140.4 456.8,140.7 459.5,140.7 461.7,138.6 463.3,136.9 462.8,134.5 460.8,134.7 	"/>
	<polygon id="polygon254" fill="#DDDDDD" stroke="#FFFFFF" points="450.4,132.5 449.7,133.2 451,134.5 453.4,133.6 453.4,131.6 
		452,131.6 450.4,132.5 	"/>
	<polygon id="polygon256" fill="#DDDDDD" stroke="#FFFFFF" points="448.6,136.4 446.8,134.4 445.4,135.7 444.4,137.7 444.4,140.2 
		446.5,140.6 447,142.1 449.6,141.5 451.3,139.8 452.6,138.6 453.3,136.5 451.4,136.5 448.6,136.4 	"/>
	<polygon id="polygon258" fill="#DDDDDD" stroke="#FFFFFF" points="441.1,145.1 440.3,145.9 440.3,147.5 442,147.5 442.6,145.5 
		441.1,145.1 	"/>
	<polygon id="polygon260" fill="#DDDDDD" stroke="#FFFFFF" points="437.6,138.7 436.8,137.9 434,137.9 434,139.7 432.5,141.2 
		433.4,142.1 436.4,141.5 437.5,142.6 440.1,142 440.9,140.2 442.8,140.9 441.8,138.6 440.1,136.9 437.6,138.7 	"/>
	<polygon id="polygon262" fill="#DDDDDD" stroke="#FFFFFF" points="451.5,117.9 450.8,119.4 452.1,120.7 453.3,119.4 451.5,117.9 	
		"/>
	<polygon id="polygon264" fill="#DDDDDD" stroke="#FFFFFF" points="448.8,121.4 446.8,121.4 446.8,123.6 448.9,125.7 448.9,127.5 
		450.8,126.6 449.6,124.2 448.8,121.4 	"/>
	<polygon id="polygon266" fill="#DDDDDD" stroke="#FFFFFF" points="436.3,127.9 434.5,127.9 434.1,128.2 435.6,129.7 436.3,127.9 	
		"/>
	<polygon id="polygon268" fill="#DDDDDD" stroke="#FFFFFF" points="437.8,130.7 436.6,131.9 437.8,133.2 439.1,133.1 437.8,130.7 	
		"/>
	<polygon id="polygon270" fill="#DDDDDD" stroke="#FFFFFF" points="438.9,125.2 438.9,126.9 440.6,126.9 440.3,125 438.9,125.2 	"/>
	<polygon id="polygon272" fill="#DDDDDD" stroke="#FFFFFF" points="441.3,129.3 441.3,130.7 442.8,130.7 441.6,129.6 441.3,129.3 	
		"/>
	<polygon id="polygon274" fill="#DDDDDD" stroke="#FFFFFF" points="442.8,132.6 443.4,133.2 444.5,132.1 442.8,132.6 	"/>
	<polygon id="polygon276" fill="#DDDDDD" stroke="#FFFFFF" points="444.5,126 444.5,127.7 446,127.9 446,126 444.5,126 	"/>
	<polygon id="polygon278" fill="#DDDDDD" stroke="#FFFFFF" points="442.3,122.5 443.1,124.1 443.9,123.3 443.1,122.5 442.3,122.5 	
		"/>
	<polygon id="polygon280" fill="#DDDDDD" stroke="#FFFFFF" points="426.1,133 425.2,133.9 426.8,135.6 428.6,135.6 428.6,132.6 
		427.4,131 426.1,133 	"/>
	<polygon id="polygon282" fill="#DDDDDD" stroke="#FFFFFF" points="430.3,131 430.9,132.7 432.1,132.7 432.1,131.2 430.3,131 	"/>
	<polygon id="polygon284" fill="#DDDDDD" stroke="#FFFFFF" points="423.3,121 422,122.2 422,123.6 420.6,125.1 418,123.2 
		415.9,124.4 415.9,125.9 413.3,124 411.3,124.7 411.9,127.7 413.8,127.1 413.8,129.1 415.8,129.6 417.6,127.8 420.1,126.7 
		422.3,127.4 425.4,127.4 427.6,125.1 425.5,123 426.9,121.6 424.5,120.1 423.3,121 	"/>
	<polygon id="polygon286" fill="#DDDDDD" stroke="#FFFFFF" points="416.1,117.9 413.4,117.9 411.8,116.2 410.6,118.5 412.1,119.9 
		412.6,121.6 415.9,120.5 417,121.6 419.1,120.7 420,121.6 420,119.7 418.6,118.3 417.3,118.3 416.1,117.9 	"/>
	<polygon id="polygon288" fill="#DDDDDD" stroke="#FFFFFF" points="418.6,131.1 417.5,131.1 417.9,132.6 420.1,132.7 418.6,131.1 	
		"/>
	<polygon id="polygon290" fill="#DDDDDD" stroke="#FFFFFF" points="419,134.4 417.9,135.5 418.8,136.4 420.9,136.9 419.5,135.5 
		419,134.4 	"/>
	<polygon id="polygon292" fill="#DDDDDD" stroke="#FFFFFF" points="428.1,118.2 428.1,119.9 429.4,119.9 430.6,118.6 428.1,118.2 	
		"/>
	<polygon id="polygon294" fill="#DDDDDD" stroke="#FFFFFF" points="274.5,290 271.6,292.9 269.5,295.5 269.5,291.8 271.8,289.5 
		269,285.1 267.1,283.2 264,283.2 259.5,284.6 255.5,282.5 250.7,284.3 245.5,283.5 245.3,289.3 242.5,291.6 243.7,294.5 
		242.3,295.9 237.5,294.5 235.7,290.6 232.8,287.7 231.8,282.8 230.8,275.3 228,275.3 225.2,278.3 225.2,281.1 224.8,284.8 227,287 
		226.2,291.1 222,294.1 218.3,290.5 214.9,287 214,288.1 212.8,290 211,288.9 210.3,289.6 209,288 208,289.1 208.2,291.7 207.2,294 
		205.1,295.1 204.3,297 203.8,301.1 207,304.3 205.8,307.7 203,308.5 203.3,310.8 202.8,313.5 199.5,316.7 198.3,317 197,318.5 
		194.5,323.5 194.8,325.1 193.5,326.4 194.4,331 196.3,332.2 196.3,334.3 198.9,335.6 199.6,337.3 200.7,338 202.2,339.5 
		203.9,339.5 205.3,340.9 205.9,342.8 209.3,343 211.8,343.6 212.9,344.7 215,345.3 215.8,347.4 217.8,349.3 219.1,350.3 219.1,352 
		220.5,352.5 223.3,352.5 223.3,351.4 224.7,351.8 226.5,351.8 226.5,354 227.6,355.1 228.6,355.1 228.6,356.5 230.6,357.5 
		231.8,358.7 233.6,357 234.1,355.5 235.9,356.3 237.2,358.5 235.8,359.9 237.7,361 237.7,362 239.1,362 240.9,362.7 240.1,363.5 
		241.2,365.1 242.2,366.2 244,364.6 245.3,365 246.2,366.5 246.8,367.2 248.4,368.8 247.8,370.6 249.3,371.4 251.4,370.8 
		251.3,369.6 252.7,370 255.3,370 255.7,371.4 257.3,371.7 258.8,370 260.4,368.8 261.8,366.4 260,364.5 261.3,363.2 263.3,362 
		263.5,360.5 266.1,358.9 268.3,356.7 269.8,356 271.8,354 270.4,352.5 270.3,350.3 268.6,351.1 267.5,350 266,350 263.8,350.5 
		262.9,352.6 261.8,352.2 260.3,354.4 258.9,352.9 257.3,352.4 255.6,351.6 255.3,348.7 257.3,347.7 257,345.9 257.8,345.1 
		258.4,343.5 260.3,343 262.7,343.5 263.1,342 262.8,339.4 261.5,338.2 262.2,335.6 264.4,334.2 264.4,331.8 265.1,329.5 
		263.3,327.7 261.6,325.2 261.6,323.2 261.2,321 263.3,321 265.6,322.7 267.6,323.4 269,324.8 271.8,325.4 274.3,326.8 276.9,329.5 
		277.4,332 279.3,331 281.6,330.2 283.3,331.3 285.5,331.8 287.6,333.5 289.1,333.5 290.1,334.5 291.6,333 293.1,330.5 291.8,329.2 
		291.3,327 292.4,324.7 291.6,323.1 289.7,321.2 289,319.8 290.5,318.3 291.7,317.1 291.7,316 292.8,314.8 293.8,312.3 295.6,310.5 
		294.2,309.1 291,307.6 290.7,308.6 287.8,309.6 286.3,309 284.3,306.7 282.8,305.2 282.1,302.4 279.5,299.8 278,297.9 277.1,294.4 
		275.8,291.6 274.5,290 	"/>
</g>
<g id="SAK">
	<path id="path297" fill="#DDDDDD" stroke="#FFFFFF" d="M930.8,395.9l-1.2,0.3l-0.9-2.5v-2.2l3.7,1l1.9,0.9l1,2.3l2,2l3.6,0.7
		l0.9,2.3l4,2.6h2.2l1.7,2.5l1.4,3.9l2.2,2.2l4.3,4.4l2.7,0.7l3.8,1.4l3.6,3.2l4.9,2.7l3.2,2.7l4.2,2.2l3.6,2.2l2.3,1.9l4,1.6
		l-0.6,1.9l-1.4,1.4l-2.7,0.9H983l0.6,3l-0.6,2.2v1.7l2.5,3.8l1.9,3l0.1,4.5l1.9,1.9l2.9,2.9l2.5,1.6h3.7l2.2,2.2h2.5l1.3,2.7
		l3.2,0.1l1.9-1.9l3.4,1.9l2,2.6v1.7l-4.6-1.9l-1.7,1.7h-3.7l-1.2,3l0.7,2.9l2.3,2.3l1.7,3.8l-2.3,1.9l-1.9-2.3l-2.5-2.5l-4.3-4
		v-2.7l-2.9-2.9l-2.7-2.7l-1.9-2.5l-2.3-4.5l-2.9-2.7l-3-1.7l-2.9-0.9l-2.5-5.2l-5.3-7.4l-4.3-4.3l-3.6-3.6l-3.2-4.3l-2-3.3
		l-5.5-2.5l-4.3-1.9l-2.6-0.3l-3.5-4.8v-2.2l-3.7-3.8l-2-3.7l-4-1.3l1-2.9v-2.2l3.3,1l0.6-2.9l-1.9-1.9v-1.1l-1.9-1.9L930.8,395.9
		L930.8,395.9z"/>
	<polygon id="polygon299" fill="#DDDDDD" stroke="#FFFFFF" points="1052.7,471.2 1053.2,474.2 1053.5,477.1 1054.7,477.5 
		1054.7,475.2 1055.6,473.4 1055.6,470.8 1052.7,471.2 	"/>
	<polygon id="polygon301" fill="#DDDDDD" stroke="#FFFFFF" points="1062.6,472.9 1062.6,474.2 1064.5,475.2 1064.5,473.1 
		1062.6,472.9 	"/>
	<polygon id="polygon303" fill="#DDDDDD" stroke="#FFFFFF" points="1056.7,461.3 1058.4,462 1059,459.7 1058.1,455.1 1059.7,453.5 
		1059.4,450.1 1057,449.4 1056.3,453.2 1057.2,454.1 1056.4,456.9 1056.7,461.3 	"/>
	<polygon id="polygon305" fill="#DDDDDD" stroke="#FFFFFF" points="1061,442.2 1060.3,442.9 1060.9,445.4 1062,443.7 1061,442.2 	
		"/>
	<polygon id="polygon307" fill="#DDDDDD" stroke="#FFFFFF" points="1062.8,433.4 1063.5,429.7 1062.5,427.4 1063,424.9 1065,423 
		1065.5,425.6 1065.1,428.4 1065.6,431.5 1064.6,433.9 1062.8,433.4 	"/>
	<polygon id="polygon309" fill="#DDDDDD" stroke="#FFFFFF" points="1064.6,401.3 1064.6,404.4 1064.6,407 1066.7,407 1066.1,404.6 
		1066.1,403 1066.1,401.1 1064.6,401.3 	"/>
</g>
<g id="KAM">
	<path id="path312" fill="#DDDDDD" stroke="#FFFFFF" d="M984.2,298.3l2.2,4l4.5,3l4.7,2.5l7.2,2.2l3.3,0.7l3,2l1.8,2.5l6.3,3.3
		l5.5,2.3l5.8,2.7l3,3h3.3l2.4,2.4l3.1,1.6h4.8l1.8,2.5v-3.3l-0.8-4.5l-1.7-7l-0.7-5.3l-3.2-3l-4.3-4.3l-2.8-1.2l-1.7-6l1.3-3v-3
		l3.7-0.5v-2l-4.8-1.2l-1.4-1.4l-2.9-1.1l-3.3-5.2l-1.2-6.7l1.7-3.7l2.8-1.8l2-1.3l-1.2-3l-3.3-2.7l-5.7,0.7l-2.4-2.4l-3.1-0.8
		l-3.5-5.8l-1-4l3.3-1l1.3-3.2l-3.3-3.3h-2.8l-1.7,1.7l-4.3-1l-4.3-3L997,236l-4.3-4.3l-1.2,2.5l-1.6,1.6v1.4l1.3,2.8h-4.7l-2.8-2.8
		l-4.6-2.4l-0.5-3.7l-0.7-4.7l-3.2-3.2l-2.3-2.3l-2-2l-2.5-4.2l1.8-1.8v-4.3h2l3.1-3.1l-3.1-1.4V201l-1.8-4.8l2-0.2l2.3,2.3l3.2,1.5
		v-2.7l-2.8-4.3v-2.5l1.3-4.7l-1.8-1.8l3.5-5l2.2-5l4.2-1.3l3,1.5l2.8-2.5l-1.8-1.8l-2.8-3.2l-1.7-6.7V155l-3.2-2.8l-1.7-5.2
		l-0.8-5.3l-1.7-4l-1-4.7l-1.8,2.6l-2.9,0.2l-2.1-2.1l-2.5,0.8l-0.7,4.3l-1.2,4.3l-2.5,3.9l1.5,2.2l-1.7,5.1l-1.7,3.7l-2.8,1.7
		l-1.9-1.9l-2.5,0.8l-2.3,2.3l-2.9,0.5l-2.6,3.4l-2-2l-1-2.8l-1.4-2.6l-0.9-3.4l-2.1-0.6l-2.9,2l-1.7,1.7l-2.4-1l-4,0.6l0.8,2.5
		l-1.4,2l-1.8-0.5l-4,1.2v2.9l-1.8,1.3l-1.1,3.5l-2.8-0.2l-3.3,2.5l1.2,1.2l-1.7,1.7l-2.7,1.5l-1.5,3v2.9l1.2,1.4l4.2,0.4l0.1,1.8
		l1.1,1.1l-0.8,2.3l4,1.8l0.5,2.5l4-0.8l1.3,3l2.8,1.1l0.1,2.3l2.1,2.1l2.4-0.7h2.9l0.5,2h1.9l1.4,1.6l-1,3.6h1.5l1.1-1.8l1.1,1.1
		v2.3l3.5,0.4l1.6-2.3l1.5,0.2l0.3-2.2H942l-2.8-2.8l-2.9-2.9l-2-1.8l1-2.7v-3.5l3.7-2l2.6-2.6l1.1,1.1l-3.2,3v3.8l3.5,2.2l2.3,3
		l1.9,1.9l2.1,0.8h2.2l2.2,4.2l2,2v2.8v2.3l-1.2,4l0.2,3.3l2,1.7l2,6.2l1.7,4.2l1.5,5.2l1.3,5.5l3.2,4.2l2,6.2l0.8,5.3l1.7,5
		l-1.3,1.3l-1.5,1.5l1.6,2.8l-1.2,2.5l-1.4,1.4v1.4l3.1,0.7l2.8,4l0.5,3.8l2.3,2.3v3.5l3.3,3.5L984.2,298.3L984.2,298.3z"/>
	<polygon id="polygon314" fill="#DDDDDD" stroke="#FFFFFF" points="980.7,215.1 980.7,218.3 980.4,221.2 982.2,222.3 983.3,223.8 
		983.4,226.3 985.8,227.2 985.2,224.6 984.2,222.6 985.2,219.3 985.2,215.2 982.4,214.1 980.7,215.1 	"/>
	<polygon id="polygon316" fill="#DDDDDD" stroke="#FFFFFF" points="1036.8,230.2 1034.8,231 1035.8,233.1 1039.3,233.1 
		1042.7,233.1 1044.9,231 1042.1,230.1 1039.4,231.2 1036.8,230.2 	"/>
	<polygon id="polygon318" fill="#DDDDDD" stroke="#FFFFFF" points="1046.8,336.5 1045.9,339.1 1044.5,340.5 1046.1,342.1 1047,344 
		1046.8,346.6 1046.6,349.9 1048.1,351.4 1049.8,350.5 1049.8,347 1051.3,345.5 1050.1,342.6 1048.1,340.6 1048.2,338 1046.8,336.5 
			"/>
	<polygon id="polygon320" fill="#DDDDDD" stroke="#FFFFFF" points="1053,359 1053,361.2 1054.4,361.9 1055.4,360.6 1053,359 	"/>
	<polygon id="polygon322" fill="#DDDDDD" stroke="#FFFFFF" points="1049.1,222.7 1047.2,224 1048.2,225 1049.6,223.7 1050.9,222.3 
		1049.1,222.7 	"/>
</g>
<g id="CHU">
	<path id="path325" fill="#DDDDDD" stroke="#FFFFFF" d="M975.2,133v-6l-1.2-5.3l-2.8-4.3l1.3-1.3l-3.9-2.6l1-1.5h3.5l2.2-4.7
		l3.3-1.3v-3.5l-2.4-2.4l-1.3-2.9l-2.7,2l-1.8-1.5l-2.2,0.3l-1.8,1.8h-2.9l-0.8,1.6h-3V99l-3.7,0.2l-2,0.3l-2.5-0.2l-1,1.7l-2.1,2.1
		l-3.6,0.1l-2,1.5v3.2l-2.2,0.8L939,107l2.7-3.2h-1.8L937,105l1.2-2.7l3.5-1.5h2.5l2.7-4.3l-0.7-3.8l-1.3-4.8l-2.8-2.8l-2.6-2.6
		L938,84l-0.2-3.2h-2.5l-3.7,1l-2.3-2.3v-2.3l-2.9-0.5l1-1l1.5-0.7l-1.3-1.3l0.3-1.6l1.7,1l1.8,1.5h3.2l2.2-1.7l2.2,1.7l2.8-2.8
		v-4.3l-1.3-2.5l2.8-4.2h3.2l2.5,1l3.5-1.2l1.8-4l3.5-3.8l3.8-0.3l1.5-4.3l-2.8-0.8v-1.3h3.5l-1.2-2.7v-2.2l-1.8,2.3L959,44
		l-2.2-3.3l-3.1-3.1v1.8l-3.9-1.5L948,40l-3-0.5l3.8-2.5v-3.5v-2l-3.5,1l1.8-3.8l-1.6-1.7l-2.2-1.8v-2.8l-3.8,1.8l-3,4.2h-1.2
		l-4,1.5l-2.3,2.3l-1.7,2.3l-0.3,3l-1.8-0.2v1.5l2.7,0.7l-3.2,2.2l-1,3l3,0.8l4.7,0.3l4-0.8v2l-4,2.2l-2.3,2.3l-3.4-2.6l-3.8,1.2
		l-2.7-2.7l-2.3,1.3l-3.7,1.7l-3,3.2l-5.7,1.7l-3,4.3l-4.2,1.7l-3.4,3.4l-3.3,3.3l-3.6,2l-5,2.2l-2.6,2.6l-5.7,5.7l-5.1,4.9
		l-1.3,4.8l-2.8,4.2l-1,3l1,2.8h-2.3l-2.7,1.5l-0.3,3.5l-3,1.5l-0.8,3.2v1.8h3.3l1,2.3l4.2-0.7l5.7,2.5l1.8,0.3l1,2.7l-0.8,2.7
		l-3.3,0.8l-3.7,1.7l-2.7,1H858l-2.5-2.5l2.4-2.4l-3.2-3.2l-1.8,1.8l-1.8,3.3l2.3,3.3l-0.7,2l1.7,1.7l-1,4l-4.2,3v3.3l-2.2,2.2h-2.5
		l-1.5,2.8v5.5l1.3,1.9l4,1.4l3.3,0.4l0.8,2.1l3,1.1l2.6,4.4l-3.4,2.6l-1.6,4v3.3l-2.3,1.6v3.4l-2,3.1l1.4,3.3l2.6,1.5v3.9l3.3,0.5
		l3.1,1.4l3.4-1.1h2.7l2,2l1.8,3.5h1.9l3.7-1.6l1.7,1.7l2,2.9h2.8l3.3-1.3l1-2.1l3.4,0.7l4-0.4l3.5-4.9l5.3,0.8l2.3-2.3l3.2-4.1
		l-1.2-1.4v-2.9l1.5-3l2.7-1.5l1.7-1.7l-1.2-1.2l0.8-0.8l2.5-1.7l2.8,0.2l0.7-3.1l2.2-1.7v-2.9l4-1.2l1.8,0.5l1.4-2l-0.8-2.5l4-0.6
		l2.4,1l1.7-1.7l2.9-2l2.1,0.6l0.9,3.4l1.4,2.6l1,2.8l2,2l2.6-3.4l2.9-0.5l2.3-2.3l2.5-0.8l1.9,1.9l2.8-1.7l1.7-3.7l1.7-5.1
		l-1.5-2.2l2.5-3.9l1.2-4.3l0.7-4.3l2.5-0.8l2.1,2.1l2.9-0.2L975.2,133L975.2,133z"/>
	<polygon id="polygon327" fill="#DDDDDD" stroke="#FFFFFF" points="858.2,49.3 856.9,48.8 855.7,50 853.2,51.3 851.1,53.4 
		851.3,56.9 850.4,57.8 850.9,60.7 852.5,63.1 854.3,67.1 856.9,67.6 858.7,65.9 860,63.4 858.6,61.8 860.8,58.6 860.4,55.1 
		860.4,51 858.2,49.3 	"/>
</g>
<polygon id="KGD" fill="#DDDDDD" stroke="#FFFFFF" points="31.5,278.1 34.1,278.7 36.4,278.1 37.2,276.4 39.2,276.8 41.1,278.6 
	41.2,281.2 42.7,281.7 43,283.7 45.4,284.1 45.9,282.2 44.6,280.9 45.8,279.8 46.5,280.5 48.7,282.4 48.7,285.3 48.4,287.8 
	49.8,289.9 51.1,290.8 51.5,294.1 50.4,296.5 44.8,299.3 36.4,289.3 31.5,278.1 "/>
<polygon id="SPE" fill="#DDDDDD" stroke="#FFFFFF" points="142.7,299.5 141.2,298.4 140,298.6 140.4,297 140.8,295.6 140.8,294.7 
	141.3,294.1 142.7,297.5 144.7,295.5 145.8,294.2 146.3,294.8 146.3,296 145.5,297 145.5,298.3 144,299 143.3,299 142.7,299.5 "/>
<polygon id="KLU" fill="#DDDDDD" stroke="#FFFFFF" points="99.2,374.5 97.6,372 99.8,371.5 102.3,369.1 104.5,369.1 106.2,370.8 
	106.7,372.8 109.1,373 109.9,372.2 111.3,372.6 113.5,374.3 115.5,373 117.8,373 120.9,372.4 123.3,373 124.5,375.5 126,377 
	128.8,377 129.8,379 130.8,380.8 129.7,382.5 128.8,384.3 128.8,386.8 126.3,388.5 123.8,386.9 123,387.7 123,389.6 120.8,390 
	118.8,388.1 117.2,387.2 114.3,388 112.9,389.4 111.4,388.8 109.1,392 105.4,390.5 102.8,390.5 100.3,389.7 100,387.3 98.4,385.7 
	98.4,383.7 99.6,382.4 99.6,380 100.3,377.5 99,376.2 99.2,374.5 "/>
<polygon id="NGR" fill="#DDDDDD" stroke="#FFFFFF" points="158.9,342 160.1,340.8 160.6,338.4 158.4,334.9 156,334.1 156.7,332.5 
	157.8,330.5 156.9,328 156.5,325.5 155.2,324.2 153.3,323.5 154.3,321.5 154.3,319.5 152.2,318.5 151.9,316.5 149.5,316.4 
	148.1,317.8 146.3,315.5 146.8,311.2 145.3,310.9 143.6,309.2 142,310.5 140.3,311 137.8,309.9 135.1,309.6 131.3,309.6 
	130.1,307.3 128.7,308 127.5,309.2 125.3,309 122.5,309.2 121.3,310.5 121.3,312.6 120,313.8 120.6,315.2 122.3,316.5 121.6,318.9 
	119.3,319.9 117.7,321.5 116.3,322.3 116.3,324.6 114.8,325.4 113.4,326.7 114.8,328.1 115.8,330.3 117.3,331.8 120.3,331.8 
	121.7,333.3 124.2,333.1 126.2,334.3 129.7,334.3 131.6,336.2 133.9,336.4 135.3,335 138.1,335 139.9,333.3 142.1,333.3 144,334.2 
	145.3,335.5 145.9,337.9 148.3,337.9 149.9,339.9 152.1,339.9 152.5,338.5 153.9,339.9 156.1,341 158.9,342 "/>
<path id="TVE" fill="#DDDDDD" stroke="#FFFFFF" d="M135.1,360v2.2l0.9,0.1l0.3,1.8h2.5l1.4,1l2.2,1.2h2.6l1.7,1.7h2.8l2.3,1.3
	l2.2,0.6l1.9-1.8l3.2-2l-1.2-2.7v-1.6l1.8-1.8l-0.7-3l1-2.2h2.4l1.1-3.4l3.2-1.4v-3.3l0.9-2.8l-2.4-0.8l-2.7,0.5l-1.9-0.8L159,342
	l-2.4-1.1l-2.7-1.1l-1.4-1.4l-0.4,1.4h-2.2l-1.6-1.9h-2.4l-0.6-2.4l-1.3-1.3l-1.8-0.9H140l-1.8,1.8h-2.8l-1.4,1.4l-2.3-0.3l-1.9-1.9
	h-3.6l-1.9-1.2l-2.5,0.2l-1.5-1.5h-2.9l-1.5-1.5l-1-2.2l-2.6,2.2l-0.3,2.1l-1.5,1.5l-0.3,3.5l-0.9,2l-1,1.8H106l-1,2.8l0.3,1
	l2.3,1.3l0.6,3.4l2.1,2.1l2.3,1.3l1.6,1.6l3.3,0.8l2.6-0.8l2.8,0.8v1.8l1.3,1.3l1.3,2.5l1.8,1.4l1,1.9l1.1-1.4h1.9l1.3-1.9
	L135.1,360L135.1,360z"/>
<path id="MOS" fill="#DDDDDD" stroke="#FFFFFF" d="M150.7,388l-0.8-1.6v-2.2l-1.6-0.7l-0.8-2.2l1.9-1.4l-0.1-2.2l1.4-1.4l0.6-2.1
	l1.9-0.9l-0.5-2l1.2-1.4l-2.2-0.6l-2.3-1.3h-2.8l-1.7-1.7h-2.6l-2.2-1.2l-1.4-1h-2.5l-0.3-1.8l-0.9-0.1V360l-2.6,1l-1.3,1.9h-1.9
	l-1.1,1.4l-0.8,2.8l-3,1.3l-2.3,2.3l-1.2,1.8l2.3,0.7l1.1,2.1l1.7,1.8h2.7l1,2l1.1,1.8l-2.1,3.5v2.5l1.5,2.4l2.1,0.4v1.8l-0.7,2
	l0.6,2l-0.8,2.8l0.3,2.3l2.5-0.4l0.4-1.8l2-0.4l0.7,0.7l3-0.1l0.9-0.9l2.6,0.5l1.6,0.6l1.7-0.4l0.7-0.7l1.9,0.2h2l-0.1-2.4l1.1-0.5
	l0.6-1.7l0.2-3.2l-1.3-1.3L150.7,388L150.7,388z M142.5,379.6l-1.1,1.4l0.4,1.8h-2.3l-0.6-0.6l-0.7-0.7l-1.2,1.2l-1.7,0.1l0.7-1.8
	v-1.5v-1.7l1.2,0.2l1.1-1.5l-0.4-0.9l1.1-0.9l1.5-0.4l-0.1,1.1l0.6,1.1l0.1,0.2l1.6,0.7l1.1,1.1L142.5,379.6L142.5,379.6z"/>
<polygon id="MOW" fill="#DDDDDD" stroke="#FFFFFF" points="141,376.6 140.9,376.3 140.4,375.3 140.4,374.2 138.9,374.6 137.9,375.5 
	138.2,376.4 137.2,377.9 136,377.8 136,379.4 136,380.9 135.3,382.8 137,382.7 138.2,381.4 138.9,382.1 139.5,382.8 141.8,382.8 
	141.4,381 142.5,379.6 143.7,378.4 142.6,377.3 141,376.6 "/>
<g id="NEN">
	<polygon id="polygon337" fill="#DDDDDD" stroke="#FFFFFF" points="375.4,281.7 372.9,282.9 371.1,283.5 371.6,287.5 371.9,289.6 
		373.5,290 374.2,293.2 377.3,293.5 378.4,290.9 376.9,288.4 377,285.5 375.4,281.7 	"/>
	<polygon id="polygon339" fill="#DDDDDD" stroke="#FFFFFF" points="321.8,268.6 318.5,269.5 316.5,272 315,274 316.1,276.9 
		318.5,277.8 320.8,278.7 322.9,277.2 325.5,277.6 326.8,274.5 324.7,271.7 324.5,269.5 321.8,268.6 	"/>
	<path id="path341" fill="#DDDDDD" stroke="#FFFFFF" d="M396.9,309l-1.4,2l-1.6,1.6l-1,1l1.6,1.5l0.3,1.3l1.3,0.4v2.6v3.1h-1.6
		l-1.9-1.1h-1.9l-3.3,2.8l-2.9,0.2l-1.3,3.2l-4.4-0.8l-1.2,1.9l-1.9,1.9l-1.9,1.1l-3.7,1.3l-3.2,0.8l-3.8-1.9l-2,0.4l-2.3-1.9
		l-4.4-1.8l-4.5-2.9l-3.3-1.3l-5.4-2.1l-2.7-2.7l-3.3-0.3L330,316l-2.6-2.6l-4-1.8l-4-3.4l-3.7,0.4l-2.8,1.8l-17.3,0.1l-1.4-1.4
		l-3.2-1.5l-0.3,1l-2.8,1l-1.6-0.6l-2-2.3l-1.5-1.5l-0.7-2.8l-2.6-2.6l-1.5-1.9l-0.9-3.5l-1.3-2.8l-1.3-1.7l4-0.8l3.3-4.8v-4.2
		l1.3-2.8l4.3-2.2v-2.7l4.2-2.5v-4.2l-0.7-4h2.8l0.9,2.1l3.8,3.8l2.8,4.3v5.8l-1,3l-1.5,1.5l-2.5-2.5l-3.5-0.8l-5.3,1.8v4.3l1.3,4
		v3.3l3.8,1l3.7,1.7l4.2-2v-3l4.3-1l4.2,2l-0.7-2.7l6.5,1.2l3.5-0.7l6.3,0.8h3.7l1.8,3.3h1.7v-3l5.3-1.7h2.8l1.2,4.3h-3l-1,3
		l-2.5,0.8l3.8,3.5h2.7l5-2.2l4.8,0.9l5.2,5.2l1.8-1.8h3.5l4.4-1.4l1.8,1.8l-0.5,2.3l-2.7,1.8v2.8l3.2,2.7l0.3-3.1l1.4-1.4l3.3,0.8
		V306l3.2-0.5l0.7-4l-0.5-4.8l3-1.5l2.6-0.8l3.1,3.1l1.3-1.3l3.4,4.3l3.9,3.9l3.2,3.2L396.9,309L396.9,309z"/>
</g>
<g id="YAN">
	<polygon id="polygon344" fill="#DDDDDD" stroke="#FFFFFF" points="469.6,278.4 467.9,280.1 466.1,281.6 467.8,282.8 469.1,281.6 
		471.3,281.6 473.2,279.8 471.4,277.9 469.6,278.4 	"/>
	<polygon id="polygon346" fill="#DDDDDD" stroke="#FFFFFF" points="464.1,261.6 462.8,262.8 463.7,264.2 465.5,263 467.8,263.6 
		467.2,262.2 464.1,261.6 	"/>
	<polygon id="polygon348" fill="#DDDDDD" stroke="#FFFFFF" points="457.2,267.7 456.4,269.6 457.6,270.7 459,269 457.2,267.7 	"/>
	<polygon id="polygon350" fill="#DDDDDD" stroke="#FFFFFF" points="441,257.8 439.3,259 440,260.4 438.7,262.1 439,263.1 
		441.8,263.9 444.3,262.7 445.8,262.8 445.8,261.3 443.4,260.7 444.6,259.3 443.3,257.4 441.6,258 441,257.8 	"/>
	<path id="path352" fill="#DDDDDD" stroke="#FFFFFF" d="M392.3,326.9l0.3-1.8l1.3-0.7l0.8-1.8h1.6v-5.7l-1.3-0.4l-0.3-1.3l-1.6-1.5
		l2.6-2.6l1.4-2l1.3,2.7l3.9,3.9l2.7,4.2l2.8,3.8v3.3l2.3,3.7l3.3-2v-3.5l3.8-3.5l-2.7-0.8l-1.8-4.3l0.7-4.7l-3.2-2.2l-1.8-3.6
		l1.6-1.6l3.3-1.7v-2.7l0.8-4l1.5-2v-2.5l-2.2-0.7l1.2-3.3l1.8-2.3l3.3-1.2l3.6-1.8l1.3-1.3l2.8-2.8l2.2-4.8l1.7-4l1.8-4l3.2-1.7
		l2,2.8h4l2,2h3.5l1.5,5.7l-1.7,1.7L447,282l-4.8,4.8l-1.3,4.3l2.8,2.5l-1,5.7l-0.8,4.5l-3.3,5l-1.2,7.2l-1.8,6.3l-1.3,3.2l1.3,4.4
		l2.9,2.9l-0.5,2.7l-3.7,2.8l-0.7,6.2l-3.7,1l-4.3,4.3l-2.5,3.7l-2.3,1.3l-4.2-0.8l-2.5,1.7l-2.8-1.8l-1.8-1.8l-2.5-0.8v3.2l2.5,3.8
		l2.5,1.2l3.3,2.3l2.8-0.2l2,2.8h3l0.6-2.9l1.8-1.8h2.2l1-1l4.2-1.2l3.3-1.8v-3.5l1.5-1.5l2.6-2.6l2.1-2.1l1-4l-0.8-3.5l-0.3-3.2
		l2.3-2.3l2.3-2.3h3.5l3.8-0.5l1.1,3.2l1.6,1.6l2,5.2l-2.7,2.7l0.2,4v2.5l3.3,3.3l3.8,0.8v-2.3l-3.8-1.1l-1.4-1.4v-2l-0.3-3l2.7-0.8
		l1-2.2l-1-3.2l1.2-2.7l-1.7-3.3l-2.2-2l-1.3-1.3l-4.1-1.4l-2.3-2.3l-1.9,1.9l-2.5,1.2l-1.3-1.8h-3l-0.5-3.2l2-2l-0.5-5.3l2.3-3.7
		l1.5-4.3l3.3-3.3l-1.2-3.7l-1-3.2l0.4-3.4l-2.4-2.4l2.7-2.7l4.2-4.2h3.5l2-3.2l1.3-3.5l-1.2-2.8l1.2-2.5h2.7l-0.8,3.5v4.8l-0.7,4.3
		l-3,3v4.2v3l3.5,2.7l2,1.7l2.6-1.6l2.6,2.6l2.8,2.7v-2l-1.1-2.6l-1.9-1.9l-3-1.5V294l-2.5-2.5l-1.2-3.7l3.5-2.3l1.7,1.7l2.7,2.7
		l2-1.8l-0.7-2.2L470,284l1.9-1.9l0.2,2h1.6l0.7,1.8l1.3,1.3l2.3,0.6l2.3,1.3l0.6,2.2l-1.6,1.6l0.3,1.8l-3.2,0.5l-1.4,1.4l-0.9,0.9
		l1,2.2l0.8-0.8l1,2l3.6,2l-0.3,4v5.8h-3.3l-1.3,2l-2.5,2.5l-3,2.3l0.2,3.1l1.5,1.5l0.5,1.8l2.1,2.1l3.2,0.5l0.4,2.2l1.1,1.1l2-1.8
		l1,1l2-1.9l-0.1,3.3l2.6,0.5v2.6l1.6,3.8l-0.9,2.4H486l1.3,2.5L486,347l-1.8,1.8l-0.6,2l-2.3-0.5l-0.1,2.7l1.6,1.6l0.5,3l-1.4,2.5
		l1.5,1.5v2.3l3.7,2.2l1.4,2.9l-2.3,2.1v1.7l1.2,2v3l-1.5,1.2l1.8,3.3h2l2,2l1.5,3l0.3,3.8l-1.7,1.7l0.8,3.5l3.8,0.8l1.9,1.9
		l1.9-1.9l0.7,4l-0.7,3.5l1.2,2.7l-2.3,2.3l-2.4,3.1l-1.7,3.2l2.5,3.5v4.2l-2.4,2.4l-0.3,3.8l-1.4,1.4l-3.9,3.9l-3.5-4.3h-2.3
		l-2.5,0.8l-2.5-4.2l-4.8-1.5l-1.6,1.6l-3.4-4.4l-1.3-3.5l-3.5,2.3l-3,1.7l-1.3,2.3H454h-6.2l-2.7-2.7l-3.5-1.8l1.2-3.2l-4.5-1.8
		l-1.6,1.6l-2.7-2.7l-4.1-1.1l-2.8,0.7l-3.3-3.5H421l-2.5-4h-2.8l-5.8,0.7l-1.2-3.3l0.8-3.3l-3.8-3.8v-2.9l-0.9-4.5l-4-4h-4.5
		l-1.8,1.8l-2.5-2.5l-2.3,2.3l-4.5-0.8l-2.5-2.8l2.9-2.9l-3.8-3.3l-3.8-2l-3.5,1.5l-3.5-1.5l-4.5,1l-3.3-3.3l-2.8-2.8l-1.6-1.6
		l3.1-3.1l1.3-4.1l-0.7-4.5l0.3-5.5l4.3,0.2v-3.7l5.3-3l5.3-1.2h5.7l1.2-3.7h3.2l3-3l4-2l-2.6-2.6l3.1-1.3v-2.2L392,328L392.3,326.9
		L392.3,326.9z"/>
</g>
<g id="KHA">
	<polygon id="polygon355" fill="#DDDDDD" stroke="#FFFFFF" points="890.7,410.8 889.3,412.4 889.3,414.4 889.3,416.6 891.7,415.5 
		893,416.8 894.5,415.4 895.1,412.5 893.5,410.2 890.7,410.8 	"/>
	<path id="path357" fill="#DDDDDD" stroke="#FFFFFF" d="M840.3,436.8l-1.9-4.4v-3.3l-2.2-2.2l1.9-1.9l0.6-4.3l-4.6-2h-3.7l-0.4-2.2
		l2.6-0.5l-1.4-2.7l0.7-5.1l-3.1-0.5l-3.1-3.2l2.7-0.6l0.3-4l-1.2-1.2l-0.7-2.1l1-2.6l-2.1-2.1l1.8-2.4L826,388v-3.6l3.4-1.8
		l2.3-1.3l2.7,0.3l2.2-2.2l3-1.2l0.4-2.9l-1.9-1.9l1.1-2.8l3.9-0.7l5.1-5.1l-0.2-5.7l3.6-1.2V356l-3.6-3.6l-0.8-2.5l-4-4l-2.6-0.6
		l-0.5-3.2l0.6-3.9l-2-2l3.1-4v-3.5l0.2-4.4l-1.6-1.6l-0.8-3.1l-1.5-1.5l-0.1-3.9l2.9-0.6l2.5,0.6l3.2,1.8l3.2-1.7l2.6-0.8l2.6-2.6
		l1.9-3.3l2.5,0.1l1.5-0.9l1.1,1.1l1.4-0.5v-2.8l-0.2-4.6l2.7,0.1l3.4-4l6.4,0.4l6,3.5l2.3,0.8v2.5l2.5,3.4l-3.1,1.8v3.8l1.9,2.8
		l2.3-0.1l2.5-3l2.9,0.1l2,1l1.5-1.4h2l3.6,3.6l0.8,2.6h-2l-2,1.8l1.3,2.2l1,1l-2.8,1.8h-3.8l-3.8,3.7l-2.4,2.4l-2.7,4.5l-2.8,2.8
		l-2.8,5.7l-0.5,5.5l2.7,5.3l-2.5,2.5l-0.8,5.3l1.5,3.8l2.3,2.3l-2,3.3v4.5v6l-1,4.2v5.7l1.7,1.8v4v4.5l-1.5,5.7v4.7l-2.5,4.2v4.2
		l-1.3,3.7l1.5,3.4h2.5l2-2h2.7l2.2-2.2l2.4-2.4l1.7,1.7l2,1v2.2l1.6,2.9l2,2l1.8-1.8V427l-2.3-1v-2.5l1.8-2v1.7l2,1.5l1-0.3l1,1v3
		v2.2l3.3-1.3v-1.7l1.8-2.5l1.2-1l1.8,1.3l0.4-2.8L909,421l-1.5-2.8l-1.8-3.3l3-1.7l1.8-1.8l3.7-0.8h4.3l3.6,0.4l1.6,1.6l4.7-0.7
		l3.2-1l2.1,2.1l-1.6,1.6l-1.2,1.2l-1,1.8h2.8h3l0.7,2.2l2.5,2.5l3.1-0.4l1.6,1.6l1.7,3.2l0.5,6.3l2.2,6.7l3.4,4.9l4.3,4.3l1.7,1.7
		l0.8,2.8l3.3,3.3l2.3,4l0.8,2.3l3.1,4.8l2.6,2.6v7l-1,6l1.8,6l-2.7,2.3l-2.8-2.1l0.8-1.7l-1-2.1l-2.4,0.1l-1.8-1.8l-2.3-1.8l-2,0.3
		l-1.2,4.6l-3.3,2.8l0.6,2.3l3.1,0.4l0.8,2.4l2.8-0.3l1.1-2.1l1.3,0.4l1.3,3.2l-0.4,3.3l-1,2.4l-4,1.4l-0.6,2.8l2,0.6v4.7l-2.6,3.3
		l-3.4,0.5l-0.3,1.1l-3.4-0.5l-0.8,1.1l-2.3,0.1l-0.7-0.7l-2.3-0.7l-2.9,4l-0.4,3.2l1.8,1.8v1.4l-3.3,0.4l-0.8-3.7l-4-3.8l2.5-2.5
		v-3.7l-2.1-2.1l-2.4-2.4l-0.7-2.2l0.4-1.9l-1.1-1.1l0.3-2.7l-2.9,1.1l-3.4,0.4l-1.7,3.1l-4.6,1l-2.1,2.9l-3.3-3.9l-2.7-1.3
		l-2.5,1.1l-1.3,0.7l-2.8-0.5l-2.7,0.4l0.3,3.5l-1.5,1.5l-1.6,2.9l-1.9-0.5l-0.1-4l-1.9-1.4l-1.4-0.4l-0.3-2.4l-3.1-2.3l-0.6-2.6
		l-3.6-0.4l-1.4,1.4l-1.9-2.9H880l-1.8-1.8l-0.7-6.7l1.6-2.9l-2-3l2.3-2.7l0.1-2.3l2.8-2.6l0.4-4.8l3-3.4l-0.1-2.2l-3.4-3.4l1.3-1.8
		l2.9,0.1l5.4-2l1.2-4.1l-3.1-2.1L889,447l-2.9-2.9l-3.1,0.3l-1.8,3.1l-1.7,1.7l-3.2,0.6l-0.9,2.6l0.7,3.1l-1.1,1.1l-3.2,1.2
		l-1.6,2.2l-1.5,2.3l-2.1-0.1l-2,1.8l-4.6-6.3l-2.6,0.9l-1.4,1.3l-4.1-0.6l-2.1-2.6l1.2-2.8l2-1.1v-2.3l-1.8-3l0.9-2.3l1.1,0.1v-5.1
		l2.1-2.9l-0.1-2.3l1.1-2.9l-3-1.7l-3,0.6l-2.3,2.3l-2.7,0.4l-1.9,2.4l-2.1,1.1L840.3,436.8L840.3,436.8z"/>
</g>
<path id="KDA" fill="#DDDDDD" stroke="#FFFFFF" d="M72.6,502.4l-1.3-1.7l-1.8-0.8l-1.8-2.8l-1.4-1.4l2.3-1.8l-0.5-2.6l1.8-0.6
	l-1.3-1.3l-4.5-4.8l-1.9,1.1l-1.8-1.8l0.2-1.7l0.6-2.2l-2.3-1l-1.5,1.5l-2-1.8l-1.8-1.3l-2-0.3l-0.7,2.2l1.3,2.5l-0.5,4.2l-2.5-0.8
	h-2l-3.8,0.2l-2.8,1.2l-1.2,2.5l-2.5-0.8l-2.7-3.3l-2,0.3l-1.8,1.8l0.8,3.3l-1,3l1.3,2.7l2,1.8l-0.3,5l1.7,2.5l1.3,2.8l0.7,5.7
	l-0.5,7.7l1.3,4l2.2-0.3l1.7,2.3l1.3,1.7l1.8,0.3l2-2l2.4-0.4l1.7-1.7h1.7l0.9,2l1.4,2.1H58l2.5-3.1l0.9-1.8l-0.6-2.4l1.8-0.5
	l2.8-2.1l-1.6-1.6l1.4-2.2l-1-2l-1.3-1.1l1.4-2v-2l1.3-1.4l1.3,0.4l0.9,1.4l2.3-0.3l1.5-1.5l-0.3-3.4L72.6,502.4L72.6,502.4z
	 M55.3,511.6v3.7l-0.9,1.8l-0.7-2.2l-1.6,0.7l-1.5,1.5l-1.8,2.5l-1.8,1.8l-1.2,1v1.3L44,524l-0.8,0.8l-0.9-1.8l-2.6-3.1l1.5-1.5
	l1.3,0.6h3.6l0.4-1.3l-0.6-1.6v-2.8h1.6l1-1.9l1.8,0.1l1.1-1.1l-1-2.3l-1.8-1.1l-0.5,0.6h-1.7l-1.2-1.3l-1.4-1.4l-0.9-0.9l-0.8-1.5
	v-1.6l1-0.4l1.2,1.2l0.8,0.8l1,1.6l2.1,0.6l0.9-0.4l2.1,0.7l0.5,1.8l1.5,0.8l1,1l1.1,0.8V511.6L55.3,511.6L55.3,511.6z"/>
<polygon id="STA" fill="#DDDDDD" stroke="#FFFFFF" points="76.8,550.5 77.5,549.2 75.6,547.9 74.4,546.6 72.1,547.1 69,544.1 
	68.4,542.1 65.8,541.6 63.2,540.7 64,538.9 63.3,537.2 61.9,535.9 62.8,534.4 65.7,534.4 64.8,533 64.3,530.9 62.5,529.7 
	62.5,527.1 60.5,526.4 61.4,524.6 60.8,522.2 62.5,521.7 65.3,519.6 63.6,518 65,515.8 64,513.8 62.8,512.7 64.1,510.7 64.1,508.7 
	65.4,507.3 66.7,507.7 67.6,509.1 69.9,508.8 71.3,507.3 73.2,507.3 74.4,508.6 76.3,509.6 77,511.7 78.7,511.7 80.1,511.2 
	80.8,513.4 82.2,514.8 85.1,514.2 87,515 87.3,517.5 88.9,519.3 89.4,521.4 91,523 92.1,526 90.9,528.2 92.2,530.5 93.9,532.2 
	95.2,534 95.2,536 97,537.7 97.4,540.3 98.8,542.4 98.8,546.2 96.2,547.9 93.7,548.7 91.5,548 90.2,549.2 91,550.6 89.8,551.7 
	87.8,551.7 87.8,553.1 89.5,554 88.5,556.6 85.8,556.6 84.5,555.4 84.5,554.2 83.3,554.3 82.1,556 80.7,556.2 80,553.4 76.8,550.5 
	"/>
<polygon id="CE" fill="#DDDDDD" stroke="#FFFFFF" points="91.1,559.4 92.8,561.7 96.2,562 96.5,565.8 94.8,566.4 91.7,568.1 
	88.8,571.6 87.8,575.5 85,573.9 83.3,575.2 80.5,575 78.7,576.4 75.8,576.8 76.8,574 74.3,571.3 76.9,569.5 78.8,566.3 80.4,562.9 
	81.1,560.3 78.4,558.3 77.3,556.1 80.7,556.2 82.3,555.6 83.3,554.3 84.5,554.2 84.5,555.4 85.8,556.6 88.5,556.6 91.1,559.4 "/>
<polygon id="KB" fill="#DDDDDD" stroke="#FFFFFF" points="55.3,544.3 57.3,543.5 59.3,541.5 60.9,541.7 63.2,540.7 65.8,541.6 
	68.4,542.1 69,544.1 72.1,547.1 74.4,546.6 75.6,547.9 77.5,549.2 76.8,550.5 75.5,551.6 75.5,553.6 74.3,554.8 71.3,555 70.3,556 
	68.8,554.6 66.5,554.6 65,555.5 63.6,555.2 61.3,556 59,553.8 59.7,550.5 56.8,548.1 55.3,544.3 "/>
<polygon id="VGG" fill="#DDDDDD" stroke="#FFFFFF" points="131.9,455.5 131.7,458.4 132.7,462.4 136.5,462.8 138.7,464 138.7,466 
	142,465.9 146,469.7 146.5,474.3 143.4,477.2 145.6,479.3 146.9,478.1 149.2,479 149.9,482.3 151.5,483.9 153.9,483.9 154.3,486.4 
	156.4,488.4 156.5,491.8 155.3,494.5 153.2,496 149.9,496 147.3,498.6 145.2,500.8 145.2,503.8 142.3,505 139.3,504.8 137.2,507 
	136,503.5 134.1,501.6 131.7,503.1 128.3,503 126.6,501.3 122.6,502.3 121.5,505.3 118.5,504.6 116.7,502.9 116.7,500.8 
	115.1,500.2 113.9,503.5 112.2,504.2 110.5,502.5 108.5,503.3 106.7,501.5 103.7,504.2 100.1,500.8 99.3,497.8 100.3,495 100.3,492 
	96.6,489.3 98.7,487.2 98.7,485.1 101.5,484 103.7,486.2 107.2,485.6 109.5,481.1 108,475.1 112,471.2 113.3,467.6 111,464 
	110.8,461.8 114.7,457.9 115.9,453.9 120.7,453.9 123,451.8 125.4,452.3 126,454.1 128.6,455.5 131.9,455.5 "/>
<polygon id="ROS" fill="#DDDDDD" stroke="#FFFFFF" points="103.7,507.8 103.7,504.2 100.1,500.8 99.3,497.8 100.3,495 100.3,492 
	96.6,489.3 98.7,487.2 98.7,485.1 101.5,484 103.7,486.2 107.2,485.6 109.5,481.1 108,475.1 112,471.2 113.3,467.6 111,464 
	110.8,461.8 106.5,461.8 105,463.3 102.7,463.3 101.5,461.7 98.6,461.7 98.6,459.6 97.3,458.3 96,460 94.8,462.8 88.7,463.6 
	88.8,466.3 86.5,466 84.2,468.3 84.8,472 82.3,473.5 78.7,477.1 74.7,472.8 72,470 69.2,471.1 66,469.8 62.3,471.5 59.8,474.1 
	61.8,474.8 63.7,476.6 66.5,477.3 68.5,478.8 67.8,481.8 65,480.6 61.2,480.1 60.6,482.3 60.4,484 62.2,485.8 64.1,484.6 
	69.9,490.7 68.1,491.3 68.6,493.9 66.3,495.7 67.7,497 69.5,499.9 71.3,500.7 72.6,502.4 71.1,504 71.3,507.3 73.2,507.3 
	74.4,508.6 76.5,506.9 78.1,508.1 81.2,508.1 82.4,506.9 82.4,505.2 84.3,505.2 85.2,507.6 85.2,509.8 86.8,511.4 88.8,511.9 
	89.4,514.8 90,516.9 91.3,518.2 93.1,518.9 93.9,518.1 95.9,518.6 99.4,514.9 103.2,514.9 106.6,512.4 108.3,509.1 108.3,506.6 
	105.8,507.9 103.7,507.8 "/>
<path id="AST" fill="#DDDDDD" stroke="#FFFFFF" d="M137.2,507l-1.2-3.5l-1.9-1.9l-2.4,1.6l-3.4-0.1l-1.7-1.7l-3.9,1l-1.2,3l1,3.3
	l1.9,1.3l-1,5.3l0.3,3.2l1.6,2.1l3.7,0.1l-0.9,4.1l-1.9,1.1L125,530l1.7,1.7l-1.1,2.7l-3.5-0.3l-0.3,2.1h-1.2l-0.3-1.3l-1.9-0.8
	l-1.3,1.3l1.2,1.6v2l1.1,1.1v1.6l-5.4,3.8l0.5,1.3l2.3,0.1l1.8,1.3l3,0.5l1.2,1.2l2.5,0.7l1.3,1.3l3.6-0.3h1.5h1.8h2.3l2.8-0.3
	l1.7-1.7l-2.1-2.1l-1.4-2.9l-0.3-3l2.5,0.3l1.7,1.8l1.8-1.8v-4.6l-0.9-5.7l0.8-4.3l-2-2l-3.2-3L135,521l2.2-2.2l1-4.3l-2.4-2.4
	l-1.1-3.3L137.2,507L137.2,507z"/>
<polygon id="ORL" fill="#DDDDDD" stroke="#FFFFFF" points="93.2,396 91.4,396 89.6,397.8 90.5,399.2 92.3,399.9 93.5,400.9 
	93.5,403.6 95.4,404.1 95.9,405.7 97.7,406.5 98.2,410.2 100,413.3 100.6,417.1 102.4,417.5 103.8,418.8 105.8,417.2 107.9,417.2 
	109.4,415.7 108.5,414 111.8,412 112.8,409.7 115.4,408.8 114.3,405.1 115.4,404 112.4,402 110.3,397.7 109.1,392 105.4,390.5 
	102.8,390.5 100.3,389.7 99.3,390.7 98.8,392.8 97.9,393.7 96.5,392.4 94.7,392.4 93.1,393 93.6,394.5 93.2,396 "/>
<polygon id="LIP" fill="#DDDDDD" stroke="#FFFFFF" points="126.8,408.8 124.4,409 123.6,410.5 121.1,410.5 120.2,412.4 118.3,412.4 
	116.6,410 115.4,408.8 112.8,409.7 111.8,412 108.5,414 109.4,415.7 107.9,417.2 105.8,417.2 103.8,418.8 103.8,421.6 105.9,422 
	108.2,423.5 111.1,423.9 112.4,426.5 115.4,427.5 114.8,430.5 116.8,432.5 119.4,432.8 122,436.3 123.9,434.7 125.8,434.7 
	126.3,432 124.5,430.2 124.9,427.8 123.9,426.5 124.5,424.7 126.8,424 129.5,421.2 132.9,418.8 132.3,414.4 130,412.1 127.9,413.5 
	126.8,411.8 127.7,410.1 126.8,408.8 "/>
<path id="TUL" fill="#DDDDDD" stroke="#FFFFFF" d="M131.7,400.6l-1.3,2.3v2l-1.8,1.3l-1.8,2.6l-2.4,0.2l-0.8,1.5h-2.5l-0.9,1.9h-1.9
	l-1.7-2.4l-1.2-1.2l-1.2-3.7l1.2-1.6l-3-1.6l-2.2-4.3l-1.2-5.8l2.3-3.2l1.5,0.6l1.4-1.4l2.8-0.8l1.7,0.9l1.9,1.9l2.2-0.4v-1.9
	l0.9-0.9l2.4,1.6l2.5-1.7l1.5,2.4l2.1,0.4v1.8l-0.7,2l0.6,2l-0.8,2.8L131.7,400.6L131.7,400.6z"/>
<polygon id="RYA" fill="#DDDDDD" stroke="#FFFFFF" points="132.9,418.8 132.3,414.4 130,412.1 127.9,413.5 126.8,411.8 127.7,410.1 
	126.8,408.8 128.7,406.2 130.4,404.9 130.4,402.9 131.7,400.6 134.3,400.2 134.6,398.4 136.7,398 137.4,398.7 140.4,398.5 
	141.3,397.6 143.9,398.1 145.4,398.7 147.2,398.3 147.9,397.5 149.8,397.7 151.8,397.7 153.4,399 152.8,401 155.3,401.8 155.7,404 
	157.5,404.5 159.6,408 159.6,411 161.2,412.1 162.3,413.2 162.3,414.8 162.9,416.3 161.3,417.9 159.3,418.4 158.3,419.5 156.7,421 
	154.8,421 154.8,422.3 153.3,423.8 151.4,425.1 149.8,424.4 147.9,422.3 146.3,422.4 144.4,420.6 142.5,422.7 139.5,422.3 
	138.4,419.5 135.3,418.6 132.9,418.8 "/>
<polygon id="TAM" fill="#DDDDDD" stroke="#FFFFFF" points="131.8,450.9 134.2,449.8 135.8,449.7 137.4,448.1 140.3,446.5 
	143.6,444.5 144.6,442.8 147.3,442.8 147.7,437.6 146.3,435.1 146.9,430.7 146.3,428.1 147.9,426.5 149.8,424.4 147.9,422.3 
	146.3,422.4 144.4,420.6 142.5,422.7 139.5,422.3 138.4,419.5 135.3,418.6 132.9,418.8 129.5,421.2 126.8,424 124.5,424.7 
	123.9,426.5 124.9,427.8 124.5,430.2 126.3,432 125.8,434.7 123.9,434.7 122,436.3 123.5,437.7 122.6,440.3 124.6,442.3 
	127.8,443.6 128.9,445.7 130.8,447.6 131.8,450.9 "/>
<polygon id="MO" fill="#DDDDDD" stroke="#FFFFFF" points="162.9,416.3 164.7,418.2 167.8,418.2 168.6,420.5 170.2,422.1 
	170.2,425.3 172.3,427.4 173.1,430.1 175.8,430.9 177.1,428.8 181.1,428.8 181.9,427.9 184.7,427.7 184.3,429.8 185.5,431 
	187.2,431 188.2,433 186.5,435.4 187.3,437.2 185.9,438.6 185.5,441 181.2,441.6 179.6,439.9 176.9,441.8 174.6,441.5 172.4,439.3 
	170.3,437.3 167,437.3 166,438.2 162.6,435.2 162.6,432 160,429.3 158,429.3 155,428.1 153.5,426.6 151.7,427.2 151.4,425.1 
	153.3,423.8 154.8,422.3 154.8,421 156.7,421 159.3,418.4 161.3,417.9 162.9,416.3 "/>
<polygon id="PNZ" fill="#DDDDDD" stroke="#FFFFFF" points="149.8,424.4 151.4,425.1 151.7,427.2 153.5,426.6 155,428.1 158,429.3 
	160,429.3 162.6,432 162.6,435.2 166,438.2 167,437.3 170.3,437.3 174.6,441.5 176.9,441.8 178.5,444.2 178.5,448.4 176.9,450 
	176.9,452.3 178.2,453.6 177.5,455.4 176.3,456 174.7,458.9 172.7,461.8 170.8,459.4 168.3,460.1 166.2,460.1 162.7,458.3 
	158.9,456.7 156.6,455.1 155.8,452.2 152.3,452.3 149.7,450 147.9,449.3 146.4,447.8 146.1,445.8 143.6,444.5 144.6,442.8 
	147.3,442.8 147.7,437.6 146.3,435.1 146.9,430.7 146.3,428.1 149.8,424.4 "/>
<polygon id="SAR" fill="#DDDDDD" stroke="#FFFFFF" points="172.7,461.8 174,464.4 176.1,466.6 181.9,466.6 183.9,468.6 185.5,471.5 
	185.5,474.5 188.9,475.5 189.8,480 192.9,483.1 192.3,486.7 194.7,489.1 195.8,490.9 195.7,492.8 191.6,492 189.5,494.1 
	185.7,495.5 182.3,493.6 178.8,493.6 177.2,496.1 173.7,496.1 169.8,496.1 169,498 166.8,500.1 166.5,503.3 162.4,502.5 160,500.1 
	160,496.8 161.1,493.5 159.3,491.8 156.5,491.8 156.4,488.4 154.3,486.4 153.9,483.9 151.5,483.9 149.9,482.3 149.2,479 
	146.9,478.1 145.6,479.3 143.4,477.2 146.5,474.3 146,469.7 142,465.9 138.7,466 138.7,464 136.5,462.8 132.7,462.4 131.7,458.4 
	131.9,455.5 133.2,454.3 131.8,450.9 134.2,449.8 135.8,449.7 137.4,448.1 140.3,446.5 143.6,444.5 146.1,445.8 146.4,447.8 
	147.9,449.3 149.7,450 152.3,452.3 155.8,452.2 156.6,455.1 158.9,456.7 162.7,458.3 166.2,460.1 168.3,460.1 170.8,459.4 
	172.7,461.8 "/>
<polygon id="ULY" fill="#DDDDDD" stroke="#FFFFFF" points="187.3,437.2 191.7,440.2 191.7,443 195.1,442.2 197.6,443.3 200.2,445.9 
	202.6,448 205.2,447 206.5,448.4 207.4,452.3 209.8,454.7 210.7,456.8 208.4,460.3 205.3,461.8 203.8,463.2 201.3,459.8 
	197.8,458.4 196.2,460 193.1,456.6 191,458.8 188.1,458.1 185.9,460.3 185.9,464 187.4,465.5 186.9,468.1 183.9,468.6 181.9,466.6 
	176.1,466.6 174,464.4 172.7,461.8 174.7,458.9 176.3,456 177.5,455.4 178.2,453.6 176.9,452.3 176.9,450 178.5,448.4 178.5,444.2 
	176.9,441.8 179.6,439.9 181.2,441.6 185.5,441 185.9,438.6 187.3,437.2 "/>
<polygon id="SAM" fill="#DDDDDD" stroke="#FFFFFF" points="224.1,467.6 222.9,464.9 223.7,462.7 219.6,459.2 216.9,459.2 215,461.1 
	210.7,456.8 208.4,460.3 205.3,461.8 203.8,463.2 201.3,459.8 197.8,458.4 196.2,460 193.1,456.6 191,458.8 188.1,458.1 
	185.9,460.3 185.9,464 187.4,465.5 186.9,468.1 183.9,468.6 185.5,471.5 185.5,474.5 188.9,475.5 189.8,480 192.9,483.1 
	192.3,486.7 194.7,489.1 195.8,490.9 201.7,490.9 203.4,487.4 206.6,485.1 208.5,485.6 209.5,483.4 214,482.6 216.3,477.3 
	220.1,475.2 223,472.3 224.1,467.6 "/>
<polygon id="KGN" fill="#DDDDDD" stroke="#FFFFFF" points="308.6,479.5 313,476.6 315.6,477.7 317.7,477.7 320.2,478.8 322,478.1 
	324.3,482 328.2,479 331.8,479 333.1,480.7 331.2,484.2 334.1,488.3 336.1,489 336.1,492.7 338.7,493.2 340.6,495.1 343.5,495.1 
	344.5,497.3 346.8,497.6 346.2,500.7 352.8,504.8 353.3,509.8 351.3,512.6 347.2,512.6 343.5,513.6 340.5,512 336.8,512.6 
	332.3,512.6 328,510.4 326.3,510.4 324.3,512.3 321,513 317.8,511.3 315,511.3 311.2,510.1 305.5,510.3 306.4,507.9 308.8,505.4 
	307.5,502.1 304.2,502.1 303.7,500.6 301.6,500.5 299.7,498.6 300.3,496.3 302.5,496.3 304.1,494.7 303.1,491.5 304.8,489.9 
	307.6,489.9 309.2,487.4 308.7,483.2 308.6,479.5 "/>
<polygon id="BA" fill="#DDDDDD" stroke="#FFFFFF" points="286.5,469.2 284.4,471.4 282.4,468.5 280,468.5 276.1,465.7 274,462.7 
	272.1,463.5 270,462.8 268.7,458.3 265.9,457.8 264.5,454.7 261.1,454.7 257.6,452 257.6,450 255.6,449.2 253.8,451 247.3,452.8 
	246.3,453.9 247.7,456.1 247.7,458.3 244.2,460.9 241.7,460.9 239.8,461.8 238.8,460.8 237,461.7 237.6,464 237.6,465.4 
	238.7,466.6 237.4,467.9 235.3,470 233.4,470 232.8,471.6 231.6,473.5 229.6,474.3 230.4,475.8 230.3,480.1 231.5,481.4 230.6,486 
	232.5,487.2 234.7,489.4 236.1,493.1 236.1,496.7 237.2,499 236.3,501.3 236.3,504.5 235.6,506.1 237.5,507.2 239.3,505.5 
	242.1,505.5 243.1,507.3 242.1,509.8 239.4,510.9 240,512.2 241.8,512.6 241.3,515.9 240.2,517 240.8,519.5 242.4,519.5 242.7,521 
	244.7,523 246.7,522 248.2,520.5 249.9,521.4 250.6,523.1 252.3,524.4 254.5,525 256.6,523.3 258,520 259,518.3 261.6,517.1 
	262.1,514.6 264.3,510.5 266.1,510.5 266.1,507.6 268.3,504.7 268.3,502.8 271.7,499.4 274.3,498.5 274.3,497.3 277.1,497.1 
	278.3,498.7 280.2,498.7 280.2,495.5 279.1,491.8 275,490.5 273.2,491.7 269.1,491.3 267,487.9 266.5,483.4 264.9,481.8 
	264.2,478.6 267.8,475.9 270.3,476.7 273.1,478 274.9,479.9 274.9,482.2 278.4,483.4 280.6,481.2 284.4,480.3 284.4,478.3 
	286.4,474.6 287.2,472 286.5,469.2 "/>
<polygon id="VLG" fill="#DDDDDD" stroke="#FFFFFF" points="166.6,350 166.6,346.7 167.5,343.9 165.1,343.1 162.4,343.7 158.9,342 
	160.1,340.8 160.6,338.4 158.4,334.9 156,334.1 157.8,330.5 159.6,328.7 162.8,329.2 163.8,327.7 165.9,327.1 168.1,324.4 
	169,322.1 170.5,319.3 174.3,317.2 176.8,313.6 178.6,314.6 181.7,313 184.4,312 187.2,312.5 189.6,313.6 192.3,313 194.5,314.4 
	194.7,315.9 197,318.5 194.5,323.5 194.8,325.1 193.5,326.4 194.4,331 196.3,332.2 196.3,334.3 198.9,335.6 199.6,337.3 200.7,338 
	202.2,339.5 203.9,339.5 205.3,340.9 205.9,342.8 209.3,343 211.8,343.6 212.9,344.7 215,345.3 215.8,347.4 217.8,349.3 
	219.1,350.3 219.1,352 220.5,352.5 223.3,352.5 223.3,351.4 224.7,351.8 226.5,351.8 226.5,354 227.6,355.1 228.6,355.1 
	228.6,356.5 230.6,357.5 231.8,358.7 233.6,357 234.1,355.5 235.9,356.3 237.2,358.5 235.8,359.9 237.7,361 237.7,362 239.1,362 
	240.9,362.7 240.1,363.5 242.2,366.2 238.5,369.8 236.3,372.1 233.1,370.7 231.4,372.3 235,376.1 232.7,377.3 232.7,380.3 
	231.6,381.4 227.7,378 225.7,381.2 222,380.3 220.5,381.9 218.2,378.6 214.9,376.7 212.1,375.4 210.9,372.1 207.6,368.9 
	203.3,368.1 201.1,363.4 197.7,365 194.1,363.4 190,364.4 186.3,366 182.4,362.1 182.4,358.6 182.4,355.5 179.3,352.3 177.6,354 
	173.5,351.1 171.7,349.3 168.7,349.6 166.6,350 "/>
<polygon id="YAR" fill="#DDDDDD" stroke="#FFFFFF" points="163.4,351.4 166.6,350 168.7,349.6 171.7,349.3 173.5,351.1 177.6,354 
	179.3,352.3 182.4,355.5 182.4,362.1 186.3,366 186.3,368.9 182,369.1 180.9,371.4 178.7,371.4 175.5,374.8 173.5,374.8 
	172.6,377.1 169.2,376.4 167.6,374.8 163.8,374.8 161.5,377.1 158.7,377.1 157.3,378.5 155.4,376.5 153.5,375.1 153.2,373.4 
	152.7,371.4 153.9,370 155.8,368.1 159.1,366.1 157.9,363.4 157.9,361.8 159.7,359.9 158.9,357 159.9,354.9 162.3,354.9 
	163.4,351.4 "/>
<polygon id="KOS" fill="#DDDDDD" stroke="#FFFFFF" points="229.6,383.7 231.6,381.4 227.7,378 225.7,381.2 222,380.3 220.5,381.9 
	218.2,378.6 212.1,375.4 210.9,372.1 207.6,368.9 203.3,368.1 201.1,363.4 197.7,365 194.1,363.4 190,364.4 186.3,366 186.3,368.9 
	182,369.1 180.9,371.4 178.7,371.4 175.5,374.8 173.5,374.8 172.6,377.1 174.8,379.3 177.7,379.3 179.2,380.8 181.5,378.4 
	182.8,378.7 183.9,381.8 187.5,384.1 189.7,384.1 189.7,387.9 192.9,389.5 192.9,392.6 196.9,393.5 202,392.2 203.9,390.3 
	206.8,390.3 208,393.1 209.8,394.9 212.9,394.9 214.1,396 216.7,393.4 220.7,392 222.4,393.7 224.4,391.6 229,391.6 229.6,383.7 "/>
<polygon id="IVA" fill="#DDDDDD" stroke="#FFFFFF" points="161.5,377.1 163.8,374.8 167.6,374.8 169.2,376.4 172.6,377.1 
	174.8,379.3 177.7,379.3 179.2,380.8 181.5,378.4 182.8,378.7 183.9,381.8 187.5,384.1 189.7,384.1 189.7,387.9 192.9,389.5 
	192.9,392.6 189.6,392.6 188.2,396 184.9,396 182.5,393.6 180.6,395.5 179.8,399 177.6,401.2 173.3,401.7 169.7,402.8 171.1,397.6 
	172.9,393.2 168.5,388.8 166,386.3 161.8,384.9 161.8,382.5 163.2,379.9 161.5,377.1 "/>
<polygon id="VLA" fill="#DDDDDD" stroke="#FFFFFF" points="157.3,378.5 158.7,377.1 161.5,377.1 163.2,379.9 161.8,382.5 
	161.8,384.9 166,386.3 168.5,388.8 172.9,393.2 171.1,397.6 169.7,402.8 166.3,403.4 164.3,405.5 161.5,406.1 159.6,408 
	157.5,404.5 155.7,404 155.3,401.8 152.8,401 153.4,399 151.8,397.7 151.8,395.3 152.9,394.8 153.4,393.1 153.6,390 152.3,388.7 
	150.7,388 149.9,386.4 149.9,384.3 148.4,383.6 147.6,381.4 149.4,380 149.3,377.8 150.7,376.4 151.3,374.3 153.2,373.4 
	153.5,375.1 155.4,376.5 157.3,378.5 "/>
<polygon id="NIZ" fill="#DDDDDD" stroke="#FFFFFF" points="159.6,411 159.6,408 161.5,406.1 164.3,405.5 166.3,403.4 169.7,402.8 
	173.3,401.7 177.6,401.2 179.8,399 180.6,395.5 182.5,393.6 184.9,396 188.2,396 189.6,392.6 192.9,392.6 196.9,393.5 202,392.2 
	203.9,390.3 206.8,390.3 208,393.1 209.8,394.9 212.9,394.9 214.1,396 217.6,398.6 221.9,402.9 219.3,405.6 217.3,407.6 
	213.7,405.5 210.9,406.1 208.9,408 206.5,411.5 202,408.7 199.9,410.8 196.4,410.7 196.7,414.4 195,416.1 196.6,419.1 191.8,421.9 
	191.8,425.9 188.7,428.6 187.2,431 185.5,431 184.3,429.8 184.7,427.7 181.9,427.9 181.1,428.8 177.1,428.8 175.8,430.9 
	173.1,430.1 172.3,427.4 170.2,425.3 170.2,422.1 168.6,420.5 167.8,418.2 164.7,418.2 162.9,416.3 162.3,414.8 162.3,413.2 
	159.6,411 "/>
<polygon id="CU" fill="#DDDDDD" stroke="#FFFFFF" points="188.2,433 187.2,431 188.7,428.6 191.8,425.9 191.8,421.9 196.6,419.1 
	199.5,420.5 205.6,420.5 206.1,423.6 208,425.5 207.1,428.1 209,431.6 204.9,432.7 201.1,434.9 201.1,439 197.9,440.1 195,439 
	191.7,440.2 187.3,437.2 186.5,435.4 188.2,433 "/>
<polygon id="KIR" fill="#DDDDDD" stroke="#FFFFFF" points="206.5,411.5 208.9,408 210.9,406.1 213.7,405.5 217.3,407.6 221.9,402.9 
	217.6,398.6 214.1,396 216.7,393.4 220.7,392 222.4,393.7 224.4,391.6 229,391.6 229.6,383.7 231.6,381.4 232.7,380.3 232.7,377.3 
	235,376.1 231.4,372.3 233.1,370.7 236.3,372.1 242.2,366.2 244,364.6 245.3,365 248.4,368.8 247.8,370.6 249.3,371.4 249.6,373.9 
	247.6,376 247.6,379.3 244.4,380 244.4,382.2 242.2,384.4 242.2,386.9 243.9,388.7 243.9,391.2 244.7,393.8 243.6,396.1 
	244.8,397.3 246.7,395 247.9,391.6 250.8,390.9 253.9,392.3 255.8,394.2 258.4,391.7 259.8,393.1 260.6,395 263.1,394.7 
	264.6,393.1 267.3,393.1 268.9,394.7 271.9,396.1 274.1,398.4 276,399.9 275.5,402.8 272.7,405.2 270.1,406.2 267.1,409.2 
	267.1,411.9 268.8,413.6 267.9,416.3 267.9,419.1 264.3,421.4 261.3,421.4 261.2,418 257.8,418.2 253.9,414.4 250.8,416.6 
	248.9,419.8 248,422.7 245.9,424.8 243.1,424.8 241.4,423.2 238.4,426.4 238.4,431.2 235.6,434 233.6,436 232.1,439.8 229.3,436.6 
	228.4,432.5 228.4,429.9 227.6,427.4 227.6,422.1 224.8,420.5 223.6,416.6 220,415.9 217.2,414.2 216,416.3 214.1,414.4 
	211.1,416.1 208.4,414.4 206.5,411.5 "/>
<polygon id="ME" fill="#DDDDDD" stroke="#FFFFFF" points="199.9,410.8 202,408.7 206.5,411.5 208.4,414.4 211.1,416.1 214.1,414.4 
	216,416.3 217.2,414.2 220,415.9 223.6,416.6 224.8,420.5 227.6,422.1 227.6,427.4 228.4,429.9 225.5,431.5 223.5,429.5 
	219.8,429.5 218.3,427.9 214.4,430.2 209,431.6 207.1,428.1 208,425.5 206.1,423.6 205.6,420.5 199.5,420.5 196.6,419.1 195,416.1 
	196.7,414.4 196.4,410.7 199.9,410.8 "/>
<polygon id="TA" fill="#DDDDDD" stroke="#FFFFFF" points="246.3,453.9 247.7,456.1 247.7,458.3 244.2,460.9 241.7,460.9 
	239.8,461.8 238.8,460.8 237,461.7 237.6,464 237.6,465.4 238.7,466.6 235.3,470 233.4,470 231.6,473.5 229.6,474.3 227.7,472.4 
	229.6,470.4 226.8,467.6 224.1,467.6 222.9,464.9 223.7,462.7 219.6,459.2 216.9,459.2 215,461.1 210.7,456.8 209.8,454.7 
	207.4,452.3 206.5,448.4 205.2,447 202.6,448 197.6,443.3 195.1,442.2 191.7,443 191.7,440.2 195,439 197.9,440.1 201.1,439 
	201.1,434.9 204.9,432.7 209,431.6 214.4,430.2 218.3,427.9 219.8,429.5 223.5,429.5 225.5,431.5 228.4,429.9 228.4,432.5 
	229.3,436.6 232.1,439.8 235.5,440.2 237.1,442.4 240,443.7 241.1,445.4 243.1,445.4 243.4,448.5 245.7,450.2 243.5,451.5 
	243.7,452.9 246.3,453.9 "/>
<polygon id="UD" fill="#DDDDDD" stroke="#FFFFFF" points="233.6,436 238.4,431.2 238.4,426.4 241.4,423.2 243.1,424.8 245.9,424.8 
	248,422.7 248.9,419.8 250.8,416.6 253.9,414.4 257.8,418.2 261.2,418 261.3,421.4 264.3,421.4 263.5,425.1 263.4,429.3 261.3,433 
	260.8,437.1 258.9,441.3 253.4,444.1 253.4,446 255.6,449.2 253.8,451 247.3,452.8 246.3,453.9 243.7,452.9 243.5,451.5 
	245.7,450.2 243.4,448.5 243.1,445.4 241.1,445.4 240,443.7 237.1,442.4 235.5,440.2 232.1,439.8 233.6,436 "/>
<polygon id="KO" fill="#DDDDDD" stroke="#FFFFFF" points="392.7,321.5 390.8,321.5 387.4,324.3 384.5,324.5 383.2,327.6 
	378.8,326.9 377.6,328.8 375.7,330.7 373.8,331.8 370,333.1 366.8,333.9 363.1,332 361.1,332.4 358.8,330.5 354.4,328.7 
	349.9,325.8 346.6,324.5 341.2,322.4 338.5,319.7 335.3,319.4 330,316 327.4,313.3 323.3,311.5 319.3,308.1 315.7,308.5 
	312.9,310.4 295.6,310.5 293.8,312.3 292.8,314.8 291.7,316 291.7,317.1 290.5,318.3 289,319.8 289.7,321.2 291.6,323.1 
	292.4,324.7 291.3,327 291.8,329.2 293.1,330.5 291.6,333 290.1,334.5 289.1,333.5 287.6,333.5 285.5,331.8 283.3,331.3 
	281.6,330.2 279.3,331 277.4,332 276.9,329.5 274.3,326.8 271.8,325.4 269,324.8 267.6,323.4 265.6,322.7 263.3,321 261.2,321 
	261.6,323.2 261.6,325.2 263.3,327.7 265.1,329.5 264.4,331.8 264.4,334.2 262.2,335.6 261.5,338.2 262.8,339.4 263.1,342 
	262.7,343.5 260.3,343 258.4,343.5 257.8,345.1 257,345.9 257.3,347.7 255.3,348.7 255.6,351.6 257.3,352.4 258.9,352.9 
	260.3,354.4 261.8,352.2 262.9,352.6 263.8,350.5 266,350 267.5,350 268.6,351.1 270.3,350.3 270.4,352.5 271.8,354 269.8,356 
	268.3,356.7 266.1,358.9 263.5,360.5 263.3,362 261.3,363.2 260,364.5 261.8,366.4 260.4,368.8 258.8,370 257.3,371.7 255.7,371.4 
	255.3,370 252.7,370 251.3,369.6 251.4,370.8 249.3,371.4 249.6,373.9 247.6,376 247.6,379.3 244.4,380 244.4,382.2 242.2,384.4 
	242.2,386.9 243.9,388.7 243.9,391.2 244.7,393.8 243.6,396.1 244.8,397.3 246.7,395 247.9,391.6 250.8,390.9 253.9,392.3 
	255.8,394.2 258.4,391.7 259.8,393.1 260.6,395 263.1,394.7 264.6,393.1 267.3,393.1 269.9,392.1 269.9,390.1 268.2,388.4 
	269.8,385.4 273.1,387.2 274.3,386.1 275.5,387.2 277.1,385.6 279.3,386.4 280.1,387.7 279.8,389.9 281.5,392 283.6,391.2 
	287.3,392.9 289.6,395.2 292.3,393.9 295.3,395 296.9,393.3 298.6,393.9 299.8,395.1 301.5,394.5 302.5,392.4 304.3,392.4 
	308.1,395 311.9,397 316.1,398.6 321.9,399.5 322.8,397.1 324.3,395.6 324.9,392.6 329,388.5 329,386.2 330.4,383.6 329.8,380.7 
	332,376.5 335.4,374.4 335.8,371.4 339.8,368.9 339.1,365.2 340.6,362.4 344.1,358.9 346.6,356.4 348.8,357.1 348.8,359.7 
	351.6,359.4 354.8,356.2 357.9,354.6 359.6,352.6 362.8,352.1 367.2,352.3 367.2,348.6 372.5,345.6 377.8,344.5 383.5,344.5 
	384.7,340.8 387.8,340.8 390.8,337.8 394.8,335.8 392.3,333.2 395.3,332 395.3,329.8 392,328.1 392.5,325 393.8,324.4 394.6,322.5 
	392.7,321.5 "/>
<polygon id="PER" fill="#DDDDDD" stroke="#FFFFFF" points="267.9,419.1 264.3,421.4 263.5,425.1 263.4,429.3 261.3,433 260.8,437.1 
	258.9,441.3 253.4,444.1 253.4,446 255.6,449.2 257.6,450 257.6,452 261.1,454.7 264.5,454.7 265.9,457.8 268.7,458.3 270,462.8 
	272.1,463.5 274,462.7 276.2,460.3 277.5,459 277.5,456.1 278.6,453.9 279.6,454.9 282.9,454.9 285.6,453.5 286.4,450.4 
	288.1,447.5 290.4,447.5 292.4,450.5 293.6,449.2 295.4,447.4 294.1,446.1 294,444.5 297,442.5 299.9,443.1 301.9,441.4 304,439.4 
	302.2,437.5 302.2,436.3 303.9,434.6 305,430.9 302.9,427.5 302.9,423.2 305.6,420.9 308.5,420.9 310.8,418.6 313.3,414.9 
	316.6,411.9 318.5,407.2 318.5,403.9 321.9,402.1 321.9,399.5 316.1,398.6 311.9,397 308.1,395 304.3,392.4 302.5,392.4 
	301.5,394.5 299.8,395.1 298.6,393.9 296.9,393.3 295.3,395 292.3,393.9 289.6,395.2 287.3,392.9 283.6,391.2 281.5,392 
	279.8,389.9 280.1,387.7 279.3,386.4 277.1,385.6 275.5,387.2 274.3,386.1 273.1,387.2 269.8,385.4 268.2,388.4 269.9,390.1 
	269.9,392.1 267.3,393.1 268.9,394.7 271.9,396.1 274.1,398.4 276,399.9 275.5,402.8 272.7,405.2 270.1,406.2 267.1,409.2 
	267.1,411.9 268.8,413.6 267.9,416.3 267.9,419.1 "/>
<polygon id="BU" fill="#DDDDDD" stroke="#FFFFFF" points="685.5,592.1 679.7,591.3 677.3,589.8 669.7,590.9 664.9,590.9 661,594.8 
	656.7,595.8 652.5,597 646.5,596.5 642.4,594.7 639.8,592.1 637.4,587 634.3,584 630,582.3 625.8,582.3 621.1,583.5 617.8,580.3 
	611.3,580.3 607.5,577.5 605.6,579.4 605.4,576.2 603.8,574.6 603.2,571.8 604.9,570 604.9,567.1 606.9,565.1 611.3,560.7 
	612.4,559.6 613.9,558.1 616.3,559.5 615.8,561.7 618.9,563.2 620.8,565 624.9,566.2 626.8,568.1 628.9,569.2 631.3,571.6 
	636.6,570.5 638.6,572.6 641.1,574.7 643.8,574.7 643.8,577.1 645.6,580.1 648.4,580.1 650.4,580.1 651.3,583.1 655,581 657.8,581 
	657.8,576.1 661.6,572.2 666.1,566.9 668.4,561.1 674.3,555.2 681,547.1 682,535.2 684.4,527.4 680.8,526.2 678.9,517.2 
	677.3,509.9 678.5,507.5 680.3,505.7 677.4,503.7 674.6,502.9 673.6,498.4 678.9,494.5 681.5,494.5 681.5,491.1 684,490 
	687.6,491.2 691.4,489.9 691.4,486.6 694,484.7 695.4,486.2 699.6,486.2 702.1,484.5 703.7,486.1 708.9,487.1 711,485 713.3,486.2 
	716.6,482.9 719.1,482.9 719.1,476.4 722.1,474.9 724,471 727.1,471.7 728.6,473.2 725,476.6 725,481.1 728.1,482.7 729.4,486.7 
	731.4,489.1 732.6,493.4 735.5,496.5 738.1,495.5 741.8,497.3 744.4,499.9 745.4,502.5 743.9,507.6 740.1,508.7 737,511.9 
	734.6,515.7 732.9,519.6 730.1,522.4 728,526.5 729.3,530.6 731.9,531.4 731.9,533.4 733.9,535.4 732.8,539.5 726.4,545.7 
	722.7,547.4 720.5,549.6 717.6,550.7 716.9,555.5 714.6,557.7 712.1,558.7 710.5,564.4 707.9,564.4 704.6,563.9 700.3,568.2 
	698,569.4 696.1,568.6 694.3,568.6 692.4,570.5 692.4,573.6 693.8,575.2 691.6,576.1 691.6,582 694.6,581.6 696.6,583.6 691.1,589 
	691.8,592.1 685.5,592.1 "/>
<polygon id="ZAB" fill="#DDDDDD" stroke="#FFFFFF" points="789.5,537.3 790.5,530.1 791.8,527.3 790.5,522 788.2,519.6 786.1,517.5 
	783.5,519.6 781.7,517.3 783,514 784.8,508.5 787.4,505.9 792.7,502.8 790.3,498.6 789.2,496.5 786.3,496.5 785.5,492.9 
	784.1,490.7 786.6,489.2 786.6,488 785.3,488 783,485.6 781.2,485.4 781.6,481.1 780.5,479.2 779.3,476 776.7,474.6 774.8,477.3 
	772.8,476.5 772.6,473.7 771.3,472.4 769.3,471.8 767.3,473.9 766.3,476.4 762.8,475.5 761.8,473.4 763.8,470.9 762.6,469 
	760.3,469.7 757.4,469 755.4,466.9 755.4,464.9 752.7,464.2 752.7,461.3 750.2,460.4 747.6,457 743.9,455.7 743.1,451.9 
	741.4,450.1 739.4,451.7 737.3,451.7 735.8,450.1 733.1,449.9 730.2,452.8 731.4,454 730.1,456.9 731.6,458.4 730.3,461.8 
	735.1,466.6 737.8,465.5 737.8,467.6 739,468.7 738.4,472 735.8,473.6 734.3,476.5 730.5,475.5 728,476.9 725,476.6 725,481.1 
	728.1,482.7 729.4,486.7 731.4,489.1 732.6,493.4 735.5,496.5 738.1,495.5 741.8,497.3 744.4,499.9 745.4,502.5 743.9,507.6 
	740.1,508.7 737,511.9 734.6,515.7 732.9,519.6 730.1,522.4 728,526.5 729.3,530.6 731.9,531.4 731.9,533.4 733.9,535.4 
	732.8,539.5 728.9,543.2 726.4,545.7 722.7,547.4 720.5,549.6 717.6,550.7 716.9,555.5 714.6,557.7 712.1,558.7 711.3,561.9 
	710.5,564.4 707.9,564.4 704.6,563.9 700.3,568.2 698,569.4 696.1,568.6 694.3,568.6 692.4,570.5 692.4,573.6 693.8,575.2 
	691.6,576.1 691.6,582 694.6,581.6 696.6,583.6 691.1,589 691.8,592.1 694.2,594.5 695.5,597 700,598.5 705,597.8 711.8,597.8 
	716.7,596.3 722,596.3 724.1,594.2 728.2,590.1 733.5,587.6 737.3,585 740.3,582 741.7,577.1 747.7,571.1 751.8,569.3 755,570.5 
	758.5,572.3 763.2,569.6 766.5,567.6 771,568.5 777.2,569 782.7,567 785.9,563.7 788.2,558.5 791.7,557.5 791.7,552.8 790.2,551.3 
	787.7,546.5 789.5,541.8 789.5,537.3 "/>
<g id="IRK">
	<polygon id="polygon394" fill="#DDDDDD" stroke="#FFFFFF" points="737.3,443.6 735.9,439.8 733.8,439.6 733.8,437.2 731.6,434.8 
		729.8,433 727.1,433 727.1,435.5 724.8,437.9 721.1,437.3 721.1,434.9 719.6,433.6 719.6,430.6 716.3,430.1 712.6,428.4 709,428.8 
		705.5,428.3 703.5,430.7 702.5,433.9 700.2,436.3 701.1,439.5 699.9,443.3 696.8,446.4 696.8,452.2 692.4,455.2 692.4,458.7 
		690.5,456.1 690.5,453.2 688.3,451 686.2,451.9 685.7,454.6 680.2,456.7 677.6,456.7 676.6,459.8 674.9,462.3 671.3,462.6 
		667.3,458.6 666.9,450.2 667.4,445.2 667.4,440.6 668,436.4 668,432.3 665.1,431.1 663,430.4 662.7,428.4 661.8,426.1 659.9,424.2 
		659.9,422 661.2,420.7 661.5,417.6 659.7,415.8 657.3,415.8 654.7,414.5 654.7,412.1 655.7,411.1 654.6,410 653.7,406.3 
		651.6,402.6 649.1,400.8 646.3,401.6 643.6,401.8 643.6,398.6 645.8,398 645.8,395.8 643.5,393.5 642.6,395.4 641.2,396.8 
		639.2,396.3 637,398.5 634.8,399.4 633.4,402.4 633.4,405.5 634.6,408.7 633.6,411.5 633.6,413.8 636.5,416.7 638.3,418.5 
		637.5,421 636.3,423 638.5,425.1 636.4,427.1 634.9,428.2 634.9,432.6 633.2,433.7 632.5,436.7 629.6,437.9 630.3,441.9 
		629.1,443.1 628.6,446.8 629.3,450.1 631,450.9 633.8,453.7 634.9,452.5 637.6,453.5 637.6,456.5 638.5,459 636.7,458.7 635.4,461 
		634.4,462.9 635,464.5 637.7,464.5 638.9,467.1 639.8,469.5 638.3,471 636.8,473.5 636.8,475.7 635.9,477.6 633.5,477.6 
		631.4,475.5 628.6,475.5 627.5,473.6 624.9,472.5 624.3,470.7 622.2,470.2 619.3,472 618.5,475.3 620,478.8 617.8,482.1 
		614.1,485.7 611.7,489.2 610.8,492.8 609.5,495.9 611.9,498.2 609.6,499.8 606.4,497.6 604.8,493.8 602,491.1 599.4,492.4 
		598.3,496 594.1,497.5 590.8,497 587.3,497.8 587.2,502.8 585.3,504.7 585.3,509.4 587.6,511.8 589.2,515.6 589.2,517.7 
		586.6,519.1 585.4,522.1 583,522.1 582.4,525.2 581.2,527.9 583,530.5 583.1,533.2 581.8,534.2 581.8,538 582.5,540.2 581.3,542.3 
		581.7,545 576.9,545.3 576.9,547.3 574.8,547 574,549 577.1,551 581.9,555.8 584.1,557.1 587.1,557.1 589.6,559 593.4,559.5 
		596.5,562.5 598.6,563.5 602.3,563.5 603.8,562 606.9,565.1 613.9,558.1 616.6,559.8 615.8,561.7 618.9,563.2 620.8,565 
		624.9,566.2 626.8,568.1 628.9,569.2 631.3,571.6 636.6,570.5 641.1,574.7 643.8,574.7 643.8,577.1 645.6,580.1 650.4,580.1 
		651.3,583.1 655,581 657.8,581 657.8,576.1 661.6,572.2 666.1,566.9 668.4,561.1 674.3,555.2 681,547.1 682,535.2 684.4,527.4 
		680.8,526.2 677.3,509.9 678.5,507.5 680.3,505.7 677.4,503.7 674.6,502.9 673.6,498.4 678.9,494.5 681.5,494.5 681.5,491.1 
		684,490 687.6,491.2 691.4,489.9 691.4,486.6 694,484.7 695.4,486.2 699.6,486.2 702.1,484.5 703.7,486.1 708.9,487.1 711,485 
		713.3,486.2 716.6,482.9 719.1,482.9 719.1,476.4 722.1,474.9 724,471 727.1,471.7 728.6,473.2 725,476.6 728,476.9 730.5,475.5 
		734.3,476.5 735.8,473.6 738.4,472 739,468.7 737.8,467.6 737.8,465.5 735.1,466.6 730.3,461.8 731.6,458.4 730.1,456.9 731.4,454 
		730.2,452.8 733.1,449.9 735.8,450.1 737.3,451.7 739.4,451.7 741.4,450.1 742,448.3 737.3,443.6 	"/>
	<polygon id="polygon396" fill="#DDDDDD" stroke="#FFFFFF" points="737.3,443.6 735.9,439.8 733.8,439.6 733.8,437.2 731.6,434.8 
		729.8,433 727.1,433 727.1,435.5 724.8,437.9 721.1,437.3 721.1,434.9 719.6,433.6 719.6,430.6 716.3,430.1 712.6,428.4 709,428.8 
		705.5,428.3 703.5,430.7 702.5,433.9 700.2,436.3 701.1,439.5 699.9,443.3 696.8,446.4 696.8,452.2 692.4,455.2 692.4,458.7 
		690.5,456.1 690.5,453.2 688.3,451 686.2,451.9 685.7,454.6 680.2,456.7 677.6,456.7 676.6,459.8 674.9,462.3 671.3,462.6 
		667.3,458.6 666.9,450.2 667.4,445.2 667.4,440.6 668,436.4 668,432.3 665.1,431.1 663,430.4 662.7,428.4 661.8,426.1 659.9,424.2 
		659.9,422 661.2,420.7 661.5,417.6 659.7,415.8 657.3,415.8 654.7,414.5 654.7,412.1 655.7,411.1 654.6,410 653.7,406.3 
		651.6,402.6 649.1,400.8 646.3,401.6 643.6,401.8 643.6,398.6 645.8,398 645.8,395.8 643.5,393.5 642.6,395.4 641.2,396.8 
		639.2,396.3 637,398.5 634.8,399.4 633.4,402.4 633.4,405.5 634.6,408.7 633.6,411.5 633.6,413.8 636.5,416.7 638.3,418.5 
		637.5,421 636.3,423 638.5,425.1 636.4,427.1 634.9,428.2 634.9,432.6 633.2,433.7 632.5,436.7 629.6,437.9 630.3,441.9 
		629.1,443.1 628.6,446.8 629.3,450.1 631,450.9 633.8,453.7 634.9,452.5 637.6,453.5 637.6,456.5 638.5,459 636.7,458.7 635.4,461 
		634.4,462.9 635,464.5 637.7,464.5 638.9,467.1 639.8,469.5 638.3,471 636.8,473.5 636.8,475.7 635.9,477.6 633.5,477.6 
		631.4,475.5 628.6,475.5 627.5,473.6 624.9,472.5 624.3,470.7 622.2,470.2 619.3,472 618.5,475.3 620,478.8 617.8,482.1 
		614.1,485.7 611.7,489.2 610.8,492.8 609.5,495.9 611.9,498.2 609.6,499.8 606.4,497.6 604.8,493.8 602,491.1 599.4,492.4 
		598.3,496 594.1,497.5 590.8,497 587.3,497.8 587.2,502.8 585.3,504.7 585.3,509.4 587.6,511.8 589.2,515.6 589.2,517.7 
		586.6,519.1 585.4,522.1 583,522.1 582.4,525.2 581.2,527.9 583,530.5 583.1,533.2 581.8,534.2 581.8,538 582.5,540.2 581.3,542.3 
		581.7,545 576.9,545.3 576.9,547.3 574.8,547 574,549 577.1,551 581.9,555.8 584.1,557.1 587.1,557.1 589.6,559 593.4,559.5 
		596.5,562.5 598.6,563.5 602.3,563.5 603.8,562 606.9,565.1 613.9,558.1 616.6,559.8 615.8,561.7 618.9,563.2 620.8,565 
		624.9,566.2 626.8,568.1 628.9,569.2 631.3,571.6 636.6,570.5 641.1,574.7 643.8,574.7 643.8,577.1 645.6,580.1 650.4,580.1 
		651.3,583.1 655,581 657.8,581 657.8,576.1 661.6,572.2 666.1,566.9 668.4,561.1 674.3,555.2 681,547.1 682,535.2 684.4,527.4 
		680.8,526.2 677.3,509.9 678.5,507.5 680.3,505.7 677.4,503.7 674.6,502.9 673.6,498.4 678.9,494.5 681.5,494.5 681.5,491.1 
		684,490 687.6,491.2 691.4,489.9 691.4,486.6 694,484.7 695.4,486.2 699.6,486.2 702.1,484.5 703.7,486.1 708.9,487.1 711,485 
		713.3,486.2 716.6,482.9 719.1,482.9 719.1,476.4 722.1,474.9 724,471 727.1,471.7 728.6,473.2 725,476.6 728,476.9 730.5,475.5 
		734.3,476.5 735.8,473.6 738.4,472 739,468.7 737.8,467.6 737.8,465.5 735.1,466.6 730.3,461.8 731.6,458.4 730.1,456.9 731.4,454 
		730.2,452.8 733.1,449.9 735.8,450.1 737.3,451.7 739.4,451.7 741.4,450.1 742,448.3 737.3,443.6 	"/>
</g>
<polygon id="TYU" fill="#DDDDDD" stroke="#FFFFFF" points="366,515.1 364.5,512.1 360.3,512.1 357,510.1 353.3,509.8 352.8,504.8 
	346.2,500.7 346.8,497.6 344.5,497.3 343.5,495.1 340.6,495.1 338.7,493.2 336.1,492.7 336.1,489 334.1,488.3 331.2,484.2 
	333.1,480.7 335.3,479.1 334.4,476.1 335.7,474.8 335,471.2 337.9,468.3 340.4,468.9 342.4,466.9 344.6,467.8 348.5,465.9 
	348.5,463.1 347.7,460.9 348.7,457.7 351,459.5 354.5,459.5 357.1,458.7 357.1,456.5 358.4,455.2 363,456.5 364.9,454.6 
	369.9,454.6 371.3,453.2 374,452.2 376.8,451.2 378.1,449.9 377.9,447.2 379.8,447.2 382,449.1 384,450.1 386.3,452.4 388.8,452.4 
	392,453.2 394.6,455.9 396.5,459.2 398.8,462.9 398.8,465.9 402.1,466.4 402.1,469.2 403.8,470.9 406.6,471.9 408.3,473.5 
	411.3,473.5 413.4,475.4 416.1,475.4 414.6,477.5 411.9,480.2 408.6,481.7 404.6,481.7 402.1,481 399.3,479.5 397.5,481.1 
	394.8,481.1 392.6,479.7 390.8,478.9 387.9,478 385.6,477.2 385.6,475.2 387.3,473.6 384.6,471 382.1,472.7 380.6,475.2 
	378.6,477.2 378.4,479.9 379.5,483.2 376.9,484.5 376.9,486.4 379.1,487.5 380.7,489.1 381.5,491 384,492.4 384,494.6 382.8,495.8 
	379.6,496.4 377.8,498.2 375.4,500.6 375.4,503.5 374.8,505.2 373,507 371.6,507.2 371.6,509.5 369.9,511.2 369,513.1 369,515.1 
	366,515.1 "/>
<polygon id="SVE" fill="#DDDDDD" stroke="#FFFFFF" points="331.8,479 328.2,479 324.3,482 322,478.1 320.2,478.8 317.7,477.7 
	315.6,477.7 313,476.6 308.6,479.5 306.9,477.7 305.1,475.9 302.7,474.6 300.6,476.6 298.3,474.4 296.1,474.1 295.5,472.9 
	292.5,471.9 291.6,470.2 288.8,468.3 286.5,469.2 284.4,471.4 282.4,468.5 280,468.5 276.1,465.7 274,462.7 276.2,460.3 277.5,459 
	277.5,456.1 278.6,453.9 279.6,454.9 282.9,454.9 285.6,453.5 286.4,450.4 288.1,447.5 290.4,447.5 292.4,450.5 293.6,449.2 
	295.4,447.4 294.1,446.1 294,444.5 297,442.5 299.9,443.1 301.9,441.4 304,439.4 302.2,437.5 302.2,436.3 303.9,434.6 305,430.9 
	302.9,427.5 302.9,423.2 305.6,420.9 308.5,420.9 310.8,418.6 313.3,414.9 316.6,411.9 318.5,407.2 318.5,403.9 321.9,402.1 
	321.9,399.5 322.8,397.1 324.3,395.6 326.6,397 326.6,399.1 328,400.5 329.5,401.5 331.7,403.7 335.6,407.7 338.1,412.2 
	340.1,414.2 340.1,418.7 338.4,420.9 339.3,426.1 338.2,430.3 340.4,432.4 340.4,435.8 338.4,437.7 339.1,441.6 341.9,443 
	343.9,445.4 344,448.1 345.9,448.1 347.9,450 346.8,452 346.8,455.8 348.7,457.7 347.7,460.9 348.5,463.1 348.5,465.9 344.6,467.8 
	342.4,466.9 340.4,468.9 337.9,468.3 335,471.2 335.7,474.8 334.4,476.1 335.3,479.1 333.1,480.7 331.8,479 "/>
<path id="KHM" fill="#DDDDDD" stroke="#FFFFFF" d="M362.8,352.1l-0.3,5.5l0.7,4.5l-1.3,4.1l-3.1,3.1l1.6,1.6l2.8,2.8l3.3,3.3l4.5-1
	l3.5,1.5l3.5-1.5l3.8,2l3.8,3.3l-2.9,2.9l2.5,2.8l4.5,0.8l2.3-2.3l2.5,2.5l1.8-1.8h4.5l4,4l0.9,4.5v2.9l3.8,3.8l-0.8,3.3l1.2,3.3
	l5.8-0.7h2.8l2.5,4h2.8l3.3,3.5l2.8-0.7l4.1,1.1l2.7,2.7l1.6-1.6l4.5,1.8l-1.2,3.2l3.5,1.8l2.7,2.7h6.2h5.8l1.3-2.3l3-1.7l3.5-2.3
	l1.3,3.5l3.4,4.4l1.6-1.6l4.8,1.5l2.5,4.2l2.5-0.8h2.3l3.5,4.3l0.1,5.1l4.2,2.8l4.7,2.1l-2.5,4.1l-6,2.6l-3.8,3.8L480,451l-6.6,2.8
	l-1.2,4.1l-4.4-2.3l-3.2,0.8l-3.8-3.8l-4.2,1.6l-5.3-0.6l-1.4-2.2h-5.7l-4-1.7l-5.3,0.8l-2,3.9l-1.9,4.8l0.3,5.2l-5.5,1.5l-4.5,3.3
	l-0.5,3.5l-4.7,2.8h-2.8l-2.1-1.9h-3l-1.6-1.6l-2.8-0.9l-1.7-1.7v-2.9l-3.4-0.5v-3l-2.3-3.6l-1.9-3.4l-2.6-2.6l-3.3-0.9h-2.5
	l-2.3-2.3l-4.3-2.9h-1.9l0.2,2.7l-1.3,1.3l-5.4,1.9l-1.4,1.4h-5l-1.9,1.9l-4.6-1.3l-1.3,1.3v2.3l-2.6,0.8H351l-2.3-1.8l-1.9-1.9V452
	l1-1.9l-1.9-1.9H344l-0.1-2.7l-1.9-2.4l-2.8-1.5l-0.7-3.8l2-2v-3.3l-2.2-2.2l0.9-3.4l-0.7-5.9l1.7-2.2v-4.5l-2-2l-2.4-4.5l-3.9-3.9
	l-2.2-2.2l-2.8-2.4V397l-2.3-1.5l0.6-2.9l4.1-4.1v-2.3l1.4-2.6l-0.6-2.9l2.3-4.3l3.4-2.1l0.4-3l4-2.5l-0.6-3.6l1.5-2.9l3.4-3.4
	l2.6-2.6l2.1,0.8v2.6l2.9-0.4l3.1-3.1l3.1-1.6l1.8-2L362.8,352.1L362.8,352.1z"/>
<g id="KYA">
	<polygon id="polygon402" fill="#DDDDDD" stroke="#FFFFFF" points="587.4,201.3 586.8,202.2 588.2,203.1 588.8,202 587.4,201.3 	"/>
	<polygon id="polygon404" fill="#DDDDDD" stroke="#FFFFFF" points="580.9,187.8 579.4,188.7 581.5,189.8 583,190.8 584.7,190.4 
		584.2,188.4 582.6,188.8 580.9,187.8 	"/>
	<polygon id="polygon406" fill="#DDDDDD" stroke="#FFFFFF" points="566.1,180.4 566.1,178.3 566.2,174.5 565.2,172.4 563.7,172.5 
		561.6,175.1 561.7,177.4 560.8,178.9 561.4,183 559.6,184.8 559.7,188.8 558.8,192.3 558.1,195.8 559.4,196.6 562.3,194.3 
		564,193.2 567.8,191.3 570.8,191 574.6,188.1 576.4,184.6 575.2,181.6 573.8,179.3 572,180.1 570.2,176.9 568.8,175.5 567.2,177.5 
		566.1,180.4 	"/>
	<path id="path408" fill="#DDDDDD" stroke="#FFFFFF" d="M552.5,164.2l-1.4,1.7l-1.2,2.3l-1.1-0.5l0.8-2.9v-3l-3.3,1.1l-2.4,0.6
		l-2.7,0.9l-1.1,2.3l-0.6,2l-1.4,1.7l0.5,2l-2.6,2l1.2,1.1l1.8-0.6l1.5,2.1l0.2,2l1.4,1.7l3.5,0.3l0.5,2l2.4-1.5l1.2,2l3.3,1.2
		l3.2-1.5l1.5-2.1l-1.2-2.4l-2-2.7l1.5-1.1l0.6-2.6l-0.8-2.9l0.3-2.9L552.5,164.2L552.5,164.2z"/>
	<polygon id="polygon410" fill="#DDDDDD" stroke="#FFFFFF" points="549.8,210.5 548.2,212.3 546.3,212.7 548.1,214.1 549.9,212.3 
		549.8,210.5 	"/>
	<polygon id="polygon412" fill="#DDDDDD" stroke="#FFFFFF" points="524.5,209.9 523.7,211.1 524.8,212 526.2,210 524.5,209.9 	"/>
	<path id="path414" fill="#DDDDDD" stroke="#FFFFFF" d="M508.9,251.3l-1.8,0.9l0.8,2l1.4-0.6L508.9,251.3L508.9,251.3z"/>
	<polygon id="polygon416" fill="#DDDDDD" stroke="#FFFFFF" points="495.9,237.7 494.2,239.1 495.2,240.9 496.7,240.6 495.9,237.7 	
		"/>
	<polygon id="polygon418" fill="#DDDDDD" stroke="#FFFFFF" points="495.3,257.5 495,259.2 497.6,259.2 498.9,260.5 499.1,258.3 
		497.6,258 495.3,257.5 	"/>
	<polygon id="polygon420" fill="#DDDDDD" stroke="#FFFFFF" points="486.5,167.8 485.6,168.7 486.7,169.3 488.3,170.5 488.8,169 
		486.5,167.8 	"/>
	<polygon id="polygon422" fill="#DDDDDD" stroke="#FFFFFF" points="477.3,273.2 476.2,274.6 476.9,276.4 477.9,277.8 479.4,276.1 
		480,274.2 478.7,272.8 477.3,273.2 	"/>
	<polygon id="polygon424" fill="#DDDDDD" stroke="#FFFFFF" points="499.3,148.2 498,148.5 497.2,149.3 498.4,150.6 500.1,150 
		501.1,149 499.3,148.2 	"/>
	<polygon id="polygon426" fill="#DDDDDD" stroke="#FFFFFF" points="527.9,145.7 526.8,146.9 527.6,147.7 528.6,148.7 530.5,146.9 
		530.5,145.6 527.9,145.7 	"/>
	<polygon id="polygon428" fill="#DDDDDD" stroke="#FFFFFF" points="539.9,144.1 539.5,146.6 537.3,147.6 533.9,149.9 533.9,153 
		535.3,154.4 533.4,156.2 532.3,158.5 533.9,160.7 534.5,163 537.4,165.5 540,163 541.8,163 544.4,161.5 547.5,160.5 546.6,157.5 
		546.6,153.7 548.5,152.1 546.9,150.6 543.8,147.4 542.6,144.9 539.9,144.1 	"/>
	<polygon id="polygon430" fill="#DDDDDD" stroke="#FFFFFF" points="532.5,164.9 530.4,164.6 530.8,167.4 530.8,169.1 533.5,169.9 
		534.6,171 536.3,169.3 537.3,166.9 535.6,165.6 532.5,164.9 	"/>
	<polygon id="polygon432" fill="#DDDDDD" stroke="#FFFFFF" points="499.1,228.9 498.3,229.7 499.4,230.6 501.1,230.1 499.1,228.9 	
		"/>
	<path id="path434" fill="#DDDDDD" stroke="#FFFFFF" d="M611.8,320.4l0.9,2.2l1.3,2.9l2.9,2l0.3,5.5l2.9,5.3v2.2l0.7,4.2l0.9,6.5
		l-2.5,0.7l-1.7,2.7l-1.6,1.6l0.9,2.8l0.9-0.9l3.1,1.3v2.7l1.1,1.1l-1.1,1v2.9l2.9,1.6l0.9,4.6l3.4,3.4l-1.1,3.2l-2,3.1l0.8,2.5v2.2
		l-1,1v3.3l1.8,0.8h2.7l1.4-1.4h1.6l1.5,1.8l3-1.1l2.3,1l1.8-1.8l2.4,0.2l0.1,2l-0.9,1.9l-1.4,1.4l-2-0.5l-2.2,2.2l-2.3,0.8l-1.3,3
		v3.1l1.2,3.3l-1,2.8v2.4l2.9,2.9l1.8,1.8l-0.8,2.4l-1.2,2l2.1,2.1l-2,2l-1.5,1.1v4.4l-1.8,1.1l-0.7,3l-2.9,1.2l0.8,4l-1.3,1.3
		l-0.5,3.7l0.8,3.3l1.7,0.8l2.8,2.8l1.1-1.1l2.7,1v2.9l0.9,2.5l-1.8-0.3l-1.3,2.3l-1,1.9l0.6,1.6h2.7l1.3,2.7l0.9,2.4l-1.5,1.5
		l-1.6,2.5v2.2l-0.8,1.9h-2.5l-2-2h-2.8l-1.1-1.9l-2.6-1.2l-0.6-1.8l-2.2-0.5l-2.9,1.8l-0.7,3.3l1.5,3.4l-2.3,3.3l-3.6,3.6l-2.5,3.5
		l-0.9,3.6l-1.3,3.1l2.3,2.3l-2.3,1.6l-3.2-2.2l-1.6-3.8l-2.8-2.8l-2.6,1.3L598,496l-4.2,1.5l-3.3-0.6l-3.5,0.9l-0.1,5l-2,2v4.7
		l2.3,2.3l1.6,3.8v2.2l-2.6,1.3l-1.2,3h-2l-0.7,3.1l-1.1,2.7l1.8,2.7l0.1,2.7l-1.3,0.9v3.9l0.7,2.2l-1.1,2.1l0.4,2.7l-4.8,0.3v2.1
		l-2.1-0.4l-0.8,2.1l3.1,2l4.7,4.7l2.2,1.3l-0.9,2.1l-1.8-0.7L580,560l-3.7-0.2l-3.2,3.2l-4.4-0.8l-1.6,1.6l-1,6l-3.9,1v2.8
		l-2.5,2.5v4.3l-3.5,1l-4.9,4.3l-3.5,1.5h-2.6l-3.4-1.8H538l-3.9-1.4l-2.9-2.9l1.2-1.7l1.5-3.7l3-1.3l2.7-2.7l-0.4-3.4l2.7-2.7
		l1-3.4l-1-2.7v-3.2l-3.5-3.5l-1.1-4l-3.4-3.4l1.1-4.5l-1-2l-3.2,1.1l-4.9-0.5l-1.5,1.5l-3.3-0.6l-3.2-3.4l-1.9-3.2l3-3l2-0.8
		l-0.2-4.8l-1.8-3.4l-2.3-0.8l-1.3-1.2l-0.5-2.7l0.8-3.5v-5l2.2-3.8l3.7-1.8l-0.5-3.8l-4.5-1.5h-2.8L513,495l-2.5-4l1.6-4.3l5.4-5.8
		l-1.7-1.7l-4.8,0.3l-1-3.8l-3.2-3.2l-2-3l-4-1h-5.3l-4.5,1.2l-3.7-1.2l-1-3.3l3-3l-3.2-6.8l3.8-3.8l6-2.6l2.5-4.1l-4.7-2.1
		l-4.2-2.8l-0.1-5.1l3.9-3.9l1.4-1.4l0.3-3.8l2.4-2.4v-4.2l-2.5-3.5l1.7-3.2l2.4-3.1l2.3-2.3l-1.2-2.7l0.7-3.5l-0.7-4l-1.9,1.9
		l-1.9-1.9l-3.8-0.8l-0.8-3.5l1.7-1.7l-0.3-3.8l-1.5-3l-2-2h-2l-1.8-3.3l1.5-1.2v-3l-1.2-2v-1.7l2.3-2.1l-1.4-2.9l-3.7-2.2v-2.3
		l-1.5-1.5l1.4-2.5l-0.5-3l-1.6-1.6l0.1-2.7l2.3,0.5l0.6-2l1.8-1.8l1.1-3.2l-1.3-2.5h1.3l0.9-2.4l-1.6-3.8v-2.6l-2.6-0.5l0.1-3.3
		l-2,1.9l-1-1l-2,1.8l-1.1-1.1l-0.4-2.2l-3.2-0.5l-2.1-2.1l-0.5-1.8L470,322l-0.2-3.1l3-2.3l2.5-2.5l1.3-2h3.3v-5.8l0.3-4l-3.6-2
		l-1.1-2.1l-0.7,0.9l-1-2.2l2.3-2.3l3.2-0.5l-0.3-1.8l1.6-1.6l-0.6-2.2l-2.3-1.3l-2.1-0.4l-1.4-1.4l-0.7-1.8H472l-0.2-2l3.3,0.7
		l2.8-0.4l2.3,2.3l4.3,2.3l-1.2,3.3l1.1,1.1l2.9,2.9h4.5l0.7-2.7l-1.8-2.5l0.2-2.3l-3.2-1.2l-2.3-3.8l-1.3-1.3l1-4l1.5-3.3l-1.3-1.3
		l-0.8-4.2l3.3-3h7.8l4,1.5v-1h6.5l4.3-1.8h3.2l1.7-1.7l-1.7-2.5l-2-0.7l-1.7-1.7l1.9-1.9l1.3,1.3l2-0.5l-1.3-1.5l0.9-2.1l-1.4-1.4
		l1.7-2.3l2.3-1.8l-2.3-0.2l-0.2-2.5l4.7,0.2l1.8-3.8l4.6-1.8l1.8-1.8l6.3-0.9l1.6-1.6l4.5-1.3l1-1.2l-3-1l1.7-1.7l4.3-1l3.7-0.5
		l0.8-1.8l3-0.5l-1.6,3v2.4l2.1-2.1l5.2,0.2l0.5-2.7l3.3-0.7l3.3,0.7l-1.5-2l-2-1.5l-1-1.8h3.7l3.8-1.2h1.2l-0.3-2.8l-1.3-1v-4
		l0.8-2.7l2.5-6.2l3-2.2l2.7-2.8l3.3,2l2.5-0.3l0.8,3.4L580,205l-2.2,2.8l5.3,0.3l1-1h3.3l2.4,2.4l-2.2,2.2l0.8,2.2l3.7,1.2l0.8-2.8
		l-1.5-1.5l3.7-2h3.3l3.4-2.4l1.9,1.9l2.6-1.3l1.9,1.9l1.7,3.3l2,1.7l1.2-1.3l1.8,1.8l2.3,2.3l-0.3,3.5l-3.3-0.7l1.3,1.3l3.3,1.8
		l2.1,3.6l-1.9,1.9v3.3l-1.7,2.3l-1.6,3.3l-1.9,1.9l-3.3,4v1.7l-1,4.7l-2.5,2.5l-1,5.2l-4,1l-1.3,3.8l-2.8,2.8l-0.7,4.3l-0.8,3
		l3-1.3l-0.7-3.3l3-1.8l4.2-0.8l2-3l2.8-2.3l2.7-1l1.6-3.1l-1.3-1.3l-2-0.2l0.2-1.3l-0.2-2.7l2.5-0.2h2l0.4,2.9l1.3,1.1l-0.3,1.6
		l-1.1,1.2l0.8,1.9l1.5,2.2l1.4,1.4l-0.6,3.3l1.2,2.5l3.4,1.3v1.8l4.5,3.3l2.1,2.1v4.1l2.4,4.5h2.6l0.3,3.4h-1.4l-0.7,2.3l-3.2,3.2
		l-2.8,1.9l0.1,3.4v2.6l-2.5,0.9l-0.9,3.3l1.9,1.9v2.8l-1,2.3l-3.4-1l-2.5,0.8l-3.6,5.1l-3.5,1.4L611.8,320.4"/>
</g>
<polygon id="TOM" fill="#DDDDDD" stroke="#FFFFFF" points="486.4,455.4 488.3,459.3 489.7,462.1 486.7,465.1 487.7,468.5 
	491.3,469.6 495.8,468.5 501.2,468.5 505.2,469.5 507.2,472.5 510.3,475.6 511.3,479.5 516.2,479.1 517.8,480.8 515,484 
	512.4,486.5 510.8,490.8 513.3,494.8 514.2,497.5 517,497.5 521.5,499 522,502.8 518.3,504.6 516.2,508.5 516.2,513.5 513,514.8 
	509.5,518.3 507.7,516.5 504,518.5 501,517.1 497.5,517.1 491.8,522.1 486,522.1 482.6,523.9 478.4,523.6 474.1,528.2 472.3,526.4 
	473.8,524.8 472.5,523.5 472.5,520.4 471.9,516.1 469.8,515.1 467.4,517.5 463.4,518.5 460,518.5 457.1,514.5 449.9,514.5 
	446.6,509.9 444.3,507.7 441.5,504.9 437,503 433.3,501 428.8,500.4 424.6,500.4 422.6,498.4 419,497.5 418,494.6 416.1,490.9 
	416.7,486.7 414.8,484.7 414.8,481.4 416.6,477 416.1,475.4 420.8,472.6 421.4,469.1 425.9,465.8 431.4,464.3 431.1,459.1 
	435,450.3 440.4,449.5 444.4,451.3 450.1,451.3 451.5,453.4 456.9,454 461,452.4 464.9,456.3 468.1,455.5 472.5,457.7 473.7,453.6 
	480.3,450.8 486.4,455.4 "/>
<polygon id="KEM" fill="#DDDDDD" stroke="#FFFFFF" points="515.8,519.6 515.3,517 516.2,513.5 513,514.8 509.5,518.3 507.7,516.5 
	504,518.5 501,517.1 497.5,517.1 491.8,522.1 486,522.1 482.6,523.9 483.1,529.4 484.3,531.7 485.1,536.7 484.5,543.9 486.6,547 
	488.6,550.9 491.6,550.9 493.8,555 495.6,556.9 496.3,560 498.9,561.6 501.4,561.6 501.5,563.9 499,565 500.4,567.5 500.8,570.7 
	501.8,573.5 505,576.4 508.3,576.4 511.1,577.9 512.8,577.9 512.9,580.9 515.2,580.9 515.2,578.1 517.5,575.8 520.4,572.9 
	518.9,571.4 517.8,569.3 518.2,567.5 519.4,566.2 517.8,564.1 516.2,562.5 519.2,558 519.2,554.5 519.2,553.1 520.3,552 520.3,550 
	517.3,549.5 515.4,551.4 513.1,549 516.1,548.2 516.1,545.1 516.8,542.5 515.2,539.1 514,535.8 516.5,533.6 519.5,530.6 
	521.5,529.8 521.5,525.5 519.5,521.6 517.2,520.8 515.8,519.6 "/>
<polygon id="KK" fill="#DDDDDD" stroke="#FFFFFF" points="516.5,533.6 518.4,536.8 521.5,540.3 524.8,540.9 526.3,539.4 
	531.2,539.9 534.4,538.8 535.4,540.8 534.3,545.3 537.7,548.7 538.7,552.6 542.2,556.1 542.2,559.3 543.2,562 542.2,565.5 
	539.4,568.2 539.8,571.6 537.1,574.4 534.1,575.7 532.6,579.4 531.4,581.1 527.8,583 527.8,586.7 524.6,589.9 518.5,588.9 
	517,590.4 515.3,590.4 513.6,593.7 510.9,593.7 507.5,590.2 509.1,588.6 508.4,585.4 512.9,580.9 515.2,580.9 515.2,578.1 
	520.4,572.9 518.9,571.4 517.8,569.3 518.2,567.5 519.4,566.2 517.8,564.1 516.2,562.5 518.9,558.3 519.2,553.1 520.3,552 
	520.3,550 517.3,549.5 515.4,551.4 513.1,549 516.1,547.8 516.1,545.1 516.8,542.5 515.2,539.1 514,535.8 516.5,533.6 "/>
<polygon id="AD" fill="#DDDDDD" stroke="#FFFFFF" points="46.1,503.9 45.1,502.4 43.2,500.5 42.3,500.9 42.3,502.5 43.1,504 
	46.6,507.6 48.3,507.6 48.8,507 50.6,508.1 51.5,510.4 50.4,511.5 48.6,511.4 47.6,513.3 46.1,513.3 46.1,516.1 46.7,517.7 
	46.3,519 42.6,519 41.3,518.4 39.9,519.9 42.4,523 43.4,524.7 44.1,524 45.9,523.7 45.9,522.4 47.1,521.4 48.9,519.6 50.7,517.1 
	52.2,515.6 53.8,514.9 54.4,517.1 55.3,515.2 55.3,511.6 55.3,509.2 54.2,508.4 53.2,507.4 51.7,506.6 51.2,504.8 49.1,504.1 
	48.2,504.6 46.1,503.9 "/>
<g id="SA">
	<polygon id="polygon441" fill="#DDDDDD" stroke="#FFFFFF" points="725.7,154.2 725.4,153 727.6,154.1 728.8,152.9 730.4,151.3 
		732.7,149 734.1,150.7 734.9,150.7 736.8,148.8 738.5,146.8 741.9,145.3 744.3,147.1 742.9,150.9 742.9,153 741.3,154.6 
		738.8,155.7 736.1,156.8 733.4,156.8 731.3,158.8 728.1,157.7 726.4,155.3 725.7,154.2 	"/>
	<polygon id="polygon443" fill="#DDDDDD" stroke="#FFFFFF" points="720.1,157.4 715.2,157.4 713.6,159 711.2,160.7 709.3,158.9 
		704.9,160.3 705.3,163 706.4,164.1 708,165.8 709.2,166.9 707.5,168.3 705.3,166.3 704,167.5 702.4,165.9 698.6,166.6 696.9,165.7 
		696.2,167.7 697.4,168.9 695.1,170.1 695.1,173 696.9,174.8 696.5,176.9 698.1,176.9 700.3,179 699.7,181.4 702.4,182.8 706,182.9 
		707.5,184.5 710.2,184.5 713.4,183.6 713.4,181.1 711.5,179.3 712.5,178.3 714.1,179.8 716.9,174.8 719.5,172.1 720.7,173.3 
		723.1,170.9 723.9,168.6 721.1,167.7 719.3,169.5 717,167.8 714.3,166.2 711.6,164.2 712.5,162.2 713.9,160.8 715.1,164.6 
		716.8,166.4 719.8,166.9 721.6,166.2 723.1,166.2 724.6,164.6 723.9,161.5 721.4,161.5 722,158.8 722,156.8 720.1,157.4 	"/>
	<polygon id="polygon445" fill="#DDDDDD" stroke="#FFFFFF" points="722.6,184 721.3,185.2 722.3,188.2 724.1,190 725.5,187.2 
		725.5,184.9 724.5,183.9 722.6,184 	"/>
	<polygon id="polygon447" fill="#DDDDDD" stroke="#FFFFFF" points="728.8,186.7 727.1,188.5 728.1,190.8 729.8,192.5 728.7,194.9 
		729.6,195.8 731,192.9 734.4,192.2 737.5,191 741.6,188.5 739.4,184.6 736.6,184.6 732.5,183.3 730.6,185 728.8,186.7 	"/>
	<polygon id="polygon449" fill="#DDDDDD" stroke="#FFFFFF" points="694.8,180.2 693.5,178.9 691,178.7 692.6,180.3 693.6,183.9 
		695.6,183.9 695.6,181.9 694.8,180.2 	"/>
	<polygon id="polygon451" fill="#DDDDDD" stroke="#FFFFFF" points="619.2,239.1 616.4,241.9 616.4,243.8 618.7,243.8 619.5,245.6 
		621.5,244.7 623.7,242.4 623.7,238.8 620.9,238.8 619.2,239.1 	"/>
	<polygon id="polygon453" fill="#DDDDDD" stroke="#FFFFFF" points="717.8,132.6 716.9,134.2 717.9,135.2 719,134.2 717.8,132.6 	"/>
	<polygon id="polygon455" fill="#DDDDDD" stroke="#FFFFFF" points="709.3,198.7 706.5,198.1 705.5,198.8 707.2,199.6 709.3,201.3 
		710.2,200 709.3,198.7 	"/>
	<path id="path457" fill="#DDDDDD" stroke="#FFFFFF" d="M843.2,149.8L840,153v2.3l1.6,1.6h-3.3l-3,2.4l-4.2,1.8l-4.7-4.7l-2.3-2.3
		l-4.6,0.3l-5.5,0.8l-3.2,3.8l-3.5,3.5l-4.2,6.2v4.8l-3.3,4.2l-3.2,3.2l-3.5,0.2l-3.2-1.7l-4.5,2.5l0.5,3.8l-3.2-3.3l-2.3,2.7H777
		l-1.2-1.8l2.5-3l-3-2.2l-5,2.2l-3.5,1.7l-1.5,4.2l-0.7,2.3l1,5.3v3.2l-2.8,2.7l0.8-6.5l-3.2-1l-2.5,2.5l-2.8,1.3l1.2-4.5l3.2-2.2
		l-0.7-1.7l-4.8,2.2l-6.2,2.3l-1.3,3.8l-4.7,2.3h-3.2l-2.2,2.2l3.5,2.2l0.5,2.3l-3.7,3.3v3.5l2,1.3l1.7-4.3l1.2,1v3.7l2.8,1.5
		l2.5,2.5l1.2,0.7l-2.5,2.5l-3.2-0.2l-1.8,2l-1.4,1.4l3.9,1.8v2.5l-3.7-1l-3.2,0.2l-4.3,1l-2.3,4.3l0.8,4.3h-4.2l-3.7,1l-2.3-2.3
		l-4.2-0.5v3l2.2,2.2v2.3l1,2.5l1.7,5.5l-0.3,3.2l-3.8-2l-1.5,1.5l-3.5-0.7l-2.5-1.7l-3.3-3.3l-3.4,0.1V245l-1.5-1.5l-1.8,1.7
		L697,243l1.3-1.3l2.2-0.7v-3.7l-1.7-1.7l-3.2,2v-3.2l-1.9-1.9h-1.9l1.3-4.1l-4-1.3l-1.2,1.2l-3.7-2.8l-1.6,1.6l-1.1,3.1l-1.3,1
		l-1.3-1.5l-1.3,0.3l-0.7,2l-2.7-1.8l-1.8-1.8l-2.1,1.6l-2-2l-0.5,2l-0.7,3.8l2.5,3.8l0.5,3.3v3l-4.5,0.7l-3.5,3l-3.5,1.3l-2-3.2
		l-0.5,1.8l-0.2,1.3H651l-2.8-2.8l1.2-1.2l-1.3-1.9l-5,1.5l-6.3,1.2l-4.2,2.2l-3.1,3.1l-1.6,1.6l2.3,2.2H628l-2-2.8v-3.3l-1.8-1.8
		l-2.1,2.9l-0.7,2l-3.3-1.3l-2.8-0.7l0.4,2.9l1.3,1.1l-0.3,1.6l-1.1,1.2l0.8,1.9l1.5,2.2l1.4,1.4l-0.6,3.3l1.2,2.5l3.4,1.3v1.8
		l4.5,3.3l2.1,2.1v4.1l2.4,4.5h2.6l0.3,3.4h-1.4l-0.7,2.3l-3.2,3.2l-2.8,1.9l0.1,6l-2.5,0.9l-0.9,3.3l1.9,1.9v2.8l-1,2.3l-3.4-1
		l-2.5,0.8l-3.6,5.1l-3.5,1.4v1.4l0.9,2.2l1.3,2.9l2.9,2l0.3,5.5l2.9,5.3v2.2l0.7,4.2l0.9,6.5l-2.5,0.7l-1.7,2.7l-1.6,1.6l0.9,2.8
		l0.9-0.9l3.1,1.3v2.7l1.1,1.1l-1.1,1v2.9l2.9,1.6l0.9,4.6l3.4,3.4l-1.1,3.2l-2,3.1l0.8,2.5v2.2l-1,1v3.3l1.8,0.8h2.7l1.4-1.4h1.6
		l1.5,1.8l3-1.1l2.3,1l1.8-1.8l2.4,0.2l0.1,2l2.3,2.3v2.1l-2.2,0.6v3.2l2.7-0.2l2.8-0.8l2.5,1.8l2.1,3.7l0.9,3.6l1.1,1.1l-1,1v2.4
		l2.6,1.2h2.4l1.8,1.8l-0.4,3.1l-1.3,1.3v2.2l1.9,1.9l1,2.3l0.3,2l2.1,0.7l2.9,1.2v4.1l-0.6,4.2v4.7l-0.5,5l0.4,8.3l4,4l3.6-0.3
		l1.7-2.5l1-3.1h2.6l5.5-2.1l0.5-2.7l2.1-0.9l2.2,2.2v2.9l1.9,2.6v-3.4l4.4-3v-5.8l3.1-3.1l1.2-3.7l-0.9-3.2l2.3-2.3l1-3.3l2-2.4
		l3.5,0.5l3.5-0.4l3.7,1.8l3.2,0.4v3l1.6,1.4v2.4l3.6,0.5l2.3-2.3V433h2.7l1.8,1.8l2.2,2.4v2.4l2.1,0.2l1.4,3.7l2.2,2.2l2.6,2.6
		l-0.6,1.8l1.7,1.7l0.8,3.8l3.6,1.4l2.6,3.4l2.5,0.8v2.9l2.7,0.7l2.9-2.9l3.2-2.7h3.2l1.5-1.5l1.8,1.8l2.5,0.5l1.1-1.1h3.3l1.4,1.8
		h2.1l0.6-2.5l4.2,0.8l1.5-1.5l3-0.6l2.8,1.3l3.5,3.5l2.7-1.2l3-0.7l1.4-1.9l2.3,1l1.7-1.7h1.9l1.8,1.8l1.7-1.7l4.9-4.9l3.6,0.6
		v-2.3l4.5-1.7l3.2,0.6l3.3-2.1l-0.2-3.4l5.4-3.2l5.1-4.2l-1.9-4.4V429l-2.2-2.2l1.9-1.9l0.6-4.3l-4.6-2h-3.7l-0.4-2.2l2.6-0.5
		l-1.4-2.7l0.7-5.1l-3.1-0.5l-3.1-3.2l2.7-0.6l0.3-4l-1.2-1.2l-0.7-2.1l1-2.6l-2.1-2.1l1.8-2.4l-1.5-1.5v-3.6l3.4-1.8l2.3-1.3
		l2.7,0.3l2.2-2.2l3-1.2l0.4-2.9l-1.9-1.9l1.1-2.8l3.9-0.7l5.1-5.1l-0.2-5.7l3.6-1.2v-1.9l-3.6-3.6l-0.8-2.6l-4-4l-2.6-0.6l-0.5-3.2
		l0.6-3.9l-2-2l3.1-4v-3.5l0.2-4.4l-1.6-1.6l-0.8-3.1l-1.5-1.5l-0.1-3.9l2.9-0.6l2.5,0.6l3.2,1.8l3.2-1.7l2.6-0.8l2.6-2.6l1.9-3.3
		l2.5,0.1l1.5-0.9l1.1,1.1l1.4-0.5v-2.8l-0.2-4.6l0.5-3.1l-2.5-2.5l-0.6-2l-2.2-2.2l-3.9-2l-1-2.4l-2.7-3.6v-2l-1.4-0.6l0.6-3.3
		l1.1-1.1l-1.9-1.9l0.5-2.9l4.4-1.8v-1.6l3.3,0.1l-0.3-3.7l-2.5-0.7l-1.7-2.2l2.1-2h2.1v-2.6l2.1-1.5v-1.9l2.6-0.6l1.6,1.9l2.2-0.3
		l1.1-2.4l-0.7-2.1l2.3-3.6l0.7-2.4l2.3-0.4v-2.1l-1.1-3l-2.7-1.6l-2.6-2.6v-3l-0.2-3.3l-2.5-1.3l-1.8-2.4v-2.8l2-0.4l-0.9-2.7
		l-2.8-0.8l0.5-2.5l2.9-1.1v-2.9l1.4-1.4h3.2l0.3-3.4h4.2l1.7-1.7l-1-3.4l1.5-2.8l-2-3.2H869l-1.8-3.5l-2-2h-2.7l-3.4,1.1l-3.1-1.4
		l-3.3-0.5v-3.9l-2.6-1.5L849,179l2-3.1v-3.4l2.3-1.6v-3.3l1.6-4l3.4-2.6l-2.6-4.4l-3-1.1l-0.8-2.1l-3.3-0.4l-4-1.4L843.2,149.8
		L843.2,149.8z"/>
</g>
<polygon id="LEN" fill="#DDDDDD" stroke="#FFFFFF" points="139,276.8 154.3,276.8 154.3,281.7 156.1,287.9 162.4,306.1 166.3,307.9 
	168.7,312.3 170.5,319.3 168.1,324.4 165.9,327.1 163.8,327.4 162.8,329.2 159.6,328.7 157.8,330.5 156.5,325.5 155.2,324.2 
	153.3,323.5 154.3,321.5 154.3,319.5 152.2,318.5 151.9,316.5 149.5,316.4 148.1,317.8 146.3,315.5 146.8,311.2 145.3,310.9 
	143.6,309.2 142,310.5 140.3,311 137.8,309.9 135.1,309.6 131.3,309.6 130.1,307.3 128.7,308 127.5,309.2 125.3,309 124.6,305.7 
	125.5,302.7 124.4,300.3 124.3,297.9 122.1,295.7 123.2,293.5 121.2,291.1 124.5,289.1 129,290.1 129.7,287.6 131.2,286.1 
	134,287.5 136.3,290 140,291.1 141.3,294.1 140.8,294.7 140.8,295.6 140,298.6 141.2,298.4 142.7,299.5 143.3,299 144,299 
	145.5,298.3 145.5,297 146.3,296 146.3,294.8 145.8,294.2 144.7,295.5 144.3,290.6 141.3,288 141.3,282.3 144,281.6 144.8,280.8 
	141.2,279.3 139,276.8 "/>
<polygon id="KR" fill="#DDDDDD" stroke="#FFFFFF" points="154.3,276.8 154.3,281.7 156.1,287.9 162.4,306.1 166.3,307.9 
	168.7,312.3 170.5,319.3 174.3,317.2 176.8,313.6 178.6,314.6 181.7,313 184.4,312 187.2,312.5 189.6,313.6 192.3,313 194.5,314.4 
	194.7,315.9 197,318.5 198.3,317 199.5,316.7 202.8,313.5 203.3,310.8 203,308.5 205.8,307.7 207,304.3 203.8,301.1 204.3,297 
	205.1,295.1 207.2,294 208.2,291.7 208,289.1 209,288 210.3,289.6 211,288.9 212.8,290 214.9,287 217.3,282.8 214.8,275 
	217.9,271.9 219.2,266 222.4,262.7 226.5,261.5 228.8,256.3 229.5,252.6 227.1,250.2 228.9,248.4 228.8,244.1 226.8,244.3 
	225,243.2 222.2,243.9 220.4,242.1 221.3,239.7 221.7,236.7 213.7,229.5 207.5,241 204.7,239.6 198.8,244.3 196.2,244.5 
	196.2,250.1 193.2,251.3 193.2,255.6 189.2,258.8 184.5,258.8 183.3,269.8 183.3,274.1 176.3,276.6 154.3,276.8 "/>
</svg>
