<svg version="1.1" id="Layer_1" xmlns="http://www.w3.org/2000/svg" xmlns:xlink="http://www.w3.org/1999/xlink" x="0px" y="0px"
	 width="960px" height="600px" viewBox="0 0 960 600" enable-background="new 0 0 960 600" xml:space="preserve">
<g id="Layer_2">
	<rect fill="#FFFFFF" width="960" height="600" style="display: none;"/>
	<path fill="none" stroke="#CCCCCC" stroke-width="2" d="M211,500v55l36,45 M0,432h144l67,68h86l53,54v46"/>
</g>
<g id="landmarks-states">
	<g id="hi">
		<path fill="#DDDDDD" stroke="#FFFFFF" d="M233.09,526.31l1.94-3.56l2.26-0.32l0.32,0.81l-2.1,3.07L233.09,526.31L233.09,526.31z
			 M243.27,522.59l6.14,2.59l2.1-0.32l1.62-3.88l-0.65-3.39l-4.2-0.48l-4.04,1.78L243.27,522.59L243.27,522.59z M273.99,532.61
			l3.72,5.5l2.42-0.32l1.13-0.48l1.45,1.29l3.72-0.16l0.97-1.45l-2.91-1.78l-1.94-3.72l-2.1-3.56l-5.82,2.91L273.99,532.61
			L273.99,532.61z M294.2,541.51l1.29-1.94l4.69,0.97l0.65-0.48l6.14,0.65l-0.32,1.29l-2.59,1.45l-4.36-0.32L294.2,541.51
			L294.2,541.51L294.2,541.51z M299.53,546.68l1.94,3.88l3.07-1.13l0.32-1.62l-1.62-2.1l-3.72-0.32L299.53,546.68L299.53,546.68
			L299.53,546.68z M306.48,545.55l2.26-2.91l4.69,2.42l4.36,1.13l4.36,2.75v1.94l-3.56,1.78l-4.85,0.97l-2.42-1.45L306.48,545.55
			L306.48,545.55z M323.13,561.07l1.62-1.29l3.39,1.62l7.6,3.56l3.39,2.1l1.62,2.42l1.94,4.36l4.04,2.59l-0.32,1.29l-3.88,3.23
			l-4.2,1.45l-1.45-0.65l-3.07,1.78l-2.42,3.23l-2.26,2.91l-1.78-0.16l-3.56-2.59l-0.32-4.53l0.65-2.42l-1.62-5.66l-2.1-1.78
			l-0.16-2.59l2.26-0.97l2.1-3.07l0.48-0.97l-1.62-1.78L323.13,561.07L323.13,561.07L323.13,561.07z"/>
	</g>
	<g id="ak">
		<path fill="#DDDDDD" stroke="#FFFFFF" d="M158.08,460.68l-0.32,85.36l1.62,0.97l3.07,0.16l1.45-1.13h2.59l0.16,2.91l6.95,6.79
			l0.48,2.59l3.39-1.94l0.65-0.16l0.32-3.07l1.45-1.62l1.13-0.16l1.94-1.45l3.07,2.1l0.65,2.91l1.94,1.13l1.13,2.42l3.88,1.78
			l3.39,5.98l2.75,3.88l2.26,2.75l1.45,3.72l5.01,1.78l5.17,2.1l0.97,4.36l0.48,3.07l-0.97,3.39l-1.78,2.26l-1.62-0.81l-1.45-3.07
			l-2.75-1.45l-1.78-1.13l-0.81,0.81l1.45,2.75l0.16,3.72l-1.13,0.48l-1.94-1.94l-2.1-1.29l0.48,1.62l1.29,1.78l-0.81,0.81
			l-1.29-0.97l-2.1-3.39l-0.97-2.26l-0.97,0.97l-1.29-1.45l1.78-1.94l-1.45-1.45v-5.01h-0.81l-0.81,3.39l-1.13,0.48l-0.97-3.72
			l-0.65-3.72l-0.81-0.48l0.32,5.66v1.13l-1.45-1.29l-3.56-5.98l-2.1-0.48l-0.65-3.72l-1.62-2.91l-1.62-1.13v-2.26l2.1-1.29
			l-0.48-0.32l-2.59,0.65l-3.39-2.42l-2.59-2.91l-4.85-2.59l-4.04-2.59l1.29-3.23v-1.62l-1.78,1.62l-2.91,1.13l-3.72-1.13
			l-5.66-2.42h-5.5l-0.65,0.48l-6.47-3.88l-2.1-0.32l-2.75-5.82l-3.56,0.32l-3.56,1.45l0.48,4.53l1.13-2.91l0.97,0.32l-1.45,4.36
			l3.23-2.75l0.65,1.62l-3.88,4.36l-1.29-0.32l-0.48-1.94l-1.29-0.81l-1.29,1.13l-2.75-1.78l-3.07,2.1l-1.78,2.1l-3.39,2.1
			l-4.69-0.16l-0.48-2.1l3.72-0.65v-1.29l-2.26-0.65l0.97-2.42l2.26-3.88v-1.78l0.16-0.81l4.36-2.26l0.97,1.29h2.75l-1.29-2.59
			l-3.72-0.32l-5.01,2.75l-2.42,3.39l-1.78,2.59l-1.13,2.26l-4.2,1.45l-3.07,2.59l-0.32,1.62l2.26,0.97l0.81,2.1l-2.75,3.23
			l-6.47,4.2l-7.76,4.2l-2.1,1.13l-5.33,1.13l-5.33,2.26l1.78,1.29l-1.45,1.45l-0.48,1.13l-2.75-0.97l-3.23,0.16l-0.81,2.26h-0.97
			l0.32-2.42l-3.56,1.29l-2.91,0.97l-3.39-1.29l-2.91,1.94h-3.23l-2.1,1.29l-1.62,0.81l-2.1-0.32l-2.59-1.13l-2.26,0.65l-0.97,0.97
			l-1.62-1.13v-1.94l3.07-1.29l6.3,0.65l4.36-1.62l2.1-2.1l2.91-0.65l1.78-0.81l2.75,0.16l1.62,1.29l0.97-0.32l2.26-2.75l3.07-0.97
			l3.39-0.65L69,566.4l0.65,0.48h0.81l1.29-3.72l4.04-1.45l1.94-3.72l2.26-4.53l1.62-1.45l0.32-2.59l-1.62,1.29l-3.39,0.65
			l-0.65-2.42l-1.29-0.32l-0.97,0.97l-0.16,2.91l-1.45-0.16l-1.45-5.82l-1.29,1.29l-1.13-0.48l-0.32-1.94l-4.04,0.16l-2.1,1.13
			l-2.59-0.32l1.45-1.45l0.48-2.59l-0.65-1.94l1.45-0.97l1.29-0.16l-0.65-1.78v-4.36l-0.97-0.97l-0.81,1.45h-6.14l-1.45-1.29
			l-0.65-3.88l-2.1-3.56v-0.97l2.1-0.81l0.16-2.1l1.13-1.13l-0.81-0.48l-1.29,0.48l-1.13-2.75l0.97-5.01l4.53-3.23l2.59-1.62
			l1.94-3.72l2.75-1.29l2.59,1.13l0.32,2.42l2.42-0.32l3.23-2.42l1.62,0.65l0.97,0.65h1.62l2.26-1.29l0.81-4.36l0.97-3.39l0.97-0.97
			l-1.13-1.94l-2.59,0.81l-3.23,0.81l-1.94-0.48L69,491.71l-5.01-0.16l-3.56-3.72l0.48-3.88l0.65-2.42l-2.1-1.78l-1.94-3.72
			l0.48-0.81l6.79-0.48h2.1l0.97,0.97h0.65l-0.16-1.62l3.88-0.65l2.59,0.32l1.45,1.13l-1.45,2.1l-0.48,1.45l2.75,1.62l5.01,1.78
			l1.78-0.97l-2.26-4.36l-0.97-3.23l0.97-0.81l-3.39-1.94l-0.48-1.13l0.48-1.62l-0.81-3.88l-2.91-4.69l-2.42-4.2l2.91-1.94h3.23
			l1.78,0.65l4.2-0.16l3.72-3.56l1.13-3.07l3.72-2.42l1.62,0.97l2.75-0.65l3.72-2.1l1.13-0.16l0.97,0.81l4.53-0.16l2.75-3.07h1.13
			l3.56,2.42l1.94,2.1l-0.48,1.13l0.65,1.13l1.62-1.62l3.88,0.32l0.32,3.72l1.94,1.45l7.11,0.65l6.3,4.2l1.45-0.97l5.17,2.59
			l2.1-0.65l1.94-0.81l4.85,1.94L158.08,460.68L158.08,460.68L158.08,460.68z M42.97,489.61l2.1,5.33l-0.16,0.97L42,495.59
			l-1.78-4.04l-1.78-1.45h-2.42l-0.16-2.59l1.78-2.42l1.13,2.42l1.45,1.45L42.97,489.61L42.97,489.61z M40.39,523.08l3.72,0.81
			l3.72,0.97l0.81,0.97l-1.62,3.72l-3.07-0.16l-3.39-3.56L40.39,523.08L40.39,523.08z M19.69,509.01l1.13,2.59l1.13,1.62l-1.13,0.81
			l-2.1-3.07v-1.94L19.69,509.01L19.69,509.01L19.69,509.01z M5.95,582.08l3.39-2.26l3.39-0.97l2.59,0.32l0.48,1.62l1.94,0.48
			l1.94-1.94l-0.32-1.62l2.75-0.65l2.91,2.59l-1.13,1.78l-4.36,1.13l-2.75-0.48l-3.72-1.13L8.7,582.4l-1.62,0.32L5.95,582.08
			L5.95,582.08L5.95,582.08z M54.94,577.56l1.62,1.94l2.1-1.62l-1.45-1.29L54.94,577.56L54.94,577.56z M57.85,580.63l1.13-2.26
			l2.1,0.32l-0.81,1.94L57.85,580.63L57.85,580.63z M81.45,578.69l1.45,1.78l0.97-1.13l-0.81-1.94L81.45,578.69L81.45,578.69z
			 M90.18,566.24l1.13,5.82l2.91,0.81l5.01-2.91l4.36-2.59l-1.62-2.42l0.48-2.42l-2.1,1.29l-2.91-0.81l1.62-1.13l1.94,0.81
			l3.88-1.78l0.48-1.45l-2.42-0.81l0.81-1.94l-2.75,1.94l-4.69,3.56l-4.85,2.91L90.18,566.24L90.18,566.24L90.18,566.24z
			 M132.53,546.36l2.42-1.45l-0.97-1.78l-1.78,0.97L132.53,546.36L132.53,546.36z"/>
	</g>
	<g id="fl">
		<path fill="#DDDDDD" stroke="#FFFFFF" d="M759.82,439.14l2.27,7.32l3.73,9.74l5.33,9.38l3.72,6.3l4.85,5.5l4.04,3.72l1.62,2.91
			l-1.13,1.29l-0.81,1.29l2.91,7.44l2.91,2.91l2.59,5.33l3.56,5.82l4.53,8.24l1.29,7.6l0.48,11.96l0.65,1.78l-0.32,3.39l-2.42,1.29
			l0.32,1.94l-0.65,1.94l0.32,2.42l0.48,1.94l-2.75,3.23l-3.07,1.45l-3.88,0.16l-1.45,1.62l-2.42,0.97l-1.29-0.48l-1.13-0.97
			l-0.32-2.91l-0.81-3.39l-3.39-5.17l-3.56-2.26l-3.88-0.32l-0.81,1.29l-3.07-4.36l-0.65-3.56l-2.59-4.04l-1.78-1.13l-1.62,2.1
			l-1.78-0.32l-2.1-5.01l-2.91-3.88l-2.91-5.33l-2.59-3.07l-3.56-3.72l2.1-2.42l3.23-5.5l-0.16-1.62l-4.53-0.97l-1.62,0.65
			l0.32,0.65l2.59,0.97l-1.45,4.53l-0.81,0.48l-1.78-4.04l-1.29-4.85l-0.32-2.75l1.45-4.69v-9.54l-3.07-3.72l-1.29-3.07l-5.17-1.29
			l-1.94-0.65l-1.62-2.59l-3.39-1.62l-1.13-3.39l-2.75-0.97l-2.42-3.72l-4.2-1.45l-2.91-1.45h-2.59l-4.04,0.81l-0.16,1.94l0.81,0.97
			l-0.48,1.13l-3.07-0.16l-3.72,3.56l-3.56,1.94h-3.88l-3.23,1.29l-0.32-2.75l-1.62-1.94l-2.91-1.13l-1.62-1.45l-8.08-3.88
			l-7.6-1.78l-4.36,0.65l-5.98,0.48l-5.98,2.1l-3.48,0.61l-0.24-8.05l-2.59-1.94l-1.78-1.78l0.32-3.07l10.18-1.29l25.54-2.91
			l6.79-0.65l5.44,0.28l2.59,3.88l1.45,1.45l8.1,0.52l10.82-0.65l21.51-1.29l5.45-0.67l5.11,0.2l0.43,2.91l2.23,0.81l0.23-4.63
			l-1.53-4.17l1.31-1.44l5.55,0.45L759.82,439.14L759.82,439.14L759.82,439.14z M772.36,571.55l2.42-0.65l1.29-0.24l1.45-2.34
			l2.34-1.62l1.29,0.48l1.7,0.32l0.4,1.05l-3.48,1.21l-4.2,1.45l-2.34,1.21L772.36,571.55L772.36,571.55L772.36,571.55z
			 M785.86,566.54l1.21,1.05l2.75-2.1l5.33-4.2l3.72-3.88l2.51-6.63l0.97-1.7l0.16-3.39l-0.73,0.48l-0.97,2.83l-1.45,4.61
			l-3.23,5.25l-4.36,4.2l-3.39,1.94L785.86,566.54L785.86,566.54L785.86,566.54z"/>
	</g>
	<g id="nh">
		<path fill="#DDDDDD" stroke="#FFFFFF" d="M880.8,142.42l0.87-1.08l1.09-3.29l-2.54-0.91l-0.48-3.07l-3.88-1.13l-0.32-2.75
			l-7.27-23.44l-4.6-14.54l-0.9-0.01l-0.65,1.62l-0.65-0.48l-0.97-0.97l-1.45,1.94L859,99.34l0.31,5.67l1.94,2.75v4.04l-3.72,5.06
			l-2.59,1.13v1.13l1.13,1.78v8.57l-0.81,9.21l-0.16,4.85l0.97,1.29l-0.16,4.53l-0.48,1.78l0.97,0.71l16.79-4.42l2.17-0.6l1.84-2.77
			L880.8,142.42L880.8,142.42L880.8,142.42z"/>
	</g>
	<g id="mi">
		<path fill="#DDDDDD" stroke="#FFFFFF" d="M697.86,177.24l-3.23-8.24l-2.26-9.05l-2.42-3.23l-2.59-1.78l-1.62,1.13l-3.88,1.78
			l-1.94,5.01l-2.75,3.72l-1.13,0.65l-1.45-0.65l-2.42-2.1l0.48-5.01l3.39-1.29l0.81-3.39l0.65-2.59l2.42-1.62l-0.32-10.02
			l-1.62-2.26l-1.29-0.81l-0.81-2.1l0.81-0.81l1.62,0.32l0.16-1.62l-2.42-2.26l-1.29-2.59h-2.59l-4.53-1.45l-5.5-3.39h-2.75
			l-0.65,0.65l-0.97-0.48l-3.07-2.26l-2.91,1.78l-2.91,2.26l0.32,3.56l0.97,0.32l2.1,0.48l0.48,0.81l-2.59,0.81l-2.59,0.32
			l-1.45,1.78l-0.32,2.1l0.32,1.62l0.32,5.5l-3.56,2.1l-0.65-0.16v-4.2l1.29-2.42l0.65-2.42l-0.81-0.81l-1.94,0.81l-0.97,4.2
			l-2.75,1.13l-1.78,1.94l-0.16,0.97l0.65,0.81l-0.65,2.59l-2.26,0.48v1.13l0.81,2.42l-1.13,6.14l-1.62,4.04l0.65,4.69l0.48,1.13
			l-0.81,2.42l-0.32,0.81l-0.32,2.75l3.56,5.98l2.91,6.47l1.45,4.85l-0.81,4.69l-0.97,5.98l-2.42,5.17l-0.32,2.75l-3.26,3.09
			l4.41-0.16l21.42-2.26l7.28-0.99l0.1,1.67l6.85-1.21l10.3-1.5l3.85-0.46l0.14-0.59l0.16-1.45l2.1-3.72l2-1.74l-0.22-5.05l1.6-1.6
			l1.09-0.34l0.22-3.56l1.54-3.03l1.05,0.61l0.16,0.65l0.81,0.16l1.94-0.97L697.86,177.24L697.86,177.24L697.86,177.24z"/>
		<path fill="#DDDDDD" stroke="#FFFFFF" d="M581.62,82.06l1.83-2.06l2.17-0.8l5.37-3.89l2.29-0.57l0.46,0.46l-5.14,5.14l-3.32,1.94
			l-2.06,0.91L581.62,82.06L581.62,82.06L581.62,82.06z M667.79,114.19l0.65,2.51l3.23,0.16l1.29-1.21l-0.4-1.62l-1.62-1.86
			l-2.18,0.24l-1.62,0.16l-0.32,1.13L667.79,114.19L667.79,114.19L667.79,114.19z M567.49,111.21l0.72-0.58l2.75-0.81l3.56-2.26
			v-0.97l0.65-0.65l5.98-0.97l2.42-1.94l4.36-2.1l0.16-1.29l1.94-2.91l1.78-0.81l1.29-1.78l2.26-2.26l4.36-2.42l4.69-0.48l1.13,1.13
			l-0.32,0.97l-3.72,0.97l-1.45,3.07l-2.26,0.81l-0.48,2.42l-2.42,3.23l-0.32,2.59l0.81,0.48l0.97-1.13l3.56-2.91l1.29,1.29h2.26
			l3.23,0.97l1.45,1.13l1.45,3.07l2.75,2.75l3.88-0.16l1.45-0.97l1.62,1.29l1.62,0.48l1.29-0.81h1.13l1.62-0.97l4.04-3.56l3.39-1.13
			l6.63-0.32l4.53-1.94l2.59-1.29l1.45,0.16v5.66l0.48,0.32l2.91,0.81l1.94-0.48l6.14-1.62l1.13-1.13l1.45,0.48v6.95l3.23,3.07
			l1.29,0.65l1.29,0.97l-1.29,0.32l-0.81-0.32l-3.72-0.48l-2.1,0.65l-2.26-0.16l-3.23,1.45h-1.78l-5.82-1.29l-5.17,0.16l-1.94,2.59
			l-6.95,0.65l-2.42,0.81l-1.13,3.07l-1.29,1.13l-0.48-0.16l-1.45-1.62l-4.53,2.42h-0.65l-1.13-1.62l-0.81,0.16l-1.94,4.36
			l-0.97,4.04l-3.18,7l-1.18-1.03l-1.37-1.03l-1.94-10.29l-3.54-1.37l-2.05-2.29l-12.12-2.74l-2.86-1.03l-8.23-2.17l-7.89-1.14
			L567.49,111.21L567.49,111.21L567.49,111.21z"/>
	</g>
	<g id="vt">
		<path fill="#DDDDDD" stroke="#FFFFFF" d="M844.48,154.06l0.32-5.35l-2.89-10.78l-0.65-0.32l-2.91-1.29l0.81-2.91l-0.81-2.1
			l-2.7-4.64l0.97-3.88l-0.81-5.17l-2.42-6.47l-0.81-4.92L859,99.49l0.31,5.52l1.92,2.74v4.04l-3.71,5.06l-2.59,1.14l-0.01,1.12
			l1.31,1.52l-0.31,8.1l-0.61,9.26l-0.23,5.56l0.97,1.29l-0.16,4.57l-0.48,1.69l1.01,0.73l-7.44,1.51L844.48,154.06L844.48,154.06
			L844.48,154.06z"/>
	</g>
	<g id="me">
		<path fill="#DDDDDD" stroke="#FFFFFF" d="M922.84,78.83l1.94,2.1l2.26,3.72v1.94l-2.1,4.69L923,91.93L919.61,95l-4.85,5.5h-1.29
			l-0.97-2.1l-1.78,0.16l-0.97,1.45l-2.42,1.45l-0.97,1.45l1.62,1.45l-0.48,0.65l-0.48,2.75l-1.94-0.16v-1.62l-0.32-1.29l-1.45,0.32
			l-1.78-3.23l-2.1,1.29l1.29,1.45l0.32,1.13l-0.81,1.29l0.32,3.07l0.16,1.62l-1.62,2.59l-2.91,0.48l-0.32,2.91l-5.33,3.07
			l-1.29,0.48l-1.62-1.45l-3.07,3.56l0.97,3.23l-1.45,1.29l-0.16,4.36l-1.12,6.26l-2.46-1.16l-0.48-3.07l-3.88-1.13l-0.32-2.75
			l-7.27-23.44l-4.7-14.64l1.42-0.12l1.51,0.41v-2.59l1.31-4.5l2.59-4.69l1.45-4.04l-1.94-2.42v-5.98l0.81-0.97l0.81-2.75
			l-0.16-1.45l-0.16-4.85l1.78-4.85l2.91-8.89l2.1-4.2h1.29l1.29,0.16v1.13l1.29,2.26l2.75,0.65l0.81-0.81v-0.97l4.04-2.91
			l1.78-1.78l1.45,0.16l5.98,2.42l1.94,0.97l9.05,29.91h5.98l0.81,1.94l0.16,4.85l2.91,2.26h0.81l0.16-0.48l-0.48-1.13L922.84,78.83
			L922.84,78.83L922.84,78.83z M901.91,108.98l1.54-1.54l1.37,1.05l0.57,2.42l-1.7,0.89L901.91,108.98L901.91,108.98z
			 M908.62,103.08l1.78,1.86l1.29-0.24l0.24-2.02l0.89-0.81l-0.81-1.78l-2.02,0.73L908.62,103.08L908.62,103.08z"/>
	</g>
	<g id="ri">
		<path fill="#DDDDDD" stroke="#FFFFFF" d="M874.07,178.9l-3.7-14.96l6.27-1.85l2.19,1.93l3.31,4.32l2.69,4.4l-3,1.62l-1.29-0.16
			l-1.13,1.78l-2.42,1.94L874.07,178.9L874.07,178.9L874.07,178.9z"/>
	</g>
	<g id="ny">
		<path fill="#DDDDDD" stroke="#FFFFFF" d="M830.38,188.75l-1.13-0.97l-2.59-0.16l-2.26-1.94l-1.63-6.13l-3.46,0.09l-2.44-2.71
			l-19.39,4.38l-43,8.73l-7.53,1.23l-0.74-6.47l1.43-1.13l1.29-1.13l0.97-1.62l1.78-1.13l1.94-1.78l0.48-1.62l2.1-2.75l1.13-0.97
			l-0.16-0.97l-1.29-3.07l-1.78-0.16l-1.94-6.14l2.91-1.78l4.36-1.45l4.04-1.29l3.23-0.48l6.3-0.16l1.94,1.29l1.62,0.16l2.1-1.29
			l2.59-1.13l5.17-0.48l2.1-1.78l1.78-3.23l1.62-1.94h2.1l1.94-1.13l0.16-2.26l-1.45-2.1l-0.32-1.45l1.13-2.1v-1.45h-1.78
			l-1.78-0.81l-0.81-1.13l-0.16-2.59l5.82-5.5l0.65-0.81l1.45-2.91l2.91-4.53l2.75-3.72l2.1-2.42l2.42-1.83l3.08-1.25l5.5-1.29
			l3.23,0.16l4.53-1.45l7.57-2.07l0.52,4.98l2.42,6.47l0.81,5.17l-0.97,3.88l2.59,4.53l0.81,2.1l-0.81,2.91l2.91,1.29l0.65,0.32
			l3.07,10.99l-0.54,5.06l-0.48,10.83l0.81,5.5l0.81,3.56l1.45,7.27v8.08l-1.13,2.26l1.84,1.99l0.8,1.68l-1.94,1.78l0.32,1.29
			l1.29-0.32l1.45-1.29l2.26-2.59l1.13-0.65l1.62,0.65l2.26,0.16l7.92-3.88l2.91-2.75l1.29-1.45l4.2,1.62l-3.39,3.56l-3.88,2.91
			l-7.11,5.33l-2.59,0.97l-5.82,1.94l-4.04,1.13l-1.17-0.53l-0.24-3.69l0.48-2.75l-0.16-2.1l-2.81-1.7l-4.53-0.97l-3.88-1.13
			L830.38,188.75L830.38,188.75L830.38,188.75z"/>
	</g>
	<g id="pa">
		<path fill="#DDDDDD" stroke="#FFFFFF" d="M825.12,224.69l1.31-0.27l2.33-1.25l1.21-2.48l1.62-2.26l3.23-3.07v-0.81l-2.42-1.62
			l-3.56-2.42l-0.97-2.59l-2.75-0.32l-0.16-1.13l-0.81-2.75l2.26-1.13l0.16-2.42l-1.29-1.29l0.16-1.62l1.94-3.07v-3.07l2.7-2.65
			l-0.92-0.67l-2.52-0.19l-2.29-1.94l-1.55-6.12l-3.5,0.1l-2.46-2.7l-18.09,4.2l-43,8.73l-8.89,1.45l-0.62-6.52l-5.36,5.07
			l-1.29,0.48l-4.2,3.01l2.91,19.14l2.48,9.73l3.57,19.26l3.27-0.64l11.94-1.5l37.93-7.67l14.88-2.82l8.3-1.62l0.27-0.24l2.1-1.62
			L825.12,224.69L825.12,224.69L825.12,224.69z"/>
	</g>
	<path id="nj" fill="#DDDDDD" stroke="#FFFFFF" d="M829.68,188.46l-2.32,2.73v3.07l-1.94,3.07l-0.16,1.62l1.29,1.29l-0.16,2.42
		l-2.26,1.13l0.81,2.75l0.16,1.13l2.75,0.32l0.97,2.59l3.56,2.42l2.42,1.62v0.81l-2.98,2.7l-1.62,2.26l-1.45,2.75l-2.26,1.29
		l-0.46,1.6l-0.24,1.21l-0.61,2.61l1.09,2.24l3.23,2.91l4.85,2.26l4.04,0.65l0.16,1.45l-0.81,0.97l0.32,2.75h0.81l2.1-2.42
		l0.81-4.85l2.75-4.04l3.07-6.47l1.13-5.5l-0.65-1.13l-0.16-9.38l-1.62-3.39l-1.13,0.81l-2.75,0.32l-0.48-0.48l1.13-0.97l2.1-1.94
		l0.06-1.09l-0.38-3.43l0.57-2.75l-0.12-1.97l-2.81-1.75l-5.09-1.18l-4.14-1.38L829.68,188.46L829.68,188.46L829.68,188.46z"/>
	<path id="de" fill="#DDDDDD" stroke="#FFFFFF" d="M825.63,228.28l0.37-2.15l0.38-1.69l-1.62,0.4l-1.62,0.47l-2.21,1.76l1.72,5.04
		l2.26,5.66l2.1,9.7l1.62,6.3l5.01-0.16l6.14-1.18l-2.26-7.39l-0.97,0.48l-3.56-2.42l-1.78-4.69l-1.94-3.56l-3.15-2.87l-0.86-2.1
		L825.63,228.28L825.63,228.28L825.63,228.28z"/>
	<path id="md" fill="#DDDDDD" stroke="#FFFFFF" d="M839.79,252.41l-6.01,1.2l-5.14,0.12l-1.84-6.92l-1.92-9.17l-2.57-6.19l-1.29-4.4
		l-7.51,1.62l-14.88,2.82l-37.45,7.55l1.13,5.01l0.97,5.66l0.32-0.32l2.1-2.42l2.26-2.62l2.42-0.62l1.45-1.45l1.78-2.59l1.29,0.65
		l2.91-0.32l2.59-2.1l2.01-1.45l1.85-0.48l1.64,1.13l2.91,1.45l1.94,1.78l1.21,1.54l4.12,1.7v2.91l5.5,1.29l1.14,0.54l1.41-2.03
		l2.88,1.97l-1.28,2.48l-0.77,3.99l-1.78,2.59v2.1l0.65,1.78l5.06,1.36l4.31-0.06l3.07,0.97l2.1,0.32l0.97-2.1l-1.45-2.1v-1.78
		l-2.42-2.1l-2.1-5.5l1.29-5.33l-0.16-2.1l-1.29-1.29l1.45-2.26l0.48-2.1l1.94-1.29l1.94-1.62l0.48,0.97l-1.45,1.62l-1.29,3.72
		l0.32,1.13l1.78,0.32l0.48,5.5l-2.1,0.97l0.32,3.56l0.48-0.16l1.13-1.94l1.62,1.78l-1.62,1.29l-0.32,3.39l2.59,3.39l3.88,0.48
		l1.62-0.81l3.24,4.18l1.36,0.54l6.65-2.8l2.01-4.02L839.79,252.41L839.79,252.41L839.79,252.41z M823.82,261.44l1.13,2.51
		l0.16,1.78l1.13,1.86l0.89-1.21l-0.73-3.07l-0.73-2.34L823.82,261.44L823.82,261.44L823.82,261.44z"/>
	<path id="va" fill="#DDDDDD" stroke="#FFFFFF" d="M831.64,266.07l-0.14-1.95l6.45-2.55l-0.77,3.22l-2.92,3.78l-0.42,4.59l0.46,3.39
		l-1.83,4.98l-2.16,1.92l-1.47-4.64l0.45-5.45l1.59-4.18L831.64,266.07L831.64,266.07L831.64,266.07z M834.98,294.37l-58.17,12.58
		l-37.43,5.28l-6.68-0.38l-2.59,1.93l-7.34,0.22l-8.38,0.98l-10.91,1.61l10.47-5.61l-0.01-2.07l1.52-2.15l10.55-11.5l3.95,4.48
		l3.78,0.96l2.54-1.14l2.24-1.31l2.54,1.34l3.91-1.43l1.88-4.56l2.6,0.54l2.86-2.13l1.8,0.49l2.83-3.68l0.35-2.08l-0.96-1.28l1-1.87
		l5.27-12.28l0.62-5.74l1.23-0.52l2.18,2.44l3.94-0.3l1.93-7.57l2.79-0.56l1.05-2.74l2.58-2.35l2.77-5.7l0.08-5.07l9.82,3.82
		l0.83-5.05l3.65,1.6l0.07,2.94l5.78,1.3l2.13,1.18l1.66,2.06l-0.65,3.65l-1.95,2.59l0.11,2.06l0.59,1.85l4.98,1.27l4.45,0.04
		l3.07,0.96l1.94,0.31l0.71,3.09l3.19,0.4l0.87,1.2l-0.44,4.69l1.37,1.1l-0.48,1.93l1.23,0.79l-0.22,1.38l-2.69-0.09l0.09,1.62
		l2.28,1.54l0.12,1.41l1.77,1.79l0.49,2.52l-2.55,1.38l1.57,1.49l5.8-1.69L834.98,294.37L834.98,294.37L834.98,294.37z"/>
	<path id="wv" fill="#DDDDDD" stroke="#FFFFFF" d="M761.19,238.97l1.11,4.94l1.08,6.03l2.13-2.58l2.26-3.07l2.54-0.62l1.45-1.45
		l1.78-2.59l1.45,0.65l2.91-0.32l2.59-2.1l2.01-1.45l1.85-0.48l1.3,1.02l3.64,1.82l1.94,1.78l1.37,1.29l-0.76,5.55l-5.83-2.54
		l-4.25-1.62l-0.1,5.18l-2.75,5.54l-2.53,2.43l-1.19,2.75l-2.64,0.5l-0.9,3.6l-1.04,3.95l-3.97,0.34l-2.32-2.44l-1.07,0.56
		l-0.63,5.47l-1.35,3.53l-4.96,10.95l0.9,1.16l-0.21,1.91l-2.81,3.88l-1.81-0.54l-2.97,2.16l-2.54-0.57l-2,4.56l-3.92,1.37
		l-2.47-1.25l-2.34,1.38l-2.41,1.04l-3.74-0.89l-1.12-1.17l-2.19-3.02l-3.14-1.99l-1.71-3.62l-4.28-3.47l-0.65-2.26l-2.59-1.45
		l-0.81-1.62l-0.24-5.25l2.18-0.08l1.94-0.81l0.16-2.75l1.62-1.45l0.16-5.01l0.97-3.88l1.29-0.65l1.29,1.13l0.48,1.78l1.78-0.97
		l0.48-1.62l-1.13-1.78v-2.42l0.97-1.29l2.26-3.39l1.29-1.45l2.1,0.48l2.26-1.62l3.07-3.39l2.26-3.88l0.32-5.66l0.48-5.01v-4.69
		l-1.13-3.07l0.97-1.45l1.28-1.29l3.49,19.83l4.63-0.75L761.19,238.97L761.19,238.97L761.19,238.97z"/>
	<path id="oh" fill="#DDDDDD" stroke="#FFFFFF" d="M735.32,193.33l-6.09,4.05l-3.88,2.26l-3.39,3.72l-4.04,3.88l-3.23,0.81
		l-2.91,0.48l-5.5,2.59l-2.1,0.16l-3.39-3.07l-5.17,0.65l-2.59-1.45l-2.38-1.35l-4.89,0.7l-10.18,1.62l-11.21,2.18l1.29,14.63
		l1.78,13.74l2.59,23.44l0.57,4.83l4.12-0.13l2.42-0.81l3.36,1.5l2.07,4.36l5.14-0.02l1.89,2.12l1.76-0.07l2.54-1.34l2.5,0.37
		l5.42,0.48l1.73-2.13l2.35-1.29l2.07-0.68l0.65,2.75l1.78,0.97l3.48,2.34l2.18-0.08l1.33-0.49l0.18-2.76l1.59-1.45l0.1-4.79
		l1.02-4.11l1.3-0.6l1.32,1.15l0.54,1.7l1.72-1.04l0.44-1.46l-1.12-1.9l0.07-2.31l0.75-1.07l2.15-3.31l1.05-1.54l2.1,0.48l2.26-1.62
		l3.07-3.39l2.77-4.08l0.32-5.06l0.48-5.01l-0.18-5.31l-0.95-2.89l0.35-1.19l1.8-1.75l-2.29-9.05L735.32,193.33L735.32,193.33
		L735.32,193.33z"/>
	<path id="in" fill="#DDDDDD" stroke="#FFFFFF" d="M619.57,299.97l0.07-2.86l0.48-4.53l2.26-2.91l1.78-3.88l2.59-4.2l-0.48-5.82
		l-1.78-2.75l-0.32-3.23l0.81-5.5l-0.48-6.95l-1.29-16l-1.29-15.36l-0.97-11.72l3.07,0.89l1.45,0.97l1.13-0.32l2.1-1.94l2.83-1.62
		l5.09-0.16l21.99-2.26l5.58-0.53l1.5,15.96l4.25,36.84l0.6,5.77l-0.37,2.26l1.23,1.8l0.1,1.37l-2.52,1.6l-3.54,1.55l-3.2,0.55
		l-0.6,4.87l-4.57,3.31l-2.8,4.01l0.32,2.38l-0.58,1.53h-3.33l-1.59-1.62l-2.49,1.26l-2.68,1.5l0.16,3.05l-1.19,0.26l-0.47-1.02
		l-2.17-1.5l-3.25,1.34l-1.55,3.01l-1.44-0.81l-1.45-1.6l-4.46,0.48l-5.59,0.97L619.57,299.97L619.57,299.97L619.57,299.97z"/>
	<path id="il" fill="#DDDDDD" stroke="#FFFFFF" d="M619.54,300.34l0.03-3.23l0.57-4.65l2.33-2.92l1.87-4.08l2.23-4l-0.37-5.25
		l-2.01-3.54l-0.1-3.35l0.69-5.27l-0.83-7.18l-1.07-15.78l-1.29-15.02l-0.92-11.64l-0.27-0.92l-0.81-2.59l-1.29-3.72l-1.62-1.78
		l-1.45-2.59l-0.23-5.49l-45.8,2.6l0.23,2.37l2.29,0.69l0.91,1.14l0.46,1.83l3.89,3.43l0.69,2.29l-0.69,3.43l-1.83,3.66l-0.69,2.51
		l-2.29,1.83l-1.83,0.69l-5.26,1.37l-0.69,1.83l-0.69,2.06l0.69,1.37l1.83,1.6l-0.23,4.12l-1.83,1.6l-0.69,1.6v2.74l-1.83,0.46
		l-1.6,1.14l-0.23,1.37l0.23,2.06l-1.71,1.31l-1.03,2.8l0.46,3.66l2.29,7.32l7.32,7.54l5.49,3.66l-0.23,4.34l0.91,1.37l6.4,0.46
		l2.74,1.37l-0.69,3.66l-2.29,5.94l-0.69,3.2l2.29,3.89l6.4,5.26l4.57,0.69l2.06,5.03l2.06,3.2l-0.91,2.97l1.6,4.12l1.83,2.06
		l1.41-0.88l0.91-2.07l2.21-1.75l2.13-0.61l2.6,1.18l3.63,1.38l1.19-0.3l0.2-2.26l-1.29-2.41l0.3-2.38l1.84-1.35l3.02-0.81
		l1.26-0.46l-0.61-1.39l-0.79-2.35l1.43-0.98L619.54,300.34L619.54,300.34L619.54,300.34z"/>
	<path id="ct" fill="#DDDDDD" stroke="#FFFFFF" d="M874.07,178.86l-3.68-14.88l-4.72,0.92l-21.23,4.74l1,3.23l1.45,7.27l0.18,8.97
		l-1.22,2.17l1.92,1.93l4.27-3.91l3.56-3.23l1.94-2.1l0.81,0.65l2.75-1.45l5.17-1.13L874.07,178.86L874.07,178.86L874.07,178.86z"/>
	<path id="wi" fill="#DDDDDD" stroke="#FFFFFF" d="M615.07,197.37l-0.07-3.16l-1.18-4.53l-0.65-6.14l-1.13-2.42l0.97-3.07l0.81-2.91
		l1.45-2.59l-0.65-3.39l-0.65-3.56l0.48-1.78l1.94-2.42l0.16-2.75l-0.81-1.29l0.65-2.59l-0.45-4.17l2.75-5.66l2.91-6.79l0.16-2.26
		l-0.32-0.97l-0.81,0.48l-4.2,6.3l-2.75,4.04l-1.94,1.78l-0.81,2.26l-1.95,0.81l-1.13,1.94l-1.45-0.32l-0.16-1.78l1.29-2.42
		l2.1-4.69l1.78-1.62l0.99-2.36l-2.56-1.9l-1.97-10.37l-3.55-1.34l-1.95-2.31l-12.13-2.72l-2.88-1.01l-8.21-2.17l-7.92-1.16
		l-3.77-5.13l-0.75,0.55l-1.2-0.16l-0.65-1.13l-1.33,0.3l-1.13,0.16l-1.78,0.97l-0.97-0.65l0.65-1.94l1.94-3.07l1.13-1.13
		l-1.94-1.45l-2.1,0.81l-2.91,1.94l-7.44,3.23l-2.91,0.65l-2.91-0.48l-0.98-0.88l-2.12,2.84l-0.23,2.74v8.46l-1.14,1.6l-5.26,3.89
		l-2.29,5.94l0.46,0.23l2.51,2.06l0.69,3.2l-1.83,3.2V147l0.46,6.63l2.97,2.97h3.43l1.83,3.2l3.43,0.46l3.89,5.72l7.09,4.12
		l2.06,2.74l0.91,7.43l0.69,3.32l2.29,1.6l0.23,1.37l-2.06,3.43l0.23,3.2l2.51,3.89l2.51,1.14l2.97,0.46l1.34,1.38L615.07,197.37
		L615.07,197.37L615.07,197.37z"/>
	<path id="nc" fill="#DDDDDD" stroke="#FFFFFF" d="M834.98,294.32l2.09,4.92l3.56,6.47l2.42,2.42l0.65,2.26l-2.42,0.16l0.81,0.65
		l-0.32,4.2l-2.59,1.29l-0.65,2.1l-1.29,2.91l-3.72,1.62L831.1,323l-1.45-0.16l-1.62-1.29l0.32,1.29v0.97h1.94l0.81,1.29l-1.94,6.3
		h4.2l0.65,1.62l2.26-2.26l1.29-0.48l-1.94,3.56l-3.07,4.85h-1.29l-1.13-0.48l-2.75,0.65l-5.17,2.42l-6.47,5.33l-3.39,4.69
		l-1.94,6.47l-0.48,2.42l-4.69,0.48l-5.45,1.34l-9.95-8.2l-12.61-7.6l-2.91-0.81l-12.61,1.45l-4.28,0.75l-1.62-3.23l-2.97-2.12
		l-16.49,0.48l-7.27,0.81l-9.05,4.53l-6.14,2.59l-21.18,2.59l0.5-4.05l1.78-1.45l2.75-0.65l0.65-3.72l4.2-2.75l3.88-1.45l4.2-3.56
		l4.36-2.1l0.65-3.07l3.88-3.88l0.65-0.16l0.81,1.13l1.94,0.32l2.26-3.56l2.1-0.65l2.26,0.32l1.62-3.56l2.91-2.59l0.48-2.1
		l0.19-3.65l4.28-0.02l7.2-0.86l15.76-2.25l15.14-2.09l21.64-4.72l19.98-4.26l11.18-2.41L834.98,294.32L834.98,294.32L834.98,294.32
		z M839.25,327.52l2.59-2.51l3.15-2.59l1.54-0.65l0.16-2.02l-0.65-6.14l-1.45-2.34l-0.65-1.86l0.73-0.24l2.75,5.5l0.4,4.45
		l-0.16,3.39l-3.39,1.54l-2.83,2.42l-1.13,1.21L839.25,327.52L839.25,327.52L839.25,327.52z"/>
	<g id="dc">
		<path fill="#DDDDDD" stroke="#FFFFFF" d="M805.82,250.84l-1.86-1.82l-1.23-0.69l1.44-2.02l2.89,1.95L805.82,250.84L805.82,250.84
			L805.82,250.84z"/>
		<path display="none" fill="#EEEEEE" stroke="#646464" stroke-width="0.5" d="M804.45,245c4.38-0.97,8.19,2.84,7.22,7.22
			c-0.49,2.21-2.27,3.99-4.47,4.47c-4.38,0.97-8.19-2.84-7.22-7.22C800.46,247.26,802.24,245.49,804.45,245z"/>
	</g>
	<path id="ma" fill="#DDDDDD" stroke="#FFFFFF" d="M899.62,173.25l2.17-0.69l0.46-1.71l1.03,0.11l1.03,2.29l-1.26,0.46l-3.89,0.11
		L899.62,173.25L899.62,173.25L899.62,173.25z M890.25,174.05l2.29-2.63h1.6l1.83,1.49l-2.4,1.03l-2.17,1.03L890.25,174.05
		L890.25,174.05L890.25,174.05z M855.45,152.07l17.65-4.64l2.26-0.65l1.91-2.8l3.74-1.66l2.89,4.41l-2.42,5.17l-0.32,1.45l1.94,2.59
		l1.13-0.81H886l2.26,2.59l3.88,5.98l3.56,0.48l2.26-0.97l1.78-1.78l-0.81-2.75l-2.1-1.62l-1.45,0.81l-0.97-1.29l0.48-0.48l2.1-0.16
		l1.78,0.81l1.94,2.42l0.97,2.91l0.32,2.42l-4.2,1.45l-3.88,1.94l-3.88,4.53l-1.94,1.45v-0.97l2.42-1.45l0.48-1.78l-0.81-3.07
		l-2.91,1.45l-0.81,1.45l0.48,2.26l-2.07,1l-2.75-4.53l-3.39-4.36l-2.07-1.81l-6.53,1.88l-5.09,1.05l-20.68,4.59l-0.67-4.77
		l0.65-10.59l4.29-0.89L855.45,152.07L855.45,152.07L855.45,152.07z"/>
	<path id="tn" fill="#DDDDDD" stroke="#FFFFFF" d="M696.68,318.25l-51.89,5.01l-15.76,1.78l-4.62,0.51l-3.87-0.03l-0.22,4.1
		l-8.19,0.26l-6.95,0.65l-8.09-0.12l-1.41,7.07l-1.7,5.48l-3.29,2.75l-1.35,4.38l-0.32,2.59l-4.04,2.26l1.45,3.56l-0.97,4.36
		l-0.97,0.79l108.16-10.41l0.4-3.95l1.81-1.49l2.83-0.75l0.67-3.72l4.1-2.7l4.05-1.49l4.08-3.57l4.44-2.03l0.52-3.07l4.06-3.98
		l0.55-0.11l0.84,1.13l1.94,0.35l2.26-3.59l2.07-0.65l2.28,0.3l1.6-3.53l2.96-2.64l0.42-1.94l0.31-3.71l-2.15-0.2l-2.6,2.03
		l-6.99,0.03l-18.36,2.39L696.68,318.25L696.68,318.25L696.68,318.25z"/>
	<path id="ar" fill="#DDDDDD" stroke="#FFFFFF" d="M593.82,343.05l-3.98,0.72l-5.11-0.63l0.42-1.6l2.98-2.57l0.94-3.66l-1.83-2.97
		l-78.42,2.51l1.6,6.86v8.23l1.37,10.97l0.23,37.84l2.29,1.94l2.97-1.37l2.74,1.14l0.68,6.57l55.62-1.14l1.15-2.09l-0.29-3.55
		l-1.83-2.97l1.6-1.49l-1.6-2.51l0.68-2.51l1.37-5.61l2.52-2.06l-0.69-2.28l3.66-5.37l2.74-1.37l-0.11-1.49l-0.35-1.83l2.86-5.6
		l2.4-1.26l0.38-3.43l1.77-1.24l-3.14-0.48l-1.34-4.01l2.8-2.38l0.55-2.02l1.28-4.05L593.82,343.05L593.82,343.05L593.82,343.05z"/>
	<path id="mo" fill="#DDDDDD" stroke="#FFFFFF" d="M558.44,248.11l-2.52-3.09l-1.14-2.29l-64.36,2.4l-2.29,0.11l1.26,2.51
		l-0.23,2.29l2.51,3.89l3.09,4.12l3.09,2.74l2.16,0.23l1.5,0.91v2.97l-1.83,1.6l-0.46,2.29l2.06,3.43l2.51,2.97l2.51,1.83
		l1.37,11.66l0.31,36.07l0.23,4.69l0.46,5.38l22.43-0.87l23.21-0.69l20.8-0.8l11.65-0.23l2.17,3.43l-0.68,3.31l-3.09,2.4l-0.57,1.84
		l5.38,0.46l3.89-0.69l1.72-5.49l0.65-5.86l2.1-2.56l2.6-1.49l0.05-3.05l1.02-1.94l-1.69-2.54l-1.33,0.98l-1.99-2.23l-1.29-4.76
		l0.8-2.52l-1.94-3.43l-1.83-4.58l-4.8-0.8l-6.97-5.6l-1.72-4.11l0.8-3.2l2.06-6.06l0.46-2.86l-1.95-1.03l-6.86-0.8l-1.03-1.71
		l-0.11-4.23l-5.49-3.43l-6.98-7.77l-2.29-7.32l-0.23-4.23L558.44,248.11L558.44,248.11L558.44,248.11z"/>
	<path id="ga" fill="#DDDDDD" stroke="#FFFFFF" d="M672.29,355.55v2.18l0.16,2.1l0.65,3.39l3.39,7.92l2.42,9.86l1.45,6.14l1.62,4.85
		l1.45,6.95l2.1,6.3l2.59,3.39l0.48,3.39l1.94,0.81l0.16,2.1l-1.78,4.85l-0.48,3.23l-0.16,1.94l1.62,4.36l0.32,5.33l-0.81,2.42
		l0.65,0.81l1.45,0.81l0.2,3.22l2.23,3.35l2.25,2.16l7.92,0.16l10.82-0.65l21.51-1.29l5.45-0.67l4.58,0.03l0.16,2.91l2.59,0.81
		l0.32-4.36l-1.62-4.53l1.13-1.62l5.82,0.81l4.98,0.32l-0.78-6.3l2.26-10.02l1.45-4.2l-0.48-2.59l3.33-6.24l-0.51-1.35l-1.91,0.7
		l-2.59-1.29l-0.65-2.1l-1.29-3.56l-2.26-2.1l-2.59-0.65l-1.62-4.85l-2.92-6.33l-4.2-1.94l-2.1-1.94l-1.29-2.59l-2.1-1.94
		l-2.26-1.29l-2.26-2.91l-3.07-2.26l-4.53-1.78l-0.48-1.46l-2.42-2.91l-0.48-1.45l-3.39-4.97l-3.52,0.1l-3.75-2.36l-1.42-1.29
		l-0.32-1.78l0.87-1.94l2.23-1.11l-0.63-2.1L672.29,355.55L672.29,355.55L672.29,355.55z"/>
	<path id="sc" fill="#DDDDDD" stroke="#FFFFFF" d="M764.94,408.16l-1.78,0.97l-2.59-1.29l-0.65-2.1l-1.29-3.56l-2.26-2.1l-2.59-0.65
		l-1.62-4.85l-2.75-5.98l-4.2-1.94l-2.1-1.94l-1.29-2.59l-2.1-1.94l-2.26-1.29l-2.26-2.91l-3.07-2.26l-4.53-1.78l-0.48-1.45
		l-2.42-2.91l-0.48-1.45l-3.39-5.17l-3.39,0.16l-4.04-2.42l-1.29-1.29l-0.32-1.78l0.81-1.94l2.26-0.97l-0.51-2.29l5.77-2.34
		l9.12-4.59l7.77-0.81l16.11-0.42l2.64,1.88l1.68,3.36l4.3-0.61l12.61-1.45l2.91,0.81l12.61,7.6l10.11,8.12l-5.42,5.46l-2.59,6.14
		l-0.48,6.3l-1.62,0.81l-1.13,2.75l-2.42,0.65l-2.1,3.56l-2.75,2.75l-2.26,3.39l-1.62,0.81l-3.56,3.39l-2.91,0.16l0.97,3.23
		l-5.01,5.5L764.94,408.16L764.94,408.16L764.94,408.16z"/>
	<path id="ky" fill="#DDDDDD" stroke="#FFFFFF" d="M725.99,295.27l-2.29,2.4l-3.58,3.99l-4.92,5.46l-1.22,1.72l-0.06,2.1l-4.38,2.16
		l-5.66,3.39l-7.23,1.8l-51.87,4.9l-15.76,1.78l-4.62,0.51l-3.87-0.03l-0.23,4.22l-8.18,0.14l-6.95,0.65l-7.99-0.06l1.21-1.32
		l2.5-1.54l0.23-3.2l0.91-1.83l-1.61-2.54l0.8-1.91l2.26-1.78l2.1-0.65l2.75,1.29l3.56,1.29l1.13-0.32l0.16-2.26l-1.29-2.42
		l0.32-2.26l1.94-1.45l2.59-0.65l1.62-0.65l-0.81-1.78l-0.65-1.94l1.51-1l1.24-3.66l3.05-1.48l5.32-0.97l4.49-0.48l1.39,1.63
		l1.53,0.87l1.59-3.11l3.19-1.28l2.21,1.48l0.41,1l1.17-0.26l-0.16-2.95l3.13-1.75l2.15-1.07l1.53,1.66l3.32-0.04l0.59-1.57
		l-0.37-2.26l2.6-4l4.78-3.44l0.71-4.84l2.93-0.46l3.79-1.65l2.44-1.71l-0.2-1.56l-1.14-1.45l0.57-2.99l4.18-0.12l2.3-0.75
		l3.35,1.43l2.05,4.36l5.13,0.01l2.05,2.21l1.62-0.15l2.6-1.28l5.24,0.57l2.57,0.22l1.69-2.06l2.62-1.43l1.88-0.71l0.65,2.84
		l2.04,1.06l2.64,2.08l0.12,5.67l0.81,1.57l2.59,1.56l0.77,2.29l4.16,3.44l1.81,3.62L725.99,295.27L725.99,295.27L725.99,295.27z"/>
	<path id="al" fill="#DDDDDD" stroke="#FFFFFF" d="M631.31,460.42l-1.49-14.32l-2.75-18.75l0.16-14.06l0.81-31.04l-0.16-16.65
		l0.17-6.42l44.48-3.62l-0.15,2.18l0.16,2.1l0.65,3.39l3.39,7.92l2.42,9.86l1.45,6.14l1.62,4.85l1.45,6.95l2.1,6.3l2.59,3.39
		l0.48,3.39l1.94,0.81l0.16,2.1l-1.78,4.85l-0.48,3.23l-0.16,1.94l1.62,4.36l0.32,5.33l-0.81,2.42l0.65,0.81l1.45,0.81l0.33,2.89
		l-5.6-0.35l-6.79,0.65L654,444.79l-10.41,1.41l-0.22,2.88l1.78,1.78l2.59,1.94l0.58,7.94l-5.54,2.57l-2.75-0.32l2.75-1.94v-0.97
		l-3.07-5.98l-2.26-0.65l-1.45,4.36l-1.29,2.75l-0.65-0.16L631.31,460.42L631.31,460.42L631.31,460.42z"/>
	<path id="la" fill="#DDDDDD" stroke="#FFFFFF" d="M607.97,459.16l-3.28-3.17l1.01-5.5l-0.66-0.89l-9.26,1.01l-25.03,0.46
		l-0.68-2.39l0.91-8.46l3.32-5.95l5.03-8.69l-0.57-2.4l1.26-0.68l0.46-1.95l-2.29-2.06l-0.11-1.94l-1.83-4.35l-0.15-6.34
		l-55.47,0.92l0.03,9.57l0.69,9.37l0.69,3.89l2.51,4.12l0.91,5.03l4.34,5.49l0.23,3.2l0.69,0.69l-0.69,8.46l-2.97,5.03l1.6,2.06
		l-0.69,2.51l-0.69,7.32l-1.37,3.2l0.12,3.62l4.69-1.52l12.11,0.21l10.35,3.56l6.47,1.13l3.72-1.45l3.23,1.13l3.23,0.97l0.81-2.1
		l-3.23-1.13l-2.59,0.48l-2.75-1.62l0.81-1.45l3.07-0.97l1.78,1.45l1.78-0.97l3.23,0.65l1.45,2.42l0.32,2.26l4.53,0.32l1.78,1.78
		l-0.81,1.62l-1.29,0.81l1.62,1.62l8.41,3.56l3.56-1.29l0.97-2.42l2.59-0.65l1.78-1.45l1.29,0.97l0.81,2.91l-2.26,0.81l0.65,0.65
		l3.39-1.29l2.26-3.39l0.81-0.48l-2.1-0.32l0.81-1.62l-0.16-1.45l2.1-0.48l1.13-1.29l0.65,0.81l0.65,3.07l4.2,0.65l4.04,1.94
		l0.97,1.45h2.91l1.13,0.97l2.26-3.07v-1.45h-1.29l-3.39-2.75l-5.82-0.81l-3.23-2.26l1.13-2.75l2.26,0.32l0.16-0.65l-1.78-0.97
		v-0.48h3.23l1.78-3.07l-1.29-1.94l-0.32-2.75l-1.45,0.16l-1.94,2.1l-0.65,2.59l-3.07-0.65l-0.97-1.78l1.78-1.94l1.9-3.45
		l-1.06-2.41L607.97,459.16L607.97,459.16L607.97,459.16z"/>
	<path id="ms" fill="#DDDDDD" stroke="#FFFFFF" d="M631.56,459.34l-0.25,1.26h-5.17l-1.45-0.81l-2.1-0.32l-6.79,1.94l-1.78-0.81
		l-2.59,4.2l-1.1,0.78l-1.12-2.49l-1.14-3.89l-3.43-3.2l1.14-5.54l-0.69-0.91l-1.83,0.23l-7.92,0.87l-24.55,0.37l-0.77-2.23
		l0.87-8.38l3.12-5.67l5.23-9.14l-0.45-2.43l1.24-0.66l0.44-1.92l-2.32-2.08l-0.12-2.14l-1.84-4.12l-0.11-5.96l1.33-2.48l-0.22-3.42
		l-1.77-3.08l1.53-1.48l-1.57-2.5l0.46-1.65l1.58-6.53l2.49-2.04l-0.64-2.37l3.66-5.3l2.83-1.36l-0.22-1.68l-0.29-1.68l2.88-5.57
		l2.35-1.23l0.15-0.89l37.34-3.88l0.18,6.28l0.16,16.65l-0.81,31.04l-0.16,14.06l2.75,18.75L631.56,459.34L631.56,459.34
		L631.56,459.34z"/>
	<path id="ia" fill="#DDDDDD" stroke="#FFFFFF" d="M569.19,199.58l0.26,2.79l2.22,0.58l0.95,1.23l0.5,1.86l3.79,3.36l0.69,2.39
		l-0.67,3.42l-1.58,3.23l-0.8,2.74l-2.17,1.6l-1.72,0.57l-5.58,1.86l-1.39,3.85l0.73,1.37l1.84,1.68l-0.28,4.04l-1.76,1.54
		l-0.77,1.64l0.13,2.78l-1.89,0.46l-1.63,1.1l-0.28,1.35l0.28,2.11l-1.55,1.12l-2.47-3.13l-1.26-2.45l-65.74,2.51l-0.92,0.17
		l-2.05-4.52l-0.23-6.63l-1.6-4.12l-0.69-5.26l-2.29-3.66l-0.91-4.8l-2.74-7.54l-1.14-5.37l-1.37-2.17l-1.6-2.74l1.95-4.84
		l1.37-5.72l-2.74-2.06l-0.46-2.74l0.91-2.51h1.71l82.65-1.27l0.83,4.18l2.25,1.56l0.26,1.42l-2.03,3.39l0.19,3.21l2.51,3.8
		l2.53,1.29l3.08,0.5L569.19,199.58L569.19,199.58L569.19,199.58z"/>
	<path id="mn" fill="#DDDDDD" stroke="#FFFFFF" d="M475.24,128.82l-0.46-8.46l-1.83-7.32l-1.83-13.49l-0.46-9.83l-1.83-3.43
		l-1.6-5.03V70.98l0.69-3.89l-1.82-5.45l30.13,0.04l0.32-8.24l0.65-0.16l2.26,0.48l1.94,0.81l0.81,5.5l1.45,6.14l1.62,1.62h4.85
		l0.32,1.45l6.3,0.32v2.1h4.85l0.32-1.29l1.13-1.13l2.26-0.65l1.29,0.97h2.91l3.88,2.59l5.33,2.42l2.42,0.48l0.48-0.97l1.45-0.48
		l0.48,2.91l2.59,1.29l0.48-0.48l1.29,0.16v2.1l2.59,0.97h3.07l1.62-0.81l3.23-3.23l2.59-0.48l0.81,1.78l0.48,1.29h0.97l0.97-0.81
		l8.89-0.32l1.78,3.07h0.65l0.71-1.08l4.44-0.37l-0.61,2.28l-3.94,1.84l-9.25,4.06l-4.77,2.01l-3.07,2.59l-2.42,3.56l-2.26,3.88
		l-1.78,0.81l-4.53,5.01l-1.29,0.16l-4.33,2.76L540,111.8l-0.23,3.19l0.09,8.04l-1.38,1.69l-5.08,3.76l-2.23,5.98l2.87,2.23
		l0.68,3.23l-1.86,3.24l0.17,3.75l0.37,6.73l3.03,3h3.33l1.89,3.13l3.38,0.5l3.86,5.67l7.09,4.12l2.14,2.88l0.67,6.44l-81.21,1.14
		l-0.34-35.68l-0.46-2.97l-4.12-3.43l-1.14-1.83V135l2.06-1.6l1.37-1.37L475.24,128.82L475.24,128.82L475.24,128.82z"/>
	<path id="ok" fill="#DDDDDD" stroke="#FFFFFF" d="M380.34,320.82l-16.68-1.27l-0.88,10.95l20.47,1.16l32.06,1.3l-2.33,24.42
		l-0.46,17.83l0.23,1.6l4.34,3.66l2.06,1.14l0.69-0.23l0.69-2.06l1.37,1.83h2.06v-1.37l2.74,1.37l-0.46,3.89l4.12,0.23l2.51,1.14
		l4.12,0.69l2.51,1.83l2.29-2.06l3.43,0.69l2.51,3.43h0.91v2.29l2.29,0.69l2.29-2.29l1.83,0.69h2.51l0.91,2.51l6.3,2.08l1.37-0.69
		l1.83-4.12h1.14l1.14,2.06l4.12,0.69l3.66,1.37l2.97,0.91l1.83-0.91l0.69-2.51h4.34l2.06,0.91l2.74-2.06h1.14l0.69,1.6h4.12
		l1.6-2.06l1.83,0.46l2.06,2.51l3.2,1.83l3.2,0.91l1.94,1.12l-0.39-37.22l-1.37-10.97l-0.16-8.87l-1.44-6.54l-0.78-7.18l-0.07-3.82
		l-12.14,0.32l-46.41-0.46l-45.04-2.06L380.34,320.82L380.34,320.82L380.34,320.82z"/>
	<path id="tx" fill="#DDDDDD" stroke="#FFFFFF" d="M361.46,330.57l22.69,1.09l31.09,1.14l-2.33,23.46l-0.3,18.15l0.07,2.08
		l4.34,3.82l1.99,1.45l1.18-0.56l0.37-1.82l1.14,1.8l2.11,0.04v-1.45l1.67,0.97l1.14,0.41l-0.36,3.97l4.09,0.09l2.93,1.2l3.95,0.53
		l2.38,2.08l2.12-2.08l3.72,0.61l2.22,3.22l1.07,0.32l-0.16,1.97l2.21,0.79l2.33-2.05l2.13,0.61l2.23,0.04l0.93,2.44l6.33,2.11
		l1.59-0.77l1.49-4.18h0.34l0.91,0.08l1.23,2.07l3.93,0.67l3.34,1.12l3.43,1.2l1.84-0.98l0.71-2.51l4.45,0.04l1.81,0.93l2.8-2.11
		l1.1,0.04l0.85,1.61h4.05l1.52-2.03l1.87,0.41l1.95,2.4l3.52,2.04l2.86,0.81l1.51,0.8l2.45,2l3.04-1.33l2.69,1.14l0.56,6.11
		l-0.04,9.7l0.69,9.53l0.7,3.61l2.68,4.42l0.9,4.95l4.22,5.54l0.2,3.14l0.75,0.79l-0.73,8.38l-2.87,5.01l1.53,2.15l-0.63,2.34
		l-0.67,7.4l-1.5,3.34l0.29,3.5l-5.66,1.59l-9.86,4.53l-0.97,1.94l-2.59,1.94l-2.1,1.45l-1.29,0.81l-5.66,5.33l-2.75,2.1l-5.33,3.23
		l-5.66,2.42l-6.3,3.39l-1.78,1.45l-5.82,3.56l-3.39,0.65l-3.88,5.5l-4.04,0.32l-0.97,1.94l2.26,1.94l-1.45,5.5l-1.29,4.53
		l-1.13,3.88l-0.81,4.53l0.81,2.42l1.78,6.95l0.97,6.14l1.78,2.75L460,562.6l-3.07,1.94l-5.66-3.88l-5.5-1.13l-1.29,0.48l-3.23-0.65
		l-4.2-3.07l-5.17-1.13l-7.6-3.39l-2.1-3.88l-1.29-6.47l-3.23-1.94l-0.65-2.26l0.65-0.65l0.32-3.39l-1.29-0.65l-0.65-0.97l1.29-4.36
		l-1.62-2.26l-3.23-1.29l-3.39-4.36l-3.56-6.63l-4.2-2.59l0.16-1.94l-5.33-12.29l-0.81-4.2l-1.78-1.94l-0.16-1.45l-5.98-5.33
		l-2.59-3.07v-1.13l-2.59-2.1l-6.79-1.13l-7.44-0.65l-3.07-2.26l-4.53,1.78l-3.56,1.45l-2.26,3.23l-0.97,3.72l-4.36,6.14l-2.42,2.42
		l-2.59-0.97l-1.78-1.13l-1.94-0.65l-3.88-2.26v-0.65l-1.78-1.94l-5.17-2.1l-7.44-7.76l-2.26-4.69v-8.08l-3.23-6.47l-0.48-2.75
		l-1.62-0.97l-1.13-2.1l-5.01-2.1l-1.29-1.62l-7.11-7.92l-1.29-3.23l-4.69-2.26l-1.45-4.36l-2.59-2.91l-1.94-0.48l-0.65-4.68l8,0.69
		l29.04,2.74l29.04,1.6l2.23-19.46l3.89-55.56l1.6-18.75l1.37,0.03 M461.69,560.21l-0.57-7.11l-2.75-7.19l-0.57-7.03l1.54-8.24
		l3.31-6.87l3.48-5.42l3.15-3.56l0.65,0.24l-4.77,6.63l-4.36,6.55l-2.02,6.63l-0.32,5.17l0.89,6.14l2.59,7.19l0.48,5.17l0.16,1.45
		L461.69,560.21L461.69,560.21L461.69,560.21z"/>
	<path id="nm" fill="#DDDDDD" stroke="#FFFFFF" d="M288.15,424.01l-0.78-4.75l8.64,0.53l30.17,2.95l27.27,1.69l2.22-18.71
		l3.86-55.88l1.74-19.39l1.57,0.13l0.83-11.16l-104-10.64l-17.5,120.43l15.46,1.99l1.29-10.02L288.15,424.01L288.15,424.01
		L288.15,424.01z"/>
	<path id="ks" fill="#DDDDDD" stroke="#FFFFFF" d="M507.88,324.38l-12.62,0.2l-46.09-0.46l-44.56-2.06l-24.63-1.26l3.89-64.59
		l22.08,0.68l40.29,0.84l44.3,0.99h5.1l2.18,2.16l2.02-0.02l1.64,1.01l-0.06,3.01l-1.83,1.73l-0.33,2.23l1.84,3.4l2.95,3.2
		l2.33,1.61l1.3,11.24L507.88,324.38L507.88,324.38L507.88,324.38z"/>
	<path id="ne" fill="#DDDDDD" stroke="#FFFFFF" d="M486.1,240.7l3.23,7.02l-0.13,2.3l3.46,5.49l2.72,3.15h-5.05l-43.48-0.94
		l-40.79-0.89l-22.25-0.78l1.07-21.33l-32.32-2.92l4.34-44.01l15.55,1.03l20.12,1.14l17.83,1.14l23.78,1.14l10.75-0.46l2.06,2.29
		l4.8,2.97l1.14,0.91l4.34-1.37l3.89-0.46l2.74-0.23l1.83,1.37l4.06,1.6l2.97,1.6l0.46,1.6l0.91,2.06h1.83l0.8,0.05l0.89,4.68
		l2.92,8.47l0.57,3.76l2.52,3.77l0.57,5.11l1.61,4.24L486.1,240.7L486.1,240.7L486.1,240.7z"/>
	<path id="sd" fill="#DDDDDD" stroke="#FFFFFF" d="M476.45,204.02l-0.05-0.58l-2.9-4.85l1.86-4.71l1.49-5.89l-2.78-2.08l-0.39-2.74
		l0.79-2.55l3.19,0.02l-0.12-5.01l-0.33-30.17l-0.62-3.77l-4.07-3.33l-0.98-1.68l-0.06-1.61l2.02-1.53l1.53-1.67l0.24-2.66
		l-58.26-1.6l-54.8-3.45l-5.33,63.69l14.59,0.9l19.95,1.21l17.74,0.93l23.78,1.3l11.98-0.42l1.97,2.25l5.19,3.25l0.76,0.72
		l4.54-1.45l6.54-0.61l1.68,1.34l4.2,1.6l2.95,1.64l0.4,1.48l1.04,2.24L476.45,204.02L476.45,204.02L476.45,204.02z"/>
	<path id="nd" fill="#DDDDDD" stroke="#FFFFFF" d="M475.31,128.92l-0.61-8.43l-1.68-6.82l-1.89-13.02l-0.46-10.99l-1.74-3.08
		l-1.76-5.19l0.03-10.44l0.62-3.82l-1.83-5.47l-28.64-0.56l-18.59-0.65l-26.51-1.29l-22.95-2.13l-6.99,67.18l54.93,3.34
		L475.31,128.92L475.31,128.92L475.31,128.92z"/>
	<path id="wy" fill="#DDDDDD" stroke="#FFFFFF" d="M360.38,143.28l-106.74-13.46l-14.08,88.46l113.26,13.59L360.38,143.28
		L360.38,143.28z"/>
	<path id="mt" fill="#DDDDDD" stroke="#FFFFFF" d="M369.21,56.97l-30.67-2.81l-29.26-3.56l-29.26-4.04l-32.33-5.33l-18.43-3.39
		l-32.72-6.93l-4.48,21.35l3.43,7.54l-1.37,4.57l1.83,4.57l3.2,1.37l4.62,10.77l2.7,3.18l0.46,1.14l3.43,1.14l0.46,2.06l-7.09,17.6
		v2.51l2.51,3.2h0.91l4.8-2.97l0.69-1.14l1.6,0.69l-0.23,5.26l2.74,12.57l2.97,2.51l0.91,0.69l1.83,2.29l-0.46,3.43l0.69,3.43
		l1.14,0.91l2.29-2.29h2.74l3.2,1.6l2.51-0.91h4.12l3.66,1.6l2.74-0.46l0.46-2.97l2.97-0.69l1.37,1.37l0.46,3.2l1.43,0.83
		l1.89-11.03l106.75,13.43L369.21,56.97L369.21,56.97L369.21,56.97z"/>
	<path id="co" fill="#DDDDDD" stroke="#FFFFFF" d="M380.03,320.96l4.9-86.32L271.55,222l-12.21,87.94L380.03,320.96L380.03,320.96z"
		/>
	<path id="id" fill="#DDDDDD" stroke="#FFFFFF" d="M148.48,176.48l8.77-35.22l1.37-4.23l2.51-5.94l-1.26-2.29l-2.51,0.11l-0.8-1.03
		l0.46-1.14l0.34-3.09l4.46-5.49l1.83-0.46l1.14-1.14l0.57-3.2l0.91-0.69l3.89-5.83l3.89-4.34l0.23-3.77l-3.43-2.63l-1.54-4.4
		l13.62-63.34l13.52,2.53l-4.41,21.38l3.56,7.49l-1.58,4.66l1.97,4.64l3.14,1.26l3.84,9.56l3.51,4.44l0.51,1.14l3.34,1.14l0.37,2.1
		l-6.97,17.38l-0.17,2.57l2.63,3.32l0.91-0.05l4.91-3.03l0.68-1.09l1.56,0.66l-0.28,5.35l2.74,12.58l3.92,3.18l1.68,2.17l-0.72,4.08
		l1.07,2.81l1.06,1.09l2.48-2.35l2.85,0.05l2.92,1.34l2.78-0.68l3.79-0.16l3.98,1.6l2.74-0.3l0.5-3.04l2.93-0.76l1.26,1.52
		l0.44,2.94l1.42,1.21l-8.39,53.61L148.48,176.48L148.48,176.48L148.48,176.48z"/>
	<path id="ut" fill="#DDDDDD" stroke="#FFFFFF" d="M259.5,310.11l-83.75-11.87l20.59-112.54l46.78,8.75l-1.48,10.63l-2.31,13.17
		l7.81,0.93l16.41,1.8l8.21,0.86L259.5,310.11L259.5,310.11z"/>
	<path id="az" fill="#DDDDDD" stroke="#FFFFFF" d="M144.91,382.63l-2.63,2.16l-0.32,1.45l0.48,0.97l18.91,10.67l12.12,7.6
		l14.71,8.57l16.81,10.02l12.29,2.42l24.95,2.7l17.26-119.13l-83.74-11.92l-3.09,16.41l-1.61,0.02l-1.71,2.63l-2.51-0.11l-1.26-2.74
		l-2.74-0.34l-0.91-1.14h-0.91l-0.91,0.57l-1.94,1.03l-0.11,6.97l-0.23,1.71l-0.57,12.57l-1.49,2.17l-0.57,3.32l2.74,4.92l1.26,5.83
		l0.8,1.03l1.03,0.57l-0.11,2.29l-1.6,1.37l-3.43,1.71l-1.94,1.94l-1.49,3.66l-0.57,4.92l-2.86,2.74l-2.06,0.69l0.14,0.83
		l-0.46,1.71l0.46,0.8l3.66,0.57l-0.57,2.74l-1.49,2.17L144.91,382.63L144.91,382.63L144.91,382.63z"/>
	<path id="nv" fill="#DDDDDD" stroke="#FFFFFF" d="M196.39,185.58L172.75,314.4l-1.83,0.35l-1.57,2.41l-2.37,0.01l-1.47-2.74
		l-2.62-0.38l-0.77-1.11l-1.04-0.05l-2.78,1.64l-0.31,6.79l-0.36,5.78l-0.35,8.59l-1.45,2.09l-2.44-1.07l-69.08-104.2l18.99-67.58
		L196.39,185.58L196.39,185.58L196.39,185.58z"/>
	<path id="or" fill="#DDDDDD" stroke="#FFFFFF" d="M148.72,175.53l8.85-34.8l1.05-4.23l2.35-5.62l-0.62-1.16l-2.51-0.05l-1.28-1.67
		l0.46-1.46l0.5-3.25l4.46-5.49l1.83-1.1l1.14-1.14l1.49-3.57l4.05-5.67l3.57-3.86l0.23-3.45l-3.27-2.47l-1.78-4.64l-12.66-3.61
		l-15.09-3.54l-15.43,0.11l-0.46-1.37l-5.49,2.06l-4.46-0.57l-2.4-1.6l-1.26,0.69l-4.69-0.23l-1.71-1.37l-5.26-2.06l-0.8,0.11
		l-4.34-1.49l-1.94,1.83l-6.17-0.34l-5.94-4.12l0.69-0.8l0.23-7.77l-2.29-3.89l-4.12-0.57l-0.69-2.51l-2.35-0.47l-5.8,2.06
		l-2.26,6.47L61.3,78.93l-3.23,6.47l-5.01,14.06l-6.47,13.58l-8.08,12.61l-1.94,2.91l-0.81,8.57l0.39,12.08L148.72,175.53
		L148.72,175.53L148.72,175.53z"/>
	<path id="wa" fill="#DDDDDD" stroke="#FFFFFF" d="M102.07,7.61l4.36,1.45l9.7,2.75l8.57,1.94l20.05,5.66l22.96,5.66l15.22,3.21
		L169.3,91.86l-12.45-3.53l-15.51-3.57l-15.23,0.03l-0.46-1.34l-5.6,2.18l-4.6-0.74l-2.15-1.58l-1.31,0.66l-4.74-0.14l-1.7-1.35
		l-5.26-2.11l-0.73,0.15L95.17,79l-1.89,1.82l-6.27-0.3l-5.93-4.13l0.78-0.93L82,67.78l-2.28-3.84l-4.12-0.61l-0.68-2.51l-2.28-0.46
		l-3.55,1.23l-2.26-3.22l0.32-2.91l2.75-0.32l1.62-4.04l-2.59-1.13l0.16-3.72l4.36-0.65l-2.75-2.75l-1.45-7.11l0.65-2.91v-7.92
		l-1.78-3.23l2.26-9.38l2.1,0.48l2.42,2.91l2.75,2.59l3.23,1.94l4.53,2.1l3.07,0.65l2.91,1.45l3.39,0.97l2.26-0.16v-2.42l1.29-1.13
		l2.1-1.29l0.32,1.13l0.32,1.78l-2.26,0.48l-0.32,2.1l1.78,1.45l1.13,2.42l0.65,1.94l1.45-0.16l0.16-1.29l-0.97-1.29l-0.48-3.23
		l0.81-1.78l-0.65-1.45v-2.26l1.78-3.56l-1.13-2.59l-2.42-4.85l0.32-0.81L102.07,7.61L102.07,7.61L102.07,7.61z M92.62,13.59
		l2.02-0.16l0.48,1.37l1.54-1.62H99l0.81,1.54l-1.54,1.7l0.65,0.81l-0.73,2.02l-1.37,0.4l-0.89-0.24l1.45-2.59l-1.7-0.57l-0.32,1.45
		l-0.73,0.65L93.1,16.1L92.62,13.59L92.62,13.59z"/>
	<g id="ca">
		<path fill="#DDDDDD" stroke="#FFFFFF" d="M144.69,382.2l3.94-0.49l1.49-2.01l0.54-2.94l-3.55-0.59l-0.51-0.67l0.48-2.03
			l-0.16-0.59l1.92-0.62l3.04-2.83l0.58-5l1.38-3.4l1.94-2.17l3.52-1.59l1.65-1.6l0.07-2.11l-0.99-0.58l-1.02-1.07l-1.16-5.85
			l-2.69-4.83l0.57-3.51l-2.42-1.03L84.26,232.51l18.9-67.6l-67.08-15.7l-1.51,4.73l-0.16,7.44l-5.17,11.8l-3.07,2.59l-0.32,1.13
			l-1.78,0.81l-1.45,4.2l-0.81,3.23l2.75,4.2l1.62,4.2l1.13,3.56l-0.32,6.47l-1.78,3.07l-0.65,5.82l-0.97,3.72l1.78,3.88l2.75,4.53
			l2.26,4.85l1.29,4.04l-0.32,3.23l-0.32,0.48v2.1l5.66,6.3l-0.48,2.42l-0.65,2.26l-0.65,1.94l0.16,8.24l2.1,3.72l1.94,2.59
			l2.75,0.48l0.97,2.75l-1.13,3.56l-2.1,1.62h-1.13l-0.81,3.88l0.48,2.91l3.23,4.36l1.62,5.33l1.45,4.69l1.29,3.07l3.39,5.82
			l1.45,2.59l0.48,2.91l1.62,0.97v2.42l-0.81,1.94l-1.78,7.11l-0.48,1.94l2.42,2.75l4.2,0.48l4.53,1.78l3.88,2.1h2.91l2.91,3.07
			l2.59,4.85l1.13,2.26l3.88,2.1l4.85,0.81l1.45,2.1l0.65,3.23l-1.45,0.65l0.32,0.97l3.23,0.81l2.75,0.16l3.16-1.69l3.88,4.2
			L97.7,358l2.59,4.2l0.32,3.23v9.38l0.48,1.78l10.02,1.45l19.72,2.75L144.69,382.2L144.69,382.2L144.69,382.2z M56.56,338.48
			l1.29,1.54l-0.16,1.29l-3.23-0.08l-0.57-1.21l-0.65-1.45L56.56,338.48L56.56,338.48L56.56,338.48z M58.5,338.48l1.21-0.65
			l3.56,2.1l3.07,1.21l-0.89,0.65l-4.53-0.24l-1.62-1.62L58.5,338.48L58.5,338.48L58.5,338.48z M79.19,358.28l1.78,2.34l0.81,0.97
			l1.54,0.57l0.57-1.45l-0.97-1.78l-2.67-2.02l-1.05,0.16L79.19,358.28L79.19,358.28L79.19,358.28z M77.74,366.93l1.78,3.15
			l1.21,1.94l-1.45,0.24l-1.29-1.21l-0.73-1.86v-2.18L77.74,366.93L77.74,366.93L77.74,366.93z"/>
	</g>
</g>
</svg>
